<?xml version="1.0" encoding="UTF-8"?>
<!--
This file has been modified from the original version by the kanji_colorize.py
script (available at http://github.com/cayennes/kanji-colorize) with these
settings:
    mode: spectrum
    saturation: 0.95
    value: 0.75
    image_size: 327
It remains under a Creative Commons-Attribution-Share Alike 3.0 License.

The original SVG has the following copyright:

Copyright (C) 2009/2010/2011 Ulrich Apel.
This work is distributed under the conditions of the Creative Commons
Attribution-Share Alike 3.0 Licence. This means you are free:
* to Share - to copy, distribute and transmit the work
* to Remix - to adapt the work

Under the following conditions:
* Attribution. You must attribute the work by stating your use of KanjiVG in
  your own copyright header and linking to KanjiVG's website
  (http://kanjivg.tagaini.net)
* Share Alike. If you alter, transform, or build upon this work, you may
  distribute the resulting work only under the same or similar license to this
  one.

See http://creativecommons.org/licenses/by-sa/3.0/ for more details.
-->
<!DOCTYPE svg PUBLIC "-//W3C//DTD SVG 1.0//EN" "http://www.w3.org/TR/2001/REC-SVG-20010904/DTD/svg10.dtd" [
<!ATTLIST g
xmlns:kvg CDATA #FIXED "http://kanjivg.tagaini.net"
kvg:element CDATA #IMPLIED
kvg:variant CDATA #IMPLIED
kvg:partial CDATA #IMPLIED
kvg:original CDATA #IMPLIED
kvg:part CDATA #IMPLIED
kvg:number CDATA #IMPLIED
kvg:tradForm CDATA #IMPLIED
kvg:radicalForm CDATA #IMPLIED
kvg:position CDATA #IMPLIED
kvg:radical CDATA #IMPLIED
kvg:phon CDATA #IMPLIED >
<!ATTLIST path
xmlns:kvg CDATA #FIXED "http://kanjivg.tagaini.net"
kvg:type CDATA #IMPLIED >
]>
<svg xmlns="http://www.w3.org/2000/svg" width="327" height = "327" viewBox="0 0 327 327">
<g id="kvg:StrokePaths_04e10" style="fill:none;stroke:#000000;stroke-width:3;stroke-linecap:round;stroke-linejoin:round;" transform="scale(3.0,3.0)">
<g id="kvg:04e10" kvg:element="丐">
	<g id="kvg:04e10-g1" kvg:element="下">
		<g id="kvg:04e10-g2" kvg:element="一" kvg:radical="tradit">
			<path style="stroke: #bf0909;" id="kvg:04e10-s1" kvg:type="㇐" d="M20.26,18.17c1.41,0.45,3.7,0.76,4.55,0.67c12.44-1.34,43.96-5.76,57.69-5.76c1.01,0,3.23,0.67,4.24,1.12"/>
		</g>
		<g id="kvg:04e10-g3" kvg:element="卜" kvg:original="ト">
			<path style="stroke: #64bf09;" id="kvg:04e10-s2" kvg:type="㇑" d="M50.75,17.25C52,17.77,53,19.56,53,20.63C53,31.56,53,50.5,52.75,57"/>
			<path style="stroke: #09bfbf;" id="kvg:04e10-s3" kvg:type="㇐" d="M53.25,34.89c1.02,0.11,1,0.1,2.79-0.02c5.21-0.37,17.39-2.98,22.92-3.48c1.56-0.14,3,0.18,3.79,0.37"/>
		</g>
	</g>
	<path style="stroke: #6409bf;" id="kvg:04e10-s4" kvg:type="㇉" d="M24.43,32.55c1.25,0.98,1.37,3.44,1.25,5.18C25.25,43.5,25,49.75,23.8,58.18c-0.36,2.54,0.04,4.13,3.32,3.43C43,58.25,72.5,53.75,81.87,53.46c6.67-0.21,5.03,4.91,4.54,6.67c-2.49,9.05-9.52,27.33-14.99,34.92c-3.92,5.45-6.92,2.2-9.17-1.05"/>
</g>
</g>
<g id="kvg:StrokeNumbers_04e10" style="font-size:8;fill:#808080" transform="scale(3.0,3.0)">
	<text style="fill: #bf0909;" transform="matrix(1 0 0 1 13.50 18.50)">1</text>
	<text style="fill: #64bf09;" transform="matrix(1 0 0 1 44.50 26.50)">2</text>
	<text style="fill: #09bfbf;" transform="matrix(1 0 0 1 57.50 30.50)">3</text>
	<text style="fill: #6409bf;" transform="matrix(1 0 0 1 14.50 33.50)">4</text>
</g>
</svg>
