<?xml version="1.0" encoding="UTF-8"?>
<!--
This file has been modified from the original version by the kanji_colorize.py
script (available at http://github.com/cayennes/kanji-colorize) with these
settings:
    mode: spectrum
    saturation: 0.95
    value: 0.75
    image_size: 327
It remains under a Creative Commons-Attribution-Share Alike 3.0 License.

The original SVG has the following copyright:

Copyright (C) 2009/2010/2011 Ulrich Apel.
This work is distributed under the conditions of the Creative Commons
Attribution-Share Alike 3.0 Licence. This means you are free:
* to Share - to copy, distribute and transmit the work
* to Remix - to adapt the work

Under the following conditions:
* Attribution. You must attribute the work by stating your use of KanjiVG in
  your own copyright header and linking to KanjiVG's website
  (http://kanjivg.tagaini.net)
* Share Alike. If you alter, transform, or build upon this work, you may
  distribute the resulting work only under the same or similar license to this
  one.

See http://creativecommons.org/licenses/by-sa/3.0/ for more details.
-->
<!DOCTYPE svg PUBLIC "-//W3C//DTD SVG 1.0//EN" "http://www.w3.org/TR/2001/REC-SVG-20010904/DTD/svg10.dtd" [
<!ATTLIST g
xmlns:kvg CDATA #FIXED "http://kanjivg.tagaini.net"
kvg:element CDATA #IMPLIED
kvg:variant CDATA #IMPLIED
kvg:partial CDATA #IMPLIED
kvg:original CDATA #IMPLIED
kvg:part CDATA #IMPLIED
kvg:number CDATA #IMPLIED
kvg:tradForm CDATA #IMPLIED
kvg:radicalForm CDATA #IMPLIED
kvg:position CDATA #IMPLIED
kvg:radical CDATA #IMPLIED
kvg:phon CDATA #IMPLIED >
<!ATTLIST path
xmlns:kvg CDATA #FIXED "http://kanjivg.tagaini.net"
kvg:type CDATA #IMPLIED >
]>
<svg xmlns="http://www.w3.org/2000/svg" width="327" height = "327" viewBox="0 0 327 327">
<g id="kvg:StrokePaths_04ead" style="fill:none;stroke:#000000;stroke-width:3;stroke-linecap:round;stroke-linejoin:round;" transform="scale(3.0,3.0)">
<g id="kvg:04ead" kvg:element="亭">
	<g id="kvg:04ead-g1" kvg:element="高" kvg:part="1" kvg:partial="true" kvg:position="top">
		<g id="kvg:04ead-g2" kvg:element="亠" kvg:radical="general">
			<path style="stroke: #bf0909;" id="kvg:04ead-s1" kvg:type="㇑a" d="M52.79,9.61c1.13,1.13,1.34,2.32,1.34,3.27c0,3.49,0.09,4.25,0.09,7.31"/>
			<path style="stroke: #bf8209;" id="kvg:04ead-s2" kvg:type="㇐" d="M22,23.83c2.62,0.67,5.28,0.72,8.13,0.4c11.13-1.23,35.9-3.83,48.5-4.39c2.66-0.12,5.09-0.2,7.62,0.75"/>
		</g>
	</g>
	<g id="kvg:04ead-g3" kvg:position="bottom">
		<g id="kvg:04ead-g4" kvg:element="高" kvg:part="1" kvg:partial="true">
			<g id="kvg:04ead-g5" kvg:element="口">
				<path style="stroke: #82bf09;" id="kvg:04ead-s3" kvg:type="㇑" d="M35.64,33.39c0.82,0.51,1.52,1.25,1.59,2.24c0.82,2.52,1.95,6.15,2.67,9.4c0.21,0.95,0.41,1.87,0.61,2.72"/>
				<path style="stroke: #09bf09;" id="kvg:04ead-s4" kvg:type="㇕b" d="M37.56,34.13c6.53-0.88,21.98-3.2,29.69-4.19c3.62-0.46,5.6-0.24,4.46,3.99c-0.58,2.14-1.3,4.11-2.54,8.02"/>
				<path style="stroke: #09bf82;" id="kvg:04ead-s5" kvg:type="㇐b" d="M40.97,45.69c5.75-0.77,18.06-2.32,25.78-3.18c1.71-0.19,3.22-0.35,4.42-0.45"/>
			</g>
		</g>
		<g id="kvg:04ead-g6" kvg:element="冖">
			<path style="stroke: #0982bf;" id="kvg:04ead-s6" kvg:type="㇔" d="M22.29,55.69c-0.11,3.81-2.82,13.79-3.79,16.06"/>
			<path style="stroke: #0909bf;" id="kvg:04ead-s7" kvg:type="㇖b" d="M23.22,57.75C34,57,67.48,51.96,85.19,51.5c9.56-0.25,4.06,5.75-0.69,9.5"/>
		</g>
		<g id="kvg:04ead-g7" kvg:element="丁" kvg:phon="丁">
			<g id="kvg:04ead-g8" kvg:element="一">
				<path style="stroke: #8209bf;" id="kvg:04ead-s8" kvg:type="㇐" d="M29.27,70.84c2.15,0.84,5.32,0.46,7.53,0.21c9.47-1.07,24.6-3.02,35.21-3.79c2.58-0.19,5.18-0.24,7.73,0.36"/>
			</g>
			<g id="kvg:04ead-g9" kvg:element="亅">
				<path style="stroke: #bf0982;" id="kvg:04ead-s9" kvg:type="㇚" d="M55.01,70.79c0.85,0.85,1.08,1.96,1.08,3.44c0,9.74-0.09,17.33-0.09,20.64c0,9.3-5.88,1.12-7.36-0.75"/>
			</g>
		</g>
	</g>
</g>
</g>
<g id="kvg:StrokeNumbers_04ead" style="font-size:8;fill:#808080" transform="scale(3.0,3.0)">
	<text style="fill: #bf0909;" transform="matrix(1 0 0 1 43.50 9.13)">1</text>
	<text style="fill: #bf8209;" transform="matrix(1 0 0 1 23.50 21.50)">2</text>
	<text style="fill: #82bf09;" transform="matrix(1 0 0 1 29.50 40.55)">3</text>
	<text style="fill: #09bf09;" transform="matrix(1 0 0 1 38.50 31.63)">4</text>
	<text style="fill: #09bf82;" transform="matrix(1 0 0 1 44.25 42.05)">5</text>
	<text style="fill: #0982bf;" transform="matrix(1 0 0 1 15.50 59.50)">6</text>
	<text style="fill: #0909bf;" transform="matrix(1 0 0 1 26.50 54.50)">7</text>
	<text style="fill: #8209bf;" transform="matrix(1 0 0 1 28.50 68.50)">8</text>
	<text style="fill: #bf0982;" transform="matrix(1 0 0 1 48.50 79.63)">9</text>
</g>
</svg>
