<?xml version="1.0" encoding="UTF-8"?>
<!--
This file has been modified from the original version by the kanji_colorize.py
script (available at http://github.com/cayennes/kanji-colorize) with these
settings:
    mode: spectrum
    saturation: 0.95
    value: 0.75
    image_size: 327
It remains under a Creative Commons-Attribution-Share Alike 3.0 License.

The original SVG has the following copyright:

Copyright (C) 2009/2010/2011 Ulrich Apel.
This work is distributed under the conditions of the Creative Commons
Attribution-Share Alike 3.0 Licence. This means you are free:
* to Share - to copy, distribute and transmit the work
* to Remix - to adapt the work

Under the following conditions:
* Attribution. You must attribute the work by stating your use of KanjiVG in
  your own copyright header and linking to KanjiVG's website
  (http://kanjivg.tagaini.net)
* Share Alike. If you alter, transform, or build upon this work, you may
  distribute the resulting work only under the same or similar license to this
  one.

See http://creativecommons.org/licenses/by-sa/3.0/ for more details.
-->
<!DOCTYPE svg PUBLIC "-//W3C//DTD SVG 1.0//EN" "http://www.w3.org/TR/2001/REC-SVG-20010904/DTD/svg10.dtd" [
<!ATTLIST g
xmlns:kvg CDATA #FIXED "http://kanjivg.tagaini.net"
kvg:element CDATA #IMPLIED
kvg:variant CDATA #IMPLIED
kvg:partial CDATA #IMPLIED
kvg:original CDATA #IMPLIED
kvg:part CDATA #IMPLIED
kvg:number CDATA #IMPLIED
kvg:tradForm CDATA #IMPLIED
kvg:radicalForm CDATA #IMPLIED
kvg:position CDATA #IMPLIED
kvg:radical CDATA #IMPLIED
kvg:phon CDATA #IMPLIED >
<!ATTLIST path
xmlns:kvg CDATA #FIXED "http://kanjivg.tagaini.net"
kvg:type CDATA #IMPLIED >
]>
<svg xmlns="http://www.w3.org/2000/svg" width="327" height = "327" viewBox="0 0 327 327">
<g id="kvg:StrokePaths_04ea2" style="fill:none;stroke:#000000;stroke-width:3;stroke-linecap:round;stroke-linejoin:round;" transform="scale(3.0,3.0)">
<g id="kvg:04ea2" kvg:element="亢">
	<g id="kvg:04ea2-g1" kvg:element="亠" kvg:position="top" kvg:radical="general">
		<path style="stroke: #bf0909;" id="kvg:04ea2-s1" kvg:type="㇑a" d="M51.11,12.25c1.13,0.61,2.98,2.96,2.98,4.16c0,4.45-0.35,6.38-0.15,10.15"/>
		<path style="stroke: #64bf09;" id="kvg:04ea2-s2" kvg:type="㇐" d="M19.5,30.11c1.42,0.1,4.67,0.65,6.06,0.55c12.19-0.91,42.94-3.91,57.14-4.2c2.35-0.05,3.55,0.05,5.3,0.7"/>
	</g>
	<g id="kvg:04ea2-g2" kvg:element="几" kvg:position="bottom">
		<g id="kvg:04ea2-g3" kvg:element="丿">
			<path style="stroke: #09bfbf;" id="kvg:04ea2-s3" kvg:type="㇒" d="M39.79,44c0.71,1,0.78,3.36,0.87,5.25c0.18,4.04,0.19,9.72,0.09,17.25C40.5,86,25.25,96.25,16.5,99.5"/>
		</g>
		<path style="stroke: #6409bf;" id="kvg:04ea2-s4" kvg:type="㇈b" d="M41.75,46c6.5-1,13.5-2.5,20-3.75c2.88-0.55,5,1.5,4.81,4.05c-0.62,8.16-0.41,33.14-0.41,38.7c0,11,6.44,11.53,13.27,11.53c7.21,0,11.08-0.53,12.97-2.62c1.96-2.18,1.56-3,1.75-6.5"/>
	</g>
</g>
</g>
<g id="kvg:StrokeNumbers_04ea2" style="font-size:8;fill:#808080" transform="scale(3.0,3.0)">
	<text style="fill: #bf0909;" transform="matrix(1 0 0 1 44.50 13.50)">1</text>
	<text style="fill: #64bf09;" transform="matrix(1 0 0 1 11.92 30.55)">2</text>
	<text style="fill: #09bfbf;" transform="matrix(1 0 0 1 32.58 51.48)">3</text>
	<text style="fill: #6409bf;" transform="matrix(1 0 0 1 43.25 42.50)">4</text>
</g>
</svg>
