<?xml version="1.0" encoding="UTF-8"?>
<!--
This file has been modified from the original version by the kanji_colorize.py
script (available at http://github.com/cayennes/kanji-colorize) with these
settings:
    mode: spectrum
    saturation: 0.95
    value: 0.75
    image_size: 327
It remains under a Creative Commons-Attribution-Share Alike 3.0 License.

The original SVG has the following copyright:

Copyright (C) 2009/2010/2011 Ulrich Apel.
This work is distributed under the conditions of the Creative Commons
Attribution-Share Alike 3.0 Licence. This means you are free:
* to Share - to copy, distribute and transmit the work
* to Remix - to adapt the work

Under the following conditions:
* Attribution. You must attribute the work by stating your use of KanjiVG in
  your own copyright header and linking to KanjiVG's website
  (http://kanjivg.tagaini.net)
* Share Alike. If you alter, transform, or build upon this work, you may
  distribute the resulting work only under the same or similar license to this
  one.

See http://creativecommons.org/licenses/by-sa/3.0/ for more details.
-->
<!DOCTYPE svg PUBLIC "-//W3C//DTD SVG 1.0//EN" "http://www.w3.org/TR/2001/REC-SVG-20010904/DTD/svg10.dtd" [
<!ATTLIST g
xmlns:kvg CDATA #FIXED "http://kanjivg.tagaini.net"
kvg:element CDATA #IMPLIED
kvg:variant CDATA #IMPLIED
kvg:partial CDATA #IMPLIED
kvg:original CDATA #IMPLIED
kvg:part CDATA #IMPLIED
kvg:number CDATA #IMPLIED
kvg:tradForm CDATA #IMPLIED
kvg:radicalForm CDATA #IMPLIED
kvg:position CDATA #IMPLIED
kvg:radical CDATA #IMPLIED
kvg:phon CDATA #IMPLIED >
<!ATTLIST path
xmlns:kvg CDATA #FIXED "http://kanjivg.tagaini.net"
kvg:type CDATA #IMPLIED >
]>
<svg xmlns="http://www.w3.org/2000/svg" width="327" height = "327" viewBox="0 0 327 327">
<g id="kvg:StrokePaths_04ec6" style="fill:none;stroke:#000000;stroke-width:3;stroke-linecap:round;stroke-linejoin:round;" transform="scale(3.0,3.0)">
<g id="kvg:04ec6" kvg:element="仆">
	<g id="kvg:04ec6-g1" kvg:element="亻" kvg:variant="true" kvg:original="人" kvg:position="left" kvg:radical="general">
		<path style="stroke: #bf0909;" id="kvg:04ec6-s1" kvg:type="㇒" d="M40.47,15.89c0.15,1.22,0.27,2.74-0.14,4.24c-2.6,9.46-12.66,27.76-24.77,40.58"/>
		<path style="stroke: #64bf09;" id="kvg:04ec6-s2" kvg:type="㇑" d="M35.03,39c0.59,0.61,0.76,1.97,0.76,3.23c0,13.02-0.29,43.15-0.29,51.9"/>
	</g>
	<g id="kvg:04ec6-g2" kvg:element="卜" kvg:original="ト" kvg:position="right">
		<path style="stroke: #09bfbf;" id="kvg:04ec6-s3" kvg:type="㇑" d="M66.31,13.63c0.76,0.45,1.86,3.35,2.01,4.25c0.15,0.9-0.1,72.15-0.25,77.75"/>
		<path style="stroke: #6409bf;" id="kvg:04ec6-s4" kvg:type="㇔" d="M70.75,41c8.47,4.1,21.77,15.03,24,23.25"/>
	</g>
</g>
</g>
<g id="kvg:StrokeNumbers_04ec6" style="font-size:8;fill:#808080" transform="scale(3.0,3.0)">
	<text style="fill: #bf0909;" transform="matrix(1 0 0 1 31.50 15.50)">1</text>
	<text style="fill: #64bf09;" transform="matrix(1 0 0 1 28.50 54.50)">2</text>
	<text style="fill: #09bfbf;" transform="matrix(1 0 0 1 56.50 14.50)">3</text>
	<text style="fill: #6409bf;" transform="matrix(1 0 0 1 73.50 39.50)">4</text>
</g>
</svg>
