<?xml version="1.0" encoding="UTF-8"?>
<!--
This file has been modified from the original version by the kanji_colorize.py
script (available at http://github.com/cayennes/kanji-colorize) with these
settings:
    mode: spectrum
    saturation: 0.95
    value: 0.75
    image_size: 327
It remains under a Creative Commons-Attribution-Share Alike 3.0 License.

The original SVG has the following copyright:

Copyright (C) 2009/2010/2011 Ulrich Apel.
This work is distributed under the conditions of the Creative Commons
Attribution-Share Alike 3.0 Licence. This means you are free:
* to Share - to copy, distribute and transmit the work
* to Remix - to adapt the work

Under the following conditions:
* Attribution. You must attribute the work by stating your use of KanjiVG in
  your own copyright header and linking to KanjiVG's website
  (http://kanjivg.tagaini.net)
* Share Alike. If you alter, transform, or build upon this work, you may
  distribute the resulting work only under the same or similar license to this
  one.

See http://creativecommons.org/licenses/by-sa/3.0/ for more details.
-->
<!DOCTYPE svg PUBLIC "-//W3C//DTD SVG 1.0//EN" "http://www.w3.org/TR/2001/REC-SVG-20010904/DTD/svg10.dtd" [
<!ATTLIST g
xmlns:kvg CDATA #FIXED "http://kanjivg.tagaini.net"
kvg:element CDATA #IMPLIED
kvg:variant CDATA #IMPLIED
kvg:partial CDATA #IMPLIED
kvg:original CDATA #IMPLIED
kvg:part CDATA #IMPLIED
kvg:number CDATA #IMPLIED
kvg:tradForm CDATA #IMPLIED
kvg:radicalForm CDATA #IMPLIED
kvg:position CDATA #IMPLIED
kvg:radical CDATA #IMPLIED
kvg:phon CDATA #IMPLIED >
<!ATTLIST path
xmlns:kvg CDATA #FIXED "http://kanjivg.tagaini.net"
kvg:type CDATA #IMPLIED >
]>
<svg xmlns="http://www.w3.org/2000/svg" width="327" height = "327" viewBox="0 0 327 327">
<g id="kvg:StrokePaths_04ee5" style="fill:none;stroke:#000000;stroke-width:3;stroke-linecap:round;stroke-linejoin:round;" transform="scale(3.0,3.0)">
<g id="kvg:04ee5" kvg:element="以">
	<g id="kvg:04ee5-g1" kvg:position="left" kvg:phon="3+6+1">
		<path style="stroke: #bf0909;" id="kvg:04ee5-s1" kvg:type="㇑a" d="M20.87,27.5c1.09,0.5,2.28,1.72,2.46,3.25C25,45.12,27,61.75,28.25,70.5"/>
		<path style="stroke: #9abf09;" id="kvg:04ee5-s2" kvg:type="㇀" d="M15.37,77.52c2.25,1.32,3.9,0.34,6.32-1.32c1.61-1.11,14.59-10.49,21.43-15.82"/>
		<g id="kvg:04ee5-g2" kvg:element="丶">
			<path style="stroke: #09bf52;" id="kvg:04ee5-s3" kvg:type="㇔" d="M43.62,23.12c4.3,4.16,11.11,17.12,12.18,23.59"/>
		</g>
	</g>
	<g id="kvg:04ee5-g3" kvg:element="人" kvg:position="right" kvg:radical="general">
		<path style="stroke: #0952bf;" id="kvg:04ee5-s4" kvg:type="㇒" d="M83.76,21.3c0.74,1.58,0.87,3.04,0.3,5.25C79.75,43.12,69.5,67.88,46.14,86.4"/>
		<path style="stroke: #9a09bf;" id="kvg:04ee5-s5" kvg:type="㇔/㇏" d="M71.52,61.33c8.04,4.26,20.78,17.51,22.79,24.13"/>
	</g>
</g>
</g>
<g id="kvg:StrokeNumbers_04ee5" style="font-size:8;fill:#808080" transform="scale(3.0,3.0)">
	<text style="fill: #bf0909;" transform="matrix(1 0 0 1 12.50 29.50)">1</text>
	<text style="fill: #9abf09;" transform="matrix(1 0 0 1 6.75 81.50)">2</text>
	<text style="fill: #09bf52;" transform="matrix(1 0 0 1 36.75 23.50)">3</text>
	<text style="fill: #0952bf;" transform="matrix(1 0 0 1 74.50 20.50)">4</text>
	<text style="fill: #9a09bf;" transform="matrix(1 0 0 1 77.50 62.50)">5</text>
</g>
</svg>
