<?xml version="1.0" encoding="UTF-8"?>
<!--
This file has been modified from the original version by the kanji_colorize.py
script (available at http://github.com/cayennes/kanji-colorize) with these
settings:
    mode: spectrum
    saturation: 0.95
    value: 0.75
    image_size: 327
It remains under a Creative Commons-Attribution-Share Alike 3.0 License.

The original SVG has the following copyright:

Copyright (C) 2009/2010/2011 Ulrich Apel.
This work is distributed under the conditions of the Creative Commons
Attribution-Share Alike 3.0 Licence. This means you are free:
* to Share - to copy, distribute and transmit the work
* to Remix - to adapt the work

Under the following conditions:
* Attribution. You must attribute the work by stating your use of KanjiVG in
  your own copyright header and linking to KanjiVG's website
  (http://kanjivg.tagaini.net)
* Share Alike. If you alter, transform, or build upon this work, you may
  distribute the resulting work only under the same or similar license to this
  one.

See http://creativecommons.org/licenses/by-sa/3.0/ for more details.
-->
<!DOCTYPE svg PUBLIC "-//W3C//DTD SVG 1.0//EN" "http://www.w3.org/TR/2001/REC-SVG-20010904/DTD/svg10.dtd" [
<!ATTLIST g
xmlns:kvg CDATA #FIXED "http://kanjivg.tagaini.net"
kvg:element CDATA #IMPLIED
kvg:variant CDATA #IMPLIED
kvg:partial CDATA #IMPLIED
kvg:original CDATA #IMPLIED
kvg:part CDATA #IMPLIED
kvg:number CDATA #IMPLIED
kvg:tradForm CDATA #IMPLIED
kvg:radicalForm CDATA #IMPLIED
kvg:position CDATA #IMPLIED
kvg:radical CDATA #IMPLIED
kvg:phon CDATA #IMPLIED >
<!ATTLIST path
xmlns:kvg CDATA #FIXED "http://kanjivg.tagaini.net"
kvg:type CDATA #IMPLIED >
]>
<svg xmlns="http://www.w3.org/2000/svg" width="327" height = "327" viewBox="0 0 327 327">
<g id="kvg:StrokePaths_04ef7" style="fill:none;stroke:#000000;stroke-width:3;stroke-linecap:round;stroke-linejoin:round;" transform="scale(3.0,3.0)">
<g id="kvg:04ef7" kvg:element="价">
	<g id="kvg:04ef7-g1" kvg:element="亻" kvg:variant="true" kvg:original="人" kvg:position="left" kvg:radical="general">
		<path style="stroke: #bf0909;" id="kvg:04ef7-s1" kvg:type="㇒" d="M31.5,17.39c0.13,1.05,0.23,2.38-0.12,3.67c-2.19,8.2-10.64,24.04-20.82,35.15"/>
		<path style="stroke: #bfbf09;" id="kvg:04ef7-s2" kvg:type="㇑" d="M26.03,40c0.59,0.61,0.76,1.97,0.76,3.23c0,13.02-0.29,42.15-0.29,50.9"/>
	</g>
	<g id="kvg:04ef7-g2" kvg:element="介" kvg:position="right">
		<g id="kvg:04ef7-g3" kvg:element="人" kvg:position="top">
			<path style="stroke: #09bf09;" id="kvg:04ef7-s3" kvg:type="㇒" d="M62.52,12.25c0.07,0.95,0.25,2.5-0.15,3.83c-2.44,8.24-12.46,26.47-25.87,36.7"/>
			<path style="stroke: #09bfbf;" id="kvg:04ef7-s4" kvg:type="㇏" d="M63.04,17.05c5.75,7.42,19.95,21.89,27.35,27.81c1.63,1.31,3.55,2.03,5.11,2.43"/>
		</g>
		<g id="kvg:04ef7-g4" kvg:position="bottom">
			<g id="kvg:04ef7-g5" kvg:element="丿">
				<path style="stroke: #0909bf;" id="kvg:04ef7-s5" kvg:type="㇒" d="M51.98,46.69c0.41,1.29,1,2.31,1,3.92c0,14.75,0.37,33.43-12.33,43.61"/>
			</g>
			<g id="kvg:04ef7-g6" kvg:element="丨">
				<path style="stroke: #bf09bf;" id="kvg:04ef7-s6" kvg:type="㇑" d="M75.7,43.77c0.76,0.49,1.22,2.22,1.38,3.2c0.15,0.99,0,43.63-0.15,49.79"/>
			</g>
		</g>
	</g>
</g>
</g>
<g id="kvg:StrokeNumbers_04ef7" style="font-size:8;fill:#808080" transform="scale(3.0,3.0)">
	<text style="fill: #bf0909;" transform="matrix(1 0 0 1 22.50 16.50)">1</text>
	<text style="fill: #bfbf09;" transform="matrix(1 0 0 1 19.50 55.50)">2</text>
	<text style="fill: #09bf09;" transform="matrix(1 0 0 1 53.50 12.50)">3</text>
	<text style="fill: #09bfbf;" transform="matrix(1 0 0 1 69.50 21.50)">4</text>
	<text style="fill: #0909bf;" transform="matrix(1 0 0 1 44.50 54.50)">5</text>
	<text style="fill: #bf09bf;" transform="matrix(1 0 0 1 65.25 44.50)">6</text>
</g>
</svg>
