<?xml version="1.0" encoding="UTF-8"?>
<!--
This file has been modified from the original version by the kanji_colorize.py
script (available at http://github.com/cayennes/kanji-colorize) with these
settings:
    mode: spectrum
    saturation: 0.95
    value: 0.75
    image_size: 327
It remains under a Creative Commons-Attribution-Share Alike 3.0 License.

The original SVG has the following copyright:

Copyright (C) 2009/2010/2011 Ulrich Apel.
This work is distributed under the conditions of the Creative Commons
Attribution-Share Alike 3.0 Licence. This means you are free:
* to Share - to copy, distribute and transmit the work
* to Remix - to adapt the work

Under the following conditions:
* Attribution. You must attribute the work by stating your use of KanjiVG in
  your own copyright header and linking to KanjiVG's website
  (http://kanjivg.tagaini.net)
* Share Alike. If you alter, transform, or build upon this work, you may
  distribute the resulting work only under the same or similar license to this
  one.

See http://creativecommons.org/licenses/by-sa/3.0/ for more details.
-->
<!DOCTYPE svg PUBLIC "-//W3C//DTD SVG 1.0//EN" "http://www.w3.org/TR/2001/REC-SVG-20010904/DTD/svg10.dtd" [
<!ATTLIST g
xmlns:kvg CDATA #FIXED "http://kanjivg.tagaini.net"
kvg:element CDATA #IMPLIED
kvg:variant CDATA #IMPLIED
kvg:partial CDATA #IMPLIED
kvg:original CDATA #IMPLIED
kvg:part CDATA #IMPLIED
kvg:number CDATA #IMPLIED
kvg:tradForm CDATA #IMPLIED
kvg:radicalForm CDATA #IMPLIED
kvg:position CDATA #IMPLIED
kvg:radical CDATA #IMPLIED
kvg:phon CDATA #IMPLIED >
<!ATTLIST path
xmlns:kvg CDATA #FIXED "http://kanjivg.tagaini.net"
kvg:type CDATA #IMPLIED >
]>
<svg xmlns="http://www.w3.org/2000/svg" width="327" height = "327" viewBox="0 0 327 327">
<g id="kvg:StrokePaths_04f7b" style="fill:none;stroke:#000000;stroke-width:3;stroke-linecap:round;stroke-linejoin:round;" transform="scale(3.0,3.0)">
<g id="kvg:04f7b" kvg:element="佻">
	<g id="kvg:04f7b-g1" kvg:element="亻" kvg:variant="true" kvg:original="人" kvg:position="left" kvg:radical="general">
		<path style="stroke: #bf0909;" id="kvg:04f7b-s1" kvg:type="㇒" d="M30.01,15.39c0.11,1.19,0.2,2.68-0.1,4.15c-1.9,9.25-9.25,27.14-18.1,39.68"/>
		<path style="stroke: #bf9109;" id="kvg:04f7b-s2" kvg:type="㇑" d="M25.53,40.5c0.59,0.61,0.76,1.97,0.76,3.23c0,13.04-0.29,41.12-0.29,49.9"/>
	</g>
	<g id="kvg:04f7b-g2" kvg:element="兆" kvg:position="right">
		<g id="kvg:04f7b-g3" kvg:element="儿" kvg:part="1" kvg:original="八" kvg:position="left">
			<g id="kvg:04f7b-g4" kvg:element="丿">
				<path style="stroke: #64bf09;" id="kvg:04f7b-s3" kvg:type="㇒" d="M54.5,16.41c0.73,1.69,1.43,3.81,1.43,5.12c0,8.28,0.06,23.56,0.06,32.68c0,22.6-7.49,34.55-17.09,42.72"/>
			</g>
			<g id="kvg:04f7b-g5" kvg:element="冫">
				<g id="kvg:04f7b-g6" kvg:position="top">
					<path style="stroke: #09bf36;" id="kvg:04f7b-s4" kvg:type="㇔" d="M35.66,33.06c4.04,2.57,10.44,10.57,11.45,14.57"/>
				</g>
				<g id="kvg:04f7b-g7" kvg:position="bottom">
					<path style="stroke: #09bfbf;" id="kvg:04f7b-s5" kvg:type="㇀" d="M36.11,70.79c1.09,0.45,2.19,0.59,3.02,0.09c1.15-0.7,9.42-6.48,13.93-9.85"/>
				</g>
			</g>
		</g>
		<g id="kvg:04f7b-g8" kvg:position="right">
			<g id="kvg:04f7b-g9" kvg:element="儿" kvg:part="2" kvg:original="八">
				<path style="stroke: #0936bf;" id="kvg:04f7b-s6" kvg:type="㇟" d="M69.78,13.19c0.97,1.06,1.46,2.83,1.49,4.47c0.14,7.34-0.02,61.29-0.02,66.29c0,11.66,4.76,10.79,13.19,10.79C94.75,94.73,97,93,97,86.05"/>
			</g>
			<path style="stroke: #6409bf;" id="kvg:04f7b-s7" kvg:type="㇒" d="M90.63,27.75c0.04,0.39,0.1,1-0.09,1.55c-1.1,3.27-7.44,10.45-16.1,14.84"/>
			<path style="stroke: #bf0991;" id="kvg:04f7b-s8" kvg:type="㇔" d="M73.95,53.02c5.1,3.37,13.17,13.85,14.45,19.09"/>
		</g>
	</g>
</g>
</g>
<g id="kvg:StrokeNumbers_04f7b" style="font-size:8;fill:#808080" transform="scale(3.0,3.0)">
	<text style="fill: #bf0909;" transform="matrix(1 0 0 1 21.50 14.63)">1</text>
	<text style="fill: #bf9109;" transform="matrix(1 0 0 1 19.25 57.50)">2</text>
	<text style="fill: #64bf09;" transform="matrix(1 0 0 1 46.25 15.48)">3</text>
	<text style="fill: #09bf36;" transform="matrix(1 0 0 1 35.50 31.50)">4</text>
	<text style="fill: #09bfbf;" transform="matrix(1 0 0 1 33.50 65.50)">5</text>
	<text style="fill: #0936bf;" transform="matrix(1 0 0 1 62.50 9.50)">6</text>
	<text style="fill: #6409bf;" transform="matrix(1 0 0 1 83.50 27.50)">7</text>
	<text style="fill: #bf0991;" transform="matrix(1 0 0 1 77.50 53.10)">8</text>
</g>
</svg>
