<?xml version="1.0" encoding="UTF-8"?>
<!--
This file has been modified from the original version by the kanji_colorize.py
script (available at http://github.com/cayennes/kanji-colorize) with these
settings:
    mode: spectrum
    saturation: 0.95
    value: 0.75
    image_size: 327
It remains under a Creative Commons-Attribution-Share Alike 3.0 License.

The original SVG has the following copyright:

Copyright (C) 2009/2010/2011 Ulrich Apel.
This work is distributed under the conditions of the Creative Commons
Attribution-Share Alike 3.0 Licence. This means you are free:
* to Share - to copy, distribute and transmit the work
* to Remix - to adapt the work

Under the following conditions:
* Attribution. You must attribute the work by stating your use of KanjiVG in
  your own copyright header and linking to KanjiVG's website
  (http://kanjivg.tagaini.net)
* Share Alike. If you alter, transform, or build upon this work, you may
  distribute the resulting work only under the same or similar license to this
  one.

See http://creativecommons.org/licenses/by-sa/3.0/ for more details.
-->
<!DOCTYPE svg PUBLIC "-//W3C//DTD SVG 1.0//EN" "http://www.w3.org/TR/2001/REC-SVG-20010904/DTD/svg10.dtd" [
<!ATTLIST g
xmlns:kvg CDATA #FIXED "http://kanjivg.tagaini.net"
kvg:element CDATA #IMPLIED
kvg:variant CDATA #IMPLIED
kvg:partial CDATA #IMPLIED
kvg:original CDATA #IMPLIED
kvg:part CDATA #IMPLIED
kvg:number CDATA #IMPLIED
kvg:tradForm CDATA #IMPLIED
kvg:radicalForm CDATA #IMPLIED
kvg:position CDATA #IMPLIED
kvg:radical CDATA #IMPLIED
kvg:phon CDATA #IMPLIED >
<!ATTLIST path
xmlns:kvg CDATA #FIXED "http://kanjivg.tagaini.net"
kvg:type CDATA #IMPLIED >
]>
<svg xmlns="http://www.w3.org/2000/svg" width="327" height = "327" viewBox="0 0 327 327">
<g id="kvg:StrokePaths_04fe5" style="fill:none;stroke:#000000;stroke-width:3;stroke-linecap:round;stroke-linejoin:round;" transform="scale(3.0,3.0)">
<g id="kvg:04fe5" kvg:element="俥">
	<g id="kvg:04fe5-g1" kvg:element="亻" kvg:variant="true" kvg:original="人" kvg:position="left" kvg:radical="general">
		<path style="stroke: #bf0909;" id="kvg:04fe5-s1" kvg:type="㇒" d="M32.99,14.89c0.14,1.18,0.24,2.67-0.12,4.12c-2.34,9.2-11.39,26.98-22.3,39.45"/>
		<path style="stroke: #bf8209;" id="kvg:04fe5-s2" kvg:type="㇑" d="M25.99,41c0.66,0.68,0.84,2.19,0.84,3.58c0,14.46-0.32,40.08-0.32,49.79"/>
	</g>
	<g id="kvg:04fe5-g2" kvg:element="車" kvg:position="right">
		<path style="stroke: #82bf09;" id="kvg:04fe5-s3" kvg:type="㇐" d="M43.19,25.87c0.95,0.38,2.7,0.51,3.64,0.38c13.85-1.88,23.43-2.88,36.9-3.88c1.58-0.12,2.54,0.18,3.33,0.37"/>
		<path style="stroke: #09bf09;" id="kvg:04fe5-s4" kvg:type="㇑" d="M39.84,37.78c0.74,0.5,1.69,2.39,1.83,3.05c1.01,4.81,2.22,18.17,3.63,27.28"/>
		<path style="stroke: #09bf82;" id="kvg:04fe5-s5" kvg:type="㇕a" d="M41.2,39.36c11.3-1.15,35.96-4.58,43.66-4.76c3.19-0.07,3.84,1.57,3.71,3.36c-0.47,6.17-2.12,16.28-4.65,26.4"/>
		<path style="stroke: #0982bf;" id="kvg:04fe5-s6" kvg:type="㇐a" d="M43.36,52.12c8.52-0.25,29.39-2.87,43.36-3.25"/>
		<path style="stroke: #0909bf;" id="kvg:04fe5-s7" kvg:type="㇐a" d="M45.36,66.12c9.9-1,25.16-2.5,38.05-2.5"/>
		<path style="stroke: #8209bf;" id="kvg:04fe5-s8" kvg:type="㇐" d="M37.25,80.41c1.36,0.77,3.82,0.9,5.19,0.77C54.5,80,73.78,77.87,89.76,77.37c2.26-0.07,3.61,0.37,4.74,0.75"/>
		<path style="stroke: #bf0982;" id="kvg:04fe5-s9" kvg:type="㇑" d="M62.95,11c0.7,0.6,1.31,2.5,1.31,5.16c0,7.59-0.23,70.09-0.23,82.59"/>
	</g>
</g>
</g>
<g id="kvg:StrokeNumbers_04fe5" style="font-size:8;fill:#808080" transform="scale(3.0,3.0)">
	<text style="fill: #bf0909;" transform="matrix(1 0 0 1 24.50 13.50)">1</text>
	<text style="fill: #bf8209;" transform="matrix(1 0 0 1 19.50 56.50)">2</text>
	<text style="fill: #82bf09;" transform="matrix(1 0 0 1 41.50 22.50)">3</text>
	<text style="fill: #09bf09;" transform="matrix(1 0 0 1 34.50 45.50)">4</text>
	<text style="fill: #09bf82;" transform="matrix(1 0 0 1 41.50 35.50)">5</text>
	<text style="fill: #0982bf;" transform="matrix(1 0 0 1 47.50 48.85)">6</text>
	<text style="fill: #0909bf;" transform="matrix(1 0 0 1 49.50 62.50)">7</text>
	<text style="fill: #8209bf;" transform="matrix(1 0 0 1 35.50 77.50)">8</text>
	<text style="fill: #bf0982;" transform="matrix(1 0 0 1 54.50 10.50)">9</text>
</g>
</svg>
