<?xml version="1.0" encoding="UTF-8"?>
<!--
This file has been modified from the original version by the kanji_colorize.py
script (available at http://github.com/cayennes/kanji-colorize) with these
settings:
    mode: spectrum
    saturation: 0.95
    value: 0.75
    image_size: 327
It remains under a Creative Commons-Attribution-Share Alike 3.0 License.

The original SVG has the following copyright:

Copyright (C) 2009/2010/2011 Ulrich Apel.
This work is distributed under the conditions of the Creative Commons
Attribution-Share Alike 3.0 Licence. This means you are free:
* to Share - to copy, distribute and transmit the work
* to Remix - to adapt the work

Under the following conditions:
* Attribution. You must attribute the work by stating your use of KanjiVG in
  your own copyright header and linking to KanjiVG's website
  (http://kanjivg.tagaini.net)
* Share Alike. If you alter, transform, or build upon this work, you may
  distribute the resulting work only under the same or similar license to this
  one.

See http://creativecommons.org/licenses/by-sa/3.0/ for more details.
-->
<!DOCTYPE svg PUBLIC "-//W3C//DTD SVG 1.0//EN" "http://www.w3.org/TR/2001/REC-SVG-20010904/DTD/svg10.dtd" [
<!ATTLIST g
xmlns:kvg CDATA #FIXED "http://kanjivg.tagaini.net"
kvg:element CDATA #IMPLIED
kvg:variant CDATA #IMPLIED
kvg:partial CDATA #IMPLIED
kvg:original CDATA #IMPLIED
kvg:part CDATA #IMPLIED
kvg:number CDATA #IMPLIED
kvg:tradForm CDATA #IMPLIED
kvg:radicalForm CDATA #IMPLIED
kvg:position CDATA #IMPLIED
kvg:radical CDATA #IMPLIED
kvg:phon CDATA #IMPLIED >
<!ATTLIST path
xmlns:kvg CDATA #FIXED "http://kanjivg.tagaini.net"
kvg:type CDATA #IMPLIED >
]>
<svg xmlns="http://www.w3.org/2000/svg" width="327" height = "327" viewBox="0 0 327 327">
<g id="kvg:StrokePaths_04ffe" style="fill:none;stroke:#000000;stroke-width:3;stroke-linecap:round;stroke-linejoin:round;" transform="scale(3.0,3.0)">
<g id="kvg:04ffe" kvg:element="俾">
	<g id="kvg:04ffe-g1" kvg:element="亻" kvg:variant="true" kvg:original="人" kvg:position="left" kvg:radical="general">
		<path style="stroke: #bf0909;" id="kvg:04ffe-s1" kvg:type="㇒" d="M31.5,14.89c0.12,1.1,0.22,2.47-0.11,3.82c-2.08,8.51-10.13,24.97-19.83,36.51"/>
		<path style="stroke: #bf7609;" id="kvg:04ffe-s2" kvg:type="㇑" d="M25.99,38.5c0.66,0.68,0.84,2.19,0.84,3.58c0,14.46-0.32,43.08-0.32,52.79"/>
	</g>
	<g id="kvg:04ffe-g2" kvg:position="right">
		<g id="kvg:04ffe-g3" kvg:element="卑" kvg:position="top">
			<g id="kvg:04ffe-g4" kvg:element="丿">
				<path style="stroke: #9abf09;" id="kvg:04ffe-s3" kvg:type="㇒" d="M62.28,13.64c0.02,0.3,0.04,0.76-0.04,1.19c-0.49,2.51-3.32,8.01-7.18,11.38"/>
			</g>
			<g id="kvg:04ffe-g5" kvg:element="田" kvg:partial="true">
				<path style="stroke: #2dbf09;" id="kvg:04ffe-s4" kvg:type="㇑" d="M40.99,28.53c0.33,0.48,0.34,0.82,0.53,1.44c1.51,5.04,3.94,19.1,4.88,28.5"/>
				<path style="stroke: #09bf52;" id="kvg:04ffe-s5" kvg:type="㇕" d="M42.56,29.77c11.73-1.27,33.69-3.41,42.45-4.47c3.22-0.39,4.47,0.68,4.24,3.35c-0.44,5.1-3,17.86-6.03,26.36"/>
				<path style="stroke: #09bfbf;" id="kvg:04ffe-s6" kvg:type="㇐" d="M45.25,42.74c3.82-0.49,38.82-3.13,41.98-3.33"/>
				<path style="stroke: #0952bf;" id="kvg:04ffe-s7" kvg:type="㇐" d="M46.5,56.2c8.45-0.54,25.55-2.23,37.22-3.12"/>
				<g id="kvg:04ffe-g6" kvg:element="丿" kvg:position="bottom">
					<path style="stroke: #2d09bf;" id="kvg:04ffe-s8" kvg:type="㇒" d="M64.41,28.43c0.59,1.07,0.55,2.68,0.39,4.12C63.25,47,59.75,64.25,45.51,72"/>
				</g>
			</g>
			<g id="kvg:04ffe-g7" kvg:element="十">
				<path style="stroke: #9a09bf;" id="kvg:04ffe-s9" kvg:type="㇐" d="M34.75,75.47c0.78,0.36,2.87,1.33,4.93,1.07c13.97-1.76,37.25-5.46,50.52-5.8c2.08-0.05,3.75,0.11,5.05,0.46"/>
				<path style="stroke: #bf0976;" id="kvg:04ffe-s10" kvg:type="㇑" d="M70.87,59.25c1.13,1,1.74,2.75,1.96,3.75c0.22,1,0,30.25-0.22,36.5"/>
			</g>
		</g>
	</g>
</g>
</g>
<g id="kvg:StrokeNumbers_04ffe" style="font-size:8;fill:#808080" transform="scale(3.0,3.0)">
	<text style="fill: #bf0909;" transform="matrix(1 0 0 1 23.50 13.50)">1</text>
	<text style="fill: #bf7609;" transform="matrix(1 0 0 1 19.66 54.50)">2</text>
	<text style="fill: #9abf09;" transform="matrix(1 0 0 1 53.69 12.50)">3</text>
	<text style="fill: #2dbf09;" transform="matrix(1 0 0 1 34.50 36.50)">4</text>
	<text style="fill: #09bf52;" transform="matrix(1 0 0 1 45.69 26.12)">5</text>
	<text style="fill: #09bfbf;" transform="matrix(1 0 0 1 48.50 39.50)">6</text>
	<text style="fill: #0952bf;" transform="matrix(1 0 0 1 49.50 53.50)">7</text>
	<text style="fill: #2d09bf;" transform="matrix(1 0 0 1 56.50 36.50)">8</text>
	<text style="fill: #9a09bf;" transform="matrix(1 0 0 1 33.50 72.50)">9</text>
	<text style="fill: #bf0976;" transform="matrix(1 0 0 1 60.94 65.50)">10</text>
</g>
</svg>
