<?xml version="1.0" encoding="UTF-8"?>
<!--
This file has been modified from the original version by the kanji_colorize.py
script (available at http://github.com/cayennes/kanji-colorize) with these
settings:
    mode: spectrum
    saturation: 0.95
    value: 0.75
    image_size: 327
It remains under a Creative Commons-Attribution-Share Alike 3.0 License.

The original SVG has the following copyright:

Copyright (C) 2009/2010/2011 Ulrich Apel.
This work is distributed under the conditions of the Creative Commons
Attribution-Share Alike 3.0 Licence. This means you are free:
* to Share - to copy, distribute and transmit the work
* to Remix - to adapt the work

Under the following conditions:
* Attribution. You must attribute the work by stating your use of KanjiVG in
  your own copyright header and linking to KanjiVG's website
  (http://kanjivg.tagaini.net)
* Share Alike. If you alter, transform, or build upon this work, you may
  distribute the resulting work only under the same or similar license to this
  one.

See http://creativecommons.org/licenses/by-sa/3.0/ for more details.
-->
<!DOCTYPE svg PUBLIC "-//W3C//DTD SVG 1.0//EN" "http://www.w3.org/TR/2001/REC-SVG-20010904/DTD/svg10.dtd" [
<!ATTLIST g
xmlns:kvg CDATA #FIXED "http://kanjivg.tagaini.net"
kvg:element CDATA #IMPLIED
kvg:variant CDATA #IMPLIED
kvg:partial CDATA #IMPLIED
kvg:original CDATA #IMPLIED
kvg:part CDATA #IMPLIED
kvg:number CDATA #IMPLIED
kvg:tradForm CDATA #IMPLIED
kvg:radicalForm CDATA #IMPLIED
kvg:position CDATA #IMPLIED
kvg:radical CDATA #IMPLIED
kvg:phon CDATA #IMPLIED >
<!ATTLIST path
xmlns:kvg CDATA #FIXED "http://kanjivg.tagaini.net"
kvg:type CDATA #IMPLIED >
]>
<svg xmlns="http://www.w3.org/2000/svg" width="327" height = "327" viewBox="0 0 327 327">
<g id="kvg:StrokePaths_0502c" style="fill:none;stroke:#000000;stroke-width:3;stroke-linecap:round;stroke-linejoin:round;" transform="scale(3.0,3.0)">
<g id="kvg:0502c" kvg:element="倬">
	<g id="kvg:0502c-g1" kvg:element="亻" kvg:variant="true" kvg:original="人" kvg:position="left" kvg:radical="general">
		<path style="stroke: #bf0909;" id="kvg:0502c-s1" kvg:type="㇒" d="M34.98,14.89c0.14,1.16,0.25,2.62-0.13,4.05c-2.37,9.04-11.52,26.52-22.55,38.77"/>
		<path style="stroke: #bf7609;" id="kvg:0502c-s2" kvg:type="㇑" d="M27.49,41c0.66,0.68,0.84,2.19,0.84,3.58c0,14.46-0.32,40.58-0.32,50.29"/>
	</g>
	<g id="kvg:0502c-g2" kvg:element="卓" kvg:position="right">
		<g id="kvg:0502c-g3" kvg:element="卜" kvg:original="ト" kvg:position="top">
			<path style="stroke: #9abf09;" id="kvg:0502c-s3" kvg:type="㇑" d="M63.31,11.38c0.76,0.33,2.01,1.62,2.01,3.62c0,0.67,0.4,15.03,0.25,19.13"/>
			<path style="stroke: #2dbf09;" id="kvg:0502c-s4" kvg:type="㇐" d="M66.25,22.5c2,0,11.67-1.36,17.5-2.27C85.83,19.9,86.75,20.08,88,20"/>
		</g>
		<g id="kvg:0502c-g4" kvg:element="早" kvg:position="bottom">
			<g id="kvg:0502c-g5" kvg:element="日" kvg:position="top">
				<path style="stroke: #09bf52;" id="kvg:0502c-s5" kvg:type="㇑" d="M46.66,35.36c0.68,1.14,1.58,1.5,1.8,3.03c0.59,4.17,2.67,19.12,2.7,22.62"/>
				<path style="stroke: #09bfbf;" id="kvg:0502c-s6" kvg:type="㇕a" d="M49.33,36.76c3.84-0.19,33.64-4.25,37.11-3.77c1.38,0.19,2.7,1.68,2.17,3.6c-0.99,3.6-3.06,14.66-4.86,21.09"/>
				<path style="stroke: #0952bf;" id="kvg:0502c-s7" kvg:type="㇐a" d="M50.1,47.18c6.56-0.42,30.19-2.65,36.07-2.65"/>
				<path style="stroke: #2d09bf;" id="kvg:0502c-s8" kvg:type="㇐a" d="M51.82,58.43c9.45-0.72,26.73-2.27,31.53-2.27"/>
			</g>
			<g id="kvg:0502c-g6" kvg:element="十" kvg:position="bottom">
				<path style="stroke: #9a09bf;" id="kvg:0502c-s9" kvg:type="㇐" d="M38.38,74.71c1.19,0.46,3.38,0.58,4.57,0.46c10.31-1.09,42.32-4.46,52.01-4.42c1.99,0.01,3.18,0.22,4.17,0.45"/>
				<path style="stroke: #bf0976;" id="kvg:0502c-s10" kvg:type="㇑" d="M65.23,60.25c0.44,0.55,1.47,2.5,1.47,5.24c0,1.11-0.06,26.12-0.15,33.01"/>
			</g>
		</g>
	</g>
</g>
</g>
<g id="kvg:StrokeNumbers_0502c" style="font-size:8;fill:#808080" transform="scale(3.0,3.0)">
	<text style="fill: #bf0909;" transform="matrix(1 0 0 1 25.50 13.50)">1</text>
	<text style="fill: #bf7609;" transform="matrix(1 0 0 1 20.50 57.50)">2</text>
	<text style="fill: #9abf09;" transform="matrix(1 0 0 1 55.50 9.50)">3</text>
	<text style="fill: #2dbf09;" transform="matrix(1 0 0 1 70.50 18.50)">4</text>
	<text style="fill: #09bf52;" transform="matrix(1 0 0 1 39.50 40.50)">5</text>
	<text style="fill: #09bfbf;" transform="matrix(1 0 0 1 50.50 33.50)">6</text>
	<text style="fill: #0952bf;" transform="matrix(1 0 0 1 54.50 44.50)">7</text>
	<text style="fill: #2d09bf;" transform="matrix(1 0 0 1 55.50 55.50)">8</text>
	<text style="fill: #9a09bf;" transform="matrix(1 0 0 1 36.50 71.50)">9</text>
	<text style="fill: #bf0976;" transform="matrix(1 0 0 1 55.50 66.50)">10</text>
</g>
</svg>
