<?xml version="1.0" encoding="UTF-8"?>
<!--
This file has been modified from the original version by the kanji_colorize.py
script (available at http://github.com/cayennes/kanji-colorize) with these
settings:
    mode: spectrum
    saturation: 0.95
    value: 0.75
    image_size: 327
It remains under a Creative Commons-Attribution-Share Alike 3.0 License.

The original SVG has the following copyright:

Copyright (C) 2009/2010/2011 Ulrich Apel.
This work is distributed under the conditions of the Creative Commons
Attribution-Share Alike 3.0 Licence. This means you are free:
* to Share - to copy, distribute and transmit the work
* to Remix - to adapt the work

Under the following conditions:
* Attribution. You must attribute the work by stating your use of KanjiVG in
  your own copyright header and linking to KanjiVG's website
  (http://kanjivg.tagaini.net)
* Share Alike. If you alter, transform, or build upon this work, you may
  distribute the resulting work only under the same or similar license to this
  one.

See http://creativecommons.org/licenses/by-sa/3.0/ for more details.
-->
<!DOCTYPE svg PUBLIC "-//W3C//DTD SVG 1.0//EN" "http://www.w3.org/TR/2001/REC-SVG-20010904/DTD/svg10.dtd" [
<!ATTLIST g
xmlns:kvg CDATA #FIXED "http://kanjivg.tagaini.net"
kvg:element CDATA #IMPLIED
kvg:variant CDATA #IMPLIED
kvg:partial CDATA #IMPLIED
kvg:original CDATA #IMPLIED
kvg:part CDATA #IMPLIED
kvg:number CDATA #IMPLIED
kvg:tradForm CDATA #IMPLIED
kvg:radicalForm CDATA #IMPLIED
kvg:position CDATA #IMPLIED
kvg:radical CDATA #IMPLIED
kvg:phon CDATA #IMPLIED >
<!ATTLIST path
xmlns:kvg CDATA #FIXED "http://kanjivg.tagaini.net"
kvg:type CDATA #IMPLIED >
]>
<svg xmlns="http://www.w3.org/2000/svg" width="327" height = "327" viewBox="0 0 327 327">
<g id="kvg:StrokePaths_05024" style="fill:none;stroke:#000000;stroke-width:3;stroke-linecap:round;stroke-linejoin:round;" transform="scale(3.0,3.0)">
<g id="kvg:05024" kvg:element="値">
	<g id="kvg:05024-g1" kvg:element="亻" kvg:variant="true" kvg:original="人" kvg:position="left" kvg:radical="general">
		<path style="stroke: #bf0909;" id="kvg:05024-s1" kvg:type="㇒" d="M35,15.5c0.24,2.06,0.18,3.51-0.61,5.27C29.38,32.03,22.5,44.62,11,57.29"/>
		<path style="stroke: #bf7609;" id="kvg:05024-s2" kvg:type="㇑" d="M25.53,41.5c0.8,0.8,1.26,2.22,1.26,3.48c0,12.64-0.01,32.9-0.01,44.4c0,2.79-0.03,5.11-0.03,6.75"/>
	</g>
	<g id="kvg:05024-g2" kvg:element="直" kvg:position="right" kvg:phon="直">
		<g id="kvg:05024-g3" kvg:element="十">
			<path style="stroke: #9abf09;" id="kvg:05024-s3" kvg:type="㇐" d="M47.4,30.21c1.86,0.52,4.84,0.43,6.74,0.16C66,28.71,74.62,27.5,88.75,26.22c2.06-0.19,4.18-0.29,6.23,0.01"/>
			<path style="stroke: #2dbf09;" id="kvg:05024-s4" kvg:type="㇑a" d="M70.48,14.76c0.82,0.82,1.09,1.88,1.01,2.89c-0.74,9.6-1.24,13.73-2.41,23.35"/>
		</g>
		<g id="kvg:05024-g4" kvg:element="目">
			<path style="stroke: #09bf52;" id="kvg:05024-s5" kvg:type="㇑" d="M53.94,42.36c0.72,0.72,1.25,2.34,1.25,3.5c0,0.87-0.01,21.46-0.02,31.76c0,1.85,0,3.37,0,4.38"/>
			<path style="stroke: #09bfbf;" id="kvg:05024-s6" kvg:type="㇕a" d="M56.08,43.76c4.04-0.51,25.48-3.79,28.27-4.1c2.18-0.24,3.72,0.96,3.72,2.59c0,2.62-0.09,28.49-0.09,32.49c0,1.9,0,3.7,0,5.32"/>
			<path style="stroke: #0952bf;" id="kvg:05024-s7" kvg:type="㇐a" d="M56.24,55.49c5.75-0.46,25.67-2.99,30.38-3.2"/>
			<path style="stroke: #2d09bf;" id="kvg:05024-s8" kvg:type="㇐a" d="M56.47,67.19c7.68-0.84,22.6-2.73,30.06-3.07"/>
			<path style="stroke: #9a09bf;" id="kvg:05024-s9" kvg:type="㇐a" d="M56.16,79.3c8.96-1.17,27.16-2.76,31.02-2.94"/>
		</g>
		<path style="stroke: #bf0976;" id="kvg:05024-s10" kvg:type="㇗" d="M41.25,53c1.06,1.06,1.5,3,1.5,5.5s0,25.5,0,30.25c0,4.12,0.75,4.58,4.25,4.25c14.5-1.38,29.75-2.38,44.75-2.75c2.75-0.07,5.38,0,7.25,0.25"/>
	</g>
</g>
</g>
<g id="kvg:StrokeNumbers_05024" style="font-size:8;fill:#808080" transform="scale(3.0,3.0)">
	<text style="fill: #bf0909;" transform="matrix(1 0 0 1 26.25 15.50)">1</text>
	<text style="fill: #bf7609;" transform="matrix(1 0 0 1 20.25 58.50)">2</text>
	<text style="fill: #9abf09;" transform="matrix(1 0 0 1 44.50 27.50)">3</text>
	<text style="fill: #2dbf09;" transform="matrix(1 0 0 1 60.75 14.50)">4</text>
	<text style="fill: #09bf52;" transform="matrix(1 0 0 1 47.50 51.50)">5</text>
	<text style="fill: #09bfbf;" transform="matrix(1 0 0 1 56.50 40.63)">6</text>
	<text style="fill: #0952bf;" transform="matrix(1 0 0 1 60.75 52.50)">7</text>
	<text style="fill: #2d09bf;" transform="matrix(1 0 0 1 60.71 63.50)">8</text>
	<text style="fill: #9a09bf;" transform="matrix(1 0 0 1 60.71 75.50)">9</text>
	<text style="fill: #bf0976;" transform="matrix(1 0 0 1 33.75 49.63)">10</text>
</g>
</svg>
