<?xml version="1.0" encoding="UTF-8"?>
<!--
This file has been modified from the original version by the kanji_colorize.py
script (available at http://github.com/cayennes/kanji-colorize) with these
settings:
    mode: spectrum
    saturation: 0.95
    value: 0.75
    image_size: 327
It remains under a Creative Commons-Attribution-Share Alike 3.0 License.

The original SVG has the following copyright:

Copyright (C) 2009/2010/2011 Ulrich Apel.
This work is distributed under the conditions of the Creative Commons
Attribution-Share Alike 3.0 Licence. This means you are free:
* to Share - to copy, distribute and transmit the work
* to Remix - to adapt the work

Under the following conditions:
* Attribution. You must attribute the work by stating your use of KanjiVG in
  your own copyright header and linking to KanjiVG's website
  (http://kanjivg.tagaini.net)
* Share Alike. If you alter, transform, or build upon this work, you may
  distribute the resulting work only under the same or similar license to this
  one.

See http://creativecommons.org/licenses/by-sa/3.0/ for more details.
-->
<!DOCTYPE svg PUBLIC "-//W3C//DTD SVG 1.0//EN" "http://www.w3.org/TR/2001/REC-SVG-20010904/DTD/svg10.dtd" [
<!ATTLIST g
xmlns:kvg CDATA #FIXED "http://kanjivg.tagaini.net"
kvg:element CDATA #IMPLIED
kvg:variant CDATA #IMPLIED
kvg:partial CDATA #IMPLIED
kvg:original CDATA #IMPLIED
kvg:part CDATA #IMPLIED
kvg:number CDATA #IMPLIED
kvg:tradForm CDATA #IMPLIED
kvg:radicalForm CDATA #IMPLIED
kvg:position CDATA #IMPLIED
kvg:radical CDATA #IMPLIED
kvg:phon CDATA #IMPLIED >
<!ATTLIST path
xmlns:kvg CDATA #FIXED "http://kanjivg.tagaini.net"
kvg:type CDATA #IMPLIED >
]>
<svg xmlns="http://www.w3.org/2000/svg" width="327" height = "327" viewBox="0 0 327 327">
<g id="kvg:StrokePaths_050f5" style="fill:none;stroke:#000000;stroke-width:3;stroke-linecap:round;stroke-linejoin:round;" transform="scale(3.0,3.0)">
<g id="kvg:050f5" kvg:element="僵">
	<g id="kvg:050f5-g1" kvg:element="亻" kvg:variant="true" kvg:original="人" kvg:position="left" kvg:radical="general">
		<path style="stroke: #bf0909;" id="kvg:050f5-s1" kvg:type="㇒" d="M34.43,15c0.13,1.2,0.23,2.7-0.12,4.17c-2.24,9.3-10.89,27.29-21.31,39.9"/>
		<path style="stroke: #bf5209;" id="kvg:050f5-s2" kvg:type="㇑" d="M27.48,41.61c0.59,0.61,0.76,1.97,0.76,3.23c0,13.02-0.29,40.15-0.29,48.9"/>
	</g>
	<g id="kvg:050f5-g2" kvg:position="right">
		<g id="kvg:050f5-g3" kvg:element="一">
			<path style="stroke: #bf9a09;" id="kvg:050f5-s3" kvg:type="㇐" d="M44.75,16.73c1.04,0.13,2.73,0.31,3.5,0.26c9.47-0.65,28.23-2.72,36.27-2.72c1.3,0,2.08,0.12,2.72,0.25"/>
		</g>
		<g id="kvg:050f5-g4" kvg:element="田">
			<path style="stroke: #9abf09;" id="kvg:050f5-s4" kvg:type="㇑" d="M47.31,26.53c0.26,0.36,0.27,0.61,0.41,1.06c1.17,3.72,2.26,13.68,2.98,20.63"/>
			<path style="stroke: #52bf09;" id="kvg:050f5-s5" kvg:type="㇕a" d="M48.53,27.56c9.14-1,24.79-2.71,31.61-3.54c2.51-0.31,3.61,0.52,3.66,2.81c0.07,3.8-2.19,13.15-2.67,19.04"/>
			<path style="stroke: #09bf09;" id="kvg:050f5-s6" kvg:type="㇑a" d="M64.75,27.37c0.51,0.4,0.91,1.69,0.91,2.55c-0.01,4.41,0.25,13.01,0.26,14.61"/>
			<path style="stroke: #09bf52;" id="kvg:050f5-s7" kvg:type="㇐a" d="M50.22,36.66c2.98-0.38,27.45-3.23,32.51-2.89"/>
			<path style="stroke: #09bf9a;" id="kvg:050f5-s8" kvg:type="㇐a" d="M51.17,46.67c6.11-0.41,20.49-1.72,30.04-2.48"/>
		</g>
		<g id="kvg:050f5-g5" kvg:element="一">
			<path style="stroke: #099abf;" id="kvg:050f5-s9" kvg:type="㇐" d="M41.75,55.19c1.17,0.15,3.09,0.36,3.96,0.29c10.72-0.73,34.35-3.21,43.45-3.21c1.47,0,2.35,0.14,3.08,0.29"/>
		</g>
		<g id="kvg:050f5-g6" kvg:element="田">
			<path style="stroke: #0952bf;" id="kvg:050f5-s10" kvg:type="㇑" d="M47.56,63.85c0.26,0.33,0.73,1.56,0.87,1.98c1.16,3.46,2.78,14.19,3.49,20.64"/>
			<path style="stroke: #0909bf;" id="kvg:050f5-s11" kvg:type="㇕a" d="M49.23,64.8c9.06-0.93,25.67-2.51,32.44-3.29c2.49-0.28,3.58,0.48,3.63,2.61c0.07,3.53-2.3,13.62-3.68,19.16"/>
			<path style="stroke: #5209bf;" id="kvg:050f5-s12" kvg:type="㇑a" d="M65.44,65.13c0.51,0.37,0.9,1.57,0.9,2.37c-0.01,4.09-0.21,14.07-0.2,15.56"/>
			<path style="stroke: #9a09bf;" id="kvg:050f5-s13" kvg:type="㇐a" d="M51.44,74.75c2.95-0.36,27.24-3,32.25-2.68"/>
			<path style="stroke: #bf099a;" id="kvg:050f5-s14" kvg:type="㇐a" d="M52.39,84.53c6.06-0.38,19.83-2.1,29.3-2.8"/>
		</g>
		<g id="kvg:050f5-g7" kvg:element="一">
			<path style="stroke: #bf0952;" id="kvg:050f5-s15" kvg:type="㇐" d="M40,93.94c1.22,0.15,3.2,0.36,4.11,0.29c11.12-0.73,37.71-3.21,47.15-3.21c1.52,0,3.47,0.14,4.24,0.29"/>
		</g>
	</g>
</g>
</g>
<g id="kvg:StrokeNumbers_050f5" style="font-size:8;fill:#808080" transform="scale(3.0,3.0)">
	<text style="fill: #bf0909;" transform="matrix(1 0 0 1 26.50 14.50)">1</text>
	<text style="fill: #bf5209;" transform="matrix(1 0 0 1 20.50 58.85)">2</text>
	<text style="fill: #bf9a09;" transform="matrix(1 0 0 1 42.50 13.50)">3</text>
	<text style="fill: #9abf09;" transform="matrix(1 0 0 1 41.50 33.50)">4</text>
	<text style="fill: #52bf09;" transform="matrix(1 0 0 1 50.50 24.33)">5</text>
	<text style="fill: #09bf09;" transform="matrix(1 0 0 1 69.50 31.50)">6</text>
	<text style="fill: #09bf52;" transform="matrix(1 0 0 1 53.50 34.50)">7</text>
	<text style="fill: #09bf9a;" transform="matrix(1 0 0 1 54.50 43.10)">8</text>
	<text style="fill: #099abf;" transform="matrix(1 0 0 1 39.50 52.50)">9</text>
	<text style="fill: #0952bf;" transform="matrix(1 0 0 1 39.25 74.95)">10</text>
	<text style="fill: #0909bf;" transform="matrix(1 0 0 1 51.50 62.88)">11</text>
	<text style="fill: #5209bf;" transform="matrix(1 0 0 1 68.25 69.80)">12</text>
	<text style="fill: #9a09bf;" transform="matrix(1 0 0 1 53.50 72.73)">13</text>
	<text style="fill: #bf099a;" transform="matrix(1 0 0 1 54.50 81.50)">14</text>
	<text style="fill: #bf0952;" transform="matrix(1 0 0 1 36.50 90.50)">15</text>
</g>
</svg>
