<?xml version="1.0" encoding="UTF-8"?>
<!--
This file has been modified from the original version by the kanji_colorize.py
script (available at http://github.com/cayennes/kanji-colorize) with these
settings:
    mode: spectrum
    saturation: 0.95
    value: 0.75
    image_size: 327
It remains under a Creative Commons-Attribution-Share Alike 3.0 License.

The original SVG has the following copyright:

Copyright (C) 2009/2010/2011 Ulrich Apel.
This work is distributed under the conditions of the Creative Commons
Attribution-Share Alike 3.0 Licence. This means you are free:
* to Share - to copy, distribute and transmit the work
* to Remix - to adapt the work

Under the following conditions:
* Attribution. You must attribute the work by stating your use of KanjiVG in
  your own copyright header and linking to KanjiVG's website
  (http://kanjivg.tagaini.net)
* Share Alike. If you alter, transform, or build upon this work, you may
  distribute the resulting work only under the same or similar license to this
  one.

See http://creativecommons.org/licenses/by-sa/3.0/ for more details.
-->
<!DOCTYPE svg PUBLIC "-//W3C//DTD SVG 1.0//EN" "http://www.w3.org/TR/2001/REC-SVG-20010904/DTD/svg10.dtd" [
<!ATTLIST g
xmlns:kvg CDATA #FIXED "http://kanjivg.tagaini.net"
kvg:element CDATA #IMPLIED
kvg:variant CDATA #IMPLIED
kvg:partial CDATA #IMPLIED
kvg:original CDATA #IMPLIED
kvg:part CDATA #IMPLIED
kvg:number CDATA #IMPLIED
kvg:tradForm CDATA #IMPLIED
kvg:radicalForm CDATA #IMPLIED
kvg:position CDATA #IMPLIED
kvg:radical CDATA #IMPLIED
kvg:phon CDATA #IMPLIED >
<!ATTLIST path
xmlns:kvg CDATA #FIXED "http://kanjivg.tagaini.net"
kvg:type CDATA #IMPLIED >
]>
<svg xmlns="http://www.w3.org/2000/svg" width="327" height = "327" viewBox="0 0 327 327">
<g id="kvg:StrokePaths_0513b" style="fill:none;stroke:#000000;stroke-width:3;stroke-linecap:round;stroke-linejoin:round;" transform="scale(3.0,3.0)">
<g id="kvg:0513b" kvg:element="儻">
	<g id="kvg:0513b-g1" kvg:element="亻" kvg:variant="true" kvg:original="人" kvg:position="left" kvg:radical="general">
		<path style="stroke: #bf0909;" id="kvg:0513b-s1" kvg:type="㇒" d="M29.95,14.5c0.12,1.16,0.21,2.62-0.11,4.05c-2,9.04-9.75,26.52-19.09,38.77"/>
		<path style="stroke: #bf3b09;" id="kvg:0513b-s2" kvg:type="㇑" d="M25.42,37.11c0.67,0.69,0.86,2.23,0.86,3.66c0,14.77-0.33,45.54-0.33,55.46"/>
	</g>
	<g id="kvg:0513b-g2" kvg:element="黨" kvg:position="right">
		<g id="kvg:0513b-g3" kvg:element="尚" kvg:variant="true" kvg:position="top">
			<g id="kvg:0513b-g4" kvg:element="⺌" kvg:variant="true" kvg:original="小" kvg:position="top">
				<path style="stroke: #bf6c09;" id="kvg:0513b-s3" kvg:type="㇑" d="M59.88,10.37c0.09,0.21,1.21,1.09,1.3,2.41c0.42,6.35,0.25,11.94,0.25,14.11"/>
				<path style="stroke: #bf9e09;" id="kvg:0513b-s4" kvg:type="㇔" d="M43.35,14.94c2.5,1.37,6.46,5.65,7.08,7.79"/>
				<path style="stroke: #aebf09;" id="kvg:0513b-s5" kvg:type="㇒" d="M79.86,12.23c0.02,0.3,0.05,0.77-0.04,1.2c-0.55,2.53-3.69,8.07-8,11.47"/>
			</g>
			<g id="kvg:0513b-g5" kvg:position="bottom">
				<g id="kvg:0513b-g6" kvg:element="冂" kvg:variant="true">
					<path style="stroke: #7dbf09;" id="kvg:0513b-s6" kvg:type="㇔" d="M39.21,27.66c-0.12,3.18-2.19,10.63-3.21,12.53"/>
					<path style="stroke: #4bbf09;" id="kvg:0513b-s7" kvg:type="㇖" d="M39.73,28.99c2.6,0,32.11-3.03,45.16-3.74c8.82-0.48,2.11,6-0.51,7.92"/>
				</g>
				<g id="kvg:0513b-g7" kvg:element="口">
					<path style="stroke: #1abf09;" id="kvg:0513b-s8" kvg:type="㇑" d="M47.54,35.35c0.24,0.18,0.51,0.83,0.59,1.07c0.68,2.11,1.55,6.55,2.23,9.64"/>
					<path style="stroke: #09bf2a;" id="kvg:0513b-s9" kvg:type="㇕b" d="M48.59,35.73c4.42-0.45,21.45-2.5,25.53-2.95c1.02-0.11,2.22,0.55,1.78,1.84c-0.71,2.1-1.74,4.18-2.95,7.03"/>
					<path style="stroke: #09bf5c;" id="kvg:0513b-s10" kvg:type="㇐b" d="M50.86,44.96c5.72-0.61,19.92-2.52,24.45-2.93"/>
				</g>
			</g>
		</g>
		<g id="kvg:0513b-g8" kvg:element="黑" kvg:variant="true" kvg:original="黒" kvg:position="bottom">
			<g id="kvg:0513b-g9" kvg:element="里" kvg:variant="true" kvg:position="top">
				<path style="stroke: #09bf8d;" id="kvg:0513b-s11" kvg:type="㇑" d="M41.51,51.53c0.3,0.27,0.67,1.04,0.84,1.37c1.35,2.76,2.12,8.52,2.96,13.67"/>
				<path style="stroke: #09bfbf;" id="kvg:0513b-s12" kvg:type="㇕" d="M43.16,52.46c9.58-0.63,31.66-3.69,38.98-4.02c0.91-0.04,2.17,0.57,2.04,2.27c-0.2,2.56-2.21,7.28-3.84,12.31"/>
				<path style="stroke: #098dbf;" id="kvg:0513b-s13" kvg:type="㇔" d="M49.97,55.86c1.28,0.73,3.32,3,3.64,4.14"/>
				<path style="stroke: #095cbf;" id="kvg:0513b-s14" kvg:type="㇒" d="M73.22,52.52c0.02,0.21,0.03,0.55-0.03,0.85c-0.38,1.8-2.57,5.75-5.55,8.17"/>
				<path style="stroke: #092abf;" id="kvg:0513b-s15" kvg:type="㇐" d="M45.59,65.05c6.9-0.27,25.07-2.98,34.6-3.42"/>
				<path style="stroke: #1a09bf;" id="kvg:0513b-s16" kvg:type="㇑" d="M61.54,52.89c0.56,0.6,0.82,0.96,0.84,1.7c0.26,8.48,0.11,21.4,0.11,24.39"/>
				<path style="stroke: #4b09bf;" id="kvg:0513b-s17" kvg:type="㇐" d="M42.23,73.08c0.81,0.31,2.29,0.39,3.1,0.31c9.66-0.9,24.98-2.29,34.91-3.55c1.34-0.17,2.16,0.15,2.83,0.3"/>
				<path style="stroke: #7d09bf;" id="kvg:0513b-s18" kvg:type="㇐" d="M36.13,82.01c1.15,0.39,3.27,0.45,4.43,0.39c12.01-0.65,32.66-3.74,49.43-3.74c1.92,0,3.08,0.18,4.04,0.38"/>
			</g>
			<g id="kvg:0513b-g10" kvg:element="灬" kvg:variant="true" kvg:original="火" kvg:position="bottom">
				<path style="stroke: #ae09bf;" id="kvg:0513b-s19" kvg:type="㇔" d="M43.94,87.91c-0.76,4.38-4.39,9.5-5.37,10.59"/>
				<path style="stroke: #bf099e;" id="kvg:0513b-s20" kvg:type="㇔" d="M55.14,86.08c2,2.15,3.59,6.96,4.4,11.43"/>
				<path style="stroke: #bf096c;" id="kvg:0513b-s21" kvg:type="㇔" d="M69.33,85.42c2.86,2.85,6.01,6.81,6.97,10.41"/>
				<path style="stroke: #bf093b;" id="kvg:0513b-s22" kvg:type="㇔" d="M82.8,84.75c3.32,2.05,8.57,8.43,9.4,11.62"/>
			</g>
		</g>
	</g>
</g>
</g>
<g id="kvg:StrokeNumbers_0513b" style="font-size:8;fill:#808080" transform="scale(3.0,3.0)">
	<text style="fill: #bf0909;" transform="matrix(1 0 0 1 21.50 14.50)">1</text>
	<text style="fill: #bf3b09;" transform="matrix(1 0 0 1 18.50 55.50)">2</text>
	<text style="fill: #bf6c09;" transform="matrix(1 0 0 1 51.50 9.50)">3</text>
	<text style="fill: #bf9e09;" transform="matrix(1 0 0 1 38.50 12.50)">4</text>
	<text style="fill: #aebf09;" transform="matrix(1 0 0 1 72.50 11.50)">5</text>
	<text style="fill: #7dbf09;" transform="matrix(1 0 0 1 32.50 31.50)">6</text>
	<text style="fill: #4bbf09;" transform="matrix(1 0 0 1 41.25 26.45)">7</text>
	<text style="fill: #1abf09;" transform="matrix(1 0 0 1 41.50 41.50)">8</text>
	<text style="fill: #09bf2a;" transform="matrix(1 0 0 1 51.25 34.30)">9</text>
	<text style="fill: #09bf5c;" transform="matrix(1 0 0 1 52.00 42.73)">10</text>
	<text style="fill: #09bf8d;" transform="matrix(1 0 0 1 34.00 60.50)">11</text>
	<text style="fill: #09bfbf;" transform="matrix(1 0 0 1 41.00 50.50)">12</text>
	<text style="fill: #098dbf;" transform="matrix(1 0 0 1 52.50 57.50)">13</text>
	<text style="fill: #095cbf;" transform="matrix(1 0 0 1 73.25 60.50)">14</text>
	<text style="fill: #092abf;" transform="matrix(1 0 0 1 46.50 63.50)">15</text>
	<text style="fill: #1a09bf;" transform="matrix(1 0 0 1 63.50 56.50)">16</text>
	<text style="fill: #4b09bf;" transform="matrix(1 0 0 1 35.50 71.50)">17</text>
	<text style="fill: #7d09bf;" transform="matrix(1 0 0 1 32.50 78.50)">18</text>
	<text style="fill: #ae09bf;" transform="matrix(1 0 0 1 33.50 90.50)">19</text>
	<text style="fill: #bf099e;" transform="matrix(1 0 0 1 47.00 89.50)">20</text>
	<text style="fill: #bf096c;" transform="matrix(1 0 0 1 62.50 88.50)">21</text>
	<text style="fill: #bf093b;" transform="matrix(1 0 0 1 74.00 87.50)">22</text>
</g>
</svg>
