<?xml version="1.0" encoding="UTF-8"?>
<!--
This file has been modified from the original version by the kanji_colorize.py
script (available at http://github.com/cayennes/kanji-colorize) with these
settings:
    mode: spectrum
    saturation: 0.95
    value: 0.75
    image_size: 327
It remains under a Creative Commons-Attribution-Share Alike 3.0 License.

The original SVG has the following copyright:

Copyright (C) 2009/2010/2011 Ulrich Apel.
This work is distributed under the conditions of the Creative Commons
Attribution-Share Alike 3.0 Licence. This means you are free:
* to Share - to copy, distribute and transmit the work
* to Remix - to adapt the work

Under the following conditions:
* Attribution. You must attribute the work by stating your use of KanjiVG in
  your own copyright header and linking to KanjiVG's website
  (http://kanjivg.tagaini.net)
* Share Alike. If you alter, transform, or build upon this work, you may
  distribute the resulting work only under the same or similar license to this
  one.

See http://creativecommons.org/licenses/by-sa/3.0/ for more details.
-->
<!DOCTYPE svg PUBLIC "-//W3C//DTD SVG 1.0//EN" "http://www.w3.org/TR/2001/REC-SVG-20010904/DTD/svg10.dtd" [
<!ATTLIST g
xmlns:kvg CDATA #FIXED "http://kanjivg.tagaini.net"
kvg:element CDATA #IMPLIED
kvg:variant CDATA #IMPLIED
kvg:partial CDATA #IMPLIED
kvg:original CDATA #IMPLIED
kvg:part CDATA #IMPLIED
kvg:number CDATA #IMPLIED
kvg:tradForm CDATA #IMPLIED
kvg:radicalForm CDATA #IMPLIED
kvg:position CDATA #IMPLIED
kvg:radical CDATA #IMPLIED
kvg:phon CDATA #IMPLIED >
<!ATTLIST path
xmlns:kvg CDATA #FIXED "http://kanjivg.tagaini.net"
kvg:type CDATA #IMPLIED >
]>
<svg xmlns="http://www.w3.org/2000/svg" width="327" height = "327" viewBox="0 0 327 327">
<g id="kvg:StrokePaths_05141" style="fill:none;stroke:#000000;stroke-width:3;stroke-linecap:round;stroke-linejoin:round;" transform="scale(3.0,3.0)">
<g id="kvg:05141" kvg:element="允">
	<g id="kvg:05141-g1" kvg:element="厶" kvg:position="top" kvg:radical="nelson">
		<path style="stroke: #bf0909;" id="kvg:05141-s1" kvg:type="㇜" d="M52.5,10.75c0.62,1.5,0.12,3-0.75,4.19c-7.33,10-15.99,20.11-26.25,27.9c-3.25,2.47-3.19,4.64,1.5,3.72c13.62-2.69,33.25-6.82,49.25-9.87"/>
		<path style="stroke: #64bf09;" id="kvg:05141-s2" kvg:type="㇔" d="M67.77,25.08c6.02,4.13,15.54,16.97,17.04,23.39"/>
	</g>
	<g id="kvg:05141-g2" kvg:element="儿" kvg:position="bottom" kvg:radical="tradit">
		<g id="kvg:05141-g3" kvg:element="八" kvg:variant="true">
			<g id="kvg:05141-g4" kvg:element="丿" kvg:position="left">
				<path style="stroke: #09bfbf;" id="kvg:05141-s3" kvg:type="㇒" d="M42.9,50.71c0.23,1.04,0.41,2.22,0.1,3.73c-1.81,8.92-12.58,30.94-27.61,41.23"/>
			</g>
			<g id="kvg:05141-g5" kvg:position="right">
				<path style="stroke: #6409bf;" id="kvg:05141-s4" kvg:type="㇟" d="M58.78,46.12c1.05,1.05,1.32,2.88,1.32,4.72c0,12.91-0.01,22.36-0.01,29.56c0,13.35,2.41,14.66,16.96,14.66c14.96,0,17.62-2.31,17.62-11.55"/>
			</g>
		</g>
	</g>
</g>
</g>
<g id="kvg:StrokeNumbers_05141" style="font-size:8;fill:#808080" transform="scale(3.0,3.0)">
	<text style="fill: #bf0909;" transform="matrix(1 0 0 1 44.25 12.13)">1</text>
	<text style="fill: #64bf09;" transform="matrix(1 0 0 1 60.00 23.30)">2</text>
	<text style="fill: #09bfbf;" transform="matrix(1 0 0 1 33.00 56.23)">3</text>
	<text style="fill: #6409bf;" transform="matrix(1 0 0 1 50.25 50.25)">4</text>
</g>
</svg>
