<?xml version="1.0" encoding="UTF-8"?>
<!--
This file has been modified from the original version by the kanji_colorize.py
script (available at http://github.com/cayennes/kanji-colorize) with these
settings:
    mode: spectrum
    saturation: 0.95
    value: 0.75
    image_size: 327
It remains under a Creative Commons-Attribution-Share Alike 3.0 License.

The original SVG has the following copyright:

Copyright (C) 2009/2010/2011 Ulrich Apel.
This work is distributed under the conditions of the Creative Commons
Attribution-Share Alike 3.0 Licence. This means you are free:
* to Share - to copy, distribute and transmit the work
* to Remix - to adapt the work

Under the following conditions:
* Attribution. You must attribute the work by stating your use of KanjiVG in
  your own copyright header and linking to KanjiVG's website
  (http://kanjivg.tagaini.net)
* Share Alike. If you alter, transform, or build upon this work, you may
  distribute the resulting work only under the same or similar license to this
  one.

See http://creativecommons.org/licenses/by-sa/3.0/ for more details.
-->
<!DOCTYPE svg PUBLIC "-//W3C//DTD SVG 1.0//EN" "http://www.w3.org/TR/2001/REC-SVG-20010904/DTD/svg10.dtd" [
<!ATTLIST g
xmlns:kvg CDATA #FIXED "http://kanjivg.tagaini.net"
kvg:element CDATA #IMPLIED
kvg:variant CDATA #IMPLIED
kvg:partial CDATA #IMPLIED
kvg:original CDATA #IMPLIED
kvg:part CDATA #IMPLIED
kvg:number CDATA #IMPLIED
kvg:tradForm CDATA #IMPLIED
kvg:radicalForm CDATA #IMPLIED
kvg:position CDATA #IMPLIED
kvg:radical CDATA #IMPLIED
kvg:phon CDATA #IMPLIED >
<!ATTLIST path
xmlns:kvg CDATA #FIXED "http://kanjivg.tagaini.net"
kvg:type CDATA #IMPLIED >
]>
<svg xmlns="http://www.w3.org/2000/svg" width="327" height = "327" viewBox="0 0 327 327">
<g id="kvg:StrokePaths_05177" style="fill:none;stroke:#000000;stroke-width:3;stroke-linecap:round;stroke-linejoin:round;" transform="scale(3.0,3.0)">
<g id="kvg:05177" kvg:element="具">
	<g id="kvg:05177-g1" kvg:element="目" kvg:position="top" kvg:radical="nelson">
		<path style="stroke: #bf0909;" id="kvg:05177-s1" kvg:type="㇑" d="M33.34,17.63c1.08,1.08,1.3,2.54,1.3,3.9c0,4.34,0.06,27.34,0.07,36.85c0,1.67,0,2.92,0,3.58"/>
		<path style="stroke: #bf9109;" id="kvg:05177-s2" kvg:type="㇕a" d="M35.45,20.05c5.55-0.8,30.33-4.1,33.59-4.31c3.63-0.23,4.97,1.38,4.97,4.51c0,6.29-0.12,21.37-0.14,33.62c0,1.63,0,3.21,0,4.71"/>
		<path style="stroke: #64bf09;" id="kvg:05177-s3" kvg:type="㇐a" d="M35.89,33.24C46.25,32,66.25,30.25,73,29.75"/>
		<path style="stroke: #09bf36;" id="kvg:05177-s4" kvg:type="㇐a" d="M36,46.5c14.25-1.25,26.74-2.7,36.75-3.25"/>
		<path style="stroke: #09bfbf;" id="kvg:05177-s5" kvg:type="㇐a" d="M36,58.75C44,58,61.5,56.5,72.5,55.5"/>
	</g>
	<g id="kvg:05177-g2" kvg:position="bottom">
		<path style="stroke: #0936bf;" id="kvg:05177-s6" kvg:type="㇐" d="M15.75,71.7c3.75,0.68,8.42,0.66,12.39,0.26c12.76-1.28,39.61-3.71,55.24-4.05c3.49-0.08,7.12-0.03,10.62,0.63"/>
		<g id="kvg:05177-g3" kvg:element="八" kvg:radical="tradit">
			<path style="stroke: #6409bf;" id="kvg:05177-s7" kvg:type="㇒" d="M41.25,77.14c0.13,0.98,0.04,1.84-0.54,2.64c-2.83,3.97-10.08,10.09-20.9,15.68"/>
			<path style="stroke: #bf0991;" id="kvg:05177-s8" kvg:type="㇔/㇏" d="M67.25,78c6.46,2.91,15.62,11.25,18.31,16.47"/>
		</g>
	</g>
</g>
</g>
<g id="kvg:StrokeNumbers_05177" style="font-size:8;fill:#808080" transform="scale(3.0,3.0)">
	<text style="fill: #bf0909;" transform="matrix(1 0 0 1 27.75 27.13)">1</text>
	<text style="fill: #bf9109;" transform="matrix(1 0 0 1 38.25 16.50)">2</text>
	<text style="fill: #64bf09;" transform="matrix(1 0 0 1 38.50 30.13)">3</text>
	<text style="fill: #09bf36;" transform="matrix(1 0 0 1 38.50 43.63)">4</text>
	<text style="fill: #09bfbf;" transform="matrix(1 0 0 1 38.50 55.63)">5</text>
	<text style="fill: #0936bf;" transform="matrix(1 0 0 1 8.25 73.66)">6</text>
	<text style="fill: #6409bf;" transform="matrix(1 0 0 1 32.50 81.50)">7</text>
	<text style="fill: #bf0991;" transform="matrix(1 0 0 1 59.50 80.50)">8</text>
</g>
</svg>
