<?xml version="1.0" encoding="UTF-8"?>
<!--
This file has been modified from the original version by the kanji_colorize.py
script (available at http://github.com/cayennes/kanji-colorize) with these
settings:
    mode: spectrum
    saturation: 0.95
    value: 0.75
    image_size: 327
It remains under a Creative Commons-Attribution-Share Alike 3.0 License.

The original SVG has the following copyright:

Copyright (C) 2009/2010/2011 Ulrich Apel.
This work is distributed under the conditions of the Creative Commons
Attribution-Share Alike 3.0 Licence. This means you are free:
* to Share - to copy, distribute and transmit the work
* to Remix - to adapt the work

Under the following conditions:
* Attribution. You must attribute the work by stating your use of KanjiVG in
  your own copyright header and linking to KanjiVG's website
  (http://kanjivg.tagaini.net)
* Share Alike. If you alter, transform, or build upon this work, you may
  distribute the resulting work only under the same or similar license to this
  one.

See http://creativecommons.org/licenses/by-sa/3.0/ for more details.
-->
<!DOCTYPE svg PUBLIC "-//W3C//DTD SVG 1.0//EN" "http://www.w3.org/TR/2001/REC-SVG-20010904/DTD/svg10.dtd" [
<!ATTLIST g
xmlns:kvg CDATA #FIXED "http://kanjivg.tagaini.net"
kvg:element CDATA #IMPLIED
kvg:variant CDATA #IMPLIED
kvg:partial CDATA #IMPLIED
kvg:original CDATA #IMPLIED
kvg:part CDATA #IMPLIED
kvg:number CDATA #IMPLIED
kvg:tradForm CDATA #IMPLIED
kvg:radicalForm CDATA #IMPLIED
kvg:position CDATA #IMPLIED
kvg:radical CDATA #IMPLIED
kvg:phon CDATA #IMPLIED >
<!ATTLIST path
xmlns:kvg CDATA #FIXED "http://kanjivg.tagaini.net"
kvg:type CDATA #IMPLIED >
]>
<svg xmlns="http://www.w3.org/2000/svg" width="327" height = "327" viewBox="0 0 327 327">
<g id="kvg:StrokePaths_05175" style="fill:none;stroke:#000000;stroke-width:3;stroke-linecap:round;stroke-linejoin:round;" transform="scale(3.0,3.0)">
<g id="kvg:05175" kvg:element="兵">
	<g id="kvg:05175-g1" kvg:element="丘" kvg:position="top">
		<g id="kvg:05175-g2" kvg:element="斤">
			<g id="kvg:05175-g3" kvg:element="丿" kvg:radical="nelson">
				<path style="stroke: #bf0909;" id="kvg:05175-s1" kvg:type="㇒" d="M63.53,13c-0.03,1-0.73,2.17-1.42,2.86c-6.96,7.1-13.96,11.56-27.87,18.68"/>
			</g>
			<path style="stroke: #bfa509;" id="kvg:05175-s2" kvg:type="㇑a" d="M33.18,34.33c1.06,1.06,1.62,2.26,1.77,4.07c0.55,6.7,1.65,21.04,2.3,27.54"/>
			<path style="stroke: #3dbf09;" id="kvg:05175-s3" kvg:type="㇐b" d="M36.53,41.82c9.72-1.17,28.09-4.32,39.51-6.15c1.75-0.28,4.85-0.44,5.96-0.25"/>
			<path style="stroke: #09bf71;" id="kvg:05175-s4" kvg:type="㇑a" d="M67.87,41.47c0.63,1.03,0.81,2.14,0.57,3.32c-0.7,3.46-1.95,8.21-3.95,16.88"/>
		</g>
		<g id="kvg:05175-g4" kvg:element="一">
			<path style="stroke: #0971bf;" id="kvg:05175-s5" kvg:type="㇐" d="M14.75,67.5c2.48,0.72,7.04,1,9.5,0.72c17.37-1.98,35.35-3.97,60.95-5.44c4.12-0.24,7.55-0.16,10.67,0.63"/>
		</g>
	</g>
	<g id="kvg:05175-g5" kvg:element="八" kvg:position="bottom" kvg:radical="tradit">
		<g id="kvg:05175-g6" kvg:position="left">
			<path style="stroke: #3d09bf;" id="kvg:05175-s6" kvg:type="㇒" d="M42.66,76.5c0.07,0.51,0.04,1.48-0.39,2.06C36.91,85.79,28.98,92.42,15,98.25"/>
		</g>
		<g id="kvg:05175-g7" kvg:position="right">
			<path style="stroke: #bf09a5;" id="kvg:05175-s7" kvg:type="㇔/㇏" d="M67.25,76.5c7.88,4.25,19.38,14,22.56,20.22"/>
		</g>
	</g>
</g>
</g>
<g id="kvg:StrokeNumbers_05175" style="font-size:8;fill:#808080" transform="scale(3.0,3.0)">
	<text style="fill: #bf0909;" transform="matrix(1 0 0 1 67.99 12.13)">1</text>
	<text style="fill: #bfa509;" transform="matrix(1 0 0 1 27.50 44.50)">2</text>
	<text style="fill: #3dbf09;" transform="matrix(1 0 0 1 43.50 37.50)">3</text>
	<text style="fill: #09bf71;" transform="matrix(1 0 0 1 59.25 48.13)">4</text>
	<text style="fill: #0971bf;" transform="matrix(1 0 0 1 7.50 69.13)">5</text>
	<text style="fill: #3d09bf;" transform="matrix(1 0 0 1 33.75 78.13)">6</text>
	<text style="fill: #bf09a5;" transform="matrix(1 0 0 1 59.25 78.13)">7</text>
</g>
</svg>
