<?xml version="1.0" encoding="UTF-8"?>
<!--
This file has been modified from the original version by the kanji_colorize.py
script (available at http://github.com/cayennes/kanji-colorize) with these
settings:
    mode: spectrum
    saturation: 0.95
    value: 0.75
    image_size: 327
It remains under a Creative Commons-Attribution-Share Alike 3.0 License.

The original SVG has the following copyright:

Copyright (C) 2009/2010/2011 Ulrich Apel.
This work is distributed under the conditions of the Creative Commons
Attribution-Share Alike 3.0 Licence. This means you are free:
* to Share - to copy, distribute and transmit the work
* to Remix - to adapt the work

Under the following conditions:
* Attribution. You must attribute the work by stating your use of KanjiVG in
  your own copyright header and linking to KanjiVG's website
  (http://kanjivg.tagaini.net)
* Share Alike. If you alter, transform, or build upon this work, you may
  distribute the resulting work only under the same or similar license to this
  one.

See http://creativecommons.org/licenses/by-sa/3.0/ for more details.
-->
<!DOCTYPE svg PUBLIC "-//W3C//DTD SVG 1.0//EN" "http://www.w3.org/TR/2001/REC-SVG-20010904/DTD/svg10.dtd" [
<!ATTLIST g
xmlns:kvg CDATA #FIXED "http://kanjivg.tagaini.net"
kvg:element CDATA #IMPLIED
kvg:variant CDATA #IMPLIED
kvg:partial CDATA #IMPLIED
kvg:original CDATA #IMPLIED
kvg:part CDATA #IMPLIED
kvg:number CDATA #IMPLIED
kvg:tradForm CDATA #IMPLIED
kvg:radicalForm CDATA #IMPLIED
kvg:position CDATA #IMPLIED
kvg:radical CDATA #IMPLIED
kvg:phon CDATA #IMPLIED >
<!ATTLIST path
xmlns:kvg CDATA #FIXED "http://kanjivg.tagaini.net"
kvg:type CDATA #IMPLIED >
]>
<svg xmlns="http://www.w3.org/2000/svg" width="327" height = "327" viewBox="0 0 327 327">
<g id="kvg:StrokePaths_05191" style="fill:none;stroke:#000000;stroke-width:3;stroke-linecap:round;stroke-linejoin:round;" transform="scale(3.0,3.0)">
<g id="kvg:05191" kvg:element="冑">
	<g id="kvg:05191-g1" kvg:element="由" kvg:position="top">
		<g id="kvg:05191-g2" kvg:element="田" kvg:part="1" kvg:partial="true">
			<path style="stroke: #bf0909;" id="kvg:05191-s1" kvg:type="㇑" d="M25.71,20.26c0.58,0.64,1.03,1.31,1.17,1.87c1.12,4.62,3.24,15.58,3.9,24.08"/>
			<path style="stroke: #bf8209;" id="kvg:05191-s2" kvg:type="㇕a" d="M27.67,21.51c10.47-1.15,47-3.02,53.63-3.47c2.43-0.17,3.34,1.17,3.21,2.41c-0.49,4.53-1.95,15.24-3.48,22.7"/>
		</g>
		<g id="kvg:05191-g3" kvg:element="丨">
			<path style="stroke: #82bf09;" id="kvg:05191-s3" kvg:type="㇑a" d="M52.36,8.5c1.16,0.8,1.85,1.95,1.85,3c0.04,10.36,0.21,27.82,0.21,30.52"/>
		</g>
		<g id="kvg:05191-g4" kvg:element="田" kvg:part="2" kvg:partial="true">
			<path style="stroke: #09bf09;" id="kvg:05191-s4" kvg:type="㇐a" d="M28.75,31.83C31.64,31.6,80.98,29,83.37,29"/>
			<path style="stroke: #09bf82;" id="kvg:05191-s5" kvg:type="㇐a" d="M30.75,44.06c7.31-0.33,41.54-3.02,50.36-3.14"/>
		</g>
	</g>
	<g id="kvg:05191-g5" kvg:element="月" kvg:variant="true" kvg:original="肉" kvg:position="bottom" kvg:radical="nelson">
		<g id="kvg:05191-g6" kvg:element="冂" kvg:radical="tradit">
			<path style="stroke: #0982bf;" id="kvg:05191-s6" kvg:type="㇑" d="M36.7,53.72c0.41,0.76,0.68,1.98,0.54,3.34c-0.14,1.37,0.14,39.91,0.14,42.19"/>
			<path style="stroke: #0909bf;" id="kvg:05191-s7" kvg:type="㇆a" d="M37.24,55.24c5.13-0.61,33.31-2.83,34.32-3.04c2.16-0.46,3.75,1.11,3.51,1.82c-0.41,1.22-0.41,38.62-0.41,42.12c0,5.62-5.55,0.08-7.33-1.09"/>
		</g>
		<g id="kvg:05191-g7" kvg:element="二">
			<g id="kvg:05191-g8" kvg:position="top">
				<path style="stroke: #8209bf;" id="kvg:05191-s8" kvg:type="㇐" d="M44.25,67.14c0.43,0.17,1.21,0.21,1.64,0.17c2.72-0.29,17.48-1.89,20.12-1.7c0.71,0.05,1.14,0.08,1.5,0.16"/>
			</g>
			<g id="kvg:05191-g9" kvg:position="bottom">
				<path style="stroke: #bf0982;" id="kvg:05191-s9" kvg:type="㇐" d="M44.25,79.14c0.43,0.17,1.21,0.21,1.64,0.17c2.72-0.29,17.48-1.89,20.12-1.7c0.71,0.05,1.14,0.08,1.5,0.16"/>
			</g>
		</g>
	</g>
</g>
</g>
<g id="kvg:StrokeNumbers_05191" style="font-size:8;fill:#808080" transform="scale(3.0,3.0)">
	<text style="fill: #bf0909;" transform="matrix(1 0 0 1 20.8 27.9)">1</text>
	<text style="fill: #bf8209;" transform="matrix(1 0 0 1 29.5 18.5)">2</text>
	<text style="fill: #82bf09;" transform="matrix(1 0 0 1 45.4 9.8)">3</text>
	<text style="fill: #09bf09;" transform="matrix(1 0 0 1 31 29.7)">4</text>
	<text style="fill: #09bf82;" transform="matrix(1 0 0 1 31.7 40.9)">5</text>
	<text style="fill: #0982bf;" transform="matrix(1 0 0 1 29.4 60)">6</text>
	<text style="fill: #0909bf;" transform="matrix(1 0 0 1 39.50 52.50)">7</text>
	<text style="fill: #8209bf;" transform="matrix(1 0 0 1 42.50 64.10)">8</text>
	<text style="fill: #bf0982;" transform="matrix(1 0 0 1 42.50 76.50)">9</text>
</g>
</svg>
