<?xml version="1.0" encoding="UTF-8"?>
<!--
This file has been modified from the original version by the kanji_colorize.py
script (available at http://github.com/cayennes/kanji-colorize) with these
settings:
    mode: spectrum
    saturation: 0.95
    value: 0.75
    image_size: 327
It remains under a Creative Commons-Attribution-Share Alike 3.0 License.

The original SVG has the following copyright:

Copyright (C) 2009/2010/2011 Ulrich Apel.
This work is distributed under the conditions of the Creative Commons
Attribution-Share Alike 3.0 Licence. This means you are free:
* to Share - to copy, distribute and transmit the work
* to Remix - to adapt the work

Under the following conditions:
* Attribution. You must attribute the work by stating your use of KanjiVG in
  your own copyright header and linking to KanjiVG's website
  (http://kanjivg.tagaini.net)
* Share Alike. If you alter, transform, or build upon this work, you may
  distribute the resulting work only under the same or similar license to this
  one.

See http://creativecommons.org/licenses/by-sa/3.0/ for more details.
-->
<!DOCTYPE svg PUBLIC "-//W3C//DTD SVG 1.0//EN" "http://www.w3.org/TR/2001/REC-SVG-20010904/DTD/svg10.dtd" [
<!ATTLIST g
xmlns:kvg CDATA #FIXED "http://kanjivg.tagaini.net"
kvg:element CDATA #IMPLIED
kvg:variant CDATA #IMPLIED
kvg:partial CDATA #IMPLIED
kvg:original CDATA #IMPLIED
kvg:part CDATA #IMPLIED
kvg:number CDATA #IMPLIED
kvg:tradForm CDATA #IMPLIED
kvg:radicalForm CDATA #IMPLIED
kvg:position CDATA #IMPLIED
kvg:radical CDATA #IMPLIED
kvg:phon CDATA #IMPLIED >
<!ATTLIST path
xmlns:kvg CDATA #FIXED "http://kanjivg.tagaini.net"
kvg:type CDATA #IMPLIED >
]>
<svg xmlns="http://www.w3.org/2000/svg" width="327" height = "327" viewBox="0 0 327 327">
<g id="kvg:StrokePaths_051bd" style="fill:none;stroke:#000000;stroke-width:3;stroke-linecap:round;stroke-linejoin:round;" transform="scale(3.0,3.0)">
<g id="kvg:051bd" kvg:element="冽">
	<g id="kvg:051bd-g1" kvg:element="冫" kvg:original="氷" kvg:position="left" kvg:radical="general">
		<g id="kvg:051bd-g2" kvg:position="top">
			<path style="stroke: #bf0909;" id="kvg:051bd-s1" kvg:type="㇔" d="M16.29,19.25c3.99,2.19,10.3,9,11.29,12.41"/>
		</g>
		<g id="kvg:051bd-g3" kvg:position="bottom">
			<path style="stroke: #bf9109;" id="kvg:051bd-s2" kvg:type="㇀" d="M11.98,83.17c1.77,1.08,3.94,0.23,5.13-1.5C18.27,79.99,23.5,69,27.77,59.67"/>
		</g>
	</g>
	<g id="kvg:051bd-g4" kvg:element="列" kvg:position="right">
		<g id="kvg:051bd-g5" kvg:element="歹" kvg:position="left">
			<g id="kvg:051bd-g6" kvg:element="一">
				<path style="stroke: #64bf09;" id="kvg:051bd-s3" kvg:type="㇐" d="M33.99,23.73c0.94,0.52,2.65,0.63,3.6,0.52C43.75,23.5,57,21,63.23,20.26c1.55-0.18,2.5,0.25,3.28,0.51"/>
			</g>
			<g id="kvg:051bd-g7" kvg:element="夕">
				<path style="stroke: #09bf36;" id="kvg:051bd-s4" kvg:type="㇒" d="M49.93,25.65c0.18,0.6,0.73,2.41,0.34,3.54c-2.52,7.31-9.02,22.56-16.94,31.36"/>
				<path style="stroke: #09bfbf;" id="kvg:051bd-s5" kvg:type="㇇" d="M47.62,42.03c0.26,0.04,3.26-0.36,3.95-0.63c2.94-1.15,4.63-1.6,8.72-2.29c2.41-0.41,4.36,1.01,3.72,3.33c-4.25,15.32-16.25,37.82-33.75,49.82"/>
				<path style="stroke: #0936bf;" id="kvg:051bd-s6" kvg:type="㇔" d="M40.8,55.34c3.56,1.84,9.19,7.58,10.08,10.45"/>
			</g>
		</g>
		<g id="kvg:051bd-g8" kvg:element="刂" kvg:variant="true" kvg:original="刀" kvg:position="right">
			<path style="stroke: #6409bf;" id="kvg:051bd-s7" kvg:type="㇑" d="M73.89,26.37c0.63,0.63,1.43,1.49,1.51,4.52c0.34,14.55-0.22,34.16-0.22,39.12"/>
			<path style="stroke: #bf0991;" id="kvg:051bd-s8" kvg:type="㇚" d="M90.26,15.33c0.63,0.92,1.43,2.49,1.51,5.52c0.34,14.55-0.22,60.16-0.22,65.12c0,11.53-5.3,3.53-7.47,0.75"/>
		</g>
	</g>
</g>
</g>
<g id="kvg:StrokeNumbers_051bd" style="font-size:8;fill:#808080" transform="scale(3.0,3.0)">
	<text style="fill: #bf0909;" transform="matrix(1 0 0 1 6.85 19.85)">1</text>
	<text style="fill: #bf9109;" transform="matrix(1 0 0 1 2.66 85.85)">2</text>
	<text style="fill: #64bf09;" transform="matrix(1 0 0 1 35 20)">3</text>
	<text style="fill: #09bf36;" transform="matrix(1 0 0 1 42 32)">4</text>
	<text style="fill: #09bfbf;" transform="matrix(1 0 0 1 55.25 35.33)">5</text>
	<text style="fill: #0936bf;" transform="matrix(1 0 0 1 46.25 56.25)">6</text>
	<text style="fill: #6409bf;" transform="matrix(1 0 0 1 72.25 22)">7</text>
	<text style="fill: #bf0991;" transform="matrix(1 0 0 1 83.25 12)">8</text>
</g>
</svg>
