<?xml version="1.0" encoding="UTF-8"?>
<!--
This file has been modified from the original version by the kanji_colorize.py
script (available at http://github.com/cayennes/kanji-colorize) with these
settings:
    mode: spectrum
    saturation: 0.95
    value: 0.75
    image_size: 327
It remains under a Creative Commons-Attribution-Share Alike 3.0 License.

The original SVG has the following copyright:

Copyright (C) 2009/2010/2011 Ulrich Apel.
This work is distributed under the conditions of the Creative Commons
Attribution-Share Alike 3.0 Licence. This means you are free:
* to Share - to copy, distribute and transmit the work
* to Remix - to adapt the work

Under the following conditions:
* Attribution. You must attribute the work by stating your use of KanjiVG in
  your own copyright header and linking to KanjiVG's website
  (http://kanjivg.tagaini.net)
* Share Alike. If you alter, transform, or build upon this work, you may
  distribute the resulting work only under the same or similar license to this
  one.

See http://creativecommons.org/licenses/by-sa/3.0/ for more details.
-->
<!DOCTYPE svg PUBLIC "-//W3C//DTD SVG 1.0//EN" "http://www.w3.org/TR/2001/REC-SVG-20010904/DTD/svg10.dtd" [
<!ATTLIST g
xmlns:kvg CDATA #FIXED "http://kanjivg.tagaini.net"
kvg:element CDATA #IMPLIED
kvg:variant CDATA #IMPLIED
kvg:partial CDATA #IMPLIED
kvg:original CDATA #IMPLIED
kvg:part CDATA #IMPLIED
kvg:number CDATA #IMPLIED
kvg:tradForm CDATA #IMPLIED
kvg:radicalForm CDATA #IMPLIED
kvg:position CDATA #IMPLIED
kvg:radical CDATA #IMPLIED
kvg:phon CDATA #IMPLIED >
<!ATTLIST path
xmlns:kvg CDATA #FIXED "http://kanjivg.tagaini.net"
kvg:type CDATA #IMPLIED >
]>
<svg xmlns="http://www.w3.org/2000/svg" width="327" height = "327" viewBox="0 0 327 327">
<g id="kvg:StrokePaths_051e9" style="fill:none;stroke:#000000;stroke-width:3;stroke-linecap:round;stroke-linejoin:round;" transform="scale(3.0,3.0)">
<g id="kvg:051e9" kvg:element="凩">
	<g id="kvg:051e9-g1" kvg:element="几" kvg:position="kamae" kvg:radical="general">
		<g id="kvg:051e9-g2" kvg:element="丿">
			<path style="stroke: #bf0909;" id="kvg:051e9-s1" kvg:type="㇒" d="M25.23,19c0.48,1.97,1.17,3.52,1.17,5.98c0,22.5,0.85,49.27-14.4,66.52"/>
		</g>
		<path style="stroke: #bfbf09;" id="kvg:051e9-s2" kvg:type="㇈a" d="M26.75,22c11-1.75,45.25-6.25,49.25-6.25s5.95,0.95,5.5,4.75c-2.5,21-3.25,45,9,66.25c5.12,8.88,7,3.5,5.5-5"/>
	</g>
	<g id="kvg:051e9-g3" kvg:element="木">
		<path style="stroke: #09bf09;" id="kvg:051e9-s3" kvg:type="㇐" d="M33.71,44.93c1.11,0.49,2.37,0.65,3.64,0.49c6.49-0.81,23.34-3.61,33.16-4.56c1.26-0.12,2.06,0.08,3.33,0.43"/>
		<path style="stroke: #09bfbf;" id="kvg:051e9-s4" kvg:type="㇑" d="M53.17,26c0.79,0.43,1.43,1.92,1.43,2.81c0,9.07,0,60.29-0.16,65.69"/>
		<path style="stroke: #0909bf;" id="kvg:051e9-s5" kvg:type="㇒" d="M54.48,43.69C49.96,54.97,37.84,72.21,28.43,78.6"/>
		<path style="stroke: #bf09bf;" id="kvg:051e9-s6" kvg:type="㇔/㇏" d="M57.47,55.72c6.9,2.69,14.47,10.9,16.68,17.74"/>
	</g>
</g>
</g>
<g id="kvg:StrokeNumbers_051e9" style="font-size:8;fill:#808080" transform="scale(3.0,3.0)">
	<text style="fill: #bf0909;" transform="matrix(1 0 0 1 18.50 26.50)">1</text>
	<text style="fill: #bfbf09;" transform="matrix(1 0 0 1 30.50 17.50)">2</text>
	<text style="fill: #09bf09;" transform="matrix(1 0 0 1 33.50 42.50)">3</text>
	<text style="fill: #09bfbf;" transform="matrix(1 0 0 1 43.25 28.50)">4</text>
	<text style="fill: #0909bf;" transform="matrix(1 0 0 1 41.50 55.50)">5</text>
	<text style="fill: #bf09bf;" transform="matrix(1 0 0 1 59.50 54.50)">6</text>
</g>
</svg>
