<?xml version="1.0" encoding="UTF-8"?>
<!--
This file has been modified from the original version by the kanji_colorize.py
script (available at http://github.com/cayennes/kanji-colorize) with these
settings:
    mode: spectrum
    saturation: 0.95
    value: 0.75
    image_size: 327
It remains under a Creative Commons-Attribution-Share Alike 3.0 License.

The original SVG has the following copyright:

Copyright (C) 2009/2010/2011 Ulrich Apel.
This work is distributed under the conditions of the Creative Commons
Attribution-Share Alike 3.0 Licence. This means you are free:
* to Share - to copy, distribute and transmit the work
* to Remix - to adapt the work

Under the following conditions:
* Attribution. You must attribute the work by stating your use of KanjiVG in
  your own copyright header and linking to KanjiVG's website
  (http://kanjivg.tagaini.net)
* Share Alike. If you alter, transform, or build upon this work, you may
  distribute the resulting work only under the same or similar license to this
  one.

See http://creativecommons.org/licenses/by-sa/3.0/ for more details.
-->
<!DOCTYPE svg PUBLIC "-//W3C//DTD SVG 1.0//EN" "http://www.w3.org/TR/2001/REC-SVG-20010904/DTD/svg10.dtd" [
<!ATTLIST g
xmlns:kvg CDATA #FIXED "http://kanjivg.tagaini.net"
kvg:element CDATA #IMPLIED
kvg:variant CDATA #IMPLIED
kvg:partial CDATA #IMPLIED
kvg:original CDATA #IMPLIED
kvg:part CDATA #IMPLIED
kvg:number CDATA #IMPLIED
kvg:tradForm CDATA #IMPLIED
kvg:radicalForm CDATA #IMPLIED
kvg:position CDATA #IMPLIED
kvg:radical CDATA #IMPLIED
kvg:phon CDATA #IMPLIED >
<!ATTLIST path
xmlns:kvg CDATA #FIXED "http://kanjivg.tagaini.net"
kvg:type CDATA #IMPLIED >
]>
<svg xmlns="http://www.w3.org/2000/svg" width="327" height = "327" viewBox="0 0 327 327">
<g id="kvg:StrokePaths_051fe" style="fill:none;stroke:#000000;stroke-width:3;stroke-linecap:round;stroke-linejoin:round;" transform="scale(3.0,3.0)">
<g id="kvg:051fe" kvg:element="凾">
	<g id="kvg:051fe-g1" kvg:element="了">
		<path style="stroke: #bf0909;" id="kvg:051fe-s1" kvg:type="㇇" d="M30.53,23.29c1.05,0.34,3.02,0.89,4.6,0.58c1.92-0.37,27.8-4.45,29.63-4.45c1.83,0,3.37,2.41,1.28,4.01c-3.67,2.81-10.53,8.15-14.91,12.42"/>
		<g id="kvg:051fe-g2" kvg:element="亅">
			<path style="stroke: #bf8209;" id="kvg:051fe-s2" kvg:type="㇚" d="M48.23,34.75c6.52,6.81,8.52,22.59,5.56,38.28c-1.46,7.73-6.18,1.57-7.62,0.78"/>
		</g>
	</g>
	<g id="kvg:051fe-g3" kvg:element="口">
		<path style="stroke: #82bf09;" id="kvg:051fe-s3" kvg:type="㇑" d="M26.75,46.64c0.26,0.39,0.53,0.72,0.64,1.21c0.9,3.9,1.98,14.65,2.6,21.65"/>
		<path style="stroke: #09bf09;" id="kvg:051fe-s4" kvg:type="㇕b" d="M28.37,48.28C34.75,47,39.17,46,42.21,45.49c1.11-0.19,1.78,1.11,1.62,2.21c-0.66,4.55-1.93,12.05-2.91,18.35"/>
		<path style="stroke: #09bf82;" id="kvg:051fe-s5" kvg:type="㇐b" d="M30.11,68.08c3.58-0.58,7.51-1.08,12.43-1.97"/>
	</g>
	<g id="kvg:051fe-g4" kvg:element="又">
		<path style="stroke: #0982bf;" id="kvg:051fe-s6" kvg:type="㇇" d="M61.58,44.14c0.2,0.03,1.25,0.25,1.81,0.18c2.5-0.32,11.39-1.95,14-2.74c1.8-0.55,2.31,0.62,1.85,2.11c-2.52,8.13-8.11,22.55-18.49,30.56"/>
		<path style="stroke: #0909bf;" id="kvg:051fe-s7" kvg:type="㇏" d="M62.39,54.99c6.62,3.83,13.98,10.87,17.24,16.86"/>
	</g>
	<g id="kvg:051fe-g5" kvg:element="凵" kvg:radical="tradit">
		<path style="stroke: #8209bf;" id="kvg:051fe-s8" kvg:type="㇄" d="M16.56,45.63c0.76,0.45,2.01,2.12,2.01,4.25c0,0.91-1.18,34.63-1.25,36.75s0.68,3.62,3.15,3.39c13.75-1.26,56.9-3.82,64.77-4.27"/>
		<g id="kvg:051fe-g6" kvg:element="丨" kvg:radical="nelson">
			<path style="stroke: #bf0982;" id="kvg:051fe-s9" kvg:type="㇑" d="M88.81,40.88c1.44,0.62,2.51,1.87,2.51,4.25c0,4.79-2.57,25.12-4.75,45.75"/>
		</g>
	</g>
</g>
</g>
<g id="kvg:StrokeNumbers_051fe" style="font-size:8;fill:#808080" transform="scale(3.0,3.0)">
	<text style="fill: #bf0909;" transform="matrix(1 0 0 1 24.50 23.50)">1</text>
	<text style="fill: #bf8209;" transform="matrix(1 0 0 1 41.50 36.50)">2</text>
	<text style="fill: #82bf09;" transform="matrix(1 0 0 1 21.50 58.50)">3</text>
	<text style="fill: #09bf09;" transform="matrix(1 0 0 1 29.50 44.50)">4</text>
	<text style="fill: #09bf82;" transform="matrix(1 0 0 1 32.25 64.50)">5</text>
	<text style="fill: #0982bf;" transform="matrix(1 0 0 1 59.50 41.50)">6</text>
	<text style="fill: #0909bf;" transform="matrix(1 0 0 1 59.50 53.18)">7</text>
	<text style="fill: #8209bf;" transform="matrix(1 0 0 1 8.50 45.10)">8</text>
	<text style="fill: #bf0982;" transform="matrix(1 0 0 1 84.50 37.50)">9</text>
</g>
</svg>
