<?xml version="1.0" encoding="UTF-8"?>
<!--
This file has been modified from the original version by the kanji_colorize.py
script (available at http://github.com/cayennes/kanji-colorize) with these
settings:
    mode: spectrum
    saturation: 0.95
    value: 0.75
    image_size: 327
It remains under a Creative Commons-Attribution-Share Alike 3.0 License.

The original SVG has the following copyright:

Copyright (C) 2009/2010/2011 Ulrich Apel.
This work is distributed under the conditions of the Creative Commons
Attribution-Share Alike 3.0 Licence. This means you are free:
* to Share - to copy, distribute and transmit the work
* to Remix - to adapt the work

Under the following conditions:
* Attribution. You must attribute the work by stating your use of KanjiVG in
  your own copyright header and linking to KanjiVG's website
  (http://kanjivg.tagaini.net)
* Share Alike. If you alter, transform, or build upon this work, you may
  distribute the resulting work only under the same or similar license to this
  one.

See http://creativecommons.org/licenses/by-sa/3.0/ for more details.
-->
<!DOCTYPE svg PUBLIC "-//W3C//DTD SVG 1.0//EN" "http://www.w3.org/TR/2001/REC-SVG-20010904/DTD/svg10.dtd" [
<!ATTLIST g
xmlns:kvg CDATA #FIXED "http://kanjivg.tagaini.net"
kvg:element CDATA #IMPLIED
kvg:variant CDATA #IMPLIED
kvg:partial CDATA #IMPLIED
kvg:original CDATA #IMPLIED
kvg:part CDATA #IMPLIED
kvg:number CDATA #IMPLIED
kvg:tradForm CDATA #IMPLIED
kvg:radicalForm CDATA #IMPLIED
kvg:position CDATA #IMPLIED
kvg:radical CDATA #IMPLIED
kvg:phon CDATA #IMPLIED >
<!ATTLIST path
xmlns:kvg CDATA #FIXED "http://kanjivg.tagaini.net"
kvg:type CDATA #IMPLIED >
]>
<svg xmlns="http://www.w3.org/2000/svg" width="327" height = "327" viewBox="0 0 327 327">
<g id="kvg:StrokePaths_05224" style="fill:none;stroke:#000000;stroke-width:3;stroke-linecap:round;stroke-linejoin:round;" transform="scale(3.0,3.0)">
<g id="kvg:05224" kvg:element="判">
	<g id="kvg:05224-g1" kvg:element="半" kvg:position="left" kvg:phon="半">
		<path style="stroke: #bf0909;" id="kvg:05224-s1" kvg:type="㇔" d="M18.79,24.46c2.54,2.29,6.56,9.44,7.19,13.01"/>
		<path style="stroke: #bfa509;" id="kvg:05224-s2" kvg:type="㇒" d="M56.78,18.75c0.11,1.25-0.1,2.26-0.67,3.37c-1.8,3.44-4.6,8.39-8.95,12.88"/>
		<g id="kvg:05224-g2" kvg:element="二" kvg:part="1">
			<path style="stroke: #3dbf09;" id="kvg:05224-s3" kvg:type="㇐" d="M18.58,48.83c1.64,0.73,4.09,0.3,5.78-0.01c7.08-1.29,18.54-3.55,25.63-4.32c1.65-0.18,3.63-0.12,5.23,0.31"/>
		</g>
		<g id="kvg:05224-g3" kvg:element="十">
			<g id="kvg:05224-g4" kvg:element="二" kvg:part="2">
				<path style="stroke: #09bf71;" id="kvg:05224-s4" kvg:type="㇐" d="M13.75,67.59c1.99,0.78,4.77,0.6,6.85,0.27c8.67-1.39,25.05-4.45,32.92-5.45c2.19-0.28,4.59-0.38,6.73,0.12"/>
			</g>
			<path style="stroke: #0971bf;" id="kvg:05224-s5" kvg:type="㇑" d="M36.62,14c1,1,1.71,2.88,1.71,4c0,5.25,0.04,54.43,0.04,73.5c0,4.52,0,7.35-0.01,7.5"/>
		</g>
	</g>
	<g id="kvg:05224-g5" kvg:element="刂" kvg:variant="true" kvg:original="刀" kvg:position="right" kvg:radical="general">
		<path style="stroke: #3d09bf;" id="kvg:05224-s6" kvg:type="㇑" d="M69.02,25.83c0.98,0.92,1.76,2.67,1.76,5.02c0,12.4,0.04,23.65,0.04,31.65c0,2.66-0.06,4.75-0.06,6"/>
		<path style="stroke: #bf09a5;" id="kvg:05224-s7" kvg:type="㇚" d="M90.27,11.58c0.98,0.92,1.76,2.67,1.76,4.52c0,20.15-0.01,65.65-0.01,73.37c0,12.53-7.21,1.5-8.71,0.25"/>
	</g>
</g>
</g>
<g id="kvg:StrokeNumbers_05224" style="font-size:8;fill:#808080" transform="scale(3.0,3.0)">
	<text style="fill: #bf0909;" transform="matrix(1 0 0 1 12.75 25.63)">1</text>
	<text style="fill: #bfa509;" transform="matrix(1 0 0 1 48.50 18.13)">2</text>
	<text style="fill: #3dbf09;" transform="matrix(1 0 0 1 11.25 49.50)">3</text>
	<text style="fill: #09bf71;" transform="matrix(1 0 0 1 6.75 68.50)">4</text>
	<text style="fill: #0971bf;" transform="matrix(1 0 0 1 28.50 14.50)">5</text>
	<text style="fill: #3d09bf;" transform="matrix(1 0 0 1 66.50 22.50)">6</text>
	<text style="fill: #bf09a5;" transform="matrix(1 0 0 1 81.50 12.50)">7</text>
</g>
</svg>
