<?xml version="1.0" encoding="UTF-8"?>
<!--
This file has been modified from the original version by the kanji_colorize.py
script (available at http://github.com/cayennes/kanji-colorize) with these
settings:
    mode: spectrum
    saturation: 0.95
    value: 0.75
    image_size: 327
It remains under a Creative Commons-Attribution-Share Alike 3.0 License.

The original SVG has the following copyright:

Copyright (C) 2009/2010/2011 Ulrich Apel.
This work is distributed under the conditions of the Creative Commons
Attribution-Share Alike 3.0 Licence. This means you are free:
* to Share - to copy, distribute and transmit the work
* to Remix - to adapt the work

Under the following conditions:
* Attribution. You must attribute the work by stating your use of KanjiVG in
  your own copyright header and linking to KanjiVG's website
  (http://kanjivg.tagaini.net)
* Share Alike. If you alter, transform, or build upon this work, you may
  distribute the resulting work only under the same or similar license to this
  one.

See http://creativecommons.org/licenses/by-sa/3.0/ for more details.
-->
<!DOCTYPE svg PUBLIC "-//W3C//DTD SVG 1.0//EN" "http://www.w3.org/TR/2001/REC-SVG-20010904/DTD/svg10.dtd" [
<!ATTLIST g
xmlns:kvg CDATA #FIXED "http://kanjivg.tagaini.net"
kvg:element CDATA #IMPLIED
kvg:variant CDATA #IMPLIED
kvg:partial CDATA #IMPLIED
kvg:original CDATA #IMPLIED
kvg:part CDATA #IMPLIED
kvg:number CDATA #IMPLIED
kvg:tradForm CDATA #IMPLIED
kvg:radicalForm CDATA #IMPLIED
kvg:position CDATA #IMPLIED
kvg:radical CDATA #IMPLIED
kvg:phon CDATA #IMPLIED >
<!ATTLIST path
xmlns:kvg CDATA #FIXED "http://kanjivg.tagaini.net"
kvg:type CDATA #IMPLIED >
]>
<svg xmlns="http://www.w3.org/2000/svg" width="327" height = "327" viewBox="0 0 327 327">
<g id="kvg:StrokePaths_0523b" style="fill:none;stroke:#000000;stroke-width:3;stroke-linecap:round;stroke-linejoin:round;" transform="scale(3.0,3.0)">
<g id="kvg:0523b" kvg:element="刻">
	<g id="kvg:0523b-g1" kvg:element="亥" kvg:position="left" kvg:phon="亥">
		<g id="kvg:0523b-g2" kvg:element="亠" kvg:position="top">
			<path style="stroke: #bf0909;" id="kvg:0523b-s1" kvg:type="㇑a" d="M37.5,11.99c0.94,0.94,1.34,2.68,1.34,3.88c0,4.41-0.08,6.49-0.08,9.76"/>
			<path style="stroke: #bf9109;" id="kvg:0523b-s2" kvg:type="㇐" d="M15.5,29.35c2.24,0.23,4.41,0.2,6.66-0.15c8.06-1.27,22.19-3.26,32.34-4.33c2.65-0.28,5.34-0.64,7.99-0.17"/>
		</g>
		<path style="stroke: #64bf09;" id="kvg:0523b-s3" kvg:type="㇜" d="M35.39,30.09c0.35,1.27-0.03,2.31-0.79,3.62c-2.6,4.42-5.22,7.92-9.62,13.1c-0.63,0.74-0.2,2.69,0.5,2.93c3.7,1.27,7.9,2.77,11.91,4.97"/>
		<path style="stroke: #09bf36;" id="kvg:0523b-s4" kvg:type="㇒" d="M49.32,34.21c0.08,0.92,0.06,2.69-0.41,3.69C42.75,51,34.5,62.5,19.55,73"/>
		<g id="kvg:0523b-g3" kvg:element="人" kvg:position="bottom">
			<path style="stroke: #09bfbf;" id="kvg:0523b-s5" kvg:type="㇒" d="M51.21,55.57c0.1,0.93-0.13,2.45-0.7,3.48C43.12,72.5,30.99,86.07,14.25,95.04"/>
			<path style="stroke: #0936bf;" id="kvg:0523b-s6" kvg:type="㇔/㇏" d="M44.52,74.86c5.98,3.64,11.73,10.52,14.01,15.57"/>
		</g>
	</g>
	<g id="kvg:0523b-g4" kvg:element="刂" kvg:variant="true" kvg:original="刀" kvg:position="right" kvg:radical="general">
		<path style="stroke: #6409bf;" id="kvg:0523b-s7" kvg:type="㇑" d="M71.77,27.08c1.08,1.08,1.76,2.79,1.76,5.02c0,10.52,0.15,21.37,0.05,28.15c-0.04,2.57-0.07,4.63-0.07,6"/>
		<path style="stroke: #bf0991;" id="kvg:0523b-s8" kvg:type="㇚" d="M90.77,14.83c0.98,0.92,1.76,2.67,1.76,5.02c0,14.56-0.01,63.52-0.01,68.62c0,11.53-7.46,1.5-8.96,0.25"/>
	</g>
</g>
</g>
<g id="kvg:StrokeNumbers_0523b" style="font-size:8;fill:#808080" transform="scale(3.0,3.0)">
	<text style="fill: #bf0909;" transform="matrix(1 0 0 1 28.50 12.13)">1</text>
	<text style="fill: #bf9109;" transform="matrix(1 0 0 1 7.50 30.50)">2</text>
	<text style="fill: #64bf09;" transform="matrix(1 0 0 1 24.50 39.13)">3</text>
	<text style="fill: #09bf36;" transform="matrix(1 0 0 1 39.75 36.50)">4</text>
	<text style="fill: #09bfbf;" transform="matrix(1 0 0 1 41.50 62.50)">5</text>
	<text style="fill: #0936bf;" transform="matrix(1 0 0 1 49.50 76.55)">6</text>
	<text style="fill: #6409bf;" transform="matrix(1 0 0 1 68.50 23.50)">7</text>
	<text style="fill: #bf0991;" transform="matrix(1 0 0 1 81.50 14.50)">8</text>
</g>
</svg>
