<?xml version="1.0" encoding="UTF-8"?>
<!--
This file has been modified from the original version by the kanji_colorize.py
script (available at http://github.com/cayennes/kanji-colorize) with these
settings:
    mode: spectrum
    saturation: 0.95
    value: 0.75
    image_size: 327
It remains under a Creative Commons-Attribution-Share Alike 3.0 License.

The original SVG has the following copyright:

Copyright (C) 2009/2010/2011 Ulrich Apel.
This work is distributed under the conditions of the Creative Commons
Attribution-Share Alike 3.0 Licence. This means you are free:
* to Share - to copy, distribute and transmit the work
* to Remix - to adapt the work

Under the following conditions:
* Attribution. You must attribute the work by stating your use of KanjiVG in
  your own copyright header and linking to KanjiVG's website
  (http://kanjivg.tagaini.net)
* Share Alike. If you alter, transform, or build upon this work, you may
  distribute the resulting work only under the same or similar license to this
  one.

See http://creativecommons.org/licenses/by-sa/3.0/ for more details.
-->
<!DOCTYPE svg PUBLIC "-//W3C//DTD SVG 1.0//EN" "http://www.w3.org/TR/2001/REC-SVG-20010904/DTD/svg10.dtd" [
<!ATTLIST g
xmlns:kvg CDATA #FIXED "http://kanjivg.tagaini.net"
kvg:element CDATA #IMPLIED
kvg:variant CDATA #IMPLIED
kvg:partial CDATA #IMPLIED
kvg:original CDATA #IMPLIED
kvg:part CDATA #IMPLIED
kvg:number CDATA #IMPLIED
kvg:tradForm CDATA #IMPLIED
kvg:radicalForm CDATA #IMPLIED
kvg:position CDATA #IMPLIED
kvg:radical CDATA #IMPLIED
kvg:phon CDATA #IMPLIED >
<!ATTLIST path
xmlns:kvg CDATA #FIXED "http://kanjivg.tagaini.net"
kvg:type CDATA #IMPLIED >
]>
<svg xmlns="http://www.w3.org/2000/svg" width="327" height = "327" viewBox="0 0 327 327">
<g id="kvg:StrokePaths_05287" style="fill:none;stroke:#000000;stroke-width:3;stroke-linecap:round;stroke-linejoin:round;" transform="scale(3.0,3.0)">
<g id="kvg:05287" kvg:element="劇">
	<g id="kvg:05287-g1" kvg:position="left">
		<g id="kvg:05287-g2" kvg:position="tare" kvg:phon="虍+豕">
			<g id="kvg:05287-g3" kvg:element="虍">
				<path style="stroke: #bf0909;" id="kvg:05287-s1" kvg:type="㇑a" d="M38.52,10.83c0.98,0.92,1.51,2.42,1.51,4.52c0,5.9-0.02,8.19-0.02,13.15"/>
				<path style="stroke: #bf5209;" id="kvg:05287-s2" kvg:type="㇐b" d="M41.1,19.52c6.65-0.77,9.65-1.27,13.11-1.88c1.09-0.19,3.04-0.14,4.29,0.11"/>
				<g id="kvg:05287-g4" kvg:element="丿" kvg:radical="nelson">
					<path style="stroke: #bf9a09;" id="kvg:05287-s3" kvg:type="㇒" d="M21.18,32.43c0.7,0.7,1.03,1.7,1.03,2.84c0,22.48-2.95,40.98-11.95,53.39"/>
				</g>
				<path style="stroke: #9abf09;" id="kvg:05287-s4" kvg:type="㇖a" d="M22.74,33.6c1.76-0.22,2.82-0.4,4.38-0.83c9.13-2.51,23.13-5.51,29.7-5.74c10.29-0.36,2.18,6.11-0.38,7.91"/>
				<g id="kvg:05287-g5" kvg:element="七">
					<g id="kvg:05287-g6" kvg:element="一">
						<path style="stroke: #52bf09;" id="kvg:05287-s5" kvg:type="㇐" d="M27,42.52c1.3,0.43,2.96,0.15,4.24-0.07c4.96-0.84,11.52-3.18,16.89-4.43c1.62-0.38,2.62-0.64,4.37-0.5"/>
					</g>
					<path style="stroke: #09bf09;" id="kvg:05287-s6" kvg:type="㇟a" d="M37.25,32.43c0.54,0.54,0.81,1.57,0.81,2.27c0,2.8-0.06,4.55-0.06,7.49c0,3.19,0.88,4.08,6.58,4.08c1.85,0,5.84-0.25,7.43-0.76"/>
				</g>
			</g>
			<g id="kvg:05287-g7" kvg:element="豕">
				<path style="stroke: #09bf52;" id="kvg:05287-s7" kvg:type="㇐" d="M27.7,55.49c1.18,0.26,2.75,0.25,3.55,0.14c5.43-0.71,13.34-2.46,19.4-3.5c1.52-0.26,3.1-0.63,4.5-0.28"/>
				<path style="stroke: #09bf9a;" id="kvg:05287-s8" kvg:type="㇒" d="M39.82,56.74c0.11,0.94-0.21,1.73-0.94,2.38c-2.06,2.41-6.85,6.15-13.75,9.5"/>
				<path style="stroke: #099abf;" id="kvg:05287-s9" kvg:type="㇕v" d="M38.22,62.67c6.86,3.12,12.46,20.56,7.1,33.1c-1.6,3.76-5.93,0.63-6.78,0.03"/>
				<path style="stroke: #0952bf;" id="kvg:05287-s10" kvg:type="㇒" d="M39.62,66.94c0.13,0.88-0.03,1.71-0.63,2.34c-2.74,2.85-8.99,7.85-17.8,12.38"/>
				<path style="stroke: #0909bf;" id="kvg:05287-s11" kvg:type="㇒" d="M43.21,75.11c0.18,1.18-0.52,2.09-1.33,2.98c-3.64,4.02-10.03,8.93-21.4,14.79"/>
				<path style="stroke: #5209bf;" id="kvg:05287-s12" kvg:type="㇒" d="M56.92,57.86c0.08,0.82-0.12,1.57-0.6,2.26c-1.34,2.43-4.66,6.19-8.95,8.64"/>
				<path style="stroke: #9a09bf;" id="kvg:05287-s13" kvg:type="㇔/㇏" d="M48.12,70.25c4.85,2.06,12.17,7.17,15.38,13.25"/>
			</g>
		</g>
	</g>
	<g id="kvg:05287-g8" kvg:element="刂" kvg:variant="true" kvg:original="刀" kvg:position="right" kvg:radical="tradit">
		<path style="stroke: #bf099a;" id="kvg:05287-s14" kvg:type="㇑" d="M71.77,28.08c0.98,0.92,1.76,2.67,1.76,4.52c0,10.59,0.15,21.16,0.05,27.65c-0.04,2.43-0.07,4.4-0.07,5.75"/>
		<path style="stroke: #bf0952;" id="kvg:05287-s15" kvg:type="㇚" d="M88.27,13.83c1.39,1.39,1.76,2.92,1.76,5.02c0,17.4-0.01,64.66-0.01,69.62c0,11.91-7.21,1.5-8.71,0.25"/>
	</g>
</g>
</g>
<g id="kvg:StrokeNumbers_05287" style="font-size:8;fill:#808080" transform="scale(3.0,3.0)">
	<text style="fill: #bf0909;" transform="matrix(1 0 0 1 31.50 12.50)">1</text>
	<text style="fill: #bf5209;" transform="matrix(1 0 0 1 45.50 15.50)">2</text>
	<text style="fill: #bf9a09;" transform="matrix(1 0 0 1 14.25 42.13)">3</text>
	<text style="fill: #9abf09;" transform="matrix(1 0 0 1 23.75 30.13)">4</text>
	<text style="fill: #52bf09;" transform="matrix(1 0 0 1 27.50 40.33)">5</text>
	<text style="fill: #09bf09;" transform="matrix(1 0 0 1 41.50 36.50)">6</text>
	<text style="fill: #09bf52;" transform="matrix(1 0 0 1 27.50 52.50)">7</text>
	<text style="fill: #09bf9a;" transform="matrix(1 0 0 1 26.50 63.50)">8</text>
	<text style="fill: #099abf;" transform="matrix(1 0 0 1 43.50 65.50)">9</text>
	<text style="fill: #0952bf;" transform="matrix(1 0 0 1 23.50 75.50)">10</text>
	<text style="fill: #0909bf;" transform="matrix(1 0 0 1 23.25 87.50)">11</text>
	<text style="fill: #5209bf;" transform="matrix(1 0 0 1 47.50 60.13)">12</text>
	<text style="fill: #9a09bf;" transform="matrix(1 0 0 1 55.50 72.50)">13</text>
	<text style="fill: #bf099a;" transform="matrix(1 0 0 1 65.50 25.50)">14</text>
	<text style="fill: #bf0952;" transform="matrix(1 0 0 1 75.50 14.50)">15</text>
</g>
</svg>
