<?xml version="1.0" encoding="UTF-8"?>
<!--
This file has been modified from the original version by the kanji_colorize.py
script (available at http://github.com/cayennes/kanji-colorize) with these
settings:
    mode: spectrum
    saturation: 0.95
    value: 0.75
    image_size: 327
It remains under a Creative Commons-Attribution-Share Alike 3.0 License.

The original SVG has the following copyright:

Copyright (C) 2009/2010/2011 Ulrich Apel.
This work is distributed under the conditions of the Creative Commons
Attribution-Share Alike 3.0 Licence. This means you are free:
* to Share - to copy, distribute and transmit the work
* to Remix - to adapt the work

Under the following conditions:
* Attribution. You must attribute the work by stating your use of KanjiVG in
  your own copyright header and linking to KanjiVG's website
  (http://kanjivg.tagaini.net)
* Share Alike. If you alter, transform, or build upon this work, you may
  distribute the resulting work only under the same or similar license to this
  one.

See http://creativecommons.org/licenses/by-sa/3.0/ for more details.
-->
<!DOCTYPE svg PUBLIC "-//W3C//DTD SVG 1.0//EN" "http://www.w3.org/TR/2001/REC-SVG-20010904/DTD/svg10.dtd" [
<!ATTLIST g
xmlns:kvg CDATA #FIXED "http://kanjivg.tagaini.net"
kvg:element CDATA #IMPLIED
kvg:variant CDATA #IMPLIED
kvg:partial CDATA #IMPLIED
kvg:original CDATA #IMPLIED
kvg:part CDATA #IMPLIED
kvg:number CDATA #IMPLIED
kvg:tradForm CDATA #IMPLIED
kvg:radicalForm CDATA #IMPLIED
kvg:position CDATA #IMPLIED
kvg:radical CDATA #IMPLIED
kvg:phon CDATA #IMPLIED >
<!ATTLIST path
xmlns:kvg CDATA #FIXED "http://kanjivg.tagaini.net"
kvg:type CDATA #IMPLIED >
]>
<svg xmlns="http://www.w3.org/2000/svg" width="327" height = "327" viewBox="0 0 327 327">
<g id="kvg:StrokePaths_052b4" style="fill:none;stroke:#000000;stroke-width:3;stroke-linecap:round;stroke-linejoin:round;" transform="scale(3.0,3.0)">
<g id="kvg:052b4" kvg:element="労">
	<g id="kvg:052b4-g1" kvg:position="top">
		<g id="kvg:052b4-g2" kvg:element="⺍" kvg:original="つ">
			<path style="stroke: #bf0909;" id="kvg:052b4-s1" kvg:type="㇔" d="M28.59,21.25c4.03,3.23,8.34,8.88,8.92,10.5"/>
			<path style="stroke: #bfa509;" id="kvg:052b4-s2" kvg:type="㇔" d="M48.5,16.12c1.88,2.31,6.4,8.37,7.15,12.12"/>
			<path style="stroke: #3dbf09;" id="kvg:052b4-s3" kvg:type="㇒" d="M79.43,14c0.45,0.88,0.33,1.99-0.22,3c-1.08,2-5.33,8.5-8.54,13"/>
		</g>
		<g id="kvg:052b4-g3" kvg:element="冖">
			<path style="stroke: #09bf71;" id="kvg:052b4-s4" kvg:type="㇔" d="M19.88,39.38c0,3.25-3.52,15.46-4.88,17.62"/>
			<path style="stroke: #0971bf;" id="kvg:052b4-s5" kvg:type="㇖b" d="M20.41,42.75c21.47-2.62,45.47-4.38,66.61-5.5c9.35-0.5,6.48,5.12,0.06,10"/>
		</g>
	</g>
	<g id="kvg:052b4-g4" kvg:element="力" kvg:position="bottom" kvg:radical="general">
		<path style="stroke: #3d09bf;" id="kvg:052b4-s6" kvg:type="㇆" d="M28.94,60.59c1.93,0.54,3.68,0.55,5.56,0.38c13.36-1.26,34.36-3.74,39.03-4.26c3.17-0.35,4.49,2.11,4.12,4.55c-1.03,6.87-9.73,27.89-14.69,32.26C59,97,56.79,92.25,55.51,91.48"/>
		<path style="stroke: #bf09a5;" id="kvg:052b4-s7" kvg:type="㇒" d="M51.97,45.68c0.4,1.32,0.23,2.8-0.19,4.48C48.66,62.64,39.75,84.88,18.5,94.94"/>
	</g>
</g>
</g>
<g id="kvg:StrokeNumbers_052b4" style="font-size:8;fill:#808080" transform="scale(3.0,3.0)">
	<text style="fill: #bf0909;" transform="matrix(1 0 0 1 19.99 19.63)">1</text>
	<text style="fill: #bfa509;" transform="matrix(1 0 0 1 38.25 13.63)">2</text>
	<text style="fill: #3dbf09;" transform="matrix(1 0 0 1 81.49 10.48)">3</text>
	<text style="fill: #09bf71;" transform="matrix(1 0 0 1 9.75 42.13)">4</text>
	<text style="fill: #0971bf;" transform="matrix(1 0 0 1 26.25 37.63)">5</text>
	<text style="fill: #3d09bf;" transform="matrix(1 0 0 1 20.25 63.13)">6</text>
	<text style="fill: #bf09a5;" transform="matrix(1 0 0 1 40.99 52.18)">7</text>
</g>
</svg>
