<?xml version="1.0" encoding="UTF-8"?>
<!--
This file has been modified from the original version by the kanji_colorize.py
script (available at http://github.com/cayennes/kanji-colorize) with these
settings:
    mode: spectrum
    saturation: 0.95
    value: 0.75
    image_size: 327
It remains under a Creative Commons-Attribution-Share Alike 3.0 License.

The original SVG has the following copyright:

Copyright (C) 2009/2010/2011 Ulrich Apel.
This work is distributed under the conditions of the Creative Commons
Attribution-Share Alike 3.0 Licence. This means you are free:
* to Share - to copy, distribute and transmit the work
* to Remix - to adapt the work

Under the following conditions:
* Attribution. You must attribute the work by stating your use of KanjiVG in
  your own copyright header and linking to KanjiVG's website
  (http://kanjivg.tagaini.net)
* Share Alike. If you alter, transform, or build upon this work, you may
  distribute the resulting work only under the same or similar license to this
  one.

See http://creativecommons.org/licenses/by-sa/3.0/ for more details.
-->
<!DOCTYPE svg PUBLIC "-//W3C//DTD SVG 1.0//EN" "http://www.w3.org/TR/2001/REC-SVG-20010904/DTD/svg10.dtd" [
<!ATTLIST g
xmlns:kvg CDATA #FIXED "http://kanjivg.tagaini.net"
kvg:element CDATA #IMPLIED
kvg:variant CDATA #IMPLIED
kvg:partial CDATA #IMPLIED
kvg:original CDATA #IMPLIED
kvg:part CDATA #IMPLIED
kvg:number CDATA #IMPLIED
kvg:tradForm CDATA #IMPLIED
kvg:radicalForm CDATA #IMPLIED
kvg:position CDATA #IMPLIED
kvg:radical CDATA #IMPLIED
kvg:phon CDATA #IMPLIED >
<!ATTLIST path
xmlns:kvg CDATA #FIXED "http://kanjivg.tagaini.net"
kvg:type CDATA #IMPLIED >
]>
<svg xmlns="http://www.w3.org/2000/svg" width="327" height = "327" viewBox="0 0 327 327">
<g id="kvg:StrokePaths_052f8" style="fill:none;stroke:#000000;stroke-width:3;stroke-linecap:round;stroke-linejoin:round;" transform="scale(3.0,3.0)">
<g id="kvg:052f8" kvg:element="勸">
	<g id="kvg:052f8-g1" kvg:position="left">
		<g id="kvg:052f8-g2" kvg:element="艹" kvg:variant="true" kvg:original="艸" kvg:position="top">
			<path style="stroke: #bf0909;" id="kvg:052f8-s1" kvg:type="㇐" d="M12,23.23c0.86,0.35,1.87,0.42,2.74,0.35c7.95-0.64,31.32-3.98,40.49-4.03c1.44-0.01,2.31,0.17,3.03,0.34"/>
			<path style="stroke: #bf4209;" id="kvg:052f8-s2" kvg:type="㇑a" d="M25.6,14.2c0.84,0.86,1.11,1.12,1.2,1.65c0.84,4.96,1.06,10.07,1.3,11.87"/>
			<path style="stroke: #bf7c09;" id="kvg:052f8-s3" kvg:type="㇑a" d="M44.69,11.78c0.15,0.73,0.34,1.27,0.18,2.16c-0.97,5.24-1.42,7.86-2.48,12.79"/>
		</g>
		<g id="kvg:052f8-g3" kvg:position="bottom">
			<g id="kvg:052f8-g4" kvg:element="口">
				<path style="stroke: #bfb509;" id="kvg:052f8-s4" kvg:type="㇑" d="M14.75,33.02c0.25,0.24,0.5,0.43,0.61,0.73c0.86,2.34,1.9,8.8,2.49,13"/>
				<path style="stroke: #8fbf09;" id="kvg:052f8-s5" kvg:type="㇕b" d="M16.3,34.61c5.1-1.22,11.31-2.07,14.23-2.38c1.07-0.11,1.71,0.67,1.56,1.33c-0.63,2.73-1.37,5.54-2.31,9.32"/>
				<path style="stroke: #56bf09;" id="kvg:052f8-s6" kvg:type="㇐b" d="M17.97,44.7c3.43-0.35,9.16-1.45,13.87-1.98"/>
			</g>
			<g id="kvg:052f8-g5" kvg:element="口">
				<path style="stroke: #1cbf09;" id="kvg:052f8-s7" kvg:type="㇑" d="M39.25,30.57c0.24,0.24,0.48,0.45,0.59,0.75c0.83,2.42,1.82,8.09,2.38,12.43"/>
				<path style="stroke: #09bf2f;" id="kvg:052f8-s8" kvg:type="㇕b" d="M40.74,32.21c4.88-1.26,10.82-2.16,13.61-2.47c1.02-0.12,1.63,0.69,1.49,1.37c-0.61,2.83-1.31,4.74-2.21,8.64"/>
				<path style="stroke: #09bf69;" id="kvg:052f8-s9" kvg:type="㇐b" d="M42.33,41.63c3.28-0.36,7.81-0.98,12.31-1.53"/>
			</g>
			<g id="kvg:052f8-g6" kvg:element="隹">
				<g id="kvg:052f8-g7" kvg:element="亻" kvg:variant="true" kvg:original="人">
					<path style="stroke: #09bfa2;" id="kvg:052f8-s10" kvg:type="㇒" d="M25.68,48.5c0.15,1.02-0.04,2.35-0.54,3.22c-3.16,5.56-7.16,10.27-14.39,17.03"/>
					<path style="stroke: #09a2bf;" id="kvg:052f8-s11" kvg:type="㇑" d="M21.92,57.71c0.52,0.56,0.92,1.8,0.96,2.67c0.31,7.78-0.43,32.82-0.17,36.87"/>
				</g>
				<path style="stroke: #0969bf;" id="kvg:052f8-s12" kvg:type="㇒" d="M41.08,46.75c0.04,0.45-0.01,1.05-0.15,1.44c-0.85,2.48-1.93,4.4-3.89,7.41"/>
				<path style="stroke: #092fbf;" id="kvg:052f8-s13" kvg:type="㇐b" d="M22.73,57.88c6.07-0.73,29.16-2.87,31.76-3.27"/>
				<path style="stroke: #1c09bf;" id="kvg:052f8-s14" kvg:type="㇑a" d="M37.96,56.87c0.29,0.29,0.53,0.68,0.53,1.18c0,5.05,0.03,23.1-0.15,31.05"/>
				<path style="stroke: #5609bf;" id="kvg:052f8-s15" kvg:type="㇐b" d="M23.54,67.95c5.72-0.61,26-2.87,28.46-3.2"/>
				<path style="stroke: #8f09bf;" id="kvg:052f8-s16" kvg:type="㇐b" d="M23.35,78.19c6.04-0.51,26.87-2.05,29.47-2.33"/>
				<path style="stroke: #bf09b5;" id="kvg:052f8-s17" kvg:type="㇐b" d="M22.85,90.78c6.07-0.73,30.3-3.13,32.9-3.53"/>
			</g>
		</g>
	</g>
	<g id="kvg:052f8-g8" kvg:element="力" kvg:position="right" kvg:radical="general">
		<path style="stroke: #bf097c;" id="kvg:052f8-s18" kvg:type="㇆" d="M60.71,41.57c0.91,0.4,2.05,0.35,2.84,0.22c6.46-1.12,24.53-4.1,28.11-4.51c2.33-0.27,3.04,1.21,2.85,3.09C93,55,88.75,77,81.9,91.43c-1.98,4.16-5.4,1.32-7.22-0.9"/>
		<path style="stroke: #bf0942;" id="kvg:052f8-s19" kvg:type="㇒" d="M75.92,15.93c0.58,1.07,0.96,2.26,0.93,3.52C76.5,34.25,71.25,70,55.5,93.5"/>
	</g>
</g>
</g>
<g id="kvg:StrokeNumbers_052f8" style="font-size:8;fill:#808080" transform="scale(3.0,3.0)">
	<text style="fill: #bf0909;" transform="matrix(1 0 0 1 5.25 24.50)">1</text>
	<text style="fill: #bf4209;" transform="matrix(1 0 0 1 16.50 15.55)">2</text>
	<text style="fill: #bf7c09;" transform="matrix(1 0 0 1 36.50 12.50)">3</text>
	<text style="fill: #bfb509;" transform="matrix(1 0 0 1 9.25 39.50)">4</text>
	<text style="fill: #8fbf09;" transform="matrix(1 0 0 1 17.50 31.50)">5</text>
	<text style="fill: #56bf09;" transform="matrix(1 0 0 1 20.25 41.50)">6</text>
	<text style="fill: #1cbf09;" transform="matrix(1 0 0 1 35.50 39.50)">7</text>
	<text style="fill: #09bf2f;" transform="matrix(1 0 0 1 45.25 28.50)">8</text>
	<text style="fill: #09bf69;" transform="matrix(1 0 0 1 44.50 39.50)">9</text>
	<text style="fill: #09bfa2;" transform="matrix(1 0 0 1 13.25 55.50)">10</text>
	<text style="fill: #09a2bf;" transform="matrix(1 0 0 1 13.50 72.88)">11</text>
	<text style="fill: #0969bf;" transform="matrix(1 0 0 1 32.50 48.80)">12</text>
	<text style="fill: #092fbf;" transform="matrix(1 0 0 1 28.50 54.50)">13</text>
	<text style="fill: #1c09bf;" transform="matrix(1 0 0 1 40.25 62.65)">14</text>
	<text style="fill: #5609bf;" transform="matrix(1 0 0 1 26.50 65.50)">15</text>
	<text style="fill: #8f09bf;" transform="matrix(1 0 0 1 26.50 75.50)">16</text>
	<text style="fill: #bf09b5;" transform="matrix(1 0 0 1 26.50 87.50)">17</text>
	<text style="fill: #bf097c;" transform="matrix(1 0 0 1 58.50 38.50)">18</text>
	<text style="fill: #bf0942;" transform="matrix(1 0 0 1 63.25 15.50)">19</text>
</g>
</svg>
