<?xml version="1.0" encoding="UTF-8"?>
<!--
This file has been modified from the original version by the kanji_colorize.py
script (available at http://github.com/cayennes/kanji-colorize) with these
settings:
    mode: spectrum
    saturation: 0.95
    value: 0.75
    image_size: 327
It remains under a Creative Commons-Attribution-Share Alike 3.0 License.

The original SVG has the following copyright:

Copyright (C) 2009/2010/2011 Ulrich Apel.
This work is distributed under the conditions of the Creative Commons
Attribution-Share Alike 3.0 Licence. This means you are free:
* to Share - to copy, distribute and transmit the work
* to Remix - to adapt the work

Under the following conditions:
* Attribution. You must attribute the work by stating your use of KanjiVG in
  your own copyright header and linking to KanjiVG's website
  (http://kanjivg.tagaini.net)
* Share Alike. If you alter, transform, or build upon this work, you may
  distribute the resulting work only under the same or similar license to this
  one.

See http://creativecommons.org/licenses/by-sa/3.0/ for more details.
-->
<!DOCTYPE svg PUBLIC "-//W3C//DTD SVG 1.0//EN" "http://www.w3.org/TR/2001/REC-SVG-20010904/DTD/svg10.dtd" [
<!ATTLIST g
xmlns:kvg CDATA #FIXED "http://kanjivg.tagaini.net"
kvg:element CDATA #IMPLIED
kvg:variant CDATA #IMPLIED
kvg:partial CDATA #IMPLIED
kvg:original CDATA #IMPLIED
kvg:part CDATA #IMPLIED
kvg:number CDATA #IMPLIED
kvg:tradForm CDATA #IMPLIED
kvg:radicalForm CDATA #IMPLIED
kvg:position CDATA #IMPLIED
kvg:radical CDATA #IMPLIED
kvg:phon CDATA #IMPLIED >
<!ATTLIST path
xmlns:kvg CDATA #FIXED "http://kanjivg.tagaini.net"
kvg:type CDATA #IMPLIED >
]>
<svg xmlns="http://www.w3.org/2000/svg" width="327" height = "327" viewBox="0 0 327 327">
<g id="kvg:StrokePaths_053c2" style="fill:none;stroke:#000000;stroke-width:3;stroke-linecap:round;stroke-linejoin:round;" transform="scale(3.0,3.0)">
<g id="kvg:053c2" kvg:element="参">
	<g id="kvg:053c2-g1" kvg:element="厶" kvg:position="top" kvg:radical="general">
		<path style="stroke: #bf0909;" id="kvg:053c2-s1" kvg:type="㇜" d="M50.93,9c0.19,0.75,0,2.05-0.39,2.49c-5.79,6.39-13.29,12.01-19.28,16.45c-2.11,1.56-1.69,3.23,1.53,2.64C44.12,28.5,58.88,25.75,69,23.75"/>
		<path style="stroke: #bf9109;" id="kvg:053c2-s2" kvg:type="㇔" d="M62.75,17.8c4.09,2.01,10.57,8.28,11.59,11.42"/>
	</g>
	<g id="kvg:053c2-g2" kvg:position="bottom">
		<g id="kvg:053c2-g3" kvg:element="大">
			<path style="stroke: #64bf09;" id="kvg:053c2-s3" kvg:type="㇐" d="M14.07,45.9c2.59,0.65,5.97,0.62,7.86,0.38C39.88,43.98,63,42.19,80.56,41.2c2.35-0.13,6.03,0.08,8.62,0.67"/>
			<path style="stroke: #09bf36;" id="kvg:053c2-s4" kvg:type="㇒" d="M48.12,31.88c0.48,1.07,0.64,1.98,0.3,3.16C43.38,52.5,28.38,65.62,13.75,74.08"/>
			<path style="stroke: #09bfbf;" id="kvg:053c2-s5" kvg:type="㇏" d="M55.34,43.36c6.71,6.04,20.28,19.26,28.7,25.57c2.32,1.74,4.46,3.32,7.46,4.19"/>
		</g>
		<g id="kvg:053c2-g4" kvg:element="彡">
			<g id="kvg:053c2-g5" kvg:element="丿">
				<path style="stroke: #0936bf;" id="kvg:053c2-s6" kvg:type="㇒" d="M54.35,53.75c0.06,0.4-0.27,1.34-0.6,1.87c-2.2,3.45-8.73,10.76-20.51,14.89"/>
			</g>
			<g id="kvg:053c2-g6" kvg:element="丿">
				<path style="stroke: #6409bf;" id="kvg:053c2-s7" kvg:type="㇒" d="M61.09,66.14c0.07,0.35-0.24,1.21-0.63,1.66c-2.66,3.1-10.96,10.14-24.34,13.57"/>
			</g>
			<g id="kvg:053c2-g7" kvg:element="丿">
				<path style="stroke: #bf0991;" id="kvg:053c2-s8" kvg:type="㇒" d="M69.15,76c0.11,0.54-0.26,1.38-0.72,2.16C65.71,82.7,50.09,92.65,28.7,98.75"/>
			</g>
		</g>
	</g>
</g>
</g>
<g id="kvg:StrokeNumbers_053c2" style="font-size:8;fill:#808080" transform="scale(3.0,3.0)">
	<text style="fill: #bf0909;" transform="matrix(1 0 0 1 43.50 8.50)">1</text>
	<text style="fill: #bf9109;" transform="matrix(1 0 0 1 64.25 15.13)">2</text>
	<text style="fill: #64bf09;" transform="matrix(1 0 0 1 6.50 47.63)">3</text>
	<text style="fill: #09bf36;" transform="matrix(1 0 0 1 39.50 39.50)">4</text>
	<text style="fill: #09bfbf;" transform="matrix(1 0 0 1 68.50 52.33)">5</text>
	<text style="fill: #0936bf;" transform="matrix(1 0 0 1 45.50 55.50)">6</text>
	<text style="fill: #6409bf;" transform="matrix(1 0 0 1 52.50 68.50)">7</text>
	<text style="fill: #bf0991;" transform="matrix(1 0 0 1 60.50 79.50)">8</text>
</g>
</svg>
