<?xml version="1.0" encoding="UTF-8"?>
<!--
This file has been modified from the original version by the kanji_colorize.py
script (available at http://github.com/cayennes/kanji-colorize) with these
settings:
    mode: spectrum
    saturation: 0.95
    value: 0.75
    image_size: 327
It remains under a Creative Commons-Attribution-Share Alike 3.0 License.

The original SVG has the following copyright:

Copyright (C) 2009/2010/2011 Ulrich Apel.
This work is distributed under the conditions of the Creative Commons
Attribution-Share Alike 3.0 Licence. This means you are free:
* to Share - to copy, distribute and transmit the work
* to Remix - to adapt the work

Under the following conditions:
* Attribution. You must attribute the work by stating your use of KanjiVG in
  your own copyright header and linking to KanjiVG's website
  (http://kanjivg.tagaini.net)
* Share Alike. If you alter, transform, or build upon this work, you may
  distribute the resulting work only under the same or similar license to this
  one.

See http://creativecommons.org/licenses/by-sa/3.0/ for more details.
-->
<!DOCTYPE svg PUBLIC "-//W3C//DTD SVG 1.0//EN" "http://www.w3.org/TR/2001/REC-SVG-20010904/DTD/svg10.dtd" [
<!ATTLIST g
xmlns:kvg CDATA #FIXED "http://kanjivg.tagaini.net"
kvg:element CDATA #IMPLIED
kvg:variant CDATA #IMPLIED
kvg:partial CDATA #IMPLIED
kvg:original CDATA #IMPLIED
kvg:part CDATA #IMPLIED
kvg:number CDATA #IMPLIED
kvg:tradForm CDATA #IMPLIED
kvg:radicalForm CDATA #IMPLIED
kvg:position CDATA #IMPLIED
kvg:radical CDATA #IMPLIED
kvg:phon CDATA #IMPLIED >
<!ATTLIST path
xmlns:kvg CDATA #FIXED "http://kanjivg.tagaini.net"
kvg:type CDATA #IMPLIED >
]>
<svg xmlns="http://www.w3.org/2000/svg" width="327" height = "327" viewBox="0 0 327 327">
<g id="kvg:StrokePaths_053d7" style="fill:none;stroke:#000000;stroke-width:3;stroke-linecap:round;stroke-linejoin:round;" transform="scale(3.0,3.0)">
<g id="kvg:053d7" kvg:element="受">
	<g id="kvg:053d7-g1" kvg:position="top">
		<g id="kvg:053d7-g2" kvg:element="⺤" kvg:variant="true" kvg:original="爪" kvg:radical="nelson">
			<path style="stroke: #bf0909;" id="kvg:053d7-s1" kvg:type="㇒" d="M63.22,12.14c-0.1,1.11-0.91,1.89-1.75,2.37c-4.97,2.86-17.09,7.23-30.97,9.73"/>
			<path style="stroke: #bf9109;" id="kvg:053d7-s2" kvg:type="㇔" d="M26.88,29.88c2.45,1.74,6.07,7.14,6.68,9.84"/>
			<path style="stroke: #64bf09;" id="kvg:053d7-s3" kvg:type="㇔" d="M48.02,26.33c2.22,1.61,5.74,6.63,6.29,9.13"/>
			<path style="stroke: #09bf36;" id="kvg:053d7-s4" kvg:type="㇒" d="M76.87,20.5c0.1,1.04-0.04,1.63-0.54,2.57c-1.93,3.61-6.62,8.75-13.27,14.15"/>
		</g>
		<g id="kvg:053d7-g3" kvg:element="冖" kvg:phon="舟T">
			<path style="stroke: #09bfbf;" id="kvg:053d7-s5" kvg:type="㇔" d="M19.75,46.38c-0.13,4.29-2.12,12.88-3.73,16.7"/>
			<path style="stroke: #0936bf;" id="kvg:053d7-s6" kvg:type="㇖b" d="M21.28,46.49c20.74-3.18,46.58-6.31,65.72-7.51c7.75-0.48,2.75,5.64-1.66,9.9"/>
		</g>
	</g>
	<g id="kvg:053d7-g4" kvg:element="又" kvg:position="bottom" kvg:radical="tradit">
		<path style="stroke: #6409bf;" id="kvg:053d7-s7" kvg:type="㇇" d="M34.69,58.71c1.75,0.3,1.96,0.75,5.45,0.3c3.49-0.45,25.88-5.36,28.23-6.05c3.25-0.96,5,1.04,3.02,4.3C59.95,76.11,42.29,90.89,22.65,98.25"/>
		<path style="stroke: #bf0991;" id="kvg:053d7-s8" kvg:type="㇏" d="M32.69,66.91c7.13,0.21,29.06,19.34,46.64,29.15c2.61,1.46,4.67,2.14,7.18,2.57"/>
	</g>
</g>
</g>
<g id="kvg:StrokeNumbers_053d7" style="font-size:8;fill:#808080" transform="scale(3.0,3.0)">
	<text style="fill: #bf0909;" transform="matrix(1 0 0 1 63.75 9.13)">1</text>
	<text style="fill: #bf9109;" transform="matrix(1 0 0 1 20.00 34.50)">2</text>
	<text style="fill: #64bf09;" transform="matrix(1 0 0 1 41.50 33.50)">3</text>
	<text style="fill: #09bf36;" transform="matrix(1 0 0 1 80.25 18.13)">4</text>
	<text style="fill: #09bfbf;" transform="matrix(1 0 0 1 11.25 52.63)">5</text>
	<text style="fill: #0936bf;" transform="matrix(1 0 0 1 24.75 54.13)">6</text>
	<text style="fill: #6409bf;" transform="matrix(1 0 0 1 38.25 55.97)">7</text>
	<text style="fill: #bf0991;" transform="matrix(1 0 0 1 42.75 69.13)">8</text>
</g>
</svg>
