<?xml version="1.0" encoding="UTF-8"?>
<!--
This file has been modified from the original version by the kanji_colorize.py
script (available at http://github.com/cayennes/kanji-colorize) with these
settings:
    mode: spectrum
    saturation: 0.95
    value: 0.75
    image_size: 327
It remains under a Creative Commons-Attribution-Share Alike 3.0 License.

The original SVG has the following copyright:

Copyright (C) 2009/2010/2011 Ulrich Apel.
This work is distributed under the conditions of the Creative Commons
Attribution-Share Alike 3.0 Licence. This means you are free:
* to Share - to copy, distribute and transmit the work
* to Remix - to adapt the work

Under the following conditions:
* Attribution. You must attribute the work by stating your use of KanjiVG in
  your own copyright header and linking to KanjiVG's website
  (http://kanjivg.tagaini.net)
* Share Alike. If you alter, transform, or build upon this work, you may
  distribute the resulting work only under the same or similar license to this
  one.

See http://creativecommons.org/licenses/by-sa/3.0/ for more details.
-->
<!DOCTYPE svg PUBLIC "-//W3C//DTD SVG 1.0//EN" "http://www.w3.org/TR/2001/REC-SVG-20010904/DTD/svg10.dtd" [
<!ATTLIST g
xmlns:kvg CDATA #FIXED "http://kanjivg.tagaini.net"
kvg:element CDATA #IMPLIED
kvg:variant CDATA #IMPLIED
kvg:partial CDATA #IMPLIED
kvg:original CDATA #IMPLIED
kvg:part CDATA #IMPLIED
kvg:number CDATA #IMPLIED
kvg:tradForm CDATA #IMPLIED
kvg:radicalForm CDATA #IMPLIED
kvg:position CDATA #IMPLIED
kvg:radical CDATA #IMPLIED
kvg:phon CDATA #IMPLIED >
<!ATTLIST path
xmlns:kvg CDATA #FIXED "http://kanjivg.tagaini.net"
kvg:type CDATA #IMPLIED >
]>
<svg xmlns="http://www.w3.org/2000/svg" width="327" height = "327" viewBox="0 0 327 327">
<g id="kvg:StrokePaths_053d6" style="fill:none;stroke:#000000;stroke-width:3;stroke-linecap:round;stroke-linejoin:round;" transform="scale(3.0,3.0)">
<g id="kvg:053d6" kvg:element="取">
	<g id="kvg:053d6-g1" kvg:element="耳" kvg:position="left" kvg:radical="nelson">
		<path style="stroke: #bf0909;" id="kvg:053d6-s1" kvg:type="㇐" d="M10.19,19.97c1.27,0.43,3.6,0.61,4.87,0.43c8.02-1.15,23.87-2.9,33.37-3.64c2.11-0.17,3.39,0.2,4.45,0.42"/>
		<path style="stroke: #bf9109;" id="kvg:053d6-s2" kvg:type="㇑a" d="M19.93,23.07c0.88,0.88,1.28,2.33,1.28,3.72s-0.16,42.55-0.16,47.54"/>
		<path style="stroke: #64bf09;" id="kvg:053d6-s3" kvg:type="㇐a" d="M22.55,37.73c9.2-1.73,10.95-1.98,19.08-2.83"/>
		<path style="stroke: #09bf36;" id="kvg:053d6-s4" kvg:type="㇐a" d="M22.24,54.2c7.51-1.2,10.51-1.7,19.67-2.55"/>
		<path style="stroke: #09bfbf;" id="kvg:053d6-s5" kvg:type="㇀" d="M10.7,77.55c1.3,0.7,2.55,0.58,3.99,0.11c7.07-2.3,26.66-8.82,32.69-10.82"/>
		<path style="stroke: #0936bf;" id="kvg:053d6-s6" kvg:type="㇑" d="M41.25,20.5c1.06,1.06,1.6,2.21,1.6,3.6c0,1.2,0.12,45.77,0.15,65.27c0,3.1,0.01,5.57,0.01,7.12"/>
	</g>
	<g id="kvg:053d6-g2" kvg:element="又" kvg:position="right" kvg:radical="tradit">
		<path style="stroke: #6409bf;" id="kvg:053d6-s7" kvg:type="㇇" d="M55.48,35.58c1.31,0.36,2.7,0.5,5.35,0.11c4.8-0.69,18.69-4.63,20.52-5.08c2.52-0.61,4.27,1.14,3.46,4.01C77.95,58.81,67.62,76,49.5,86"/>
		<path style="stroke: #bf0991;" id="kvg:053d6-s8" kvg:type="㇏" d="M52.19,45.05c4.28,0.67,20.92,23.2,35.28,35.86c2.2,1.94,4.4,3.84,7.4,5.09"/>
	</g>
</g>
</g>
<g id="kvg:StrokeNumbers_053d6" style="font-size:8;fill:#808080" transform="scale(3.0,3.0)">
	<text style="fill: #bf0909;" transform="matrix(1 0 0 1 3.75 21.13)">1</text>
	<text style="fill: #bf9109;" transform="matrix(1 0 0 1 13.50 31.94)">2</text>
	<text style="fill: #64bf09;" transform="matrix(1 0 0 1 24.50 33.13)">3</text>
	<text style="fill: #09bf36;" transform="matrix(1 0 0 1 25.50 50.50)">4</text>
	<text style="fill: #09bfbf;" transform="matrix(1 0 0 1 2.50 80.50)">5</text>
	<text style="fill: #0936bf;" transform="matrix(1 0 0 1 35.50 28.50)">6</text>
	<text style="fill: #6409bf;" transform="matrix(1 0 0 1 49.50 35.50)">7</text>
	<text style="fill: #bf0991;" transform="matrix(1 0 0 1 58.50 47.50)">8</text>
</g>
</svg>
