<?xml version="1.0" encoding="UTF-8"?>
<!--
This file has been modified from the original version by the kanji_colorize.py
script (available at http://github.com/cayennes/kanji-colorize) with these
settings:
    mode: spectrum
    saturation: 0.95
    value: 0.75
    image_size: 327
It remains under a Creative Commons-Attribution-Share Alike 3.0 License.

The original SVG has the following copyright:

Copyright (C) 2009/2010/2011 Ulrich Apel.
This work is distributed under the conditions of the Creative Commons
Attribution-Share Alike 3.0 Licence. This means you are free:
* to Share - to copy, distribute and transmit the work
* to Remix - to adapt the work

Under the following conditions:
* Attribution. You must attribute the work by stating your use of KanjiVG in
  your own copyright header and linking to KanjiVG's website
  (http://kanjivg.tagaini.net)
* Share Alike. If you alter, transform, or build upon this work, you may
  distribute the resulting work only under the same or similar license to this
  one.

See http://creativecommons.org/licenses/by-sa/3.0/ for more details.
-->
<!DOCTYPE svg PUBLIC "-//W3C//DTD SVG 1.0//EN" "http://www.w3.org/TR/2001/REC-SVG-20010904/DTD/svg10.dtd" [
<!ATTLIST g
xmlns:kvg CDATA #FIXED "http://kanjivg.tagaini.net"
kvg:element CDATA #IMPLIED
kvg:variant CDATA #IMPLIED
kvg:partial CDATA #IMPLIED
kvg:original CDATA #IMPLIED
kvg:part CDATA #IMPLIED
kvg:number CDATA #IMPLIED
kvg:tradForm CDATA #IMPLIED
kvg:radicalForm CDATA #IMPLIED
kvg:position CDATA #IMPLIED
kvg:radical CDATA #IMPLIED
kvg:phon CDATA #IMPLIED >
<!ATTLIST path
xmlns:kvg CDATA #FIXED "http://kanjivg.tagaini.net"
kvg:type CDATA #IMPLIED >
]>
<svg xmlns="http://www.w3.org/2000/svg" width="327" height = "327" viewBox="0 0 327 327">
<g id="kvg:StrokePaths_0542c" style="fill:none;stroke:#000000;stroke-width:3;stroke-linecap:round;stroke-linejoin:round;" transform="scale(3.0,3.0)">
<g id="kvg:0542c" kvg:element="听">
	<g id="kvg:0542c-g1" kvg:element="口" kvg:position="left" kvg:radical="general">
		<path style="stroke: #bf0909;" id="kvg:0542c-s1" kvg:type="㇑" d="M10.25,33.29c0.37,0.51,0.76,0.94,0.92,1.58c1.29,5.07,3.34,18.54,4.23,27.63"/>
		<path style="stroke: #bfa509;" id="kvg:0542c-s2" kvg:type="㇕b" d="M12.58,35.72c9.42-2.22,16.55-3.56,20.92-4.23c1.6-0.24,2.56,1.44,2.33,2.87c-0.95,5.92-3.05,13.07-4.46,21.25"/>
		<path style="stroke: #3dbf09;" id="kvg:0542c-s3" kvg:type="㇐b" d="M15.57,58.55c5.14-0.75,11.33-1.05,18.39-2.21"/>
	</g>
	<g id="kvg:0542c-g2" kvg:element="斤" kvg:position="right">
		<path style="stroke: #09bf71;" id="kvg:0542c-s4" kvg:type="㇒" d="M82.77,11.5c0.08,0.37,0.33,1.09-0.16,1.48c-6.71,5.43-15.28,9.54-29.42,14.21"/>
		<path style="stroke: #0971bf;" id="kvg:0542c-s5" kvg:type="㇒" d="M49.42,25.33c1.02,1.96,1,3.84,1,5.98c0,21.16-0.42,44.94-14.62,57.71"/>
		<path style="stroke: #3d09bf;" id="kvg:0542c-s6" kvg:type="㇐" d="M52.59,45.35c0.53,0.2,2.63,0.34,4.04,0.12c7.81-1.26,25.44-3.59,34.33-4.21c1.43-0.1,3.9-0.2,4.79,0"/>
		<path style="stroke: #bf09a5;" id="kvg:0542c-s7" kvg:type="㇑" d="M73.18,45.98c0.94,0.63,1.5,2.84,1.69,4.1c0.19,1.26,0,40.54-0.19,48.42"/>
	</g>
</g>
</g>
<g id="kvg:StrokeNumbers_0542c" style="font-size:8;fill:#808080" transform="scale(3.0,3.0)">
	<text style="fill: #bf0909;" transform="matrix(1 0 0 1 6.35 43.35)">1</text>
	<text style="fill: #bfa509;" transform="matrix(1 0 0 1 15.66 31.85)">2</text>
	<text style="fill: #3dbf09;" transform="matrix(1 0 0 1 18.71 54.50)">3</text>
	<text style="fill: #09bf71;" transform="matrix(1 0 0 1 73.50 11.40)">4</text>
	<text style="fill: #0971bf;" transform="matrix(1 0 0 1 42.25 32.33)">5</text>
	<text style="fill: #3d09bf;" transform="matrix(1 0 0 1 55.50 41.50)">6</text>
	<text style="fill: #bf09a5;" transform="matrix(1 0 0 1 66.50 53.50)">7</text>
</g>
</svg>
