<?xml version="1.0" encoding="UTF-8"?>
<!--
This file has been modified from the original version by the kanji_colorize.py
script (available at http://github.com/cayennes/kanji-colorize) with these
settings:
    mode: spectrum
    saturation: 0.95
    value: 0.75
    image_size: 327
It remains under a Creative Commons-Attribution-Share Alike 3.0 License.

The original SVG has the following copyright:

Copyright (C) 2009/2010/2011 Ulrich Apel.
This work is distributed under the conditions of the Creative Commons
Attribution-Share Alike 3.0 Licence. This means you are free:
* to Share - to copy, distribute and transmit the work
* to Remix - to adapt the work

Under the following conditions:
* Attribution. You must attribute the work by stating your use of KanjiVG in
  your own copyright header and linking to KanjiVG's website
  (http://kanjivg.tagaini.net)
* Share Alike. If you alter, transform, or build upon this work, you may
  distribute the resulting work only under the same or similar license to this
  one.

See http://creativecommons.org/licenses/by-sa/3.0/ for more details.
-->
<!DOCTYPE svg PUBLIC "-//W3C//DTD SVG 1.0//EN" "http://www.w3.org/TR/2001/REC-SVG-20010904/DTD/svg10.dtd" [
<!ATTLIST g
xmlns:kvg CDATA #FIXED "http://kanjivg.tagaini.net"
kvg:element CDATA #IMPLIED
kvg:variant CDATA #IMPLIED
kvg:partial CDATA #IMPLIED
kvg:original CDATA #IMPLIED
kvg:part CDATA #IMPLIED
kvg:number CDATA #IMPLIED
kvg:tradForm CDATA #IMPLIED
kvg:radicalForm CDATA #IMPLIED
kvg:position CDATA #IMPLIED
kvg:radical CDATA #IMPLIED
kvg:phon CDATA #IMPLIED >
<!ATTLIST path
xmlns:kvg CDATA #FIXED "http://kanjivg.tagaini.net"
kvg:type CDATA #IMPLIED >
]>
<svg xmlns="http://www.w3.org/2000/svg" width="327" height = "327" viewBox="0 0 327 327">
<g id="kvg:StrokePaths_0542b" style="fill:none;stroke:#000000;stroke-width:3;stroke-linecap:round;stroke-linejoin:round;" transform="scale(3.0,3.0)">
<g id="kvg:0542b" kvg:element="含">
	<g id="kvg:0542b-g1" kvg:element="今" kvg:position="top" kvg:phon="今">
		<g id="kvg:0542b-g2" kvg:element="人" kvg:position="top" kvg:radical="nelson">
			<path style="stroke: #bf0909;" id="kvg:0542b-s1" kvg:type="㇒" d="M53.17,11.25c0.1,1.09,0.01,2.92-0.71,4.39C47.5,25.75,35,43.64,14.5,57.86"/>
			<path style="stroke: #bfa509;" id="kvg:0542b-s2" kvg:type="㇏" d="M54.16,17.65C60,23.62,73.5,36.25,84.31,45.7c3.28,2.87,7.31,5.3,11.69,7.05"/>
		</g>
		<g id="kvg:0542b-g3" kvg:position="bottom">
			<g id="kvg:0542b-g4" kvg:element="一">
				<path style="stroke: #3dbf09;" id="kvg:0542b-s3" kvg:type="㇐" d="M40.48,41.84c0.38,0.18,2.71,0.19,3.1,0.18c3.97-0.2,14.8-2.04,18.71-2.02c0.63,0,3.29,0.08,3.61,0.17"/>
			</g>
			<path style="stroke: #09bf71;" id="kvg:0542b-s4" kvg:type="㇖" d="M30.5,55.24c1.5,0.51,4.06,0.73,6.5,0.5C45,55,58.25,53,67.24,51.88c4.02-0.5,5.04,0.73,2.26,3.87c-5.75,6.5-8.75,9.12-18,18.75"/>
		</g>
	</g>
	<g id="kvg:0542b-g5" kvg:element="口" kvg:position="bottom" kvg:radical="tradit">
		<path style="stroke: #0971bf;" id="kvg:0542b-s5" kvg:type="㇑" d="M33.68,75.7c0.98,0.97,1.6,1.87,1.88,3.17c1.07,5.01,2.24,9.46,3.06,14.87c0.31,2.01,0.59,3.97,0.83,5.73"/>
		<path style="stroke: #3d09bf;" id="kvg:0542b-s6" kvg:type="㇕b" d="M36.31,77.37c9.36-1.42,25.15-3.24,32.44-4.07c4.69-0.53,6.02,1.16,4.59,5.6c-1.47,4.59-2.29,8.11-4.14,14.74"/>
		<path style="stroke: #bf09a5;" id="kvg:0542b-s7" kvg:type="㇐b" d="M40.37,97.48c5-0.53,17.06-1.66,25.89-2.43c2.26-0.2,4.28-0.37,5.91-0.51"/>
	</g>
</g>
</g>
<g id="kvg:StrokeNumbers_0542b" style="font-size:8;fill:#808080" transform="scale(3.0,3.0)">
	<text style="fill: #bf0909;" transform="matrix(1 0 0 1 42.75 16.63)">1</text>
	<text style="fill: #bfa509;" transform="matrix(1 0 0 1 65.25 21.13)">2</text>
	<text style="fill: #3dbf09;" transform="matrix(1 0 0 1 47.25 37.55)">3</text>
	<text style="fill: #09bf71;" transform="matrix(1 0 0 1 35.25 52.48)">4</text>
	<text style="fill: #0971bf;" transform="matrix(1 0 0 1 27.75 83.90)">5</text>
	<text style="fill: #3d09bf;" transform="matrix(1 0 0 1 39.75 72.13)">6</text>
	<text style="fill: #bf09a5;" transform="matrix(1 0 0 1 44.25 94.55)">7</text>
</g>
</svg>
