<?xml version="1.0" encoding="UTF-8"?>
<!--
This file has been modified from the original version by the kanji_colorize.py
script (available at http://github.com/cayennes/kanji-colorize) with these
settings:
    mode: spectrum
    saturation: 0.95
    value: 0.75
    image_size: 327
It remains under a Creative Commons-Attribution-Share Alike 3.0 License.

The original SVG has the following copyright:

Copyright (C) 2009/2010/2011 Ulrich Apel.
This work is distributed under the conditions of the Creative Commons
Attribution-Share Alike 3.0 Licence. This means you are free:
* to Share - to copy, distribute and transmit the work
* to Remix - to adapt the work

Under the following conditions:
* Attribution. You must attribute the work by stating your use of KanjiVG in
  your own copyright header and linking to KanjiVG's website
  (http://kanjivg.tagaini.net)
* Share Alike. If you alter, transform, or build upon this work, you may
  distribute the resulting work only under the same or similar license to this
  one.

See http://creativecommons.org/licenses/by-sa/3.0/ for more details.
-->
<!DOCTYPE svg PUBLIC "-//W3C//DTD SVG 1.0//EN" "http://www.w3.org/TR/2001/REC-SVG-20010904/DTD/svg10.dtd" [
<!ATTLIST g
xmlns:kvg CDATA #FIXED "http://kanjivg.tagaini.net"
kvg:element CDATA #IMPLIED
kvg:variant CDATA #IMPLIED
kvg:partial CDATA #IMPLIED
kvg:original CDATA #IMPLIED
kvg:part CDATA #IMPLIED
kvg:number CDATA #IMPLIED
kvg:tradForm CDATA #IMPLIED
kvg:radicalForm CDATA #IMPLIED
kvg:position CDATA #IMPLIED
kvg:radical CDATA #IMPLIED
kvg:phon CDATA #IMPLIED >
<!ATTLIST path
xmlns:kvg CDATA #FIXED "http://kanjivg.tagaini.net"
kvg:type CDATA #IMPLIED >
]>
<svg xmlns="http://www.w3.org/2000/svg" width="327" height = "327" viewBox="0 0 327 327">
<g id="kvg:StrokePaths_0543d" style="fill:none;stroke:#000000;stroke-width:3;stroke-linecap:round;stroke-linejoin:round;" transform="scale(3.0,3.0)">
<g id="kvg:0543d" kvg:element="吽">
	<g id="kvg:0543d-g1" kvg:element="口" kvg:position="left" kvg:radical="general">
		<path style="stroke: #bf0909;" id="kvg:0543d-s1" kvg:type="㇑" d="M10.25,33.29c0.37,0.51,0.76,0.94,0.92,1.58c1.29,5.07,3.34,18.54,4.23,27.63"/>
		<path style="stroke: #bfa509;" id="kvg:0543d-s2" kvg:type="㇕b" d="M12.58,35.22C22,33,28.62,32.16,32.99,31.49c1.6-0.24,2.56,1.44,2.33,2.87c-0.95,5.92-2.55,14.07-3.96,22.25"/>
		<path style="stroke: #3dbf09;" id="kvg:0543d-s3" kvg:type="㇐b" d="M15.57,58.55c5.14-0.75,11.33-1.05,18.39-2.21"/>
	</g>
	<g id="kvg:0543d-g2" kvg:element="牛" kvg:position="right">
		<path style="stroke: #09bf71;" id="kvg:0543d-s4" kvg:type="㇒" d="M53.88,20.27c0.03,0.67,0.2,1.79-0.07,2.71c-2.23,7.72-6.41,17.9-12.66,27.6"/>
		<path style="stroke: #0971bf;" id="kvg:0543d-s5" kvg:type="㇐" d="M51.43,36.86c0.89,0.38,2.51,0.46,3.4,0.38C65.71,36.2,76.5,34,87.33,31.92c1.45-0.28,4.36,0.18,5.1,0.37"/>
		<path style="stroke: #3d09bf;" id="kvg:0543d-s6" kvg:type="㇐" d="M40.09,61.38c1.43,0.54,4.06,0.62,5.5,0.54c14.92-0.9,35.67-5.16,50.32-5.14c2.39,0,3.82,0.25,5.02,0.52"/>
		<path style="stroke: #bf09a5;" id="kvg:0543d-s7" kvg:type="㇑" d="M68.41,10.88c0.71,0.44,2.37,2.37,2.37,4.2c0,0.9-0.09,78.63-0.24,84.17"/>
	</g>
</g>
</g>
<g id="kvg:StrokeNumbers_0543d" style="font-size:8;fill:#808080" transform="scale(3.0,3.0)">
	<text style="fill: #bf0909;" transform="matrix(1 0 0 1 4.50 40.35)">1</text>
	<text style="fill: #bfa509;" transform="matrix(1 0 0 1 13.50 31.50)">2</text>
	<text style="fill: #3dbf09;" transform="matrix(1 0 0 1 17.71 55.35)">3</text>
	<text style="fill: #09bf71;" transform="matrix(1 0 0 1 45.50 21.50)">4</text>
	<text style="fill: #0971bf;" transform="matrix(1 0 0 1 56.50 33.50)">5</text>
	<text style="fill: #3d09bf;" transform="matrix(1 0 0 1 41.50 58.50)">6</text>
	<text style="fill: #bf09a5;" transform="matrix(1 0 0 1 60.25 11.50)">7</text>
</g>
</svg>
