<?xml version="1.0" encoding="UTF-8"?>
<!--
This file has been modified from the original version by the kanji_colorize.py
script (available at http://github.com/cayennes/kanji-colorize) with these
settings:
    mode: spectrum
    saturation: 0.95
    value: 0.75
    image_size: 327
It remains under a Creative Commons-Attribution-Share Alike 3.0 License.

The original SVG has the following copyright:

Copyright (C) 2009/2010/2011 Ulrich Apel.
This work is distributed under the conditions of the Creative Commons
Attribution-Share Alike 3.0 Licence. This means you are free:
* to Share - to copy, distribute and transmit the work
* to Remix - to adapt the work

Under the following conditions:
* Attribution. You must attribute the work by stating your use of KanjiVG in
  your own copyright header and linking to KanjiVG's website
  (http://kanjivg.tagaini.net)
* Share Alike. If you alter, transform, or build upon this work, you may
  distribute the resulting work only under the same or similar license to this
  one.

See http://creativecommons.org/licenses/by-sa/3.0/ for more details.
-->
<!DOCTYPE svg PUBLIC "-//W3C//DTD SVG 1.0//EN" "http://www.w3.org/TR/2001/REC-SVG-20010904/DTD/svg10.dtd" [
<!ATTLIST g
xmlns:kvg CDATA #FIXED "http://kanjivg.tagaini.net"
kvg:element CDATA #IMPLIED
kvg:variant CDATA #IMPLIED
kvg:partial CDATA #IMPLIED
kvg:original CDATA #IMPLIED
kvg:part CDATA #IMPLIED
kvg:number CDATA #IMPLIED
kvg:tradForm CDATA #IMPLIED
kvg:radicalForm CDATA #IMPLIED
kvg:position CDATA #IMPLIED
kvg:radical CDATA #IMPLIED
kvg:phon CDATA #IMPLIED >
<!ATTLIST path
xmlns:kvg CDATA #FIXED "http://kanjivg.tagaini.net"
kvg:type CDATA #IMPLIED >
]>
<svg xmlns="http://www.w3.org/2000/svg" width="327" height = "327" viewBox="0 0 327 327">
<g id="kvg:StrokePaths_054c7" style="fill:none;stroke:#000000;stroke-width:3;stroke-linecap:round;stroke-linejoin:round;" transform="scale(3.0,3.0)">
<g id="kvg:054c7" kvg:element="哇">
	<g id="kvg:054c7-g1" kvg:element="口" kvg:position="left" kvg:radical="general">
		<path style="stroke: #bf0909;" id="kvg:054c7-s1" kvg:type="㇑" d="M11.5,33.85c0.22,0.47,0.94,2.37,1.03,2.94c0.75,4.49,3.15,17.74,3.67,25.71"/>
		<path style="stroke: #bf8209;" id="kvg:054c7-s2" kvg:type="㇕b" d="M12.85,35.53c5.31-1.19,17.81-3.45,20.56-3.65c1.84-0.13,3.09,0.87,2.96,2.82c-0.38,5.48-2.77,13.66-4.04,21.49"/>
		<path style="stroke: #82bf09;" id="kvg:054c7-s3" kvg:type="㇐b" d="M15.91,58.62c3.21-0.3,14.33-1.92,18.41-2.12"/>
	</g>
	<g id="kvg:054c7-g2" kvg:element="圭" kvg:position="right">
		<g id="kvg:054c7-g3" kvg:element="土" kvg:position="top">
			<path style="stroke: #09bf09;" id="kvg:054c7-s4" kvg:type="㇐" d="M48.05,32.74c0.95,0.48,2.7,0.55,3.66,0.48c9-0.61,21.65-2.87,34-3.3c1.59-0.06,2.55,0.23,3.34,0.47"/>
			<path style="stroke: #09bf82;" id="kvg:054c7-s5" kvg:type="㇑a" d="M65.45,11.87c0.13,0.32,1.91,1.65,1.91,3.66c0,12.97,0.15,18.21,0.15,35.36"/>
			<path style="stroke: #0982bf;" id="kvg:054c7-s6" kvg:type="㇐" d="M45.2,52.15c1.57,0.51,3.35,0.58,4.92,0.51c9.26-0.42,28.18-2.67,38.44-3.04c2.61-0.09,3.62,0.24,4.94,0.5"/>
		</g>
		<g id="kvg:054c7-g4" kvg:element="土" kvg:position="bottom">
			<path style="stroke: #0909bf;" id="kvg:054c7-s7" kvg:type="㇐" d="M46.82,71.96c0.98,0.38,2.76,0.45,3.74,0.38c14.59-0.99,25.11-2.36,36.03-2.65c1.62-0.04,2.6,0.18,3.41,0.37"/>
			<path style="stroke: #8209bf;" id="kvg:054c7-s8" kvg:type="㇑a" d="M66.6,55.82c0.12,0.28,1.68,1.45,1.68,3.22c0,11.39,0.13,17.64,0.13,32.7"/>
			<path style="stroke: #bf0982;" id="kvg:054c7-s9" kvg:type="㇐" d="M40.8,93.09c1.61,0.57,3.44,0.7,5.05,0.57c19.9-1.61,29.23-2.08,47.03-2.83c2.68-0.11,3.73,0.27,5.07,0.56"/>
		</g>
	</g>
</g>
</g>
<g id="kvg:StrokeNumbers_054c7" style="font-size:8;fill:#808080" transform="scale(3.0,3.0)">
	<text style="fill: #bf0909;" transform="matrix(1 0 0 1 6.85 43.85)">1</text>
	<text style="fill: #bf8209;" transform="matrix(1 0 0 1 15.66 31.50)">2</text>
	<text style="fill: #82bf09;" transform="matrix(1 0 0 1 18.71 55.50)">3</text>
	<text style="fill: #09bf09;" transform="matrix(1 0 0 1 46.50 29.50)">4</text>
	<text style="fill: #09bf82;" transform="matrix(1 0 0 1 55.50 12.50)">5</text>
	<text style="fill: #0982bf;" transform="matrix(1 0 0 1 43.50 49.50)">6</text>
	<text style="fill: #0909bf;" transform="matrix(1 0 0 1 45.25 69.50)">7</text>
	<text style="fill: #8209bf;" transform="matrix(1 0 0 1 56.50 60.50)">8</text>
	<text style="fill: #bf0982;" transform="matrix(1 0 0 1 38.50 89.50)">9</text>
</g>
</svg>
