<?xml version="1.0" encoding="UTF-8"?>
<!--
This file has been modified from the original version by the kanji_colorize.py
script (available at http://github.com/cayennes/kanji-colorize) with these
settings:
    mode: spectrum
    saturation: 0.95
    value: 0.75
    image_size: 327
It remains under a Creative Commons-Attribution-Share Alike 3.0 License.

The original SVG has the following copyright:

Copyright (C) 2009/2010/2011 Ulrich Apel.
This work is distributed under the conditions of the Creative Commons
Attribution-Share Alike 3.0 Licence. This means you are free:
* to Share - to copy, distribute and transmit the work
* to Remix - to adapt the work

Under the following conditions:
* Attribution. You must attribute the work by stating your use of KanjiVG in
  your own copyright header and linking to KanjiVG's website
  (http://kanjivg.tagaini.net)
* Share Alike. If you alter, transform, or build upon this work, you may
  distribute the resulting work only under the same or similar license to this
  one.

See http://creativecommons.org/licenses/by-sa/3.0/ for more details.
-->
<!DOCTYPE svg PUBLIC "-//W3C//DTD SVG 1.0//EN" "http://www.w3.org/TR/2001/REC-SVG-20010904/DTD/svg10.dtd" [
<!ATTLIST g
xmlns:kvg CDATA #FIXED "http://kanjivg.tagaini.net"
kvg:element CDATA #IMPLIED
kvg:variant CDATA #IMPLIED
kvg:partial CDATA #IMPLIED
kvg:original CDATA #IMPLIED
kvg:part CDATA #IMPLIED
kvg:number CDATA #IMPLIED
kvg:tradForm CDATA #IMPLIED
kvg:radicalForm CDATA #IMPLIED
kvg:position CDATA #IMPLIED
kvg:radical CDATA #IMPLIED
kvg:phon CDATA #IMPLIED >
<!ATTLIST path
xmlns:kvg CDATA #FIXED "http://kanjivg.tagaini.net"
kvg:type CDATA #IMPLIED >
]>
<svg xmlns="http://www.w3.org/2000/svg" width="327" height = "327" viewBox="0 0 327 327">
<g id="kvg:StrokePaths_056d8" style="fill:none;stroke:#000000;stroke-width:3;stroke-linecap:round;stroke-linejoin:round;" transform="scale(3.0,3.0)">
<g id="kvg:056d8" kvg:element="囘">
	<g id="kvg:056d8-g1" kvg:element="冂" kvg:position="kamae" kvg:radical="general">
		<path style="stroke: #bf0909;" id="kvg:056d8-s1" kvg:type="㇑" d="M19.25,15.75c0.75,1.25,1.25,3.25,1,5.5s0.25,68.5,0.25,72.25"/>
		<path style="stroke: #9abf09;" id="kvg:056d8-s2" kvg:type="㇆a" d="M20.25,18.25c9.5-1,61.63-4.65,63.5-5c4-0.75,6.94,1.83,6.5,3c-0.75,2-0.75,65.25-0.75,71c0,9.25-4.25,4.75-7.25,1.5"/>
	</g>
	<g id="kvg:056d8-g2" kvg:element="巳">
		<g id="kvg:056d8-g3" kvg:element="己" kvg:variant="true">
			<path style="stroke: #09bf52;" id="kvg:056d8-s3" kvg:type="㇕" d="M39.69,30.12c1.22,0.94,2.26,0.94,4.05,0.63c3.64-0.63,19.73-3.16,20.84-3.27c1.46-0.16,2.62,1.03,2.09,3.46c-0.16,0.72-1.14,7.74-2.17,14.69"/>
			<path style="stroke: #0952bf;" id="kvg:056d8-s4" kvg:type="㇐" d="M42,50.03c2.69-0.34,18.17-2.37,23.29-3.73"/>
			<path style="stroke: #9a09bf;" id="kvg:056d8-s5" kvg:type="㇟" d="M41.6,30.98c-0.02,5.15,0.08,28.62,0.1,33.29C41.74,77.49,44.02,78,59.37,78c16.57,0,14.75-4.24,14.75-8.64"/>
		</g>
	</g>
</g>
</g>
<g id="kvg:StrokeNumbers_056d8" style="font-size:8;fill:#808080" transform="scale(3.0,3.0)">
	<text style="fill: #bf0909;" transform="matrix(1 0 0 1 13.5 25)">1</text>
	<text style="fill: #9abf09;" transform="matrix(1 0 0 1 23.2 15.5)">2</text>
	<text style="fill: #09bf52;" transform="matrix(1 0 0 1 41.7 28.1)">3</text>
	<text style="fill: #0952bf;" transform="matrix(1 0 0 1 44.7 46.4)">4</text>
	<text style="fill: #9a09bf;" transform="matrix(1 0 0 1 34 39.1)">5</text>
</g>
</svg>
