<?xml version="1.0" encoding="UTF-8"?>
<!--
This file has been modified from the original version by the kanji_colorize.py
script (available at http://github.com/cayennes/kanji-colorize) with these
settings:
    mode: spectrum
    saturation: 0.95
    value: 0.75
    image_size: 327
It remains under a Creative Commons-Attribution-Share Alike 3.0 License.

The original SVG has the following copyright:

Copyright (C) 2009/2010/2011 Ulrich Apel.
This work is distributed under the conditions of the Creative Commons
Attribution-Share Alike 3.0 Licence. This means you are free:
* to Share - to copy, distribute and transmit the work
* to Remix - to adapt the work

Under the following conditions:
* Attribution. You must attribute the work by stating your use of KanjiVG in
  your own copyright header and linking to KanjiVG's website
  (http://kanjivg.tagaini.net)
* Share Alike. If you alter, transform, or build upon this work, you may
  distribute the resulting work only under the same or similar license to this
  one.

See http://creativecommons.org/licenses/by-sa/3.0/ for more details.
-->
<!DOCTYPE svg PUBLIC "-//W3C//DTD SVG 1.0//EN" "http://www.w3.org/TR/2001/REC-SVG-20010904/DTD/svg10.dtd" [
<!ATTLIST g
xmlns:kvg CDATA #FIXED "http://kanjivg.tagaini.net"
kvg:element CDATA #IMPLIED
kvg:variant CDATA #IMPLIED
kvg:partial CDATA #IMPLIED
kvg:original CDATA #IMPLIED
kvg:part CDATA #IMPLIED
kvg:number CDATA #IMPLIED
kvg:tradForm CDATA #IMPLIED
kvg:radicalForm CDATA #IMPLIED
kvg:position CDATA #IMPLIED
kvg:radical CDATA #IMPLIED
kvg:phon CDATA #IMPLIED >
<!ATTLIST path
xmlns:kvg CDATA #FIXED "http://kanjivg.tagaini.net"
kvg:type CDATA #IMPLIED >
]>
<svg xmlns="http://www.w3.org/2000/svg" width="327" height = "327" viewBox="0 0 327 327">
<g id="kvg:StrokePaths_057d3" style="fill:none;stroke:#000000;stroke-width:3;stroke-linecap:round;stroke-linejoin:round;" transform="scale(3.0,3.0)">
<g id="kvg:057d3" kvg:element="埓">
	<g id="kvg:057d3-g1" kvg:element="土" kvg:variant="true" kvg:position="left" kvg:radical="general">
		<path style="stroke: #bf0909;" id="kvg:057d3-s1" kvg:type="㇐" d="M11.5,43.14c0.76,0.38,2.24,0.43,3,0.36c5.75-0.5,16.15-2.39,21.5-3c1.25-0.14,2.62-0.18,3.25,0.01"/>
		<path style="stroke: #bf7609;" id="kvg:057d3-s2" kvg:type="㇑a" d="M25.3,15c1.16,0.53,2.09,2.37,2.09,3.47c0,7.73,0.03,41.32,0.03,52.78"/>
		<path style="stroke: #9abf09;" id="kvg:057d3-s3" kvg:type="㇀/㇐" d="M12.5,80.11c0.68,1.14,2.05,1.75,4.1,0.25c5.7-4.19,15.95-11.67,21.65-15.85"/>
	</g>
	<g id="kvg:057d3-g2" kvg:position="right">
		<g id="kvg:057d3-g3" kvg:element="⺤" kvg:variant="true" kvg:original="月" kvg:position="top">
			<path style="stroke: #2dbf09;" id="kvg:057d3-s4" kvg:type="㇒" d="M77.28,11.5c0.08,0.45-0.19,1.81-0.66,2.33c-5.87,6.41-14.06,11.8-29.37,16.97"/>
			<path style="stroke: #09bf52;" id="kvg:057d3-s5" kvg:type="㇐" d="M49.77,35.58c3.1,1.57,8.02,6.45,8.79,8.88"/>
			<path style="stroke: #09bfbf;" id="kvg:057d3-s6" kvg:type="㇐" d="M65.52,27.33c3.1,1.57,8.02,6.45,8.79,8.88"/>
			<path style="stroke: #0952bf;" id="kvg:057d3-s7" kvg:type="㇒" d="M91.02,25.5c0.11,0.65-0.24,2.58-0.85,3.32c-7.58,9.15-18.15,16.84-37.92,24.22"/>
		</g>
		<g id="kvg:057d3-g4" kvg:element="寸" kvg:position="bottom">
			<path style="stroke: #2d09bf;" id="kvg:057d3-s8" kvg:type="㇐" d="M45.38,65.35c1.22,0.61,3.44,0.74,4.66,0.61c13.21-1.46,29.47-4.16,44.33-5.09c2.02-0.12,3.24,0.29,4.26,0.59"/>
			<path style="stroke: #9a09bf;" id="kvg:057d3-s9" kvg:type="㇚" d="M82.58,44.83c0.05,0.29,1.28,2.02,1.28,3.88c0,12.5-0.16,40.95-0.16,43.99c0,7.37-4.69,1.09-6.05,0.15"/>
			<path style="stroke: #bf0976;" id="kvg:057d3-s10" kvg:type="㇔" d="M57.63,73.9c2.93,1.68,7.57,6.91,8.3,9.53"/>
		</g>
	</g>
</g>
</g>
<g id="kvg:StrokeNumbers_057d3" style="font-size:8;fill:#808080" transform="scale(3.0,3.0)">
	<text style="fill: #bf0909;" transform="matrix(1 0 0 1 5.50 43.50)">1</text>
	<text style="fill: #bf7609;" transform="matrix(1 0 0 1 15.50 15.50)">2</text>
	<text style="fill: #9abf09;" transform="matrix(1 0 0 1 4.50 81.50)">3</text>
	<text style="fill: #2dbf09;" transform="matrix(1 0 0 1 69.50 11.50)">4</text>
	<text style="fill: #09bf52;" transform="matrix(1 0 0 1 55.50 36.50)">5</text>
	<text style="fill: #09bfbf;" transform="matrix(1 0 0 1 71.50 28.50)">6</text>
	<text style="fill: #0952bf;" transform="matrix(1 0 0 1 83.50 25.50)">7</text>
	<text style="fill: #2d09bf;" transform="matrix(1 0 0 1 43.50 62.50)">8</text>
	<text style="fill: #9a09bf;" transform="matrix(1 0 0 1 75.50 52.50)">9</text>
	<text style="fill: #bf0976;" transform="matrix(1 0 0 1 46.75 77.50)">10</text>
</g>
</svg>
