<?xml version="1.0" encoding="UTF-8"?>
<!--
This file has been modified from the original version by the kanji_colorize.py
script (available at http://github.com/cayennes/kanji-colorize) with these
settings:
    mode: spectrum
    saturation: 0.95
    value: 0.75
    image_size: 327
It remains under a Creative Commons-Attribution-Share Alike 3.0 License.

The original SVG has the following copyright:

Copyright (C) 2009/2010/2011 Ulrich Apel.
This work is distributed under the conditions of the Creative Commons
Attribution-Share Alike 3.0 Licence. This means you are free:
* to Share - to copy, distribute and transmit the work
* to Remix - to adapt the work

Under the following conditions:
* Attribution. You must attribute the work by stating your use of KanjiVG in
  your own copyright header and linking to KanjiVG's website
  (http://kanjivg.tagaini.net)
* Share Alike. If you alter, transform, or build upon this work, you may
  distribute the resulting work only under the same or similar license to this
  one.

See http://creativecommons.org/licenses/by-sa/3.0/ for more details.
-->
<!DOCTYPE svg PUBLIC "-//W3C//DTD SVG 1.0//EN" "http://www.w3.org/TR/2001/REC-SVG-20010904/DTD/svg10.dtd" [
<!ATTLIST g
xmlns:kvg CDATA #FIXED "http://kanjivg.tagaini.net"
kvg:element CDATA #IMPLIED
kvg:variant CDATA #IMPLIED
kvg:partial CDATA #IMPLIED
kvg:original CDATA #IMPLIED
kvg:part CDATA #IMPLIED
kvg:number CDATA #IMPLIED
kvg:tradForm CDATA #IMPLIED
kvg:radicalForm CDATA #IMPLIED
kvg:position CDATA #IMPLIED
kvg:radical CDATA #IMPLIED
kvg:phon CDATA #IMPLIED >
<!ATTLIST path
xmlns:kvg CDATA #FIXED "http://kanjivg.tagaini.net"
kvg:type CDATA #IMPLIED >
]>
<svg xmlns="http://www.w3.org/2000/svg" width="327" height = "327" viewBox="0 0 327 327">
<g id="kvg:StrokePaths_058f1" style="fill:none;stroke:#000000;stroke-width:3;stroke-linecap:round;stroke-linejoin:round;" transform="scale(3.0,3.0)">
<g id="kvg:058f1" kvg:element="壱">
	<g id="kvg:058f1-g1" kvg:element="士" kvg:variant="true" kvg:original="土" kvg:position="top" kvg:radical="general" kvg:phon="吉V1">
		<path style="stroke: #bf0909;" id="kvg:058f1-s1" kvg:type="㇐" d="M27.38,24.88c2.04,1.02,5.5,0.6,7.65,0.39c10.24-1.04,26.98-2.51,38.1-3.47c2.4-0.21,4.91-0.3,7.25,0.4"/>
		<path style="stroke: #bfa509;" id="kvg:058f1-s2" kvg:type="㇑a" d="M51.53,11.11c0.99,0.99,1.35,2.39,1.35,3.76c0,2.62-0.02,12.12-0.02,22.01"/>
		<path style="stroke: #3dbf09;" id="kvg:058f1-s3" kvg:type="㇐" d="M30.81,39.17c2.57,0.33,4.84,0.32,6.94,0.16c10.75-0.83,22.53-2.32,32.01-2.81c1.96-0.1,3.9-0.24,5.83,0.21"/>
	</g>
	<g id="kvg:058f1-g2" kvg:position="bottom" kvg:phon="吉V2">
		<g id="kvg:058f1-g3" kvg:element="冖">
			<path style="stroke: #09bf71;" id="kvg:058f1-s4" kvg:type="㇔" d="M17.41,51.13c0,3.48-3.03,14.55-4.41,16.87"/>
			<path style="stroke: #0971bf;" id="kvg:058f1-s5" kvg:type="㇖b" d="M18.27,52.91C37.25,51,64.88,48.12,88.2,47.09c12.06-0.54,2.55,7.41-0.45,9.53"/>
		</g>
		<g id="kvg:058f1-g4" kvg:element="匕">
			<path style="stroke: #3d09bf;" id="kvg:058f1-s6" kvg:type="㇒" d="M72.19,60.03c-0.06,0.97-0.72,2.16-1.27,2.52C65.62,66,55.75,71,43.41,74.96"/>
			<path style="stroke: #bf09a5;" id="kvg:058f1-s7" kvg:type="㇟" d="M39,57.5c0.75,0.75,1.29,2,1.29,3.31c0,1.39,0.06,18.72,0.06,22.98c0,9.84,1.66,11.73,21.79,11.73c20.99,0,22.46-1.27,22.46-13.31"/>
		</g>
	</g>
</g>
</g>
<g id="kvg:StrokeNumbers_058f1" style="font-size:8;fill:#808080" transform="scale(3.0,3.0)">
	<text style="fill: #bf0909;" transform="matrix(1 0 0 1 20.50 26.50)">1</text>
	<text style="fill: #bfa509;" transform="matrix(1 0 0 1 43.50 12.50)">2</text>
	<text style="fill: #3dbf09;" transform="matrix(1 0 0 1 23.50 38.50)">3</text>
	<text style="fill: #09bf71;" transform="matrix(1 0 0 1 10.50 52.50)">4</text>
	<text style="fill: #0971bf;" transform="matrix(1 0 0 1 21.50 49.50)">5</text>
	<text style="fill: #3d09bf;" transform="matrix(1 0 0 1 62.25 60.13)">6</text>
	<text style="fill: #bf09a5;" transform="matrix(1 0 0 1 31.50 65.50)">7</text>
</g>
</svg>
