<?xml version="1.0" encoding="UTF-8"?>
<!--
This file has been modified from the original version by the kanji_colorize.py
script (available at http://github.com/cayennes/kanji-colorize) with these
settings:
    mode: spectrum
    saturation: 0.95
    value: 0.75
    image_size: 327
It remains under a Creative Commons-Attribution-Share Alike 3.0 License.

The original SVG has the following copyright:

Copyright (C) 2009/2010/2011 Ulrich Apel.
This work is distributed under the conditions of the Creative Commons
Attribution-Share Alike 3.0 Licence. This means you are free:
* to Share - to copy, distribute and transmit the work
* to Remix - to adapt the work

Under the following conditions:
* Attribution. You must attribute the work by stating your use of KanjiVG in
  your own copyright header and linking to KanjiVG's website
  (http://kanjivg.tagaini.net)
* Share Alike. If you alter, transform, or build upon this work, you may
  distribute the resulting work only under the same or similar license to this
  one.

See http://creativecommons.org/licenses/by-sa/3.0/ for more details.
-->
<!DOCTYPE svg PUBLIC "-//W3C//DTD SVG 1.0//EN" "http://www.w3.org/TR/2001/REC-SVG-20010904/DTD/svg10.dtd" [
<!ATTLIST g
xmlns:kvg CDATA #FIXED "http://kanjivg.tagaini.net"
kvg:element CDATA #IMPLIED
kvg:variant CDATA #IMPLIED
kvg:partial CDATA #IMPLIED
kvg:original CDATA #IMPLIED
kvg:part CDATA #IMPLIED
kvg:number CDATA #IMPLIED
kvg:tradForm CDATA #IMPLIED
kvg:radicalForm CDATA #IMPLIED
kvg:position CDATA #IMPLIED
kvg:radical CDATA #IMPLIED
kvg:phon CDATA #IMPLIED >
<!ATTLIST path
xmlns:kvg CDATA #FIXED "http://kanjivg.tagaini.net"
kvg:type CDATA #IMPLIED >
]>
<svg xmlns="http://www.w3.org/2000/svg" width="327" height = "327" viewBox="0 0 327 327">
<g id="kvg:StrokePaths_05947" style="fill:none;stroke:#000000;stroke-width:3;stroke-linecap:round;stroke-linejoin:round;" transform="scale(3.0,3.0)">
<g id="kvg:05947" kvg:element="奇">
	<g id="kvg:05947-g1" kvg:element="大" kvg:variant="true" kvg:position="top" kvg:radical="general">
		<path style="stroke: #bf0909;" id="kvg:05947-s1" kvg:type="㇐" d="M27.85,21.94c2.32,0.52,5.22,0.34,7.54,0.06c11.08-1.34,25.13-2.82,35.24-3.58c2.63-0.2,5.25-0.43,7.74-0.08"/>
		<path style="stroke: #bf9109;" id="kvg:05947-s2" kvg:type="㇒" d="M52.82,8.25c0.71,0.86,0.62,1.97,0.55,3.01c-0.94,14.15-14.12,29.31-25.69,32.37"/>
		<path style="stroke: #64bf09;" id="kvg:05947-s3" kvg:type="㇔/㇏" d="M53.75,23.75c7.31,3.89,15.78,10.19,20.25,16"/>
	</g>
	<g id="kvg:05947-g2" kvg:element="可" kvg:position="bottom" kvg:phon="可">
		<g id="kvg:05947-g3" kvg:element="丁" kvg:part="1">
			<g id="kvg:05947-g4" kvg:element="一">
				<path style="stroke: #09bf36;" id="kvg:05947-s4" kvg:type="㇐" d="M12.63,50.48c3.09,1.1,7.28,0.67,10.49,0.37c13.21-1.23,44.89-4.24,60.77-5.56c3.95-0.33,8.1-0.55,11.99,0.29"/>
			</g>
		</g>
		<g id="kvg:05947-g5" kvg:element="口">
			<path style="stroke: #09bfbf;" id="kvg:05947-s5" kvg:type="㇑" d="M30.88,62.88c0.72,0.75,1.11,1.65,1.18,2.7c0.69,3.03,1.42,7.94,2.01,12.4c0.21,1.61,0.4,3.15,0.57,4.53"/>
			<path style="stroke: #0936bf;" id="kvg:05947-s6" kvg:type="㇕b" d="M32.57,64.61c6.45-1.49,14.34-3,19.16-3.61c2.81-0.36,5.04-0.42,4.26,3.03c-0.77,3.44-1.38,7.15-2.62,11.92"/>
			<path style="stroke: #6409bf;" id="kvg:05947-s7" kvg:type="㇐b" d="M35.56,79.56c4.15-0.4,9.32-1.3,14.96-1.93c1.31-0.15,2.63-0.29,3.95-0.44"/>
		</g>
		<g id="kvg:05947-g6" kvg:element="丁" kvg:part="2">
			<g id="kvg:05947-g7" kvg:element="亅">
				<path style="stroke: #bf0991;" id="kvg:05947-s8" kvg:type="㇚" d="M72.21,49.83c1.04,1.04,1.51,2.67,1.51,4.77c0,14.56-0.01,33.94-0.01,38.9c0,10.12-7.96,2.62-11.21,0"/>
			</g>
		</g>
	</g>
</g>
</g>
<g id="kvg:StrokeNumbers_05947" style="font-size:8;fill:#808080" transform="scale(3.0,3.0)">
	<text style="fill: #bf0909;" transform="matrix(1 0 0 1 21.50 23.50)">1</text>
	<text style="fill: #bf9109;" transform="matrix(1 0 0 1 44.50 9.13)">2</text>
	<text style="fill: #64bf09;" transform="matrix(1 0 0 1 68.25 30.13)">3</text>
	<text style="fill: #09bf36;" transform="matrix(1 0 0 1 5.50 52.50)">4</text>
	<text style="fill: #09bfbf;" transform="matrix(1 0 0 1 24.75 70.50)">5</text>
	<text style="fill: #0936bf;" transform="matrix(1 0 0 1 33.50 61.50)">6</text>
	<text style="fill: #6409bf;" transform="matrix(1 0 0 1 38.50 76.55)">7</text>
	<text style="fill: #bf0991;" transform="matrix(1 0 0 1 64.50 58.63)">8</text>
</g>
</svg>
