<?xml version="1.0" encoding="UTF-8"?>
<!--
This file has been modified from the original version by the kanji_colorize.py
script (available at http://github.com/cayennes/kanji-colorize) with these
settings:
    mode: spectrum
    saturation: 0.95
    value: 0.75
    image_size: 327
It remains under a Creative Commons-Attribution-Share Alike 3.0 License.

The original SVG has the following copyright:

Copyright (C) 2009/2010/2011 Ulrich Apel.
This work is distributed under the conditions of the Creative Commons
Attribution-Share Alike 3.0 Licence. This means you are free:
* to Share - to copy, distribute and transmit the work
* to Remix - to adapt the work

Under the following conditions:
* Attribution. You must attribute the work by stating your use of KanjiVG in
  your own copyright header and linking to KanjiVG's website
  (http://kanjivg.tagaini.net)
* Share Alike. If you alter, transform, or build upon this work, you may
  distribute the resulting work only under the same or similar license to this
  one.

See http://creativecommons.org/licenses/by-sa/3.0/ for more details.
-->
<!DOCTYPE svg PUBLIC "-//W3C//DTD SVG 1.0//EN" "http://www.w3.org/TR/2001/REC-SVG-20010904/DTD/svg10.dtd" [
<!ATTLIST g
xmlns:kvg CDATA #FIXED "http://kanjivg.tagaini.net"
kvg:element CDATA #IMPLIED
kvg:variant CDATA #IMPLIED
kvg:partial CDATA #IMPLIED
kvg:original CDATA #IMPLIED
kvg:part CDATA #IMPLIED
kvg:number CDATA #IMPLIED
kvg:tradForm CDATA #IMPLIED
kvg:radicalForm CDATA #IMPLIED
kvg:position CDATA #IMPLIED
kvg:radical CDATA #IMPLIED
kvg:phon CDATA #IMPLIED >
<!ATTLIST path
xmlns:kvg CDATA #FIXED "http://kanjivg.tagaini.net"
kvg:type CDATA #IMPLIED >
]>
<svg xmlns="http://www.w3.org/2000/svg" width="327" height = "327" viewBox="0 0 327 327">
<g id="kvg:StrokePaths_05a6a" style="fill:none;stroke:#000000;stroke-width:3;stroke-linecap:round;stroke-linejoin:round;" transform="scale(3.0,3.0)">
<g id="kvg:05a6a" kvg:element="婪">
	<g id="kvg:05a6a-g1" kvg:element="林" kvg:position="top">
		<g id="kvg:05a6a-g2" kvg:element="木" kvg:variant="true" kvg:position="left">
			<path style="stroke: #bf0909;" id="kvg:05a6a-s1" kvg:type="㇐" d="M18.66,28.1c0.7,0.17,2.82,0.15,4.69,0c6.56-0.52,15.33-1.38,22.36-1.72c1.87-0.09,3.28-0.52,4.45-0.34"/>
			<path style="stroke: #bf6c09;" id="kvg:05a6a-s2" kvg:type="㇑" d="M35.57,13.88c0.68,0.62,1.61,2.01,1.61,2.74c0,8.14,0,32.64-0.23,36.95"/>
			<path style="stroke: #aebf09;" id="kvg:05a6a-s3" kvg:type="㇒" d="M36.74,27.97c-3.3,6.97-13.14,18.65-20,22.59"/>
			<path style="stroke: #4bbf09;" id="kvg:05a6a-s4" kvg:type="㇔/㇏" d="M40.61,33.79c3.14,1.21,7.14,4.71,8.86,8.09"/>
		</g>
		<g id="kvg:05a6a-g3" kvg:element="木" kvg:position="right">
			<path style="stroke: #09bf2a;" id="kvg:05a6a-s5" kvg:type="㇐" d="M56.52,24.85c0.57,0.17,1.33,0.45,2.85,0.52c4.18,0.17,15.73-1.71,26.19-2.57c1.52-0.12,2.84-0.17,3.79,0"/>
			<path style="stroke: #09bf8d;" id="kvg:05a6a-s6" kvg:type="㇑" d="M70.06,11c1.17,0.34,2.11,2.51,2.11,3.24c0,5.51,0,34.21-0.23,38.51"/>
			<path style="stroke: #098dbf;" id="kvg:05a6a-s7" kvg:type="㇒" d="M71.49,24.9c-2.93,8.09-12.05,19.34-18.85,23.49"/>
			<path style="stroke: #092abf;" id="kvg:05a6a-s8" kvg:type="㇏" d="M71.87,24.2c6.21,8,16.15,18.27,21.2,21.43c1.44,0.9,2.24,1.52,3.45,1.82"/>
		</g>
	</g>
	<g id="kvg:05a6a-g4" kvg:element="女" kvg:position="bottom" kvg:radical="general">
		<path style="stroke: #4b09bf;" id="kvg:05a6a-s9" kvg:type="㇛" d="M50.46,54.37c0.45,1.14,0.13,2.58-0.22,3.99c-1.76,6.94-5.79,12.4-11.4,20.38c-1.22,1.74-0.25,2.08,0.67,2.09c13.02,0.19,34.35,8.74,41.08,17.67"/>
		<path style="stroke: #ae09bf;" id="kvg:05a6a-s10" kvg:type="㇒" d="M69.38,59.18c0.13,0.96,0.22,3.28-0.26,4.66C65.3,75.04,54.5,92.75,27,99.25"/>
		<path style="stroke: #bf096c;" id="kvg:05a6a-s11" kvg:type="㇐" d="M16.88,67.93c2.12,0.57,4.39,0.96,5.41,0.87C43.75,67,71.5,65.25,92,65c1.7-0.02,4.62,0.35,6,1"/>
	</g>
</g>
</g>
<g id="kvg:StrokeNumbers_05a6a" style="font-size:8;fill:#808080" transform="scale(3.0,3.0)">
	<text style="fill: #bf0909;" transform="matrix(1 0 0 1 11.50 28.55)">1</text>
	<text style="fill: #bf6c09;" transform="matrix(1 0 0 1 27.50 13.63)">2</text>
	<text style="fill: #aebf09;" transform="matrix(1 0 0 1 22.50 38.48)">3</text>
	<text style="fill: #4bbf09;" transform="matrix(1 0 0 1 46.50 35.50)">4</text>
	<text style="fill: #09bf2a;" transform="matrix(1 0 0 1 54.50 21.50)">5</text>
	<text style="fill: #09bf8d;" transform="matrix(1 0 0 1 61.50 11.25)">6</text>
	<text style="fill: #098dbf;" transform="matrix(1 0 0 1 60.50 34.50)">7</text>
	<text style="fill: #092abf;" transform="matrix(1 0 0 1 82.50 32.50)">8</text>
	<text style="fill: #4b09bf;" transform="matrix(1 0 0 1 43 55.50)">9</text>
	<text style="fill: #ae09bf;" transform="matrix(1 0 0 1 58 59.50)">10</text>
	<text style="fill: #bf096c;" transform="matrix(1 0 0 1 9.50 66)">11</text>
</g>
</svg>
