<?xml version="1.0" encoding="UTF-8"?>
<!--
This file has been modified from the original version by the kanji_colorize.py
script (available at http://github.com/cayennes/kanji-colorize) with these
settings:
    mode: spectrum
    saturation: 0.95
    value: 0.75
    image_size: 327
It remains under a Creative Commons-Attribution-Share Alike 3.0 License.

The original SVG has the following copyright:

Copyright (C) 2009/2010/2011 Ulrich Apel.
This work is distributed under the conditions of the Creative Commons
Attribution-Share Alike 3.0 Licence. This means you are free:
* to Share - to copy, distribute and transmit the work
* to Remix - to adapt the work

Under the following conditions:
* Attribution. You must attribute the work by stating your use of KanjiVG in
  your own copyright header and linking to KanjiVG's website
  (http://kanjivg.tagaini.net)
* Share Alike. If you alter, transform, or build upon this work, you may
  distribute the resulting work only under the same or similar license to this
  one.

See http://creativecommons.org/licenses/by-sa/3.0/ for more details.
-->
<!DOCTYPE svg PUBLIC "-//W3C//DTD SVG 1.0//EN" "http://www.w3.org/TR/2001/REC-SVG-20010904/DTD/svg10.dtd" [
<!ATTLIST g
xmlns:kvg CDATA #FIXED "http://kanjivg.tagaini.net"
kvg:element CDATA #IMPLIED
kvg:variant CDATA #IMPLIED
kvg:partial CDATA #IMPLIED
kvg:original CDATA #IMPLIED
kvg:part CDATA #IMPLIED
kvg:number CDATA #IMPLIED
kvg:tradForm CDATA #IMPLIED
kvg:radicalForm CDATA #IMPLIED
kvg:position CDATA #IMPLIED
kvg:radical CDATA #IMPLIED
kvg:phon CDATA #IMPLIED >
<!ATTLIST path
xmlns:kvg CDATA #FIXED "http://kanjivg.tagaini.net"
kvg:type CDATA #IMPLIED >
]>
<svg xmlns="http://www.w3.org/2000/svg" width="327" height = "327" viewBox="0 0 327 327">
<g id="kvg:StrokePaths_05a62" style="fill:none;stroke:#000000;stroke-width:3;stroke-linecap:round;stroke-linejoin:round;" transform="scale(3.0,3.0)">
<g id="kvg:05a62" kvg:element="婢">
	<g id="kvg:05a62-g1" kvg:element="女" kvg:variant="true" kvg:position="left" kvg:radical="general">
		<path style="stroke: #bf0909;" id="kvg:05a62-s1" kvg:type="㇛" d="M29.48,16.87c0.39,1.04,1.08,2.74,0.89,4.24c-0.98,7.39-7.31,34.65-11.63,43.29c-0.89,1.77,0.38,2.55,0.89,2.63c9.13,1.47,18.13,8.47,22.63,16.75"/>
		<path style="stroke: #bf6c09;" id="kvg:05a62-s2" kvg:type="㇒" d="M41.75,37.39c0.08,1.27,0.14,4.34-0.16,6.18C39.18,58.41,32.23,79.46,15,90.5"/>
		<path style="stroke: #aebf09;" id="kvg:05a62-s3" kvg:type="㇀/㇐" d="M10,46.88c0.78,0.84,1.83,1.44,3.92,1.24c2.25-0.22,22.29-3.86,31.58-5.99"/>
	</g>
	<g id="kvg:05a62-g2" kvg:position="right">
		<g id="kvg:05a62-g3" kvg:element="卑" kvg:variant="true" kvg:position="top">
			<g id="kvg:05a62-g4" kvg:element="丿">
				<path style="stroke: #4bbf09;" id="kvg:05a62-s4" kvg:type="㇒" d="M69.27,10.14c0.03,0.31,0.06,0.81-0.05,1.26c-0.7,2.66-4.69,8.49-10.16,12.06"/>
			</g>
			<g id="kvg:05a62-g5" kvg:element="田" kvg:variant="true">
				<path style="stroke: #09bf2a;" id="kvg:05a62-s5" kvg:type="㇑" d="M50.49,24.85c0.3,0.46,0.31,0.79,0.48,1.37c1.37,4.81,2.66,17.27,3.5,26.24"/>
				<path style="stroke: #09bf8d;" id="kvg:05a62-s6" kvg:type="㇕" d="M51.91,26.04c10.6-1.21,29.59-3.23,37.51-4.24c2.91-0.38,4.04,0.65,3.83,3.19c-0.4,4.87-2.81,16.55-4.14,24.65"/>
				<path style="stroke: #098dbf;" id="kvg:05a62-s7" kvg:type="㇐" d="M53.89,37.93c3.45-0.47,33.28-3.94,36.14-4.13"/>
				<path style="stroke: #092abf;" id="kvg:05a62-s8" kvg:type="㇐" d="M55.02,50.3c7.64-0.52,23.55-2.13,34.09-2.98"/>
				<g id="kvg:05a62-g6" kvg:element="丿" kvg:position="bottom">
					<path style="stroke: #4b09bf;" id="kvg:05a62-s9" kvg:type="㇒" d="M71.41,26.43c0.59,1.07,0.69,2.7,0.39,4.12C68.75,45,65.5,56.75,52.51,70"/>
				</g>
			</g>
			<g id="kvg:05a62-g7" kvg:element="十">
				<path style="stroke: #ae09bf;" id="kvg:05a62-s10" kvg:type="㇐" d="M45.5,72.31c0.75,0.25,2.76,0.93,4.75,0.75c13.45-1.24,32.36-3.32,45.14-3.56c2-0.04,3.61,0.07,4.86,0.32"/>
				<path style="stroke: #bf096c;" id="kvg:05a62-s11" kvg:type="㇑" d="M75.87,54.25c1.09,0.5,1.74,2.25,1.96,3.25c0.22,1,0,35.25-0.22,41.5"/>
			</g>
		</g>
	</g>
</g>
</g>
<g id="kvg:StrokeNumbers_05a62" style="font-size:8;fill:#808080" transform="scale(3.0,3.0)">
	<text style="fill: #bf0909;" transform="matrix(1 0 0 1 22.50 17.63)">1</text>
	<text style="fill: #bf6c09;" transform="matrix(1 0 0 1 36.50 32.50)">2</text>
	<text style="fill: #aebf09;" transform="matrix(1 0 0 1 3.50 48.50)">3</text>
	<text style="fill: #4bbf09;" transform="matrix(1 0 0 1 61.50 10.40)">4</text>
	<text style="fill: #09bf2a;" transform="matrix(1 0 0 1 45.25 34.33)">5</text>
	<text style="fill: #09bf8d;" transform="matrix(1 0 0 1 52.50 22.50)">6</text>
	<text style="fill: #098dbf;" transform="matrix(1 0 0 1 56.25 34.18)">7</text>
	<text style="fill: #092abf;" transform="matrix(1 0 0 1 57.50 47.10)">8</text>
	<text style="fill: #4b09bf;" transform="matrix(1 0 0 1 63.50 32.50)">9</text>
	<text style="fill: #ae09bf;" transform="matrix(1 0 0 1 42.25 69.50)">10</text>
	<text style="fill: #bf096c;" transform="matrix(1 0 0 1 67.50 61.50)">11</text>
</g>
</svg>
