<?xml version="1.0" encoding="UTF-8"?>
<!--
This file has been modified from the original version by the kanji_colorize.py
script (available at http://github.com/cayennes/kanji-colorize) with these
settings:
    mode: spectrum
    saturation: 0.95
    value: 0.75
    image_size: 327
It remains under a Creative Commons-Attribution-Share Alike 3.0 License.

The original SVG has the following copyright:

Copyright (C) 2009/2010/2011 Ulrich Apel.
This work is distributed under the conditions of the Creative Commons
Attribution-Share Alike 3.0 Licence. This means you are free:
* to Share - to copy, distribute and transmit the work
* to Remix - to adapt the work

Under the following conditions:
* Attribution. You must attribute the work by stating your use of KanjiVG in
  your own copyright header and linking to KanjiVG's website
  (http://kanjivg.tagaini.net)
* Share Alike. If you alter, transform, or build upon this work, you may
  distribute the resulting work only under the same or similar license to this
  one.

See http://creativecommons.org/licenses/by-sa/3.0/ for more details.
-->
<!DOCTYPE svg PUBLIC "-//W3C//DTD SVG 1.0//EN" "http://www.w3.org/TR/2001/REC-SVG-20010904/DTD/svg10.dtd" [
<!ATTLIST g
xmlns:kvg CDATA #FIXED "http://kanjivg.tagaini.net"
kvg:element CDATA #IMPLIED
kvg:variant CDATA #IMPLIED
kvg:partial CDATA #IMPLIED
kvg:original CDATA #IMPLIED
kvg:part CDATA #IMPLIED
kvg:number CDATA #IMPLIED
kvg:tradForm CDATA #IMPLIED
kvg:radicalForm CDATA #IMPLIED
kvg:position CDATA #IMPLIED
kvg:radical CDATA #IMPLIED
kvg:phon CDATA #IMPLIED >
<!ATTLIST path
xmlns:kvg CDATA #FIXED "http://kanjivg.tagaini.net"
kvg:type CDATA #IMPLIED >
]>
<svg xmlns="http://www.w3.org/2000/svg" width="327" height = "327" viewBox="0 0 327 327">
<g id="kvg:StrokePaths_05ac1" style="fill:none;stroke:#000000;stroke-width:3;stroke-linecap:round;stroke-linejoin:round;" transform="scale(3.0,3.0)">
<g id="kvg:05ac1" kvg:element="嫁">
	<g id="kvg:05ac1-g1" kvg:element="女" kvg:variant="true" kvg:position="left" kvg:radical="general">
		<path style="stroke: #bf0909;" id="kvg:05ac1-s1" kvg:type="㇛" d="M28.37,18.37c0.38,1.13,0.57,2.49,0.38,4.13c-0.97,8.06-6.24,33-10.52,42.43c-0.88,1.94-0.85,2.19,0.88,2.87c5.49,2.14,10.27,4.58,15.59,10c2.09,2.13,3.77,4.83,5.31,7.7"/>
		<path style="stroke: #bf5d09;" id="kvg:05ac1-s2" kvg:type="㇒" d="M38.75,38.25c0.37,1.25,0.39,2.69,0.08,4.56C36.36,57.97,30.21,80.72,12.5,92"/>
		<path style="stroke: #bfb109;" id="kvg:05ac1-s3" kvg:type="㇀/㇐" d="M11.5,50.17c0.66,1.08,2.02,1.52,3.73,1.08c4.77-1.25,15.89-4.87,26.52-8"/>
	</g>
	<g id="kvg:05ac1-g2" kvg:element="家" kvg:position="right" kvg:phon="家">
		<g id="kvg:05ac1-g3" kvg:element="宀" kvg:position="top">
			<path style="stroke: #79bf09;" id="kvg:05ac1-s4" kvg:type="㇑a" d="M66.68,13.54C67.7,14.55,68,15.79,68,17.25c0,3.11,0.1,7.4,0.1,10.23"/>
			<g id="kvg:05ac1-g4" kvg:element="冖">
				<path style="stroke: #25bf09;" id="kvg:05ac1-s5" kvg:type="㇔" d="M49.5,27.38c0,3.36-1.37,11.61-2.19,13.86"/>
				<path style="stroke: #09bf41;" id="kvg:05ac1-s6" kvg:type="㇖b" d="M50.31,30.59C63.5,28.5,79,26.5,88.56,26.06c9.12-0.42,0.1,6.17-1.01,6.86"/>
			</g>
		</g>
		<g id="kvg:05ac1-g5" kvg:element="豕" kvg:position="bottom">
			<path style="stroke: #09bf95;" id="kvg:05ac1-s7" kvg:type="㇐" d="M54.06,42.1c1.31,0.4,3.77,0.27,5.66-0.05c6.02-1.02,14.51-1.99,18.53-2.43c1.36-0.15,2.88-0.24,4.32,0.04"/>
			<path style="stroke: #0995bf;" id="kvg:05ac1-s8" kvg:type="㇒" d="M67.63,43.38c0.14,0.94-0.05,1.79-0.64,2.51C64,49.5,58,53.88,47.88,59.5"/>
			<path style="stroke: #0941bf;" id="kvg:05ac1-s9" kvg:type="㇕v" d="M64.2,48.91C71.25,54,78,72.25,70.99,89.73c-2.18,5.44-6.57,0.32-7.45-0.45"/>
			<path style="stroke: #2509bf;" id="kvg:05ac1-s10" kvg:type="㇒" d="M66.46,56.01c0.14,0.95,0.01,1.85-0.58,2.58c-3.01,3.67-8.31,8.19-17.5,13.39"/>
			<path style="stroke: #7909bf;" id="kvg:05ac1-s11" kvg:type="㇒" d="M69.76,64.84c0.14,1.14,0.11,2.2-0.55,3.14c-3.34,4.77-10.7,12.06-22.96,19.77"/>
			<path style="stroke: #bf09b1;" id="kvg:05ac1-s12" kvg:type="㇒" d="M86.81,48.02c0.09,0.74-0.09,1.41-0.54,2.02c-2.02,2.47-4.9,5.34-10.65,8.97"/>
			<path style="stroke: #bf095d;" id="kvg:05ac1-s13" kvg:type="㇏" d="M72.34,59.47c2.69,2.75,12.4,13.34,18.18,19.25c1.47,1.5,4.36,3.78,6.46,5.36"/>
		</g>
	</g>
</g>
</g>
<g id="kvg:StrokeNumbers_05ac1" style="font-size:8;fill:#808080" transform="scale(3.0,3.0)">
	<text style="fill: #bf0909;" transform="matrix(1 0 0 1 20.50 19.50)">1</text>
	<text style="fill: #bf5d09;" transform="matrix(1 0 0 1 33.50 33.50)">2</text>
	<text style="fill: #bfb109;" transform="matrix(1 0 0 1 3.50 51.50)">3</text>
	<text style="fill: #79bf09;" transform="matrix(1 0 0 1 56.25 13.50)">4</text>
	<text style="fill: #25bf09;" transform="matrix(1 0 0 1 42.75 28.55)">5</text>
	<text style="fill: #09bf41;" transform="matrix(1 0 0 1 51.75 25.63)">6</text>
	<text style="fill: #09bf95;" transform="matrix(1 0 0 1 55.50 39.50)">7</text>
	<text style="fill: #0995bf;" transform="matrix(1 0 0 1 53.50 51.50)">8</text>
	<text style="fill: #0941bf;" transform="matrix(1 0 0 1 70.50 52.63)">9</text>
	<text style="fill: #2509bf;" transform="matrix(1 0 0 1 52.00 63.50)">10</text>
	<text style="fill: #7909bf;" transform="matrix(1 0 0 1 53.50 75.80)">11</text>
	<text style="fill: #bf09b1;" transform="matrix(1 0 0 1 76.50 47.50)">12</text>
	<text style="fill: #bf095d;" transform="matrix(1 0 0 1 81.50 67.63)">13</text>
</g>
</svg>
