<?xml version="1.0" encoding="UTF-8"?>
<!--
This file has been modified from the original version by the kanji_colorize.py
script (available at http://github.com/cayennes/kanji-colorize) with these
settings:
    mode: spectrum
    saturation: 0.95
    value: 0.75
    image_size: 327
It remains under a Creative Commons-Attribution-Share Alike 3.0 License.

The original SVG has the following copyright:

Copyright (C) 2009/2010/2011 Ulrich Apel.
This work is distributed under the conditions of the Creative Commons
Attribution-Share Alike 3.0 Licence. This means you are free:
* to Share - to copy, distribute and transmit the work
* to Remix - to adapt the work

Under the following conditions:
* Attribution. You must attribute the work by stating your use of KanjiVG in
  your own copyright header and linking to KanjiVG's website
  (http://kanjivg.tagaini.net)
* Share Alike. If you alter, transform, or build upon this work, you may
  distribute the resulting work only under the same or similar license to this
  one.

See http://creativecommons.org/licenses/by-sa/3.0/ for more details.
-->
<!DOCTYPE svg PUBLIC "-//W3C//DTD SVG 1.0//EN" "http://www.w3.org/TR/2001/REC-SVG-20010904/DTD/svg10.dtd" [
<!ATTLIST g
xmlns:kvg CDATA #FIXED "http://kanjivg.tagaini.net"
kvg:element CDATA #IMPLIED
kvg:variant CDATA #IMPLIED
kvg:partial CDATA #IMPLIED
kvg:original CDATA #IMPLIED
kvg:part CDATA #IMPLIED
kvg:number CDATA #IMPLIED
kvg:tradForm CDATA #IMPLIED
kvg:radicalForm CDATA #IMPLIED
kvg:position CDATA #IMPLIED
kvg:radical CDATA #IMPLIED
kvg:phon CDATA #IMPLIED >
<!ATTLIST path
xmlns:kvg CDATA #FIXED "http://kanjivg.tagaini.net"
kvg:type CDATA #IMPLIED >
]>
<svg xmlns="http://www.w3.org/2000/svg" width="327" height = "327" viewBox="0 0 327 327">
<g id="kvg:StrokePaths_05bc5" style="fill:none;stroke:#000000;stroke-width:3;stroke-linecap:round;stroke-linejoin:round;" transform="scale(3.0,3.0)">
<g id="kvg:05bc5" kvg:element="寅">
	<g id="kvg:05bc5-g1" kvg:element="宀" kvg:position="top" kvg:radical="general">
		<path style="stroke: #bf0909;" id="kvg:05bc5-s1" kvg:type="㇑a" d="M52,12c1.25,1.25,1.34,2.5,1.34,4.24c0,1.64-0.09,4.01-0.09,6.51"/>
		<g id="kvg:05bc5-g2" kvg:element="冖">
			<path style="stroke: #bf6c09;" id="kvg:05bc5-s2" kvg:type="㇔" d="M21.17,24.19c0,4.03-1.3,14.18-2.88,17.81"/>
			<path style="stroke: #aebf09;" id="kvg:05bc5-s3" kvg:type="㇖b" d="M21.82,27.19c13.68-1.94,38.42-4.74,63.41-5.9C91.25,21,87,27,82.83,30.87"/>
		</g>
	</g>
	<g id="kvg:05bc5-g3" kvg:position="bottom">
		<path style="stroke: #4bbf09;" id="kvg:05bc5-s4" kvg:type="㇐" d="M35,39.14c2.5,0.49,4.72,0.45,6.88,0.17c6.75-0.85,17.24-1.94,23.74-2.64c1.82-0.2,4.09-0.35,5.88,0.09"/>
		<g id="kvg:05bc5-g4" kvg:element="由">
			<g id="kvg:05bc5-g5" kvg:element="田" kvg:part="1" kvg:partial="true">
				<path style="stroke: #09bf2a;" id="kvg:05bc5-s5" kvg:type="㇑" d="M30.07,52.7c0.74,0.74,1.12,1.68,1.29,2.81c1.14,7.25,2.26,14.37,3.7,23.25"/>
				<path style="stroke: #09bf8d;" id="kvg:05bc5-s6" kvg:type="㇕a" d="M32.01,53.66c12.74-1.54,33.96-3.07,42.07-3.53c3.56-0.2,4.37,1.81,3.8,4.75c-1.26,6.5-1.98,10.31-3.54,15.76c-0.52,1.82-1.12,3.63-1.84,5.43"/>
			</g>
			<g id="kvg:05bc5-g6" kvg:element="丨">
				<path style="stroke: #098dbf;" id="kvg:05bc5-s7" kvg:type="㇑a" d="M52.74,41.32c0.91,0.91,1.03,2.05,1.03,3.56c0,7.97-0.02,27.29-0.02,29.37"/>
			</g>
			<g id="kvg:05bc5-g7" kvg:element="田" kvg:part="2" kvg:partial="true">
				<path style="stroke: #092abf;" id="kvg:05bc5-s8" kvg:type="㇐a" d="M34.31,64.73C39.88,64,65.12,62,75.36,61.6"/>
				<path style="stroke: #4b09bf;" id="kvg:05bc5-s9" kvg:type="㇐a" d="M35.88,76.75c10.37-0.88,24-2,35.97-2.45"/>
			</g>
		</g>
		<g id="kvg:05bc5-g8" kvg:element="八" kvg:variant="true">
			<g id="kvg:05bc5-g9" kvg:position="left">
				<path style="stroke: #ae09bf;" id="kvg:05bc5-s10" kvg:type="㇒" d="M40.5,84.39c0,1.11-0.16,1.92-0.89,2.66c-2.98,3.07-9.48,7.07-19.05,11.66"/>
			</g>
			<g id="kvg:05bc5-g10" kvg:position="right">
				<path style="stroke: #bf096c;" id="kvg:05bc5-s11" kvg:type="㇔" d="M66.27,83.08C73,86.75,80.5,92.75,83.81,98.22"/>
			</g>
		</g>
	</g>
</g>
</g>
<g id="kvg:StrokeNumbers_05bc5" style="font-size:8;fill:#808080" transform="scale(3.0,3.0)">
	<text style="fill: #bf0909;" transform="matrix(1 0 0 1 44.25 12.25)">1</text>
	<text style="fill: #bf6c09;" transform="matrix(1 0 0 1 14.25 26.30)">2</text>
	<text style="fill: #aebf09;" transform="matrix(1 0 0 1 24.25 23.25)">3</text>
	<text style="fill: #4bbf09;" transform="matrix(1 0 0 1 28.25 39.25)">4</text>
	<text style="fill: #09bf2a;" transform="matrix(1 0 0 1 23.25 59.25)">5</text>
	<text style="fill: #09bf8d;" transform="matrix(1 0 0 1 31.50 50.25)">6</text>
	<text style="fill: #098dbf;" transform="matrix(1 0 0 1 45.25 48.25)">7</text>
	<text style="fill: #092abf;" transform="matrix(1 0 0 1 37.50 61.35)">8</text>
	<text style="fill: #4b09bf;" transform="matrix(1 0 0 1 38.25 73.25)">9</text>
	<text style="fill: #ae09bf;" transform="matrix(1 0 0 1 27.25 87.25)">10</text>
	<text style="fill: #bf096c;" transform="matrix(1 0 0 1 56.25 85.63)">11</text>
</g>
</svg>
