<?xml version="1.0" encoding="UTF-8"?>
<!--
This file has been modified from the original version by the kanji_colorize.py
script (available at http://github.com/cayennes/kanji-colorize) with these
settings:
    mode: spectrum
    saturation: 0.95
    value: 0.75
    image_size: 327
It remains under a Creative Commons-Attribution-Share Alike 3.0 License.

The original SVG has the following copyright:

Copyright (C) 2009/2010/2011 Ulrich Apel.
This work is distributed under the conditions of the Creative Commons
Attribution-Share Alike 3.0 Licence. This means you are free:
* to Share - to copy, distribute and transmit the work
* to Remix - to adapt the work

Under the following conditions:
* Attribution. You must attribute the work by stating your use of KanjiVG in
  your own copyright header and linking to KanjiVG's website
  (http://kanjivg.tagaini.net)
* Share Alike. If you alter, transform, or build upon this work, you may
  distribute the resulting work only under the same or similar license to this
  one.

See http://creativecommons.org/licenses/by-sa/3.0/ for more details.
-->
<!DOCTYPE svg PUBLIC "-//W3C//DTD SVG 1.0//EN" "http://www.w3.org/TR/2001/REC-SVG-20010904/DTD/svg10.dtd" [
<!ATTLIST g
xmlns:kvg CDATA #FIXED "http://kanjivg.tagaini.net"
kvg:element CDATA #IMPLIED
kvg:variant CDATA #IMPLIED
kvg:partial CDATA #IMPLIED
kvg:original CDATA #IMPLIED
kvg:part CDATA #IMPLIED
kvg:number CDATA #IMPLIED
kvg:tradForm CDATA #IMPLIED
kvg:radicalForm CDATA #IMPLIED
kvg:position CDATA #IMPLIED
kvg:radical CDATA #IMPLIED
kvg:phon CDATA #IMPLIED >
<!ATTLIST path
xmlns:kvg CDATA #FIXED "http://kanjivg.tagaini.net"
kvg:type CDATA #IMPLIED >
]>
<svg xmlns="http://www.w3.org/2000/svg" width="327" height = "327" viewBox="0 0 327 327">
<g id="kvg:StrokePaths_05be6" style="fill:none;stroke:#000000;stroke-width:3;stroke-linecap:round;stroke-linejoin:round;" transform="scale(3.0,3.0)">
<g id="kvg:05be6" kvg:element="實">
	<g id="kvg:05be6-g1" kvg:element="宀" kvg:position="top" kvg:radical="general">
		<path style="stroke: #bf0909;" id="kvg:05be6-s1" kvg:type="㇑a" d="M51.84,9.06c0.91,0.29,2.2,1.74,2.18,2.59c-0.07,2.68-0.07,5.87-0.07,8.31"/>
		<g id="kvg:05be6-g2" kvg:element="冖">
			<path style="stroke: #bf5709;" id="kvg:05be6-s2" kvg:type="㇔" d="M21.32,20.33c0,3.08-2.45,11.55-3.57,13.61"/>
			<path style="stroke: #bfa509;" id="kvg:05be6-s3" kvg:type="㇖b" d="M21.2,22.38c8.69-0.9,57.53-3.52,64.59-3.8c8.46-0.33,2.17,5.28-0.57,7.21"/>
		</g>
	</g>
	<g id="kvg:05be6-g3" kvg:element="貫" kvg:position="bottom">
		<g id="kvg:05be6-g4" kvg:element="毋" kvg:variant="true" kvg:original="母" kvg:position="top">
			<path style="stroke: #8bbf09;" id="kvg:05be6-s4" kvg:type="㇛" d="m34.83,26.81c0.81,0.33,1.37,1.56,1.31,2.55-0.3,4.68-1.28,13.59-2.68,17.44-0.52,1.41-0.07,2.08,1.36,1.85,9.6,-1.54,23.93,-2.65,36.87,-2.61"/>
			<path style="stroke: #3dbf09;" id="kvg:05be6-s5" kvg:type="㇆" d="M36.19,29.4c0.83-0.06,29.75-2.5,33.87-2.43c1.6,0.02,3.06,0.96,2.74,2.5c-1.21,5.87-1.98,9.09-3.79,16.39"/>
			<path style="stroke: #09bf23;" id="kvg:05be6-s6" kvg:type="㇑a" d="M53.28,28.31c0.9,1.69-0.02,5.82,0.65,2.77c0.33-1.49-0.86,9.14-1.95,14.98"/>
			<path style="stroke: #09bf71;" id="kvg:05be6-s7" kvg:type="㇐" d="M20.88,38.38c1.51,0.39,3.09,0.78,4.19,0.71c13.01-0.85,37.02-3.74,58.5-4.54c1.82-0.07,3.4-0.1,4.31,0.23"/>
		</g>
		<g id="kvg:05be6-g5" kvg:element="貝" kvg:position="bottom">
			<g id="kvg:05be6-g6" kvg:element="目" kvg:position="top">
				<path style="stroke: #09bfbf;" id="kvg:05be6-s8" kvg:type="㇑" d="M35.37,54.35c0.56,0.71,1.37,2.24,1.37,3.17s0.11,28.9,0.11,29.37"/>
				<path style="stroke: #0971bf;" id="kvg:05be6-s9" kvg:type="㇕a" d="M37.19,55.9c3.15-0.05,27.62-2.71,30.49-2.78c2.39-0.06,3.6,0.73,3.6,2.87c0,3.69-0.39,19.32-0.38,29.5"/>
				<path style="stroke: #0923bf;" id="kvg:05be6-s10" kvg:type="㇐a" d="M37.62,65.25c8.9-0.33,25.39-2.54,33.17-2.44"/>
				<path style="stroke: #3d09bf;" id="kvg:05be6-s11" kvg:type="㇐a" d="M37.4,74.63c8.4-0.68,22.98-2,33.02-2.31"/>
				<path style="stroke: #8b09bf;" id="kvg:05be6-s12" kvg:type="㇐a" d="M37.25,84.02c10.46-0.55,21.92-1.37,32.54-1.96"/>
			</g>
			<g id="kvg:05be6-g7" kvg:position="bottom">
				<path style="stroke: #bf09a5;" id="kvg:05be6-s13" kvg:type="㇒" d="M44.21,88.46c0.51,1.03,0,2.32-1,3.04c-3.04,2.19-11.4,6.53-17.47,9.07"/>
				<path style="stroke: #bf0957;" id="kvg:05be6-s14" kvg:type="㇔" d="M63.21,88.79c6.94,3.06,15.15,8.53,17.04,11.13"/>
			</g>
		</g>
	</g>
</g>
</g>
<g id="kvg:StrokeNumbers_05be6" style="font-size:8;fill:#808080" transform="scale(3.0,3.0)">
	<text style="fill: #bf0909;" transform="matrix(1 0 0 1 45.85 9.85)">1</text>
	<text style="fill: #bf5709;" transform="matrix(1 0 0 1 14.50 21.50)">2</text>
	<text style="fill: #bfa509;" transform="matrix(1 0 0 1 24.50 18.50)">3</text>
	<text style="fill: #8bbf09;" transform="matrix(1 0 0 1 28.50 29.50)">4</text>
	<text style="fill: #3dbf09;" transform="matrix(1 0 0 1 41.50 27.50)">5</text>
	<text style="fill: #09bf23;" transform="matrix(1 0 0 1 56.50 34.50)">6</text>
	<text style="fill: #09bf71;" transform="matrix(1 0 0 1 22.50 35.50)">7</text>
	<text style="fill: #09bfbf;" transform="matrix(1 0 0 1 28.50 59.50)">8</text>
	<text style="fill: #0971bf;" transform="matrix(1 0 0 1 41.75 53.50)">9</text>
	<text style="fill: #0923bf;" transform="matrix(1 0 0 1 39.75 62.50)">10</text>
	<text style="fill: #3d09bf;" transform="matrix(1 0 0 1 40.50 71.50)">11</text>
	<text style="fill: #8b09bf;" transform="matrix(1 0 0 1 40.50 81.50)">12</text>
	<text style="fill: #bf09a5;" transform="matrix(1 0 0 1 27.75 94.23)">13</text>
	<text style="fill: #bf0957;" transform="matrix(1 0 0 1 55.50 95.50)">14</text>
</g>
</svg>
