<?xml version="1.0" encoding="UTF-8"?>
<!--
This file has been modified from the original version by the kanji_colorize.py
script (available at http://github.com/cayennes/kanji-colorize) with these
settings:
    mode: spectrum
    saturation: 0.95
    value: 0.75
    image_size: 327
It remains under a Creative Commons-Attribution-Share Alike 3.0 License.

The original SVG has the following copyright:

Copyright (C) 2009/2010/2011 Ulrich Apel.
This work is distributed under the conditions of the Creative Commons
Attribution-Share Alike 3.0 Licence. This means you are free:
* to Share - to copy, distribute and transmit the work
* to Remix - to adapt the work

Under the following conditions:
* Attribution. You must attribute the work by stating your use of KanjiVG in
  your own copyright header and linking to KanjiVG's website
  (http://kanjivg.tagaini.net)
* Share Alike. If you alter, transform, or build upon this work, you may
  distribute the resulting work only under the same or similar license to this
  one.

See http://creativecommons.org/licenses/by-sa/3.0/ for more details.
-->
<!DOCTYPE svg PUBLIC "-//W3C//DTD SVG 1.0//EN" "http://www.w3.org/TR/2001/REC-SVG-20010904/DTD/svg10.dtd" [
<!ATTLIST g
xmlns:kvg CDATA #FIXED "http://kanjivg.tagaini.net"
kvg:element CDATA #IMPLIED
kvg:variant CDATA #IMPLIED
kvg:partial CDATA #IMPLIED
kvg:original CDATA #IMPLIED
kvg:part CDATA #IMPLIED
kvg:number CDATA #IMPLIED
kvg:tradForm CDATA #IMPLIED
kvg:radicalForm CDATA #IMPLIED
kvg:position CDATA #IMPLIED
kvg:radical CDATA #IMPLIED
kvg:phon CDATA #IMPLIED >
<!ATTLIST path
xmlns:kvg CDATA #FIXED "http://kanjivg.tagaini.net"
kvg:type CDATA #IMPLIED >
]>
<svg xmlns="http://www.w3.org/2000/svg" width="327" height = "327" viewBox="0 0 327 327">
<g id="kvg:StrokePaths_05c02" style="fill:none;stroke:#000000;stroke-width:3;stroke-linecap:round;stroke-linejoin:round;" transform="scale(3.0,3.0)">
<g id="kvg:05c02" kvg:element="専">
	<g id="kvg:05c02-g1" kvg:position="top" kvg:phon="2+由">
		<path style="stroke: #bf0909;" id="kvg:05c02-s1" kvg:type="㇐" d="M22.75,21.79c2.62,0.59,5.85,0.36,8.37,0.05C46,20,66.09,17.76,77.25,17.2c2.86-0.15,5.95-0.27,8.75,0.41"/>
		<g id="kvg:05c02-g2" kvg:element="由">
			<g id="kvg:05c02-g3" kvg:element="田" kvg:part="1" kvg:partial="true">
				<path style="stroke: #bf8209;" id="kvg:05c02-s2" kvg:type="㇑" d="M27.63,33.11c0.94,0.94,1.82,2,2.08,3.32c1.41,7.2,2.39,11.9,3.72,20.05c0.25,1.5,0.49,3.05,0.72,4.65"/>
				<path style="stroke: #82bf09;" id="kvg:05c02-s3" kvg:type="㇕a" d="M29.83,34.3c14.67-2.55,33.59-4.51,43.79-5.62c4.62-0.5,6.83,0.22,6.12,5.32c-0.62,4.39-2.02,10.63-3.58,17.54c-0.32,1.42-0.65,2.85-0.98,4.29"/>
			</g>
			<g id="kvg:05c02-g4" kvg:element="田" kvg:part="2" kvg:partial="true">
				<path style="stroke: #09bf09;" id="kvg:05c02-s4" kvg:type="㇐a" d="M32.69,45.89c9.44-1.64,27.06-4.01,44.68-5.46"/>
				<path style="stroke: #09bf82;" id="kvg:05c02-s5" kvg:type="㇐a" d="M35.05,57.91c11.95-1.53,26.91-3.37,39.47-4.24"/>
			</g>
			<g id="kvg:05c02-g5" kvg:element="丨">
				<path style="stroke: #0982bf;" id="kvg:05c02-s6" kvg:type="㇑a" d="M52.29,10.5c0.79,0.79,1.44,2.28,1.44,3.78c0.04,14.8-0.02,36.15-0.02,40.01"/>
			</g>
		</g>
	</g>
	<g id="kvg:05c02-g6" kvg:element="寸" kvg:position="bottom" kvg:radical="general">
		<path style="stroke: #0909bf;" id="kvg:05c02-s7" kvg:type="㇐" d="M15.88,72.92c3.5,1.2,7.59,0.97,10.75,0.58c18-2.25,40.78-3.61,57.38-4.8c3.69-0.26,8.37-0.32,11.12,0.37"/>
		<path style="stroke: #8209bf;" id="kvg:05c02-s8" kvg:type="㇚" d="M68.04,59.58c1,1,1.43,2.79,1.43,4.77c0,6.65,0.01,23.66,0.01,28.62c0,12.03-7.07,1.78-9.13,0.25"/>
		<path style="stroke: #bf0982;" id="kvg:05c02-s9" kvg:type="㇔" d="M38.69,79.62c3.46,1.72,8.93,7.07,9.79,9.75"/>
	</g>
</g>
</g>
<g id="kvg:StrokeNumbers_05c02" style="font-size:8;fill:#808080" transform="scale(3.0,3.0)">
	<text style="fill: #bf0909;" transform="matrix(1 0 0 1 15.75 23.50)">1</text>
	<text style="fill: #bf8209;" transform="matrix(1 0 0 1 21.50 40.55)">2</text>
	<text style="fill: #82bf09;" transform="matrix(1 0 0 1 31.50 30.50)">3</text>
	<text style="fill: #09bf09;" transform="matrix(1 0 0 1 36.75 41.50)">4</text>
	<text style="fill: #09bf82;" transform="matrix(1 0 0 1 36.75 54.50)">5</text>
	<text style="fill: #0982bf;" transform="matrix(1 0 0 1 42.50 11.50)">6</text>
	<text style="fill: #0909bf;" transform="matrix(1 0 0 1 8.25 74.50)">7</text>
	<text style="fill: #8209bf;" transform="matrix(1 0 0 1 59.50 65.50)">8</text>
	<text style="fill: #bf0982;" transform="matrix(1 0 0 1 31.50 83.50)">9</text>
</g>
</svg>
