<?xml version="1.0" encoding="UTF-8"?>
<!--
This file has been modified from the original version by the kanji_colorize.py
script (available at http://github.com/cayennes/kanji-colorize) with these
settings:
    mode: spectrum
    saturation: 0.95
    value: 0.75
    image_size: 327
It remains under a Creative Commons-Attribution-Share Alike 3.0 License.

The original SVG has the following copyright:

Copyright (C) 2009/2010/2011 Ulrich Apel.
This work is distributed under the conditions of the Creative Commons
Attribution-Share Alike 3.0 Licence. This means you are free:
* to Share - to copy, distribute and transmit the work
* to Remix - to adapt the work

Under the following conditions:
* Attribution. You must attribute the work by stating your use of KanjiVG in
  your own copyright header and linking to KanjiVG's website
  (http://kanjivg.tagaini.net)
* Share Alike. If you alter, transform, or build upon this work, you may
  distribute the resulting work only under the same or similar license to this
  one.

See http://creativecommons.org/licenses/by-sa/3.0/ for more details.
-->
<!DOCTYPE svg PUBLIC "-//W3C//DTD SVG 1.0//EN" "http://www.w3.org/TR/2001/REC-SVG-20010904/DTD/svg10.dtd" [
<!ATTLIST g
xmlns:kvg CDATA #FIXED "http://kanjivg.tagaini.net"
kvg:element CDATA #IMPLIED
kvg:variant CDATA #IMPLIED
kvg:partial CDATA #IMPLIED
kvg:original CDATA #IMPLIED
kvg:part CDATA #IMPLIED
kvg:number CDATA #IMPLIED
kvg:tradForm CDATA #IMPLIED
kvg:radicalForm CDATA #IMPLIED
kvg:position CDATA #IMPLIED
kvg:radical CDATA #IMPLIED
kvg:phon CDATA #IMPLIED >
<!ATTLIST path
xmlns:kvg CDATA #FIXED "http://kanjivg.tagaini.net"
kvg:type CDATA #IMPLIED >
]>
<svg xmlns="http://www.w3.org/2000/svg" width="327" height = "327" viewBox="0 0 327 327">
<g id="kvg:StrokePaths_05c3e" style="fill:none;stroke:#000000;stroke-width:3;stroke-linecap:round;stroke-linejoin:round;" transform="scale(3.0,3.0)">
<g id="kvg:05c3e" kvg:element="尾">
	<g id="kvg:05c3e-g1" kvg:element="尸" kvg:position="tare" kvg:radical="general">
		<path style="stroke: #bf0909;" id="kvg:05c3e-s1" kvg:type="㇕c" d="M26.48,17c1.66,0.75,4.14,0.92,5.9,0.77c8.4-0.74,30.78-3.01,38.62-3.68c3.29-0.28,5.62,1.41,5.1,4.19c-0.75,3.96-1.71,6.64-2.59,9.97"/>
		<path style="stroke: #bfa509;" id="kvg:05c3e-s2" kvg:type="㇐b" d="M30.63,33.25c3.73-0.2,25.62-2.43,37.6-3.63c3.35-0.33,6.14-0.32,7.23-0.37"/>
		<path style="stroke: #3dbf09;" id="kvg:05c3e-s3" kvg:type="㇒" d="M28.8,18.25c0.98,0.98,1.11,2.38,1.08,3.88c-0.5,23.12-4.25,51-18.38,65.62"/>
	</g>
	<g id="kvg:05c3e-g2" kvg:element="毛">
		<path style="stroke: #09bf71;" id="kvg:05c3e-s4" kvg:type="㇒" d="M67.21,37.75c-0.21,0.88-0.64,1.43-1.33,1.94c-3.33,2.46-13.38,6.81-27.17,10.16"/>
		<path style="stroke: #0971bf;" id="kvg:05c3e-s5" kvg:type="㇐" d="M34.87,60.88c2.38,0.75,6.23,0.31,8.4-0.14c9.18-1.92,19.9-3.99,27.84-5.03c2.1-0.28,4.41-0.59,6.46,0.18"/>
		<path style="stroke: #3d09bf;" id="kvg:05c3e-s6" kvg:type="㇐" d="M29.53,75.23c2.1,0.83,5.81,0.41,7.96,0.03C50.25,73,64.5,70.25,78.63,68.77c2.17-0.23,4.71-0.61,6.87-0.09"/>
		<path style="stroke: #bf09a5;" id="kvg:05c3e-s7" kvg:type="㇟" d="M52.77,48.12c0.93,0.93,1.27,2.3,1.29,3.58C54.18,57.39,54,77.75,54,81.25c0,10.96,1.38,12.05,18.03,12.05c15.1,0,16.82-1.68,16.82-7.94"/>
	</g>
</g>
</g>
<g id="kvg:StrokeNumbers_05c3e" style="font-size:8;fill:#808080" transform="scale(3.0,3.0)">
	<text style="fill: #bf0909;" transform="matrix(1 0 0 1 27.50 14.50)">1</text>
	<text style="fill: #bfa509;" transform="matrix(1 0 0 1 35.25 29.50)">2</text>
	<text style="fill: #3dbf09;" transform="matrix(1 0 0 1 22.50 26.50)">3</text>
	<text style="fill: #09bf71;" transform="matrix(1 0 0 1 57.50 38.50)">4</text>
	<text style="fill: #0971bf;" transform="matrix(1 0 0 1 33.75 58.63)">5</text>
	<text style="fill: #3d09bf;" transform="matrix(1 0 0 1 28.50 72.50)">6</text>
	<text style="fill: #bf09a5;" transform="matrix(1 0 0 1 46.50 56.50)">7</text>
</g>
</svg>
