<?xml version="1.0" encoding="UTF-8"?>
<!--
This file has been modified from the original version by the kanji_colorize.py
script (available at http://github.com/cayennes/kanji-colorize) with these
settings:
    mode: spectrum
    saturation: 0.95
    value: 0.75
    image_size: 327
It remains under a Creative Commons-Attribution-Share Alike 3.0 License.

The original SVG has the following copyright:

Copyright (C) 2009/2010/2011 Ulrich Apel.
This work is distributed under the conditions of the Creative Commons
Attribution-Share Alike 3.0 Licence. This means you are free:
* to Share - to copy, distribute and transmit the work
* to Remix - to adapt the work

Under the following conditions:
* Attribution. You must attribute the work by stating your use of KanjiVG in
  your own copyright header and linking to KanjiVG's website
  (http://kanjivg.tagaini.net)
* Share Alike. If you alter, transform, or build upon this work, you may
  distribute the resulting work only under the same or similar license to this
  one.

See http://creativecommons.org/licenses/by-sa/3.0/ for more details.
-->
<!DOCTYPE svg PUBLIC "-//W3C//DTD SVG 1.0//EN" "http://www.w3.org/TR/2001/REC-SVG-20010904/DTD/svg10.dtd" [
<!ATTLIST g
xmlns:kvg CDATA #FIXED "http://kanjivg.tagaini.net"
kvg:element CDATA #IMPLIED
kvg:variant CDATA #IMPLIED
kvg:partial CDATA #IMPLIED
kvg:original CDATA #IMPLIED
kvg:part CDATA #IMPLIED
kvg:number CDATA #IMPLIED
kvg:tradForm CDATA #IMPLIED
kvg:radicalForm CDATA #IMPLIED
kvg:position CDATA #IMPLIED
kvg:radical CDATA #IMPLIED
kvg:phon CDATA #IMPLIED >
<!ATTLIST path
xmlns:kvg CDATA #FIXED "http://kanjivg.tagaini.net"
kvg:type CDATA #IMPLIED >
]>
<svg xmlns="http://www.w3.org/2000/svg" width="327" height = "327" viewBox="0 0 327 327">
<g id="kvg:StrokePaths_05c4f" style="fill:none;stroke:#000000;stroke-width:3;stroke-linecap:round;stroke-linejoin:round;" transform="scale(3.0,3.0)">
<g id="kvg:05c4f" kvg:element="屏">
	<g id="kvg:05c4f-g1" kvg:element="尸" kvg:position="tare" kvg:radical="general">
		<path style="stroke: #bf0909;" id="kvg:05c4f-s1" kvg:type="㇕c" d="M26.18,15.15c1.91,0.73,4.13,0.88,6.16,0.73C43.3,15.07,73,12.75,77.37,12.15c2.88-0.4,3.63,1.1,3.13,3.97c-0.63,3.61-2,6.13-2.87,10.44"/>
		<path style="stroke: #bf8209;" id="kvg:05c4f-s2" kvg:type="㇐b" d="M30.4,30.17c5.5-0.24,44.17-3.13,49.91-3.37"/>
		<path style="stroke: #82bf09;" id="kvg:05c4f-s3" kvg:type="㇒" d="M30.58,16.83c0,3.82-0.27,14.92-0.69,18.47C27.5,55.5,25.75,71.5,14,86"/>
	</g>
	<g id="kvg:05c4f-g2" kvg:element="并">
		<g id="kvg:05c4f-g3" kvg:position="top">
			<path style="stroke: #09bf09;" id="kvg:05c4f-s4" kvg:type="㇔" d="M43.71,34.22c2.37,1.61,6.13,6.62,6.73,9.13"/>
			<path style="stroke: #09bf82;" id="kvg:05c4f-s5" kvg:type="㇒" d="M71.05,31.39c0.02,0.3,0.04,0.77-0.03,1.19c-0.42,2.51-2.8,8.02-6.06,11.4"/>
		</g>
		<g id="kvg:05c4f-g4" kvg:position="bottom">
			<g id="kvg:05c4f-g5" kvg:element="干" kvg:part="1">
				<path style="stroke: #0982bf;" id="kvg:05c4f-s6" kvg:type="㇐" d="M36.2,47.68c1.08,0.43,3.06,0.52,4.14,0.43c7.98-0.67,31.34-4.37,41.61-4.37c1.8,0,2.88,0.2,3.78,0.42"/>
				<g id="kvg:05c4f-g6" kvg:element="十" kvg:part="1">
					<path style="stroke: #0909bf;" id="kvg:05c4f-s7" kvg:type="㇐" d="M31.25,67.16c1.4,0.49,3.97,0.6,5.37,0.49c15.17-1.13,35.99-3.61,52.47-4.19c2.33-0.08,3.74,0.23,4.91,0.48"/>
				</g>
			</g>
			<path style="stroke: #8209bf;" id="kvg:05c4f-s8" kvg:type="㇒" d="M50.4,50.34c0.57,1.28,1.38,2.28,1.38,3.88c0,14.59,0.72,32.04-18.19,43.12"/>
			<g id="kvg:05c4f-g7" kvg:element="干" kvg:part="2">
				<g id="kvg:05c4f-g8" kvg:element="十" kvg:part="2">
					<path style="stroke: #bf0982;" id="kvg:05c4f-s9" kvg:type="㇑" d="M70.38,47.43c0.74,0.4,1.18,1.79,1.33,2.58c0.15,0.8,0,45.55-0.15,50.52"/>
				</g>
			</g>
		</g>
	</g>
</g>
</g>
<g id="kvg:StrokeNumbers_05c4f" style="font-size:8;fill:#808080" transform="scale(3.0,3.0)">
	<text style="fill: #bf0909;" transform="matrix(1 0 0 1 29.85 12.50)">1</text>
	<text style="fill: #bf8209;" transform="matrix(1 0 0 1 35.66 26.50)">2</text>
	<text style="fill: #82bf09;" transform="matrix(1 0 0 1 22.50 23.50)">3</text>
	<text style="fill: #09bf09;" transform="matrix(1 0 0 1 37.50 37.50)">4</text>
	<text style="fill: #09bf82;" transform="matrix(1 0 0 1 62.50 36.50)">5</text>
	<text style="fill: #0982bf;" transform="matrix(1 0 0 1 34.25 44.50)">6</text>
	<text style="fill: #0909bf;" transform="matrix(1 0 0 1 30.50 64.50)">7</text>
	<text style="fill: #8209bf;" transform="matrix(1 0 0 1 43.25 56.10)">8</text>
	<text style="fill: #bf0982;" transform="matrix(1 0 0 1 63.50 53.50)">9</text>
</g>
</svg>
