<?xml version="1.0" encoding="UTF-8"?>
<!--
This file has been modified from the original version by the kanji_colorize.py
script (available at http://github.com/cayennes/kanji-colorize) with these
settings:
    mode: spectrum
    saturation: 0.95
    value: 0.75
    image_size: 327
It remains under a Creative Commons-Attribution-Share Alike 3.0 License.

The original SVG has the following copyright:

Copyright (C) 2009/2010/2011 Ulrich Apel.
This work is distributed under the conditions of the Creative Commons
Attribution-Share Alike 3.0 Licence. This means you are free:
* to Share - to copy, distribute and transmit the work
* to Remix - to adapt the work

Under the following conditions:
* Attribution. You must attribute the work by stating your use of KanjiVG in
  your own copyright header and linking to KanjiVG's website
  (http://kanjivg.tagaini.net)
* Share Alike. If you alter, transform, or build upon this work, you may
  distribute the resulting work only under the same or similar license to this
  one.

See http://creativecommons.org/licenses/by-sa/3.0/ for more details.
-->
<!DOCTYPE svg PUBLIC "-//W3C//DTD SVG 1.0//EN" "http://www.w3.org/TR/2001/REC-SVG-20010904/DTD/svg10.dtd" [
<!ATTLIST g
xmlns:kvg CDATA #FIXED "http://kanjivg.tagaini.net"
kvg:element CDATA #IMPLIED
kvg:variant CDATA #IMPLIED
kvg:partial CDATA #IMPLIED
kvg:original CDATA #IMPLIED
kvg:part CDATA #IMPLIED
kvg:number CDATA #IMPLIED
kvg:tradForm CDATA #IMPLIED
kvg:radicalForm CDATA #IMPLIED
kvg:position CDATA #IMPLIED
kvg:radical CDATA #IMPLIED
kvg:phon CDATA #IMPLIED >
<!ATTLIST path
xmlns:kvg CDATA #FIXED "http://kanjivg.tagaini.net"
kvg:type CDATA #IMPLIED >
]>
<svg xmlns="http://www.w3.org/2000/svg" width="327" height = "327" viewBox="0 0 327 327">
<g id="kvg:StrokePaths_05c91" style="fill:none;stroke:#000000;stroke-width:3;stroke-linecap:round;stroke-linejoin:round;" transform="scale(3.0,3.0)">
<g id="kvg:05c91" kvg:element="岑">
	<g id="kvg:05c91-g1" kvg:element="山" kvg:position="top" kvg:radical="general">
		<path style="stroke: #bf0909;" id="kvg:05c91-s1" kvg:type="㇑a" d="M52.51,9.88c0.56,0.33,1.86,1.87,1.86,3.65c0,0.67-0.07,10.58-0.18,14.73"/>
		<path style="stroke: #bfa509;" id="kvg:05c91-s2" kvg:type="㇄a" d="M25.93,15.75c0.56,0.33,1.12,1.73,1.12,2.41c0,2.59-0.3,7.84-1.59,11.76c-0.48,1.45,0.83,2.6,2.11,2.28C43,28.25,77.9,26.28,82.92,26.15"/>
		<path style="stroke: #3dbf09;" id="kvg:05c91-s3" kvg:type="㇑" d="M83.49,13.12c0.42,0.34,0.91,2.56,0.84,3.25c-0.42,4.2-1.23,9-1.9,13.09"/>
	</g>
	<g id="kvg:05c91-g2" kvg:element="今" kvg:position="bottom">
		<g id="kvg:05c91-g3" kvg:element="人" kvg:position="top">
			<path style="stroke: #09bf71;" id="kvg:05c91-s4" kvg:type="㇒" d="M52.91,32.5c0.11,0.85,0.53,2.28-0.22,3.42c-5.19,7.88-17.49,21.62-38.94,32.7"/>
			<path style="stroke: #0971bf;" id="kvg:05c91-s5" kvg:type="㇏" d="M52.66,36.4c5.71,5.18,30.29,22.1,36.58,25.89c2.14,1.29,4.88,1.84,7.01,2.2"/>
		</g>
		<g id="kvg:05c91-g4" kvg:position="bottom">
			<g id="kvg:05c91-g5" kvg:element="一">
				<path style="stroke: #3d09bf;" id="kvg:05c91-s6" kvg:type="㇐" d="M40.23,59.79c0.44,0.22,3.13,0.24,3.58,0.22c4.58-0.25,17.66-3.05,22.18-3.03c0.73,0.01,3.8,0.11,4.16,0.21"/>
			</g>
			<path style="stroke: #bf09a5;" id="kvg:05c91-s7" kvg:type="㇖" d="M30,73.24c1.5,0.51,4.07,1.1,6.5,0.75c6.31-0.91,27.75-3.7,34.49-4.87c3.99-0.69,4.52,0.44,2.51,4.12c-4.5,8.25-8,14.5-14.75,26.25"/>
		</g>
	</g>
</g>
</g>
<g id="kvg:StrokeNumbers_05c91" style="font-size:8;fill:#808080" transform="scale(3.0,3.0)">
	<text style="fill: #bf0909;" transform="matrix(1 0 0 1 45.50 10.50)">1</text>
	<text style="fill: #bfa509;" transform="matrix(1 0 0 1 18.50 15.50)">2</text>
	<text style="fill: #3dbf09;" transform="matrix(1 0 0 1 74.50 13.50)">3</text>
	<text style="fill: #09bf71;" transform="matrix(1 0 0 1 43.50 38.50)">4</text>
	<text style="fill: #0971bf;" transform="matrix(1 0 0 1 60.50 40.33)">5</text>
	<text style="fill: #3d09bf;" transform="matrix(1 0 0 1 43.50 57.50)">6</text>
	<text style="fill: #bf09a5;" transform="matrix(1 0 0 1 29.50 70.50)">7</text>
</g>
</svg>
