<?xml version="1.0" encoding="UTF-8"?>
<!--
This file has been modified from the original version by the kanji_colorize.py
script (available at http://github.com/cayennes/kanji-colorize) with these
settings:
    mode: spectrum
    saturation: 0.95
    value: 0.75
    image_size: 327
It remains under a Creative Commons-Attribution-Share Alike 3.0 License.

The original SVG has the following copyright:

Copyright (C) 2009/2010/2011 Ulrich Apel.
This work is distributed under the conditions of the Creative Commons
Attribution-Share Alike 3.0 Licence. This means you are free:
* to Share - to copy, distribute and transmit the work
* to Remix - to adapt the work

Under the following conditions:
* Attribution. You must attribute the work by stating your use of KanjiVG in
  your own copyright header and linking to KanjiVG's website
  (http://kanjivg.tagaini.net)
* Share Alike. If you alter, transform, or build upon this work, you may
  distribute the resulting work only under the same or similar license to this
  one.

See http://creativecommons.org/licenses/by-sa/3.0/ for more details.
-->
<!DOCTYPE svg PUBLIC "-//W3C//DTD SVG 1.0//EN" "http://www.w3.org/TR/2001/REC-SVG-20010904/DTD/svg10.dtd" [
<!ATTLIST g
xmlns:kvg CDATA #FIXED "http://kanjivg.tagaini.net"
kvg:element CDATA #IMPLIED
kvg:variant CDATA #IMPLIED
kvg:partial CDATA #IMPLIED
kvg:original CDATA #IMPLIED
kvg:part CDATA #IMPLIED
kvg:number CDATA #IMPLIED
kvg:tradForm CDATA #IMPLIED
kvg:radicalForm CDATA #IMPLIED
kvg:position CDATA #IMPLIED
kvg:radical CDATA #IMPLIED
kvg:phon CDATA #IMPLIED >
<!ATTLIST path
xmlns:kvg CDATA #FIXED "http://kanjivg.tagaini.net"
kvg:type CDATA #IMPLIED >
]>
<svg xmlns="http://www.w3.org/2000/svg" width="327" height = "327" viewBox="0 0 327 327">
<g id="kvg:StrokePaths_05cbe" style="fill:none;stroke:#000000;stroke-width:3;stroke-linecap:round;stroke-linejoin:round;" transform="scale(3.0,3.0)">
<g id="kvg:05cbe" kvg:element="岾">
	<g id="kvg:05cbe-g1" kvg:element="山" kvg:position="left" kvg:radical="general">
		<path style="stroke: #bf0909;" id="kvg:05cbe-s1" kvg:type="㇑a" d="M25.2,16.25c0.61,0.36,2.01,2.69,2.01,3.42c0,7.55,0.25,42.97,0.25,52.65"/>
		<path style="stroke: #bf9109;" id="kvg:05cbe-s2" kvg:type="㇄a" d="M12.29,43.01c0.67,0.4,1.39,2.07,1.33,2.88c-0.37,5.52,0.13,20.06-1.2,28.36c-0.29,1.8,0.19,2.22,1.82,1.81c9.26-2.31,14.51-3.81,25.76-6.11"/>
		<path style="stroke: #64bf09;" id="kvg:05cbe-s3" kvg:type="㇑" d="M40.72,38.66c0.67,0.4,1.33,2.96,1.33,3.76c0,6.21-0.8,21.57-1.92,32.31"/>
	</g>
	<g id="kvg:05cbe-g2" kvg:element="占" kvg:position="right">
		<g id="kvg:05cbe-g3" kvg:element="卜" kvg:variant="true" kvg:original="ト" kvg:position="top">
			<path style="stroke: #09bf36;" id="kvg:05cbe-s4" kvg:type="㇑a" d="M66.81,13.13c0.76,0.45,2.36,3.35,2.51,4.25c0.15,0.9-0.25,34.12-0.25,47.25"/>
			<path style="stroke: #09bfbf;" id="kvg:05cbe-s5" kvg:type="㇐b" d="M69.25,39.23c10.54-0.98,22.76-2.95,24.23-2.95c1.47,0,4.1,0,5.27,0.33"/>
		</g>
		<g id="kvg:05cbe-g4" kvg:element="口" kvg:position="bottom">
			<path style="stroke: #0936bf;" id="kvg:05cbe-s6" kvg:type="㇑" d="M51.41,66.34c0.42,0.52,0.85,0.96,1.04,1.61c1.46,5.17,3.21,19.43,4.21,28.71"/>
			<path style="stroke: #6409bf;" id="kvg:05cbe-s7" kvg:type="㇕b" d="M53.28,68.21c11.22-1.92,29.76-3.49,35.08-4.23c1.94-0.27,3.11,2.69,2.83,4.27c-1.15,6.51-2.59,13.72-4.18,21.97"/>
			<path style="stroke: #bf0991;" id="kvg:05cbe-s8" kvg:type="㇐b" d="M57.07,92.67c7.94-0.46,22.49-1.89,32.92-2.21"/>
		</g>
	</g>
</g>
</g>
<g id="kvg:StrokeNumbers_05cbe" style="font-size:8;fill:#808080" transform="scale(3.0,3.0)">
	<text style="fill: #bf0909;" transform="matrix(1 0 0 1 16.50 16.50)">1</text>
	<text style="fill: #bf9109;" transform="matrix(1 0 0 1 3.50 42.50)">2</text>
	<text style="fill: #64bf09;" transform="matrix(1 0 0 1 32.71 38.50)">3</text>
	<text style="fill: #09bf36;" transform="matrix(1 0 0 1 57.50 13.50)">4</text>
	<text style="fill: #09bfbf;" transform="matrix(1 0 0 1 72.50 35.50)">5</text>
	<text style="fill: #0936bf;" transform="matrix(1 0 0 1 45.50 76.50)">6</text>
	<text style="fill: #6409bf;" transform="matrix(1 0 0 1 55.50 63.50)">7</text>
	<text style="fill: #bf0991;" transform="matrix(1 0 0 1 60.50 89.50)">8</text>
</g>
</svg>
