<?xml version="1.0" encoding="UTF-8"?>
<!--
This file has been modified from the original version by the kanji_colorize.py
script (available at http://github.com/cayennes/kanji-colorize) with these
settings:
    mode: spectrum
    saturation: 0.95
    value: 0.75
    image_size: 327
It remains under a Creative Commons-Attribution-Share Alike 3.0 License.

The original SVG has the following copyright:

Copyright (C) 2009/2010/2011 Ulrich Apel.
This work is distributed under the conditions of the Creative Commons
Attribution-Share Alike 3.0 Licence. This means you are free:
* to Share - to copy, distribute and transmit the work
* to Remix - to adapt the work

Under the following conditions:
* Attribution. You must attribute the work by stating your use of KanjiVG in
  your own copyright header and linking to KanjiVG's website
  (http://kanjivg.tagaini.net)
* Share Alike. If you alter, transform, or build upon this work, you may
  distribute the resulting work only under the same or similar license to this
  one.

See http://creativecommons.org/licenses/by-sa/3.0/ for more details.
-->
<!DOCTYPE svg PUBLIC "-//W3C//DTD SVG 1.0//EN" "http://www.w3.org/TR/2001/REC-SVG-20010904/DTD/svg10.dtd" [
<!ATTLIST g
xmlns:kvg CDATA #FIXED "http://kanjivg.tagaini.net"
kvg:element CDATA #IMPLIED
kvg:variant CDATA #IMPLIED
kvg:partial CDATA #IMPLIED
kvg:original CDATA #IMPLIED
kvg:part CDATA #IMPLIED
kvg:number CDATA #IMPLIED
kvg:tradForm CDATA #IMPLIED
kvg:radicalForm CDATA #IMPLIED
kvg:position CDATA #IMPLIED
kvg:radical CDATA #IMPLIED
kvg:phon CDATA #IMPLIED >
<!ATTLIST path
xmlns:kvg CDATA #FIXED "http://kanjivg.tagaini.net"
kvg:type CDATA #IMPLIED >
]>
<svg xmlns="http://www.w3.org/2000/svg" width="327" height = "327" viewBox="0 0 327 327">
<g id="kvg:StrokePaths_05d4b" style="fill:none;stroke:#000000;stroke-width:3;stroke-linecap:round;stroke-linejoin:round;" transform="scale(3.0,3.0)">
<g id="kvg:05d4b" kvg:element="嵋">
	<g id="kvg:05d4b-g1" kvg:element="山" kvg:position="left" kvg:radical="general">
		<path style="stroke: #bf0909;" id="kvg:05d4b-s1" kvg:type="㇑a" d="M25.34,21.27c0.56,0.32,1.87,2.38,1.87,3.02c0,6.67,0.24,36.3,0.24,44.85"/>
		<path style="stroke: #bf6409;" id="kvg:05d4b-s2" kvg:type="㇄a" d="M14.76,45.52c0.62,0.35,1.29,1.83,1.24,2.54c-0.35,4.88,0.15,14.56-1.08,21.89c-0.27,1.59,0.18,1.96,1.69,1.6c8.59-2.04,12.03-2.48,22.47-4.51"/>
		<path style="stroke: #bfbf09;" id="kvg:05d4b-s3" kvg:type="㇑" d="M38.82,41.18c0.62,0.35,1.24,2.61,1.24,3.32c0,5.48-0.85,17.01-0.85,25.88"/>
	</g>
	<g id="kvg:05d4b-g2" kvg:element="眉" kvg:position="right">
		<path style="stroke: #64bf09;" id="kvg:05d4b-s4" kvg:type="㇕" d="M46.73,16.71c1.68,0.74,3.68,1.4,5.46,1.25c9.62-0.83,34.2-3.52,38.06-3.81C92.16,14,93,15.98,93,18.2c0,3.74-1.05,6.91-2.52,14.82"/>
		<path style="stroke: #09bf09;" id="kvg:05d4b-s5" kvg:type="㇑a" d="M70.19,16.2c0.49,0.3,0.78,1.35,0.88,1.95c0.1,0.6,0,13.36-0.1,17.11"/>
		<path style="stroke: #09bf64;" id="kvg:05d4b-s6" kvg:type="㇐a" d="M51.75,37.24c4.83-0.25,36.4-3.7,41.44-3.95"/>
		<path style="stroke: #09bfbf;" id="kvg:05d4b-s7" kvg:type="㇒" d="M50.96,18.45c0,4.36,0.34,16.08,0.29,20.17C50.96,60.96,47.77,78.4,35,93.11"/>
		<g id="kvg:05d4b-g3" kvg:element="目">
			<path style="stroke: #0964bf;" id="kvg:05d4b-s8" kvg:type="㇑" d="M59.33,46.73c0.48,1.08,1.18,1.89,1.18,3.33c0,1.44-0.32,44.33-0.32,45.05"/>
			<path style="stroke: #0909bf;" id="kvg:05d4b-s9" kvg:type="㇕a" d="M60.7,48.13c2.72-0.18,24.6-2.8,27.08-3.02c2.07-0.18,3.72,0.64,3.53,3.34c-0.12,1.71-0.99,29.76-0.98,45.61"/>
			<path style="stroke: #6409bf;" id="kvg:05d4b-s10" kvg:type="㇐a" d="M60.76,61.76c5.37-0.25,24.86-2.29,29.23-2.29"/>
			<path style="stroke: #bf09bf;" id="kvg:05d4b-s11" kvg:type="㇐a" d="M61.49,76.8c7.22-0.6,19.66-1.75,28.19-2.66"/>
			<path style="stroke: #bf0964;" id="kvg:05d4b-s12" kvg:type="㇐a" d="M60.76,92.95c6.2-0.32,22.14-2.11,29.15-2.11"/>
		</g>
	</g>
</g>
</g>
<g id="kvg:StrokeNumbers_05d4b" style="font-size:8;fill:#808080" transform="scale(3.0,3.0)">
	<text style="fill: #bf0909;" transform="matrix(1 0 0 1 17.85 20.50)">1</text>
	<text style="fill: #bf6409;" transform="matrix(1 0 0 1 6.50 44.50)">2</text>
	<text style="fill: #bfbf09;" transform="matrix(1 0 0 1 32.71 38.50)">3</text>
	<text style="fill: #64bf09;" transform="matrix(1 0 0 1 49.50 14.50)">4</text>
	<text style="fill: #09bf09;" transform="matrix(1 0 0 1 64.25 25.83)">5</text>
	<text style="fill: #09bf64;" transform="matrix(1 0 0 1 55.50 33.50)">6</text>
	<text style="fill: #09bfbf;" transform="matrix(1 0 0 1 43.50 26.50)">7</text>
	<text style="fill: #0964bf;" transform="matrix(1 0 0 1 53.25 56.50)">8</text>
	<text style="fill: #0909bf;" transform="matrix(1 0 0 1 62.50 44.50)">9</text>
	<text style="fill: #6409bf;" transform="matrix(1 0 0 1 64.25 58.45)">10</text>
	<text style="fill: #bf09bf;" transform="matrix(1 0 0 1 64.25 73.38)">11</text>
	<text style="fill: #bf0964;" transform="matrix(1 0 0 1 64.25 89.50)">12</text>
</g>
</svg>
