<?xml version="1.0" encoding="UTF-8"?>
<!--
This file has been modified from the original version by the kanji_colorize.py
script (available at http://github.com/cayennes/kanji-colorize) with these
settings:
    mode: spectrum
    saturation: 0.95
    value: 0.75
    image_size: 327
It remains under a Creative Commons-Attribution-Share Alike 3.0 License.

The original SVG has the following copyright:

Copyright (C) 2009/2010/2011 Ulrich Apel.
This work is distributed under the conditions of the Creative Commons
Attribution-Share Alike 3.0 Licence. This means you are free:
* to Share - to copy, distribute and transmit the work
* to Remix - to adapt the work

Under the following conditions:
* Attribution. You must attribute the work by stating your use of KanjiVG in
  your own copyright header and linking to KanjiVG's website
  (http://kanjivg.tagaini.net)
* Share Alike. If you alter, transform, or build upon this work, you may
  distribute the resulting work only under the same or similar license to this
  one.

See http://creativecommons.org/licenses/by-sa/3.0/ for more details.
-->
<!DOCTYPE svg PUBLIC "-//W3C//DTD SVG 1.0//EN" "http://www.w3.org/TR/2001/REC-SVG-20010904/DTD/svg10.dtd" [
<!ATTLIST g
xmlns:kvg CDATA #FIXED "http://kanjivg.tagaini.net"
kvg:element CDATA #IMPLIED
kvg:variant CDATA #IMPLIED
kvg:partial CDATA #IMPLIED
kvg:original CDATA #IMPLIED
kvg:part CDATA #IMPLIED
kvg:number CDATA #IMPLIED
kvg:tradForm CDATA #IMPLIED
kvg:radicalForm CDATA #IMPLIED
kvg:position CDATA #IMPLIED
kvg:radical CDATA #IMPLIED
kvg:phon CDATA #IMPLIED >
<!ATTLIST path
xmlns:kvg CDATA #FIXED "http://kanjivg.tagaini.net"
kvg:type CDATA #IMPLIED >
]>
<svg xmlns="http://www.w3.org/2000/svg" width="327" height = "327" viewBox="0 0 327 327">
<g id="kvg:StrokePaths_05ddb" style="fill:none;stroke:#000000;stroke-width:3;stroke-linecap:round;stroke-linejoin:round;" transform="scale(3.0,3.0)">
<g id="kvg:05ddb" kvg:element="巛" kvg:radical="general">
	<path style="stroke: #bf0909;" id="kvg:05ddb-s1" kvg:type="㇛" d="M35.21,14.37c1.04,0.88,1.49,4,0.75,5.75C32,29.5,27.25,40.75,20.5,52.75c-1.3,2.32-0.52,2.11,0,3C27,67,34.75,80,37.5,95.25"/>
	<path style="stroke: #09bf09;" id="kvg:05ddb-s2" kvg:type="㇛" d="M58.21,13.87c1.04,0.88,1.39,3.96,0.75,5.75C55.5,29.25,52.75,40.75,46.25,52c-0.71,1.22-0.29,2.37,0.25,3.25c6.5,10.5,13,22,17,39"/>
	<path style="stroke: #0909bf;" id="kvg:05ddb-s3" kvg:type="㇛" d="M84.21,14.87c1.04,0.88,1.35,3.94,0.75,5.75C81.5,31,77.25,41.75,70.75,53c-0.71,1.22-0.29,2.37,0.25,3.25c6.5,10.5,13,21,17,38"/>
</g>
</g>
<g id="kvg:StrokeNumbers_05ddb" style="font-size:8;fill:#808080" transform="scale(3.0,3.0)">
	<text style="fill: #bf0909;" transform="matrix(1 0 0 1 27.50 13.50)">1</text>
	<text style="fill: #09bf09;" transform="matrix(1 0 0 1 50.50 13.50)">2</text>
	<text style="fill: #0909bf;" transform="matrix(1 0 0 1 76.50 13.50)">3</text>
</g>
</svg>
