<?xml version="1.0" encoding="UTF-8"?>
<!--
This file has been modified from the original version by the kanji_colorize.py
script (available at http://github.com/cayennes/kanji-colorize) with these
settings:
    mode: spectrum
    saturation: 0.95
    value: 0.75
    image_size: 327
It remains under a Creative Commons-Attribution-Share Alike 3.0 License.

The original SVG has the following copyright:

Copyright (C) 2009/2010/2011 Ulrich Apel.
This work is distributed under the conditions of the Creative Commons
Attribution-Share Alike 3.0 Licence. This means you are free:
* to Share - to copy, distribute and transmit the work
* to Remix - to adapt the work

Under the following conditions:
* Attribution. You must attribute the work by stating your use of KanjiVG in
  your own copyright header and linking to KanjiVG's website
  (http://kanjivg.tagaini.net)
* Share Alike. If you alter, transform, or build upon this work, you may
  distribute the resulting work only under the same or similar license to this
  one.

See http://creativecommons.org/licenses/by-sa/3.0/ for more details.
-->
<!DOCTYPE svg PUBLIC "-//W3C//DTD SVG 1.0//EN" "http://www.w3.org/TR/2001/REC-SVG-20010904/DTD/svg10.dtd" [
<!ATTLIST g
xmlns:kvg CDATA #FIXED "http://kanjivg.tagaini.net"
kvg:element CDATA #IMPLIED
kvg:variant CDATA #IMPLIED
kvg:partial CDATA #IMPLIED
kvg:original CDATA #IMPLIED
kvg:part CDATA #IMPLIED
kvg:number CDATA #IMPLIED
kvg:tradForm CDATA #IMPLIED
kvg:radicalForm CDATA #IMPLIED
kvg:position CDATA #IMPLIED
kvg:radical CDATA #IMPLIED
kvg:phon CDATA #IMPLIED >
<!ATTLIST path
xmlns:kvg CDATA #FIXED "http://kanjivg.tagaini.net"
kvg:type CDATA #IMPLIED >
]>
<svg xmlns="http://www.w3.org/2000/svg" width="327" height = "327" viewBox="0 0 327 327">
<g id="kvg:StrokePaths_05e61" style="fill:none;stroke:#000000;stroke-width:3;stroke-linecap:round;stroke-linejoin:round;" transform="scale(3.0,3.0)">
<g id="kvg:05e61" kvg:element="幡">
	<g id="kvg:05e61-g1" kvg:element="巾" kvg:position="left" kvg:radical="general">
		<path style="stroke: #bf0909;" id="kvg:05e61-s1" kvg:type="㇑" d="M11.49,35.31c0.36,0.39,1.13,2.88,1.2,3.65c0.29,3.04,1.64,29.67,1.57,34.48"/>
		<path style="stroke: #bf5209;" id="kvg:05e61-s2" kvg:type="㇆a" d="M12.59,37.75c2.08-0.27,22.18-4.41,23.74-4.57c1.83-0.19,2.98,1.34,3,3.07c0.14,8.75-1.5,21.85-2.57,30.39c-0.77,6.14-4.09,1.85-4.97-0.27"/>
		<path style="stroke: #bf9a09;" id="kvg:05e61-s3" kvg:type="㇑" d="M23,14.13c0.61,0.42,1.89,3.18,2.01,4.03c0.12,0.85-0.08,74.66-0.2,79.97"/>
	</g>
	<g id="kvg:05e61-g2" kvg:element="番" kvg:position="right">
		<g id="kvg:05e61-g3" kvg:element="釆" kvg:position="top">
			<g id="kvg:05e61-g4" kvg:element="丿">
				<path style="stroke: #9abf09;" id="kvg:05e61-s4" kvg:type="㇒" d="M80.2,10.5c0.09,0.29,0.12,0.69-0.16,1.15c-2.3,3.77-14.74,7.31-29.51,10.35"/>
			</g>
			<g id="kvg:05e61-g5" kvg:element="米">
				<path style="stroke: #52bf09;" id="kvg:05e61-s5" kvg:type="㇔" d="M50.46,26.18c2.35,1.55,5.89,5.92,6.48,8.32"/>
				<path style="stroke: #09bf09;" id="kvg:05e61-s6" kvg:type="㇒" d="M87.17,20.44c0.03,0.31,0.16,0.84-0.06,1.26c-1.71,3.39-4.44,7.38-10.07,12.04"/>
				<path style="stroke: #09bf52;" id="kvg:05e61-s7" kvg:type="㇐" d="M45.99,39.54c0.59,0.15,2.17,0.39,3.74,0.44c4.33,0.15,35.11-3.75,42-3.46c1.57,0.07,1.97-0.15,2.95,0"/>
				<path style="stroke: #09bf9a;" id="kvg:05e61-s8" kvg:type="㇑" d="M66.84,21.22c1.04,0.31,1.88,1.84,1.88,2.5c0,3.91,0,35.66-0.21,39.56"/>
				<path style="stroke: #099abf;" id="kvg:05e61-s9" kvg:type="㇒" d="M68.14,39.49C63.7,47.16,53.1,57.04,43.1,61.46"/>
				<path style="stroke: #0952bf;" id="kvg:05e61-s10" kvg:type="㇏" d="M69.3,39.27c3.35,2.58,19.41,15.98,23.05,18.52c1.23,0.86,2.29,1.23,3.52,1.47"/>
			</g>
		</g>
		<g id="kvg:05e61-g6" kvg:element="田" kvg:position="bottom">
			<path style="stroke: #0909bf;" id="kvg:05e61-s11" kvg:type="㇑" d="M49.14,68.76c0.28,0.49,0.29,0.81,0.44,1.42c1.25,4.95,2.83,17.71,3.57,26.82"/>
			<path style="stroke: #5209bf;" id="kvg:05e61-s12" kvg:type="㇕a" d="M50.47,70.35c12.48-1.41,28.33-3.47,35.77-3.95c2.73-0.18,4.12,1.26,3.98,2.58c-0.62,5.48-2.43,18.35-4.52,26.77"/>
			<path style="stroke: #9a09bf;" id="kvg:05e61-s13" kvg:type="㇑a" d="M67.41,69.81c0.59,0.93,0.8,1.32,0.8,2.62c-0.02,6.15-0.32,18.97-0.32,20.97"/>
			<path style="stroke: #bf099a;" id="kvg:05e61-s14" kvg:type="㇐a" d="M52.24,82.26c3.25-0.24,32.83-3.44,35.51-3.44"/>
			<path style="stroke: #bf0952;" id="kvg:05e61-s15" kvg:type="㇐a" d="M53.66,94.87c8.61-0.32,22.1-1.76,32-1.89"/>
		</g>
	</g>
</g>
</g>
<g id="kvg:StrokeNumbers_05e61" style="font-size:8;fill:#808080" transform="scale(3.0,3.0)">
	<text style="fill: #bf0909;" transform="matrix(1 0 0 1 5.50 41.50)">1</text>
	<text style="fill: #bf5209;" transform="matrix(1 0 0 1 16.25 33.50)">2</text>
	<text style="fill: #bf9a09;" transform="matrix(1 0 0 1 15.50 14.50)">3</text>
	<text style="fill: #9abf09;" transform="matrix(1 0 0 1 72.50 10.50)">4</text>
	<text style="fill: #52bf09;" transform="matrix(1 0 0 1 43.50 29.50)">5</text>
	<text style="fill: #09bf09;" transform="matrix(1 0 0 1 79.50 22.50)">6</text>
	<text style="fill: #09bf52;" transform="matrix(1 0 0 1 45.50 37.93)">7</text>
	<text style="fill: #09bf9a;" transform="matrix(1 0 0 1 60.50 28.35)">8</text>
	<text style="fill: #099abf;" transform="matrix(1 0 0 1 54.50 48.50)">9</text>
	<text style="fill: #0952bf;" transform="matrix(1 0 0 1 78.50 46.45)">10</text>
	<text style="fill: #0909bf;" transform="matrix(1 0 0 1 40.25 76.50)">11</text>
	<text style="fill: #5209bf;" transform="matrix(1 0 0 1 53.75 66.80)">12</text>
	<text style="fill: #9a09bf;" transform="matrix(1 0 0 1 70.50 76.73)">13</text>
	<text style="fill: #bf099a;" transform="matrix(1 0 0 1 53.50 78.65)">14</text>
	<text style="fill: #bf0952;" transform="matrix(1 0 0 1 55.50 91.33)">15</text>
</g>
</svg>
