<?xml version="1.0" encoding="UTF-8"?>
<!--
This file has been modified from the original version by the kanji_colorize.py
script (available at http://github.com/cayennes/kanji-colorize) with these
settings:
    mode: spectrum
    saturation: 0.95
    value: 0.75
    image_size: 327
It remains under a Creative Commons-Attribution-Share Alike 3.0 License.

The original SVG has the following copyright:

Copyright (C) 2009/2010/2011 Ulrich Apel.
This work is distributed under the conditions of the Creative Commons
Attribution-Share Alike 3.0 Licence. This means you are free:
* to Share - to copy, distribute and transmit the work
* to Remix - to adapt the work

Under the following conditions:
* Attribution. You must attribute the work by stating your use of KanjiVG in
  your own copyright header and linking to KanjiVG's website
  (http://kanjivg.tagaini.net)
* Share Alike. If you alter, transform, or build upon this work, you may
  distribute the resulting work only under the same or similar license to this
  one.

See http://creativecommons.org/licenses/by-sa/3.0/ for more details.
-->
<!DOCTYPE svg PUBLIC "-//W3C//DTD SVG 1.0//EN" "http://www.w3.org/TR/2001/REC-SVG-20010904/DTD/svg10.dtd" [
<!ATTLIST g
xmlns:kvg CDATA #FIXED "http://kanjivg.tagaini.net"
kvg:element CDATA #IMPLIED
kvg:variant CDATA #IMPLIED
kvg:partial CDATA #IMPLIED
kvg:original CDATA #IMPLIED
kvg:part CDATA #IMPLIED
kvg:number CDATA #IMPLIED
kvg:tradForm CDATA #IMPLIED
kvg:radicalForm CDATA #IMPLIED
kvg:position CDATA #IMPLIED
kvg:radical CDATA #IMPLIED
kvg:phon CDATA #IMPLIED >
<!ATTLIST path
xmlns:kvg CDATA #FIXED "http://kanjivg.tagaini.net"
kvg:type CDATA #IMPLIED >
]>
<svg xmlns="http://www.w3.org/2000/svg" width="327" height = "327" viewBox="0 0 327 327">
<g id="kvg:StrokePaths_05e73" style="fill:none;stroke:#000000;stroke-width:3;stroke-linecap:round;stroke-linejoin:round;" transform="scale(3.0,3.0)">
<g id="kvg:05e73" kvg:element="平">
	<g id="kvg:05e73-g1" kvg:element="干" kvg:part="1" kvg:radical="tradit">
		<g id="kvg:05e73-g2" kvg:element="一" kvg:radical="nelson">
			<path style="stroke: #bf0909;" id="kvg:05e73-s1" kvg:type="㇐" d="M29.13,18.37c2.25,0.51,6.21,0.08,8.61-0.19c7.9-0.9,23.36-2.62,33.49-3.61c3.04-0.3,6.15-0.55,9.15,0.27"/>
		</g>
	</g>
	<path style="stroke: #9abf09;" id="kvg:05e73-s2" kvg:type="㇔" d="M26.75,30.38c4.69,3.83,9.88,11.88,11.06,17.84"/>
	<path style="stroke: #09bf52;" id="kvg:05e73-s3" kvg:type="㇒" d="M80.77,24.64c0.08,1.08,0.09,2.12-0.32,3.13C78.5,32.5,73.5,40.5,67.56,46.47"/>
	<g id="kvg:05e73-g3" kvg:element="干" kvg:part="2" kvg:radical="tradit">
		<g id="kvg:05e73-g4" kvg:element="十">
			<path style="stroke: #0952bf;" id="kvg:05e73-s4" kvg:type="㇐" d="M14.88,61.03c3.5,0.85,7.24,0.89,10.74,0.48c16.14-1.88,44.9-4.12,61.26-4.78c3.28-0.13,6.51-0.29,9.75,0.3"/>
			<path style="stroke: #9a09bf;" id="kvg:05e73-s5" kvg:type="㇑" d="M53.31,18.88c1.16,1.16,1.79,3.12,1.79,4.83c0,4.25-0.13,49.44-0.17,68.16c-0.01,3.48-0.01,6.04-0.01,7.26"/>
		</g>
	</g>
</g>
</g>
<g id="kvg:StrokeNumbers_05e73" style="font-size:8;fill:#808080" transform="scale(3.0,3.0)">
	<text style="fill: #bf0909;" transform="matrix(1 0 0 1 22.50 18.13)">1</text>
	<text style="fill: #9abf09;" transform="matrix(1 0 0 1 19.50 30.13)">2</text>
	<text style="fill: #09bf52;" transform="matrix(1 0 0 1 71.50 26.50)">3</text>
	<text style="fill: #0952bf;" transform="matrix(1 0 0 1 6.75 63.13)">4</text>
	<text style="fill: #9a09bf;" transform="matrix(1 0 0 1 46.50 28.63)">5</text>
</g>
</svg>
