<?xml version="1.0" encoding="UTF-8"?>
<!--
This file has been modified from the original version by the kanji_colorize.py
script (available at http://github.com/cayennes/kanji-colorize) with these
settings:
    mode: spectrum
    saturation: 0.95
    value: 0.75
    image_size: 327
It remains under a Creative Commons-Attribution-Share Alike 3.0 License.

The original SVG has the following copyright:

Copyright (C) 2009/2010/2011 Ulrich Apel.
This work is distributed under the conditions of the Creative Commons
Attribution-Share Alike 3.0 Licence. This means you are free:
* to Share - to copy, distribute and transmit the work
* to Remix - to adapt the work

Under the following conditions:
* Attribution. You must attribute the work by stating your use of KanjiVG in
  your own copyright header and linking to KanjiVG's website
  (http://kanjivg.tagaini.net)
* Share Alike. If you alter, transform, or build upon this work, you may
  distribute the resulting work only under the same or similar license to this
  one.

See http://creativecommons.org/licenses/by-sa/3.0/ for more details.
-->
<!DOCTYPE svg PUBLIC "-//W3C//DTD SVG 1.0//EN" "http://www.w3.org/TR/2001/REC-SVG-20010904/DTD/svg10.dtd" [
<!ATTLIST g
xmlns:kvg CDATA #FIXED "http://kanjivg.tagaini.net"
kvg:element CDATA #IMPLIED
kvg:variant CDATA #IMPLIED
kvg:partial CDATA #IMPLIED
kvg:original CDATA #IMPLIED
kvg:part CDATA #IMPLIED
kvg:number CDATA #IMPLIED
kvg:tradForm CDATA #IMPLIED
kvg:radicalForm CDATA #IMPLIED
kvg:position CDATA #IMPLIED
kvg:radical CDATA #IMPLIED
kvg:phon CDATA #IMPLIED >
<!ATTLIST path
xmlns:kvg CDATA #FIXED "http://kanjivg.tagaini.net"
kvg:type CDATA #IMPLIED >
]>
<svg xmlns="http://www.w3.org/2000/svg" width="327" height = "327" viewBox="0 0 327 327">
<g id="kvg:StrokePaths_05e72" style="fill:none;stroke:#000000;stroke-width:3;stroke-linecap:round;stroke-linejoin:round;" transform="scale(3.0,3.0)">
<g id="kvg:05e72" kvg:element="干" kvg:radical="general">
	<path style="stroke: #bf0909;" id="kvg:05e72-s1" kvg:type="㇐" d="M28.63,21.62c2.62,0.63,5.47,0.36,7.75,0.15c9.37-0.89,26.14-2.9,36.63-3.81c2.7-0.23,5.47-0.34,8.12,0.38"/>
	<g id="kvg:05e72-g1" kvg:element="十">
		<path style="stroke: #09bf09;" id="kvg:05e72-s2" kvg:type="㇐" d="M16.88,49.03c3.37,0.72,7.13,0.53,10.62,0.11c15.17-1.86,39.74-4.77,56.13-5.91c3.1-0.22,6.18-0.26,9.25,0.3"/>
		<path style="stroke: #0909bf;" id="kvg:05e72-s3" kvg:type="㇑" d="M52.81,21.63c1.22,1.22,1.79,2.99,1.79,4.83c0,0.85-0.02,43.7-0.12,61.54c-0.02,3.65-0.04,6.3-0.06,7.38"/>
	</g>
</g>
</g>
<g id="kvg:StrokeNumbers_05e72" style="font-size:8;fill:#808080" transform="scale(3.0,3.0)">
	<text style="fill: #bf0909;" transform="matrix(1 0 0 1 21.75 23.50)">1</text>
	<text style="fill: #09bf09;" transform="matrix(1 0 0 1 9.50 51.13)">2</text>
	<text style="fill: #0909bf;" transform="matrix(1 0 0 1 46.50 31.63)">3</text>
</g>
</svg>
