<?xml version="1.0" encoding="UTF-8"?>
<!--
This file has been modified from the original version by the kanji_colorize.py
script (available at http://github.com/cayennes/kanji-colorize) with these
settings:
    mode: spectrum
    saturation: 0.95
    value: 0.75
    image_size: 327
It remains under a Creative Commons-Attribution-Share Alike 3.0 License.

The original SVG has the following copyright:

Copyright (C) 2009/2010/2011 Ulrich Apel.
This work is distributed under the conditions of the Creative Commons
Attribution-Share Alike 3.0 Licence. This means you are free:
* to Share - to copy, distribute and transmit the work
* to Remix - to adapt the work

Under the following conditions:
* Attribution. You must attribute the work by stating your use of KanjiVG in
  your own copyright header and linking to KanjiVG's website
  (http://kanjivg.tagaini.net)
* Share Alike. If you alter, transform, or build upon this work, you may
  distribute the resulting work only under the same or similar license to this
  one.

See http://creativecommons.org/licenses/by-sa/3.0/ for more details.
-->
<!DOCTYPE svg PUBLIC "-//W3C//DTD SVG 1.0//EN" "http://www.w3.org/TR/2001/REC-SVG-20010904/DTD/svg10.dtd" [
<!ATTLIST g
xmlns:kvg CDATA #FIXED "http://kanjivg.tagaini.net"
kvg:element CDATA #IMPLIED
kvg:variant CDATA #IMPLIED
kvg:partial CDATA #IMPLIED
kvg:original CDATA #IMPLIED
kvg:part CDATA #IMPLIED
kvg:number CDATA #IMPLIED
kvg:tradForm CDATA #IMPLIED
kvg:radicalForm CDATA #IMPLIED
kvg:position CDATA #IMPLIED
kvg:radical CDATA #IMPLIED
kvg:phon CDATA #IMPLIED >
<!ATTLIST path
xmlns:kvg CDATA #FIXED "http://kanjivg.tagaini.net"
kvg:type CDATA #IMPLIED >
]>
<svg xmlns="http://www.w3.org/2000/svg" width="327" height = "327" viewBox="0 0 327 327">
<g id="kvg:StrokePaths_05f81" style="fill:none;stroke:#000000;stroke-width:3;stroke-linecap:round;stroke-linejoin:round;" transform="scale(3.0,3.0)">
<g id="kvg:05f81" kvg:element="征">
	<g id="kvg:05f81-g1" kvg:element="彳" kvg:position="left" kvg:radical="general">
		<path style="stroke: #bf0909;" id="kvg:05f81-s1" kvg:type="㇒" d="M34.08,15.5c0.13,0.96-0.52,1.9-1.08,2.59C29.78,22,21.93,28.51,13.37,33.5"/>
		<g id="kvg:05f81-g2" kvg:element="亻" kvg:variant="true" kvg:original="人">
			<path style="stroke: #bf9109;" id="kvg:05f81-s2" kvg:type="㇒" d="M35.36,35.5c0.06,0.7-0.21,1.95-0.62,2.81C31.9,44.4,23.55,56.07,13.5,64.75"/>
			<path style="stroke: #64bf09;" id="kvg:05f81-s3" kvg:type="㇑" d="M27.22,53.75c0.95,0.95,1.15,2.12,1.15,3.41c0,3.59,0.02,20.27-0.02,31.33c-0.01,3.2-0.03,5.54-0.05,6.26"/>
		</g>
	</g>
	<g id="kvg:05f81-g3" kvg:element="正" kvg:position="right" kvg:phon="正">
		<path style="stroke: #09bf36;" id="kvg:05f81-s4" kvg:type="㇐" d="M46.63,25.07c1.94,0.82,5.14,0.62,7.11,0.27c9.01-1.59,19.86-2.95,29.63-3.61c2.3-0.15,5.03-0.16,7.27,0.41"/>
		<g id="kvg:05f81-g4" kvg:element="止">
			<g id="kvg:05f81-g5" kvg:element="卜" kvg:original="ト">
				<path style="stroke: #09bfbf;" id="kvg:05f81-s5" kvg:type="㇑a" d="M66.12,26.26c1.06,1.06,1.24,2.24,1.24,4.38c0,14.2-0.12,51.51-0.12,56.35"/>
				<path style="stroke: #0936bf;" id="kvg:05f81-s6" kvg:type="㇐b" d="M68.51,55.15c3.86-0.13,9.42-0.72,17.99-1.42c1.38-0.11,2.79-0.35,4.17-0.05"/>
			</g>
			<path style="stroke: #6409bf;" id="kvg:05f81-s7" kvg:type="㇑a" d="M46.64,54.35c0.88,0.88,1.35,2.18,1.43,3.91c0.38,8.34,1.31,23.99,1.51,29.78"/>
			<path style="stroke: #bf0991;" id="kvg:05f81-s8" kvg:type="㇐" d="M35.16,88.78c3.25,1.24,6.09,0.99,9.47,0.69c8.54-0.76,27.49-2.35,45.74-3.05c2.97-0.12,6.75-0.17,9.21,0.88"/>
		</g>
	</g>
</g>
</g>
<g id="kvg:StrokeNumbers_05f81" style="font-size:8;fill:#808080" transform="scale(3.0,3.0)">
	<text style="fill: #bf0909;" transform="matrix(1 0 0 1 26.25 15.50)">1</text>
	<text style="fill: #bf9109;" transform="matrix(1 0 0 1 26.50 36.50)">2</text>
	<text style="fill: #64bf09;" transform="matrix(1 0 0 1 20.50 67.50)">3</text>
	<text style="fill: #09bf36;" transform="matrix(1 0 0 1 44.50 22.50)">4</text>
	<text style="fill: #09bfbf;" transform="matrix(1 0 0 1 59.50 34.50)">5</text>
	<text style="fill: #0936bf;" transform="matrix(1 0 0 1 72.75 51.05)">6</text>
	<text style="fill: #6409bf;" transform="matrix(1 0 0 1 38.50 53.50)">7</text>
	<text style="fill: #bf0991;" transform="matrix(1 0 0 1 33.50 86.50)">8</text>
</g>
</svg>
