<?xml version="1.0" encoding="UTF-8"?>
<!--
This file has been modified from the original version by the kanji_colorize.py
script (available at http://github.com/cayennes/kanji-colorize) with these
settings:
    mode: spectrum
    saturation: 0.95
    value: 0.75
    image_size: 327
It remains under a Creative Commons-Attribution-Share Alike 3.0 License.

The original SVG has the following copyright:

Copyright (C) 2009/2010/2011 Ulrich Apel.
This work is distributed under the conditions of the Creative Commons
Attribution-Share Alike 3.0 Licence. This means you are free:
* to Share - to copy, distribute and transmit the work
* to Remix - to adapt the work

Under the following conditions:
* Attribution. You must attribute the work by stating your use of KanjiVG in
  your own copyright header and linking to KanjiVG's website
  (http://kanjivg.tagaini.net)
* Share Alike. If you alter, transform, or build upon this work, you may
  distribute the resulting work only under the same or similar license to this
  one.

See http://creativecommons.org/licenses/by-sa/3.0/ for more details.
-->
<!DOCTYPE svg PUBLIC "-//W3C//DTD SVG 1.0//EN" "http://www.w3.org/TR/2001/REC-SVG-20010904/DTD/svg10.dtd" [
<!ATTLIST g
xmlns:kvg CDATA #FIXED "http://kanjivg.tagaini.net"
kvg:element CDATA #IMPLIED
kvg:variant CDATA #IMPLIED
kvg:partial CDATA #IMPLIED
kvg:original CDATA #IMPLIED
kvg:part CDATA #IMPLIED
kvg:number CDATA #IMPLIED
kvg:tradForm CDATA #IMPLIED
kvg:radicalForm CDATA #IMPLIED
kvg:position CDATA #IMPLIED
kvg:radical CDATA #IMPLIED
kvg:phon CDATA #IMPLIED >
<!ATTLIST path
xmlns:kvg CDATA #FIXED "http://kanjivg.tagaini.net"
kvg:type CDATA #IMPLIED >
]>
<svg xmlns="http://www.w3.org/2000/svg" width="327" height = "327" viewBox="0 0 327 327">
<g id="kvg:StrokePaths_05feb" style="fill:none;stroke:#000000;stroke-width:3;stroke-linecap:round;stroke-linejoin:round;" transform="scale(3.0,3.0)">
<g id="kvg:05feb" kvg:element="快">
	<g id="kvg:05feb-g1" kvg:element="忄" kvg:variant="true" kvg:original="心" kvg:position="left" kvg:radical="general">
		<path style="stroke: #bf0909;" id="kvg:05feb-s1" kvg:type="㇔" d="M14.75,39.5c0,6.61-2.97,16.36-3.75,18.25"/>
		<path style="stroke: #bfa509;" id="kvg:05feb-s2" kvg:type="㇔" d="M30.88,36.5c2.89,1.45,7.46,5.96,8.18,8.22"/>
		<path style="stroke: #3dbf09;" id="kvg:05feb-s3" kvg:type="㇑" d="M23.87,14.75c0.88,0.88,1.46,2.62,1.46,4c0,0.84-0.15,47.34-0.2,67.88c-0.01,4.35-0.02,7.54-0.02,8.88"/>
	</g>
	<g id="kvg:05feb-g2" kvg:element="夬" kvg:position="right" kvg:phon="夬">
		<path style="stroke: #09bf71;" id="kvg:05feb-s4" kvg:type="㇕c" d="M45.81,36.01c1.21,0.6,3.37,1.02,5.18,0.76c8.64-1.27,24.15-4.36,26.52-4.72c4.02-0.6,5.28,1.1,4.68,4.12c-0.6,3.02-2.76,14.72-2.96,17.14"/>
		<g id="kvg:05feb-g3" kvg:element="大">
			<path style="stroke: #0971bf;" id="kvg:05feb-s5" kvg:type="㇐" d="M35.95,57.85c2.55,1.15,6.28,0.65,8.92,0.26c11.63-1.74,27.45-3.58,41.14-4.72c3.34-0.28,6.4-0.5,9.69,0.33"/>
			<g id="kvg:05feb-g4" kvg:element="人">
				<path style="stroke: #3d09bf;" id="kvg:05feb-s6" kvg:type="㇒" d="M61.97,14.25c0.83,0.83,1.04,2.52,1.13,4.54C65.38,74,52.62,82.25,34.01,94.75"/>
				<path style="stroke: #bf09a5;" id="kvg:05feb-s7" kvg:type="㇏" d="M62.55,56.56c6.09,7.38,17.41,23.75,25.66,31.31c1.97,1.8,4.41,3.76,7.09,5.04"/>
			</g>
		</g>
	</g>
</g>
</g>
<g id="kvg:StrokeNumbers_05feb" style="font-size:8;fill:#808080" transform="scale(3.0,3.0)">
	<text style="fill: #bf0909;" transform="matrix(1 0 0 1 9.50 36.13)">1</text>
	<text style="fill: #bfa509;" transform="matrix(1 0 0 1 29.75 33.13)">2</text>
	<text style="fill: #3dbf09;" transform="matrix(1 0 0 1 14.50 15.88)">3</text>
	<text style="fill: #09bf71;" transform="matrix(1 0 0 1 45.50 33.50)">4</text>
	<text style="fill: #0971bf;" transform="matrix(1 0 0 1 35.50 55.33)">5</text>
	<text style="fill: #3d09bf;" transform="matrix(1 0 0 1 52.50 14.50)">6</text>
	<text style="fill: #bf09a5;" transform="matrix(1 0 0 1 73.50 65.50)">7</text>
</g>
</svg>
