<?xml version="1.0" encoding="UTF-8"?>
<!--
This file has been modified from the original version by the kanji_colorize.py
script (available at http://github.com/cayennes/kanji-colorize) with these
settings:
    mode: spectrum
    saturation: 0.95
    value: 0.75
    image_size: 327
It remains under a Creative Commons-Attribution-Share Alike 3.0 License.

The original SVG has the following copyright:

Copyright (C) 2009/2010/2011 Ulrich Apel.
This work is distributed under the conditions of the Creative Commons
Attribution-Share Alike 3.0 Licence. This means you are free:
* to Share - to copy, distribute and transmit the work
* to Remix - to adapt the work

Under the following conditions:
* Attribution. You must attribute the work by stating your use of KanjiVG in
  your own copyright header and linking to KanjiVG's website
  (http://kanjivg.tagaini.net)
* Share Alike. If you alter, transform, or build upon this work, you may
  distribute the resulting work only under the same or similar license to this
  one.

See http://creativecommons.org/licenses/by-sa/3.0/ for more details.
-->
<!DOCTYPE svg PUBLIC "-//W3C//DTD SVG 1.0//EN" "http://www.w3.org/TR/2001/REC-SVG-20010904/DTD/svg10.dtd" [
<!ATTLIST g
xmlns:kvg CDATA #FIXED "http://kanjivg.tagaini.net"
kvg:element CDATA #IMPLIED
kvg:variant CDATA #IMPLIED
kvg:partial CDATA #IMPLIED
kvg:original CDATA #IMPLIED
kvg:part CDATA #IMPLIED
kvg:number CDATA #IMPLIED
kvg:tradForm CDATA #IMPLIED
kvg:radicalForm CDATA #IMPLIED
kvg:position CDATA #IMPLIED
kvg:radical CDATA #IMPLIED
kvg:phon CDATA #IMPLIED >
<!ATTLIST path
xmlns:kvg CDATA #FIXED "http://kanjivg.tagaini.net"
kvg:type CDATA #IMPLIED >
]>
<svg xmlns="http://www.w3.org/2000/svg" width="327" height = "327" viewBox="0 0 327 327">
<g id="kvg:StrokePaths_0600e" style="fill:none;stroke:#000000;stroke-width:3;stroke-linecap:round;stroke-linejoin:round;" transform="scale(3.0,3.0)">
<g id="kvg:0600e" kvg:element="怎">
	<g id="kvg:0600e-g1" kvg:element="乍" kvg:position="top">
		<g id="kvg:0600e-g2" kvg:element="丿">
			<path style="stroke: #bf0909;" id="kvg:0600e-s1" kvg:type="㇒" d="M40.21,11c0.06,0.77,0.14,2-0.13,3.11c-1.56,6.56-10.03,20.95-22.3,29.76"/>
		</g>
		<path style="stroke: #bf8209;" id="kvg:0600e-s2" kvg:type="㇐" d="M38.35,23.91c0.93,0.28,2.64,0.32,3.58,0.28c12.31-0.58,31.01-4.09,40.18-4.74c1.72-0.12,2.47-0.18,3.63-0.06"/>
		<path style="stroke: #82bf09;" id="kvg:0600e-s3" kvg:type="㇑" d="M51.47,25.38c0.78,0.87,1.51,2.64,1.69,3.37c0.19,0.73-0.19,30.49-0.19,37.24"/>
		<path style="stroke: #09bf09;" id="kvg:0600e-s4" kvg:type="㇐b" d="M53.39,36.55c6.3-0.33,16.23-1.82,27.94-3.26c1-0.12,1.61,0.13,2.12,0.28"/>
		<path style="stroke: #09bf82;" id="kvg:0600e-s5" kvg:type="㇐b" d="M53.64,49.99C62.25,49,72.25,48,79.86,47.31c1.65-0.15,2.65,0.07,3.48,0.14"/>
	</g>
	<g id="kvg:0600e-g3" kvg:element="心" kvg:position="bottom" kvg:radical="general">
		<path style="stroke: #0982bf;" id="kvg:0600e-s6" kvg:type="㇔" d="M25.64,76.32c0.45,2.67-4.48,14.47-8.06,18.92"/>
		<path style="stroke: #0909bf;" id="kvg:0600e-s7" kvg:type="㇟b" d="M37.08,69.75c6.39,15.92,16.49,29.73,41.12,29.93c11.88,0.1,12.66-4.25,2.75-11.49"/>
		<path style="stroke: #8209bf;" id="kvg:0600e-s8" kvg:type="㇔a" d="M58.41,72.75c2.17,5.25,5.32,10.5,7.63,2.46"/>
		<path style="stroke: #bf0982;" id="kvg:0600e-s9" kvg:type="㇔" d="M80.63,66.73c5.31,2.27,9.29,4.34,13.6,11.36"/>
	</g>
</g>
</g>
<g id="kvg:StrokeNumbers_0600e" style="font-size:8;fill:#808080" transform="scale(3.0,3.0)">
	<text style="fill: #bf0909;" transform="matrix(1 0 0 1 32.50 10.50)">1</text>
	<text style="fill: #bf8209;" transform="matrix(1 0 0 1 46.50 19.50)">2</text>
	<text style="fill: #82bf09;" transform="matrix(1 0 0 1 45.50 32.50)">3</text>
	<text style="fill: #09bf09;" transform="matrix(1 0 0 1 57.50 32.50)">4</text>
	<text style="fill: #09bf82;" transform="matrix(1 0 0 1 57.50 45.50)">5</text>
	<text style="fill: #0982bf;" transform="matrix(1 0 0 1 19.50 75.50)">6</text>
	<text style="fill: #0909bf;" transform="matrix(1 0 0 1 30.50 70.50)">7</text>
	<text style="fill: #8209bf;" transform="matrix(1 0 0 1 51.50 75.50)">8</text>
	<text style="fill: #bf0982;" transform="matrix(1 0 0 1 73.50 68.50)">9</text>
</g>
</svg>
