<?xml version="1.0" encoding="UTF-8"?>
<!--
This file has been modified from the original version by the kanji_colorize.py
script (available at http://github.com/cayennes/kanji-colorize) with these
settings:
    mode: spectrum
    saturation: 0.95
    value: 0.75
    image_size: 327
It remains under a Creative Commons-Attribution-Share Alike 3.0 License.

The original SVG has the following copyright:

Copyright (C) 2009/2010/2011 Ulrich Apel.
This work is distributed under the conditions of the Creative Commons
Attribution-Share Alike 3.0 Licence. This means you are free:
* to Share - to copy, distribute and transmit the work
* to Remix - to adapt the work

Under the following conditions:
* Attribution. You must attribute the work by stating your use of KanjiVG in
  your own copyright header and linking to KanjiVG's website
  (http://kanjivg.tagaini.net)
* Share Alike. If you alter, transform, or build upon this work, you may
  distribute the resulting work only under the same or similar license to this
  one.

See http://creativecommons.org/licenses/by-sa/3.0/ for more details.
-->
<!DOCTYPE svg PUBLIC "-//W3C//DTD SVG 1.0//EN" "http://www.w3.org/TR/2001/REC-SVG-20010904/DTD/svg10.dtd" [
<!ATTLIST g
xmlns:kvg CDATA #FIXED "http://kanjivg.tagaini.net"
kvg:element CDATA #IMPLIED
kvg:variant CDATA #IMPLIED
kvg:partial CDATA #IMPLIED
kvg:original CDATA #IMPLIED
kvg:part CDATA #IMPLIED
kvg:number CDATA #IMPLIED
kvg:tradForm CDATA #IMPLIED
kvg:radicalForm CDATA #IMPLIED
kvg:position CDATA #IMPLIED
kvg:radical CDATA #IMPLIED
kvg:phon CDATA #IMPLIED >
<!ATTLIST path
xmlns:kvg CDATA #FIXED "http://kanjivg.tagaini.net"
kvg:type CDATA #IMPLIED >
]>
<svg xmlns="http://www.w3.org/2000/svg" width="327" height = "327" viewBox="0 0 327 327">
<g id="kvg:StrokePaths_06046" style="fill:none;stroke:#000000;stroke-width:3;stroke-linecap:round;stroke-linejoin:round;" transform="scale(3.0,3.0)">
<g id="kvg:06046" kvg:element="恆">
	<g id="kvg:06046-g1" kvg:element="忄" kvg:variant="true" kvg:original="心" kvg:position="left" kvg:radical="tradit">
		<path style="stroke: #bf0909;" id="kvg:06046-s1" kvg:type="㇔" d="M17.47,34.75c0.02,4.01-1.81,13.13-3.44,16.25"/>
		<path style="stroke: #bf8209;" id="kvg:06046-s2" kvg:type="㇔" d="M28.77,30.33c2.93,2.23,7.56,9.17,8.29,12.63"/>
		<path style="stroke: #82bf09;" id="kvg:06046-s3" kvg:type="㇑" d="M23.37,14.25c1.09,0.5,1.74,2.25,1.96,3.25c0.22,1,0,71.75-0.22,78"/>
	</g>
	<g id="kvg:06046-g2" kvg:element="亙" kvg:position="right">
		<g id="kvg:06046-g3" kvg:element="互" kvg:part="1" kvg:variant="true">
			<g id="kvg:06046-g4" kvg:element="二" kvg:part="1" kvg:position="top">
				<path style="stroke: #09bf09;" id="kvg:06046-s4" kvg:type="㇐" d="M40.41,22.22c0.98,0.28,2.78,0.33,3.77,0.28c9.49-0.5,34.66-4.16,44-4.16c1.64,0,2.62,0.13,3.44,0.27"/>
			</g>
		</g>
		<g id="kvg:06046-g5" kvg:element="彑" kvg:part="1" kvg:variant="true">
			<path style="stroke: #09bf82;" id="kvg:06046-s5" kvg:type="㇑" d="M55.22,24.65c0.73,1.41,0.75,4.12,0.37,6.33c-1.83,10.56-9.82,35.07-12.1,43.14"/>
			<path style="stroke: #0982bf;" id="kvg:06046-s6" kvg:type="㇕" d="M53.45,39.94c6.16-1.18,22.39-3.13,24.52-3.38c2.57-0.3,2.99,1.81,2.4,3.91c-2.17,7.79-4.65,22.52-8.99,49.67"/>
		</g>
		<g id="kvg:06046-g6" kvg:element="丶">
			<path style="stroke: #0909bf;" id="kvg:06046-s7" kvg:type="㇔" d="M57.92,48.66c3.27,1.48,8.45,6.08,9.27,8.39"/>
		</g>
		<g id="kvg:06046-g7" kvg:element="丶">
			<path style="stroke: #8209bf;" id="kvg:06046-s8" kvg:type="㇔" d="M54.76,67.06c3.22,1.66,8.33,6.81,9.14,9.38"/>
		</g>
		<g id="kvg:06046-g8" kvg:element="互" kvg:part="2" kvg:variant="true">
			<g id="kvg:06046-g9" kvg:element="彑" kvg:part="2" kvg:variant="true">
				<g id="kvg:06046-g10" kvg:element="二" kvg:part="2" kvg:position="bottom">
					<path style="stroke: #bf0982;" id="kvg:06046-s9" kvg:type="㇐" d="M33.75,92.1c1.2,0.69,3.41,0.75,4.61,0.69C51.1,92.15,79.67,89.03,92.29,90c2,0.15,3.21,0.33,4.21,0.67"/>
				</g>
			</g>
		</g>
	</g>
</g>
</g>
<g id="kvg:StrokeNumbers_06046" style="font-size:8;fill:#808080" transform="scale(3.0,3.0)">
	<text style="fill: #bf0909;" transform="matrix(1 0 0 1 12.50 33.50)">1</text>
	<text style="fill: #bf8209;" transform="matrix(1 0 0 1 29.50 27.55)">2</text>
	<text style="fill: #82bf09;" transform="matrix(1 0 0 1 14.50 13.50)">3</text>
	<text style="fill: #09bf09;" transform="matrix(1 0 0 1 38.75 18.50)">4</text>
	<text style="fill: #09bf82;" transform="matrix(1 0 0 1 48.00 31.50)">5</text>
	<text style="fill: #0982bf;" transform="matrix(1 0 0 1 60.50 35.50)">6</text>
	<text style="fill: #0909bf;" transform="matrix(1 0 0 1 54.50 56.50)">7</text>
	<text style="fill: #8209bf;" transform="matrix(1 0 0 1 49.50 74.50)">8</text>
	<text style="fill: #bf0982;" transform="matrix(1 0 0 1 32.50 89.50)">9</text>
</g>
</svg>
