<?xml version="1.0" encoding="UTF-8"?>
<!--
This file has been modified from the original version by the kanji_colorize.py
script (available at http://github.com/cayennes/kanji-colorize) with these
settings:
    mode: spectrum
    saturation: 0.95
    value: 0.75
    image_size: 327
It remains under a Creative Commons-Attribution-Share Alike 3.0 License.

The original SVG has the following copyright:

Copyright (C) 2009/2010/2011 Ulrich Apel.
This work is distributed under the conditions of the Creative Commons
Attribution-Share Alike 3.0 Licence. This means you are free:
* to Share - to copy, distribute and transmit the work
* to Remix - to adapt the work

Under the following conditions:
* Attribution. You must attribute the work by stating your use of KanjiVG in
  your own copyright header and linking to KanjiVG's website
  (http://kanjivg.tagaini.net)
* Share Alike. If you alter, transform, or build upon this work, you may
  distribute the resulting work only under the same or similar license to this
  one.

See http://creativecommons.org/licenses/by-sa/3.0/ for more details.
-->
<!DOCTYPE svg PUBLIC "-//W3C//DTD SVG 1.0//EN" "http://www.w3.org/TR/2001/REC-SVG-20010904/DTD/svg10.dtd" [
<!ATTLIST g
xmlns:kvg CDATA #FIXED "http://kanjivg.tagaini.net"
kvg:element CDATA #IMPLIED
kvg:variant CDATA #IMPLIED
kvg:partial CDATA #IMPLIED
kvg:original CDATA #IMPLIED
kvg:part CDATA #IMPLIED
kvg:number CDATA #IMPLIED
kvg:tradForm CDATA #IMPLIED
kvg:radicalForm CDATA #IMPLIED
kvg:position CDATA #IMPLIED
kvg:radical CDATA #IMPLIED
kvg:phon CDATA #IMPLIED >
<!ATTLIST path
xmlns:kvg CDATA #FIXED "http://kanjivg.tagaini.net"
kvg:type CDATA #IMPLIED >
]>
<svg xmlns="http://www.w3.org/2000/svg" width="327" height = "327" viewBox="0 0 327 327">
<g id="kvg:StrokePaths_06106" style="fill:none;stroke:#000000;stroke-width:3;stroke-linecap:round;stroke-linejoin:round;" transform="scale(3.0,3.0)">
<g id="kvg:06106" kvg:element="愆">
	<g id="kvg:06106-g1" kvg:element="衍" kvg:position="top">
		<g id="kvg:06106-g2" kvg:element="行" kvg:part="1" kvg:position="kamae">
			<g id="kvg:06106-g3" kvg:element="彳" kvg:position="left">
				<path style="stroke: #bf0909;" id="kvg:06106-s1" kvg:type="㇒" d="M32.85,12.5c0.05,0.39,0.23,1.08-0.09,1.55c-2.26,3.35-8.19,9.17-16.48,14.84"/>
				<g id="kvg:06106-g4" kvg:element="亻" kvg:variant="true" kvg:original="人">
					<path style="stroke: #bf5d09;" id="kvg:06106-s2" kvg:type="㇒" d="M39.61,25.4c0.07,0.52,0.23,1.43-0.13,2.1c-2.88,5.42-11.46,12.76-23.21,20.11"/>
					<path style="stroke: #bfb109;" id="kvg:06106-s3" kvg:type="㇑" d="M29.18,40.22c0.25,0.18,0.86,1.59,0.91,1.96c0.05,0.37,0,20.52-0.05,22.82"/>
				</g>
			</g>
		</g>
		<g id="kvg:06106-g5" kvg:element="氵" kvg:variant="true" kvg:original="水">
			<path style="stroke: #79bf09;" id="kvg:06106-s4" kvg:type="㇔" d="M46.95,13.57c2.94,1.08,7.6,4.42,8.34,6.1"/>
			<path style="stroke: #25bf09;" id="kvg:06106-s5" kvg:type="㇔" d="M46.92,30.42c2.91,1.06,7.52,4.37,8.25,6.03"/>
			<path style="stroke: #09bf41;" id="kvg:06106-s6" kvg:type="㇀" d="M44.3,58.28c1.68,0.85,3.7,0.89,4.75-0.17c3.08-3.07,6.15-6.83,8.95-10.75"/>
		</g>
		<g id="kvg:06106-g6" kvg:element="行" kvg:part="2" kvg:position="kamae">
			<g id="kvg:06106-g7" kvg:position="right">
				<path style="stroke: #09bf95;" id="kvg:06106-s7" kvg:type="㇐" d="M64.89,17.07c0.61,0.3,3.23,0.82,3.83,0.71c4.73-0.83,15.09-3.01,17.92-2.88c1.02,0.05,1.63,0.14,2.14,0.29"/>
				<path style="stroke: #0995bf;" id="kvg:06106-s8" kvg:type="㇐" d="M61.86,30.91c1.39,0.34,2.87,0.7,4.06,0.67C69.5,31.5,87,29,92.69,28.6c1.98-0.14,3.17,0.08,4.16,0.17"/>
				<path style="stroke: #0941bf;" id="kvg:06106-s9" kvg:type="㇚" d="M78.74,32.49c0.51,0.51,1.42,1.3,1.48,3.49c0.32,10.52-0.2,18.96-0.2,22.54c0,5.81-5.65-0.36-6.82-1.27"/>
			</g>
		</g>
	</g>
	<g id="kvg:06106-g8" kvg:element="心" kvg:position="bottom" kvg:radical="general">
		<path style="stroke: #2509bf;" id="kvg:06106-s10" kvg:type="㇔" d="M26.31,81.38c0.46,2.25-4.61,12.17-8.31,15.92"/>
		<path style="stroke: #7909bf;" id="kvg:06106-s11" kvg:type="㇟b" d="M35.5,73.82c6.51,12.99,16.81,24.27,41.93,24.43c12.12,0.08,12.91-3.47,2.8-9.38"/>
		<path style="stroke: #bf09b1;" id="kvg:06106-s12" kvg:type="㇔a" d="M56.33,72.32c2.17,5.25,5.82,9.5,8.13,1.46"/>
		<path style="stroke: #bf095d;" id="kvg:06106-s13" kvg:type="㇔" d="M81.8,70.3c5.21,2.07,9.12,3.96,13.35,10.36"/>
	</g>
</g>
</g>
<g id="kvg:StrokeNumbers_06106" style="font-size:8;fill:#808080" transform="scale(3.0,3.0)">
	<text style="fill: #bf0909;" transform="matrix(1 0 0 1 25.50 12.50)">1</text>
	<text style="fill: #bf5d09;" transform="matrix(1 0 0 1 31.50 26.50)">2</text>
	<text style="fill: #bfb109;" transform="matrix(1 0 0 1 23.50 52.50)">3</text>
	<text style="fill: #79bf09;" transform="matrix(1 0 0 1 41.50 10.50)">4</text>
	<text style="fill: #25bf09;" transform="matrix(1 0 0 1 45.50 27.50)">5</text>
	<text style="fill: #09bf41;" transform="matrix(1 0 0 1 37.50 61.50)">6</text>
	<text style="fill: #09bf95;" transform="matrix(1 0 0 1 63.50 13.50)">7</text>
	<text style="fill: #0995bf;" transform="matrix(1 0 0 1 60.50 27.50)">8</text>
	<text style="fill: #0941bf;" transform="matrix(1 0 0 1 72.50 41.50)">9</text>
	<text style="fill: #2509bf;" transform="matrix(1 0 0 1 17.50 78.95)">10</text>
	<text style="fill: #7909bf;" transform="matrix(1 0 0 1 29.50 85.50)">11</text>
	<text style="fill: #bf09b1;" transform="matrix(1 0 0 1 45.50 75.50)">12</text>
	<text style="fill: #bf095d;" transform="matrix(1 0 0 1 70.50 74.50)">13</text>
</g>
</svg>
