<?xml version="1.0" encoding="UTF-8"?>
<!--
This file has been modified from the original version by the kanji_colorize.py
script (available at http://github.com/cayennes/kanji-colorize) with these
settings:
    mode: spectrum
    saturation: 0.95
    value: 0.75
    image_size: 327
It remains under a Creative Commons-Attribution-Share Alike 3.0 License.

The original SVG has the following copyright:

Copyright (C) 2009/2010/2011 Ulrich Apel.
This work is distributed under the conditions of the Creative Commons
Attribution-Share Alike 3.0 Licence. This means you are free:
* to Share - to copy, distribute and transmit the work
* to Remix - to adapt the work

Under the following conditions:
* Attribution. You must attribute the work by stating your use of KanjiVG in
  your own copyright header and linking to KanjiVG's website
  (http://kanjivg.tagaini.net)
* Share Alike. If you alter, transform, or build upon this work, you may
  distribute the resulting work only under the same or similar license to this
  one.

See http://creativecommons.org/licenses/by-sa/3.0/ for more details.
-->
<!DOCTYPE svg PUBLIC "-//W3C//DTD SVG 1.0//EN" "http://www.w3.org/TR/2001/REC-SVG-20010904/DTD/svg10.dtd" [
<!ATTLIST g
xmlns:kvg CDATA #FIXED "http://kanjivg.tagaini.net"
kvg:element CDATA #IMPLIED
kvg:variant CDATA #IMPLIED
kvg:partial CDATA #IMPLIED
kvg:original CDATA #IMPLIED
kvg:part CDATA #IMPLIED
kvg:number CDATA #IMPLIED
kvg:tradForm CDATA #IMPLIED
kvg:radicalForm CDATA #IMPLIED
kvg:position CDATA #IMPLIED
kvg:radical CDATA #IMPLIED
kvg:phon CDATA #IMPLIED >
<!ATTLIST path
xmlns:kvg CDATA #FIXED "http://kanjivg.tagaini.net"
kvg:type CDATA #IMPLIED >
]>
<svg xmlns="http://www.w3.org/2000/svg" width="327" height = "327" viewBox="0 0 327 327">
<g id="kvg:StrokePaths_06121" style="fill:none;stroke:#000000;stroke-width:3;stroke-linecap:round;stroke-linejoin:round;" transform="scale(3.0,3.0)">
<g id="kvg:06121" kvg:element="愡">
	<g id="kvg:06121-g1" kvg:element="忄" kvg:variant="true" kvg:original="心" kvg:position="left" kvg:radical="general">
		<path style="stroke: #bf0909;" id="kvg:06121-s1" kvg:type="㇔" d="M15.97,36c0.02,4.31-1.81,14.14-3.44,17.5"/>
		<path style="stroke: #bf6409;" id="kvg:06121-s2" kvg:type="㇔" d="M30.77,34.58c1.87,2.36,4.83,9.71,5.29,13.38"/>
		<path style="stroke: #bfbf09;" id="kvg:06121-s3" kvg:type="㇑" d="M22.87,13.75c1.09,0.5,1.74,2.25,1.96,3.25c0.22,1,0,73.75-0.22,80"/>
	</g>
	<g id="kvg:06121-g2" kvg:element="怱" kvg:position="right">
		<g id="kvg:06121-g3" kvg:element="匆" kvg:position="top">
			<g id="kvg:06121-g4" kvg:element="勹">
				<g id="kvg:06121-g5" kvg:element="丿">
					<path style="stroke: #64bf09;" id="kvg:06121-s4" kvg:type="㇒" d="M58.06,13.25c0.04,0.6,0.09,1.55-0.09,2.42c-1.07,5.1-6.94,15.15-15,23.14"/>
				</g>
				<path style="stroke: #09bf09;" id="kvg:06121-s5" kvg:type="㇆" d="M54.17,27.47c0.83,0.35,2,0.47,3.34,0.23c1.33-0.23,28.51-3.03,31.85-3.14c3.33-0.12,3.27,2.02,3.07,4.52c-0.6,7.73-4.59,23.38-10.64,34.34c-2.83,5.13-6.35,0.35-7.9-1.94"/>
			</g>
			<path style="stroke: #09bf64;" id="kvg:06121-s6" kvg:type="㇒" d="M62.42,30.23c0.05,0.57,0.14,1.49-0.09,2.3c-2.26,7.94-7.67,15.51-16.61,22.03"/>
			<path style="stroke: #09bfbf;" id="kvg:06121-s7" kvg:type="㇒" d="M77.38,28.76c0.07,0.86,0.14,2.23-0.14,3.46c-1.66,7.3-10.64,23.31-23.67,33.11"/>
			<path style="stroke: #0964bf;" id="kvg:06121-s8" kvg:type="㇔" d="M54.5,39.37c7.32,2.12,18.9,8.72,20.73,12.01"/>
		</g>
		<g id="kvg:06121-g6" kvg:element="心" kvg:position="bottom" kvg:radical="nelson">
			<path style="stroke: #0909bf;" id="kvg:06121-s9" kvg:type="㇔" d="M42.18,79.78c0.24,2.26-2.41,12.25-4.35,16.03"/>
			<path style="stroke: #6409bf;" id="kvg:06121-s10" kvg:type="㇟b" d="M49.97,77.38C55.5,90.5,63.32,99.54,84.17,98.7c10.61-0.43,11.82-3.57,2.96-7.97"/>
			<path style="stroke: #bf09bf;" id="kvg:06121-s11" kvg:type="㇔a" d="M62.11,74.31c2,5.13,4.92,10.25,7.06,2.4"/>
			<path style="stroke: #bf0964;" id="kvg:06121-s12" kvg:type="㇔" d="M84.89,73.41c3.94,2.02,6.9,3.85,10.1,10.08"/>
		</g>
	</g>
</g>
</g>
<g id="kvg:StrokeNumbers_06121" style="font-size:8;fill:#808080" transform="scale(3.0,3.0)">
	<text style="fill: #bf0909;" transform="matrix(1 0 0 1 10.50 37.50)">1</text>
	<text style="fill: #bf6409;" transform="matrix(1 0 0 1 30.50 31.50)">2</text>
	<text style="fill: #bfbf09;" transform="matrix(1 0 0 1 14.50 14.50)">3</text>
	<text style="fill: #64bf09;" transform="matrix(1 0 0 1 49.50 12.50)">4</text>
	<text style="fill: #09bf09;" transform="matrix(1 0 0 1 61.50 24.50)">5</text>
	<text style="fill: #09bf64;" transform="matrix(1 0 0 1 53.50 35.50)">6</text>
	<text style="fill: #09bfbf;" transform="matrix(1 0 0 1 70.50 34.50)">7</text>
	<text style="fill: #0964bf;" transform="matrix(1 0 0 1 46.50 43.50)">8</text>
	<text style="fill: #0909bf;" transform="matrix(1 0 0 1 35.50 82.50)">9</text>
	<text style="fill: #6409bf;" transform="matrix(1 0 0 1 44.50 87.50)">10</text>
	<text style="fill: #bf09bf;" transform="matrix(1 0 0 1 54.50 77.50)">11</text>
	<text style="fill: #bf0964;" transform="matrix(1 0 0 1 75.00 76.50)">12</text>
</g>
</svg>
