<?xml version="1.0" encoding="UTF-8"?>
<!--
This file has been modified from the original version by the kanji_colorize.py
script (available at http://github.com/cayennes/kanji-colorize) with these
settings:
    mode: spectrum
    saturation: 0.95
    value: 0.75
    image_size: 327
It remains under a Creative Commons-Attribution-Share Alike 3.0 License.

The original SVG has the following copyright:

Copyright (C) 2009/2010/2011 Ulrich Apel.
This work is distributed under the conditions of the Creative Commons
Attribution-Share Alike 3.0 Licence. This means you are free:
* to Share - to copy, distribute and transmit the work
* to Remix - to adapt the work

Under the following conditions:
* Attribution. You must attribute the work by stating your use of KanjiVG in
  your own copyright header and linking to KanjiVG's website
  (http://kanjivg.tagaini.net)
* Share Alike. If you alter, transform, or build upon this work, you may
  distribute the resulting work only under the same or similar license to this
  one.

See http://creativecommons.org/licenses/by-sa/3.0/ for more details.
-->
<!DOCTYPE svg PUBLIC "-//W3C//DTD SVG 1.0//EN" "http://www.w3.org/TR/2001/REC-SVG-20010904/DTD/svg10.dtd" [
<!ATTLIST g
xmlns:kvg CDATA #FIXED "http://kanjivg.tagaini.net"
kvg:element CDATA #IMPLIED
kvg:variant CDATA #IMPLIED
kvg:partial CDATA #IMPLIED
kvg:original CDATA #IMPLIED
kvg:part CDATA #IMPLIED
kvg:number CDATA #IMPLIED
kvg:tradForm CDATA #IMPLIED
kvg:radicalForm CDATA #IMPLIED
kvg:position CDATA #IMPLIED
kvg:radical CDATA #IMPLIED
kvg:phon CDATA #IMPLIED >
<!ATTLIST path
xmlns:kvg CDATA #FIXED "http://kanjivg.tagaini.net"
kvg:type CDATA #IMPLIED >
]>
<svg xmlns="http://www.w3.org/2000/svg" width="327" height = "327" viewBox="0 0 327 327">
<g id="kvg:StrokePaths_0613f" style="fill:none;stroke:#000000;stroke-width:3;stroke-linecap:round;stroke-linejoin:round;" transform="scale(3.0,3.0)">
<g id="kvg:0613f" kvg:element="愿">
	<g id="kvg:0613f-g1" kvg:element="原" kvg:position="top">
		<g id="kvg:0613f-g2" kvg:element="厂" kvg:position="tare">
			<path style="stroke: #bf0909;" id="kvg:0613f-s1" kvg:type="㇐" d="M24.52,14.32c1.4,0.44,3.97,0.52,5.37,0.44c14.57-0.74,35.61-3.01,53.59-3.47c2.33-0.06,3.73,0.21,4.9,0.44"/>
			<path style="stroke: #bf5709;" id="kvg:0613f-s2" kvg:type="㇒" d="M29.5,15.59c0.04,1.22,0.08,3.14-0.09,4.89C28,34.5,24.5,54.25,14,66.93"/>
		</g>
		<g id="kvg:0613f-g3" kvg:position="top">
			<path style="stroke: #bfa509;" id="kvg:0613f-s3" kvg:type="㇔" d="M55.41,16.01c0.34,0.99,0.07,2.32-0.12,2.58c-1.54,2.16-2.29,3.66-5.66,6.52"/>
		</g>
		<g id="kvg:0613f-g4" kvg:element="日" kvg:position="bottom">
			<path style="stroke: #8bbf09;" id="kvg:0613f-s4" kvg:type="㇑" d="M36.75,25.12c0.7,0.48,1.6,1.71,1.75,2.38c0.5,2.25,3.23,15.65,3.74,19"/>
			<path style="stroke: #3dbf09;" id="kvg:0613f-s5" kvg:type="㇕a" d="M39.54,26.4c3.78-0.25,35.49-3.14,38.94-3.39c2.87-0.21,4.4,1.74,4.02,3.39c-0.75,3.27-2.75,8.85-5.39,17.04"/>
			<path style="stroke: #09bf23;" id="kvg:0613f-s6" kvg:type="㇐a" d="M40.82,35.12c5.13-0.23,32.55-2.88,38.35-3.14"/>
			<path style="stroke: #09bf71;" id="kvg:0613f-s7" kvg:type="㇐a" d="M42.29,44.5c8.96-1.23,26.21-2.14,35.23-2.87"/>
		</g>
		<g id="kvg:0613f-g5" kvg:element="小">
			<path style="stroke: #09bfbf;" id="kvg:0613f-s8" kvg:type="㇚" d="M58.02,44.12c0.98,0.63,1.41,2,1.41,3.22c0,9.41-0.19,15.49-0.19,17.49c0,6.92-7.24-0.98-8.34-1.49"/>
			<path style="stroke: #0971bf;" id="kvg:0613f-s9" kvg:type="㇒" d="M42.41,52.83c0.05,0.33,0.24,0.92-0.09,1.33c-2.24,2.74-6.87,8.01-16.56,12.71"/>
			<path style="stroke: #0923bf;" id="kvg:0613f-s10" kvg:type="㇔" d="M70.5,51.2c6.53,2.18,16.87,8.95,18.5,12.33"/>
		</g>
	</g>
	<g id="kvg:0613f-g6" kvg:element="心" kvg:position="bottom" kvg:radical="general">
		<path style="stroke: #3d09bf;" id="kvg:0613f-s11" kvg:type="㇔" d="M24.14,79.82c0.39,2.46-3.92,13.32-7.06,17.42"/>
		<path style="stroke: #8b09bf;" id="kvg:0613f-s12" kvg:type="㇟b" d="M34.33,75c6.58,12.46,16.97,23.28,42.33,23.43c12.23,0.08,13.03-3.32,2.83-9"/>
		<path style="stroke: #bf09a5;" id="kvg:0613f-s13" kvg:type="㇔a" d="M57.41,76.25c2.17,5.25,5.32,10.5,7.63,2.46"/>
		<path style="stroke: #bf0957;" id="kvg:0613f-s14" kvg:type="㇔" d="M81.88,71.98c5.41,2.32,9.46,4.43,13.85,11.61"/>
	</g>
</g>
</g>
<g id="kvg:StrokeNumbers_0613f" style="font-size:8;fill:#808080" transform="scale(3.0,3.0)">
	<text style="fill: #bf0909;" transform="matrix(1 0 0 1 29.50 11.13)">1</text>
	<text style="fill: #bf5709;" transform="matrix(1 0 0 1 20.50 23.50)">2</text>
	<text style="fill: #bfa509;" transform="matrix(1 0 0 1 47.50 20.50)">3</text>
	<text style="fill: #8bbf09;" transform="matrix(1 0 0 1 31.75 33.50)">4</text>
	<text style="fill: #3dbf09;" transform="matrix(1 0 0 1 39.75 23.50)">5</text>
	<text style="fill: #09bf23;" transform="matrix(1 0 0 1 44.50 33.50)">6</text>
	<text style="fill: #09bf71;" transform="matrix(1 0 0 1 45.50 42.50)">7</text>
	<text style="fill: #09bfbf;" transform="matrix(1 0 0 1 51.50 52.50)">8</text>
	<text style="fill: #0971bf;" transform="matrix(1 0 0 1 33.50 54.50)">9</text>
	<text style="fill: #0923bf;" transform="matrix(1 0 0 1 63.50 58.50)">10</text>
	<text style="fill: #3d09bf;" transform="matrix(1 0 0 1 15.50 81.50)">11</text>
	<text style="fill: #8b09bf;" transform="matrix(1 0 0 1 28.50 85.50)">12</text>
	<text style="fill: #bf09a5;" transform="matrix(1 0 0 1 47.75 79.50)">13</text>
	<text style="fill: #bf0957;" transform="matrix(1 0 0 1 72.50 78.50)">14</text>
</g>
</svg>
