<?xml version="1.0" encoding="UTF-8"?>
<!--
This file has been modified from the original version by the kanji_colorize.py
script (available at http://github.com/cayennes/kanji-colorize) with these
settings:
    mode: spectrum
    saturation: 0.95
    value: 0.75
    image_size: 327
It remains under a Creative Commons-Attribution-Share Alike 3.0 License.

The original SVG has the following copyright:

Copyright (C) 2009/2010/2011 Ulrich Apel.
This work is distributed under the conditions of the Creative Commons
Attribution-Share Alike 3.0 Licence. This means you are free:
* to Share - to copy, distribute and transmit the work
* to Remix - to adapt the work

Under the following conditions:
* Attribution. You must attribute the work by stating your use of KanjiVG in
  your own copyright header and linking to KanjiVG's website
  (http://kanjivg.tagaini.net)
* Share Alike. If you alter, transform, or build upon this work, you may
  distribute the resulting work only under the same or similar license to this
  one.

See http://creativecommons.org/licenses/by-sa/3.0/ for more details.
-->
<!DOCTYPE svg PUBLIC "-//W3C//DTD SVG 1.0//EN" "http://www.w3.org/TR/2001/REC-SVG-20010904/DTD/svg10.dtd" [
<!ATTLIST g
xmlns:kvg CDATA #FIXED "http://kanjivg.tagaini.net"
kvg:element CDATA #IMPLIED
kvg:variant CDATA #IMPLIED
kvg:partial CDATA #IMPLIED
kvg:original CDATA #IMPLIED
kvg:part CDATA #IMPLIED
kvg:number CDATA #IMPLIED
kvg:tradForm CDATA #IMPLIED
kvg:radicalForm CDATA #IMPLIED
kvg:position CDATA #IMPLIED
kvg:radical CDATA #IMPLIED
kvg:phon CDATA #IMPLIED >
<!ATTLIST path
xmlns:kvg CDATA #FIXED "http://kanjivg.tagaini.net"
kvg:type CDATA #IMPLIED >
]>
<svg xmlns="http://www.w3.org/2000/svg" width="327" height = "327" viewBox="0 0 327 327">
<g id="kvg:StrokePaths_0613d" style="fill:none;stroke:#000000;stroke-width:3;stroke-linecap:round;stroke-linejoin:round;" transform="scale(3.0,3.0)">
<g id="kvg:0613d" kvg:element="愽">
	<g id="kvg:0613d-g1" kvg:element="忄" kvg:variant="true" kvg:original="心" kvg:position="left" kvg:radical="general">
		<path style="stroke: #bf0909;" id="kvg:0613d-s1" kvg:type="㇔" d="M17.47,33.5c0.03,4.31-2.07,14.14-3.94,17.5"/>
		<path style="stroke: #bf5d09;" id="kvg:0613d-s2" kvg:type="㇔" d="M32.27,31.33c1.87,2.23,4.83,9.17,5.29,12.63"/>
		<path style="stroke: #bfb109;" id="kvg:0613d-s3" kvg:type="㇑" d="M23.87,14.25c1.09,0.5,1.74,2.25,1.96,3.25c0.22,1,0,73.75-0.22,80"/>
	</g>
	<g id="kvg:0613d-g2" kvg:position="right">
		<g id="kvg:0613d-g3" kvg:element="甫" kvg:position="top">
			<path style="stroke: #79bf09;" id="kvg:0613d-s4" kvg:type="㇐" d="M45.26,23.4c1.08,0.38,3.05,0.45,4.12,0.38c5.17-0.34,17.86-1.53,29.34-2.7c1.78-0.18,2.87,0.18,3.76,0.38"/>
			<g id="kvg:0613d-g4" kvg:element="用" kvg:variant="true">
				<path style="stroke: #25bf09;" id="kvg:0613d-s5" kvg:type="㇑" d="M45.71,32.52c0.52,0.57,0.86,1.14,1.04,1.72c0.17,0.57-0.21,24.98-0.19,30.14"/>
				<path style="stroke: #09bf41;" id="kvg:0613d-s6" kvg:type="㇆" d="M47.79,34.03c5.82-0.24,32.37-2.97,33.91-3.13c2.77-0.29,3.8,1.86,3.46,2.72c-0.04,1.93-0.44,13.49-0.44,26.57"/>
				<path style="stroke: #09bf95;" id="kvg:0613d-s7" kvg:type="㇐" d="M47.79,43.82c7.71-0.5,29.94-2.16,36.16-2.59"/>
				<path style="stroke: #0995bf;" id="kvg:0613d-s8" kvg:type="㇐" d="M47.95,54.01c5.53-0.43,30.08-2.17,36.47-2.46"/>
				<path style="stroke: #0941bf;" id="kvg:0613d-s9" kvg:type="㇑" d="M62.86,12.74c1.04,0.48,1.67,2.15,1.88,3.11c0.21,0.96,0,40.14-0.21,46.12"/>
			</g>
			<g id="kvg:0613d-g5" kvg:element="丶">
				<path style="stroke: #2509bf;" id="kvg:0613d-s10" kvg:type="㇔" d="M80.78,12c3.57,1.51,9.23,6.21,10.12,8.56"/>
			</g>
		</g>
		<g id="kvg:0613d-g6" kvg:element="寸" kvg:position="bottom">
			<path style="stroke: #7909bf;" id="kvg:0613d-s11" kvg:type="㇐" d="M34.38,72.67c1.15,0.58,3.23,0.66,4.39,0.58c14.23-0.99,39.36-3.32,53.35-4.2c1.91-0.12,3.05,0.27,4.01,0.56"/>
			<path style="stroke: #bf09b1;" id="kvg:0613d-s12" kvg:type="㇚" d="M76.44,59.8c0.06,0.35,0.91,1.8,0.91,3.99c0,14.75-0.18,24.44-0.18,28.03c0,8.7-5.44,1.29-7.02,0.18"/>
			<path style="stroke: #bf095d;" id="kvg:0613d-s13" kvg:type="㇔" d="M50.39,79.08c2.27,1.78,5.87,7.31,6.44,10.07"/>
		</g>
	</g>
</g>
</g>
<g id="kvg:StrokeNumbers_0613d" style="font-size:8;fill:#808080" transform="scale(3.0,3.0)">
	<text style="fill: #bf0909;" transform="matrix(1 0 0 1 12.50 32.63)">1</text>
	<text style="fill: #bf5d09;" transform="matrix(1 0 0 1 30.50 27.50)">2</text>
	<text style="fill: #bfb109;" transform="matrix(1 0 0 1 15.75 15.50)">3</text>
	<text style="fill: #79bf09;" transform="matrix(1 0 0 1 42.50 20.15)">4</text>
	<text style="fill: #25bf09;" transform="matrix(1 0 0 1 38.50 36.50)">5</text>
	<text style="fill: #09bf41;" transform="matrix(1 0 0 1 49.50 32.50)">6</text>
	<text style="fill: #09bf95;" transform="matrix(1 0 0 1 50.50 41.50)">7</text>
	<text style="fill: #0995bf;" transform="matrix(1 0 0 1 50.50 51.35)">8</text>
	<text style="fill: #0941bf;" transform="matrix(1 0 0 1 55.50 12.50)">9</text>
	<text style="fill: #2509bf;" transform="matrix(1 0 0 1 71.50 12.50)">10</text>
	<text style="fill: #7909bf;" transform="matrix(1 0 0 1 32.50 69.13)">11</text>
	<text style="fill: #bf09b1;" transform="matrix(1 0 0 1 67.50 64.50)">12</text>
	<text style="fill: #bf095d;" transform="matrix(1 0 0 1 41.50 85.50)">13</text>
</g>
</svg>
