<?xml version="1.0" encoding="UTF-8"?>
<!--
This file has been modified from the original version by the kanji_colorize.py
script (available at http://github.com/cayennes/kanji-colorize) with these
settings:
    mode: spectrum
    saturation: 0.95
    value: 0.75
    image_size: 327
It remains under a Creative Commons-Attribution-Share Alike 3.0 License.

The original SVG has the following copyright:

Copyright (C) 2009/2010/2011 Ulrich Apel.
This work is distributed under the conditions of the Creative Commons
Attribution-Share Alike 3.0 Licence. This means you are free:
* to Share - to copy, distribute and transmit the work
* to Remix - to adapt the work

Under the following conditions:
* Attribution. You must attribute the work by stating your use of KanjiVG in
  your own copyright header and linking to KanjiVG's website
  (http://kanjivg.tagaini.net)
* Share Alike. If you alter, transform, or build upon this work, you may
  distribute the resulting work only under the same or similar license to this
  one.

See http://creativecommons.org/licenses/by-sa/3.0/ for more details.
-->
<!DOCTYPE svg PUBLIC "-//W3C//DTD SVG 1.0//EN" "http://www.w3.org/TR/2001/REC-SVG-20010904/DTD/svg10.dtd" [
<!ATTLIST g
xmlns:kvg CDATA #FIXED "http://kanjivg.tagaini.net"
kvg:element CDATA #IMPLIED
kvg:variant CDATA #IMPLIED
kvg:partial CDATA #IMPLIED
kvg:original CDATA #IMPLIED
kvg:part CDATA #IMPLIED
kvg:number CDATA #IMPLIED
kvg:tradForm CDATA #IMPLIED
kvg:radicalForm CDATA #IMPLIED
kvg:position CDATA #IMPLIED
kvg:radical CDATA #IMPLIED
kvg:phon CDATA #IMPLIED >
<!ATTLIST path
xmlns:kvg CDATA #FIXED "http://kanjivg.tagaini.net"
kvg:type CDATA #IMPLIED >
]>
<svg xmlns="http://www.w3.org/2000/svg" width="327" height = "327" viewBox="0 0 327 327">
<g id="kvg:StrokePaths_06194" style="fill:none;stroke:#000000;stroke-width:3;stroke-linecap:round;stroke-linejoin:round;" transform="scale(3.0,3.0)">
<g id="kvg:06194" kvg:element="憔">
	<g id="kvg:06194-g1" kvg:element="忄" kvg:variant="true" kvg:original="心" kvg:position="left" kvg:radical="general">
		<path style="stroke: #bf0909;" id="kvg:06194-s1" kvg:type="㇔" d="M16.22,35c0.03,4.31-2.47,14.14-4.69,17.5"/>
		<path style="stroke: #bf5209;" id="kvg:06194-s2" kvg:type="㇔" d="M26.52,27.83c3.37,1.79,8.7,7.35,9.54,10.13"/>
		<path style="stroke: #bf9a09;" id="kvg:06194-s3" kvg:type="㇑" d="M22.37,12.25c1.09,0.5,1.74,2.25,1.96,3.25c0.22,1,0,76.25-0.22,82.5"/>
	</g>
	<g id="kvg:06194-g2" kvg:element="焦" kvg:position="right">
		<g id="kvg:06194-g3" kvg:element="隹" kvg:position="top">
			<g id="kvg:06194-g4" kvg:element="亻" kvg:variant="true" kvg:original="人">
				<path style="stroke: #9abf09;" id="kvg:06194-s4" kvg:type="㇒" d="M52.96,12.5c0.17,1.71-0.05,3.94-0.58,5.4c-3.41,9.31-7.74,17.19-15.56,28.53"/>
				<path style="stroke: #52bf09;" id="kvg:06194-s5" kvg:type="㇑" d="M46.37,30.98c0.47,0.71,0.99,1.74,1.03,3.04c0.34,9.82-0.55,36.2-0.23,40.81"/>
			</g>
			<path style="stroke: #09bf09;" id="kvg:06194-s6" kvg:type="㇒" d="M72.45,13.54c0.08,0.85-0.02,1.97-0.28,2.7C70.5,20.9,68.4,24.5,64.6,30.16"/>
			<path style="stroke: #09bf52;" id="kvg:06194-s7" kvg:type="㇐b" d="M47.19,32.31c7.61-0.85,39.63-2.32,42.89-2.78"/>
			<path style="stroke: #09bf9a;" id="kvg:06194-s8" kvg:type="㇑a" d="M65.86,33.24c0.37,0.33,1.07,2.86,1.07,3.44c0,5.85,0.04,23.62-0.18,32.82"/>
			<path style="stroke: #099abf;" id="kvg:06194-s9" kvg:type="㇐b" d="M48.21,45.52c7.18-0.7,37.94-2.25,41.03-2.63"/>
			<path style="stroke: #0952bf;" id="kvg:06194-s10" kvg:type="㇐b" d="M47.34,58.41c7.58-0.59,37.67-1.86,40.92-2.18"/>
			<path style="stroke: #0909bf;" id="kvg:06194-s11" kvg:type="㇐b" d="M47.34,71.46c7.61-0.85,41.98-1.47,45.24-1.93"/>
		</g>
		<g id="kvg:06194-g5" kvg:element="灬" kvg:variant="true" kvg:original="火" kvg:position="bottom">
			<path style="stroke: #5209bf;" id="kvg:06194-s12" kvg:type="㇔" d="M41.22,82.95c0,5.45-5.28,13.5-6.45,15.05"/>
			<path style="stroke: #9a09bf;" id="kvg:06194-s13" kvg:type="㇔" d="M53.8,81.91c1.48,2.71,2.88,10.16,3.25,14.37"/>
			<path style="stroke: #bf099a;" id="kvg:06194-s14" kvg:type="㇔" d="M69.3,80.2c1.73,2.72,4.47,11.19,4.9,15.42"/>
			<path style="stroke: #bf0952;" id="kvg:06194-s15" kvg:type="㇔" d="M84.38,78.97c3.94,3.11,10.19,12.8,11.17,17.64"/>
		</g>
	</g>
</g>
</g>
<g id="kvg:StrokeNumbers_06194" style="font-size:8;fill:#808080" transform="scale(3.0,3.0)">
	<text style="fill: #bf0909;" transform="matrix(1 0 0 1 11.50 33.50)">1</text>
	<text style="fill: #bf5209;" transform="matrix(1 0 0 1 28.50 26.50)">2</text>
	<text style="fill: #bf9a09;" transform="matrix(1 0 0 1 14.25 12.50)">3</text>
	<text style="fill: #9abf09;" transform="matrix(1 0 0 1 44.50 11.50)">4</text>
	<text style="fill: #52bf09;" transform="matrix(1 0 0 1 39.75 54.45)">5</text>
	<text style="fill: #09bf09;" transform="matrix(1 0 0 1 64.50 13.50)">6</text>
	<text style="fill: #09bf52;" transform="matrix(1 0 0 1 53.50 29.50)">7</text>
	<text style="fill: #09bf9a;" transform="matrix(1 0 0 1 59.50 39.50)">8</text>
	<text style="fill: #099abf;" transform="matrix(1 0 0 1 51.50 42.50)">9</text>
	<text style="fill: #0952bf;" transform="matrix(1 0 0 1 50.50 55.32)">10</text>
	<text style="fill: #0909bf;" transform="matrix(1 0 0 1 50.50 68.25)">11</text>
	<text style="fill: #5209bf;" transform="matrix(1 0 0 1 32.50 81.50)">12</text>
	<text style="fill: #9a09bf;" transform="matrix(1 0 0 1 44.50 84.50)">13</text>
	<text style="fill: #bf099a;" transform="matrix(1 0 0 1 59.50 84.50)">14</text>
	<text style="fill: #bf0952;" transform="matrix(1 0 0 1 75.50 82.50)">15</text>
</g>
</svg>
