<?xml version="1.0" encoding="UTF-8"?>
<!--
This file has been modified from the original version by the kanji_colorize.py
script (available at http://github.com/cayennes/kanji-colorize) with these
settings:
    mode: spectrum
    saturation: 0.95
    value: 0.75
    image_size: 327
It remains under a Creative Commons-Attribution-Share Alike 3.0 License.

The original SVG has the following copyright:

Copyright (C) 2009/2010/2011 Ulrich Apel.
This work is distributed under the conditions of the Creative Commons
Attribution-Share Alike 3.0 Licence. This means you are free:
* to Share - to copy, distribute and transmit the work
* to Remix - to adapt the work

Under the following conditions:
* Attribution. You must attribute the work by stating your use of KanjiVG in
  your own copyright header and linking to KanjiVG's website
  (http://kanjivg.tagaini.net)
* Share Alike. If you alter, transform, or build upon this work, you may
  distribute the resulting work only under the same or similar license to this
  one.

See http://creativecommons.org/licenses/by-sa/3.0/ for more details.
-->
<!DOCTYPE svg PUBLIC "-//W3C//DTD SVG 1.0//EN" "http://www.w3.org/TR/2001/REC-SVG-20010904/DTD/svg10.dtd" [
<!ATTLIST g
xmlns:kvg CDATA #FIXED "http://kanjivg.tagaini.net"
kvg:element CDATA #IMPLIED
kvg:variant CDATA #IMPLIED
kvg:partial CDATA #IMPLIED
kvg:original CDATA #IMPLIED
kvg:part CDATA #IMPLIED
kvg:number CDATA #IMPLIED
kvg:tradForm CDATA #IMPLIED
kvg:radicalForm CDATA #IMPLIED
kvg:position CDATA #IMPLIED
kvg:radical CDATA #IMPLIED
kvg:phon CDATA #IMPLIED >
<!ATTLIST path
xmlns:kvg CDATA #FIXED "http://kanjivg.tagaini.net"
kvg:type CDATA #IMPLIED >
]>
<svg xmlns="http://www.w3.org/2000/svg" width="327" height = "327" viewBox="0 0 327 327">
<g id="kvg:StrokePaths_061ab" style="fill:none;stroke:#000000;stroke-width:3;stroke-linecap:round;stroke-linejoin:round;" transform="scale(3.0,3.0)">
<g id="kvg:061ab" kvg:element="憫">
	<g id="kvg:061ab-g1" kvg:element="忄" kvg:variant="true" kvg:original="心" kvg:position="left" kvg:radical="general">
		<path style="stroke: #bf0909;" id="kvg:061ab-s1" kvg:type="㇔" d="M16.72,36.5c0.03,4.19-2.21,13.74-4.19,17"/>
		<path style="stroke: #bf5209;" id="kvg:061ab-s2" kvg:type="㇔" d="M29.52,32.58c2.13,1.92,5.51,7.9,6.04,10.88"/>
		<path style="stroke: #bf9a09;" id="kvg:061ab-s3" kvg:type="㇑" d="M23.87,14.25c1.09,0.5,1.74,2.25,1.96,3.25c0.22,1,0,73.75-0.22,80"/>
	</g>
	<g id="kvg:061ab-g2" kvg:element="閔" kvg:position="right">
		<g id="kvg:061ab-g3" kvg:element="門" kvg:position="kamae">
			<g id="kvg:061ab-g4" kvg:position="left">
				<path style="stroke: #9abf09;" id="kvg:061ab-s4" kvg:type="㇑" d="M40.89,17.54c0.54,0.4,1.68,3.01,1.78,3.82c0.11,0.81-0.07,70.25-0.18,75.28"/>
				<path style="stroke: #52bf09;" id="kvg:061ab-s5" kvg:type="㇕a" d="M42.82,18.96c1.79-0.09,14.15-1.88,15.78-1.98c1.36-0.09,2.06,0.79,2.13,1.48c0.1,1.07-0.63,19.85-0.63,20.38"/>
				<path style="stroke: #09bf09;" id="kvg:061ab-s6" kvg:type="㇐a" d="M43.14,28.33c4.39-0.51,12.7-1.34,16.93-1.89"/>
				<path style="stroke: #09bf52;" id="kvg:061ab-s7" kvg:type="㇐a" d="M42.82,38.75c5.95-1,11.56-1.26,16.83-1.72"/>
			</g>
			<g id="kvg:061ab-g5" kvg:position="right">
				<path style="stroke: #09bf9a;" id="kvg:061ab-s8" kvg:type="㇑" d="M70.99,15.48c0.31,0.47,0.62,1.46,0.62,2.08c0,0.62-0.1,18.71,0,19.33"/>
				<path style="stroke: #099abf;" id="kvg:061ab-s9" kvg:type="㇆a" d="M72.11,16.44c1.74-0.09,16.24-2.35,17.83-2.45c1.32-0.09,2.56,0.76,2.57,2.51c0.06,16.38-0.35,61.1-0.35,72.98c0,9.77-5.89,0.55-6.9-0.54"/>
				<path style="stroke: #0952bf;" id="kvg:061ab-s10" kvg:type="㇐a" d="M72.42,25.33c2.35,0,16.3-1.89,18.96-1.89"/>
				<path style="stroke: #0909bf;" id="kvg:061ab-s11" kvg:type="㇐a" d="M72.11,35.04c3.48,0,14.57-1.73,19.07-1.73"/>
			</g>
		</g>
		<g id="kvg:061ab-g6" kvg:element="文">
			<g id="kvg:061ab-g7" kvg:element="亠" kvg:position="top">
				<path style="stroke: #5209bf;" id="kvg:061ab-s12" kvg:type="㇑a" d="M65.56,41.5c0.59,0.37,1.56,1.8,1.56,2.54c0,2.91-0.02,4.45-0.08,6.54"/>
				<path style="stroke: #9a09bf;" id="kvg:061ab-s13" kvg:type="㇐" d="M51,52.79c0.89,0.07,2.92,0.47,3.78,0.36C63.75,52,71.5,50.35,79.8,49.9c1.46-0.08,1.95-0.09,3.7-0.09"/>
			</g>
			<g id="kvg:061ab-g8" kvg:element="乂" kvg:position="bottom">
				<path style="stroke: #bf099a;" id="kvg:061ab-s14" kvg:type="㇒" d="M75.13,53.66c0.32,0.67,0.48,1.11,0.16,2.39C72.25,68,64.25,78.5,50.13,84"/>
				<path style="stroke: #bf0952;" id="kvg:061ab-s15" kvg:type="㇏" d="M57.21,61.2c8.69,3.96,18.05,12.82,22.54,18.79"/>
			</g>
		</g>
	</g>
</g>
</g>
<g id="kvg:StrokeNumbers_061ab" style="font-size:8;fill:#808080" transform="scale(3.0,3.0)">
	<text style="fill: #bf0909;" transform="matrix(1 0 0 1 11.50 35.50)">1</text>
	<text style="fill: #bf5209;" transform="matrix(1 0 0 1 29.50 29.50)">2</text>
	<text style="fill: #bf9a09;" transform="matrix(1 0 0 1 16.25 14.50)">3</text>
	<text style="fill: #9abf09;" transform="matrix(1 0 0 1 33.50 18.50)">4</text>
	<text style="fill: #52bf09;" transform="matrix(1 0 0 1 43.50 15.50)">5</text>
	<text style="fill: #09bf09;" transform="matrix(1 0 0 1 47.50 26.50)">6</text>
	<text style="fill: #09bf52;" transform="matrix(1 0 0 1 47.50 36.50)">7</text>
	<text style="fill: #09bf9a;" transform="matrix(1 0 0 1 64.50 22.50)">8</text>
	<text style="fill: #099abf;" transform="matrix(1 0 0 1 74.50 13.50)">9</text>
	<text style="fill: #0952bf;" transform="matrix(1 0 0 1 74.75 23.70)">10</text>
	<text style="fill: #0909bf;" transform="matrix(1 0 0 1 75.50 32.13)">11</text>
	<text style="fill: #5209bf;" transform="matrix(1 0 0 1 56.50 45.50)">12</text>
	<text style="fill: #9a09bf;" transform="matrix(1 0 0 1 47.50 49.48)">13</text>
	<text style="fill: #bf099a;" transform="matrix(1 0 0 1 63.50 59.50)">14</text>
	<text style="fill: #bf0952;" transform="matrix(1 0 0 1 46.50 64.50)">15</text>
</g>
</svg>
