<?xml version="1.0" encoding="UTF-8"?>
<!--
This file has been modified from the original version by the kanji_colorize.py
script (available at http://github.com/cayennes/kanji-colorize) with these
settings:
    mode: spectrum
    saturation: 0.95
    value: 0.75
    image_size: 327
It remains under a Creative Commons-Attribution-Share Alike 3.0 License.

The original SVG has the following copyright:

Copyright (C) 2009/2010/2011 Ulrich Apel.
This work is distributed under the conditions of the Creative Commons
Attribution-Share Alike 3.0 Licence. This means you are free:
* to Share - to copy, distribute and transmit the work
* to Remix - to adapt the work

Under the following conditions:
* Attribution. You must attribute the work by stating your use of KanjiVG in
  your own copyright header and linking to KanjiVG's website
  (http://kanjivg.tagaini.net)
* Share Alike. If you alter, transform, or build upon this work, you may
  distribute the resulting work only under the same or similar license to this
  one.

See http://creativecommons.org/licenses/by-sa/3.0/ for more details.
-->
<!DOCTYPE svg PUBLIC "-//W3C//DTD SVG 1.0//EN" "http://www.w3.org/TR/2001/REC-SVG-20010904/DTD/svg10.dtd" [
<!ATTLIST g
xmlns:kvg CDATA #FIXED "http://kanjivg.tagaini.net"
kvg:element CDATA #IMPLIED
kvg:variant CDATA #IMPLIED
kvg:partial CDATA #IMPLIED
kvg:original CDATA #IMPLIED
kvg:part CDATA #IMPLIED
kvg:number CDATA #IMPLIED
kvg:tradForm CDATA #IMPLIED
kvg:radicalForm CDATA #IMPLIED
kvg:position CDATA #IMPLIED
kvg:radical CDATA #IMPLIED
kvg:phon CDATA #IMPLIED >
<!ATTLIST path
xmlns:kvg CDATA #FIXED "http://kanjivg.tagaini.net"
kvg:type CDATA #IMPLIED >
]>
<svg xmlns="http://www.w3.org/2000/svg" width="327" height = "327" viewBox="0 0 327 327">
<g id="kvg:StrokePaths_061a7" style="fill:none;stroke:#000000;stroke-width:3;stroke-linecap:round;stroke-linejoin:round;" transform="scale(3.0,3.0)">
<g id="kvg:061a7" kvg:element="憧">
	<g id="kvg:061a7-g1" kvg:element="忄" kvg:variant="true" kvg:original="心" kvg:position="left" kvg:radical="general">
		<path style="stroke: #bf0909;" id="kvg:061a7-s1" kvg:type="㇔" d="M16.25,39.75c0,6.61-2.97,16.36-3.75,18.25"/>
		<path style="stroke: #bf5209;" id="kvg:061a7-s2" kvg:type="㇔" d="M29.27,35.08c2.49,1.66,6.42,6.81,7.04,9.38"/>
		<path style="stroke: #bf9a09;" id="kvg:061a7-s3" kvg:type="㇑" d="M24.37,15.25c1.19,1.19,1.46,2.75,1.46,4.5c0,0.83,0.02,44.91,0.03,66.38c0,4.89,0,8.61,0,10.38"/>
	</g>
	<g id="kvg:061a7-g2" kvg:element="童" kvg:position="right">
		<g id="kvg:061a7-g3" kvg:element="立" kvg:position="top">
			<g id="kvg:061a7-g4" kvg:element="亠" kvg:position="top">
				<path style="stroke: #9abf09;" id="kvg:061a7-s4" kvg:type="㇑a" d="M65.36,12.75c0.95,0.95,1.18,2.16,1.18,3.68c0,1.53,0,3.44,0,6.3"/>
				<path style="stroke: #52bf09;" id="kvg:061a7-s5" kvg:type="㇐" d="M45.36,25.35c2.35,0.74,5.14,0.21,7.53,0c7.55-0.65,20.88-2.02,28.99-2.5c2.33-0.14,4.62-0.28,6.92,0.16"/>
			</g>
			<g id="kvg:061a7-g5" kvg:position="bottom">
				<path style="stroke: #09bf09;" id="kvg:061a7-s6" kvg:type="㇔" d="M54.75,28.62c2.21,2.84,3.22,5.34,3.42,7.22"/>
				<path style="stroke: #09bf52;" id="kvg:061a7-s7" kvg:type="㇒" d="M77.93,26.17c0.2,0.96,0.07,1.83-0.21,2.55c-0.72,1.85-3.13,5.43-4.22,6.91"/>
				<path style="stroke: #09bf9a;" id="kvg:061a7-s8" kvg:type="㇐" d="M41.47,39.51c2.35,0.7,5.48,0.46,7.91,0.18c12.11-1.39,26.02-2.2,37.99-2.75c2.96-0.14,5.51-0.14,8.4,0.38"/>
			</g>
		</g>
		<g id="kvg:061a7-g6" kvg:element="里" kvg:position="bottom">
			<path style="stroke: #099abf;" id="kvg:061a7-s9" kvg:type="㇑" d="M47.17,48.16C48,49,48.37,49.9,48.57,50.83c1.18,5.67,2.69,13.9,3.36,19.83"/>
			<path style="stroke: #0952bf;" id="kvg:061a7-s10" kvg:type="㇕a" d="M48.95,48.9c10.68-1.4,24.18-2.77,32.96-3.2c2.68-0.13,4.49,1.83,4.08,4.33c-0.67,4.11-2.33,11.78-4,18.78"/>
			<path style="stroke: #0909bf;" id="kvg:061a7-s11" kvg:type="㇐a" d="M51.24,58.51c3.13-0.36,27.26-2.38,32.67-2.39"/>
			<path style="stroke: #5209bf;" id="kvg:061a7-s12" kvg:type="㇐a" d="M53.01,69.01c7.24-0.76,17.86-1.76,28.23-2.19"/>
			<path style="stroke: #9a09bf;" id="kvg:061a7-s13" kvg:type="㇑a" d="M65.54,49.15c0.96,0.96,1.29,1.83,1.29,3.19c0,5.91-0.09,33.54-0.09,38.28"/>
			<path style="stroke: #bf099a;" id="kvg:061a7-s14" kvg:type="㇐" d="M48.34,79.54c1.57,0.73,4.63,0.59,6.29,0.38c8.5-1.05,18.54-1.61,27-1.88c2.21-0.07,4.07-0.08,6.19,0.51"/>
			<path style="stroke: #bf0952;" id="kvg:061a7-s15" kvg:type="㇐" d="M40.53,92.53c2.35,0.95,5.63,0.97,8.1,0.69c12.39-1.43,27.37-2.45,39.74-2.58c2.73-0.03,5.16,0.02,7.81,0.67"/>
		</g>
	</g>
</g>
</g>
<g id="kvg:StrokeNumbers_061a7" style="font-size:8;fill:#808080" transform="scale(3.0,3.0)">
	<text style="fill: #bf0909;" transform="matrix(1 0 0 1 10.25 40.25)">1</text>
	<text style="fill: #bf5209;" transform="matrix(1 0 0 1 30.25 33.25)">2</text>
	<text style="fill: #bf9a09;" transform="matrix(1 0 0 1 15.25 15.25)">3</text>
	<text style="fill: #9abf09;" transform="matrix(1 0 0 1 57.25 12.25)">4</text>
	<text style="fill: #52bf09;" transform="matrix(1 0 0 1 39.25 24.25)">5</text>
	<text style="fill: #09bf09;" transform="matrix(1 0 0 1 48.25 34.25)">6</text>
	<text style="fill: #09bf52;" transform="matrix(1 0 0 1 70.00 31.93)">7</text>
	<text style="fill: #09bf9a;" transform="matrix(1 0 0 1 40.25 37.25)">8</text>
	<text style="fill: #099abf;" transform="matrix(1 0 0 1 41.25 54.78)">9</text>
	<text style="fill: #0952bf;" transform="matrix(1 0 0 1 48.25 47.25)">10</text>
	<text style="fill: #0909bf;" transform="matrix(1 0 0 1 54.25 56.25)">11</text>
	<text style="fill: #5209bf;" transform="matrix(1 0 0 1 54.00 66.25)">12</text>
	<text style="fill: #9a09bf;" transform="matrix(1 0 0 1 70.00 53.48)">13</text>
	<text style="fill: #bf099a;" transform="matrix(1 0 0 1 37.25 79.25)">14</text>
	<text style="fill: #bf0952;" transform="matrix(1 0 0 1 36.25 89.25)">15</text>
</g>
</svg>
