<?xml version="1.0" encoding="UTF-8"?>
<!--
This file has been modified from the original version by the kanji_colorize.py
script (available at http://github.com/cayennes/kanji-colorize) with these
settings:
    mode: spectrum
    saturation: 0.95
    value: 0.75
    image_size: 327
It remains under a Creative Commons-Attribution-Share Alike 3.0 License.

The original SVG has the following copyright:

Copyright (C) 2009/2010/2011 Ulrich Apel.
This work is distributed under the conditions of the Creative Commons
Attribution-Share Alike 3.0 Licence. This means you are free:
* to Share - to copy, distribute and transmit the work
* to Remix - to adapt the work

Under the following conditions:
* Attribution. You must attribute the work by stating your use of KanjiVG in
  your own copyright header and linking to KanjiVG's website
  (http://kanjivg.tagaini.net)
* Share Alike. If you alter, transform, or build upon this work, you may
  distribute the resulting work only under the same or similar license to this
  one.

See http://creativecommons.org/licenses/by-sa/3.0/ for more details.
-->
<!DOCTYPE svg PUBLIC "-//W3C//DTD SVG 1.0//EN" "http://www.w3.org/TR/2001/REC-SVG-20010904/DTD/svg10.dtd" [
<!ATTLIST g
xmlns:kvg CDATA #FIXED "http://kanjivg.tagaini.net"
kvg:element CDATA #IMPLIED
kvg:variant CDATA #IMPLIED
kvg:partial CDATA #IMPLIED
kvg:original CDATA #IMPLIED
kvg:part CDATA #IMPLIED
kvg:number CDATA #IMPLIED
kvg:tradForm CDATA #IMPLIED
kvg:radicalForm CDATA #IMPLIED
kvg:position CDATA #IMPLIED
kvg:radical CDATA #IMPLIED
kvg:phon CDATA #IMPLIED >
<!ATTLIST path
xmlns:kvg CDATA #FIXED "http://kanjivg.tagaini.net"
kvg:type CDATA #IMPLIED >
]>
<svg xmlns="http://www.w3.org/2000/svg" width="327" height = "327" viewBox="0 0 327 327">
<g id="kvg:StrokePaths_06292" style="fill:none;stroke:#000000;stroke-width:3;stroke-linecap:round;stroke-linejoin:round;" transform="scale(3.0,3.0)">
<g id="kvg:06292" kvg:element="抒">
	<g id="kvg:06292-g1" kvg:element="扌" kvg:variant="true" kvg:original="手" kvg:position="left" kvg:radical="general">
		<path style="stroke: #bf0909;" id="kvg:06292-s1" kvg:type="㇐" d="M12,35.86c2.34,0.28,1.43,0.62,3.94,0.28c6.18-0.84,17.43-2.81,27.73-4.12"/>
		<path style="stroke: #bfa509;" id="kvg:06292-s2" kvg:type="㇚" d="M28.77,12c0.48,0.92,1.67,2.49,1.76,5.52c0.4,14.55,0.24,62.94,0.24,67.9c0,14.25-6.32,3.53-7.77,2"/>
		<path style="stroke: #3dbf09;" id="kvg:06292-s3" kvg:type="㇀" d="M13,63.74c2.04,1.22,3.34,1.16,5.38,0.12c1.2-0.61,19.53-11.23,24.62-14.19"/>
	</g>
	<g id="kvg:06292-g2" kvg:element="予" kvg:position="right">
		<g id="kvg:06292-g3" kvg:element="マ" kvg:position="top">
			<path style="stroke: #09bf71;" id="kvg:06292-s4" kvg:type="㇇" d="M48.51,17.59c1.74,0.91,3.59,0.68,4.83,0.42c2.46-0.52,27.5-4.24,30.1-4.76c2.6-0.52,3.49,2.21,1.94,3.92c-2.66,2.94-14.29,13.29-15.93,15.39"/>
			<path style="stroke: #0971bf;" id="kvg:06292-s5" kvg:type="㇔" d="M58.5,28c3.76,1.37,13.48,6.66,15.25,10.25"/>
		</g>
		<g id="kvg:06292-g4" kvg:element="了" kvg:position="bottom">
			<path style="stroke: #3d09bf;" id="kvg:06292-s6" kvg:type="㇇" d="M46.67,43.88c0.83,0.62,2.43,1.3,5.83,0.62c3.41-0.68,27.83-5.45,30.5-6.25c11.75-3.5,10,3.25-1.25,11.5"/>
			<g id="kvg:06292-g5" kvg:element="亅">
				<path style="stroke: #bf09a5;" id="kvg:06292-s7" kvg:type="㇚" d="M68.26,46.75c1.62,1.02,2.82,2.38,2.82,4.41c0,2.04,0.21,35.86,0.19,39.59c-0.03,8.25-4.28,5-8.5,0.98"/>
			</g>
		</g>
	</g>
</g>
</g>
<g id="kvg:StrokeNumbers_06292" style="font-size:8;fill:#808080" transform="scale(3.0,3.0)">
	<text style="fill: #bf0909;" transform="matrix(1 0 0 1 6.25 36.50)">1</text>
	<text style="fill: #bfa509;" transform="matrix(1 0 0 1 20.50 12.55)">2</text>
	<text style="fill: #3dbf09;" transform="matrix(1 0 0 1 6.50 64.50)">3</text>
	<text style="fill: #09bf71;" transform="matrix(1 0 0 1 44.50 14.50)">4</text>
	<text style="fill: #0971bf;" transform="matrix(1 0 0 1 50.50 29.50)">5</text>
	<text style="fill: #3d09bf;" transform="matrix(1 0 0 1 44.50 41.50)">6</text>
	<text style="fill: #bf09a5;" transform="matrix(1 0 0 1 60.50 52.50)">7</text>
</g>
</svg>
