<?xml version="1.0" encoding="UTF-8"?>
<!--
This file has been modified from the original version by the kanji_colorize.py
script (available at http://github.com/cayennes/kanji-colorize) with these
settings:
    mode: spectrum
    saturation: 0.95
    value: 0.75
    image_size: 327
It remains under a Creative Commons-Attribution-Share Alike 3.0 License.

The original SVG has the following copyright:

Copyright (C) 2009/2010/2011 Ulrich Apel.
This work is distributed under the conditions of the Creative Commons
Attribution-Share Alike 3.0 Licence. This means you are free:
* to Share - to copy, distribute and transmit the work
* to Remix - to adapt the work

Under the following conditions:
* Attribution. You must attribute the work by stating your use of KanjiVG in
  your own copyright header and linking to KanjiVG's website
  (http://kanjivg.tagaini.net)
* Share Alike. If you alter, transform, or build upon this work, you may
  distribute the resulting work only under the same or similar license to this
  one.

See http://creativecommons.org/licenses/by-sa/3.0/ for more details.
-->
<!DOCTYPE svg PUBLIC "-//W3C//DTD SVG 1.0//EN" "http://www.w3.org/TR/2001/REC-SVG-20010904/DTD/svg10.dtd" [
<!ATTLIST g
xmlns:kvg CDATA #FIXED "http://kanjivg.tagaini.net"
kvg:element CDATA #IMPLIED
kvg:variant CDATA #IMPLIED
kvg:partial CDATA #IMPLIED
kvg:original CDATA #IMPLIED
kvg:part CDATA #IMPLIED
kvg:number CDATA #IMPLIED
kvg:tradForm CDATA #IMPLIED
kvg:radicalForm CDATA #IMPLIED
kvg:position CDATA #IMPLIED
kvg:radical CDATA #IMPLIED
kvg:phon CDATA #IMPLIED >
<!ATTLIST path
xmlns:kvg CDATA #FIXED "http://kanjivg.tagaini.net"
kvg:type CDATA #IMPLIED >
]>
<svg xmlns="http://www.w3.org/2000/svg" width="327" height = "327" viewBox="0 0 327 327">
<g id="kvg:StrokePaths_06392" style="fill:none;stroke:#000000;stroke-width:3;stroke-linecap:round;stroke-linejoin:round;" transform="scale(3.0,3.0)">
<g id="kvg:06392" kvg:element="排">
	<g id="kvg:06392-g1" kvg:element="扌" kvg:variant="true" kvg:original="手" kvg:position="left" kvg:radical="general">
		<path style="stroke: #bf0909;" id="kvg:06392-s1" kvg:type="㇐" d="M15.25,36.92c1.79,0.21,3.41,0.28,5.25-0.01c5.02-0.79,12.36-2.3,17.27-3.48c0.93-0.22,1.91-0.3,2.89-0.43"/>
		<path style="stroke: #bf6c09;" id="kvg:06392-s2" kvg:type="㇚" d="M29.52,14.5c0.99,0.99,1.51,2.5,1.51,4.77c0,15.23-0.01,54.46-0.01,65.9c0,14.25-5.32,4.03-6.77,2.5"/>
		<path style="stroke: #aebf09;" id="kvg:06392-s3" kvg:type="㇀" d="M14.38,66.1c1.05,1.01,2.33,1.01,4.42-0.4c4.67-3.14,9.48-6.67,19.95-14.28"/>
	</g>
	<g id="kvg:06392-g2" kvg:element="非" kvg:position="right" kvg:phon="非">
		<g id="kvg:06392-g3" kvg:position="left">
			<path style="stroke: #4bbf09;" id="kvg:06392-s4" kvg:type="㇒" d="M59.12,14.95c0.9,0.9,1.31,1.92,1.34,3.38C61.5,63.62,62,83.25,45.81,97.25"/>
			<path style="stroke: #09bf2a;" id="kvg:06392-s5" kvg:type="㇐c" d="M43.3,39.12c1.07,0.13,2.21,0.13,3.26,0c3.06-0.37,9.44-1.87,11.54-2.41"/>
			<path style="stroke: #09bf8d;" id="kvg:06392-s6" kvg:type="㇐c" d="M43.46,55.26c1.17,0.24,2.23,0.24,3.26,0c1.03-0.24,8.83-2.17,11.57-2.89"/>
			<path style="stroke: #098dbf;" id="kvg:06392-s7" kvg:type="㇀" d="M43,74.88c1.25,0.62,2.31,0.53,3.88-0.47c1.24-0.79,4.99-2.91,10.05-6.37"/>
		</g>
		<g id="kvg:06392-g4" kvg:position="right">
			<path style="stroke: #092abf;" id="kvg:06392-s8" kvg:type="㇑" d="M74.14,12.25c1.12,1.12,1.34,2.25,1.34,3.63c0,0.78,0.05,50.53-0.06,72.62c-0.03,5.46-0.02,7.31-0.05,8.5"/>
			<path style="stroke: #4b09bf;" id="kvg:06392-s9" kvg:type="㇐b" d="M76.74,34.36C79.83,34,88,32.25,91.12,31.75c0.86-0.14,1.66-0.12,3.12-0.12"/>
			<path style="stroke: #ae09bf;" id="kvg:06392-s10" kvg:type="㇐b" d="M76.75,52.46c5.38-1.21,11.38-2.08,14.88-2.63c0.86-0.13,2-0.2,3.21-0.12"/>
			<path style="stroke: #bf096c;" id="kvg:06392-s11" kvg:type="㇐b" d="M76.66,69.79c2.53-0.3,11.43-1.63,15.75-2.25c1.45-0.21,2.59-0.29,3.84,0.01"/>
		</g>
	</g>
</g>
</g>
<g id="kvg:StrokeNumbers_06392" style="font-size:8;fill:#808080" transform="scale(3.0,3.0)">
	<text style="fill: #bf0909;" transform="matrix(1 0 0 1 8.50 38.50)">1</text>
	<text style="fill: #bf6c09;" transform="matrix(1 0 0 1 20.50 14.50)">2</text>
	<text style="fill: #aebf09;" transform="matrix(1 0 0 1 6.50 70.50)">3</text>
	<text style="fill: #4bbf09;" transform="matrix(1 0 0 1 51.50 16.50)">4</text>
	<text style="fill: #09bf2a;" transform="matrix(1 0 0 1 43.50 36.50)">5</text>
	<text style="fill: #09bf8d;" transform="matrix(1 0 0 1 44.50 52.48)">6</text>
	<text style="fill: #098dbf;" transform="matrix(1 0 0 1 37.50 82.50)">7</text>
	<text style="fill: #092abf;" transform="matrix(1 0 0 1 66.50 11.50)">8</text>
	<text style="fill: #4b09bf;" transform="matrix(1 0 0 1 79.50 30.13)">9</text>
	<text style="fill: #ae09bf;" transform="matrix(1 0 0 1 78.75 48.05)">10</text>
	<text style="fill: #bf096c;" transform="matrix(1 0 0 1 78.75 65.98)">11</text>
</g>
</svg>
