<?xml version="1.0" encoding="UTF-8"?>
<!--
This file has been modified from the original version by the kanji_colorize.py
script (available at http://github.com/cayennes/kanji-colorize) with these
settings:
    mode: spectrum
    saturation: 0.95
    value: 0.75
    image_size: 327
It remains under a Creative Commons-Attribution-Share Alike 3.0 License.

The original SVG has the following copyright:

Copyright (C) 2009/2010/2011 Ulrich Apel.
This work is distributed under the conditions of the Creative Commons
Attribution-Share Alike 3.0 Licence. This means you are free:
* to Share - to copy, distribute and transmit the work
* to Remix - to adapt the work

Under the following conditions:
* Attribution. You must attribute the work by stating your use of KanjiVG in
  your own copyright header and linking to KanjiVG's website
  (http://kanjivg.tagaini.net)
* Share Alike. If you alter, transform, or build upon this work, you may
  distribute the resulting work only under the same or similar license to this
  one.

See http://creativecommons.org/licenses/by-sa/3.0/ for more details.
-->
<!DOCTYPE svg PUBLIC "-//W3C//DTD SVG 1.0//EN" "http://www.w3.org/TR/2001/REC-SVG-20010904/DTD/svg10.dtd" [
<!ATTLIST g
xmlns:kvg CDATA #FIXED "http://kanjivg.tagaini.net"
kvg:element CDATA #IMPLIED
kvg:variant CDATA #IMPLIED
kvg:partial CDATA #IMPLIED
kvg:original CDATA #IMPLIED
kvg:part CDATA #IMPLIED
kvg:number CDATA #IMPLIED
kvg:tradForm CDATA #IMPLIED
kvg:radicalForm CDATA #IMPLIED
kvg:position CDATA #IMPLIED
kvg:radical CDATA #IMPLIED
kvg:phon CDATA #IMPLIED >
<!ATTLIST path
xmlns:kvg CDATA #FIXED "http://kanjivg.tagaini.net"
kvg:type CDATA #IMPLIED >
]>
<svg xmlns="http://www.w3.org/2000/svg" width="327" height = "327" viewBox="0 0 327 327">
<g id="kvg:StrokePaths_064c2" style="fill:none;stroke:#000000;stroke-width:3;stroke-linecap:round;stroke-linejoin:round;" transform="scale(3.0,3.0)">
<g id="kvg:064c2" kvg:element="擂">
	<g id="kvg:064c2-g1" kvg:element="扌" kvg:variant="true" kvg:original="手" kvg:position="left" kvg:radical="general">
		<path style="stroke: #bf0909;" id="kvg:064c2-s1" kvg:type="㇐" d="M11.5,34.92c2.08,0.25,1.27,0.55,3.5,0.25c5.5-0.75,13-1.5,22.17-2.67"/>
		<path style="stroke: #bf4d09;" id="kvg:064c2-s2" kvg:type="㇚" d="M25.44,12c0.56,0.94,2.04,2.56,2.04,5.67c0,15.66,0.28,58.04,0.28,69.79c0,14.65-7.34,3.63-9.02,2.06"/>
		<path style="stroke: #bf9109;" id="kvg:064c2-s3" kvg:type="㇀" d="M11.5,64.49c0.89,1.06,2.32,1.68,4.29,0.7c1.16-0.58,17.19-11.01,22.12-13.78"/>
	</g>
	<g id="kvg:064c2-g2" kvg:element="雷" kvg:position="right">
		<g id="kvg:064c2-g3" kvg:element="雨" kvg:variant="true" kvg:position="top">
			<path style="stroke: #a8bf09;" id="kvg:064c2-s4" kvg:type="㇐" d="M45.92,15.82c1.25,0.13,3.3,0.49,4.43,0.39c6.86-0.59,21.91-2.06,32.31-2.63c1.59-0.08,2.91-0.11,4.37,0.08"/>
			<path style="stroke: #64bf09;" id="kvg:064c2-s5" kvg:type="㇔/㇑" d="M43.83,25.99c-0.23,5.49-2.25,11.57-3.74,17.12"/>
			<path style="stroke: #20bf09;" id="kvg:064c2-s6" kvg:type="㇖b/㇆" d="M44.59,28.5c15.66-1.25,34.97-2.63,46.61-3c8.04-0.25,3.26,4.42,0.14,8.21"/>
			<path style="stroke: #09bf36;" id="kvg:064c2-s7" kvg:type="㇑" d="M65.06,16.56c1.06,0.75,1.51,2.59,1.51,3.18c0,0.6-0.24,31.93-0.24,33.57"/>
			<path style="stroke: #09bf7b;" id="kvg:064c2-s8" kvg:type="㇔" d="M52.14,35.25c2.51,0.87,5.94,3.47,7.31,4.92"/>
			<path style="stroke: #09bfbf;" id="kvg:064c2-s9" kvg:type="㇔" d="M48.09,46.64c2.99,0.83,7.6,3.87,9.23,5.25"/>
			<path style="stroke: #097bbf;" id="kvg:064c2-s10" kvg:type="㇔" d="M75.61,34.04c3.14,1.39,6.71,4.17,7.97,5.32"/>
			<path style="stroke: #0936bf;" id="kvg:064c2-s11" kvg:type="㇔" d="M75.48,46.19c3.21,0.91,7.58,3.65,9.33,5.18"/>
		</g>
		<g id="kvg:064c2-g4" kvg:element="田" kvg:position="bottom">
			<path style="stroke: #2009bf;" id="kvg:064c2-s12" kvg:type="㇑" d="M44.83,62.38c0.34,0.56,0.35,0.96,0.54,1.67c1.55,5.86,2.16,21.73,3.12,32.66"/>
			<path style="stroke: #6409bf;" id="kvg:064c2-s13" kvg:type="㇕a" d="M46.01,64.22c11.98-1.48,31.93-2.43,40.88-3.66c3.28-0.46,4.97,1.15,4.8,2.77C91.07,69.24,89.5,85,87.27,95.18"/>
			<path style="stroke: #a809bf;" id="kvg:064c2-s14" kvg:type="㇑a" d="M66.32,63.14c0.86,0.3,1.37,2.17,1.4,3.44c0.24,8.37,0.08,20.97,0.08,25.38"/>
			<path style="stroke: #bf0991;" id="kvg:064c2-s15" kvg:type="㇐a" d="M47.82,78.32c3.9-0.57,38.87-2.72,42.09-2.96"/>
			<path style="stroke: #bf094d;" id="kvg:064c2-s16" kvg:type="㇐a" d="M48.68,94.08c8.62-0.63,24.67-1.53,38.09-2.17"/>
		</g>
	</g>
</g>
</g>
<g id="kvg:StrokeNumbers_064c2" style="font-size:8;fill:#808080" transform="scale(3.0,3.0)">
	<text style="fill: #bf0909;" transform="matrix(1 0 0 1 4.50 36.00)">1</text>
	<text style="fill: #bf4d09;" transform="matrix(1 0 0 1 16.50 11.50)">2</text>
	<text style="fill: #bf9109;" transform="matrix(1 0 0 1 3.50 65.50)">3</text>
	<text style="fill: #a8bf09;" transform="matrix(1 0 0 1 38.50 15.50)">4</text>
	<text style="fill: #64bf09;" transform="matrix(1 0 0 1 37.50 26.50)">5</text>
	<text style="fill: #20bf09;" transform="matrix(1 0 0 1 46.75 25.12)">6</text>
	<text style="fill: #09bf36;" transform="matrix(1 0 0 1 59.50 23.80)">7</text>
	<text style="fill: #09bf7b;" transform="matrix(1 0 0 1 46.50 40.50)">8</text>
	<text style="fill: #09bfbf;" transform="matrix(1 0 0 1 44.25 53.50)">9</text>
	<text style="fill: #097bbf;" transform="matrix(1 0 0 1 69.50 41.50)">10</text>
	<text style="fill: #0936bf;" transform="matrix(1 0 0 1 70.50 52.50)">11</text>
	<text style="fill: #2009bf;" transform="matrix(1 0 0 1 35.50 70.50)">12</text>
	<text style="fill: #6409bf;" transform="matrix(1 0 0 1 47.50 60.50)">13</text>
	<text style="fill: #a809bf;" transform="matrix(1 0 0 1 71.50 69.50)">14</text>
	<text style="fill: #bf0991;" transform="matrix(1 0 0 1 50.50 74.83)">15</text>
	<text style="fill: #bf094d;" transform="matrix(1 0 0 1 51.50 90.50)">16</text>
</g>
</svg>
