<?xml version="1.0" encoding="UTF-8"?>
<!--
This file has been modified from the original version by the kanji_colorize.py
script (available at http://github.com/cayennes/kanji-colorize) with these
settings:
    mode: spectrum
    saturation: 0.95
    value: 0.75
    image_size: 327
It remains under a Creative Commons-Attribution-Share Alike 3.0 License.

The original SVG has the following copyright:

Copyright (C) 2009/2010/2011 Ulrich Apel.
This work is distributed under the conditions of the Creative Commons
Attribution-Share Alike 3.0 Licence. This means you are free:
* to Share - to copy, distribute and transmit the work
* to Remix - to adapt the work

Under the following conditions:
* Attribution. You must attribute the work by stating your use of KanjiVG in
  your own copyright header and linking to KanjiVG's website
  (http://kanjivg.tagaini.net)
* Share Alike. If you alter, transform, or build upon this work, you may
  distribute the resulting work only under the same or similar license to this
  one.

See http://creativecommons.org/licenses/by-sa/3.0/ for more details.
-->
<!DOCTYPE svg PUBLIC "-//W3C//DTD SVG 1.0//EN" "http://www.w3.org/TR/2001/REC-SVG-20010904/DTD/svg10.dtd" [
<!ATTLIST g
xmlns:kvg CDATA #FIXED "http://kanjivg.tagaini.net"
kvg:element CDATA #IMPLIED
kvg:variant CDATA #IMPLIED
kvg:partial CDATA #IMPLIED
kvg:original CDATA #IMPLIED
kvg:part CDATA #IMPLIED
kvg:number CDATA #IMPLIED
kvg:tradForm CDATA #IMPLIED
kvg:radicalForm CDATA #IMPLIED
kvg:position CDATA #IMPLIED
kvg:radical CDATA #IMPLIED
kvg:phon CDATA #IMPLIED >
<!ATTLIST path
xmlns:kvg CDATA #FIXED "http://kanjivg.tagaini.net"
kvg:type CDATA #IMPLIED >
]>
<svg xmlns="http://www.w3.org/2000/svg" width="327" height = "327" viewBox="0 0 327 327">
<g id="kvg:StrokePaths_064f4" style="fill:none;stroke:#000000;stroke-width:3;stroke-linecap:round;stroke-linejoin:round;" transform="scale(3.0,3.0)">
<g id="kvg:064f4" kvg:element="擴">
	<g id="kvg:064f4-g1" kvg:element="扌" kvg:variant="true" kvg:original="手" kvg:position="left" kvg:radical="general">
		<path style="stroke: #bf0909;" id="kvg:064f4-s1" kvg:type="㇐" d="M12.5,33.92c2.08,0.25,1.27,0.55,3.5,0.25c5.5-0.75,13.5-2,22.67-3.17"/>
		<path style="stroke: #bf4609;" id="kvg:064f4-s2" kvg:type="㇚" d="M25.81,12c0.49,0.94,1.79,2.54,1.79,5.64c0,15.56,0.25,57.69,0.25,69.37c0,14.56-6.46,3.61-7.93,2.04"/>
		<path style="stroke: #bf8209;" id="kvg:064f4-s3" kvg:type="㇀" d="M12.5,62.53c0.87,1.03,2.25,1.63,4.17,0.68c1.13-0.56,14.92-9.85,19.71-12.54"/>
	</g>
	<g id="kvg:064f4-g2" kvg:element="廣" kvg:position="right">
		<g id="kvg:064f4-g3" kvg:element="广" kvg:position="tare">
			<path style="stroke: #bfbf09;" id="kvg:064f4-s4" kvg:type="㇑a" d="M63.6,10.63c0.49,0.31,1.51,2.35,1.61,2.98c0.1,0.63,0.05,4.92-0.05,8.85"/>
			<g id="kvg:064f4-g4" kvg:element="厂">
				<path style="stroke: #82bf09;" id="kvg:064f4-s5" kvg:type="㇐" d="M41.31,24.09c1.28,0.5,3.62,0.58,4.9,0.5c13.29-0.84,29.42-3.58,42.3-4.24c2.13-0.11,3.4,0.24,4.47,0.49"/>
				<path style="stroke: #46bf09;" id="kvg:064f4-s6" kvg:type="㇒" d="M44.34,25.07c0.18,1.44,0.35,3.02,0.31,5.27C44.33,45.39,44,67.75,33.56,89.87"/>
			</g>
		</g>
		<g id="kvg:064f4-g5" kvg:element="黃" kvg:variant="true" kvg:original="黄">
			<path style="stroke: #09bf09;" id="kvg:064f4-s7" kvg:type="㇐" d="M48.5,37.38c0.94,0.35,2.66,0.42,3.59,0.35c11.46-0.77,24.77-3.77,35.16-4.52c1.56-0.11,2.5,0.17,3.28,0.34"/>
			<path style="stroke: #09bf46;" id="kvg:064f4-s8" kvg:type="㇑" d="M57.74,29.47c0.37,0.24,1.15,1.76,1.17,2.24c0.11,3.22,1.34,9.29,1.97,16.27"/>
			<path style="stroke: #09bf82;" id="kvg:064f4-s9" kvg:type="㇑" d="M75.65,27.16c0.37,0.28,0.8,2.06,0.74,2.61c-0.37,3.38-0.68,7.12-1.29,13.42"/>
			<path style="stroke: #09bfbf;" id="kvg:064f4-s10" kvg:type="㇐" d="M61.15,46.26c2.4,0,12.86-1.73,15.55-1.73"/>
			<path style="stroke: #0982bf;" id="kvg:064f4-s11" kvg:type="㇐" d="M46.45,54.84c1.17,0.44,3.32,0.54,4.49,0.44c10.84-0.89,24.69-3.57,37.88-3.74c1.95-0.03,3.12,0.21,4.1,0.43"/>
			<path style="stroke: #0946bf;" id="kvg:064f4-s12" kvg:type="㇑" d="M49.88,63.4c0.56,0.36,1.32,1.88,1.37,2.35c0.35,3.62,2.19,12.64,2.83,19.64"/>
			<path style="stroke: #0909bf;" id="kvg:064f4-s13" kvg:type="㇕" d="M52.02,64.83c10.11-1.61,26.7-4,32.47-4.1c2.39-0.04,3.26,1.35,3.13,2.3c-0.47,3.48-1.87,10.22-3.86,18.61"/>
			<path style="stroke: #4609bf;" id="kvg:064f4-s14" kvg:type="㇑" d="M66.74,54.6c0.53,0.29,0.98,1.79,0.99,2.15c0.01,6.05,0.11,22.07,0.11,23.68"/>
			<path style="stroke: #8209bf;" id="kvg:064f4-s15" kvg:type="㇐" d="M53.35,72.79c2.83-0.17,29.96-3.1,32.29-3.1"/>
			<path style="stroke: #bf09bf;" id="kvg:064f4-s16" kvg:type="㇐" d="M54.86,82.02c8.19-1.21,19.34-2.35,28.98-2.79"/>
			<path style="stroke: #bf0982;" id="kvg:064f4-s17" kvg:type="㇒" d="M60.9,86.34c0.04,0.31,0.1,0.81-0.09,1.26c-1.08,2.66-7.25,7.58-15.71,11.15"/>
			<path style="stroke: #bf0946;" id="kvg:064f4-s18" kvg:type="㇔" d="M76.29,86.72c4.93,1.86,12.73,7.67,13.97,10.57"/>
		</g>
	</g>
</g>
</g>
<g id="kvg:StrokeNumbers_064f4" style="font-size:8;fill:#808080" transform="scale(3.0,3.0)">
	<text style="fill: #bf0909;" transform="matrix(1 0 0 1 5.50 34.50)">1</text>
	<text style="fill: #bf4609;" transform="matrix(1 0 0 1 17.50 12.50)">2</text>
	<text style="fill: #bf8209;" transform="matrix(1 0 0 1 4.50 63.50)">3</text>
	<text style="fill: #bfbf09;" transform="matrix(1 0 0 1 54.00 11.90)">4</text>
	<text style="fill: #82bf09;" transform="matrix(1 0 0 1 47.25 21.58)">5</text>
	<text style="fill: #46bf09;" transform="matrix(1 0 0 1 37.50 39.50)">6</text>
	<text style="fill: #09bf09;" transform="matrix(1 0 0 1 48.50 35.50)">7</text>
	<text style="fill: #09bf46;" transform="matrix(1 0 0 1 61.50 30.50)">8</text>
	<text style="fill: #09bf82;" transform="matrix(1 0 0 1 80.50 28.50)">9</text>
	<text style="fill: #09bfbf;" transform="matrix(1 0 0 1 62.50 43.50)">10</text>
	<text style="fill: #0982bf;" transform="matrix(1 0 0 1 46.50 52.50)">11</text>
	<text style="fill: #0946bf;" transform="matrix(1 0 0 1 42.50 71.55)">12</text>
	<text style="fill: #0909bf;" transform="matrix(1 0 0 1 51.25 62.48)">13</text>
	<text style="fill: #4609bf;" transform="matrix(1 0 0 1 70.50 59.40)">14</text>
	<text style="fill: #8209bf;" transform="matrix(1 0 0 1 54.50 70.50)">15</text>
	<text style="fill: #bf09bf;" transform="matrix(1 0 0 1 55.50 79.50)">16</text>
	<text style="fill: #bf0982;" transform="matrix(1 0 0 1 47.25 93.50)">17</text>
	<text style="fill: #bf0946;" transform="matrix(1 0 0 1 69.50 93.50)">18</text>
</g>
</svg>
