<?xml version="1.0" encoding="UTF-8"?>
<!--
This file has been modified from the original version by the kanji_colorize.py
script (available at http://github.com/cayennes/kanji-colorize) with these
settings:
    mode: spectrum
    saturation: 0.95
    value: 0.75
    image_size: 327
It remains under a Creative Commons-Attribution-Share Alike 3.0 License.

The original SVG has the following copyright:

Copyright (C) 2009/2010/2011 Ulrich Apel.
This work is distributed under the conditions of the Creative Commons
Attribution-Share Alike 3.0 Licence. This means you are free:
* to Share - to copy, distribute and transmit the work
* to Remix - to adapt the work

Under the following conditions:
* Attribution. You must attribute the work by stating your use of KanjiVG in
  your own copyright header and linking to KanjiVG's website
  (http://kanjivg.tagaini.net)
* Share Alike. If you alter, transform, or build upon this work, you may
  distribute the resulting work only under the same or similar license to this
  one.

See http://creativecommons.org/licenses/by-sa/3.0/ for more details.
-->
<!DOCTYPE svg PUBLIC "-//W3C//DTD SVG 1.0//EN" "http://www.w3.org/TR/2001/REC-SVG-20010904/DTD/svg10.dtd" [
<!ATTLIST g
xmlns:kvg CDATA #FIXED "http://kanjivg.tagaini.net"
kvg:element CDATA #IMPLIED
kvg:variant CDATA #IMPLIED
kvg:partial CDATA #IMPLIED
kvg:original CDATA #IMPLIED
kvg:part CDATA #IMPLIED
kvg:number CDATA #IMPLIED
kvg:tradForm CDATA #IMPLIED
kvg:radicalForm CDATA #IMPLIED
kvg:position CDATA #IMPLIED
kvg:radical CDATA #IMPLIED
kvg:phon CDATA #IMPLIED >
<!ATTLIST path
xmlns:kvg CDATA #FIXED "http://kanjivg.tagaini.net"
kvg:type CDATA #IMPLIED >
]>
<svg xmlns="http://www.w3.org/2000/svg" width="327" height = "327" viewBox="0 0 327 327">
<g id="kvg:StrokePaths_06688" style="fill:none;stroke:#000000;stroke-width:3;stroke-linecap:round;stroke-linejoin:round;" transform="scale(3.0,3.0)">
<g id="kvg:06688" kvg:element="暈">
	<g id="kvg:06688-g1" kvg:element="日" kvg:position="top" kvg:radical="general">
		<path style="stroke: #bf0909;" id="kvg:06688-s1" kvg:type="㇑" d="M32.86,10.71c0.34,0.36,0.35,0.6,0.54,1.05c1.55,3.7,2.16,11.54,3.12,18.44"/>
		<path style="stroke: #bf5d09;" id="kvg:06688-s2" kvg:type="㇕a" d="M34.69,11.88c8.27-0.77,30.66-1.96,36.83-2.61c2.27-0.24,2.73,1.36,2.62,2.21c-0.43,3.09-1.83,11.88-2.87,17.04"/>
		<path style="stroke: #bfb109;" id="kvg:06688-s3" kvg:type="㇐a" d="M36.24,20.19c2.7-0.3,33.87-2.39,36.1-2.51"/>
		<path style="stroke: #79bf09;" id="kvg:06688-s4" kvg:type="㇐a" d="M37.12,28.4c7.66-0.84,26.28-1.58,34.5-2.12"/>
	</g>
	<g id="kvg:06688-g2" kvg:element="軍" kvg:position="bottom">
		<g id="kvg:06688-g3" kvg:element="冖" kvg:position="top">
			<path style="stroke: #25bf09;" id="kvg:06688-s5" kvg:type="㇔" d="M21.94,36c-0.15,3.63-3.68,13.11-4.94,15.27"/>
			<path style="stroke: #09bf41;" id="kvg:06688-s6" kvg:type="㇖b" d="M24.04,37.48c8.18-0.73,43.44-3.9,59.61-4.49c12.29-0.44,1.91,7.79,0.4,9.03"/>
		</g>
		<g id="kvg:06688-g4" kvg:element="車" kvg:position="bottom">
			<path style="stroke: #09bf95;" id="kvg:06688-s7" kvg:type="㇐" d="M29.14,47.36c1.3,0.36,3.67,0.45,4.96,0.36c12.52-0.8,24.35-3.25,38.97-3.71c2.16-0.07,3.46,0.17,4.54,0.36"/>
			<path style="stroke: #0995bf;" id="kvg:06688-s8" kvg:type="㇑" d="M27.82,55.18c0.76,0.38,1.72,1.68,1.87,2.19c1.03,3.68,2.32,13.13,3.21,19.21"/>
			<path style="stroke: #0941bf;" id="kvg:06688-s9" kvg:type="㇕a" d="M30.24,57.07c11.54-0.74,38.22-3.44,46.09-3.56c3.26-0.05,3.93,1.01,3.79,2.16c-0.48,3.96-1.65,10.46-4.24,16.96"/>
			<path style="stroke: #2509bf;" id="kvg:06688-s10" kvg:type="㇐a" d="M31.96,65.75C42,65,61.83,62.89,78.23,62.89"/>
			<path style="stroke: #7909bf;" id="kvg:06688-s11" kvg:type="㇐a" d="M32.96,74.93c10.11-0.76,29.75-3.06,42.92-3.06"/>
			<path style="stroke: #bf09b1;" id="kvg:06688-s12" kvg:type="㇐" d="M16.5,85.25c1.5,0.51,4.22,0.59,5.73,0.51C47.5,84.45,63.25,82,88.26,81.4c2.49-0.06,3.99,0.24,5.24,0.5"/>
			<path style="stroke: #bf095d;" id="kvg:06688-s13" kvg:type="㇑" d="M52.42,37.81c0.71,0.46,1.86,1.94,1.86,4.33c0,0.92-0.09,52.79-0.24,58.49"/>
		</g>
	</g>
</g>
</g>
<g id="kvg:StrokeNumbers_06688" style="font-size:8;fill:#808080" transform="scale(3.0,3.0)">
	<text style="fill: #bf0909;" transform="matrix(1 0 0 1 27.50 18.50)">1</text>
	<text style="fill: #bf5d09;" transform="matrix(1 0 0 1 36.50 9.50)">2</text>
	<text style="fill: #bfb109;" transform="matrix(1 0 0 1 39.50 18.50)">3</text>
	<text style="fill: #79bf09;" transform="matrix(1 0 0 1 39.50 26.50)">4</text>
	<text style="fill: #25bf09;" transform="matrix(1 0 0 1 15.50 37.50)">5</text>
	<text style="fill: #09bf41;" transform="matrix(1 0 0 1 25.50 34.50)">6</text>
	<text style="fill: #09bf95;" transform="matrix(1 0 0 1 28.50 44.50)">7</text>
	<text style="fill: #0995bf;" transform="matrix(1 0 0 1 22.50 61.50)">8</text>
	<text style="fill: #0941bf;" transform="matrix(1 0 0 1 32.50 54.03)">9</text>
	<text style="fill: #2509bf;" transform="matrix(1 0 0 1 34.50 63.95)">10</text>
	<text style="fill: #7909bf;" transform="matrix(1 0 0 1 36.50 72.50)">11</text>
	<text style="fill: #bf09b1;" transform="matrix(1 0 0 1 13.50 82.50)">12</text>
	<text style="fill: #bf095d;" transform="matrix(1 0 0 1 42.50 42.50)">13</text>
</g>
</svg>
