<?xml version="1.0" encoding="UTF-8"?>
<!--
This file has been modified from the original version by the kanji_colorize.py
script (available at http://github.com/cayennes/kanji-colorize) with these
settings:
    mode: spectrum
    saturation: 0.95
    value: 0.75
    image_size: 327
It remains under a Creative Commons-Attribution-Share Alike 3.0 License.

The original SVG has the following copyright:

Copyright (C) 2009/2010/2011 Ulrich Apel.
This work is distributed under the conditions of the Creative Commons
Attribution-Share Alike 3.0 Licence. This means you are free:
* to Share - to copy, distribute and transmit the work
* to Remix - to adapt the work

Under the following conditions:
* Attribution. You must attribute the work by stating your use of KanjiVG in
  your own copyright header and linking to KanjiVG's website
  (http://kanjivg.tagaini.net)
* Share Alike. If you alter, transform, or build upon this work, you may
  distribute the resulting work only under the same or similar license to this
  one.

See http://creativecommons.org/licenses/by-sa/3.0/ for more details.
-->
<!DOCTYPE svg PUBLIC "-//W3C//DTD SVG 1.0//EN" "http://www.w3.org/TR/2001/REC-SVG-20010904/DTD/svg10.dtd" [
<!ATTLIST g
xmlns:kvg CDATA #FIXED "http://kanjivg.tagaini.net"
kvg:element CDATA #IMPLIED
kvg:variant CDATA #IMPLIED
kvg:partial CDATA #IMPLIED
kvg:original CDATA #IMPLIED
kvg:part CDATA #IMPLIED
kvg:number CDATA #IMPLIED
kvg:tradForm CDATA #IMPLIED
kvg:radicalForm CDATA #IMPLIED
kvg:position CDATA #IMPLIED
kvg:radical CDATA #IMPLIED
kvg:phon CDATA #IMPLIED >
<!ATTLIST path
xmlns:kvg CDATA #FIXED "http://kanjivg.tagaini.net"
kvg:type CDATA #IMPLIED >
]>
<svg xmlns="http://www.w3.org/2000/svg" width="327" height = "327" viewBox="0 0 327 327">
<g id="kvg:StrokePaths_0671f" style="fill:none;stroke:#000000;stroke-width:3;stroke-linecap:round;stroke-linejoin:round;" transform="scale(3.0,3.0)">
<g id="kvg:0671f" kvg:element="期">
	<g id="kvg:0671f-g1" kvg:element="其" kvg:position="left" kvg:phon="其">
		<g id="kvg:0671f-g2" kvg:element="甘">
			<g id="kvg:0671f-g3" kvg:element="廿" kvg:part="1">
				<g id="kvg:0671f-g4" kvg:element="十">
					<path style="stroke: #bf0909;" id="kvg:0671f-s1" kvg:type="㇐" d="M15.96,32.56c2.54,0.31,4.38,0.09,6.29-0.22c8.88-1.46,19.12-3.12,28.54-4.2c2.05-0.23,4.09-0.39,6.09-0.08"/>
					<path style="stroke: #bf6409;" id="kvg:0671f-s2" kvg:type="㇑a" d="M26.5,18c1,1,1.46,2.38,1.46,3.77c0,2.06,0.1,40.22,0.1,48.49"/>
				</g>
				<path style="stroke: #bfbf09;" id="kvg:0671f-s3" kvg:type="㇑a" d="M44.75,12.5c1.25,1.25,1.63,2.75,1.63,4.31c0,0.95-0.15,42.69-0.15,50.82"/>
			</g>
			<path style="stroke: #64bf09;" id="kvg:0671f-s4" kvg:type="㇐a" d="M29.15,44.16c2.69-0.24,13.31-1.86,15.84-2.09"/>
			<g id="kvg:0671f-g5" kvg:element="廿" kvg:part="2">
				<path style="stroke: #09bf09;" id="kvg:0671f-s5" kvg:type="㇐a" d="M29.07,56.35c4.05-0.73,10.8-1.6,15.75-2.09"/>
			</g>
		</g>
		<path style="stroke: #09bf64;" id="kvg:0671f-s6" kvg:type="㇐" d="M12.25,72.34c2.38,0.66,5.31,0.48,7.75,0.08c9.37-1.54,22.5-3.29,32.88-4.51c2.35-0.27,4.99-0.54,7.62,0.01"/>
		<g id="kvg:0671f-g6" kvg:element="八">
			<path style="stroke: #09bfbf;" id="kvg:0671f-s7" kvg:type="㇒" d="M29.02,78.48c0.14,1.17-0.11,2.2-0.75,3.07c-2.36,3.59-6.74,8.63-12.56,13.17"/>
			<path style="stroke: #0964bf;" id="kvg:0671f-s8" kvg:type="㇔/㇏" d="M43.54,77.29c3.51,2.15,9.07,8.85,9.95,12.19"/>
		</g>
	</g>
	<g id="kvg:0671f-g7" kvg:element="月" kvg:position="right" kvg:radical="general">
		<path style="stroke: #0909bf;" id="kvg:0671f-s9" kvg:type="㇒" d="M67.12,22.02c0.99,0.99,1.66,2.37,1.68,3.32C69.5,67,66.75,79,56.75,91.5"/>
		<path style="stroke: #6409bf;" id="kvg:0671f-s10" kvg:type="㇆a" d="M69.72,23.46c1.85-0.23,17.58-2.8,18.98-2.97c3.05-0.37,4.34,1.13,4.34,3.97c0,1.39-0.21,46.56-0.21,65.6c0,7.93-5.2,2.68-8,0.12"/>
		<path style="stroke: #bf09bf;" id="kvg:0671f-s11" kvg:type="㇐a" d="M69.97,42.31c6.78-0.94,14.53-2.06,21.73-2.73"/>
		<path style="stroke: #bf0964;" id="kvg:0671f-s12" kvg:type="㇐a" d="M69.18,60.64c5.32-0.51,16.19-1.51,22.46-1.79"/>
	</g>
</g>
</g>
<g id="kvg:StrokeNumbers_0671f" style="font-size:8;fill:#808080" transform="scale(3.0,3.0)">
	<text style="fill: #bf0909;" transform="matrix(1 0 0 1 9.75 33.50)">1</text>
	<text style="fill: #bf6409;" transform="matrix(1 0 0 1 16.50 18.50)">2</text>
	<text style="fill: #bfbf09;" transform="matrix(1 0 0 1 35.50 13.50)">3</text>
	<text style="fill: #64bf09;" transform="matrix(1 0 0 1 32.50 40.50)">4</text>
	<text style="fill: #09bf09;" transform="matrix(1 0 0 1 32.50 52.50)">5</text>
	<text style="fill: #09bf64;" transform="matrix(1 0 0 1 5.50 73.63)">6</text>
	<text style="fill: #09bfbf;" transform="matrix(1 0 0 1 20.50 82.50)">7</text>
	<text style="fill: #0964bf;" transform="matrix(1 0 0 1 35.50 80.50)">8</text>
	<text style="fill: #0909bf;" transform="matrix(1 0 0 1 61.50 32.50)">9</text>
	<text style="fill: #6409bf;" transform="matrix(1 0 0 1 68.50 20.50)">10</text>
	<text style="fill: #bf09bf;" transform="matrix(1 0 0 1 72.50 38.50)">11</text>
	<text style="fill: #bf0964;" transform="matrix(1 0 0 1 72.50 56.50)">12</text>
</g>
</svg>
