<?xml version="1.0" encoding="UTF-8"?>
<!--
This file has been modified from the original version by the kanji_colorize.py
script (available at http://github.com/cayennes/kanji-colorize) with these
settings:
    mode: spectrum
    saturation: 0.95
    value: 0.75
    image_size: 327
It remains under a Creative Commons-Attribution-Share Alike 3.0 License.

The original SVG has the following copyright:

Copyright (C) 2009/2010/2011 Ulrich Apel.
This work is distributed under the conditions of the Creative Commons
Attribution-Share Alike 3.0 Licence. This means you are free:
* to Share - to copy, distribute and transmit the work
* to Remix - to adapt the work

Under the following conditions:
* Attribution. You must attribute the work by stating your use of KanjiVG in
  your own copyright header and linking to KanjiVG's website
  (http://kanjivg.tagaini.net)
* Share Alike. If you alter, transform, or build upon this work, you may
  distribute the resulting work only under the same or similar license to this
  one.

See http://creativecommons.org/licenses/by-sa/3.0/ for more details.
-->
<!DOCTYPE svg PUBLIC "-//W3C//DTD SVG 1.0//EN" "http://www.w3.org/TR/2001/REC-SVG-20010904/DTD/svg10.dtd" [
<!ATTLIST g
xmlns:kvg CDATA #FIXED "http://kanjivg.tagaini.net"
kvg:element CDATA #IMPLIED
kvg:variant CDATA #IMPLIED
kvg:partial CDATA #IMPLIED
kvg:original CDATA #IMPLIED
kvg:part CDATA #IMPLIED
kvg:number CDATA #IMPLIED
kvg:tradForm CDATA #IMPLIED
kvg:radicalForm CDATA #IMPLIED
kvg:position CDATA #IMPLIED
kvg:radical CDATA #IMPLIED
kvg:phon CDATA #IMPLIED >
<!ATTLIST path
xmlns:kvg CDATA #FIXED "http://kanjivg.tagaini.net"
kvg:type CDATA #IMPLIED >
]>
<svg xmlns="http://www.w3.org/2000/svg" width="327" height = "327" viewBox="0 0 327 327">
<g id="kvg:StrokePaths_06765" style="fill:none;stroke:#000000;stroke-width:3;stroke-linecap:round;stroke-linejoin:round;" transform="scale(3.0,3.0)">
<g id="kvg:06765" kvg:element="来">
	<path style="stroke: #bf0909;" id="kvg:06765-s1" kvg:type="㇐" d="M25.54,28.33c1.61,0.39,4.58,0.53,6.19,0.39c16.32-1.46,27.01-3.46,43.69-3.67c2.69-0.03,4.31,0.18,5.65,0.38"/>
	<g id="kvg:06765-g1" kvg:element="米">
		<path style="stroke: #bfa509;" id="kvg:06765-s2" kvg:type="㇔" d="M30.12,37.62c2.85,2.07,7.16,7.91,7.88,11.12"/>
		<path style="stroke: #3dbf09;" id="kvg:06765-s3" kvg:type="㇒" d="M74.52,33c0.08,0.98-0.11,1.9-0.58,2.77c-1.33,3.04-4.7,7.77-9.06,10.86"/>
		<g id="kvg:06765-g2" kvg:element="木" kvg:radical="tradit">
			<path style="stroke: #09bf71;" id="kvg:06765-s4" kvg:type="㇐" d="M16.62,57c2.28,0.5,4.9,0.74,8.42,0.5c14.81-1,39.08-3.5,58.03-4.25c3.54-0.14,6.33,0.25,8.55,0.5"/>
			<path style="stroke: #0971bf;" id="kvg:06765-s5" kvg:type="㇑" d="M51.67,10.75c1.33,1,2.18,2.75,2.18,4.5c0,0.9,0.06,58.96-0.17,78c-0.03,2.77-0.07,4.71-0.1,5.5"/>
			<g id="kvg:06765-g3" kvg:element="丿" kvg:radical="nelson">
				<path style="stroke: #3d09bf;" id="kvg:06765-s6" kvg:type="㇒" d="M49.75,56.5c0,1.5-0.44,2.48-0.82,3.11C42.37,70.49,29,83.75,15.75,90.5"/>
			</g>
			<path style="stroke: #bf09a5;" id="kvg:06765-s7" kvg:type="㇏" d="M55,56.25c4.38,3.88,19.75,19,29.73,26.28c2.82,2.06,6.52,4.5,10.02,5.22"/>
		</g>
	</g>
</g>
</g>
<g id="kvg:StrokeNumbers_06765" style="font-size:8;fill:#808080" transform="scale(3.0,3.0)">
	<text style="fill: #bf0909;" transform="matrix(1 0 0 1 18.50 28.50)">1</text>
	<text style="fill: #bfa509;" transform="matrix(1 0 0 1 23.50 40.63)">2</text>
	<text style="fill: #3dbf09;" transform="matrix(1 0 0 1 65.50 35.50)">3</text>
	<text style="fill: #09bf71;" transform="matrix(1 0 0 1 9.50 58.50)">4</text>
	<text style="fill: #0971bf;" transform="matrix(1 0 0 1 42.50 13.63)">5</text>
	<text style="fill: #3d09bf;" transform="matrix(1 0 0 1 35.50 67.50)">6</text>
	<text style="fill: #bf09a5;" transform="matrix(1 0 0 1 70.50 66.50)">7</text>
</g>
</svg>
