<?xml version="1.0" encoding="UTF-8"?>
<!--
This file has been modified from the original version by the kanji_colorize.py
script (available at http://github.com/cayennes/kanji-colorize) with these
settings:
    mode: spectrum
    saturation: 0.95
    value: 0.75
    image_size: 327
It remains under a Creative Commons-Attribution-Share Alike 3.0 License.

The original SVG has the following copyright:

Copyright (C) 2009/2010/2011 Ulrich Apel.
This work is distributed under the conditions of the Creative Commons
Attribution-Share Alike 3.0 Licence. This means you are free:
* to Share - to copy, distribute and transmit the work
* to Remix - to adapt the work

Under the following conditions:
* Attribution. You must attribute the work by stating your use of KanjiVG in
  your own copyright header and linking to KanjiVG's website
  (http://kanjivg.tagaini.net)
* Share Alike. If you alter, transform, or build upon this work, you may
  distribute the resulting work only under the same or similar license to this
  one.

See http://creativecommons.org/licenses/by-sa/3.0/ for more details.
-->
<!DOCTYPE svg PUBLIC "-//W3C//DTD SVG 1.0//EN" "http://www.w3.org/TR/2001/REC-SVG-20010904/DTD/svg10.dtd" [
<!ATTLIST g
xmlns:kvg CDATA #FIXED "http://kanjivg.tagaini.net"
kvg:element CDATA #IMPLIED
kvg:variant CDATA #IMPLIED
kvg:partial CDATA #IMPLIED
kvg:original CDATA #IMPLIED
kvg:part CDATA #IMPLIED
kvg:number CDATA #IMPLIED
kvg:tradForm CDATA #IMPLIED
kvg:radicalForm CDATA #IMPLIED
kvg:position CDATA #IMPLIED
kvg:radical CDATA #IMPLIED
kvg:phon CDATA #IMPLIED >
<!ATTLIST path
xmlns:kvg CDATA #FIXED "http://kanjivg.tagaini.net"
kvg:type CDATA #IMPLIED >
]>
<svg xmlns="http://www.w3.org/2000/svg" width="327" height = "327" viewBox="0 0 327 327">
<g id="kvg:StrokePaths_067ce" style="fill:none;stroke:#000000;stroke-width:3;stroke-linecap:round;stroke-linejoin:round;" transform="scale(3.0,3.0)">
<g id="kvg:067ce" kvg:element="柎">
	<g id="kvg:067ce-g1" kvg:element="木" kvg:position="left" kvg:radical="general">
		<path style="stroke: #bf0909;" id="kvg:067ce-s1" kvg:type="㇐" d="M13.28,36.72c0.35,0.24,2.39,0.41,3.31,0.31c3.94-0.41,17.12-2.21,23.45-3.41c0.92-0.17,2.15-0.24,2.73,0"/>
		<path style="stroke: #bf8209;" id="kvg:067ce-s2" kvg:type="㇑" d="M27.36,14.5c0.91,0.47,2.04,2,2.04,4.42c0,0.95-0.12,69.75-0.3,75.58"/>
		<path style="stroke: #82bf09;" id="kvg:067ce-s3" kvg:type="㇒" d="M28.94,40.28c-5.1,15.04-7.94,20.4-15.83,33.56"/>
		<path style="stroke: #09bf09;" id="kvg:067ce-s4" kvg:type="㇔/㇏" d="M31.47,42.9c2.16,1.23,5.71,5.22,7.53,7.6"/>
	</g>
	<g id="kvg:067ce-g2" kvg:element="付" kvg:position="right">
		<g id="kvg:067ce-g3" kvg:element="亻" kvg:variant="true" kvg:original="人" kvg:position="left">
			<path style="stroke: #09bf82;" id="kvg:067ce-s5" kvg:type="㇒" d="M58.48,16.61c0.19,1.95-0.05,4.5-0.66,6.17c-3.88,10.64-9.19,24.05-18.09,37"/>
			<path style="stroke: #0982bf;" id="kvg:067ce-s6" kvg:type="㇑" d="M50.64,44.03c0.34,0.92,0.88,2.83,0.92,4.11c0.39,11.53-0.75,39.6-0.4,46.21"/>
		</g>
		<g id="kvg:067ce-g4" kvg:element="寸" kvg:position="right">
			<path style="stroke: #0909bf;" id="kvg:067ce-s7" kvg:type="㇐" d="M60.75,40.09c1.05,0.7,3.47,0.84,4.54,0.76c7.95-0.6,18.36-2.68,28.41-3.52c1.75-0.15,2.81-0.1,3.69,0.24"/>
			<path style="stroke: #8209bf;" id="kvg:067ce-s8" kvg:type="㇚" d="M82.6,13.93c0.08,0.63,1.11,1.57,1.19,5.54c0.38,19.08-0.24,62.97-0.24,69.47c0,12.17-6.17,2.34-8.25,0.33"/>
			<path style="stroke: #bf0982;" id="kvg:067ce-s9" kvg:type="㇔" d="M65.52,55.02c3.02,1.81,7.81,7.44,8.57,10.25"/>
		</g>
	</g>
</g>
</g>
<g id="kvg:StrokeNumbers_067ce" style="font-size:8;fill:#808080" transform="scale(3.0,3.0)">
	<text style="fill: #bf0909;" transform="matrix(1 0 0 1 6.50 37.50)">1</text>
	<text style="fill: #bf8209;" transform="matrix(1 0 0 1 18.50 14.50)">2</text>
	<text style="fill: #82bf09;" transform="matrix(1 0 0 1 19.50 47.50)">3</text>
	<text style="fill: #09bf09;" transform="matrix(1 0 0 1 35.50 43.50)">4</text>
	<text style="fill: #09bf82;" transform="matrix(1 0 0 1 50.50 15.50)">5</text>
	<text style="fill: #0982bf;" transform="matrix(1 0 0 1 44.50 62.50)">6</text>
	<text style="fill: #0909bf;" transform="matrix(1 0 0 1 60.50 37.50)">7</text>
	<text style="fill: #8209bf;" transform="matrix(1 0 0 1 72.50 14.50)">8</text>
	<text style="fill: #bf0982;" transform="matrix(1 0 0 1 59.50 54.50)">9</text>
</g>
</svg>
