<?xml version="1.0" encoding="UTF-8"?>
<!--
This file has been modified from the original version by the kanji_colorize.py
script (available at http://github.com/cayennes/kanji-colorize) with these
settings:
    mode: spectrum
    saturation: 0.95
    value: 0.75
    image_size: 327
It remains under a Creative Commons-Attribution-Share Alike 3.0 License.

The original SVG has the following copyright:

Copyright (C) 2009/2010/2011 Ulrich Apel.
This work is distributed under the conditions of the Creative Commons
Attribution-Share Alike 3.0 Licence. This means you are free:
* to Share - to copy, distribute and transmit the work
* to Remix - to adapt the work

Under the following conditions:
* Attribution. You must attribute the work by stating your use of KanjiVG in
  your own copyright header and linking to KanjiVG's website
  (http://kanjivg.tagaini.net)
* Share Alike. If you alter, transform, or build upon this work, you may
  distribute the resulting work only under the same or similar license to this
  one.

See http://creativecommons.org/licenses/by-sa/3.0/ for more details.
-->
<!DOCTYPE svg PUBLIC "-//W3C//DTD SVG 1.0//EN" "http://www.w3.org/TR/2001/REC-SVG-20010904/DTD/svg10.dtd" [
<!ATTLIST g
xmlns:kvg CDATA #FIXED "http://kanjivg.tagaini.net"
kvg:element CDATA #IMPLIED
kvg:variant CDATA #IMPLIED
kvg:partial CDATA #IMPLIED
kvg:original CDATA #IMPLIED
kvg:part CDATA #IMPLIED
kvg:number CDATA #IMPLIED
kvg:tradForm CDATA #IMPLIED
kvg:radicalForm CDATA #IMPLIED
kvg:position CDATA #IMPLIED
kvg:radical CDATA #IMPLIED
kvg:phon CDATA #IMPLIED >
<!ATTLIST path
xmlns:kvg CDATA #FIXED "http://kanjivg.tagaini.net"
kvg:type CDATA #IMPLIED >
]>
<svg xmlns="http://www.w3.org/2000/svg" width="327" height = "327" viewBox="0 0 327 327">
<g id="kvg:StrokePaths_067e4" style="fill:none;stroke:#000000;stroke-width:3;stroke-linecap:round;stroke-linejoin:round;" transform="scale(3.0,3.0)">
<g id="kvg:067e4" kvg:element="柤">
	<g id="kvg:067e4-g1" kvg:element="木" kvg:position="left" kvg:radical="general">
		<path style="stroke: #bf0909;" id="kvg:067e4-s1" kvg:type="㇐" d="M13.28,38.72c0.35,0.24,2.39,0.41,3.31,0.31c3.94-0.41,19.12-1.71,25.45-2.91c0.92-0.17,2.15-0.24,2.73,0"/>
		<path style="stroke: #bf8209;" id="kvg:067e4-s2" kvg:type="㇑" d="M29.36,14c0.89,1.25,2.04,2,2.04,4.92c0,0.95-0.12,70.75-0.3,76.58"/>
		<path style="stroke: #82bf09;" id="kvg:067e4-s3" kvg:type="㇒" d="M31.19,40.53C25.41,57.2,21.06,64.25,12.11,78.84"/>
		<path style="stroke: #09bf09;" id="kvg:067e4-s4" kvg:type="㇔/㇏" d="M33.72,47.65c2.44,1.8,6.47,7.62,8.53,11.1"/>
	</g>
	<g id="kvg:067e4-g2" kvg:element="且" kvg:position="right">
		<g id="kvg:067e4-g3" kvg:element="月">
			<path style="stroke: #09bf82;" id="kvg:067e4-s5" kvg:type="㇑a" d="M53.96,20.59c0.59,1.03,0.98,2.05,1.18,3.06c0.2,1.01,0.43,65.08,0.36,67.31"/>
			<path style="stroke: #0982bf;" id="kvg:067e4-s6" kvg:type="㇕b" d="M56.3,21.73c2.27-0.1,22.62-2.98,24.31-3.16c3.03-0.31,4.18,3.51,3.81,4.98c-0.36,1.41-0.18,44.21-0.29,64.39"/>
			<path style="stroke: #0909bf;" id="kvg:067e4-s7" kvg:type="㇐a" d="M56.38,43.9c7.76-1,19.95-1.94,26.77-2.25"/>
			<path style="stroke: #8209bf;" id="kvg:067e4-s8" kvg:type="㇐a" d="M56.84,65.36c6.06-0.36,18.82-1.76,25.83-1.81"/>
		</g>
		<g id="kvg:067e4-g4" kvg:element="一">
			<path style="stroke: #bf0982;" id="kvg:067e4-s9" kvg:type="㇐" d="M42.54,92.57c1.17,0.43,3.32,0.5,4.49,0.43c12.2-0.73,34.72-3.41,47-3.41c1.95,0,3.13,0.21,4.1,0.42"/>
		</g>
	</g>
</g>
</g>
<g id="kvg:StrokeNumbers_067e4" style="font-size:8;fill:#808080" transform="scale(3.0,3.0)">
	<text style="fill: #bf0909;" transform="matrix(1 0 0 1 6.50 40.50)">1</text>
	<text style="fill: #bf8209;" transform="matrix(1 0 0 1 20.50 14.50)">2</text>
	<text style="fill: #82bf09;" transform="matrix(1 0 0 1 21.50 49.50)">3</text>
	<text style="fill: #09bf09;" transform="matrix(1 0 0 1 35.50 46.85)">4</text>
	<text style="fill: #09bf82;" transform="matrix(1 0 0 1 47.50 27.50)">5</text>
	<text style="fill: #0982bf;" transform="matrix(1 0 0 1 56.50 18.25)">6</text>
	<text style="fill: #0909bf;" transform="matrix(1 0 0 1 59.50 40.50)">7</text>
	<text style="fill: #8209bf;" transform="matrix(1 0 0 1 59.50 62.50)">8</text>
	<text style="fill: #bf0982;" transform="matrix(1 0 0 1 40.50 89.50)">9</text>
</g>
</svg>
