<?xml version="1.0" encoding="UTF-8"?>
<!--
This file has been modified from the original version by the kanji_colorize.py
script (available at http://github.com/cayennes/kanji-colorize) with these
settings:
    mode: spectrum
    saturation: 0.95
    value: 0.75
    image_size: 327
It remains under a Creative Commons-Attribution-Share Alike 3.0 License.

The original SVG has the following copyright:

Copyright (C) 2009/2010/2011 Ulrich Apel.
This work is distributed under the conditions of the Creative Commons
Attribution-Share Alike 3.0 Licence. This means you are free:
* to Share - to copy, distribute and transmit the work
* to Remix - to adapt the work

Under the following conditions:
* Attribution. You must attribute the work by stating your use of KanjiVG in
  your own copyright header and linking to KanjiVG's website
  (http://kanjivg.tagaini.net)
* Share Alike. If you alter, transform, or build upon this work, you may
  distribute the resulting work only under the same or similar license to this
  one.

See http://creativecommons.org/licenses/by-sa/3.0/ for more details.
-->
<!DOCTYPE svg PUBLIC "-//W3C//DTD SVG 1.0//EN" "http://www.w3.org/TR/2001/REC-SVG-20010904/DTD/svg10.dtd" [
<!ATTLIST g
xmlns:kvg CDATA #FIXED "http://kanjivg.tagaini.net"
kvg:element CDATA #IMPLIED
kvg:variant CDATA #IMPLIED
kvg:partial CDATA #IMPLIED
kvg:original CDATA #IMPLIED
kvg:part CDATA #IMPLIED
kvg:number CDATA #IMPLIED
kvg:tradForm CDATA #IMPLIED
kvg:radicalForm CDATA #IMPLIED
kvg:position CDATA #IMPLIED
kvg:radical CDATA #IMPLIED
kvg:phon CDATA #IMPLIED >
<!ATTLIST path
xmlns:kvg CDATA #FIXED "http://kanjivg.tagaini.net"
kvg:type CDATA #IMPLIED >
]>
<svg xmlns="http://www.w3.org/2000/svg" width="327" height = "327" viewBox="0 0 327 327">
<g id="kvg:StrokePaths_067ef" style="fill:none;stroke:#000000;stroke-width:3;stroke-linecap:round;stroke-linejoin:round;" transform="scale(3.0,3.0)">
<g id="kvg:067ef" kvg:element="柯">
	<g id="kvg:067ef-g1" kvg:element="木" kvg:position="left" kvg:radical="general">
		<path style="stroke: #bf0909;" id="kvg:067ef-s1" kvg:type="㇐" d="M13.03,38.22c0.35,0.24,2.39,0.41,3.31,0.31c3.94-0.41,17.12-1.71,23.45-2.91c0.92-0.17,2.15-0.24,2.73,0"/>
		<path style="stroke: #bf8209;" id="kvg:067ef-s2" kvg:type="㇑" d="M28.11,15c0.91,0.47,2.54,2,2.54,4.42c0,0.95-0.12,71.25-0.3,77.08"/>
		<path style="stroke: #82bf09;" id="kvg:067ef-s3" kvg:type="㇒" d="M30.19,40.28C24.29,56.74,21,63.69,11.86,78.09"/>
		<path style="stroke: #09bf09;" id="kvg:067ef-s4" kvg:type="㇔/㇏" d="M32.72,46.4C35.1,47.99,40,53.16,42,56.25"/>
	</g>
	<g id="kvg:067ef-g2" kvg:element="可" kvg:position="right">
		<g id="kvg:067ef-g3" kvg:element="丁" kvg:part="1">
			<g id="kvg:067ef-g4" kvg:element="一">
				<path style="stroke: #09bf82;" id="kvg:067ef-s5" kvg:type="㇐" d="M42.72,25.13c1.2,0.51,3.41,0.63,4.61,0.51c7.16-0.72,34.06-3.68,44-4.35c2-0.13,3.21,0.24,4.21,0.5"/>
			</g>
		</g>
		<g id="kvg:067ef-g5" kvg:element="口">
			<path style="stroke: #0982bf;" id="kvg:067ef-s6" kvg:type="㇑" d="M48.83,41.23c0.33,0.41,0.68,0.75,0.82,1.26c1.16,4.04,2.54,16.3,3.33,23.56"/>
			<path style="stroke: #0909bf;" id="kvg:067ef-s7" kvg:type="㇕b" d="M51.4,42.94C59,41,64.54,40.2,68.45,39.56c1.43-0.24,2.2,1.38,2.08,2.79C70,48.56,68.5,52.76,67.94,62.14"/>
			<path style="stroke: #8209bf;" id="kvg:067ef-s8" kvg:type="㇐b" d="M53.64,64.14c6.11-0.39,9.11-0.89,15.73-1.29"/>
		</g>
		<g id="kvg:067ef-g6" kvg:element="丁" kvg:part="2">
			<g id="kvg:067ef-g7" kvg:element="亅">
				<path style="stroke: #bf0982;" id="kvg:067ef-s9" kvg:type="㇚" d="M83.16,25.09c0.07,0.45,1.32,2.34,1.39,5.18c0.32,13.67-0.2,56.07-0.2,60.73c0,7.99-5.71,1.41-6.89,0.23"/>
			</g>
		</g>
	</g>
</g>
</g>
<g id="kvg:StrokeNumbers_067ef" style="font-size:8;fill:#808080" transform="scale(3.0,3.0)">
	<text style="fill: #bf0909;" transform="matrix(1 0 0 1 6.50 38.50)">1</text>
	<text style="fill: #bf8209;" transform="matrix(1 0 0 1 19.50 14.50)">2</text>
	<text style="fill: #82bf09;" transform="matrix(1 0 0 1 20.50 48.50)">3</text>
	<text style="fill: #09bf09;" transform="matrix(1 0 0 1 34.50 45.50)">4</text>
	<text style="fill: #09bf82;" transform="matrix(1 0 0 1 40.50 21.50)">5</text>
	<text style="fill: #0982bf;" transform="matrix(1 0 0 1 42.50 47.50)">6</text>
	<text style="fill: #0909bf;" transform="matrix(1 0 0 1 51.50 39.50)">7</text>
	<text style="fill: #8209bf;" transform="matrix(1 0 0 1 56.50 60.50)">8</text>
	<text style="fill: #bf0982;" transform="matrix(1 0 0 1 76.50 31.50)">9</text>
</g>
</svg>
