<?xml version="1.0" encoding="UTF-8"?>
<!--
This file has been modified from the original version by the kanji_colorize.py
script (available at http://github.com/cayennes/kanji-colorize) with these
settings:
    mode: spectrum
    saturation: 0.95
    value: 0.75
    image_size: 327
It remains under a Creative Commons-Attribution-Share Alike 3.0 License.

The original SVG has the following copyright:

Copyright (C) 2009/2010/2011 Ulrich Apel.
This work is distributed under the conditions of the Creative Commons
Attribution-Share Alike 3.0 Licence. This means you are free:
* to Share - to copy, distribute and transmit the work
* to Remix - to adapt the work

Under the following conditions:
* Attribution. You must attribute the work by stating your use of KanjiVG in
  your own copyright header and linking to KanjiVG's website
  (http://kanjivg.tagaini.net)
* Share Alike. If you alter, transform, or build upon this work, you may
  distribute the resulting work only under the same or similar license to this
  one.

See http://creativecommons.org/licenses/by-sa/3.0/ for more details.
-->
<!DOCTYPE svg PUBLIC "-//W3C//DTD SVG 1.0//EN" "http://www.w3.org/TR/2001/REC-SVG-20010904/DTD/svg10.dtd" [
<!ATTLIST g
xmlns:kvg CDATA #FIXED "http://kanjivg.tagaini.net"
kvg:element CDATA #IMPLIED
kvg:variant CDATA #IMPLIED
kvg:partial CDATA #IMPLIED
kvg:original CDATA #IMPLIED
kvg:part CDATA #IMPLIED
kvg:number CDATA #IMPLIED
kvg:tradForm CDATA #IMPLIED
kvg:radicalForm CDATA #IMPLIED
kvg:position CDATA #IMPLIED
kvg:radical CDATA #IMPLIED
kvg:phon CDATA #IMPLIED >
<!ATTLIST path
xmlns:kvg CDATA #FIXED "http://kanjivg.tagaini.net"
kvg:type CDATA #IMPLIED >
]>
<svg xmlns="http://www.w3.org/2000/svg" width="327" height = "327" viewBox="0 0 327 327">
<g id="kvg:StrokePaths_0689b" style="fill:none;stroke:#000000;stroke-width:3;stroke-linecap:round;stroke-linejoin:round;" transform="scale(3.0,3.0)">
<g id="kvg:0689b" kvg:element="梛">
	<g id="kvg:0689b-g1" kvg:element="木" kvg:position="left" kvg:radical="general">
		<path style="stroke: #bf0909;" id="kvg:0689b-s1" kvg:type="㇐" d="M10.28,36.32c0.37,0.26,2.56,0.44,3.55,0.34c4.23-0.44,15.72-1.87,22.51-3.16c0.98-0.19,2.31-0.26,2.93,0"/>
		<path style="stroke: #bf6c09;" id="kvg:0689b-s2" kvg:type="㇑" d="M24.86,14c0.91,0.47,2.54,2.5,2.54,4.92c0,0.95-0.12,70.75-0.3,76.58"/>
		<path style="stroke: #aebf09;" id="kvg:0689b-s3" kvg:type="㇒" d="M26.94,38.28c-5.1,15.04-8.94,21.4-16.83,34.56"/>
		<path style="stroke: #4bbf09;" id="kvg:0689b-s4" kvg:type="㇔/㇏" d="M29.47,44.4c2.37,1.83,6.28,4.31,8.28,7.85"/>
	</g>
	<g id="kvg:0689b-g2" kvg:element="那" kvg:position="right">
		<g id="kvg:0689b-g3" kvg:position="left">
			<path style="stroke: #09bf2a;" id="kvg:0689b-s5" kvg:type="㇆" d="M38.84,20.78c1.05,0.71,2.37,0.53,3.31,0.38c6.71-1.09,14.89-1.94,19.06-2.67c2.71-0.47,3.26,2.12,3.32,5.44c0.17,10.41-2.35,51.23-6.21,63.02c-3.02,9.23-6.14,0.32-7.24-0.71"/>
			<g id="kvg:0689b-g4" kvg:element="二">
				<g id="kvg:0689b-g5" kvg:position="top">
					<path style="stroke: #09bf8d;" id="kvg:0689b-s6" kvg:type="㇐" d="M39.2,41.11c0.67,0.25,1.9,0.32,2.57,0.25c4.28-0.43,11.8-2.3,15.89-2.7c1.11-0.11,1.79,0.12,2.35,0.24"/>
				</g>
				<g id="kvg:0689b-g6" kvg:position="bottom">
					<path style="stroke: #098dbf;" id="kvg:0689b-s7" kvg:type="㇐" d="M37.27,60.19c0.74,0.27,2.1,0.34,2.84,0.27c4.72-0.47,13.12-2.47,17.63-2.9c1.23-0.12,2.48,0.13,3.09,0.27"/>
				</g>
			</g>
			<path style="stroke: #092abf;" id="kvg:0689b-s8" kvg:type="㇒" d="M49.19,23.18c0.51,1.76,1.25,3.15,1.25,5.35c0,20.1,0.25,44.66-14.37,59.43"/>
		</g>
		<g id="kvg:0689b-g7" kvg:element="⻏" kvg:variant="true" kvg:original="邑" kvg:position="right">
			<path style="stroke: #4b09bf;" id="kvg:0689b-s9" kvg:type="㇇" d="M71.05,18.96c0.75,0.08,2.08,0.44,3.06,0.42c4.89-0.13,13.22-1.54,15.42-2.31c2.7-0.96,5.41,0.96,4.21,3.2c-1.2,2.24-7.49,15.24-10.42,20.28"/>
			<path style="stroke: #ae09bf;" id="kvg:0689b-s10" kvg:type="㇕va" d="M83.01,41.01c16.74,13.49,13.24,45.74,2.74,32.47"/>
			<path style="stroke: #bf096c;" id="kvg:0689b-s11" kvg:type="㇑" d="M75.67,19.44c0.16,0.95,0,72.14-0.16,78.06"/>
		</g>
	</g>
</g>
</g>
<g id="kvg:StrokeNumbers_0689b" style="font-size:8;fill:#808080" transform="scale(3.0,3.0)">
	<text style="fill: #bf0909;" transform="matrix(1 0 0 1 4.50 37.50)">1</text>
	<text style="fill: #bf6c09;" transform="matrix(1 0 0 1 16.66 14.50)">2</text>
	<text style="fill: #aebf09;" transform="matrix(1 0 0 1 17.71 46.50)">3</text>
	<text style="fill: #4bbf09;" transform="matrix(1 0 0 1 31.50 43.50)">4</text>
	<text style="fill: #09bf2a;" transform="matrix(1 0 0 1 36.50 16.50)">5</text>
	<text style="fill: #09bf8d;" transform="matrix(1 0 0 1 41.25 38.25)">6</text>
	<text style="fill: #098dbf;" transform="matrix(1 0 0 1 40.50 57.50)">7</text>
	<text style="fill: #092abf;" transform="matrix(1 0 0 1 43.50 29.10)">8</text>
	<text style="fill: #4b09bf;" transform="matrix(1 0 0 1 70.50 16.50)">9</text>
	<text style="fill: #ae09bf;" transform="matrix(1 0 0 1 79.50 51.50)">10</text>
	<text style="fill: #bf096c;" transform="matrix(1 0 0 1 67.50 29.50)">11</text>
</g>
</svg>
