<?xml version="1.0" encoding="UTF-8"?>
<!--
This file has been modified from the original version by the kanji_colorize.py
script (available at http://github.com/cayennes/kanji-colorize) with these
settings:
    mode: spectrum
    saturation: 0.95
    value: 0.75
    image_size: 327
It remains under a Creative Commons-Attribution-Share Alike 3.0 License.

The original SVG has the following copyright:

Copyright (C) 2009/2010/2011 Ulrich Apel.
This work is distributed under the conditions of the Creative Commons
Attribution-Share Alike 3.0 Licence. This means you are free:
* to Share - to copy, distribute and transmit the work
* to Remix - to adapt the work

Under the following conditions:
* Attribution. You must attribute the work by stating your use of KanjiVG in
  your own copyright header and linking to KanjiVG's website
  (http://kanjivg.tagaini.net)
* Share Alike. If you alter, transform, or build upon this work, you may
  distribute the resulting work only under the same or similar license to this
  one.

See http://creativecommons.org/licenses/by-sa/3.0/ for more details.
-->
<!DOCTYPE svg PUBLIC "-//W3C//DTD SVG 1.0//EN" "http://www.w3.org/TR/2001/REC-SVG-20010904/DTD/svg10.dtd" [
<!ATTLIST g
xmlns:kvg CDATA #FIXED "http://kanjivg.tagaini.net"
kvg:element CDATA #IMPLIED
kvg:variant CDATA #IMPLIED
kvg:partial CDATA #IMPLIED
kvg:original CDATA #IMPLIED
kvg:part CDATA #IMPLIED
kvg:number CDATA #IMPLIED
kvg:tradForm CDATA #IMPLIED
kvg:radicalForm CDATA #IMPLIED
kvg:position CDATA #IMPLIED
kvg:radical CDATA #IMPLIED
kvg:phon CDATA #IMPLIED >
<!ATTLIST path
xmlns:kvg CDATA #FIXED "http://kanjivg.tagaini.net"
kvg:type CDATA #IMPLIED >
]>
<svg xmlns="http://www.w3.org/2000/svg" width="327" height = "327" viewBox="0 0 327 327">
<g id="kvg:StrokePaths_06a02" style="fill:none;stroke:#000000;stroke-width:3;stroke-linecap:round;stroke-linejoin:round;" transform="scale(3.0,3.0)">
<g id="kvg:06a02" kvg:element="樂">
	<g id="kvg:06a02-g1" kvg:position="top">
		<g id="kvg:06a02-g2" kvg:element="白">
			<g id="kvg:06a02-g3" kvg:position="top">
				<path style="stroke: #bf0909;" id="kvg:06a02-s1" kvg:type="㇒" d="M53.61,10.75c0.22,0.45,0.25,1.01,0.2,1.4c-0.3,2.33-2.92,7.91-5.31,11.04"/>
			</g>
			<g id="kvg:06a02-g4" kvg:element="日" kvg:position="bottom">
				<path style="stroke: #bf5209;" id="kvg:06a02-s2" kvg:type="㇑" d="M40.75,25.06c0.5,0.69,1.19,2.01,1.19,2.9c0,0.89,3.12,20.05,3.26,24.46"/>
				<path style="stroke: #bf9a09;" id="kvg:06a02-s3" kvg:type="㇕a" d="M41.65,26.14c1.95-0.11,18.77-2.41,20.54-2.54c1.48-0.11,2.43,0.75,2.32,1.41c-0.23,1.34-2.51,18.78-2.69,25.92"/>
				<path style="stroke: #9abf09;" id="kvg:06a02-s4" kvg:type="㇐a" d="M43.49,37.64c2.64,0,16.28-2.1,19.26-2.1"/>
				<path style="stroke: #52bf09;" id="kvg:06a02-s5" kvg:type="㇐a" d="M45.78,50.19c3.9,0,9.96-0.94,15.01-0.94"/>
			</g>
		</g>
		<g id="kvg:06a02-g5" kvg:element="幺">
			<path style="stroke: #09bf09;" id="kvg:06a02-s6" kvg:type="㇜" d="M27.91,15.37c0.24,1.1,0.46,2.02-0.12,3.11c-2.54,4.75-6.78,11.69-9.2,14.25c-0.5,0.52-0.48,2.53,0,2.74c2.54,1.1,6.16,2.29,9.51,3.93"/>
			<path style="stroke: #09bf52;" id="kvg:06a02-s7" kvg:type="㇜" d="M35.49,27.78c0.24,0.48,0.32,2.04,0,2.54c-4.74,7.43-10.99,15.18-17.8,23.33c-0.84,1-0.48,2.09,0.48,1.77c4.05-1.33,12.17-4.13,17.37-5.4"/>
			<path style="stroke: #09bf9a;" id="kvg:06a02-s8" kvg:type="㇔" d="M32.82,44.69c1.72,2.05,4.44,8.43,4.87,11.62"/>
		</g>
		<g id="kvg:06a02-g6" kvg:element="幺">
			<path style="stroke: #099abf;" id="kvg:06a02-s9" kvg:type="㇜" d="M79.66,14.87c0.24,1.05,0.46,1.94-0.12,2.98c-2.54,4.56-6.78,11.22-9.2,13.68c-0.5,0.5-0.48,2.43,0,2.63c2.54,1.05,6.83,2.81,9.01,4.74"/>
			<path style="stroke: #0952bf;" id="kvg:06a02-s10" kvg:type="㇜" d="M87.24,27.28c0.24,0.45,0.37,1.96,0,2.4c-5.08,6.08-11.59,13.69-17.8,21.54c-0.78,0.99-0.48,2,0.48,1.7c4.05-1.25,10.67-3.4,15.87-4.6"/>
			<path style="stroke: #0909bf;" id="kvg:06a02-s11" kvg:type="㇔" d="M82.57,44.19c2.42,1.87,6.26,7.7,6.87,10.62"/>
		</g>
	</g>
	<g id="kvg:06a02-g7" kvg:element="木" kvg:position="bottom" kvg:radical="general">
		<path style="stroke: #5209bf;" id="kvg:06a02-s12" kvg:type="㇐" d="M15.78,70.13c0.88,0.2,3.25,0.82,5.6,0.6c10.55-1.03,49.7-4.43,65.9-5.43c2.35-0.15,2.95-0.2,4.42,0"/>
		<path style="stroke: #9a09bf;" id="kvg:06a02-s13" kvg:type="㇑" d="M52.45,56.5c0.9,0.28,1.43,1.24,1.61,1.79s0,38.77-0.18,42.21"/>
		<path style="stroke: #bf099a;" id="kvg:06a02-s14" kvg:type="㇒" d="M51.25,68.75c-5.5,10-17.5,22.5-32.75,27.5"/>
		<path style="stroke: #bf0952;" id="kvg:06a02-s15" kvg:type="㇏" d="M55.76,68.11C62.25,74.75,77,86.75,86.36,91.7c1.85,0.98,3.18,1.71,4.89,2.05"/>
	</g>
</g>
</g>
<g id="kvg:StrokeNumbers_06a02" style="font-size:8;fill:#808080" transform="scale(3.0,3.0)">
	<text style="fill: #bf0909;" transform="matrix(1 0 0 1 46.50 10.50)">1</text>
	<text style="fill: #bf5209;" transform="matrix(1 0 0 1 37.25 39.50)">2</text>
	<text style="fill: #bf9a09;" transform="matrix(1 0 0 1 42.25 23.48)">3</text>
	<text style="fill: #9abf09;" transform="matrix(1 0 0 1 46.50 34.40)">4</text>
	<text style="fill: #52bf09;" transform="matrix(1 0 0 1 47.50 47.50)">5</text>
	<text style="fill: #09bf09;" transform="matrix(1 0 0 1 20.75 14.75)">6</text>
	<text style="fill: #09bf52;" transform="matrix(1 0 0 1 31.25 25.68)">7</text>
	<text style="fill: #09bf9a;" transform="matrix(1 0 0 1 36.50 47.50)">8</text>
	<text style="fill: #099abf;" transform="matrix(1 0 0 1 72.25 15.50)">9</text>
	<text style="fill: #0952bf;" transform="matrix(1 0 0 1 83.50 24.50)">10</text>
	<text style="fill: #0909bf;" transform="matrix(1 0 0 1 84.50 43.50)">11</text>
	<text style="fill: #5209bf;" transform="matrix(1 0 0 1 5.50 70.50)">12</text>
	<text style="fill: #9a09bf;" transform="matrix(1 0 0 1 41.50 60.73)">13</text>
	<text style="fill: #bf099a;" transform="matrix(1 0 0 1 34.50 79.50)">14</text>
	<text style="fill: #bf0952;" transform="matrix(1 0 0 1 65.50 76.50)">15</text>
</g>
</svg>
