<?xml version="1.0" encoding="UTF-8"?>
<!--
This file has been modified from the original version by the kanji_colorize.py
script (available at http://github.com/cayennes/kanji-colorize) with these
settings:
    mode: spectrum
    saturation: 0.95
    value: 0.75
    image_size: 327
It remains under a Creative Commons-Attribution-Share Alike 3.0 License.

The original SVG has the following copyright:

Copyright (C) 2009/2010/2011 Ulrich Apel.
This work is distributed under the conditions of the Creative Commons
Attribution-Share Alike 3.0 Licence. This means you are free:
* to Share - to copy, distribute and transmit the work
* to Remix - to adapt the work

Under the following conditions:
* Attribution. You must attribute the work by stating your use of KanjiVG in
  your own copyright header and linking to KanjiVG's website
  (http://kanjivg.tagaini.net)
* Share Alike. If you alter, transform, or build upon this work, you may
  distribute the resulting work only under the same or similar license to this
  one.

See http://creativecommons.org/licenses/by-sa/3.0/ for more details.
-->
<!DOCTYPE svg PUBLIC "-//W3C//DTD SVG 1.0//EN" "http://www.w3.org/TR/2001/REC-SVG-20010904/DTD/svg10.dtd" [
<!ATTLIST g
xmlns:kvg CDATA #FIXED "http://kanjivg.tagaini.net"
kvg:element CDATA #IMPLIED
kvg:variant CDATA #IMPLIED
kvg:partial CDATA #IMPLIED
kvg:original CDATA #IMPLIED
kvg:part CDATA #IMPLIED
kvg:number CDATA #IMPLIED
kvg:tradForm CDATA #IMPLIED
kvg:radicalForm CDATA #IMPLIED
kvg:position CDATA #IMPLIED
kvg:radical CDATA #IMPLIED
kvg:phon CDATA #IMPLIED >
<!ATTLIST path
xmlns:kvg CDATA #FIXED "http://kanjivg.tagaini.net"
kvg:type CDATA #IMPLIED >
]>
<svg xmlns="http://www.w3.org/2000/svg" width="327" height = "327" viewBox="0 0 327 327">
<g id="kvg:StrokePaths_06b4e" style="fill:none;stroke:#000000;stroke-width:3;stroke-linecap:round;stroke-linejoin:round;" transform="scale(3.0,3.0)">
<g id="kvg:06b4e" kvg:element="歎">
	<g id="kvg:06b4e-g1" kvg:position="left">
		<g id="kvg:06b4e-g2" kvg:element="艹" kvg:original="艸">
			<path style="stroke: #bf0909;" id="kvg:06b4e-s1" kvg:type="㇐" d="M10.48,26.55c0.9,0.38,1.94,0.36,2.84,0.38c6.93,0.08,26.22-3.27,35.65-3.3c1.49-0.01,2.39,0.18,3.14,0.37"/>
			<path style="stroke: #bf5209;" id="kvg:06b4e-s2" kvg:type="㇑a" d="M21.15,17.57c1.06,1.13,1.4,1.47,1.51,2.16c1.06,6.49,1.57,11.89,1.88,14.25"/>
			<path style="stroke: #bf9a09;" id="kvg:06b4e-s3" kvg:type="㇑a" d="M40.54,15.06c0.29,0.84,0.6,1.44,0.35,2.5c-0.91,3.78-2.14,11.89-3.14,15.93"/>
		</g>
		<path style="stroke: #9abf09;" id="kvg:06b4e-s4" kvg:type="㇐" d="M24.57,33.92c3.43-0.17,9.68-1.17,13.15-1.3"/>
		<g id="kvg:06b4e-g3" kvg:element="口">
			<path style="stroke: #52bf09;" id="kvg:06b4e-s5" kvg:type="㇑" d="M14.81,42.36c0.26,0.27,0.53,0.5,0.64,0.84c0.9,2.69,2.48,7.62,3.1,12.45"/>
			<path style="stroke: #09bf09;" id="kvg:06b4e-s6" kvg:type="㇕b" d="M15.68,43.3c7.78-1.49,26.09-3.57,30.54-3.95c1.63-0.14,2.61,0.81,2.37,1.62c-0.97,3.34-2.09,5.88-3.53,10.5"/>
			<path style="stroke: #09bf52;" id="kvg:06b4e-s7" kvg:type="㇐b" d="M18.72,55.14c5.23-0.43,20.78-2.59,27.97-3.24"/>
		</g>
		<g id="kvg:06b4e-g4" kvg:element="夫">
			<path style="stroke: #09bf9a;" id="kvg:06b4e-s8" kvg:type="㇐" d="M15.43,64.16c0.65,0.27,1.82,0.26,2.47,0.27C22,64.5,37,62.25,43.44,61.68c1.07-0.09,1.72,0.13,2.26,0.26"/>
			<g id="kvg:06b4e-g5" kvg:element="大">
				<path style="stroke: #099abf;" id="kvg:06b4e-s9" kvg:type="㇐" d="M11.18,74.78c0.87,0.36,3.13,0.6,4,0.53c7.32-0.56,23.57-3.31,31.97-4.25c1.44-0.16,2.31,0.17,3.03,0.35"/>
				<path style="stroke: #0952bf;" id="kvg:06b4e-s10" kvg:type="㇒" d="M31.04,33.64c0.37,0.86,0.47,1.66,0.51,3.33C32.5,81.25,29,88.75,10.74,96.94"/>
				<path style="stroke: #0909bf;" id="kvg:06b4e-s11" kvg:type="㇏" d="M30.18,77.92c6.31,2.88,12.3,7.89,14.92,13.01"/>
			</g>
		</g>
	</g>
	<g id="kvg:06b4e-g6" kvg:element="欠" kvg:position="right" kvg:radical="general">
		<g id="kvg:06b4e-g7" kvg:position="top">
			<path style="stroke: #5209bf;" id="kvg:06b4e-s12" kvg:type="㇒" d="M66.75,16c0.04,0.78,0.08,2.02-0.08,3.15c-0.93,6.63-6.25,21.19-13.54,30.1"/>
			<path style="stroke: #9a09bf;" id="kvg:06b4e-s13" kvg:type="㇖a" d="M60.72,39.49c0.91,0.36,2.64,0.93,4.01,0.61c1.67-0.39,19.68-5.65,21.26-5.85c8-1-1.33,9.09-3,11"/>
		</g>
		<g id="kvg:06b4e-g8" kvg:position="bottom">
			<path style="stroke: #bf099a;" id="kvg:06b4e-s14" kvg:type="㇒" d="M67.11,48.5c0.06,1.13,0.63,2.89,0.39,4.52c-2.34,15.73-4.75,31.73-20.25,43.23"/>
			<path style="stroke: #bf0952;" id="kvg:06b4e-s15" kvg:type="㇏" d="M66.92,58.5c4.08,7.75,18.8,26,25.5,32.41c1.41,1.35,2.48,2.16,3.82,2.59"/>
		</g>
	</g>
</g>
</g>
<g id="kvg:StrokeNumbers_06b4e" style="font-size:8;fill:#808080" transform="scale(3.0,3.0)">
	<text style="fill: #bf0909;" transform="matrix(1 0 0 1 4.50 27.50)">1</text>
	<text style="fill: #bf5209;" transform="matrix(1 0 0 1 12.50 17.50)">2</text>
	<text style="fill: #bf9a09;" transform="matrix(1 0 0 1 31.50 14.50)">3</text>
	<text style="fill: #9abf09;" transform="matrix(1 0 0 1 27.00 32.25)">4</text>
	<text style="fill: #52bf09;" transform="matrix(1 0 0 1 9.50 48.40)">5</text>
	<text style="fill: #09bf09;" transform="matrix(1 0 0 1 16.50 40.50)">6</text>
	<text style="fill: #09bf52;" transform="matrix(1 0 0 1 21.75 51.50)">7</text>
	<text style="fill: #09bf9a;" transform="matrix(1 0 0 1 9.50 63.50)">8</text>
	<text style="fill: #099abf;" transform="matrix(1 0 0 1 4.50 75.50)">9</text>
	<text style="fill: #0952bf;" transform="matrix(1 0 0 1 22.50 40.50)">10</text>
	<text style="fill: #0909bf;" transform="matrix(1 0 0 1 28.50 89.50)">11</text>
	<text style="fill: #5209bf;" transform="matrix(1 0 0 1 55.50 15.50)">12</text>
	<text style="fill: #9a09bf;" transform="matrix(1 0 0 1 66.50 35.50)">13</text>
	<text style="fill: #bf099a;" transform="matrix(1 0 0 1 56.50 55.50)">14</text>
	<text style="fill: #bf0952;" transform="matrix(1 0 0 1 71.50 63.50)">15</text>
</g>
</svg>
