<?xml version="1.0" encoding="UTF-8"?>
<!--
This file has been modified from the original version by the kanji_colorize.py
script (available at http://github.com/cayennes/kanji-colorize) with these
settings:
    mode: spectrum
    saturation: 0.95
    value: 0.75
    image_size: 327
It remains under a Creative Commons-Attribution-Share Alike 3.0 License.

The original SVG has the following copyright:

Copyright (C) 2009/2010/2011 Ulrich Apel.
This work is distributed under the conditions of the Creative Commons
Attribution-Share Alike 3.0 Licence. This means you are free:
* to Share - to copy, distribute and transmit the work
* to Remix - to adapt the work

Under the following conditions:
* Attribution. You must attribute the work by stating your use of KanjiVG in
  your own copyright header and linking to KanjiVG's website
  (http://kanjivg.tagaini.net)
* Share Alike. If you alter, transform, or build upon this work, you may
  distribute the resulting work only under the same or similar license to this
  one.

See http://creativecommons.org/licenses/by-sa/3.0/ for more details.
-->
<!DOCTYPE svg PUBLIC "-//W3C//DTD SVG 1.0//EN" "http://www.w3.org/TR/2001/REC-SVG-20010904/DTD/svg10.dtd" [
<!ATTLIST g
xmlns:kvg CDATA #FIXED "http://kanjivg.tagaini.net"
kvg:element CDATA #IMPLIED
kvg:variant CDATA #IMPLIED
kvg:partial CDATA #IMPLIED
kvg:original CDATA #IMPLIED
kvg:part CDATA #IMPLIED
kvg:number CDATA #IMPLIED
kvg:tradForm CDATA #IMPLIED
kvg:radicalForm CDATA #IMPLIED
kvg:position CDATA #IMPLIED
kvg:radical CDATA #IMPLIED
kvg:phon CDATA #IMPLIED >
<!ATTLIST path
xmlns:kvg CDATA #FIXED "http://kanjivg.tagaini.net"
kvg:type CDATA #IMPLIED >
]>
<svg xmlns="http://www.w3.org/2000/svg" width="327" height = "327" viewBox="0 0 327 327">
<g id="kvg:StrokePaths_06b64" style="fill:none;stroke:#000000;stroke-width:3;stroke-linecap:round;stroke-linejoin:round;" transform="scale(3.0,3.0)">
<g id="kvg:06b64" kvg:element="此">
	<g id="kvg:06b64-g1" kvg:element="止" kvg:position="left" kvg:radical="general">
		<g id="kvg:06b64-g2" kvg:element="卜" kvg:original="ト">
			<path style="stroke: #bf0909;" id="kvg:06b64-s1" kvg:type="㇑" d="M32.62,20.25c0.94,0.94,1.21,2.12,1.21,3.5c0,1.02-0.08,47.75-0.08,58.5"/>
			<path style="stroke: #bfbf09;" id="kvg:06b64-s2" kvg:type="㇐" d="M34.88,50c4.21-0.65,9.54-1.49,13.98-2.2c1.36-0.32,2.74-0.42,4.14-0.3"/>
		</g>
		<path style="stroke: #09bf09;" id="kvg:06b64-s3" kvg:type="㇑" d="M16.62,51.5c1.13,1.13,1.21,2.75,1.21,4.5c0,5.5,0.05,27,0.05,34.38"/>
		<path style="stroke: #09bfbf;" id="kvg:06b64-s4" kvg:type="㇀/㇐" d="M12,91.75c1.66,0.99,3.26,1.12,4.8,0.39C31,85.12,38.38,81.25,51.75,73.75"/>
	</g>
	<g id="kvg:06b64-g3" kvg:element="匕" kvg:position="right">
		<path style="stroke: #0909bf;" id="kvg:06b64-s5" kvg:type="㇒" d="M88.29,37.81c-0.41,1.31-1.16,2.06-1.99,2.73C82.48,43.64,75.62,47.25,66,51"/>
		<path style="stroke: #bf09bf;" id="kvg:06b64-s6" kvg:type="㇟" d="M60.75,15c1,1,1.26,1.95,1.26,3.57c0,3.18,0.11,48.43,0.11,59.35c0,9.49,2.25,11.34,15.72,11.34c13.33,0,14.66-1.68,14.66-10.6"/>
	</g>
</g>
</g>
<g id="kvg:StrokeNumbers_06b64" style="font-size:8;fill:#808080" transform="scale(3.0,3.0)">
	<text style="fill: #bf0909;" transform="matrix(1 0 0 1 23.25 19.63)">1</text>
	<text style="fill: #bfbf09;" transform="matrix(1 0 0 1 38.75 45.30)">2</text>
	<text style="fill: #09bf09;" transform="matrix(1 0 0 1 6.00 53.48)">3</text>
	<text style="fill: #09bfbf;" transform="matrix(1 0 0 1 3.25 90.40)">4</text>
	<text style="fill: #0909bf;" transform="matrix(1 0 0 1 77.50 37.08)">5</text>
	<text style="fill: #bf09bf;" transform="matrix(1 0 0 1 51.25 14.75)">6</text>
</g>
</svg>
