<?xml version="1.0" encoding="UTF-8"?>
<!--
This file has been modified from the original version by the kanji_colorize.py
script (available at http://github.com/cayennes/kanji-colorize) with these
settings:
    mode: spectrum
    saturation: 0.95
    value: 0.75
    image_size: 327
It remains under a Creative Commons-Attribution-Share Alike 3.0 License.

The original SVG has the following copyright:

Copyright (C) 2009/2010/2011 Ulrich Apel.
This work is distributed under the conditions of the Creative Commons
Attribution-Share Alike 3.0 Licence. This means you are free:
* to Share - to copy, distribute and transmit the work
* to Remix - to adapt the work

Under the following conditions:
* Attribution. You must attribute the work by stating your use of KanjiVG in
  your own copyright header and linking to KanjiVG's website
  (http://kanjivg.tagaini.net)
* Share Alike. If you alter, transform, or build upon this work, you may
  distribute the resulting work only under the same or similar license to this
  one.

See http://creativecommons.org/licenses/by-sa/3.0/ for more details.
-->
<!DOCTYPE svg PUBLIC "-//W3C//DTD SVG 1.0//EN" "http://www.w3.org/TR/2001/REC-SVG-20010904/DTD/svg10.dtd" [
<!ATTLIST g
xmlns:kvg CDATA #FIXED "http://kanjivg.tagaini.net"
kvg:element CDATA #IMPLIED
kvg:variant CDATA #IMPLIED
kvg:partial CDATA #IMPLIED
kvg:original CDATA #IMPLIED
kvg:part CDATA #IMPLIED
kvg:number CDATA #IMPLIED
kvg:tradForm CDATA #IMPLIED
kvg:radicalForm CDATA #IMPLIED
kvg:position CDATA #IMPLIED
kvg:radical CDATA #IMPLIED
kvg:phon CDATA #IMPLIED >
<!ATTLIST path
xmlns:kvg CDATA #FIXED "http://kanjivg.tagaini.net"
kvg:type CDATA #IMPLIED >
]>
<svg xmlns="http://www.w3.org/2000/svg" width="327" height = "327" viewBox="0 0 327 327">
<g id="kvg:StrokePaths_06c5d" style="fill:none;stroke:#000000;stroke-width:3;stroke-linecap:round;stroke-linejoin:round;" transform="scale(3.0,3.0)">
<g id="kvg:06c5d" kvg:element="汝">
	<g id="kvg:06c5d-g1" kvg:element="氵" kvg:variant="true" kvg:original="水" kvg:position="left" kvg:radical="general">
		<path style="stroke: #bf0909;" id="kvg:06c5d-s1" kvg:type="㇔" d="M17.38,18.25c4.19,1.65,10.82,6.78,11.87,9.34"/>
		<path style="stroke: #bfbf09;" id="kvg:06c5d-s2" kvg:type="㇔" d="M14,43c3.53,1.5,9.12,6.17,10,8.5"/>
		<path style="stroke: #09bf09;" id="kvg:06c5d-s3" kvg:type="㇀" d="M15.75,90.21c1.5,1.31,3.31,1.36,4.25-0.25c2.75-4.7,5.5-10.45,8-16.45"/>
	</g>
	<g id="kvg:06c5d-g2" kvg:element="女" kvg:position="right">
		<path style="stroke: #09bfbf;" id="kvg:06c5d-s4" kvg:type="㇛" d="M62.89,18.37c0.43,1.5,0.13,3.39-0.21,5.25c-1.67,9.13-10.26,30.13-15.59,40.63c-1.16,2.28-0.24,2.68,0.64,2.75c13.02,1,34.02,13.25,40.48,26.75"/>
		<path style="stroke: #0909bf;" id="kvg:06c5d-s5" kvg:type="㇒" d="M81.07,37.93c0.14,1.33,0.23,4.56-0.27,6.49c-4.08,15.6-15.84,37.72-44.99,49.33"/>
		<path style="stroke: #bf09bf;" id="kvg:06c5d-s6" kvg:type="㇐" d="M33.88,45.68c1.81,0.57,3.74,0.96,4.61,0.87c18.29-1.8,36.44-4.05,53.9-4.3c1.45-0.02,3.94,0.35,5.11,1"/>
	</g>
</g>
</g>
<g id="kvg:StrokeNumbers_06c5d" style="font-size:8;fill:#808080" transform="scale(3.0,3.0)">
	<text style="fill: #bf0909;" transform="matrix(1 0 0 1 10.50 18.50)">1</text>
	<text style="fill: #bfbf09;" transform="matrix(1 0 0 1 6.50 43.50)">2</text>
	<text style="fill: #09bf09;" transform="matrix(1 0 0 1 7.50 92.50)">3</text>
	<text style="fill: #09bfbf;" transform="matrix(1 0 0 1 54.25 18.40)">4</text>
	<text style="fill: #0909bf;" transform="matrix(1 0 0 1 75.50 32.50)">5</text>
	<text style="fill: #bf09bf;" transform="matrix(1 0 0 1 31.50 42.50)">6</text>
</g>
</svg>
