<?xml version="1.0" encoding="UTF-8"?>
<!--
This file has been modified from the original version by the kanji_colorize.py
script (available at http://github.com/cayennes/kanji-colorize) with these
settings:
    mode: spectrum
    saturation: 0.95
    value: 0.75
    image_size: 327
It remains under a Creative Commons-Attribution-Share Alike 3.0 License.

The original SVG has the following copyright:

Copyright (C) 2009/2010/2011 Ulrich Apel.
This work is distributed under the conditions of the Creative Commons
Attribution-Share Alike 3.0 Licence. This means you are free:
* to Share - to copy, distribute and transmit the work
* to Remix - to adapt the work

Under the following conditions:
* Attribution. You must attribute the work by stating your use of KanjiVG in
  your own copyright header and linking to KanjiVG's website
  (http://kanjivg.tagaini.net)
* Share Alike. If you alter, transform, or build upon this work, you may
  distribute the resulting work only under the same or similar license to this
  one.

See http://creativecommons.org/licenses/by-sa/3.0/ for more details.
-->
<!DOCTYPE svg PUBLIC "-//W3C//DTD SVG 1.0//EN" "http://www.w3.org/TR/2001/REC-SVG-20010904/DTD/svg10.dtd" [
<!ATTLIST g
xmlns:kvg CDATA #FIXED "http://kanjivg.tagaini.net"
kvg:element CDATA #IMPLIED
kvg:variant CDATA #IMPLIED
kvg:partial CDATA #IMPLIED
kvg:original CDATA #IMPLIED
kvg:part CDATA #IMPLIED
kvg:number CDATA #IMPLIED
kvg:tradForm CDATA #IMPLIED
kvg:radicalForm CDATA #IMPLIED
kvg:position CDATA #IMPLIED
kvg:radical CDATA #IMPLIED
kvg:phon CDATA #IMPLIED >
<!ATTLIST path
xmlns:kvg CDATA #FIXED "http://kanjivg.tagaini.net"
kvg:type CDATA #IMPLIED >
]>
<svg xmlns="http://www.w3.org/2000/svg" width="327" height = "327" viewBox="0 0 327 327">
<g id="kvg:StrokePaths_06c57" style="fill:none;stroke:#000000;stroke-width:3;stroke-linecap:round;stroke-linejoin:round;" transform="scale(3.0,3.0)">
<g id="kvg:06c57" kvg:element="汗">
	<g id="kvg:06c57-g1" kvg:element="氵" kvg:variant="true" kvg:original="水" kvg:position="left" kvg:radical="general">
		<path style="stroke: #bf0909;" id="kvg:06c57-s1" kvg:type="㇔" d="M22,14c5.03,1.65,11.5,5.5,14.25,9.34"/>
		<path style="stroke: #bfbf09;" id="kvg:06c57-s2" kvg:type="㇔" d="M14.88,38.12c4.54,1.61,11.74,6.62,12.88,9.12"/>
		<path style="stroke: #09bf09;" id="kvg:06c57-s3" kvg:type="㇀" d="M16.91,88.2c1.18,0.49,2.38,0.22,3.09-0.99c2.75-4.7,7.5-13.95,10-19.95"/>
	</g>
	<g id="kvg:06c57-g2" kvg:element="干" kvg:position="right" kvg:phon="干">
		<path style="stroke: #09bfbf;" id="kvg:06c57-s4" kvg:type="㇐" d="M45.17,20.87c2.58,0.76,5.48,0.28,7.58,0.01c7.04-0.91,20.1-2.54,28.51-3.41c2.37-0.24,5.49-0.22,7.11,0.11"/>
		<g id="kvg:06c57-g3" kvg:element="十">
			<path style="stroke: #0909bf;" id="kvg:06c57-s5" kvg:type="㇐" d="M38.38,46.53c2.66,0.94,6.27,0.57,9,0.29c11.84-1.24,30-3.25,42.74-3.86c2.62-0.13,5.17-0.23,7.76,0.32"/>
			<path style="stroke: #bf09bf;" id="kvg:06c57-s6" kvg:type="㇑" d="M65.56,22.88c1.03,1.03,1.79,2.62,1.79,4.58c0,3.47-0.06,43.64-0.08,60.91c0,3.88-0.01,6.61-0.01,7.5"/>
		</g>
	</g>
</g>
</g>
<g id="kvg:StrokeNumbers_06c57" style="font-size:8;fill:#808080" transform="scale(3.0,3.0)">
	<text style="fill: #bf0909;" transform="matrix(1 0 0 1 15.75 14.50)">1</text>
	<text style="fill: #bfbf09;" transform="matrix(1 0 0 1 7.50 38.50)">2</text>
	<text style="fill: #09bf09;" transform="matrix(1 0 0 1 8.50 90.50)">3</text>
	<text style="fill: #09bfbf;" transform="matrix(1 0 0 1 43.50 17.50)">4</text>
	<text style="fill: #0909bf;" transform="matrix(1 0 0 1 36.50 43.55)">5</text>
	<text style="fill: #bf09bf;" transform="matrix(1 0 0 1 58.50 30.50)">6</text>
</g>
</svg>
