<?xml version="1.0" encoding="UTF-8"?>
<!--
This file has been modified from the original version by the kanji_colorize.py
script (available at http://github.com/cayennes/kanji-colorize) with these
settings:
    mode: spectrum
    saturation: 0.95
    value: 0.75
    image_size: 327
It remains under a Creative Commons-Attribution-Share Alike 3.0 License.

The original SVG has the following copyright:

Copyright (C) 2009/2010/2011 Ulrich Apel.
This work is distributed under the conditions of the Creative Commons
Attribution-Share Alike 3.0 Licence. This means you are free:
* to Share - to copy, distribute and transmit the work
* to Remix - to adapt the work

Under the following conditions:
* Attribution. You must attribute the work by stating your use of KanjiVG in
  your own copyright header and linking to KanjiVG's website
  (http://kanjivg.tagaini.net)
* Share Alike. If you alter, transform, or build upon this work, you may
  distribute the resulting work only under the same or similar license to this
  one.

See http://creativecommons.org/licenses/by-sa/3.0/ for more details.
-->
<!DOCTYPE svg PUBLIC "-//W3C//DTD SVG 1.0//EN" "http://www.w3.org/TR/2001/REC-SVG-20010904/DTD/svg10.dtd" [
<!ATTLIST g
xmlns:kvg CDATA #FIXED "http://kanjivg.tagaini.net"
kvg:element CDATA #IMPLIED
kvg:variant CDATA #IMPLIED
kvg:partial CDATA #IMPLIED
kvg:original CDATA #IMPLIED
kvg:part CDATA #IMPLIED
kvg:number CDATA #IMPLIED
kvg:tradForm CDATA #IMPLIED
kvg:radicalForm CDATA #IMPLIED
kvg:position CDATA #IMPLIED
kvg:radical CDATA #IMPLIED
kvg:phon CDATA #IMPLIED >
<!ATTLIST path
xmlns:kvg CDATA #FIXED "http://kanjivg.tagaini.net"
kvg:type CDATA #IMPLIED >
]>
<svg xmlns="http://www.w3.org/2000/svg" width="327" height = "327" viewBox="0 0 327 327">
<g id="kvg:StrokePaths_06c70" style="fill:none;stroke:#000000;stroke-width:3;stroke-linecap:round;stroke-linejoin:round;" transform="scale(3.0,3.0)">
<g id="kvg:06c70" kvg:element="汰">
	<g id="kvg:06c70-g1" kvg:element="氵" kvg:variant="true" kvg:original="水" kvg:position="left" kvg:radical="general">
		<path style="stroke: #bf0909;" id="kvg:06c70-s1" kvg:type="㇔" d="M21.88,19.5c3.84,1.47,9.91,6.05,10.87,8.34"/>
		<path style="stroke: #bfa509;" id="kvg:06c70-s2" kvg:type="㇔" d="M13.75,43c4.32,1.32,11.17,5.44,12.25,7.5"/>
		<path style="stroke: #3dbf09;" id="kvg:06c70-s3" kvg:type="㇀" d="M15.25,90.23c1.93,0.64,3.16,0.07,4.2-1.5c3.03-4.57,6.05-10.16,8.8-15.99"/>
	</g>
	<g id="kvg:06c70-g2" kvg:element="太" kvg:position="right">
		<g id="kvg:06c70-g3" kvg:element="大" kvg:position="top">
			<path style="stroke: #09bf71;" id="kvg:06c70-s4" kvg:type="㇐" d="M36.62,43.91c3.12,0.96,6.28,0.94,9.02,0.55c11.98-1.72,19.47-2.24,37.11-3.64c3.62-0.29,5.49-0.28,8.99,0.65"/>
			<path style="stroke: #0971bf;" id="kvg:06c70-s5" kvg:type="㇒" d="M61,16c1.06,1.06,1.24,2.56,1.24,4.87C62.24,57,52,81.55,32.25,93.86"/>
			<path style="stroke: #3d09bf;" id="kvg:06c70-s6" kvg:type="㇏" d="M61.25,44.3c5.78,8.83,16.79,26.84,24.65,37.81c2.69,3.76,5.22,6.89,9.1,10.27"/>
		</g>
		<g id="kvg:06c70-g4" kvg:element="丶" kvg:position="bottom">
			<path style="stroke: #bf09a5;" id="kvg:06c70-s7" kvg:type="㇔" d="M57.75,79.64c3.97,1.78,9.5,6.73,11.25,10.11"/>
		</g>
	</g>
</g>
</g>
<g id="kvg:StrokeNumbers_06c70" style="font-size:8;fill:#808080" transform="scale(3.0,3.0)">
	<text style="fill: #bf0909;" transform="matrix(1 0 0 1 14.25 20.25)">1</text>
	<text style="fill: #bfa509;" transform="matrix(1 0 0 1 6.25 44.25)">2</text>
	<text style="fill: #3dbf09;" transform="matrix(1 0 0 1 6.25 93.73)">3</text>
	<text style="fill: #09bf71;" transform="matrix(1 0 0 1 35.25 41.25)">4</text>
	<text style="fill: #0971bf;" transform="matrix(1 0 0 1 52.25 16.25)">5</text>
	<text style="fill: #3d09bf;" transform="matrix(1 0 0 1 70.25 53.25)">6</text>
	<text style="fill: #bf09a5;" transform="matrix(1 0 0 1 56.00 77.25)">7</text>
</g>
</svg>
