<?xml version="1.0" encoding="UTF-8"?>
<!--
This file has been modified from the original version by the kanji_colorize.py
script (available at http://github.com/cayennes/kanji-colorize) with these
settings:
    mode: spectrum
    saturation: 0.95
    value: 0.75
    image_size: 327
It remains under a Creative Commons-Attribution-Share Alike 3.0 License.

The original SVG has the following copyright:

Copyright (C) 2009/2010/2011 Ulrich Apel.
This work is distributed under the conditions of the Creative Commons
Attribution-Share Alike 3.0 Licence. This means you are free:
* to Share - to copy, distribute and transmit the work
* to Remix - to adapt the work

Under the following conditions:
* Attribution. You must attribute the work by stating your use of KanjiVG in
  your own copyright header and linking to KanjiVG's website
  (http://kanjivg.tagaini.net)
* Share Alike. If you alter, transform, or build upon this work, you may
  distribute the resulting work only under the same or similar license to this
  one.

See http://creativecommons.org/licenses/by-sa/3.0/ for more details.
-->
<!DOCTYPE svg PUBLIC "-//W3C//DTD SVG 1.0//EN" "http://www.w3.org/TR/2001/REC-SVG-20010904/DTD/svg10.dtd" [
<!ATTLIST g
xmlns:kvg CDATA #FIXED "http://kanjivg.tagaini.net"
kvg:element CDATA #IMPLIED
kvg:variant CDATA #IMPLIED
kvg:partial CDATA #IMPLIED
kvg:original CDATA #IMPLIED
kvg:part CDATA #IMPLIED
kvg:number CDATA #IMPLIED
kvg:tradForm CDATA #IMPLIED
kvg:radicalForm CDATA #IMPLIED
kvg:position CDATA #IMPLIED
kvg:radical CDATA #IMPLIED
kvg:phon CDATA #IMPLIED >
<!ATTLIST path
xmlns:kvg CDATA #FIXED "http://kanjivg.tagaini.net"
kvg:type CDATA #IMPLIED >
]>
<svg xmlns="http://www.w3.org/2000/svg" width="327" height = "327" viewBox="0 0 327 327">
<g id="kvg:StrokePaths_06c92" style="fill:none;stroke:#000000;stroke-width:3;stroke-linecap:round;stroke-linejoin:round;" transform="scale(3.0,3.0)">
<g id="kvg:06c92" kvg:element="沒">
	<g id="kvg:06c92-g1" kvg:element="氵" kvg:variant="true" kvg:original="水" kvg:position="left" kvg:radical="tradit">
		<path style="stroke: #bf0909;" id="kvg:06c92-s1" kvg:type="㇔" d="M22.13,17c4.45,1.78,11.5,7.32,12.62,10.09"/>
		<path style="stroke: #bfa509;" id="kvg:06c92-s2" kvg:type="㇔" d="M16,42.75c4.24,1.63,10.94,6.71,12,9.25"/>
		<path style="stroke: #3dbf09;" id="kvg:06c92-s3" kvg:type="㇀" d="M14.25,87.73c1.71,1.27,3.78,1.32,4.86-0.25c3.14-4.57,8.29-14.16,11.14-19.99"/>
	</g>
	<g id="kvg:06c92-g2" kvg:position="right">
		<g id="kvg:06c92-g3" kvg:element="𠂊" kvg:variant="true" kvg:original="勹" kvg:position="top">
			<path style="stroke: #09bf71;" id="kvg:06c92-s4" kvg:type="㇒" d="M57.29,12c0.05,0.85,0.1,2.2-0.09,3.42c-1.14,7.21-7.45,22.33-16.67,32.71"/>
			<path style="stroke: #0971bf;" id="kvg:06c92-s5" kvg:type="㇇" d="M58.28,23.44c0.54,0.37,2.3,0.49,3.17,0.25c0.87-0.25,15.71-2.32,17.87-2.44c2.17-0.12,3.86,0.74,3.34,3.29C81.5,30.25,78.25,40,72.91,46.71c-2.97,3.74-4.94,1.23-6.57-1.1"/>
		</g>
		<g id="kvg:06c92-g4" kvg:element="又" kvg:position="bottom">
			<path style="stroke: #3d09bf;" id="kvg:06c92-s6" kvg:type="㇇" d="M46.24,57.85c1.26,0.65,2.12,0.91,5.28,0.71c4.7-0.3,21.25-3.17,23.39-3.6c2.14-0.43,3.62,1.54,2.92,3.14C69.5,77,56.25,92.75,35.5,97.75"/>
			<path style="stroke: #bf09a5;" id="kvg:06c92-s7" kvg:type="㇏" d="M42.24,64.28c4.21,0.79,24.78,22.1,39.43,30.82c2.28,1.36,3.95,2.27,6.07,2.72"/>
		</g>
	</g>
</g>
</g>
<g id="kvg:StrokeNumbers_06c92" style="font-size:8;fill:#808080" transform="scale(3.0,3.0)">
	<text style="fill: #bf0909;" transform="matrix(1 0 0 1 15.50 17.50)">1</text>
	<text style="fill: #bfa509;" transform="matrix(1 0 0 1 8.50 43.50)">2</text>
	<text style="fill: #3dbf09;" transform="matrix(1 0 0 1 6.25 90.50)">3</text>
	<text style="fill: #09bf71;" transform="matrix(1 0 0 1 49.50 12.50)">4</text>
	<text style="fill: #0971bf;" transform="matrix(1 0 0 1 62.50 20.50)">5</text>
	<text style="fill: #3d09bf;" transform="matrix(1 0 0 1 38.50 58.50)">6</text>
	<text style="fill: #bf09a5;" transform="matrix(1 0 0 1 37.50 71.50)">7</text>
</g>
</svg>
