<?xml version="1.0" encoding="UTF-8"?>
<!--
This file has been modified from the original version by the kanji_colorize.py
script (available at http://github.com/cayennes/kanji-colorize) with these
settings:
    mode: spectrum
    saturation: 0.95
    value: 0.75
    image_size: 327
It remains under a Creative Commons-Attribution-Share Alike 3.0 License.

The original SVG has the following copyright:

Copyright (C) 2009/2010/2011 Ulrich Apel.
This work is distributed under the conditions of the Creative Commons
Attribution-Share Alike 3.0 Licence. This means you are free:
* to Share - to copy, distribute and transmit the work
* to Remix - to adapt the work

Under the following conditions:
* Attribution. You must attribute the work by stating your use of KanjiVG in
  your own copyright header and linking to KanjiVG's website
  (http://kanjivg.tagaini.net)
* Share Alike. If you alter, transform, or build upon this work, you may
  distribute the resulting work only under the same or similar license to this
  one.

See http://creativecommons.org/licenses/by-sa/3.0/ for more details.
-->
<!DOCTYPE svg PUBLIC "-//W3C//DTD SVG 1.0//EN" "http://www.w3.org/TR/2001/REC-SVG-20010904/DTD/svg10.dtd" [
<!ATTLIST g
xmlns:kvg CDATA #FIXED "http://kanjivg.tagaini.net"
kvg:element CDATA #IMPLIED
kvg:variant CDATA #IMPLIED
kvg:partial CDATA #IMPLIED
kvg:original CDATA #IMPLIED
kvg:part CDATA #IMPLIED
kvg:number CDATA #IMPLIED
kvg:tradForm CDATA #IMPLIED
kvg:radicalForm CDATA #IMPLIED
kvg:position CDATA #IMPLIED
kvg:radical CDATA #IMPLIED
kvg:phon CDATA #IMPLIED >
<!ATTLIST path
xmlns:kvg CDATA #FIXED "http://kanjivg.tagaini.net"
kvg:type CDATA #IMPLIED >
]>
<svg xmlns="http://www.w3.org/2000/svg" width="327" height = "327" viewBox="0 0 327 327">
<g id="kvg:StrokePaths_06cbc" style="fill:none;stroke:#000000;stroke-width:3;stroke-linecap:round;stroke-linejoin:round;" transform="scale(3.0,3.0)">
<g id="kvg:06cbc" kvg:element="沼">
	<g id="kvg:06cbc-g1" kvg:element="氵" kvg:variant="true" kvg:original="水" kvg:position="left" kvg:radical="general">
		<path style="stroke: #bf0909;" id="kvg:06cbc-s1" kvg:type="㇔" d="M20.75,13.5c3.88,1.65,10.03,6.78,11,9.34"/>
		<path style="stroke: #bf9109;" id="kvg:06cbc-s2" kvg:type="㇔" d="M17,37.5c3.62,1.72,9.34,7.07,10.25,9.75"/>
		<path style="stroke: #64bf09;" id="kvg:06cbc-s3" kvg:type="㇀" d="M16.25,89.98c1.77,0.65,2.84-0.14,3.9-1.59c3.99-5.47,7.98-12.16,11.6-19.14"/>
	</g>
	<g id="kvg:06cbc-g2" kvg:element="召" kvg:position="right" kvg:phon="召">
		<g id="kvg:06cbc-g3" kvg:element="刀" kvg:position="top">
			<path style="stroke: #09bf36;" id="kvg:06cbc-s4" kvg:type="㇆" d="M45.11,22.45c2.89,1.05,6.37,0.89,8.75,0.58c10.73-1.38,25.75-4.46,30.99-4.82c3.81-0.26,5.74,1.2,5.11,4.95c-1.02,5.98-2.46,17.09-7.31,26.69c-2.94,5.81-6.29-0.17-7.14-1.09"/>
			<path style="stroke: #09bfbf;" id="kvg:06cbc-s5" kvg:type="㇒" d="M64.04,24.58c0.06,0.79,0.26,2.07-0.12,3.19C60,39.25,54.25,49.38,43.73,59.73"/>
		</g>
		<g id="kvg:06cbc-g4" kvg:element="口" kvg:position="bottom">
			<path style="stroke: #0936bf;" id="kvg:06cbc-s6" kvg:type="㇑" d="M48.09,65.29c0.93,0.93,1.51,2.11,1.61,3.19c0.92,3.88,1.68,11.14,2.48,17.53c0.3,2.36,0.56,4.53,0.79,6.24"/>
			<path style="stroke: #6409bf;" id="kvg:06cbc-s7" kvg:type="㇕b" d="M50.51,67.14c8.41-1.22,24.84-3.72,32.79-4.44c4.34-0.4,7.01,0.91,5.59,5.65c-1.38,4.63-3.47,11.95-4.82,17.83"/>
			<path style="stroke: #bf0991;" id="kvg:06cbc-s8" kvg:type="㇐b" d="M53.9,88.79c5.73-0.27,16.66-1.05,26.35-1.54c2.02-0.1,3.95-0.19,5.72-0.26"/>
		</g>
	</g>
</g>
</g>
<g id="kvg:StrokeNumbers_06cbc" style="font-size:8;fill:#808080" transform="scale(3.0,3.0)">
	<text style="fill: #bf0909;" transform="matrix(1 0 0 1 14.25 14.50)">1</text>
	<text style="fill: #bf9109;" transform="matrix(1 0 0 1 9.50 38.50)">2</text>
	<text style="fill: #64bf09;" transform="matrix(1 0 0 1 6.75 94.63)">3</text>
	<text style="fill: #09bf36;" transform="matrix(1 0 0 1 43.50 19.50)">4</text>
	<text style="fill: #09bfbf;" transform="matrix(1 0 0 1 54.50 32.50)">5</text>
	<text style="fill: #0936bf;" transform="matrix(1 0 0 1 42.75 73.50)">6</text>
	<text style="fill: #6409bf;" transform="matrix(1 0 0 1 51.50 63.13)">7</text>
	<text style="fill: #bf0991;" transform="matrix(1 0 0 1 56.25 85.50)">8</text>
</g>
</svg>
