<?xml version="1.0" encoding="UTF-8"?>
<!--
This file has been modified from the original version by the kanji_colorize.py
script (available at http://github.com/cayennes/kanji-colorize) with these
settings:
    mode: spectrum
    saturation: 0.95
    value: 0.75
    image_size: 327
It remains under a Creative Commons-Attribution-Share Alike 3.0 License.

The original SVG has the following copyright:

Copyright (C) 2009/2010/2011 Ulrich Apel.
This work is distributed under the conditions of the Creative Commons
Attribution-Share Alike 3.0 Licence. This means you are free:
* to Share - to copy, distribute and transmit the work
* to Remix - to adapt the work

Under the following conditions:
* Attribution. You must attribute the work by stating your use of KanjiVG in
  your own copyright header and linking to KanjiVG's website
  (http://kanjivg.tagaini.net)
* Share Alike. If you alter, transform, or build upon this work, you may
  distribute the resulting work only under the same or similar license to this
  one.

See http://creativecommons.org/licenses/by-sa/3.0/ for more details.
-->
<!DOCTYPE svg PUBLIC "-//W3C//DTD SVG 1.0//EN" "http://www.w3.org/TR/2001/REC-SVG-20010904/DTD/svg10.dtd" [
<!ATTLIST g
xmlns:kvg CDATA #FIXED "http://kanjivg.tagaini.net"
kvg:element CDATA #IMPLIED
kvg:variant CDATA #IMPLIED
kvg:partial CDATA #IMPLIED
kvg:original CDATA #IMPLIED
kvg:part CDATA #IMPLIED
kvg:number CDATA #IMPLIED
kvg:tradForm CDATA #IMPLIED
kvg:radicalForm CDATA #IMPLIED
kvg:position CDATA #IMPLIED
kvg:radical CDATA #IMPLIED
kvg:phon CDATA #IMPLIED >
<!ATTLIST path
xmlns:kvg CDATA #FIXED "http://kanjivg.tagaini.net"
kvg:type CDATA #IMPLIED >
]>
<svg xmlns="http://www.w3.org/2000/svg" width="327" height = "327" viewBox="0 0 327 327">
<g id="kvg:StrokePaths_06cca" style="fill:none;stroke:#000000;stroke-width:3;stroke-linecap:round;stroke-linejoin:round;" transform="scale(3.0,3.0)">
<g id="kvg:06cca" kvg:element="泊">
	<g id="kvg:06cca-g1" kvg:element="氵" kvg:variant="true" kvg:original="水" kvg:position="left" kvg:radical="general">
		<path style="stroke: #bf0909;" id="kvg:06cca-s1" kvg:type="㇔" d="M22.88,15.62c4.45,1.58,11.5,6.5,12.62,8.97"/>
		<path style="stroke: #bf9109;" id="kvg:06cca-s2" kvg:type="㇔" d="M17,39.25c4.68,1.5,12.08,6.17,13.25,8.5"/>
		<path style="stroke: #64bf09;" id="kvg:06cca-s3" kvg:type="㇀" d="M17.25,87.72c1.68,0.73,2.96,0.3,3.97-1.05c3.53-4.69,6.81-10.18,10.03-16.17"/>
	</g>
	<g id="kvg:06cca-g2" kvg:element="白" kvg:position="right" kvg:phon="白">
		<g id="kvg:06cca-g3" kvg:position="top">
			<path style="stroke: #09bf36;" id="kvg:06cca-s4" kvg:type="㇒" d="M69.62,16c0.25,1-0.17,1.88-0.52,2.59C66.12,24.62,62,31.75,55.19,40.46"/>
		</g>
		<g id="kvg:06cca-g4" kvg:element="日" kvg:position="bottom">
			<path style="stroke: #09bfbf;" id="kvg:06cca-s5" kvg:type="㇑" d="M46.44,42.16c1.07,1.07,1.37,2.17,1.37,3.88c0,1.46-0.09,27.72-0.05,41.46c0.01,2.3,0.01,4.28,0.01,5.75"/>
			<path style="stroke: #0936bf;" id="kvg:06cca-s6" kvg:type="㇕a" d="M48.47,44.43c4.52-0.61,27.92-2.99,35.22-3.72c3.14-0.31,4.94,0.3,4.93,3.91C88.62,48.58,88.8,69.3,88.73,85c-0.01,2.57-0.02,5-0.02,7.21"/>
			<path style="stroke: #6409bf;" id="kvg:06cca-s7" kvg:type="㇐a" d="M48.92,66.15c11.2-1.27,32.33-2.9,39.5-3.26"/>
			<path style="stroke: #bf0991;" id="kvg:06cca-s8" kvg:type="㇐a" d="M48.94,90.47c10.68-0.97,28.24-2.33,38.54-2.64"/>
		</g>
	</g>
</g>
</g>
<g id="kvg:StrokeNumbers_06cca" style="font-size:8;fill:#808080" transform="scale(3.0,3.0)">
	<text style="fill: #bf0909;" transform="matrix(1 0 0 1 17.25 16.63)">1</text>
	<text style="fill: #bf9109;" transform="matrix(1 0 0 1 9.75 40.50)">2</text>
	<text style="fill: #64bf09;" transform="matrix(1 0 0 1 9.75 92.98)">3</text>
	<text style="fill: #09bf36;" transform="matrix(1 0 0 1 60.50 15.50)">4</text>
	<text style="fill: #09bfbf;" transform="matrix(1 0 0 1 40.50 51.13)">5</text>
	<text style="fill: #0936bf;" transform="matrix(1 0 0 1 49.50 39.50)">6</text>
	<text style="fill: #6409bf;" transform="matrix(1 0 0 1 52.50 62.50)">7</text>
	<text style="fill: #bf0991;" transform="matrix(1 0 0 1 52.46 87.50)">8</text>
</g>
</svg>
