<?xml version="1.0" encoding="UTF-8"?>
<!--
This file has been modified from the original version by the kanji_colorize.py
script (available at http://github.com/cayennes/kanji-colorize) with these
settings:
    mode: spectrum
    saturation: 0.95
    value: 0.75
    image_size: 327
It remains under a Creative Commons-Attribution-Share Alike 3.0 License.

The original SVG has the following copyright:

Copyright (C) 2009/2010/2011 Ulrich Apel.
This work is distributed under the conditions of the Creative Commons
Attribution-Share Alike 3.0 Licence. This means you are free:
* to Share - to copy, distribute and transmit the work
* to Remix - to adapt the work

Under the following conditions:
* Attribution. You must attribute the work by stating your use of KanjiVG in
  your own copyright header and linking to KanjiVG's website
  (http://kanjivg.tagaini.net)
* Share Alike. If you alter, transform, or build upon this work, you may
  distribute the resulting work only under the same or similar license to this
  one.

See http://creativecommons.org/licenses/by-sa/3.0/ for more details.
-->
<!DOCTYPE svg PUBLIC "-//W3C//DTD SVG 1.0//EN" "http://www.w3.org/TR/2001/REC-SVG-20010904/DTD/svg10.dtd" [
<!ATTLIST g
xmlns:kvg CDATA #FIXED "http://kanjivg.tagaini.net"
kvg:element CDATA #IMPLIED
kvg:variant CDATA #IMPLIED
kvg:partial CDATA #IMPLIED
kvg:original CDATA #IMPLIED
kvg:part CDATA #IMPLIED
kvg:number CDATA #IMPLIED
kvg:tradForm CDATA #IMPLIED
kvg:radicalForm CDATA #IMPLIED
kvg:position CDATA #IMPLIED
kvg:radical CDATA #IMPLIED
kvg:phon CDATA #IMPLIED >
<!ATTLIST path
xmlns:kvg CDATA #FIXED "http://kanjivg.tagaini.net"
kvg:type CDATA #IMPLIED >
]>
<svg xmlns="http://www.w3.org/2000/svg" width="327" height = "327" viewBox="0 0 327 327">
<g id="kvg:StrokePaths_06cd7" style="fill:none;stroke:#000000;stroke-width:3;stroke-linecap:round;stroke-linejoin:round;" transform="scale(3.0,3.0)">
<g id="kvg:06cd7" kvg:element="泗">
	<g id="kvg:06cd7-g1" kvg:element="氵" kvg:variant="true" kvg:original="水" kvg:position="left" kvg:radical="general">
		<path style="stroke: #bf0909;" id="kvg:06cd7-s1" kvg:type="㇔" d="M17.63,17.5c4.45,1.78,11.5,7.32,12.62,10.09"/>
		<path style="stroke: #bf9109;" id="kvg:06cd7-s2" kvg:type="㇔" d="M14,40.75c4.59,1.9,11.85,7.8,13,10.75"/>
		<path style="stroke: #64bf09;" id="kvg:06cd7-s3" kvg:type="㇀" d="M13.25,86.64c2.02,1.4,4.45,1.46,5.72-0.27c3.7-5.04,7.41-11.19,10.78-17.62"/>
	</g>
	<g id="kvg:06cd7-g2" kvg:position="right">
		<g id="kvg:06cd7-g3" kvg:element="四">
			<g id="kvg:06cd7-g4" kvg:element="囗" kvg:part="1">
				<path style="stroke: #09bf36;" id="kvg:06cd7-s4" kvg:type="㇑" d="M39,21.36c0.48,1.3,1.39,3.64,1.48,5.35c0.66,12.39,0.95,42.08,1.88,65.54"/>
				<path style="stroke: #09bfbf;" id="kvg:06cd7-s5" kvg:type="㇕a" d="M40.26,23.92c12.49-1.17,40.72-3.28,49.14-3.68c3.48-0.16,4.69,3.68,4.33,7.49c-1.23,13.4-3.56,40.54-5.35,62.27"/>
			</g>
			<g id="kvg:06cd7-g5" kvg:element="儿" kvg:original="八">
				<g id="kvg:06cd7-g6" kvg:element="丿">
					<path style="stroke: #0936bf;" id="kvg:06cd7-s6" kvg:type="㇒" d="M56.17,23.65c0.33,0.85,0.91,1.87,0.9,3.53C57,41.5,57.25,57.75,47.43,69.19"/>
				</g>
				<path style="stroke: #6409bf;" id="kvg:06cd7-s7" kvg:type="㇟" d="M70.66,24.71c0.58,1.46,1.03,3.19,1.07,5.45c0.12,7.95-0.06,20.59-0.06,31.56c0,4.03,1.09,5.27,7.34,5.27c4.25,0,4.5-0.24,6.38-1.81"/>
			</g>
		</g>
		<g id="kvg:06cd7-g7" kvg:element="囗" kvg:part="2">
			<path style="stroke: #bf0991;" id="kvg:06cd7-s8" kvg:type="㇐a" d="M42.27,88.93c9.12,0,33.64-1.51,46.23-1.89"/>
		</g>
	</g>
</g>
</g>
<g id="kvg:StrokeNumbers_06cd7" style="font-size:8;fill:#808080" transform="scale(3.0,3.0)">
	<text style="fill: #bf0909;" transform="matrix(1 0 0 1 10.50 17.50)">1</text>
	<text style="fill: #bf9109;" transform="matrix(1 0 0 1 6.25 40.50)">2</text>
	<text style="fill: #64bf09;" transform="matrix(1 0 0 1 6.25 91.50)">3</text>
	<text style="fill: #09bf36;" transform="matrix(1 0 0 1 33.50 33.50)">4</text>
	<text style="fill: #09bfbf;" transform="matrix(1 0 0 1 43.50 20.50)">5</text>
	<text style="fill: #0936bf;" transform="matrix(1 0 0 1 49.25 33.50)">6</text>
	<text style="fill: #6409bf;" transform="matrix(1 0 0 1 63.50 32.50)">7</text>
	<text style="fill: #bf0991;" transform="matrix(1 0 0 1 46.50 84.50)">8</text>
</g>
</svg>
