<?xml version="1.0" encoding="UTF-8"?>
<!--
This file has been modified from the original version by the kanji_colorize.py
script (available at http://github.com/cayennes/kanji-colorize) with these
settings:
    mode: spectrum
    saturation: 0.95
    value: 0.75
    image_size: 327
It remains under a Creative Commons-Attribution-Share Alike 3.0 License.

The original SVG has the following copyright:

Copyright (C) 2009/2010/2011 Ulrich Apel.
This work is distributed under the conditions of the Creative Commons
Attribution-Share Alike 3.0 Licence. This means you are free:
* to Share - to copy, distribute and transmit the work
* to Remix - to adapt the work

Under the following conditions:
* Attribution. You must attribute the work by stating your use of KanjiVG in
  your own copyright header and linking to KanjiVG's website
  (http://kanjivg.tagaini.net)
* Share Alike. If you alter, transform, or build upon this work, you may
  distribute the resulting work only under the same or similar license to this
  one.

See http://creativecommons.org/licenses/by-sa/3.0/ for more details.
-->
<!DOCTYPE svg PUBLIC "-//W3C//DTD SVG 1.0//EN" "http://www.w3.org/TR/2001/REC-SVG-20010904/DTD/svg10.dtd" [
<!ATTLIST g
xmlns:kvg CDATA #FIXED "http://kanjivg.tagaini.net"
kvg:element CDATA #IMPLIED
kvg:variant CDATA #IMPLIED
kvg:partial CDATA #IMPLIED
kvg:original CDATA #IMPLIED
kvg:part CDATA #IMPLIED
kvg:number CDATA #IMPLIED
kvg:tradForm CDATA #IMPLIED
kvg:radicalForm CDATA #IMPLIED
kvg:position CDATA #IMPLIED
kvg:radical CDATA #IMPLIED
kvg:phon CDATA #IMPLIED >
<!ATTLIST path
xmlns:kvg CDATA #FIXED "http://kanjivg.tagaini.net"
kvg:type CDATA #IMPLIED >
]>
<svg xmlns="http://www.w3.org/2000/svg" width="327" height = "327" viewBox="0 0 327 327">
<g id="kvg:StrokePaths_06cdb" style="fill:none;stroke:#000000;stroke-width:3;stroke-linecap:round;stroke-linejoin:round;" transform="scale(3.0,3.0)">
<g id="kvg:06cdb" kvg:element="泛">
	<g id="kvg:06cdb-g1" kvg:element="氵" kvg:variant="true" kvg:original="水" kvg:position="left" kvg:radical="tradit">
		<path style="stroke: #bf0909;" id="kvg:06cdb-s1" kvg:type="㇔" d="M19.13,16.5c3.92,1.96,10.13,8.05,11.12,11.09"/>
		<path style="stroke: #bfa509;" id="kvg:06cdb-s2" kvg:type="㇔" d="M13.75,42.75C17.72,44.56,24.01,50.19,25,53"/>
		<path style="stroke: #3dbf09;" id="kvg:06cdb-s3" kvg:type="㇀" d="M11.75,88.23c1.71,1.27,3.78,1.32,4.86-0.25c3.14-4.57,9.79-14.66,12.64-20.49"/>
	</g>
	<g id="kvg:06cdb-g2" kvg:element="乏" kvg:position="right">
		<g id="kvg:06cdb-g3" kvg:element="丿" kvg:position="top">
			<path style="stroke: #09bf71;" id="kvg:06cdb-s4" kvg:type="㇒" d="M82.69,15c0.11,0.35,0.42,1.02-0.22,1.42c-7.92,5-19.62,9.59-40.26,13.62"/>
		</g>
		<g id="kvg:06cdb-g4" kvg:element="之" kvg:position="bottom">
			<g id="kvg:06cdb-g5" kvg:element="丶">
				<path style="stroke: #0971bf;" id="kvg:06cdb-s5" kvg:type="㇔" d="M64.03,31.33c0.87,0.92,1.54,1.99,1.54,5.02c0,3.15-0.02,4.19-0.02,9.15"/>
			</g>
			<path style="stroke: #3d09bf;" id="kvg:06cdb-s6" kvg:type="㇇" d="M40.62,48.5c0.89,0.45,2.2,0.81,3.74,0.7c6.13-0.44,38.14-4.79,40.41-5.2c4.11-0.75,4.99,2,2.2,4.75c-12.04,11.85-26.59,21.5-44.62,32"/>
			<path style="stroke: #bf09a5;" id="kvg:06cdb-s7" kvg:type="㇏" d="M35.25,80.91c3.75-0.16,5.98,0.41,9.74,1.07c5.76,1.01,21.89,6.72,25.44,8.2C80.75,94.5,86.25,95.75,93,96.52"/>
		</g>
	</g>
</g>
</g>
<g id="kvg:StrokeNumbers_06cdb" style="font-size:8;fill:#808080" transform="scale(3.0,3.0)">
	<text style="fill: #bf0909;" transform="matrix(1 0 0 1 12.50 16.50)">1</text>
	<text style="fill: #bfa509;" transform="matrix(1 0 0 1 6.50 43.50)">2</text>
	<text style="fill: #3dbf09;" transform="matrix(1 0 0 1 4.50 90.50)">3</text>
	<text style="fill: #09bf71;" transform="matrix(1 0 0 1 72.25 13.50)">4</text>
	<text style="fill: #0971bf;" transform="matrix(1 0 0 1 54.50 35.50)">5</text>
	<text style="fill: #3d09bf;" transform="matrix(1 0 0 1 36.50 45.50)">6</text>
	<text style="fill: #bf09a5;" transform="matrix(1 0 0 1 29.50 80.50)">7</text>
</g>
</svg>
