<?xml version="1.0" encoding="UTF-8"?>
<!--
This file has been modified from the original version by the kanji_colorize.py
script (available at http://github.com/cayennes/kanji-colorize) with these
settings:
    mode: spectrum
    saturation: 0.95
    value: 0.75
    image_size: 327
It remains under a Creative Commons-Attribution-Share Alike 3.0 License.

The original SVG has the following copyright:

Copyright (C) 2009/2010/2011 Ulrich Apel.
This work is distributed under the conditions of the Creative Commons
Attribution-Share Alike 3.0 Licence. This means you are free:
* to Share - to copy, distribute and transmit the work
* to Remix - to adapt the work

Under the following conditions:
* Attribution. You must attribute the work by stating your use of KanjiVG in
  your own copyright header and linking to KanjiVG's website
  (http://kanjivg.tagaini.net)
* Share Alike. If you alter, transform, or build upon this work, you may
  distribute the resulting work only under the same or similar license to this
  one.

See http://creativecommons.org/licenses/by-sa/3.0/ for more details.
-->
<!DOCTYPE svg PUBLIC "-//W3C//DTD SVG 1.0//EN" "http://www.w3.org/TR/2001/REC-SVG-20010904/DTD/svg10.dtd" [
<!ATTLIST g
xmlns:kvg CDATA #FIXED "http://kanjivg.tagaini.net"
kvg:element CDATA #IMPLIED
kvg:variant CDATA #IMPLIED
kvg:partial CDATA #IMPLIED
kvg:original CDATA #IMPLIED
kvg:part CDATA #IMPLIED
kvg:number CDATA #IMPLIED
kvg:tradForm CDATA #IMPLIED
kvg:radicalForm CDATA #IMPLIED
kvg:position CDATA #IMPLIED
kvg:radical CDATA #IMPLIED
kvg:phon CDATA #IMPLIED >
<!ATTLIST path
xmlns:kvg CDATA #FIXED "http://kanjivg.tagaini.net"
kvg:type CDATA #IMPLIED >
]>
<svg xmlns="http://www.w3.org/2000/svg" width="327" height = "327" viewBox="0 0 327 327">
<g id="kvg:StrokePaths_06cea" style="fill:none;stroke:#000000;stroke-width:3;stroke-linecap:round;stroke-linejoin:round;" transform="scale(3.0,3.0)">
<g id="kvg:06cea" kvg:element="泪">
	<g id="kvg:06cea-g1" kvg:element="氵" kvg:variant="true" kvg:original="水" kvg:position="left" kvg:radical="tradit">
		<path style="stroke: #bf0909;" id="kvg:06cea-s1" kvg:type="㇔" d="M20.88,16.5c4.54,1.6,11.73,6.6,12.87,9.09"/>
		<path style="stroke: #bf9109;" id="kvg:06cea-s2" kvg:type="㇔" d="M17,41.5c4.24,1.5,10.94,6.17,12,8.5"/>
		<path style="stroke: #64bf09;" id="kvg:06cea-s3" kvg:type="㇀" d="M17.25,89.23c1.71,1.27,3.78,1.32,4.86-0.25C25.25,84.42,32.39,70.83,35.25,65"/>
	</g>
	<g id="kvg:06cea-g2" kvg:element="目" kvg:position="right">
		<path style="stroke: #09bf36;" id="kvg:06cea-s4" kvg:type="㇑" d="M51.3,17.14c0.58,1.77,1.43,3.12,1.43,5.43c0,2.31-0.39,68.7-0.39,69.86"/>
		<path style="stroke: #09bfbf;" id="kvg:06cea-s5" kvg:type="㇕a" d="M52.55,19.47c3.28-0.07,29.42-2.57,32.41-2.72c2.49-0.12,4.45,1.91,4.25,4.04c-0.27,2.7-0.58,61.91-0.58,72.39"/>
		<path style="stroke: #0936bf;" id="kvg:06cea-s6" kvg:type="㇐a" d="M52.64,42.42c10.36-0.67,28.86-2.17,35.59-2.4"/>
		<path style="stroke: #6409bf;" id="kvg:06cea-s7" kvg:type="㇐a" d="M52.41,63.26c8.69-0.4,27.09-1.76,36.43-1.74"/>
		<path style="stroke: #bf0991;" id="kvg:06cea-s8" kvg:type="㇐a" d="M53.03,89.81c7.46-0.02,26.72-1.06,35.25-1.28"/>
	</g>
</g>
</g>
<g id="kvg:StrokeNumbers_06cea" style="font-size:8;fill:#808080" transform="scale(3.0,3.0)">
	<text style="fill: #bf0909;" transform="matrix(1 0 0 1 14.50 16.50)">1</text>
	<text style="fill: #bf9109;" transform="matrix(1 0 0 1 8.50 41.50)">2</text>
	<text style="fill: #64bf09;" transform="matrix(1 0 0 1 9.50 91.50)">3</text>
	<text style="fill: #09bf36;" transform="matrix(1 0 0 1 45.50 25.50)">4</text>
	<text style="fill: #09bfbf;" transform="matrix(1 0 0 1 55.50 15.50)">5</text>
	<text style="fill: #0936bf;" transform="matrix(1 0 0 1 57.36 38.50)">6</text>
	<text style="fill: #6409bf;" transform="matrix(1 0 0 1 57.42 60.50)">7</text>
	<text style="fill: #bf0991;" transform="matrix(1 0 0 1 57.38 86.50)">8</text>
</g>
</svg>
