<?xml version="1.0" encoding="UTF-8"?>
<!--
This file has been modified from the original version by the kanji_colorize.py
script (available at http://github.com/cayennes/kanji-colorize) with these
settings:
    mode: spectrum
    saturation: 0.95
    value: 0.75
    image_size: 327
It remains under a Creative Commons-Attribution-Share Alike 3.0 License.

The original SVG has the following copyright:

Copyright (C) 2009/2010/2011 Ulrich Apel.
This work is distributed under the conditions of the Creative Commons
Attribution-Share Alike 3.0 Licence. This means you are free:
* to Share - to copy, distribute and transmit the work
* to Remix - to adapt the work

Under the following conditions:
* Attribution. You must attribute the work by stating your use of KanjiVG in
  your own copyright header and linking to KanjiVG's website
  (http://kanjivg.tagaini.net)
* Share Alike. If you alter, transform, or build upon this work, you may
  distribute the resulting work only under the same or similar license to this
  one.

See http://creativecommons.org/licenses/by-sa/3.0/ for more details.
-->
<!DOCTYPE svg PUBLIC "-//W3C//DTD SVG 1.0//EN" "http://www.w3.org/TR/2001/REC-SVG-20010904/DTD/svg10.dtd" [
<!ATTLIST g
xmlns:kvg CDATA #FIXED "http://kanjivg.tagaini.net"
kvg:element CDATA #IMPLIED
kvg:variant CDATA #IMPLIED
kvg:partial CDATA #IMPLIED
kvg:original CDATA #IMPLIED
kvg:part CDATA #IMPLIED
kvg:number CDATA #IMPLIED
kvg:tradForm CDATA #IMPLIED
kvg:radicalForm CDATA #IMPLIED
kvg:position CDATA #IMPLIED
kvg:radical CDATA #IMPLIED
kvg:phon CDATA #IMPLIED >
<!ATTLIST path
xmlns:kvg CDATA #FIXED "http://kanjivg.tagaini.net"
kvg:type CDATA #IMPLIED >
]>
<svg xmlns="http://www.w3.org/2000/svg" width="327" height = "327" viewBox="0 0 327 327">
<g id="kvg:StrokePaths_06cf1" style="fill:none;stroke:#000000;stroke-width:3;stroke-linecap:round;stroke-linejoin:round;" transform="scale(3.0,3.0)">
<g id="kvg:06cf1" kvg:element="泱">
	<g id="kvg:06cf1-g1" kvg:element="氵" kvg:variant="true" kvg:original="水" kvg:position="left" kvg:radical="general">
		<path style="stroke: #bf0909;" id="kvg:06cf1-s1" kvg:type="㇔" d="M18.13,18c4.1,1.52,10.59,6.23,11.62,8.59"/>
		<path style="stroke: #bf9109;" id="kvg:06cf1-s2" kvg:type="㇔" d="M13.75,42c3.97,1.68,10.26,6.89,11.25,9.5"/>
		<path style="stroke: #64bf09;" id="kvg:06cf1-s3" kvg:type="㇀" d="M13.25,88.75c1.78,1.25,3.91,1.3,5.03-0.24c3.26-4.5,8.51-14.01,11.47-19.76"/>
	</g>
	<g id="kvg:06cf1-g2" kvg:element="央" kvg:position="right">
		<path style="stroke: #09bf36;" id="kvg:06cf1-s4" kvg:type="㇑a" d="M41.71,31.22c0.93,1.09,1.39,1.97,1.62,3.28c0.23,1.31,1.39,17.49,1.39,21.06"/>
		<path style="stroke: #09bfbf;" id="kvg:06cf1-s5" kvg:type="㇕b" d="M43.36,33.27c3.15-0.44,33.95-2.09,38.21-2.75c4.27-0.66,5.01,0.88,4.64,2.87c-0.37,1.99-2.28,17.94-2.65,20.36"/>
		<g id="kvg:06cf1-g3" kvg:element="大">
			<path style="stroke: #0936bf;" id="kvg:06cf1-s6" kvg:type="㇐" d="M32.27,56.2c1.01,0.39,3.59,0.58,4.71,0.54C49.46,56.25,80,54.5,91.59,54.38c1.4-0.01,3.39-0.35,6.52,0.31"/>
			<path style="stroke: #6409bf;" id="kvg:06cf1-s7" kvg:type="㇒" d="M61.94,14c1.03,0.77,1.23,2.41,1.29,4.82C64.5,69.75,57.25,83,32.67,96"/>
			<path style="stroke: #bf0991;" id="kvg:06cf1-s8" kvg:type="㇏" d="M62.85,55.69C69.25,69,82.5,83.75,91.29,91.1c2.59,2.16,3.27,2.7,4.37,2.92"/>
		</g>
	</g>
</g>
</g>
<g id="kvg:StrokeNumbers_06cf1" style="font-size:8;fill:#808080" transform="scale(3.0,3.0)">
	<text style="fill: #bf0909;" transform="matrix(1 0 0 1 11.50 18.63)">1</text>
	<text style="fill: #bf9109;" transform="matrix(1 0 0 1 7.25 42.50)">2</text>
	<text style="fill: #64bf09;" transform="matrix(1 0 0 1 5.50 89.50)">3</text>
	<text style="fill: #09bf36;" transform="matrix(1 0 0 1 35.50 38.50)">4</text>
	<text style="fill: #09bfbf;" transform="matrix(1 0 0 1 45.50 29.33)">5</text>
	<text style="fill: #0936bf;" transform="matrix(1 0 0 1 30.50 53.50)">6</text>
	<text style="fill: #6409bf;" transform="matrix(1 0 0 1 54.50 14.50)">7</text>
	<text style="fill: #bf0991;" transform="matrix(1 0 0 1 72.75 65.35)">8</text>
</g>
</svg>
