<?xml version="1.0" encoding="UTF-8"?>
<!--
This file has been modified from the original version by the kanji_colorize.py
script (available at http://github.com/cayennes/kanji-colorize) with these
settings:
    mode: spectrum
    saturation: 0.95
    value: 0.75
    image_size: 327
It remains under a Creative Commons-Attribution-Share Alike 3.0 License.

The original SVG has the following copyright:

Copyright (C) 2009/2010/2011 Ulrich Apel.
This work is distributed under the conditions of the Creative Commons
Attribution-Share Alike 3.0 Licence. This means you are free:
* to Share - to copy, distribute and transmit the work
* to Remix - to adapt the work

Under the following conditions:
* Attribution. You must attribute the work by stating your use of KanjiVG in
  your own copyright header and linking to KanjiVG's website
  (http://kanjivg.tagaini.net)
* Share Alike. If you alter, transform, or build upon this work, you may
  distribute the resulting work only under the same or similar license to this
  one.

See http://creativecommons.org/licenses/by-sa/3.0/ for more details.
-->
<!DOCTYPE svg PUBLIC "-//W3C//DTD SVG 1.0//EN" "http://www.w3.org/TR/2001/REC-SVG-20010904/DTD/svg10.dtd" [
<!ATTLIST g
xmlns:kvg CDATA #FIXED "http://kanjivg.tagaini.net"
kvg:element CDATA #IMPLIED
kvg:variant CDATA #IMPLIED
kvg:partial CDATA #IMPLIED
kvg:original CDATA #IMPLIED
kvg:part CDATA #IMPLIED
kvg:number CDATA #IMPLIED
kvg:tradForm CDATA #IMPLIED
kvg:radicalForm CDATA #IMPLIED
kvg:position CDATA #IMPLIED
kvg:radical CDATA #IMPLIED
kvg:phon CDATA #IMPLIED >
<!ATTLIST path
xmlns:kvg CDATA #FIXED "http://kanjivg.tagaini.net"
kvg:type CDATA #IMPLIED >
]>
<svg xmlns="http://www.w3.org/2000/svg" width="327" height = "327" viewBox="0 0 327 327">
<g id="kvg:StrokePaths_06d1b" style="fill:none;stroke:#000000;stroke-width:3;stroke-linecap:round;stroke-linejoin:round;" transform="scale(3.0,3.0)">
<g id="kvg:06d1b" kvg:element="洛">
	<g id="kvg:06d1b-g1" kvg:element="氵" kvg:variant="true" kvg:original="水" kvg:position="left" kvg:radical="general">
		<path style="stroke: #bf0909;" id="kvg:06d1b-s1" kvg:type="㇔" d="M22.63,15.75c3.4,1.38,8.77,5.69,9.62,7.84"/>
		<path style="stroke: #bf8209;" id="kvg:06d1b-s2" kvg:type="㇔" d="M14.25,37.75c3.62,1.19,9.34,4.9,10.25,6.75"/>
		<path style="stroke: #82bf09;" id="kvg:06d1b-s3" kvg:type="㇀" d="M12.25,89.21c1.5,1.31,3.31,1.36,4.25-0.25c2.75-4.7,5.5-10.45,8-16.45"/>
	</g>
	<g id="kvg:06d1b-g2" kvg:element="各" kvg:position="right">
		<g id="kvg:06d1b-g3" kvg:element="夂" kvg:position="top">
			<path style="stroke: #09bf09;" id="kvg:06d1b-s4" kvg:type="㇒" d="M54.56,13.75c0.05,0.72,0.11,1.86-0.1,2.9c-1.24,6.12-8.36,19.54-18.11,27.76"/>
			<path style="stroke: #09bf82;" id="kvg:06d1b-s5" kvg:type="㇇" d="M55.53,22.21c0.39,0.04,2.04,0,3.15-0.12c3.64-0.38,10.81-2.77,16.01-3.94c3.57-0.8,4.56,0.91,3.67,3.09C72.75,35,58.75,56.5,34.09,68.46"/>
			<path style="stroke: #0982bf;" id="kvg:06d1b-s6" kvg:type="㇏" d="M48.95,30.13c6,5.56,33.17,26.69,41.26,31.77c2.41,1.52,4.36,2.25,6.71,2.7"/>
		</g>
		<g id="kvg:06d1b-g4" kvg:element="口" kvg:position="bottom">
			<path style="stroke: #0909bf;" id="kvg:06d1b-s7" kvg:type="㇑" d="M45.96,70.68c0.41,0.44,0.82,0.81,1,1.35c1.41,4.35,3.1,15.85,4.07,23.67"/>
			<path style="stroke: #8209bf;" id="kvg:06d1b-s8" kvg:type="㇕b" d="M47.5,72.65c10.25-1.65,27.53-3.3,32.3-3.87c1.74-0.21,2.79,1.24,2.54,2.47c-1.03,5.08-3.24,12.21-4.78,19.24"/>
			<path style="stroke: #bf0982;" id="kvg:06d1b-s9" kvg:type="㇐b" d="M51.23,92.87c5.61-0.65,17.52-1.37,28.58-1.76"/>
		</g>
	</g>
</g>
</g>
<g id="kvg:StrokeNumbers_06d1b" style="font-size:8;fill:#808080" transform="scale(3.0,3.0)">
	<text style="fill: #bf0909;" transform="matrix(1 0 0 1 13.75 16.63)">1</text>
	<text style="fill: #bf8209;" transform="matrix(1 0 0 1 5.25 37.55)">2</text>
	<text style="fill: #82bf09;" transform="matrix(1 0 0 1 3.50 92.48)">3</text>
	<text style="fill: #09bf09;" transform="matrix(1 0 0 1 46.50 16.40)">4</text>
	<text style="fill: #09bf82;" transform="matrix(1 0 0 1 62.25 17.50)">5</text>
	<text style="fill: #0982bf;" transform="matrix(1 0 0 1 55.50 32.50)">6</text>
	<text style="fill: #0909bf;" transform="matrix(1 0 0 1 39.75 80.68)">7</text>
	<text style="fill: #8209bf;" transform="matrix(1 0 0 1 49.50 69.50)">8</text>
	<text style="fill: #bf0982;" transform="matrix(1 0 0 1 55.50 89.03)">9</text>
</g>
</svg>
