<?xml version="1.0" encoding="UTF-8"?>
<!--
This file has been modified from the original version by the kanji_colorize.py
script (available at http://github.com/cayennes/kanji-colorize) with these
settings:
    mode: spectrum
    saturation: 0.95
    value: 0.75
    image_size: 327
It remains under a Creative Commons-Attribution-Share Alike 3.0 License.

The original SVG has the following copyright:

Copyright (C) 2009/2010/2011 Ulrich Apel.
This work is distributed under the conditions of the Creative Commons
Attribution-Share Alike 3.0 Licence. This means you are free:
* to Share - to copy, distribute and transmit the work
* to Remix - to adapt the work

Under the following conditions:
* Attribution. You must attribute the work by stating your use of KanjiVG in
  your own copyright header and linking to KanjiVG's website
  (http://kanjivg.tagaini.net)
* Share Alike. If you alter, transform, or build upon this work, you may
  distribute the resulting work only under the same or similar license to this
  one.

See http://creativecommons.org/licenses/by-sa/3.0/ for more details.
-->
<!DOCTYPE svg PUBLIC "-//W3C//DTD SVG 1.0//EN" "http://www.w3.org/TR/2001/REC-SVG-20010904/DTD/svg10.dtd" [
<!ATTLIST g
xmlns:kvg CDATA #FIXED "http://kanjivg.tagaini.net"
kvg:element CDATA #IMPLIED
kvg:variant CDATA #IMPLIED
kvg:partial CDATA #IMPLIED
kvg:original CDATA #IMPLIED
kvg:part CDATA #IMPLIED
kvg:number CDATA #IMPLIED
kvg:tradForm CDATA #IMPLIED
kvg:radicalForm CDATA #IMPLIED
kvg:position CDATA #IMPLIED
kvg:radical CDATA #IMPLIED
kvg:phon CDATA #IMPLIED >
<!ATTLIST path
xmlns:kvg CDATA #FIXED "http://kanjivg.tagaini.net"
kvg:type CDATA #IMPLIED >
]>
<svg xmlns="http://www.w3.org/2000/svg" width="327" height = "327" viewBox="0 0 327 327">
<g id="kvg:StrokePaths_06d19" style="fill:none;stroke:#000000;stroke-width:3;stroke-linecap:round;stroke-linejoin:round;" transform="scale(3.0,3.0)">
<g id="kvg:06d19" kvg:element="洙">
	<g id="kvg:06d19-g1" kvg:element="氵" kvg:variant="true" kvg:original="水" kvg:position="left" kvg:radical="general">
		<path style="stroke: #bf0909;" id="kvg:06d19-s1" kvg:type="㇔" d="M17.13,17c4.63,1.6,11.96,6.6,13.12,9.09"/>
		<path style="stroke: #bf8209;" id="kvg:06d19-s2" kvg:type="㇔" d="M12.75,43.25C17.07,44.79,23.92,49.6,25,52"/>
		<path style="stroke: #82bf09;" id="kvg:06d19-s3" kvg:type="㇀" d="M13.5,86.5c1.93,1.25,4.25,1.3,5.46-0.24c3.54-4.5,8.57-13.01,11.79-18.76"/>
	</g>
	<g id="kvg:06d19-g2" kvg:element="朱" kvg:position="right">
		<path style="stroke: #09bf09;" id="kvg:06d19-s4" kvg:type="㇒" d="M49.99,18.86c0.03,0.61,0.12,1.76-0.06,2.45c-2.3,8.6-5.7,16.49-11.7,23.43"/>
		<g id="kvg:06d19-g3" kvg:element="未">
			<path style="stroke: #09bf82;" id="kvg:06d19-s5" kvg:type="㇐" d="M48.99,33c0.81,0.27,2.88,0.3,3.69,0.27c8.4-0.31,19.73-3.2,29.94-4.1c1.34-0.12,2.15,0.13,2.82,0.27"/>
			<g id="kvg:06d19-g4" kvg:element="木">
				<path style="stroke: #0982bf;" id="kvg:06d19-s6" kvg:type="㇐" d="M36.89,54.5c0.86,0.24,3.17,0.42,5.47,0.23c9.13-0.73,30.21-3.12,46.03-4.34c2.29-0.18,4.33,0.24,5.77,0.49"/>
				<path style="stroke: #0909bf;" id="kvg:06d19-s7" kvg:type="㇑" d="M62.48,9.75c1.14,0.49,1.82,2.2,2.05,3.17s0,80.97-0.23,87.08"/>
				<path style="stroke: #8209bf;" id="kvg:06d19-s8" kvg:type="㇒" d="M64.25,53.04C58.9,64.06,45.07,80.77,33.95,87"/>
				<path style="stroke: #bf0982;" id="kvg:06d19-s9" kvg:type="㇏" d="M64.85,54.31c4.16,6.21,21.72,23.94,27.91,29.13c1.55,1.3,2.79,1.96,4.29,2.35"/>
			</g>
		</g>
	</g>
</g>
</g>
<g id="kvg:StrokeNumbers_06d19" style="font-size:8;fill:#808080" transform="scale(3.0,3.0)">
	<text style="fill: #bf0909;" transform="matrix(1 0 0 1 11.50 18.50)">1</text>
	<text style="fill: #bf8209;" transform="matrix(1 0 0 1 6.25 43.50)">2</text>
	<text style="fill: #82bf09;" transform="matrix(1 0 0 1 6.50 89.50)">3</text>
	<text style="fill: #09bf09;" transform="matrix(1 0 0 1 40.50 17.50)">4</text>
	<text style="fill: #09bf82;" transform="matrix(1 0 0 1 52.50 30.50)">5</text>
	<text style="fill: #0982bf;" transform="matrix(1 0 0 1 40.50 51.50)">6</text>
	<text style="fill: #0909bf;" transform="matrix(1 0 0 1 54.50 9.18)">7</text>
	<text style="fill: #8209bf;" transform="matrix(1 0 0 1 50.50 64.50)">8</text>
	<text style="fill: #bf0982;" transform="matrix(1 0 0 1 75.50 62.03)">9</text>
</g>
</svg>
