<?xml version="1.0" encoding="UTF-8"?>
<!--
This file has been modified from the original version by the kanji_colorize.py
script (available at http://github.com/cayennes/kanji-colorize) with these
settings:
    mode: spectrum
    saturation: 0.95
    value: 0.75
    image_size: 327
It remains under a Creative Commons-Attribution-Share Alike 3.0 License.

The original SVG has the following copyright:

Copyright (C) 2009/2010/2011 Ulrich Apel.
This work is distributed under the conditions of the Creative Commons
Attribution-Share Alike 3.0 Licence. This means you are free:
* to Share - to copy, distribute and transmit the work
* to Remix - to adapt the work

Under the following conditions:
* Attribution. You must attribute the work by stating your use of KanjiVG in
  your own copyright header and linking to KanjiVG's website
  (http://kanjivg.tagaini.net)
* Share Alike. If you alter, transform, or build upon this work, you may
  distribute the resulting work only under the same or similar license to this
  one.

See http://creativecommons.org/licenses/by-sa/3.0/ for more details.
-->
<!DOCTYPE svg PUBLIC "-//W3C//DTD SVG 1.0//EN" "http://www.w3.org/TR/2001/REC-SVG-20010904/DTD/svg10.dtd" [
<!ATTLIST g
xmlns:kvg CDATA #FIXED "http://kanjivg.tagaini.net"
kvg:element CDATA #IMPLIED
kvg:variant CDATA #IMPLIED
kvg:partial CDATA #IMPLIED
kvg:original CDATA #IMPLIED
kvg:part CDATA #IMPLIED
kvg:number CDATA #IMPLIED
kvg:tradForm CDATA #IMPLIED
kvg:radicalForm CDATA #IMPLIED
kvg:position CDATA #IMPLIED
kvg:radical CDATA #IMPLIED
kvg:phon CDATA #IMPLIED >
<!ATTLIST path
xmlns:kvg CDATA #FIXED "http://kanjivg.tagaini.net"
kvg:type CDATA #IMPLIED >
]>
<svg xmlns="http://www.w3.org/2000/svg" width="327" height = "327" viewBox="0 0 327 327">
<g id="kvg:StrokePaths_06d29" style="fill:none;stroke:#000000;stroke-width:3;stroke-linecap:round;stroke-linejoin:round;" transform="scale(3.0,3.0)">
<g id="kvg:06d29" kvg:element="洩">
	<g id="kvg:06d29-g1" kvg:element="氵" kvg:variant="true" kvg:original="水" kvg:position="left" kvg:radical="general">
		<path style="stroke: #bf0909;" id="kvg:06d29-s1" kvg:type="㇔" d="M18.88,21c4.63,1.38,11.71,5.44,12.87,7.59"/>
		<path style="stroke: #bf8209;" id="kvg:06d29-s2" kvg:type="㇔" d="M14.75,44c5.12,1.41,12.97,5.3,14.25,7.5"/>
		<path style="stroke: #82bf09;" id="kvg:06d29-s3" kvg:type="㇀" d="M17.25,91.21c2.12,0.29,3.31-0.39,4.25-2c2.75-4.7,5-9.7,7.5-15.7"/>
	</g>
	<g id="kvg:06d29-g2" kvg:element="曳" kvg:position="right">
		<g id="kvg:06d29-g3" kvg:element="日">
			<path style="stroke: #09bf09;" id="kvg:06d29-s4" kvg:type="㇑" d="M40.48,31.61c0.75,0.94,1.14,1.99,1.17,3.15c0.81,5.48,1.59,11.21,2.44,17.49c0.32,2.32,0.64,4.72,0.99,7.21"/>
			<path style="stroke: #09bf82;" id="kvg:06d29-s5" kvg:type="㇕a" d="M42.46,32.78c11.8-1.79,29.27-4.22,38.17-4.88c2.34-0.61,4.62,0.85,4.33,3.8c-0.37,3.73-1.15,9.39-2.33,15.9c-0.43,2.39-0.92,4.9-1.44,7.47"/>
			<path style="stroke: #0982bf;" id="kvg:06d29-s6" kvg:type="㇐a" d="M44.15,44.55c3.59-0.49,35.77-4.65,38.73-4.85"/>
			<path style="stroke: #0909bf;" id="kvg:06d29-s7" kvg:type="㇐a" d="M45.91,56.8c12.59-1.55,23.76-3.5,34.7-4.39"/>
		</g>
		<path style="stroke: #8209bf;" id="kvg:06d29-s8" kvg:type="㇂" d="M56.01,11c1.12,1.25,1.87,2.32,2.2,6.22C61.5,55.5,71.25,80.25,90.33,94.44c5.95,4.42,5.4,0.78,4.6-7.26"/>
		<g id="kvg:06d29-g4" kvg:element="丿">
			<path style="stroke: #bf0982;" id="kvg:06d29-s9" kvg:type="㇒" d="M83.74,62.37c-0.31,1.63-0.95,3.08-1.93,4.33c-4.79,6.33-19.73,17.67-39.45,24.55"/>
		</g>
	</g>
</g>
</g>
<g id="kvg:StrokeNumbers_06d29" style="font-size:8;fill:#808080" transform="scale(3.0,3.0)">
	<text style="fill: #bf0909;" transform="matrix(1 0 0 1 11.50 21.50)">1</text>
	<text style="fill: #bf8209;" transform="matrix(1 0 0 1 7.25 44.50)">2</text>
	<text style="fill: #82bf09;" transform="matrix(1 0 0 1 7.50 92.50)">3</text>
	<text style="fill: #09bf09;" transform="matrix(1 0 0 1 33.50 38.50)">4</text>
	<text style="fill: #09bf82;" transform="matrix(1 0 0 1 43.50 29.50)">5</text>
	<text style="fill: #0982bf;" transform="matrix(1 0 0 1 46.50 41.50)">6</text>
	<text style="fill: #0909bf;" transform="matrix(1 0 0 1 48.50 53.50)">7</text>
	<text style="fill: #8209bf;" transform="matrix(1 0 0 1 45.50 10.50)">8</text>
	<text style="fill: #bf0982;" transform="matrix(1 0 0 1 75.50 62.50)">9</text>
</g>
</svg>
