<?xml version="1.0" encoding="UTF-8"?>
<!--
This file has been modified from the original version by the kanji_colorize.py
script (available at http://github.com/cayennes/kanji-colorize) with these
settings:
    mode: spectrum
    saturation: 0.95
    value: 0.75
    image_size: 327
It remains under a Creative Commons-Attribution-Share Alike 3.0 License.

The original SVG has the following copyright:

Copyright (C) 2009/2010/2011 Ulrich Apel.
This work is distributed under the conditions of the Creative Commons
Attribution-Share Alike 3.0 Licence. This means you are free:
* to Share - to copy, distribute and transmit the work
* to Remix - to adapt the work

Under the following conditions:
* Attribution. You must attribute the work by stating your use of KanjiVG in
  your own copyright header and linking to KanjiVG's website
  (http://kanjivg.tagaini.net)
* Share Alike. If you alter, transform, or build upon this work, you may
  distribute the resulting work only under the same or similar license to this
  one.

See http://creativecommons.org/licenses/by-sa/3.0/ for more details.
-->
<!DOCTYPE svg PUBLIC "-//W3C//DTD SVG 1.0//EN" "http://www.w3.org/TR/2001/REC-SVG-20010904/DTD/svg10.dtd" [
<!ATTLIST g
xmlns:kvg CDATA #FIXED "http://kanjivg.tagaini.net"
kvg:element CDATA #IMPLIED
kvg:variant CDATA #IMPLIED
kvg:partial CDATA #IMPLIED
kvg:original CDATA #IMPLIED
kvg:part CDATA #IMPLIED
kvg:number CDATA #IMPLIED
kvg:tradForm CDATA #IMPLIED
kvg:radicalForm CDATA #IMPLIED
kvg:position CDATA #IMPLIED
kvg:radical CDATA #IMPLIED
kvg:phon CDATA #IMPLIED >
<!ATTLIST path
xmlns:kvg CDATA #FIXED "http://kanjivg.tagaini.net"
kvg:type CDATA #IMPLIED >
]>
<svg xmlns="http://www.w3.org/2000/svg" width="327" height = "327" viewBox="0 0 327 327">
<g id="kvg:StrokePaths_06d44" style="fill:none;stroke:#000000;stroke-width:3;stroke-linecap:round;stroke-linejoin:round;" transform="scale(3.0,3.0)">
<g id="kvg:06d44" kvg:element="浄">
	<g id="kvg:06d44-g1" kvg:element="氵" kvg:variant="true" kvg:original="水" kvg:position="left" kvg:radical="general">
		<path style="stroke: #bf0909;" id="kvg:06d44-s1" kvg:type="㇔" d="M21.88,17.5c3.31,1.47,8.62,5.38,10.87,8.84"/>
		<path style="stroke: #bf8209;" id="kvg:06d44-s2" kvg:type="㇔" d="M14.75,40.5c3.44,1.5,8,5.25,10,8.5"/>
		<path style="stroke: #82bf09;" id="kvg:06d44-s3" kvg:type="㇀" d="M15.5,88.47c1.5,0.74,2.56,0.52,3.46-0.91c3.19-5.09,6.39-11.32,9.29-17.81"/>
	</g>
	<g id="kvg:06d44-g2" kvg:element="争" kvg:position="right" kvg:phon="争">
		<g id="kvg:06d44-g3" kvg:element="𠂊" kvg:variant="true" kvg:original="勹" kvg:position="top">
			<path style="stroke: #09bf09;" id="kvg:06d44-s4" kvg:type="㇒" d="M56.44,11.5c0.05,0.62,0.19,1.66-0.11,2.51c-2.06,5.85-8.83,15.74-18.76,24"/>
			<path style="stroke: #09bf82;" id="kvg:06d44-s5" kvg:type="㇇a" d="M53.69,21.76c2.2,0,13.78-1.33,18.35-2.09c3.2-0.53,5.45,0.32,3.24,3.69c-3.36,5.11-5.92,8.88-9.42,14.94"/>
		</g>
		<g id="kvg:06d44-g4" kvg:position="bottom">
			<g id="kvg:06d44-g5" kvg:element="⺕" kvg:variant="true" kvg:original="彑">
				<path style="stroke: #0982bf;" id="kvg:06d44-s6" kvg:type="㇕c" d="M43.46,40.93c2.29,0.98,5,1.09,7.44,0.78c12.6-1.59,22.1-2.34,32.97-3.38c3.14-0.3,3.91,1.56,3.41,4.31c-1.11,6.07-1.96,10.43-3.75,21.1"/>
				<path style="stroke: #0909bf;" id="kvg:06d44-s7" kvg:type="㇐" d="M34,54.66c3.25,0.96,6.69,0.41,10,0.1c14.56-1.37,30.85-2.96,44.75-3.52c3.2-0.13,6.33,0,9.5,0.57"/>
				<path style="stroke: #8209bf;" id="kvg:06d44-s8" kvg:type="㇐" d="M43.7,67.09c2.43,0.53,4.88,0.59,7.42,0.23c9.26-1.32,19.39-2.07,29.76-2.46c2.21-0.08,4.29-0.08,6.5,0.08"/>
			</g>
			<g id="kvg:06d44-g6" kvg:element="亅">
				<path style="stroke: #bf0982;" id="kvg:06d44-s9" kvg:type="㇚" d="M64.49,42.9c0.99,0.99,1.6,2.6,1.6,4.8c0,11.07,0.02,37.66,0.02,44.2c0,11.84-6.58,1.44-7.95,0.24"/>
			</g>
		</g>
	</g>
</g>
</g>
<g id="kvg:StrokeNumbers_06d44" style="font-size:8;fill:#808080" transform="scale(3.0,3.0)">
	<text style="fill: #bf0909;" transform="matrix(1 0 0 1 13.50 17.50)">1</text>
	<text style="fill: #bf8209;" transform="matrix(1 0 0 1 8.25 41.50)">2</text>
	<text style="fill: #82bf09;" transform="matrix(1 0 0 1 8.25 92.50)">3</text>
	<text style="fill: #09bf09;" transform="matrix(1 0 0 1 48.50 12.13)">4</text>
	<text style="fill: #09bf82;" transform="matrix(1 0 0 1 62.50 17.50)">5</text>
	<text style="fill: #0982bf;" transform="matrix(1 0 0 1 46.50 38.50)">6</text>
	<text style="fill: #0909bf;" transform="matrix(1 0 0 1 33.50 51.50)">7</text>
	<text style="fill: #8209bf;" transform="matrix(1 0 0 1 36.75 67.50)">8</text>
	<text style="fill: #bf0982;" transform="matrix(1 0 0 1 57.75 49.63)">9</text>
</g>
</svg>
