<?xml version="1.0" encoding="UTF-8"?>
<!--
This file has been modified from the original version by the kanji_colorize.py
script (available at http://github.com/cayennes/kanji-colorize) with these
settings:
    mode: spectrum
    saturation: 0.95
    value: 0.75
    image_size: 327
It remains under a Creative Commons-Attribution-Share Alike 3.0 License.

The original SVG has the following copyright:

Copyright (C) 2009/2010/2011 Ulrich Apel.
This work is distributed under the conditions of the Creative Commons
Attribution-Share Alike 3.0 Licence. This means you are free:
* to Share - to copy, distribute and transmit the work
* to Remix - to adapt the work

Under the following conditions:
* Attribution. You must attribute the work by stating your use of KanjiVG in
  your own copyright header and linking to KanjiVG's website
  (http://kanjivg.tagaini.net)
* Share Alike. If you alter, transform, or build upon this work, you may
  distribute the resulting work only under the same or similar license to this
  one.

See http://creativecommons.org/licenses/by-sa/3.0/ for more details.
-->
<!DOCTYPE svg PUBLIC "-//W3C//DTD SVG 1.0//EN" "http://www.w3.org/TR/2001/REC-SVG-20010904/DTD/svg10.dtd" [
<!ATTLIST g
xmlns:kvg CDATA #FIXED "http://kanjivg.tagaini.net"
kvg:element CDATA #IMPLIED
kvg:variant CDATA #IMPLIED
kvg:partial CDATA #IMPLIED
kvg:original CDATA #IMPLIED
kvg:part CDATA #IMPLIED
kvg:number CDATA #IMPLIED
kvg:tradForm CDATA #IMPLIED
kvg:radicalForm CDATA #IMPLIED
kvg:position CDATA #IMPLIED
kvg:radical CDATA #IMPLIED
kvg:phon CDATA #IMPLIED >
<!ATTLIST path
xmlns:kvg CDATA #FIXED "http://kanjivg.tagaini.net"
kvg:type CDATA #IMPLIED >
]>
<svg xmlns="http://www.w3.org/2000/svg" width="327" height = "327" viewBox="0 0 327 327">
<g id="kvg:StrokePaths_06d79" style="fill:none;stroke:#000000;stroke-width:3;stroke-linecap:round;stroke-linejoin:round;" transform="scale(3.0,3.0)">
<g id="kvg:06d79" kvg:element="浹">
	<g id="kvg:06d79-g1" kvg:element="氵" kvg:variant="true" kvg:original="水" kvg:position="left" kvg:radical="general">
		<path style="stroke: #bf0909;" id="kvg:06d79-s1" kvg:type="㇔" d="M17.38,15.5c4.72,1.78,12.19,7.32,13.37,10.09"/>
		<path style="stroke: #bf7609;" id="kvg:06d79-s2" kvg:type="㇔" d="M14,41.75c4.24,1.63,10.94,6.71,12,9.25"/>
		<path style="stroke: #9abf09;" id="kvg:06d79-s3" kvg:type="㇀" d="M13.25,89.23c1.71,1.27,3.78,1.32,4.86-0.25c3.14-4.57,9.29-16.16,12.14-21.99"/>
	</g>
	<g id="kvg:06d79-g2" kvg:element="夾" kvg:position="right">
		<g id="kvg:06d79-g3" kvg:element="大" kvg:part="1">
			<path style="stroke: #2dbf09;" id="kvg:06d79-s4" kvg:type="㇐" d="M37.75,31.15c1.29,0.44,3.65,0.49,4.94,0.44c9.06-0.34,39.58-3.02,47.54-2.52c2.14,0.14,3.44,0.21,4.52,0.43"/>
		</g>
		<g id="kvg:06d79-g4" kvg:element="从">
			<g id="kvg:06d79-g5" kvg:element="人" kvg:position="left">
				<path style="stroke: #09bf52;" id="kvg:06d79-s5" kvg:type="㇒" d="M49.51,40.74c0,0.6,0.05,1.1-0.09,1.8c-1.31,6.52-5.21,14.63-10.95,21.83"/>
				<path style="stroke: #09bfbf;" id="kvg:06d79-s6" kvg:type="㇏" d="M47.64,53.71c2.93,1.5,6.68,5.5,8.11,9.29"/>
			</g>
			<g id="kvg:06d79-g6" kvg:element="人" kvg:position="right">
				<path style="stroke: #0952bf;" id="kvg:06d79-s7" kvg:type="㇒" d="M82.77,38.74c0,0.54,0.08,1.01-0.08,1.62c-1.38,5.28-5.3,14.69-9.97,20.02"/>
				<path style="stroke: #2d09bf;" id="kvg:06d79-s8" kvg:type="㇏" d="M80.89,50.71c5.01,2.86,8.86,6.44,11.86,10.79"/>
			</g>
		</g>
		<g id="kvg:06d79-g7" kvg:element="大" kvg:part="2">
			<path style="stroke: #9a09bf;" id="kvg:06d79-s9" kvg:type="㇒" d="M63.25,12.25c0.48,1.17,1.25,2.52,1.25,5.04c0,46.84-2.99,62.71-31.24,80.21"/>
			<path style="stroke: #bf0976;" id="kvg:06d79-s10" kvg:type="㇏" d="M63.5,53c6.01,12.1,19.23,33.57,27.38,40.53c2.28,1.95,2.89,2.51,3.87,2.72"/>
		</g>
	</g>
</g>
</g>
<g id="kvg:StrokeNumbers_06d79" style="font-size:8;fill:#808080" transform="scale(3.0,3.0)">
	<text style="fill: #bf0909;" transform="matrix(1 0 0 1 10.94 16.63)">1</text>
	<text style="fill: #bf7609;" transform="matrix(1 0 0 1 5.94 42.06)">2</text>
	<text style="fill: #9abf09;" transform="matrix(1 0 0 1 5.50 92.50)">3</text>
	<text style="fill: #2dbf09;" transform="matrix(1 0 0 1 35.50 27.50)">4</text>
	<text style="fill: #09bf52;" transform="matrix(1 0 0 1 40.50 42.50)">5</text>
	<text style="fill: #09bfbf;" transform="matrix(1 0 0 1 51.50 54.50)">6</text>
	<text style="fill: #0952bf;" transform="matrix(1 0 0 1 74.50 39.50)">7</text>
	<text style="fill: #2d09bf;" transform="matrix(1 0 0 1 86.50 51.50)">8</text>
	<text style="fill: #9a09bf;" transform="matrix(1 0 0 1 53.50 11.50)">9</text>
	<text style="fill: #bf0976;" transform="matrix(1 0 0 1 74.50 69.46)">10</text>
</g>
</svg>
