<?xml version="1.0" encoding="UTF-8"?>
<!--
This file has been modified from the original version by the kanji_colorize.py
script (available at http://github.com/cayennes/kanji-colorize) with these
settings:
    mode: spectrum
    saturation: 0.95
    value: 0.75
    image_size: 327
It remains under a Creative Commons-Attribution-Share Alike 3.0 License.

The original SVG has the following copyright:

Copyright (C) 2009/2010/2011 Ulrich Apel.
This work is distributed under the conditions of the Creative Commons
Attribution-Share Alike 3.0 Licence. This means you are free:
* to Share - to copy, distribute and transmit the work
* to Remix - to adapt the work

Under the following conditions:
* Attribution. You must attribute the work by stating your use of KanjiVG in
  your own copyright header and linking to KanjiVG's website
  (http://kanjivg.tagaini.net)
* Share Alike. If you alter, transform, or build upon this work, you may
  distribute the resulting work only under the same or similar license to this
  one.

See http://creativecommons.org/licenses/by-sa/3.0/ for more details.
-->
<!DOCTYPE svg PUBLIC "-//W3C//DTD SVG 1.0//EN" "http://www.w3.org/TR/2001/REC-SVG-20010904/DTD/svg10.dtd" [
<!ATTLIST g
xmlns:kvg CDATA #FIXED "http://kanjivg.tagaini.net"
kvg:element CDATA #IMPLIED
kvg:variant CDATA #IMPLIED
kvg:partial CDATA #IMPLIED
kvg:original CDATA #IMPLIED
kvg:part CDATA #IMPLIED
kvg:number CDATA #IMPLIED
kvg:tradForm CDATA #IMPLIED
kvg:radicalForm CDATA #IMPLIED
kvg:position CDATA #IMPLIED
kvg:radical CDATA #IMPLIED
kvg:phon CDATA #IMPLIED >
<!ATTLIST path
xmlns:kvg CDATA #FIXED "http://kanjivg.tagaini.net"
kvg:type CDATA #IMPLIED >
]>
<svg xmlns="http://www.w3.org/2000/svg" width="327" height = "327" viewBox="0 0 327 327">
<g id="kvg:StrokePaths_06d95" style="fill:none;stroke:#000000;stroke-width:3;stroke-linecap:round;stroke-linejoin:round;" transform="scale(3.0,3.0)">
<g id="kvg:06d95" kvg:element="涕">
	<g id="kvg:06d95-g1" kvg:element="氵" kvg:variant="true" kvg:original="水" kvg:position="left" kvg:radical="general">
		<path style="stroke: #bf0909;" id="kvg:06d95-s1" kvg:type="㇔" d="M17.13,14.25c4.81,1.91,12.41,7.87,13.62,10.84"/>
		<path style="stroke: #bf7609;" id="kvg:06d95-s2" kvg:type="㇔" d="M13,40c4.59,1.76,11.85,7.26,13,10"/>
		<path style="stroke: #9abf09;" id="kvg:06d95-s3" kvg:type="㇀" d="M12.75,85.23c1.71,1.27,3.78,0.32,4.86-1.25c3.14-4.57,8.79-14.66,11.64-20.49"/>
	</g>
	<g id="kvg:06d95-g2" kvg:element="弟" kvg:position="right">
		<g id="kvg:06d95-g3" kvg:position="top">
			<path style="stroke: #2dbf09;" id="kvg:06d95-s4" kvg:type="㇔" d="M44.91,12.5c3.77,2.11,9.74,8.68,10.68,11.97"/>
			<path style="stroke: #09bf52;" id="kvg:06d95-s5" kvg:type="㇒" d="M78.59,9.5c0.09,1.27-0.14,2.71-0.73,3.93c-1.66,3.45-4.14,7.29-9.01,12.32"/>
		</g>
		<g id="kvg:06d95-g4" kvg:position="bottom">
			<g id="kvg:06d95-g5" kvg:element="弔">
				<g id="kvg:06d95-g6" kvg:element="弓">
					<path style="stroke: #09bfbf;" id="kvg:06d95-s6" kvg:type="㇕c" d="M40.68,28.54c1.17,1.07,3.25,1.28,4.75,1.19c7.82-0.48,36.13-3.17,39.11-3.76c2.98-0.59,4.22,2.15,3.69,4.05c-0.83,2.99-3.64,10.16-3.98,12.48"/>
					<path style="stroke: #0952bf;" id="kvg:06d95-s7" kvg:type="㇐" d="M45.75,46c7.25-0.5,33.98-3.5,36.09-3.5c2.11,0,4.22,0,5.91,0"/>
					<path style="stroke: #2d09bf;" id="kvg:06d95-s8" kvg:type="㇉" d="M44.48,45.42c0.89,0.79,0.63,2.9,0.18,4.21c-0.9,2.62-1.39,5.48-2.64,9.84C41,63,42.06,64.02,43.96,63.86C48,63.5,86.53,59.83,91.3,59.23c4.77-0.6,3.6,3.99,3.26,5.42c-0.65,2.74-4.41,11.77-7.24,16.29c-4.57,7.31-6.3-0.95-7.66-2.48"/>
				</g>
				<g id="kvg:06d95-g7" kvg:element="丨">
					<path style="stroke: #9a09bf;" id="kvg:06d95-s9" kvg:type="㇑" d="M63.19,31.91c0.78,0.74,1.54,2.9,1.81,3.91c-0.74-2.79,0.16,55.05-0.27,65.18"/>
				</g>
			</g>
			<g id="kvg:06d95-g8" kvg:element="丿">
				<path style="stroke: #bf0976;" id="kvg:06d95-s10" kvg:type="㇒" d="M63.17,62c0.09,0.67,0.34,0.82-0.2,1.71C59.5,69.5,49,84.25,29.75,92.25"/>
			</g>
		</g>
	</g>
</g>
</g>
<g id="kvg:StrokeNumbers_06d95" style="font-size:8;fill:#808080" transform="scale(3.0,3.0)">
	<text style="fill: #bf0909;" transform="matrix(1 0 0 1 10.44 15.50)">1</text>
	<text style="fill: #bf7609;" transform="matrix(1 0 0 1 5.50 40.06)">2</text>
	<text style="fill: #9abf09;" transform="matrix(1 0 0 1 5.50 87.50)">3</text>
	<text style="fill: #2dbf09;" transform="matrix(1 0 0 1 37.50 12.50)">4</text>
	<text style="fill: #09bf52;" transform="matrix(1 0 0 1 69.50 9.50)">5</text>
	<text style="fill: #09bfbf;" transform="matrix(1 0 0 1 38.50 25.50)">6</text>
	<text style="fill: #0952bf;" transform="matrix(1 0 0 1 44.50 43.50)">7</text>
	<text style="fill: #2d09bf;" transform="matrix(1 0 0 1 36.50 53.50)">8</text>
	<text style="fill: #9a09bf;" transform="matrix(1 0 0 1 56.50 38.50)">9</text>
	<text style="fill: #bf0976;" transform="matrix(1 0 0 1 45.44 73.50)">10</text>
</g>
</svg>
