<?xml version="1.0" encoding="UTF-8"?>
<!--
This file has been modified from the original version by the kanji_colorize.py
script (available at http://github.com/cayennes/kanji-colorize) with these
settings:
    mode: spectrum
    saturation: 0.95
    value: 0.75
    image_size: 327
It remains under a Creative Commons-Attribution-Share Alike 3.0 License.

The original SVG has the following copyright:

Copyright (C) 2009/2010/2011 Ulrich Apel.
This work is distributed under the conditions of the Creative Commons
Attribution-Share Alike 3.0 Licence. This means you are free:
* to Share - to copy, distribute and transmit the work
* to Remix - to adapt the work

Under the following conditions:
* Attribution. You must attribute the work by stating your use of KanjiVG in
  your own copyright header and linking to KanjiVG's website
  (http://kanjivg.tagaini.net)
* Share Alike. If you alter, transform, or build upon this work, you may
  distribute the resulting work only under the same or similar license to this
  one.

See http://creativecommons.org/licenses/by-sa/3.0/ for more details.
-->
<!DOCTYPE svg PUBLIC "-//W3C//DTD SVG 1.0//EN" "http://www.w3.org/TR/2001/REC-SVG-20010904/DTD/svg10.dtd" [
<!ATTLIST g
xmlns:kvg CDATA #FIXED "http://kanjivg.tagaini.net"
kvg:element CDATA #IMPLIED
kvg:variant CDATA #IMPLIED
kvg:partial CDATA #IMPLIED
kvg:original CDATA #IMPLIED
kvg:part CDATA #IMPLIED
kvg:number CDATA #IMPLIED
kvg:tradForm CDATA #IMPLIED
kvg:radicalForm CDATA #IMPLIED
kvg:position CDATA #IMPLIED
kvg:radical CDATA #IMPLIED
kvg:phon CDATA #IMPLIED >
<!ATTLIST path
xmlns:kvg CDATA #FIXED "http://kanjivg.tagaini.net"
kvg:type CDATA #IMPLIED >
]>
<svg xmlns="http://www.w3.org/2000/svg" width="327" height = "327" viewBox="0 0 327 327">
<g id="kvg:StrokePaths_06deb" style="fill:none;stroke:#000000;stroke-width:3;stroke-linecap:round;stroke-linejoin:round;" transform="scale(3.0,3.0)">
<g id="kvg:06deb" kvg:element="淫">
	<g id="kvg:06deb-g1" kvg:element="氵" kvg:original="水" kvg:position="left" kvg:radical="general">
		<path style="stroke: #bf0909;" id="kvg:06deb-s1" kvg:type="㇔" d="M20.38,17c4.54,1.69,11.73,6.96,12.87,9.59"/>
		<path style="stroke: #bf6c09;" id="kvg:06deb-s2" kvg:type="㇔" d="M14.5,44c4.41,1.41,11.4,5.8,12.5,8"/>
		<path style="stroke: #aebf09;" id="kvg:06deb-s3" kvg:type="㇀" d="M17.25,91.21c1.5,1.31,3.31,1.36,4.25-0.25c2.75-4.7,5.5-10.45,8-16.45"/>
	</g>
	<g id="kvg:06deb-g2" kvg:position="right">
		<g id="kvg:06deb-g3" kvg:element="⺤" kvg:original="爪" kvg:position="top">
			<path style="stroke: #4bbf09;" id="kvg:06deb-s4" kvg:type="㇒" d="M82.46,12.89c0.09,0.28,0.2,0.73-0.19,1.14c-2.26,2.41-15.22,7.69-32.97,10.93"/>
			<path style="stroke: #09bf2a;" id="kvg:06deb-s5" kvg:type="㇔" d="M50.54,27.39c0.03,0.43,0.16,1.17-0.06,1.74c-1.62,4.29-4.4,10.2-9.73,16.62"/>
			<path style="stroke: #09bf8d;" id="kvg:06deb-s6" kvg:type="㇔" d="M63.77,27.08c2.66,2.36,6.88,9.71,7.54,13.38"/>
			<path style="stroke: #098dbf;" id="kvg:06deb-s7" kvg:type="㇒" d="M79.52,23.83C83.57,26.38,89.99,34.29,91,38.25"/>
		</g>
		<g id="kvg:06deb-g4" kvg:element="壬" kvg:position="bottom">
			<g id="kvg:06deb-g5" kvg:element="丿">
				<path style="stroke: #092abf;" id="kvg:06deb-s8" kvg:type="㇒" d="M84.55,44.5c0.1,0.27,0.39,0.77-0.2,1.07c-7.34,3.75-18.18,7.19-37.31,10.22"/>
			</g>
			<g id="kvg:06deb-g6" kvg:element="士">
				<path style="stroke: #4b09bf;" id="kvg:06deb-s9" kvg:type="㇐" d="M39.68,71.18c1.18,0.42,3.35,0.49,4.54,0.42c12.31-0.71,33.89-3.21,47.97-3.19c1.97,0,3.15,0.2,4.14,0.41"/>
				<path style="stroke: #ae09bf;" id="kvg:06deb-s10" kvg:type="㇑a" d="M67.19,54.08c0.98,0.39,1.75,1.73,1.75,2.53c0,8.89,0,30.27-0.19,35.14"/>
				<path style="stroke: #bf096c;" id="kvg:06deb-s11" kvg:type="㇐" d="M45.07,93.08c0.94,0.29,2.67,0.32,3.62,0.29c12.47-0.34,28.92-2.04,42.08-2.01c1.57,0,2.52,0.14,3.3,0.28"/>
			</g>
		</g>
	</g>
</g>
</g>
<g id="kvg:StrokeNumbers_06deb" style="font-size:8;fill:#808080" transform="scale(3.0,3.0)">
	<text style="fill: #bf0909;" transform="matrix(1 0 0 1 13.50 17.50)">1</text>
	<text style="fill: #bf6c09;" transform="matrix(1 0 0 1 5.50 44.50)">2</text>
	<text style="fill: #aebf09;" transform="matrix(1 0 0 1 8.50 95.50)">3</text>
	<text style="fill: #4bbf09;" transform="matrix(1 0 0 1 72.50 11.50)">4</text>
	<text style="fill: #09bf2a;" transform="matrix(1 0 0 1 41.50 32.50)">5</text>
	<text style="fill: #09bf8d;" transform="matrix(1 0 0 1 57.50 31.50)">6</text>
	<text style="fill: #098dbf;" transform="matrix(1 0 0 1 83.50 24.50)">7</text>
	<text style="fill: #092abf;" transform="matrix(1 0 0 1 76.50 44.50)">8</text>
	<text style="fill: #4b09bf;" transform="matrix(1 0 0 1 39.50 68.50)">9</text>
	<text style="fill: #ae09bf;" transform="matrix(1 0 0 1 58.00 62.50)">10</text>
	<text style="fill: #bf096c;" transform="matrix(1 0 0 1 42.50 89.50)">11</text>
</g>
</svg>
