<?xml version="1.0" encoding="UTF-8"?>
<!--
This file has been modified from the original version by the kanji_colorize.py
script (available at http://github.com/cayennes/kanji-colorize) with these
settings:
    mode: spectrum
    saturation: 0.95
    value: 0.75
    image_size: 327
It remains under a Creative Commons-Attribution-Share Alike 3.0 License.

The original SVG has the following copyright:

Copyright (C) 2009/2010/2011 Ulrich Apel.
This work is distributed under the conditions of the Creative Commons
Attribution-Share Alike 3.0 Licence. This means you are free:
* to Share - to copy, distribute and transmit the work
* to Remix - to adapt the work

Under the following conditions:
* Attribution. You must attribute the work by stating your use of KanjiVG in
  your own copyright header and linking to KanjiVG's website
  (http://kanjivg.tagaini.net)
* Share Alike. If you alter, transform, or build upon this work, you may
  distribute the resulting work only under the same or similar license to this
  one.

See http://creativecommons.org/licenses/by-sa/3.0/ for more details.
-->
<!DOCTYPE svg PUBLIC "-//W3C//DTD SVG 1.0//EN" "http://www.w3.org/TR/2001/REC-SVG-20010904/DTD/svg10.dtd" [
<!ATTLIST g
xmlns:kvg CDATA #FIXED "http://kanjivg.tagaini.net"
kvg:element CDATA #IMPLIED
kvg:variant CDATA #IMPLIED
kvg:partial CDATA #IMPLIED
kvg:original CDATA #IMPLIED
kvg:part CDATA #IMPLIED
kvg:number CDATA #IMPLIED
kvg:tradForm CDATA #IMPLIED
kvg:radicalForm CDATA #IMPLIED
kvg:position CDATA #IMPLIED
kvg:radical CDATA #IMPLIED
kvg:phon CDATA #IMPLIED >
<!ATTLIST path
xmlns:kvg CDATA #FIXED "http://kanjivg.tagaini.net"
kvg:type CDATA #IMPLIED >
]>
<svg xmlns="http://www.w3.org/2000/svg" width="327" height = "327" viewBox="0 0 327 327">
<g id="kvg:StrokePaths_06dfb" style="fill:none;stroke:#000000;stroke-width:3;stroke-linecap:round;stroke-linejoin:round;" transform="scale(3.0,3.0)">
<g id="kvg:06dfb" kvg:element="添">
	<g id="kvg:06dfb-g1" kvg:element="氵" kvg:variant="true" kvg:original="水" kvg:position="left" kvg:radical="general">
		<path style="stroke: #bf0909;" id="kvg:06dfb-s1" kvg:type="㇔" d="M17.63,15.5c4.28,1.43,11.05,5.87,12.12,8.09"/>
		<path style="stroke: #bf6c09;" id="kvg:06dfb-s2" kvg:type="㇔" d="M12.5,41c4.32,1.23,11.17,5.08,12.25,7"/>
		<path style="stroke: #aebf09;" id="kvg:06dfb-s3" kvg:type="㇀" d="M14.75,87.61c1.75,0.64,2.69,0,3.67-1.78c2.86-5.17,5.72-11.99,8.33-18.58"/>
	</g>
	<g id="kvg:06dfb-g2" kvg:position="right">
		<g id="kvg:06dfb-g3" kvg:position="top" kvg:phon="忝">
			<g id="kvg:06dfb-g4" kvg:element="忝">
				<g id="kvg:06dfb-g5" kvg:element="夭">
					<g id="kvg:06dfb-g6" kvg:element="丿">
						<path style="stroke: #4bbf09;" id="kvg:06dfb-s4" kvg:type="㇒" d="M72.06,13.89C72,15,71.48,15.86,70.55,16.34c-8.8,4.54-15.68,7.29-28.78,10.43"/>
					</g>
					<g id="kvg:06dfb-g7" kvg:element="大">
						<path style="stroke: #09bf2a;" id="kvg:06dfb-s5" kvg:type="㇐" d="M35.6,38.45c2.65,0.55,5.38,0.23,7.66-0.01c10.49-1.11,26.62-3.56,38.5-4.65c2.99-0.27,5.38-0.52,8.34,0.24"/>
						<path style="stroke: #09bf8d;" id="kvg:06dfb-s6" kvg:type="㇒" d="M59.67,24.94c0.28,1.17,0.32,2.02-0.08,3.2C53.46,46.27,47.44,56.29,33.75,67.5"/>
						<path style="stroke: #098dbf;" id="kvg:06dfb-s7" kvg:type="㇏" d="M61.79,36.52c6.04,5.9,18.07,18.63,25.56,24.66c1.77,1.42,3.66,2.78,5.65,3.9"/>
					</g>
				</g>
			</g>
			<g id="kvg:06dfb-g8" kvg:element="⺗" kvg:variant="true" kvg:original="心" kvg:position="bottom">
				<path style="stroke: #092abf;" id="kvg:06dfb-s8" kvg:type="㇚" d="M56.96,58.08c0.85,0.85,1.06,2.04,1.06,3.75c0,13.05,0.06,22.96,0.06,27.4c0,9.31-5.37,1.34-6.49,0.22"/>
				<path style="stroke: #4b09bf;" id="kvg:06dfb-s9" kvg:type="㇔" d="M43,74.75c0,4.84-4.91,11.99-6.25,13.38"/>
				<path style="stroke: #ae09bf;" id="kvg:06dfb-s10" kvg:type="㇔" d="M69,74c2.45,2.2,6.33,9.05,6.94,12.47"/>
				<path style="stroke: #bf096c;" id="kvg:06dfb-s11" kvg:type="㇔" d="M85.14,72.83c2.49,1.96,6.44,8.08,7.06,11.13"/>
			</g>
		</g>
	</g>
</g>
</g>
<g id="kvg:StrokeNumbers_06dfb" style="font-size:8;fill:#808080" transform="scale(3.0,3.0)">
	<text style="fill: #bf0909;" transform="matrix(1 0 0 1 12.50 16.50)">1</text>
	<text style="fill: #bf6c09;" transform="matrix(1 0 0 1 5.25 42.05)">2</text>
	<text style="fill: #aebf09;" transform="matrix(1 0 0 1 6.75 91.50)">3</text>
	<text style="fill: #4bbf09;" transform="matrix(1 0 0 1 60.75 12.13)">4</text>
	<text style="fill: #09bf2a;" transform="matrix(1 0 0 1 33.50 35.50)">5</text>
	<text style="fill: #09bf8d;" transform="matrix(1 0 0 1 50.25 32.50)">6</text>
	<text style="fill: #098dbf;" transform="matrix(1 0 0 1 74.50 45.50)">7</text>
	<text style="fill: #092abf;" transform="matrix(1 0 0 1 49.50 65.50)">8</text>
	<text style="fill: #4b09bf;" transform="matrix(1 0 0 1 37.50 74.50)">9</text>
	<text style="fill: #ae09bf;" transform="matrix(1 0 0 1 62.50 71.50)">10</text>
	<text style="fill: #bf096c;" transform="matrix(1 0 0 1 75.75 72.50)">11</text>
</g>
</svg>
