<?xml version="1.0" encoding="UTF-8"?>
<!--
This file has been modified from the original version by the kanji_colorize.py
script (available at http://github.com/cayennes/kanji-colorize) with these
settings:
    mode: spectrum
    saturation: 0.95
    value: 0.75
    image_size: 327
It remains under a Creative Commons-Attribution-Share Alike 3.0 License.

The original SVG has the following copyright:

Copyright (C) 2009/2010/2011 Ulrich Apel.
This work is distributed under the conditions of the Creative Commons
Attribution-Share Alike 3.0 Licence. This means you are free:
* to Share - to copy, distribute and transmit the work
* to Remix - to adapt the work

Under the following conditions:
* Attribution. You must attribute the work by stating your use of KanjiVG in
  your own copyright header and linking to KanjiVG's website
  (http://kanjivg.tagaini.net)
* Share Alike. If you alter, transform, or build upon this work, you may
  distribute the resulting work only under the same or similar license to this
  one.

See http://creativecommons.org/licenses/by-sa/3.0/ for more details.
-->
<!DOCTYPE svg PUBLIC "-//W3C//DTD SVG 1.0//EN" "http://www.w3.org/TR/2001/REC-SVG-20010904/DTD/svg10.dtd" [
<!ATTLIST g
xmlns:kvg CDATA #FIXED "http://kanjivg.tagaini.net"
kvg:element CDATA #IMPLIED
kvg:variant CDATA #IMPLIED
kvg:partial CDATA #IMPLIED
kvg:original CDATA #IMPLIED
kvg:part CDATA #IMPLIED
kvg:number CDATA #IMPLIED
kvg:tradForm CDATA #IMPLIED
kvg:radicalForm CDATA #IMPLIED
kvg:position CDATA #IMPLIED
kvg:radical CDATA #IMPLIED
kvg:phon CDATA #IMPLIED >
<!ATTLIST path
xmlns:kvg CDATA #FIXED "http://kanjivg.tagaini.net"
kvg:type CDATA #IMPLIED >
]>
<svg xmlns="http://www.w3.org/2000/svg" width="327" height = "327" viewBox="0 0 327 327">
<g id="kvg:StrokePaths_06e07" style="fill:none;stroke:#000000;stroke-width:3;stroke-linecap:round;stroke-linejoin:round;" transform="scale(3.0,3.0)">
<g id="kvg:06e07" kvg:element="渇">
	<g id="kvg:06e07-g1" kvg:element="氵" kvg:variant="true" kvg:original="水" kvg:position="left" kvg:radical="general">
		<path style="stroke: #bf0909;" id="kvg:06e07-s1" kvg:type="㇔" d="M23,14.75c4.06,1.52,10.48,6.23,11.5,8.59"/>
		<path style="stroke: #bf6c09;" id="kvg:06e07-s2" kvg:type="㇔" d="M18.25,41.75c3.97,1.37,10.26,5.62,11.25,7.75"/>
		<path style="stroke: #aebf09;" id="kvg:06e07-s3" kvg:type="㇀" d="M19.26,88.13c1.24,0.58,2.5,0.34,3.24-0.92c2.75-4.7,7-13.95,9.5-19.95"/>
	</g>
	<g id="kvg:06e07-g2" kvg:element="曷" kvg:variant="true" kvg:position="right" kvg:phon="曷">
		<g id="kvg:06e07-g3" kvg:element="日" kvg:position="top">
			<path style="stroke: #4bbf09;" id="kvg:06e07-s4" kvg:type="㇑" d="M46.25,13.77c1.12,1.12,1.42,2.71,1.59,4.09c0.48,4.03,1.58,12.74,2.07,17.65c0.23,2.27,0.51,4.39,0.64,5.24"/>
			<path style="stroke: #09bf2a;" id="kvg:06e07-s5" kvg:type="㇕a" d="M48.69,15.37c3.66-0.53,20.69-2.67,27.31-3.39c3.42-0.37,5.74,0,5.26,3.91c-0.61,4.93-1.92,13.48-3.11,19.42c-0.31,1.52-0.6,2.87-0.88,3.94"/>
			<path style="stroke: #09bf8d;" id="kvg:06e07-s6" kvg:type="㇐a" d="M49.83,27.22c7.04-0.72,25.04-2.97,29.22-3.28"/>
			<path style="stroke: #098dbf;" id="kvg:06e07-s7" kvg:type="㇐a" d="M51.69,39.36c7.43-0.98,17.81-2.18,25.35-2.57"/>
		</g>
		<g id="kvg:06e07-g4" kvg:element="匂" kvg:position="bottom">
			<g id="kvg:06e07-g5" kvg:element="勹">
				<g id="kvg:06e07-g6" kvg:element="丿">
					<path style="stroke: #092abf;" id="kvg:06e07-s8" kvg:type="㇒" d="M56.75,41.75c0.12,1.43-0.27,2.16-0.86,3.49C53.12,51.41,47.4,59.32,38.5,67"/>
				</g>
				<path style="stroke: #4b09bf;" id="kvg:06e07-s9" kvg:type="㇆" d="M55.7,51.1c1.93,0.53,4.22,0.47,6.03,0.17c5.45-0.91,18.59-2.93,24.38-3.63c5.8-0.69,6.41,0.45,6.03,6.12c-0.61,9.31-3.91,29.44-11.49,41.32c-1.98,3.1-4.68,1.03-6.69-1.1"/>
			</g>
			<g id="kvg:06e07-g7" kvg:element="人">
				<g id="kvg:06e07-g8" kvg:element="匕">
					<path style="stroke: #ae09bf;" id="kvg:06e07-s10" kvg:type="㇒" d="M72.45,60.86c-0.08,1.14-0.47,1.74-1.44,2.28c-4.63,2.61-12.01,5.99-19.75,8.54"/>
					<path style="stroke: #bf096c;" id="kvg:06e07-s11" kvg:type="㇟" d="M47.68,62.3c0.82,0.82,1.17,2.07,1.17,3.18c0,2.26-0.1,3.67-0.1,9.01c0,6.01,1.26,7.57,13.86,7.57c11.26,0,12.63-1.98,12.63-6.81"/>
				</g>
			</g>
		</g>
	</g>
</g>
</g>
<g id="kvg:StrokeNumbers_06e07" style="font-size:8;fill:#808080" transform="scale(3.0,3.0)">
	<text style="fill: #bf0909;" transform="matrix(1 0 0 1 15.75 15.50)">1</text>
	<text style="fill: #bf6c09;" transform="matrix(1 0 0 1 9.75 41.50)">2</text>
	<text style="fill: #aebf09;" transform="matrix(1 0 0 1 11.25 93.50)">3</text>
	<text style="fill: #4bbf09;" transform="matrix(1 0 0 1 39.75 24.13)">4</text>
	<text style="fill: #09bf2a;" transform="matrix(1 0 0 1 50.25 11.50)">5</text>
	<text style="fill: #09bf8d;" transform="matrix(1 0 0 1 54.75 23.50)">6</text>
	<text style="fill: #098dbf;" transform="matrix(1 0 0 1 54.75 35.98)">7</text>
	<text style="fill: #092abf;" transform="matrix(1 0 0 1 46.50 50.50)">8</text>
	<text style="fill: #4b09bf;" transform="matrix(1 0 0 1 63.50 47.50)">9</text>
	<text style="fill: #ae09bf;" transform="matrix(1 0 0 1 60.50 61.55)">10</text>
	<text style="fill: #bf096c;" transform="matrix(1 0 0 1 38.25 76.48)">11</text>
</g>
</svg>
