<?xml version="1.0" encoding="UTF-8"?>
<!--
This file has been modified from the original version by the kanji_colorize.py
script (available at http://github.com/cayennes/kanji-colorize) with these
settings:
    mode: spectrum
    saturation: 0.95
    value: 0.75
    image_size: 327
It remains under a Creative Commons-Attribution-Share Alike 3.0 License.

The original SVG has the following copyright:

Copyright (C) 2009/2010/2011 Ulrich Apel.
This work is distributed under the conditions of the Creative Commons
Attribution-Share Alike 3.0 Licence. This means you are free:
* to Share - to copy, distribute and transmit the work
* to Remix - to adapt the work

Under the following conditions:
* Attribution. You must attribute the work by stating your use of KanjiVG in
  your own copyright header and linking to KanjiVG's website
  (http://kanjivg.tagaini.net)
* Share Alike. If you alter, transform, or build upon this work, you may
  distribute the resulting work only under the same or similar license to this
  one.

See http://creativecommons.org/licenses/by-sa/3.0/ for more details.
-->
<!DOCTYPE svg PUBLIC "-//W3C//DTD SVG 1.0//EN" "http://www.w3.org/TR/2001/REC-SVG-20010904/DTD/svg10.dtd" [
<!ATTLIST g
xmlns:kvg CDATA #FIXED "http://kanjivg.tagaini.net"
kvg:element CDATA #IMPLIED
kvg:variant CDATA #IMPLIED
kvg:partial CDATA #IMPLIED
kvg:original CDATA #IMPLIED
kvg:part CDATA #IMPLIED
kvg:number CDATA #IMPLIED
kvg:tradForm CDATA #IMPLIED
kvg:radicalForm CDATA #IMPLIED
kvg:position CDATA #IMPLIED
kvg:radical CDATA #IMPLIED
kvg:phon CDATA #IMPLIED >
<!ATTLIST path
xmlns:kvg CDATA #FIXED "http://kanjivg.tagaini.net"
kvg:type CDATA #IMPLIED >
]>
<svg xmlns="http://www.w3.org/2000/svg" width="327" height = "327" viewBox="0 0 327 327">
<g id="kvg:StrokePaths_06f11" style="fill:none;stroke:#000000;stroke-width:3;stroke-linecap:round;stroke-linejoin:round;" transform="scale(3.0,3.0)">
<g id="kvg:06f11" kvg:element="漑">
	<g id="kvg:06f11-g1" kvg:element="氵" kvg:variant="true" kvg:original="水" kvg:position="left" kvg:radical="general">
		<path style="stroke: #bf0909;" id="kvg:06f11-s1" kvg:type="㇔" d="M16.13,16.5c3.75,1.69,9.68,6.96,10.62,9.59"/>
		<path style="stroke: #bf5209;" id="kvg:06f11-s2" kvg:type="㇔" d="M12.25,42.75c3.79,1.54,9.8,6.35,10.75,8.75"/>
		<path style="stroke: #bf9a09;" id="kvg:06f11-s3" kvg:type="㇀" d="M11.25,87.62c2,0.62,3.71,0.48,4.77-1.28c3.09-5.1,6.67-13.84,9.48-20.35"/>
	</g>
	<g id="kvg:06f11-g2" kvg:element="既" kvg:variant="true" kvg:position="right">
		<g id="kvg:06f11-g3" kvg:element="艮" kvg:variant="true" kvg:position="left">
			<path style="stroke: #9abf09;" id="kvg:06f11-s4" kvg:type="㇒" d="M48.53,11.64c0.03,0.35,0.06,0.92-0.05,1.43c-0.65,3.01-4.35,9.61-9.42,13.65"/>
			<path style="stroke: #52bf09;" id="kvg:06f11-s5" kvg:type="㇑" d="M34.37,27.51c0.85,0.46,1.36,2.07,1.53,2.99c0.17,0.92,0.36,63.94,0.17,66.22"/>
			<path style="stroke: #09bf09;" id="kvg:06f11-s6" kvg:type="㇕" d="M35.7,29.26c1.49-0.1,19.41-2.76,20.76-2.95c2.29-0.32,2.82,1.16,2.77,2.63C59,36.75,57.25,52.5,56.7,56.53"/>
			<path style="stroke: #09bf52;" id="kvg:06f11-s7" kvg:type="㇐" d="M36.46,42.03c5.54-0.78,15.29-1.53,21.78-2.16"/>
			<path style="stroke: #09bf9a;" id="kvg:06f11-s8" kvg:type="㇐" d="M36.37,55.1c4.11-0.43,14.88-1.35,20.71-1.97"/>
			<path style="stroke: #099abf;" id="kvg:06f11-s9" kvg:type="㇐" d="M36.5,69.5c1.75,0,15.75-1.75,17.5-1.75s2.75,0,3.75,0"/>
			<path style="stroke: #0952bf;" id="kvg:06f11-s10" kvg:type="㇐" d="M36.25,85c1.75,0,16.25-2.25,18-2.25s2.75,0,3.75,0"/>
		</g>
		<g id="kvg:06f11-g4" kvg:element="旡" kvg:variant="true" kvg:original="无" kvg:position="right">
			<path style="stroke: #0909bf;" id="kvg:06f11-s11" kvg:type="㇐" d="M65.75,22.5c1,0.36,2.85,0.48,3.84,0.36c5.23-0.65,16.02-2.63,23.4-2.95c1.67-0.07,2.67,0.17,3.51,0.35"/>
			<path style="stroke: #5209bf;" id="kvg:06f11-s12" kvg:type="㇑" d="M67.418125,23.547291c0.79,0.42,1.26,1.89,1.42,2.73c0.16,0.84,0,16.6-0.16,21.85"/>
			<path style="stroke: #9a09bf;" id="kvg:06f11-s13" kvg:type="㇐" d="M62.8,49.034375c0.91,0.43,2.57,0.49,3.48,0.43c6.47-0.42,24.25-2.54,31.24-3.02c1.51-0.1,2.42,0.2,3.18,0.42"/>
			<g id="kvg:06f11-g5" kvg:element="儿">
				<g id="kvg:06f11-g6" kvg:element="八" kvg:variant="true">
					<g id="kvg:06f11-g7" kvg:element="丿" kvg:position="left">
						<path style="stroke: #bf099a;" id="kvg:06f11-s14" kvg:type="㇒" d="M85,23.75c0.42,1,0.78,2.92,0.53,5.35C83.56,48.46,76.75,80.25,57,95"/>
					</g>
					<g id="kvg:06f11-g8" kvg:position="right">
						<path style="stroke: #bf0952;" id="kvg:06f11-s15" kvg:type="㇟" d="M82.74,60.87c0.74,1.19,1.38,1.59,1.38,3.43C84.11,68,84,78,83.81,84c-0.34,10.5,2.18,11.53,7.94,11.53s6.76-1.78,6.76-9.12"/>
					</g>
				</g>
			</g>
		</g>
	</g>
</g>
</g>
<g id="kvg:StrokeNumbers_06f11" style="font-size:8;fill:#808080" transform="scale(3.0,3.0)">
	<text style="fill: #bf0909;" transform="matrix(1 0 0 1 8.50 17.50)">1</text>
	<text style="fill: #bf5209;" transform="matrix(1 0 0 1 4.50 42.50)">2</text>
	<text style="fill: #bf9a09;" transform="matrix(1 0 0 1 4.50 89.50)">3</text>
	<text style="fill: #9abf09;" transform="matrix(1 0 0 1 40.50 10.50)">4</text>
	<text style="fill: #52bf09;" transform="matrix(1 0 0 1 27.50 35.50)">5</text>
	<text style="fill: #09bf09;" transform="matrix(1 0 0 1 47.25 25.50)">6</text>
	<text style="fill: #09bf52;" transform="matrix(1 0 0 1 40.50 38.50)">7</text>
	<text style="fill: #09bf9a;" transform="matrix(1 0 0 1 40.50 51.50)">8</text>
	<text style="fill: #099abf;" transform="matrix(1 0 0 1 40.50 65.28)">9</text>
	<text style="fill: #0952bf;" transform="matrix(1 0 0 1 40.50 81.50)">10</text>
	<text style="fill: #0909bf;" transform="matrix(1 0 0 1 64.50 19.50)">11</text>
	<text style="fill: #5209bf;" transform="matrix(1 0 0 1 70 30.2)">12</text>
	<text style="fill: #9a09bf;" transform="matrix(1 0 0 1 59.75 56.9)">13</text>
	<text style="fill: #bf099a;" transform="matrix(1 0 0 1 86.5 28.8)">14</text>
	<text style="fill: #bf0952;" transform="matrix(1 0 0 1 86.50 64.15)">15</text>
</g>
</svg>
