<?xml version="1.0" encoding="UTF-8"?>
<!--
This file has been modified from the original version by the kanji_colorize.py
script (available at http://github.com/cayennes/kanji-colorize) with these
settings:
    mode: spectrum
    saturation: 0.95
    value: 0.75
    image_size: 327
It remains under a Creative Commons-Attribution-Share Alike 3.0 License.

The original SVG has the following copyright:

Copyright (C) 2009/2010/2011 Ulrich Apel.
This work is distributed under the conditions of the Creative Commons
Attribution-Share Alike 3.0 Licence. This means you are free:
* to Share - to copy, distribute and transmit the work
* to Remix - to adapt the work

Under the following conditions:
* Attribution. You must attribute the work by stating your use of KanjiVG in
  your own copyright header and linking to KanjiVG's website
  (http://kanjivg.tagaini.net)
* Share Alike. If you alter, transform, or build upon this work, you may
  distribute the resulting work only under the same or similar license to this
  one.

See http://creativecommons.org/licenses/by-sa/3.0/ for more details.
-->
<!DOCTYPE svg PUBLIC "-//W3C//DTD SVG 1.0//EN" "http://www.w3.org/TR/2001/REC-SVG-20010904/DTD/svg10.dtd" [
<!ATTLIST g
xmlns:kvg CDATA #FIXED "http://kanjivg.tagaini.net"
kvg:element CDATA #IMPLIED
kvg:variant CDATA #IMPLIED
kvg:partial CDATA #IMPLIED
kvg:original CDATA #IMPLIED
kvg:part CDATA #IMPLIED
kvg:number CDATA #IMPLIED
kvg:tradForm CDATA #IMPLIED
kvg:radicalForm CDATA #IMPLIED
kvg:position CDATA #IMPLIED
kvg:radical CDATA #IMPLIED
kvg:phon CDATA #IMPLIED >
<!ATTLIST path
xmlns:kvg CDATA #FIXED "http://kanjivg.tagaini.net"
kvg:type CDATA #IMPLIED >
]>
<svg xmlns="http://www.w3.org/2000/svg" width="327" height = "327" viewBox="0 0 327 327">
<g id="kvg:StrokePaths_06f84" style="fill:none;stroke:#000000;stroke-width:3;stroke-linecap:round;stroke-linejoin:round;" transform="scale(3.0,3.0)">
<g id="kvg:06f84" kvg:element="澄">
	<g id="kvg:06f84-g1" kvg:element="氵" kvg:variant="true" kvg:original="水" kvg:position="left" kvg:radical="general">
		<path style="stroke: #bf0909;" id="kvg:06f84-s1" kvg:type="㇔" d="M17.88,17.5c4.1,1.43,10.6,5.87,11.62,8.09"/>
		<path style="stroke: #bf5209;" id="kvg:06f84-s2" kvg:type="㇔" d="M14,40.38c3.71,1.39,9.57,5.71,10.5,7.88"/>
		<path style="stroke: #bf9a09;" id="kvg:06f84-s3" kvg:type="㇀" d="M11.4,86.82c1.27,0.65,2.59,0.43,3.35-0.87c2.75-4.7,5.5-10.45,8-16.45"/>
	</g>
	<g id="kvg:06f84-g2" kvg:element="登" kvg:position="right" kvg:phon="登">
		<g id="kvg:06f84-g3" kvg:element="癶" kvg:position="top">
			<g id="kvg:06f84-g4" kvg:position="left">
				<path style="stroke: #9abf09;" id="kvg:06f84-s4" kvg:type="㇇" d="M41.53,18.67c1.57,0.76,3.36,0.48,4.99,0.21c3.64-0.6,4.56-1.13,9.26-1.93c3.12-0.54,3.75,0.48,2.75,3.55c-2.35,7.19-12.78,26-26.78,32.47"/>
				<path style="stroke: #52bf09;" id="kvg:06f84-s5" kvg:type="㇔" d="M37.38,29.25c3.22,1.16,8.31,4.78,9.11,6.59"/>
			</g>
			<g id="kvg:06f84-g5" kvg:position="right">
				<path style="stroke: #09bf09;" id="kvg:06f84-s6" kvg:type="㇒" d="M76.31,17.85c0.1,0.51-0.02,1.2-0.36,1.57c-1.24,2.03-2.89,3.92-6.33,6.45"/>
				<path style="stroke: #09bf52;" id="kvg:06f84-s7" kvg:type="㇏" d="M59.58,21.99c4.4,2.35,16.44,13.51,24.09,19.86c2.75,2.28,6,4.3,9.08,6.1"/>
				<path style="stroke: #09bf9a;" id="kvg:06f84-s8" kvg:type="㇒" d="M86.14,26.12c0.07,0.54-0.04,1.03-0.35,1.47c-1,1.71-3.84,4.14-7.55,6.14"/>
			</g>
		</g>
		<g id="kvg:06f84-g6" kvg:element="豆" kvg:position="bottom">
			<g id="kvg:06f84-g7" kvg:position="top">
				<path style="stroke: #099abf;" id="kvg:06f84-s9" kvg:type="㇐" d="M47.82,44.94c1.8,0.44,3.3,0.24,4.79,0.03c5.5-0.77,10.04-1.24,14.51-1.63c1.65-0.14,3.24-0.31,4.86,0.14"/>
			</g>
			<g id="kvg:06f84-g8" kvg:position="bottom">
				<g id="kvg:06f84-g9" kvg:element="口">
					<path style="stroke: #0952bf;" id="kvg:06f84-s10" kvg:type="㇑" d="M42.56,55.18c0.88,0.88,1.32,1.82,1.64,3.06c0.67,2.62,1.48,5.96,2.42,11.19c0.23,1.25,0.44,1.72,0.62,2.89"/>
					<path style="stroke: #0909bf;" id="kvg:06f84-s11" kvg:type="㇕b" d="M44.33,55.99c7.03-0.66,24.73-2.85,29.53-2.95c1.98-0.04,3.39,1.88,2.88,3.77c-0.87,3.2-1.75,6.2-3.1,10.67"/>
					<path style="stroke: #5209bf;" id="kvg:06f84-s12" kvg:type="㇐b" d="M48.57,70.64c6-0.53,15.93-1.51,23.43-1.89c1.43-0.07,2.68-0.21,3.67-0.25"/>
				</g>
				<path style="stroke: #9a09bf;" id="kvg:06f84-s13" kvg:type="㇔" d="M46.54,78.25c1.79,1.81,4.58,6.44,5.03,9.26"/>
				<path style="stroke: #bf099a;" id="kvg:06f84-s14" kvg:type="㇒" d="M74.8,74.97c0.02,0.35,0.05,0.91-0.05,1.42c-0.47,2.41-2.74,7.15-6,10.99"/>
				<path style="stroke: #bf0952;" id="kvg:06f84-s15" kvg:type="㇐" d="M31.53,91.1c3.34,0.9,6.74,0.57,9.72,0.36c12.04-0.82,31.58-2.22,43.87-2.76c3.03-0.13,6.11,0.05,9.08,0.78"/>
			</g>
		</g>
	</g>
</g>
</g>
<g id="kvg:StrokeNumbers_06f84" style="font-size:8;fill:#808080" transform="scale(3.0,3.0)">
	<text style="fill: #bf0909;" transform="matrix(1 0 0 1 12.75 16.63)">1</text>
	<text style="fill: #bf5209;" transform="matrix(1 0 0 1 8.25 40.55)">2</text>
	<text style="fill: #bf9a09;" transform="matrix(1 0 0 1 3.75 91.48)">3</text>
	<text style="fill: #9abf09;" transform="matrix(1 0 0 1 42.75 15.13)">4</text>
	<text style="fill: #52bf09;" transform="matrix(1 0 0 1 34.50 27.50)">5</text>
	<text style="fill: #09bf09;" transform="matrix(1 0 0 1 67.50 18.50)">6</text>
	<text style="fill: #09bf52;" transform="matrix(1 0 0 1 60.75 33.20)">7</text>
	<text style="fill: #09bf9a;" transform="matrix(1 0 0 1 83.50 22.50)">8</text>
	<text style="fill: #099abf;" transform="matrix(1 0 0 1 53.50 41.50)">9</text>
	<text style="fill: #0952bf;" transform="matrix(1 0 0 1 33.75 63.50)">10</text>
	<text style="fill: #0909bf;" transform="matrix(1 0 0 1 44.50 53.50)">11</text>
	<text style="fill: #5209bf;" transform="matrix(1 0 0 1 49.50 67.55)">12</text>
	<text style="fill: #9a09bf;" transform="matrix(1 0 0 1 35.25 79.48)">13</text>
	<text style="fill: #bf099a;" transform="matrix(1 0 0 1 63.50 77.50)">14</text>
	<text style="fill: #bf0952;" transform="matrix(1 0 0 1 29.25 88.63)">15</text>
</g>
</svg>
