<?xml version="1.0" encoding="UTF-8"?>
<!--
This file has been modified from the original version by the kanji_colorize.py
script (available at http://github.com/cayennes/kanji-colorize) with these
settings:
    mode: spectrum
    saturation: 0.95
    value: 0.75
    image_size: 327
It remains under a Creative Commons-Attribution-Share Alike 3.0 License.

The original SVG has the following copyright:

Copyright (C) 2009/2010/2011 Ulrich Apel.
This work is distributed under the conditions of the Creative Commons
Attribution-Share Alike 3.0 Licence. This means you are free:
* to Share - to copy, distribute and transmit the work
* to Remix - to adapt the work

Under the following conditions:
* Attribution. You must attribute the work by stating your use of KanjiVG in
  your own copyright header and linking to KanjiVG's website
  (http://kanjivg.tagaini.net)
* Share Alike. If you alter, transform, or build upon this work, you may
  distribute the resulting work only under the same or similar license to this
  one.

See http://creativecommons.org/licenses/by-sa/3.0/ for more details.
-->
<!DOCTYPE svg PUBLIC "-//W3C//DTD SVG 1.0//EN" "http://www.w3.org/TR/2001/REC-SVG-20010904/DTD/svg10.dtd" [
<!ATTLIST g
xmlns:kvg CDATA #FIXED "http://kanjivg.tagaini.net"
kvg:element CDATA #IMPLIED
kvg:variant CDATA #IMPLIED
kvg:partial CDATA #IMPLIED
kvg:original CDATA #IMPLIED
kvg:part CDATA #IMPLIED
kvg:number CDATA #IMPLIED
kvg:tradForm CDATA #IMPLIED
kvg:radicalForm CDATA #IMPLIED
kvg:position CDATA #IMPLIED
kvg:radical CDATA #IMPLIED
kvg:phon CDATA #IMPLIED >
<!ATTLIST path
xmlns:kvg CDATA #FIXED "http://kanjivg.tagaini.net"
kvg:type CDATA #IMPLIED >
]>
<svg xmlns="http://www.w3.org/2000/svg" width="327" height = "327" viewBox="0 0 327 327">
<g id="kvg:StrokePaths_06fd5" style="fill:none;stroke:#000000;stroke-width:3;stroke-linecap:round;stroke-linejoin:round;" transform="scale(3.0,3.0)">
<g id="kvg:06fd5" kvg:element="濕">
	<g id="kvg:06fd5-g1" kvg:element="氵" kvg:variant="true" kvg:original="水" kvg:position="left" kvg:radical="tradit">
		<path style="stroke: #bf0909;" id="kvg:06fd5-s1" kvg:type="㇔" d="M21.63,14.5c4.45,1.78,11.5,7.32,12.62,10.09"/>
		<path style="stroke: #bf4909;" id="kvg:06fd5-s2" kvg:type="㇔" d="M16,43c4.59,2.03,11.85,8.34,13,11.5"/>
		<path style="stroke: #bf8909;" id="kvg:06fd5-s3" kvg:type="㇀" d="M15.75,91.23c1.71,1.27,3.78,1.32,4.86-0.25c3.14-4.57,6.29-10.16,9.14-15.99"/>
	</g>
	<g id="kvg:06fd5-g2" kvg:position="right">
		<g id="kvg:06fd5-g3" kvg:element="日" kvg:position="top">
			<path style="stroke: #b4bf09;" id="kvg:06fd5-s4" kvg:type="㇑" d="M43.94,15.02c0.31,0.38,0.31,0.65,0.48,1.13c1.38,3.95,2.68,14.94,3.54,22.31"/>
			<path style="stroke: #74bf09;" id="kvg:06fd5-s5" kvg:type="㇕a" d="M45.37,15.55c10.7-1,29.55-2.19,37.54-3.02c2.94-0.31,4.44,1.78,4.29,2.87c-0.55,3.99-1.92,14.34-3.26,21"/>
			<path style="stroke: #34bf09;" id="kvg:06fd5-s6" kvg:type="㇐a" d="M47.36,26.27c3.49-0.39,35.61-2.74,38.5-2.9"/>
			<path style="stroke: #09bf1e;" id="kvg:06fd5-s7" kvg:type="㇐a" d="M48.51,36.38c7.71-0.42,24.29-1.7,34.93-2.39"/>
		</g>
		<g id="kvg:06fd5-g4" kvg:position="bottom">
			<g id="kvg:06fd5-g5" kvg:position="top">
				<g id="kvg:06fd5-g6" kvg:element="幺" kvg:position="left">
					<path style="stroke: #09bf5f;" id="kvg:06fd5-s8" kvg:type="㇜" d="M46.66,42.1c0.24,0.73,0.31,1.25-0.12,2.06c-1.79,3.34-3.29,6.76-5.72,8.46c-0.5,0.35-0.48,1.68,0,1.82c2.55,0.73,5.34,1.94,7.52,3.28"/>
					<path style="stroke: #09bf9f;" id="kvg:06fd5-s9" kvg:type="㇜" d="M58.48,45.71c0.25,0.45,0.35,1.93,0,2.41c-5.21,7.1-12.78,15.1-18.54,22.11c-0.81,0.99-0.5,1.51,0.5,1.2c4.22-1.26,12.2-3.39,17.62-4.59"/>
					<path style="stroke: #099fbf;" id="kvg:06fd5-s10" kvg:type="㇔" d="M55.83,61.8c1.98,2.28,5.13,10.39,5.62,13.94"/>
				</g>
				<g id="kvg:06fd5-g7" kvg:element="幺" kvg:position="right">
					<path style="stroke: #095fbf;" id="kvg:06fd5-s11" kvg:type="㇜" d="M75.66,39.1c0.24,0.73,0.31,1.25-0.12,2.06c-1.79,3.34-4.79,7.09-7.72,9.46c-0.47,0.38-0.48,1.68,0,1.82c2.55,0.73,6.84,0.94,9.02,2.28"/>
					<path style="stroke: #091ebf;" id="kvg:06fd5-s12" kvg:type="㇜" d="M85.48,43.71c0.25,0.45,0.35,1.93,0,2.41c-5.21,7.1-12.78,15.1-18.54,22.11c-0.81,0.99-0.5,1.51,0.5,1.2c4.22-1.26,16.2-4.39,21.62-5.59"/>
					<path style="stroke: #3409bf;" id="kvg:06fd5-s13" kvg:type="㇔" d="M83.33,57.55c3.4,2.42,8.77,9.93,9.62,13.69"/>
				</g>
			</g>
			<g id="kvg:06fd5-g8" kvg:element="灬" kvg:variant="true" kvg:original="火" kvg:position="bottom">
				<path style="stroke: #7409bf;" id="kvg:06fd5-s14" kvg:type="㇔" d="M39.64,84c0,5.25-4.52,13-5.7,14.5"/>
				<path style="stroke: #b409bf;" id="kvg:06fd5-s15" kvg:type="㇔" d="M53.92,82.08c2.48,2.76,4.83,10.34,5.45,14.63"/>
				<path style="stroke: #bf0989;" id="kvg:06fd5-s16" kvg:type="㇔" d="M69.78,80.58c2.74,2.63,7.08,10.8,7.77,14.88"/>
				<path style="stroke: #bf0949;" id="kvg:06fd5-s17" kvg:type="㇔" d="M85.48,78.83c3.18,2.93,8.22,12.07,9.02,16.63"/>
			</g>
		</g>
	</g>
</g>
</g>
<g id="kvg:StrokeNumbers_06fd5" style="font-size:8;fill:#808080" transform="scale(3.0,3.0)">
	<text style="fill: #bf0909;" transform="matrix(1 0 0 1 14.50 14.50)">1</text>
	<text style="fill: #bf4909;" transform="matrix(1 0 0 1 9.50 44.50)">2</text>
	<text style="fill: #bf8909;" transform="matrix(1 0 0 1 8.50 93.50)">3</text>
	<text style="fill: #b4bf09;" transform="matrix(1 0 0 1 37.50 21.50)">4</text>
	<text style="fill: #74bf09;" transform="matrix(1 0 0 1 47.50 12.50)">5</text>
	<text style="fill: #34bf09;" transform="matrix(1 0 0 1 50.50 23.50)">6</text>
	<text style="fill: #09bf1e;" transform="matrix(1 0 0 1 51.50 34.50)">7</text>
	<text style="fill: #09bf5f;" transform="matrix(1 0 0 1 39.50 43.50)">8</text>
	<text style="fill: #09bf9f;" transform="matrix(1 0 0 1 51.50 46.50)">9</text>
	<text style="fill: #099fbf;" transform="matrix(1 0 0 1 55.75 61.50)">10</text>
	<text style="fill: #095fbf;" transform="matrix(1 0 0 1 65.00 43.63)">11</text>
	<text style="fill: #091ebf;" transform="matrix(1 0 0 1 86.50 43.05)">12</text>
	<text style="fill: #3409bf;" transform="matrix(1 0 0 1 85.50 59.50)">13</text>
	<text style="fill: #7409bf;" transform="matrix(1 0 0 1 30.50 83.50)">14</text>
	<text style="fill: #b409bf;" transform="matrix(1 0 0 1 44.50 87.50)">15</text>
	<text style="fill: #bf0989;" transform="matrix(1 0 0 1 61.50 87.50)">16</text>
	<text style="fill: #bf0949;" transform="matrix(1 0 0 1 77.50 86.18)">17</text>
</g>
</svg>
