<?xml version="1.0" encoding="UTF-8"?>
<!--
This file has been modified from the original version by the kanji_colorize.py
script (available at http://github.com/cayennes/kanji-colorize) with these
settings:
    mode: spectrum
    saturation: 0.95
    value: 0.75
    image_size: 327
It remains under a Creative Commons-Attribution-Share Alike 3.0 License.

The original SVG has the following copyright:

Copyright (C) 2009/2010/2011 Ulrich Apel.
This work is distributed under the conditions of the Creative Commons
Attribution-Share Alike 3.0 Licence. This means you are free:
* to Share - to copy, distribute and transmit the work
* to Remix - to adapt the work

Under the following conditions:
* Attribution. You must attribute the work by stating your use of KanjiVG in
  your own copyright header and linking to KanjiVG's website
  (http://kanjivg.tagaini.net)
* Share Alike. If you alter, transform, or build upon this work, you may
  distribute the resulting work only under the same or similar license to this
  one.

See http://creativecommons.org/licenses/by-sa/3.0/ for more details.
-->
<!DOCTYPE svg PUBLIC "-//W3C//DTD SVG 1.0//EN" "http://www.w3.org/TR/2001/REC-SVG-20010904/DTD/svg10.dtd" [
<!ATTLIST g
xmlns:kvg CDATA #FIXED "http://kanjivg.tagaini.net"
kvg:element CDATA #IMPLIED
kvg:variant CDATA #IMPLIED
kvg:partial CDATA #IMPLIED
kvg:original CDATA #IMPLIED
kvg:part CDATA #IMPLIED
kvg:number CDATA #IMPLIED
kvg:tradForm CDATA #IMPLIED
kvg:radicalForm CDATA #IMPLIED
kvg:position CDATA #IMPLIED
kvg:radical CDATA #IMPLIED
kvg:phon CDATA #IMPLIED >
<!ATTLIST path
xmlns:kvg CDATA #FIXED "http://kanjivg.tagaini.net"
kvg:type CDATA #IMPLIED >
]>
<svg xmlns="http://www.w3.org/2000/svg" width="327" height = "327" viewBox="0 0 327 327">
<g id="kvg:StrokePaths_07015" style="fill:none;stroke:#000000;stroke-width:3;stroke-linecap:round;stroke-linejoin:round;" transform="scale(3.0,3.0)">
<g id="kvg:07015" kvg:element="瀕">
	<g id="kvg:07015-g1" kvg:element="氵" kvg:variant="true" kvg:original="水" kvg:position="left" kvg:radical="general">
		<path style="stroke: #bf0909;" id="kvg:07015-s1" kvg:type="㇔" d="M16.13,18c3.57,1.25,9.22,5.15,10.12,7.09"/>
		<path style="stroke: #bf4209;" id="kvg:07015-s2" kvg:type="㇔" d="M12.25,40c3.79,1.41,9.8,5.8,10.75,8"/>
		<path style="stroke: #bf7c09;" id="kvg:07015-s3" kvg:type="㇀" d="M11.25,88.71c1.5,1.31,3.31,1.36,4.25-0.25C18.25,83.75,21,78,23.5,72"/>
	</g>
	<g id="kvg:07015-g2" kvg:element="頻" kvg:position="right">
		<g id="kvg:07015-g3" kvg:element="歩" kvg:position="left">
			<g id="kvg:07015-g4" kvg:element="止" kvg:position="top">
				<g id="kvg:07015-g5" kvg:element="卜" kvg:original="ト">
					<path style="stroke: #bfb509;" id="kvg:07015-s4" kvg:type="㇑a" d="M47.09,14c0.87,0.42,1.41,1.94,1.58,2.81c0.18,0.87,0.31,21.59,0.17,27.05"/>
					<path style="stroke: #8fbf09;" id="kvg:07015-s5" kvg:type="㇐b/㇔" d="M49.27,29.41c5.69-0.74,3.1-0.89,9.09-1.42c1.39-0.12,1.74-0.24,2.62-0.04"/>
				</g>
				<path style="stroke: #56bf09;" id="kvg:07015-s6" kvg:type="㇑a" d="M36.89,25.48c0.88,0.42,1.41,1.94,1.59,2.81c0.18,0.87,0.57,12.21,0.43,17.67"/>
				<path style="stroke: #1cbf09;" id="kvg:07015-s7" kvg:type="㇐" d="M30.46,46.81c0.41,0.13,1.5,0.43,2.59,0.37c5.87-0.36,20.86-3.97,28.3-4.32c1.09-0.05,2.47,0.23,3.09,0.35"/>
			</g>
			<g id="kvg:07015-g6" kvg:element="少" kvg:position="bottom">
				<g id="kvg:07015-g7" kvg:element="小">
					<path style="stroke: #09bf2f;" id="kvg:07015-s8" kvg:type="㇚" d="M48.43,46.5c0.07,0.24,0.95,1.24,1.01,2.75c0.32,7.25-0.21,18.22-0.21,20.69c0,7.06-1.85,4.18-4.65,0.81"/>
					<path style="stroke: #09bf69;" id="kvg:07015-s9" kvg:type="㇒" d="M39.44,56c0.03,0.42,0.11,1.12-0.06,1.7c-1.24,4.23-6.49,12.4-10.75,16.3"/>
					<path style="stroke: #09bfa2;" id="kvg:07015-s10" kvg:type="㇒" d="M 62.646793,60.691896 c 0.08,0.69 0.06198,1.954256 -0.16,2.79 C 58.296269,79.258911 44.892145,89.671907 29.81,96"/>
				</g>
				<g id="kvg:07015-g8" kvg:element="丿">
				<path style="stroke: #09a2bf;" id="kvg:07015-s11" kvg:type="㇐" d="M66.3,20.53c0.67,0.49,1.91,0.55,2.59,0.49c8.68-0.82,20.4-2.6,26.87-3.24c1.12-0.11,2.56,0.23,3.13,0.48"/>
				</g>
			</g>
		</g>
		<g id="kvg:07015-g9" kvg:element="頁" kvg:position="right">
			<g id="kvg:07015-g10" kvg:position="top">
				<path style="stroke: #0969bf;" id="kvg:07015-s12" kvg:type="㇒" d="M81.8,22.07c0.01,0.28,0.03,0.73-0.02,1.14c-0.29,2.4-1.99,7.65-4.31,10.87"/>
					<path style="stroke: #092fbf;" id="kvg:07015-s13" kvg:type="㇑" d="M68.59,36.78c0.38,1,0.93,1.74,0.93,3.07c0,1.33-0.25,39.87-0.25,40.53"/>
			</g>
			<g id="kvg:07015-g11" kvg:element="貝" kvg:position="bottom">
				<g id="kvg:07015-g12" kvg:element="目" kvg:position="top">
					<path style="stroke: #1c09bf;" id="kvg:07015-s14" kvg:type="㇕a" d="M70.14,37.6c4.52-0.51,19.42-2.19,21.36-2.39c1.62-0.17,2.89,1.84,2.76,3.07c-0.17,1.56-0.36,39.68-0.36,40.67"/>
					<path style="stroke: #5609bf;" id="kvg:07015-s15" kvg:type="㇐a" d="M70.1,50.15c6.52-0.99,18.51-1.75,23.08-2.11"/>
					<path style="stroke: #8f09bf;" id="kvg:07015-s16" kvg:type="㇐a" d="M70.28,63.37c7.48-0.62,16.28-0.94,22.1-1.41"/>
					<path style="stroke: #bf09b5;" id="kvg:07015-s17" kvg:type="㇐a" d="M69.58,77.03c7.55-0.78,17.14-0.85,23.35-1.35"/>
					<path style="stroke: #bf097c;" id="kvg:07015-s18" kvg:type="㇒" d="M74.05,83.91c0.47,1.07-0.09,2.3-1.02,3.08c-2.79,2.36-11.56,7.21-17.14,10"/>
				</g>
				<g id="kvg:07015-g13" kvg:position="bottom">
					<path style="stroke: #bf0942;" id="kvg:07015-s19" kvg:type="㇔" d="M86.27,83.88c5.06,3.37,11.04,9.49,12.42,12.44"/>
				</g>
			</g>
		</g>
	</g>
</g>
</g>
<g id="kvg:StrokeNumbers_07015" style="font-size:8;fill:#808080" transform="scale(3.0,3.0)">
	<text style="fill: #bf0909;" transform="matrix(1 0 0 1 9.75 18.63)">1</text>
	<text style="fill: #bf4209;" transform="matrix(1 0 0 1 4.50 40.50)">2</text>
	<text style="fill: #bf7c09;" transform="matrix(1 0 0 1 3.50 92.50)">3</text>
	<text style="fill: #bfb509;" transform="matrix(1 0 0 1 38.50 14.50)">4</text>
	<text style="fill: #8fbf09;" transform="matrix(1 0 0 1 52.50 26.50)">5</text>
	<text style="fill: #56bf09;" transform="matrix(1 0 0 1 32.50 23.50)">6</text>
	<text style="fill: #1cbf09;" transform="matrix(1 0 0 1 26.75 45.50)">7</text>
	<text style="fill: #09bf2f;" transform="matrix(1 0 0 1 41.75 53.50)">8</text>
	<text style="fill: #09bf69;" transform="matrix(1 0 0 1 31.50 57.50)">9</text>
	<text style="fill: #09bfa2;" transform="matrix(1 0 0 1 54.62 57.85)">10</text>
	<text style="fill: #09a2bf;" transform="matrix(1 0 0 1 64.50 17.50)">11</text>
	<text style="fill: #0969bf;" transform="matrix(1 0 0 1 70.75 28.50)">12</text>
	<text style="fill: #092fbf;" transform="matrix(1 0 0 1 58.75 39.65)">13</text>
	<text style="fill: #1c09bf;" transform="matrix(1 0 0 1 67.50 34.50)">14</text>
	<text style="fill: #5609bf;" transform="matrix(1 0 0 1 73.46 46.50)">15</text>
	<text style="fill: #8f09bf;" transform="matrix(1 0 0 1 73.50 60.50)">16</text>
	<text style="fill: #bf09b5;" transform="matrix(1 0 0 1 73.47 74.35)">17</text>
	<text style="fill: #bf097c;" transform="matrix(1 0 0 1 61.75 87.50)">18</text>
	<text style="fill: #bf0942;" transform="matrix(1 0 0 1 79.50 90.50)">19</text>
</g>
</svg>
