<?xml version="1.0" encoding="UTF-8"?>
<!--
This file has been modified from the original version by the kanji_colorize.py
script (available at http://github.com/cayennes/kanji-colorize) with these
settings:
    mode: spectrum
    saturation: 0.95
    value: 0.75
    image_size: 327
It remains under a Creative Commons-Attribution-Share Alike 3.0 License.

The original SVG has the following copyright:

Copyright (C) 2009/2010/2011 Ulrich Apel.
This work is distributed under the conditions of the Creative Commons
Attribution-Share Alike 3.0 Licence. This means you are free:
* to Share - to copy, distribute and transmit the work
* to Remix - to adapt the work

Under the following conditions:
* Attribution. You must attribute the work by stating your use of KanjiVG in
  your own copyright header and linking to KanjiVG's website
  (http://kanjivg.tagaini.net)
* Share Alike. If you alter, transform, or build upon this work, you may
  distribute the resulting work only under the same or similar license to this
  one.

See http://creativecommons.org/licenses/by-sa/3.0/ for more details.
-->
<!DOCTYPE svg PUBLIC "-//W3C//DTD SVG 1.0//EN" "http://www.w3.org/TR/2001/REC-SVG-20010904/DTD/svg10.dtd" [
<!ATTLIST g
xmlns:kvg CDATA #FIXED "http://kanjivg.tagaini.net"
kvg:element CDATA #IMPLIED
kvg:variant CDATA #IMPLIED
kvg:partial CDATA #IMPLIED
kvg:original CDATA #IMPLIED
kvg:part CDATA #IMPLIED
kvg:number CDATA #IMPLIED
kvg:tradForm CDATA #IMPLIED
kvg:radicalForm CDATA #IMPLIED
kvg:position CDATA #IMPLIED
kvg:radical CDATA #IMPLIED
kvg:phon CDATA #IMPLIED >
<!ATTLIST path
xmlns:kvg CDATA #FIXED "http://kanjivg.tagaini.net"
kvg:type CDATA #IMPLIED >
]>
<svg xmlns="http://www.w3.org/2000/svg" width="327" height = "327" viewBox="0 0 327 327">
<g id="kvg:StrokePaths_0701d" style="fill:none;stroke:#000000;stroke-width:3;stroke-linecap:round;stroke-linejoin:round;" transform="scale(3.0,3.0)">
<g id="kvg:0701d" kvg:element="瀝">
	<g id="kvg:0701d-g1" kvg:element="氵" kvg:variant="true" kvg:original="水" kvg:position="left" kvg:radical="general">
		<path style="stroke: #bf0909;" id="kvg:0701d-s1" kvg:type="㇔" d="M14.63,17c4.63,1.6,11.96,6.6,13.12,9.09"/>
		<path style="stroke: #bf4209;" id="kvg:0701d-s2" kvg:type="㇔" d="M12.25,40.75c4.68,1.72,12.08,7.07,13.25,9.75"/>
		<path style="stroke: #bf7c09;" id="kvg:0701d-s3" kvg:type="㇀" d="M11.75,86.23c1.71,1.27,3.78,1.32,4.86-0.25c3.14-4.57,8.29-15.16,11.14-20.99"/>
	</g>
	<g id="kvg:0701d-g2" kvg:element="歴" kvg:variant="true" kvg:position="right">
		<g id="kvg:0701d-g3" kvg:element="厂" kvg:position="tare">
			<path style="stroke: #bfb509;" id="kvg:0701d-s4" kvg:type="㇐" d="M37.3,19.16c1.51,0.68,4.29,0.75,5.81,0.68c17.56-0.79,23.44-2.77,43.21-3.04c2.52-0.03,4.04,0.32,5.3,0.66"/>
			<path style="stroke: #8fbf09;" id="kvg:0701d-s5" kvg:type="㇒" d="M42.03,20.25c0.05,1.64-0.01,2.22-0.09,4.57C41,51.5,37.5,73,26.31,89.22"/>
		</g>
		<g id="kvg:0701d-g4" kvg:element="林" kvg:variant="true">
			<g id="kvg:0701d-g5" kvg:element="禾" kvg:position="left">
				<g id="kvg:0701d-g6" kvg:element="丿" kvg:position="top">
					<path style="stroke: #56bf09;" id="kvg:0701d-s6" kvg:type="㇒" d="M62.74,24c0.04,0.2,0.09,0.51-0.08,0.79c-1.01,1.66-6.78,5.31-14.68,7.55"/>
				</g>
				<g id="kvg:0701d-g7" kvg:element="木" kvg:position="bottom">
					<path style="stroke: #1cbf09;" id="kvg:0701d-s7" kvg:type="㇐" d="M46.06,39.15c0.31,0.15,1.55,0.47,2.38,0.45c5.32-0.1,8.82-1.1,15.19-1.82c0.82-0.09,1.86,0.18,2.38,0.33"/>
					<path style="stroke: #09bf2f;" id="kvg:0701d-s8" kvg:type="㇑" d="M56.41,32.52c0.27,0.22,0.43,0.99,0.49,1.44c0.05,0.44,0,22.78-0.05,25.54"/>
					<path style="stroke: #09bf69;" id="kvg:0701d-s9" kvg:type="㇒" d="M56.12,39.3c-2.42,5.87-6.25,11.78-12.02,15.08"/>
					<path style="stroke: #09bfa2;" id="kvg:0701d-s10" kvg:type="㇏" d="M58.01,43.19c2.75,1.22,5.91,3.51,7.17,6.23"/>
				</g>
			</g>
			<g id="kvg:0701d-g8" kvg:element="禾" kvg:position="right">
				<g id="kvg:0701d-g9" kvg:element="丿" kvg:position="top">
					<path style="stroke: #09a2bf;" id="kvg:0701d-s11" kvg:type="㇒" d="M88.53,22.5c0.04,0.17,0.09,0.45-0.08,0.7c-1.02,1.47-6.84,4.69-14.81,6.65"/>
				</g>
				<g id="kvg:0701d-g10" kvg:element="木" kvg:position="bottom">
					<path style="stroke: #0969bf;" id="kvg:0701d-s12" kvg:type="㇐" d="M70.18,37.73c0.33,0.09,1.67,0.33,2.55,0.27c3.99-0.27,13.42-1.53,20.18-1.78c0.89-0.03,2,0.11,2.55,0.19"/>
					<path style="stroke: #092fbf;" id="kvg:0701d-s13" kvg:type="㇑" d="M81.08,30.14c0.27,0.19,0.43,0.84,0.48,1.21c0.05,0.37,0,26.45-0.05,28.78"/>
					<path style="stroke: #1c09bf;" id="kvg:0701d-s14" kvg:type="㇒" d="M80.82,37.99C78.75,43.75,73.25,50.25,66,53.57"/>
					<path style="stroke: #5609bf;" id="kvg:0701d-s15" kvg:type="㇏" d="M81.39,38.41c2.11,3.34,8.11,11.09,11.75,13.64c0.77,0.54,1.21,0.97,1.86,1.16"/>
				</g>
			</g>
		</g>
		<g id="kvg:0701d-g11" kvg:element="止">
			<g id="kvg:0701d-g12" kvg:element="卜" kvg:original="ト">
				<path style="stroke: #8f09bf;" id="kvg:0701d-s16" kvg:type="㇑a" d="M66.32,60.75c0.83,0.47,1.33,2.1,1.5,3.04c0.17,0.93,0.45,20.62,0.28,26.46"/>
				<path style="stroke: #bf09b5;" id="kvg:0701d-s17" kvg:type="㇐b" d="M68.17,74.72c5.98-0.42,12.15-1.4,18.44-1.69c1.46-0.07,1.83-0.14,2.75,0"/>
			</g>
			<path style="stroke: #bf097c;" id="kvg:0701d-s18" kvg:type="㇑a" d="M51.43,69.01c0.8,0.45,1.28,2.02,1.44,2.91c0.16,0.9,0.33,13.8,0.18,19.41"/>
			<path style="stroke: #bf0942;" id="kvg:0701d-s19" kvg:type="㇐" d="M37.41,91.61c0.74,0.21,2.73,0.69,4.71,0.64C53.01,92,74.04,90,89.77,89.97c1.99,0,5.43,0.43,6.56,0.64"/>
		</g>
	</g>
</g>
</g>
<g id="kvg:StrokeNumbers_0701d" style="font-size:8;fill:#808080" transform="scale(3.0,3.0)">
	<text style="fill: #bf0909;" transform="matrix(1 0 0 1 8.50 17.63)">1</text>
	<text style="fill: #bf4209;" transform="matrix(1 0 0 1 4.50 41.50)">2</text>
	<text style="fill: #bf7c09;" transform="matrix(1 0 0 1 4.50 90.50)">3</text>
	<text style="fill: #bfb509;" transform="matrix(1 0 0 1 40.50 16.50)">4</text>
	<text style="fill: #8fbf09;" transform="matrix(1 0 0 1 33.50 28.50)">5</text>
	<text style="fill: #56bf09;" transform="matrix(1 0 0 1 54.50 26.50)">6</text>
	<text style="fill: #1cbf09;" transform="matrix(1 0 0 1 46.50 38.18)">7</text>
	<text style="fill: #09bf2f;" transform="matrix(1 0 0 1 60.50 35.10)">8</text>
	<text style="fill: #09bf69;" transform="matrix(1 0 0 1 46.50 47.03)">9</text>
	<text style="fill: #09bfa2;" transform="matrix(1 0 0 1 61.50 45.50)">10</text>
	<text style="fill: #09a2bf;" transform="matrix(1 0 0 1 77.25 24.88)">11</text>
	<text style="fill: #0969bf;" transform="matrix(1 0 0 1 69.50 36.50)">12</text>
	<text style="fill: #092fbf;" transform="matrix(1 0 0 1 84.50 33.73)">13</text>
	<text style="fill: #1c09bf;" transform="matrix(1 0 0 1 69.50 45.65)">14</text>
	<text style="fill: #5609bf;" transform="matrix(1 0 0 1 88.50 46.58)">15</text>
	<text style="fill: #8f09bf;" transform="matrix(1 0 0 1 56.50 67.50)">16</text>
	<text style="fill: #bf09b5;" transform="matrix(1 0 0 1 72.25 70.50)">17</text>
	<text style="fill: #bf097c;" transform="matrix(1 0 0 1 42.50 66.50)">18</text>
	<text style="fill: #bf0942;" transform="matrix(1 0 0 1 34.50 88.50)">19</text>
</g>
</svg>
