<?xml version="1.0" encoding="UTF-8"?>
<!--
This file has been modified from the original version by the kanji_colorize.py
script (available at http://github.com/cayennes/kanji-colorize) with these
settings:
    mode: spectrum
    saturation: 0.95
    value: 0.75
    image_size: 327
It remains under a Creative Commons-Attribution-Share Alike 3.0 License.

The original SVG has the following copyright:

Copyright (C) 2009/2010/2011 Ulrich Apel.
This work is distributed under the conditions of the Creative Commons
Attribution-Share Alike 3.0 Licence. This means you are free:
* to Share - to copy, distribute and transmit the work
* to Remix - to adapt the work

Under the following conditions:
* Attribution. You must attribute the work by stating your use of KanjiVG in
  your own copyright header and linking to KanjiVG's website
  (http://kanjivg.tagaini.net)
* Share Alike. If you alter, transform, or build upon this work, you may
  distribute the resulting work only under the same or similar license to this
  one.

See http://creativecommons.org/licenses/by-sa/3.0/ for more details.
-->
<!DOCTYPE svg PUBLIC "-//W3C//DTD SVG 1.0//EN" "http://www.w3.org/TR/2001/REC-SVG-20010904/DTD/svg10.dtd" [
<!ATTLIST g
xmlns:kvg CDATA #FIXED "http://kanjivg.tagaini.net"
kvg:element CDATA #IMPLIED
kvg:variant CDATA #IMPLIED
kvg:partial CDATA #IMPLIED
kvg:original CDATA #IMPLIED
kvg:part CDATA #IMPLIED
kvg:number CDATA #IMPLIED
kvg:tradForm CDATA #IMPLIED
kvg:radicalForm CDATA #IMPLIED
kvg:position CDATA #IMPLIED
kvg:radical CDATA #IMPLIED
kvg:phon CDATA #IMPLIED >
<!ATTLIST path
xmlns:kvg CDATA #FIXED "http://kanjivg.tagaini.net"
kvg:type CDATA #IMPLIED >
]>
<svg xmlns="http://www.w3.org/2000/svg" width="327" height = "327" viewBox="0 0 327 327">
<g id="kvg:StrokePaths_07051" style="fill:none;stroke:#000000;stroke-width:3;stroke-linecap:round;stroke-linejoin:round;" transform="scale(3.0,3.0)">
<g id="kvg:07051" kvg:element="灑">
	<g id="kvg:07051-g1" kvg:element="氵" kvg:variant="true" kvg:original="水" kvg:position="left" kvg:radical="general">
		<path style="stroke: #bf0909;" id="kvg:07051-s1" kvg:type="㇔" d="M14.63,13.5c4.45,1.78,11.5,7.32,12.62,10.09"/>
		<path style="stroke: #bf3b09;" id="kvg:07051-s2" kvg:type="㇔" d="M14.25,38.75C18.4,40.38,24.96,45.46,26,48"/>
		<path style="stroke: #bf6c09;" id="kvg:07051-s3" kvg:type="㇀" d="M12.25,86.73c1.71,1.27,3.78,1.32,4.86-0.25c3.14-4.57,6.79-12.66,9.64-18.49"/>
	</g>
	<g id="kvg:07051-g2" kvg:element="麗" kvg:position="right">
		<g id="kvg:07051-g3" kvg:position="top">
			<g id="kvg:07051-g4" kvg:position="left">
				<g id="kvg:07051-g5" kvg:element="一">
					<path style="stroke: #bf9e09;" id="kvg:07051-s4" kvg:type="㇐" d="M36.61,14.95c0.76,0.37,2.16,0.41,2.93,0.37c4.4-0.26,11.21-1.56,16.44-2.26c1.26-0.17,2.04,0.17,2.68,0.36"/>
				</g>
				<path style="stroke: #aebf09;" id="kvg:07051-s5" kvg:type="㇑" d="M38.3,22.35c0.24,0.57,0.48,0.85,0.48,1.61c0,0.76,0.92,14.52,1,15.28"/>
				<path style="stroke: #7dbf09;" id="kvg:07051-s6" kvg:type="㇕" d="M38.68,23.9c1.34-0.1,16.92-2.8,18.14-2.92c1.02-0.1,1.68,1.05,1.6,1.61c-0.16,1.14-0.31,14.61-0.31,15.18"/>
				<path style="stroke: #4bbf09;" id="kvg:07051-s7" kvg:type="㇔" d="M45.25,28.65c1.99,1.16,5.14,4.78,5.64,6.59"/>
			</g>
			<g id="kvg:07051-g6" kvg:position="right">
				<g id="kvg:07051-g7" kvg:element="一">
					<path style="stroke: #1abf09;" id="kvg:07051-s8" kvg:type="㇐" d="M67.36,13.53c0.76,0.37,2.16,0.35,2.93,0.37C75.75,14,84,13,89.23,12.64c1.27-0.09,2.04,0.17,2.68,0.36"/>
				</g>
				<path style="stroke: #09bf2a;" id="kvg:07051-s9" kvg:type="㇑" d="M68.83,22.43c0.24,0.57,0.48,0.85,0.48,1.61c0,0.76,1.42,12.52,1.5,13.28"/>
				<path style="stroke: #09bf5c;" id="kvg:07051-s10" kvg:type="㇕" d="M69.7,23.49c1.34-0.1,17.14-2.3,18.36-2.42c1.02-0.1,1.67,1.05,1.6,1.61c-0.16,1.14-0.31,13.11-0.31,13.68"/>
				<path style="stroke: #09bf8d;" id="kvg:07051-s11" kvg:type="㇔" d="M76.75,27.73c1.73,1.08,4.46,4.42,4.89,6.09"/>
			</g>
		</g>
		<g id="kvg:07051-g8" kvg:element="鹿" kvg:position="bottom">
			<g id="kvg:07051-g9" kvg:element="广">
				<path style="stroke: #09bfbf;" id="kvg:07051-s12" kvg:type="㇑a" d="M64.02,37.76c0.56,0.26,1.76,1.93,1.87,2.45c0.11,0.52,0.06,2.45-0.05,5.67"/>
				<g id="kvg:07051-g10" kvg:element="厂">
					<path style="stroke: #098dbf;" id="kvg:07051-s13" kvg:type="㇐" d="M37.86,47.54c1.54,0.49,4.36,0.57,5.89,0.49c16-0.83,30.55-2.59,44.68-3.54c2.56-0.17,4.1,0.24,5.38,0.48"/>
					<path style="stroke: #095cbf;" id="kvg:07051-s14" kvg:type="㇒" d="M40.61,48.39c0.03,1.06,0.07,2.75-0.07,4.28c-0.8,9.02-3.11,30.89-11.74,40.6"/>
				</g>
			</g>
			<path style="stroke: #092abf;" id="kvg:07051-s15" kvg:type="㇕" d="M45.18,57.57c1.49,0.42,3.75,1.2,5.3,1.03c10.66-1.17,31.21-3.3,34.21-3.48c2.24-0.13,3.03,1.13,2.63,2.64c-0.75,2.78-1.24,4.38-2.25,7.36"/>
			<path style="stroke: #1a09bf;" id="kvg:07051-s16" kvg:type="㇑" d="M56.1,52.18c0.65,0.28,1.05,1.73,1.18,2.29c0.13,0.56,0.38,8.53,0.38,13.03"/>
			<path style="stroke: #4b09bf;" id="kvg:07051-s17" kvg:type="㇑" d="M70.69,50.56c0.65,0.28,1.18,1.72,1.18,2.29c0,3.66,0.16,8.16,0.16,13.46"/>
			<path style="stroke: #7d09bf;" id="kvg:07051-s18" kvg:type="㇐" d="M44.64,67.77c1.23,0.45,3.49,0.57,4.72,0.45C57.22,67.44,76,66,84.59,65.34c2.05-0.16,3.79,0.21,4.81,0.44"/>
			<g id="kvg:07051-g11" kvg:element="比">
				<path style="stroke: #ae09bf;" id="kvg:07051-s19" kvg:type="㇐" d="M48.72,81.89c4.61-0.24,9.93-1.7,13.94-2.11c1.18-0.12,1.93-0.12,2.53-0.05"/>
				<path style="stroke: #bf099e;" id="kvg:07051-s20" kvg:type="㇙" d="M47.1,74.33c0.66,0.35,1.24,1.39,1.24,1.88c0,1.31-0.21,16.27-0.21,17.93c0,1.84,1.35,1.57,2.68,0.99c3.47-1.51,5.91-2.73,10.08-5.13"/>
				<g id="kvg:07051-g12" kvg:element="匕">
					<path style="stroke: #bf096c;" id="kvg:07051-s21" kvg:type="㇐" d="M85.33,72.9c0.17,1.1,0.2,1.82-0.35,2.38c-1.72,1.72-8.17,5.39-13.21,7.7"/>
					<path style="stroke: #bf093b;" id="kvg:07051-s22" kvg:type="㇟" d="M69.65,72.02c0.76,0.38,1.05,1.17,1.05,2.12c0,1.25-0.06,13.84-0.08,15.31c-0.09,5.35,2.62,6.89,11.66,6.89c10.47,0,11.5-0.84,11.5-10.17"/>
				</g>
			</g>
		</g>
	</g>
</g>
</g>
<g id="kvg:StrokeNumbers_07051" style="font-size:8;fill:#808080" transform="scale(3.0,3.0)">
	<text style="fill: #bf0909;" transform="matrix(1 0 0 1 8.50 14.50)">1</text>
	<text style="fill: #bf3b09;" transform="matrix(1 0 0 1 5.50 38.50)">2</text>
	<text style="fill: #bf6c09;" transform="matrix(1 0 0 1 4.50 89.50)">3</text>
	<text style="fill: #bf9e09;" transform="matrix(1 0 0 1 42.25 9.40)">4</text>
	<text style="fill: #aebf09;" transform="matrix(1 0 0 1 30.50 27.50)">5</text>
	<text style="fill: #7dbf09;" transform="matrix(1 0 0 1 40.50 21.50)">6</text>
	<text style="fill: #4bbf09;" transform="matrix(1 0 0 1 41.50 36.50)">7</text>
	<text style="fill: #1abf09;" transform="matrix(1 0 0 1 69.25 11.85)">8</text>
	<text style="fill: #09bf2a;" transform="matrix(1 0 0 1 62.50 27.50)">9</text>
	<text style="fill: #09bf5c;" transform="matrix(1 0 0 1 70.75 21.50)">10</text>
	<text style="fill: #09bf8d;" transform="matrix(1 0 0 1 72.25 35.63)">11</text>
	<text style="fill: #09bfbf;" transform="matrix(1 0 0 1 55.50 43.80)">12</text>
	<text style="fill: #098dbf;" transform="matrix(1 0 0 1 37.50 45.48)">13</text>
	<text style="fill: #095cbf;" transform="matrix(1 0 0 1 32.00 54.15)">14</text>
	<text style="fill: #092abf;" transform="matrix(1 0 0 1 44.50 55.83)">15</text>
	<text style="fill: #1a09bf;" transform="matrix(1 0 0 1 59.00 54.50)">16</text>
	<text style="fill: #4b09bf;" transform="matrix(1 0 0 1 74.00 53.18)">17</text>
	<text style="fill: #7d09bf;" transform="matrix(1 0 0 1 43.50 65.50)">18</text>
	<text style="fill: #ae09bf;" transform="matrix(1 0 0 1 50.50 78.50)">19</text>
	<text style="fill: #bf099e;" transform="matrix(1 0 0 1 38.50 82.50)">20</text>
	<text style="fill: #bf096c;" transform="matrix(1 0 0 1 77.50 73.50)">21</text>
	<text style="fill: #bf093b;" transform="matrix(1 0 0 1 60.50 75.88)">22</text>
</g>
</svg>
