<?xml version="1.0" encoding="UTF-8"?>
<!--
This file has been modified from the original version by the kanji_colorize.py
script (available at http://github.com/cayennes/kanji-colorize) with these
settings:
    mode: spectrum
    saturation: 0.95
    value: 0.75
    image_size: 327
It remains under a Creative Commons-Attribution-Share Alike 3.0 License.

The original SVG has the following copyright:

Copyright (C) 2009/2010/2011 Ulrich Apel.
This work is distributed under the conditions of the Creative Commons
Attribution-Share Alike 3.0 Licence. This means you are free:
* to Share - to copy, distribute and transmit the work
* to Remix - to adapt the work

Under the following conditions:
* Attribution. You must attribute the work by stating your use of KanjiVG in
  your own copyright header and linking to KanjiVG's website
  (http://kanjivg.tagaini.net)
* Share Alike. If you alter, transform, or build upon this work, you may
  distribute the resulting work only under the same or similar license to this
  one.

See http://creativecommons.org/licenses/by-sa/3.0/ for more details.
-->
<!DOCTYPE svg PUBLIC "-//W3C//DTD SVG 1.0//EN" "http://www.w3.org/TR/2001/REC-SVG-20010904/DTD/svg10.dtd" [
<!ATTLIST g
xmlns:kvg CDATA #FIXED "http://kanjivg.tagaini.net"
kvg:element CDATA #IMPLIED
kvg:variant CDATA #IMPLIED
kvg:partial CDATA #IMPLIED
kvg:original CDATA #IMPLIED
kvg:part CDATA #IMPLIED
kvg:number CDATA #IMPLIED
kvg:tradForm CDATA #IMPLIED
kvg:radicalForm CDATA #IMPLIED
kvg:position CDATA #IMPLIED
kvg:radical CDATA #IMPLIED
kvg:phon CDATA #IMPLIED >
<!ATTLIST path
xmlns:kvg CDATA #FIXED "http://kanjivg.tagaini.net"
kvg:type CDATA #IMPLIED >
]>
<svg xmlns="http://www.w3.org/2000/svg" width="327" height = "327" viewBox="0 0 327 327">
<g id="kvg:StrokePaths_070ac" style="fill:none;stroke:#000000;stroke-width:3;stroke-linecap:round;stroke-linejoin:round;" transform="scale(3.0,3.0)">
<g id="kvg:070ac" kvg:element="炬">
	<g id="kvg:070ac-g1" kvg:element="火" kvg:position="left" kvg:radical="general">
		<path style="stroke: #bf0909;" id="kvg:070ac-s1" kvg:type="㇔" d="M13.99,36.75c2.05,3.93,5.03,15.07,5.59,19"/>
		<path style="stroke: #bf8209;" id="kvg:070ac-s2" kvg:type="㇒" d="M42.03,31.25c0.76,0.77,0.61,2.28-0.08,3.47c-0.69,1.19-7.27,10-10.72,12.78"/>
		<path style="stroke: #82bf09;" id="kvg:070ac-s3" kvg:type="㇒" d="M27.75,15.75c0.76,0.75,1.52,1.75,1.53,3c0.22,51.5-3.78,60-15.78,74.75"/>
		<path style="stroke: #09bf09;" id="kvg:070ac-s4" kvg:type="㇔/㇏" d="M29.5,66.5c4.26,2.73,9.63,11.38,10.75,15.25"/>
	</g>
	<g id="kvg:070ac-g2" kvg:element="巨" kvg:position="right">
		<g id="kvg:070ac-g3" kvg:element="匚" kvg:part="1" kvg:variant="true">
			<path style="stroke: #09bf82;" id="kvg:070ac-s5" kvg:type="㇑" d="M51.04,20.76c0.97,0.43,1.56,1.94,1.75,2.8c0.2,0.86,0,61.81-0.2,67.19"/>
		</g>
		<g id="kvg:070ac-g4" kvg:element="二" kvg:part="1">
			<path style="stroke: #0982bf;" id="kvg:070ac-s6" kvg:type="㇐" d="M52.51,21.88c7.75-0.49,27.72-2.28,36.83-3.19c2.7-0.27,4.37-0.16,5.73,0.02"/>
		</g>
		<path style="stroke: #0909bf;" id="kvg:070ac-s7" kvg:type="㇕" d="M53.39,45.16c15.39-1.52,22.46-2.41,33.16-3.24c2.62-0.2,4.05,1.39,3.49,3.98C89.16,50,88,58,87.26,63.49"/>
		<path style="stroke: #8209bf;" id="kvg:070ac-s8" kvg:type="㇐" d="M52.98,66.27c6.43-0.64,30.93-2.22,36.98-2.61"/>
		<g id="kvg:070ac-g5" kvg:element="二" kvg:part="2">
			<g id="kvg:070ac-g6" kvg:element="匚" kvg:part="2" kvg:variant="true">
				<path style="stroke: #bf0982;" id="kvg:070ac-s9" kvg:type="㇐" d="M 52.868333,89.525625 c 1.74,0.34 2.86,0.57 5.23,0.35 6.6975,-1.032917 21.130833,-3.641875 29.874792,-2.966458 3.259997,-0.1 5.229997,0.29 6.859997,0.53"/>
			</g>
		</g>
	</g>
</g>
</g>
<g id="kvg:StrokeNumbers_070ac" style="font-size:8;fill:#808080" transform="scale(3.0,3.0)">
	<text style="fill: #bf0909;" transform="matrix(1 0 0 1 7.85 35.50)">1</text>
	<text style="fill: #bf8209;" transform="matrix(1 0 0 1 34.50 29.50)">2</text>
	<text style="fill: #82bf09;" transform="matrix(1 0 0 1 18.71 16.50)">3</text>
	<text style="fill: #09bf09;" transform="matrix(1 0 0 1 32.54 65.85)">4</text>
	<text style="fill: #09bf82;" transform="matrix(1 0 0 1 45.50 31.50)">5</text>
	<text style="fill: #0982bf;" transform="matrix(1 0 0 1 54.50 17.50)">6</text>
	<text style="fill: #0909bf;" transform="matrix(1 0 0 1 57.50 41.50)">7</text>
	<text style="fill: #8209bf;" transform="matrix(1 0 0 1 57.50 62.10)">8</text>
	<text style="fill: #bf0982;" transform="matrix(1 0 0 1 57.50 87.03)">9</text>
</g>
</svg>
