<?xml version="1.0" encoding="UTF-8"?>
<!--
This file has been modified from the original version by the kanji_colorize.py
script (available at http://github.com/cayennes/kanji-colorize) with these
settings:
    mode: spectrum
    saturation: 0.95
    value: 0.75
    image_size: 327
It remains under a Creative Commons-Attribution-Share Alike 3.0 License.

The original SVG has the following copyright:

Copyright (C) 2009/2010/2011 Ulrich Apel.
This work is distributed under the conditions of the Creative Commons
Attribution-Share Alike 3.0 Licence. This means you are free:
* to Share - to copy, distribute and transmit the work
* to Remix - to adapt the work

Under the following conditions:
* Attribution. You must attribute the work by stating your use of KanjiVG in
  your own copyright header and linking to KanjiVG's website
  (http://kanjivg.tagaini.net)
* Share Alike. If you alter, transform, or build upon this work, you may
  distribute the resulting work only under the same or similar license to this
  one.

See http://creativecommons.org/licenses/by-sa/3.0/ for more details.
-->
<!DOCTYPE svg PUBLIC "-//W3C//DTD SVG 1.0//EN" "http://www.w3.org/TR/2001/REC-SVG-20010904/DTD/svg10.dtd" [
<!ATTLIST g
xmlns:kvg CDATA #FIXED "http://kanjivg.tagaini.net"
kvg:element CDATA #IMPLIED
kvg:variant CDATA #IMPLIED
kvg:partial CDATA #IMPLIED
kvg:original CDATA #IMPLIED
kvg:part CDATA #IMPLIED
kvg:number CDATA #IMPLIED
kvg:tradForm CDATA #IMPLIED
kvg:radicalForm CDATA #IMPLIED
kvg:position CDATA #IMPLIED
kvg:radical CDATA #IMPLIED
kvg:phon CDATA #IMPLIED >
<!ATTLIST path
xmlns:kvg CDATA #FIXED "http://kanjivg.tagaini.net"
kvg:type CDATA #IMPLIED >
]>
<svg xmlns="http://www.w3.org/2000/svg" width="327" height = "327" viewBox="0 0 327 327">
<g id="kvg:StrokePaths_070fd" style="fill:none;stroke:#000000;stroke-width:3;stroke-linecap:round;stroke-linejoin:round;" transform="scale(3.0,3.0)">
<g id="kvg:070fd" kvg:element="烽">
	<g id="kvg:070fd-g1" kvg:element="火" kvg:position="left" kvg:radical="general">
		<path style="stroke: #bf0909;" id="kvg:070fd-s1" kvg:type="㇔" d="M11.74,37.25c2.88,3.72,7.06,14.28,7.84,18"/>
		<path style="stroke: #bf6c09;" id="kvg:070fd-s2" kvg:type="㇒" d="M41.53,30.25c0.76,0.77,0.68,2.33-0.08,3.47c-1.7,2.53-7.27,11.5-10.72,14.28"/>
		<path style="stroke: #aebf09;" id="kvg:070fd-s3" kvg:type="㇒" d="M27.25,14.25c0.76,0.75,1.02,2.25,1.03,3.5C28.5,69.25,24.5,82.5,12,95.5"/>
		<path style="stroke: #4bbf09;" id="kvg:070fd-s4" kvg:type="㇔/㇏" d="M28.75,67c4.55,3,10.3,12.5,11.5,16.75"/>
	</g>
	<g id="kvg:070fd-g2" kvg:position="right">
		<g id="kvg:070fd-g3" kvg:element="夂">
			<path style="stroke: #09bf2a;" id="kvg:070fd-s5" kvg:type="㇒" d="M59.58,10.25c0.04,0.58,0.07,1.51-0.07,2.34c-0.82,4.94-5.54,15.78-12.01,22.42"/>
			<path style="stroke: #09bf8d;" id="kvg:070fd-s6" kvg:type="㇇" d="M60.76,18.99c0.43,0.05,1.54,0.51,2.5,0.39c2.88-0.34,9.69-1.73,13.81-2.8c2.83-0.73,3.63,0.83,2.91,2.83c-3.96,10.91-22.3,31.73-39.95,37.34"/>
			<path style="stroke: #098dbf;" id="kvg:070fd-s7" kvg:type="㇏" d="M54.03,28.82c5.24,3.7,29.01,17.77,36.07,21.16c2.11,1.01,3.81,1.5,5.87,1.8"/>
		</g>
		<g id="kvg:070fd-g4" kvg:element="三">
			<g id="kvg:070fd-g5" kvg:element="一" kvg:position="top">
				<path style="stroke: #092abf;" id="kvg:070fd-s8" kvg:type="㇐" d="M53.3,57.15c0.81,0.37,2.29,0.41,3.1,0.37c6.35-0.27,15.6-1.27,23.4-2.26c1.34-0.17,2.16,0.18,2.83,0.36"/>
			</g>
			<g id="kvg:070fd-g6" kvg:position="bottom">
				<g id="kvg:070fd-g7" kvg:element="一">
					<path style="stroke: #4b09bf;" id="kvg:070fd-s9" kvg:type="㇐" d="M50.3,68.41c1.24,0.37,3.52,0.46,4.75,0.37C69.4,67.75,71.32,67,83.29,66c2.05-0.17,3.31,0.18,4.34,0.37"/>
				</g>
				<g id="kvg:070fd-g8" kvg:element="一">
					<path style="stroke: #ae09bf;" id="kvg:070fd-s10" kvg:type="㇐" d="M45.8,79.75c1.35,0.62,3.83,0.74,5.17,0.62c12.27-1.12,28.77-2.62,39.42-2.95c2.25-0.07,3.6,0.29,4.72,0.61"/>
				</g>
			</g>
		</g>
		<g id="kvg:070fd-g9" kvg:element="丨">
			<path style="stroke: #bf096c;" id="kvg:070fd-s11" kvg:type="㇑" d="M67.08,47.5c0.67,0.39,1.71,2.25,1.71,3.74c0,8.26,0.28,38.01,0.28,48.61"/>
		</g>
	</g>
</g>
</g>
<g id="kvg:StrokeNumbers_070fd" style="font-size:8;fill:#808080" transform="scale(3.0,3.0)">
	<text style="fill: #bf0909;" transform="matrix(1 0 0 1 5.50 36.50)">1</text>
	<text style="fill: #bf6c09;" transform="matrix(1 0 0 1 32.50 28.85)">2</text>
	<text style="fill: #aebf09;" transform="matrix(1 0 0 1 18.71 14.50)">3</text>
	<text style="fill: #4bbf09;" transform="matrix(1 0 0 1 31.50 66.50)">4</text>
	<text style="fill: #09bf2a;" transform="matrix(1 0 0 1 51.50 10.50)">5</text>
	<text style="fill: #09bf8d;" transform="matrix(1 0 0 1 65.25 15.50)">6</text>
	<text style="fill: #098dbf;" transform="matrix(1 0 0 1 59.50 29.50)">7</text>
	<text style="fill: #092abf;" transform="matrix(1 0 0 1 46.50 60.50)">8</text>
	<text style="fill: #4b09bf;" transform="matrix(1 0 0 1 43.50 69.50)">9</text>
	<text style="fill: #ae09bf;" transform="matrix(1 0 0 1 43.50 77.50)">10</text>
	<text style="fill: #bf096c;" transform="matrix(1 0 0 1 70 52)">11</text>
</g>
</svg>
