<?xml version="1.0" encoding="UTF-8"?>
<!--
This file has been modified from the original version by the kanji_colorize.py
script (available at http://github.com/cayennes/kanji-colorize) with these
settings:
    mode: spectrum
    saturation: 0.95
    value: 0.75
    image_size: 327
It remains under a Creative Commons-Attribution-Share Alike 3.0 License.

The original SVG has the following copyright:

Copyright (C) 2009/2010/2011 Ulrich Apel.
This work is distributed under the conditions of the Creative Commons
Attribution-Share Alike 3.0 Licence. This means you are free:
* to Share - to copy, distribute and transmit the work
* to Remix - to adapt the work

Under the following conditions:
* Attribution. You must attribute the work by stating your use of KanjiVG in
  your own copyright header and linking to KanjiVG's website
  (http://kanjivg.tagaini.net)
* Share Alike. If you alter, transform, or build upon this work, you may
  distribute the resulting work only under the same or similar license to this
  one.

See http://creativecommons.org/licenses/by-sa/3.0/ for more details.
-->
<!DOCTYPE svg PUBLIC "-//W3C//DTD SVG 1.0//EN" "http://www.w3.org/TR/2001/REC-SVG-20010904/DTD/svg10.dtd" [
<!ATTLIST g
xmlns:kvg CDATA #FIXED "http://kanjivg.tagaini.net"
kvg:element CDATA #IMPLIED
kvg:variant CDATA #IMPLIED
kvg:partial CDATA #IMPLIED
kvg:original CDATA #IMPLIED
kvg:part CDATA #IMPLIED
kvg:number CDATA #IMPLIED
kvg:tradForm CDATA #IMPLIED
kvg:radicalForm CDATA #IMPLIED
kvg:position CDATA #IMPLIED
kvg:radical CDATA #IMPLIED
kvg:phon CDATA #IMPLIED >
<!ATTLIST path
xmlns:kvg CDATA #FIXED "http://kanjivg.tagaini.net"
kvg:type CDATA #IMPLIED >
]>
<svg xmlns="http://www.w3.org/2000/svg" width="327" height = "327" viewBox="0 0 327 327">
<g id="kvg:StrokePaths_07188" style="fill:none;stroke:#000000;stroke-width:3;stroke-linecap:round;stroke-linejoin:round;" transform="scale(3.0,3.0)">
<g id="kvg:07188" kvg:element="熈">
	<g id="kvg:07188-g1" kvg:position="top">
		<g id="kvg:07188-g2" kvg:element="丿">
			<path style="stroke: #bf0909;" id="kvg:07188-s1" kvg:type="㇒" d="M24.23,15.75c0.48,1.43,1.16,2.55,1.16,4.33c0,16.28-1.89,35.92-14.34,47.64"/>
		</g>
		<g id="kvg:07188-g3" kvg:element="臣">
			<path style="stroke: #bf5209;" id="kvg:07188-s2" kvg:type="㇑" d="M35.37,14.75c1.09,0.5,1.74,2.25,1.96,3.25c0.22,1,0,41.25-0.22,47.5"/>
			<path style="stroke: #bf9a09;" id="kvg:07188-s3" kvg:type="㇐b" d="M37.25,16.5c0.63,0.29,1.78,0.32,2.41,0.29C44.5,16.5,53,16,59.05,15.37c1.04-0.11,2.18,0.14,2.7,0.28"/>
			<path style="stroke: #9abf09;" id="kvg:07188-s4" kvg:type="㇑a" d="M48.35,17.25c0.58,0.27,0.93,1.2,1.04,1.73c0.12,0.53,0,8.45-0.12,11.77"/>
			<path style="stroke: #52bf09;" id="kvg:07188-s5" kvg:type="㇕b" d="M37.91,32.16c7.59-0.66,16.2-1.52,20.26-1.94c1.48-0.15,2.37,0.91,2.16,1.81c-0.88,3.74-1.4,7.25-2.71,12.42"/>
			<path style="stroke: #09bf09;" id="kvg:07188-s6" kvg:type="㇐b" d="M37.72,46.95c4.76-0.48,15.33-1.3,21.87-2.03"/>
			<path style="stroke: #09bf52;" id="kvg:07188-s7" kvg:type="㇑a" d="M48.35,47.25c0.58,0.27,0.93,1.2,1.04,1.73c0.12,0.53,0,8.95-0.12,12.27"/>
			<path style="stroke: #09bf9a;" id="kvg:07188-s8" kvg:type="㇐b" d="M37.25,63c0.63,0.29,1.78,0.32,2.41,0.29C44.5,63,54.5,62,60.55,61.37c1.04-0.11,2.18,0.14,2.7,0.28"/>
		</g>
		<g id="kvg:07188-g4" kvg:element="巳">
			<g id="kvg:07188-g5" kvg:element="己" kvg:variant="true">
				<path style="stroke: #099abf;" id="kvg:07188-s9" kvg:type="㇕" d="M67,14.99c1.19,0.89,2.21,0.89,3.95,0.6c3.54-0.6,15.24-1.5,16.32-1.61c1.43-0.15,3.05,0.48,2.54,2.79c-0.15,0.69-2.11,11.86-3.11,18.46"/>
				<path style="stroke: #0952bf;" id="kvg:07188-s10" kvg:type="㇐" d="M70.25,36.68c2.75,0,13.86-1.03,19.21-1.33"/>
				<path style="stroke: #0909bf;" id="kvg:07188-s11" kvg:type="㇟" d="M69.36,16.3c-0.02,4.9,0.09,30.21,0.09,34.65C69.45,61,71,62,82.69,62c12.06,0,12.88-2,12.88-8.22"/>
			</g>
		</g>
	</g>
	<g id="kvg:07188-g6" kvg:element="灬" kvg:variant="true" kvg:original="火" kvg:position="bottom" kvg:radical="general">
		<path style="stroke: #5209bf;" id="kvg:07188-s12" kvg:type="㇔" d="M22.5,76.75c0,6.43-6.74,15.91-8.5,17.75"/>
		<path style="stroke: #9a09bf;" id="kvg:07188-s13" kvg:type="㇔" d="M38.67,75.62c2.59,3.44,4.53,12.85,4.8,18.16"/>
		<path style="stroke: #bf099a;" id="kvg:07188-s14" kvg:type="㇔" d="M60.52,75.01c2.94,3.32,7.1,13.59,7.41,18.71"/>
		<path style="stroke: #bf0952;" id="kvg:07188-s15" kvg:type="㇔" d="M80.52,72.76c4.89,3.77,12.04,15.42,12.76,21.21"/>
	</g>
</g>
</g>
<g id="kvg:StrokeNumbers_07188" style="font-size:8;fill:#808080" transform="scale(3.0,3.0)">
	<text style="fill: #bf0909;" transform="matrix(1 0 0 1 16.50 16.63)">1</text>
	<text style="fill: #bf5209;" transform="matrix(1 0 0 1 30.50 23.50)">2</text>
	<text style="fill: #bf9a09;" transform="matrix(1 0 0 1 40.50 13.50)">3</text>
	<text style="fill: #9abf09;" transform="matrix(1 0 0 1 52.50 24.50)">4</text>
	<text style="fill: #52bf09;" transform="matrix(1 0 0 1 40.50 28.50)">5</text>
	<text style="fill: #09bf09;" transform="matrix(1 0 0 1 40.50 43.50)">6</text>
	<text style="fill: #09bf52;" transform="matrix(1 0 0 1 52.50 54.50)">7</text>
	<text style="fill: #09bf9a;" transform="matrix(1 0 0 1 40.50 59.50)">8</text>
	<text style="fill: #099abf;" transform="matrix(1 0 0 1 69.50 12.50)">9</text>
	<text style="fill: #0952bf;" transform="matrix(1 0 0 1 73.50 33.50)">10</text>
	<text style="fill: #0909bf;" transform="matrix(1 0 0 1 59.50 24.50)">11</text>
	<text style="fill: #5209bf;" transform="matrix(1 0 0 1 13.50 76.50)">12</text>
	<text style="fill: #9a09bf;" transform="matrix(1 0 0 1 28.50 78.50)">13</text>
	<text style="fill: #bf099a;" transform="matrix(1 0 0 1 50.25 77.50)">14</text>
	<text style="fill: #bf0952;" transform="matrix(1 0 0 1 69.50 75.50)">15</text>
</g>
</svg>
