<?xml version="1.0" encoding="UTF-8"?>
<!--
This file has been modified from the original version by the kanji_colorize.py
script (available at http://github.com/cayennes/kanji-colorize) with these
settings:
    mode: spectrum
    saturation: 0.95
    value: 0.75
    image_size: 327
It remains under a Creative Commons-Attribution-Share Alike 3.0 License.

The original SVG has the following copyright:

Copyright (C) 2009/2010/2011 Ulrich Apel.
This work is distributed under the conditions of the Creative Commons
Attribution-Share Alike 3.0 Licence. This means you are free:
* to Share - to copy, distribute and transmit the work
* to Remix - to adapt the work

Under the following conditions:
* Attribution. You must attribute the work by stating your use of KanjiVG in
  your own copyright header and linking to KanjiVG's website
  (http://kanjivg.tagaini.net)
* Share Alike. If you alter, transform, or build upon this work, you may
  distribute the resulting work only under the same or similar license to this
  one.

See http://creativecommons.org/licenses/by-sa/3.0/ for more details.
-->
<!DOCTYPE svg PUBLIC "-//W3C//DTD SVG 1.0//EN" "http://www.w3.org/TR/2001/REC-SVG-20010904/DTD/svg10.dtd" [
<!ATTLIST g
xmlns:kvg CDATA #FIXED "http://kanjivg.tagaini.net"
kvg:element CDATA #IMPLIED
kvg:variant CDATA #IMPLIED
kvg:partial CDATA #IMPLIED
kvg:original CDATA #IMPLIED
kvg:part CDATA #IMPLIED
kvg:number CDATA #IMPLIED
kvg:tradForm CDATA #IMPLIED
kvg:radicalForm CDATA #IMPLIED
kvg:position CDATA #IMPLIED
kvg:radical CDATA #IMPLIED
kvg:phon CDATA #IMPLIED >
<!ATTLIST path
xmlns:kvg CDATA #FIXED "http://kanjivg.tagaini.net"
kvg:type CDATA #IMPLIED >
]>
<svg xmlns="http://www.w3.org/2000/svg" width="327" height = "327" viewBox="0 0 327 327">
<g id="kvg:StrokePaths_071e0" style="fill:none;stroke:#000000;stroke-width:3;stroke-linecap:round;stroke-linejoin:round;" transform="scale(3.0,3.0)">
<g id="kvg:071e0" kvg:element="燠">
	<g id="kvg:071e0-g1" kvg:element="火" kvg:position="left" kvg:radical="general">
		<path style="stroke: #bf0909;" id="kvg:071e0-s1" kvg:type="㇔" d="M10.49,37.5c2.23,3.78,5.48,14.47,6.09,18.25"/>
		<path style="stroke: #bf4909;" id="kvg:071e0-s2" kvg:type="㇒" d="M38.06,31.75c0.44,1,0.56,2-0.1,3.34C37.3,36.42,30.53,46.88,27.23,50"/>
		<path style="stroke: #bf8909;" id="kvg:071e0-s3" kvg:type="㇒" d="M23.75,14.75c0.76,0.75,1.02,2.25,1.03,3.5C25,69.75,24,81,11.5,94"/>
		<path style="stroke: #b4bf09;" id="kvg:071e0-s4" kvg:type="㇔/㇏" d="M26.25,69c4.35,3.09,9.85,12.87,11,17.25"/>
	</g>
	<g id="kvg:071e0-g2" kvg:element="奧" kvg:position="right">
		<g id="kvg:071e0-g3" kvg:position="top">
			<path style="stroke: #74bf09;" id="kvg:071e0-s5" kvg:type="㇒" d="M66.08,10.39c0.03,0.3,0.06,0.78-0.06,1.21c-0.7,2.56-4.7,8.17-10.17,11.6"/>
			<g id="kvg:071e0-g4" kvg:element="冂">
				<path style="stroke: #34bf09;" id="kvg:071e0-s6" kvg:type="㇑" d="M46.59,23.87c0.45,0.85,0.75,2.22,0.6,3.76c-0.15,1.54,0.15,36.7,0.15,39.26"/>
				<path style="stroke: #09bf1e;" id="kvg:071e0-s7" kvg:type="㇆a" d="M47.68,25.82c8.31-0.99,36.5-4.07,37.63-4.3c2.4-0.49,3.9,1.67,3.9,2.48c0,6.25-0.39,36.66-0.39,40.42"/>
			</g>
			<g id="kvg:071e0-g5" kvg:element="釆">
				<g id="kvg:071e0-g6" kvg:element="丿" kvg:position="top">
					<path style="stroke: #09bf5f;" id="kvg:071e0-s8" kvg:type="㇒" d="M74.86,26.24c0.06,0.21,0.18,0.59-0.11,0.85c-3.25,2.91-10,5.16-19.9,7.62"/>
				</g>
				<g id="kvg:071e0-g7" kvg:element="米" kvg:variant="true" kvg:position="bottom">
					<path style="stroke: #09bf9f;" id="kvg:071e0-s9" kvg:type="㇔" d="M55.78,37.76c1.26,0.9,3.15,3.46,3.47,4.87"/>
					<path style="stroke: #099fbf;" id="kvg:071e0-s10" kvg:type="㇒" d="M79.55,34.43c0.02,0.18,0.09,0.48-0.03,0.73c-1.02,1.97-2.67,4.28-6.04,6.98"/>
					<path style="stroke: #095fbf;" id="kvg:071e0-s11" kvg:type="㇐" d="M53.4,45.55c0.34,0.13,1.24,0.33,2.14,0.38c2.48,0.13,19.92-2.1,24.7-2.53c0.9-0.08,1.13-0.13,1.69,0"/>
					<path style="stroke: #091ebf;" id="kvg:071e0-s12" kvg:type="㇑" d="M66.61,34.56c0.56,0.25,0.9,1.14,1.01,1.64c0.11,0.51,0,19.91-0.11,23.07"/>
					<path style="stroke: #3409bf;" id="kvg:071e0-s13" kvg:type="㇒" d="M66.45,45.49c-2.34,4.25-8.04,10.72-13.31,13.17"/>
					<path style="stroke: #7409bf;" id="kvg:071e0-s14" kvg:type="㇔/㇏" d="M70.79,49.16c4,1.81,8.77,4.88,10.74,8"/>
				</g>
			</g>
		</g>
		<g id="kvg:071e0-g8" kvg:element="大" kvg:position="bottom">
			<path style="stroke: #b409bf;" id="kvg:071e0-s15" kvg:type="㇐" d="M39.12,75.12c1.02,0.33,3.73,0.71,5.89,0.57c14.6-0.98,33.78-2.93,46.89-3.4c2.26-0.08,4.07-0.04,6.1,0.21"/>
			<path style="stroke: #bf0989;" id="kvg:071e0-s16" kvg:type="㇒" d="M66.51,63.79c0.46,0.47,0.39,2.51,0.18,3.51C63.06,84.57,54,95,37.44,100"/>
			<path style="stroke: #bf0949;" id="kvg:071e0-s17" kvg:type="㇏" d="M67.28,74.53c6.22,8.22,19.48,19.09,25.61,22.79c2.09,1.26,2.81,1.44,3.76,1.56"/>
		</g>
	</g>
</g>
</g>
<g id="kvg:StrokeNumbers_071e0" style="font-size:8;fill:#808080" transform="scale(3.0,3.0)">
	<text style="fill: #bf0909;" transform="matrix(1 0 0 1 4.50 38.50)">1</text>
	<text style="fill: #bf4909;" transform="matrix(1 0 0 1 32.50 28.85)">2</text>
	<text style="fill: #bf8909;" transform="matrix(1 0 0 1 14.50 15.50)">3</text>
	<text style="fill: #b4bf09;" transform="matrix(1 0 0 1 29.50 68.50)">4</text>
	<text style="fill: #74bf09;" transform="matrix(1 0 0 1 57.50 10.50)">5</text>
	<text style="fill: #34bf09;" transform="matrix(1 0 0 1 39.50 30.50)">6</text>
	<text style="fill: #09bf1e;" transform="matrix(1 0 0 1 49.50 22.50)">7</text>
	<text style="fill: #09bf5f;" transform="matrix(1 0 0 1 61.50 30.50)">8</text>
	<text style="fill: #09bf9f;" transform="matrix(1 0 0 1 49.50 37.50)">9</text>
	<text style="fill: #099fbf;" transform="matrix(1 0 0 1 68 37.50)">10</text>
	<text style="fill: #095fbf;" transform="matrix(1 0 0 1 49.25 43.80)">11</text>
	<text style="fill: #091ebf;" transform="matrix(1 0 0 1 58 39.88)">12</text>
	<text style="fill: #3409bf;" transform="matrix(1 0 0 1 51.50 53.73)">13</text>
	<text style="fill: #7409bf;" transform="matrix(1 0 0 1 76 51.50)">14</text>
	<text style="fill: #b409bf;" transform="matrix(1 0 0 1 36.50 71.50)">15</text>
	<text style="fill: #bf0989;" transform="matrix(1 0 0 1 54.50 67.50)">16</text>
	<text style="fill: #bf0949;" transform="matrix(1 0 0 1 76.50 82.43)">17</text>
</g>
</svg>
