<?xml version="1.0" encoding="UTF-8"?>
<!--
This file has been modified from the original version by the kanji_colorize.py
script (available at http://github.com/cayennes/kanji-colorize) with these
settings:
    mode: spectrum
    saturation: 0.95
    value: 0.75
    image_size: 327
It remains under a Creative Commons-Attribution-Share Alike 3.0 License.

The original SVG has the following copyright:

Copyright (C) 2009/2010/2011 Ulrich Apel.
This work is distributed under the conditions of the Creative Commons
Attribution-Share Alike 3.0 Licence. This means you are free:
* to Share - to copy, distribute and transmit the work
* to Remix - to adapt the work

Under the following conditions:
* Attribution. You must attribute the work by stating your use of KanjiVG in
  your own copyright header and linking to KanjiVG's website
  (http://kanjivg.tagaini.net)
* Share Alike. If you alter, transform, or build upon this work, you may
  distribute the resulting work only under the same or similar license to this
  one.

See http://creativecommons.org/licenses/by-sa/3.0/ for more details.
-->
<!DOCTYPE svg PUBLIC "-//W3C//DTD SVG 1.0//EN" "http://www.w3.org/TR/2001/REC-SVG-20010904/DTD/svg10.dtd" [
<!ATTLIST g
xmlns:kvg CDATA #FIXED "http://kanjivg.tagaini.net"
kvg:element CDATA #IMPLIED
kvg:variant CDATA #IMPLIED
kvg:partial CDATA #IMPLIED
kvg:original CDATA #IMPLIED
kvg:part CDATA #IMPLIED
kvg:number CDATA #IMPLIED
kvg:tradForm CDATA #IMPLIED
kvg:radicalForm CDATA #IMPLIED
kvg:position CDATA #IMPLIED
kvg:radical CDATA #IMPLIED
kvg:phon CDATA #IMPLIED >
<!ATTLIST path
xmlns:kvg CDATA #FIXED "http://kanjivg.tagaini.net"
kvg:type CDATA #IMPLIED >
]>
<svg xmlns="http://www.w3.org/2000/svg" width="327" height = "327" viewBox="0 0 327 327">
<g id="kvg:StrokePaths_07228" style="fill:none;stroke:#000000;stroke-width:3;stroke-linecap:round;stroke-linejoin:round;" transform="scale(3.0,3.0)">
<g id="kvg:07228" kvg:element="爨">
	<g id="kvg:07228-g1" kvg:position="top">
		<path style="stroke: #bf0909;" id="kvg:07228-s1" kvg:type="㇑" d="M35.35,13.38c0.03,0.16,0.13,0.46-0.07,0.64c-2.37,2.25-5.87,4.31-12.04,6.13"/>
		<path style="stroke: #bf2f09;" id="kvg:07228-s2" kvg:type="㇕" d="M22.12,18.89c0.39,0.23,1.12,1.54,1.2,2.01c0.08,0.46,1.4,11.68,1.93,15.39"/>
		<path style="stroke: #bf5409;" id="kvg:07228-s3" kvg:type="㇐" d="M25.25,23.92c5-0.37,11-1.23,13.25-1.23"/>
		<path style="stroke: #bf7a09;" id="kvg:07228-s4" kvg:type="㇕" d="M25,30.78c4.5-0.49,11-0.84,13.75-0.84"/>
		<path style="stroke: #bf9f09;" id="kvg:07228-s5" kvg:type="㇐" d="M43.51,11.94c0.29,0.39,0.48,0.55,0.38,1.25c-0.1,0.71,0.1,21.47,0.1,22.65"/>
		<g id="kvg:07228-g2" kvg:element="𦥑" kvg:variant="true" kvg:original="臼">
			<path style="stroke: #b8bf09;" id="kvg:07228-s6" kvg:type="㇒" d="M44.35,13.75c3.63-0.31,17.58-2.39,18.32-2.39c1.61,0,2.1,0.56,2.1,1.35s0.1,19.18,0.1,20.98"/>
			<path style="stroke: #93bf09;" id="kvg:07228-s7" kvg:type="㇑" d="M45.08,19.44c0.38,0.09,1.08,0.1,1.46,0.09c3.96-0.1,7.75-0.8,10.08-0.8c0.63,0,1.01,0.04,1.33,0.09"/>
			<path style="stroke: #6dbf09;" id="kvg:07228-s8" kvg:type="㇐" d="M44.64,25.55c4.86-0.3,10.04-1.2,12.24-1.37c0.81-0.06,1.29,0.37,1.17,0.74c-0.48,1.53-1.04,3.14-1.74,5.26"/>
			<path style="stroke: #48bf09;" id="kvg:07228-s9" kvg:type="㇐" d="M44.4,31.21c2.59-0.2,10.16-0.53,13.72-0.83"/>
			<path style="stroke: #22bf09;" id="kvg:07228-s10" kvg:type="㇕" d="M72.1,13.83c1.4,0.01,2.34,0.26,4.23,0.06c6.57-0.71,9.02-0.73,9.59-0.73c1.61,0,2.43,1.39,2.1,2.35C86.5,20,85.5,29.5,85,34.72"/>
			<path style="stroke: #09bf16;" id="kvg:07228-s11" kvg:type="㇐" d="M72,21.73c0.71,0.08,1.67,0.6,2.75,0.59c3.87-0.05,11.27-1.58,12.25-1.58"/>
			<path style="stroke: #09bf3b;" id="kvg:07228-s12" kvg:type="㇐" d="M71,28.74c0.71,0.07,1.58,0.07,2.52,0.01c3.72-0.22,8.68-1.21,10.48-1.01"/>
		</g>
		<g id="kvg:07228-g3" kvg:element="冖">
			<path style="stroke: #09bf61;" id="kvg:07228-s13" kvg:type="㇔" d="M18.85,35.96c0,3.12-2.25,11.71-3.28,13.79"/>
			<path style="stroke: #09bf86;" id="kvg:07228-s14" kvg:type="㇆" d="M18.74,38.86c9.73-0.86,61.67-3.42,69.56-3.75c12.34-0.51,2.62,6.21-0.46,8.04"/>
		</g>
	</g>
	<g id="kvg:07228-g4" kvg:position="bottom">
		<g id="kvg:07228-g5" kvg:element="林">
			<g id="kvg:07228-g6" kvg:element="木" kvg:variant="true" kvg:position="left">
				<path style="stroke: #09bfac;" id="kvg:07228-s15" kvg:type="㇐" d="M24.85,46.9c0.56,0.19,2.25,0.66,3.74,0.5c5.24-0.56,12.79-1,18.4-1.37c1.49-0.1,2.62-0.06,3.56,0.13"/>
				<path style="stroke: #09acbf;" id="kvg:07228-s16" kvg:type="㇑" d="M38.31,40.36c0.54,0.21,0.86,0.97,0.97,1.4c0.11,0.43,0,18.8-0.11,21.49"/>
				<path style="stroke: #0986bf;" id="kvg:07228-s17" kvg:type="㇒" d="M38.35,47.48c-2.66,4.35-10.58,11.63-16.11,14.09"/>
				<path style="stroke: #0961bf;" id="kvg:07228-s18" kvg:type="㇔/㇏" d="M42.08,51.17c2.82,0.97,5.85,2.9,7.46,4.59"/>
			</g>
			<g id="kvg:07228-g7" kvg:element="木" kvg:position="right">
				<path style="stroke: #093bbf;" id="kvg:07228-s19" kvg:type="㇐" d="M56.03,46.65c0.38,0.14,1.22,0.22,2.24,0.14c3.61-0.28,13.27-1.28,20.32-1.99c1.02-0.1,1.91-0.14,2.55,0"/>
				<path style="stroke: #0916bf;" id="kvg:07228-s20" kvg:type="㇑" d="M67.91,39c0.54,0.22,0.86,0.97,0.97,1.4c0.11,0.43,0,18.95-0.11,21.64"/>
				<path style="stroke: #2209bf;" id="kvg:07228-s21" kvg:type="㇒" d="M68.09,46.19c-1.82,4.22-7.47,10.08-11.68,12.25"/>
				<path style="stroke: #4809bf;" id="kvg:07228-s22" kvg:type="㇏" d="M69.7,46.44c3.86,3.98,10.03,9.09,13.16,10.66c0.89,0.45,1.39,0.76,2.14,0.91"/>
			</g>
		</g>
		<g id="kvg:07228-g8" kvg:element="大">
			<path style="stroke: #6d09bf;" id="kvg:07228-s23" kvg:type="㇐" d="M16.88,69.08c1.31,0.38,4.79,0.83,7.56,0.66c18.76-1.13,43.39-3.4,60.23-3.94c2.9-0.09,5.22-0.05,7.84,0.25"/>
			<path style="stroke: #9309bf;" id="kvg:07228-s24" kvg:type="㇒" d="M51.15,60.75c-0.15,1-0.62,2.01-1.15,2.63c-6.74,7.87-16.24,15.87-34.49,22.87"/>
			<path style="stroke: #b809bf;" id="kvg:07228-s25" kvg:type="㇏" d="M66.5,67.25c5.61,3.45,18.71,12.22,24.31,14.53c1.91,0.78,2.57,0.9,3.44,0.97"/>
		</g>
		<g id="kvg:07228-g9" kvg:element="火" kvg:radical="general">
			<path style="stroke: #bf099f;" id="kvg:07228-s26" kvg:type="㇔" d="M38.3,77.72c2.03,1.46,5.36,6.31,5.91,7.76"/>
			<path style="stroke: #bf097a;" id="kvg:07228-s27" kvg:type="㇒" d="M70.07,75.34c0.49,0.4,0.44,1.13,0,1.75s-5.27,5.65-7.46,7.09"/>
			<path style="stroke: #bf0954;" id="kvg:07228-s28" kvg:type="㇒" d="M54.15,71.75c0.6,0.5,0.86,2.49,0.84,2.94C54.25,89.5,42.73,95.71,25.6,100"/>
			<path style="stroke: #bf092f;" id="kvg:07228-s29" kvg:type="㇏" d="M54.29,83.36c8.98,6.21,19.87,12.53,25.79,15.12c1.86,0.81,2.29,0.72,3.82,0.93"/>
		</g>
	</g>
</g>
</g>
<g id="kvg:StrokeNumbers_07228" style="font-size:8;fill:#808080" transform="scale(3.0,3.0)">
	<text style="fill: #bf0909;" transform="matrix(1 0 0 1 26.75 13.50)">1</text>
	<text style="fill: #bf2f09;" transform="matrix(1 0 0 1 16.50 26.43)">2</text>
	<text style="fill: #bf5409;" transform="matrix(1 0 0 1 28.25 23.60)">3</text>
	<text style="fill: #bf7a09;" transform="matrix(1 0 0 1 28.24 29.78)">4</text>
	<text style="fill: #bf9f09;" transform="matrix(1 0 0 1 38.50 21.50)">5</text>
	<text style="fill: #b8bf09;" transform="matrix(1 0 0 1 44.25 11.55)">6</text>
	<text style="fill: #93bf09;" transform="matrix(1 0 0 1 48.49 19.50)">7</text>
	<text style="fill: #6dbf09;" transform="matrix(1 0 0 1 48.34 24.43)">8</text>
	<text style="fill: #48bf09;" transform="matrix(1 0 0 1 48.50 30.10)">9</text>
	<text style="fill: #22bf09;" transform="matrix(1 0 0 1 68.50 11.50)">10</text>
	<text style="fill: #09bf16;" transform="matrix(1 0 0 1 69.50 20.38)">11</text>
	<text style="fill: #09bf3b;" transform="matrix(1 0 0 1 69.33 28.55)">12</text>
	<text style="fill: #09bf61;" transform="matrix(1 0 0 1 9.50 38.23)">13</text>
	<text style="fill: #09bf86;" transform="matrix(1 0 0 1 16.50 34.50)">14</text>
	<text style="fill: #09bfac;" transform="matrix(1 0 0 1 21.50 45.50)">15</text>
	<text style="fill: #09acbf;" transform="matrix(1 0 0 1 42.50 44.00)">16</text>
	<text style="fill: #0986bf;" transform="matrix(1 0 0 1 22.50 56.50)">17</text>
	<text style="fill: #0961bf;" transform="matrix(1 0 0 1 46.50 53.10)">18</text>
	<text style="fill: #093bbf;" transform="matrix(1 0 0 1 54.50 44.50)">19</text>
	<text style="fill: #0916bf;" transform="matrix(1 0 0 1 72.50 42.50)">20</text>
	<text style="fill: #2209bf;" transform="matrix(1 0 0 1 54.50 53.50)">21</text>
	<text style="fill: #4809bf;" transform="matrix(1 0 0 1 78.50 52.50)">22</text>
	<text style="fill: #6d09bf;" transform="matrix(1 0 0 1 6.50 69.50)">23</text>
	<text style="fill: #9309bf;" transform="matrix(1 0 0 1 41.50 61.50)">24</text>
	<text style="fill: #b809bf;" transform="matrix(1 0 0 1 79.25 73.63)">25</text>
	<text style="fill: #bf099f;" transform="matrix(1 0 0 1 31.50 86.50)">26</text>
	<text style="fill: #bf097a;" transform="matrix(1 0 0 1 60.50 77.50)">27</text>
	<text style="fill: #bf0954;" transform="matrix(1 0 0 1 44.50 77.50)">28</text>
	<text style="fill: #bf092f;" transform="matrix(1 0 0 1 53.50 95.50)">29</text>
</g>
</svg>
