<?xml version="1.0" encoding="UTF-8"?>
<!--
This file has been modified from the original version by the kanji_colorize.py
script (available at http://github.com/cayennes/kanji-colorize) with these
settings:
    mode: spectrum
    saturation: 0.95
    value: 0.75
    image_size: 327
It remains under a Creative Commons-Attribution-Share Alike 3.0 License.

The original SVG has the following copyright:

Copyright (C) 2009/2010/2011 Ulrich Apel.
This work is distributed under the conditions of the Creative Commons
Attribution-Share Alike 3.0 Licence. This means you are free:
* to Share - to copy, distribute and transmit the work
* to Remix - to adapt the work

Under the following conditions:
* Attribution. You must attribute the work by stating your use of KanjiVG in
  your own copyright header and linking to KanjiVG's website
  (http://kanjivg.tagaini.net)
* Share Alike. If you alter, transform, or build upon this work, you may
  distribute the resulting work only under the same or similar license to this
  one.

See http://creativecommons.org/licenses/by-sa/3.0/ for more details.
-->
<!DOCTYPE svg PUBLIC "-//W3C//DTD SVG 1.0//EN" "http://www.w3.org/TR/2001/REC-SVG-20010904/DTD/svg10.dtd" [
<!ATTLIST g
xmlns:kvg CDATA #FIXED "http://kanjivg.tagaini.net"
kvg:element CDATA #IMPLIED
kvg:variant CDATA #IMPLIED
kvg:partial CDATA #IMPLIED
kvg:original CDATA #IMPLIED
kvg:part CDATA #IMPLIED
kvg:number CDATA #IMPLIED
kvg:tradForm CDATA #IMPLIED
kvg:radicalForm CDATA #IMPLIED
kvg:position CDATA #IMPLIED
kvg:radical CDATA #IMPLIED
kvg:phon CDATA #IMPLIED >
<!ATTLIST path
xmlns:kvg CDATA #FIXED "http://kanjivg.tagaini.net"
kvg:type CDATA #IMPLIED >
]>
<svg xmlns="http://www.w3.org/2000/svg" width="327" height = "327" viewBox="0 0 327 327">
<g id="kvg:StrokePaths_07248" style="fill:none;stroke:#000000;stroke-width:3;stroke-linecap:round;stroke-linejoin:round;" transform="scale(3.0,3.0)">
<g id="kvg:07248" kvg:element="版">
	<g id="kvg:07248-g1" kvg:element="片" kvg:position="left" kvg:radical="general">
		<path style="stroke: #bf0909;" id="kvg:07248-s1" kvg:type="㇒" d="M16.82,22.54c0.68,1.21,1.11,2.85,1.12,4.25c0.3,29.46-0.57,46.21-7.35,62.17"/>
		<path style="stroke: #bf9109;" id="kvg:07248-s2" kvg:type="㇑a" d="M30.61,17.75c0.88,0.88,1.36,2.47,1.34,3.55c-0.05,3.41-0.05,15.36-0.05,18.46"/>
		<path style="stroke: #64bf09;" id="kvg:07248-s3" kvg:type="㇐b" d="M18.53,43.7c4.05-0.61,12.43-2.22,18.1-3.28c1.21-0.23,2.79-0.43,4.02-0.43"/>
		<path style="stroke: #09bf36;" id="kvg:07248-s4" kvg:type="㇕" d="M18.96,60.41c0.19-0.02,1.66-0.15,2.35-0.33c5.01-1.33,8.69-2.09,11.95-2.9c1.74-0.43,2.77,0.66,2.77,2.82c0,0.95,0.13,15.49,0.06,24.5c-0.03,4.17-0.06,7.26-0.06,7.48"/>
	</g>
	<g id="kvg:07248-g2" kvg:element="反" kvg:position="right" kvg:phon="反">
		<g id="kvg:07248-g3" kvg:element="厂">
			<path style="stroke: #09bfbf;" id="kvg:07248-s5" kvg:type="㇐" d="M50.31,25.04c2.32,0.46,5.2,0.13,7.42-0.28c8.8-1.64,18.5-3.75,26.38-4.75c2.09-0.27,3.75-0.3,5.76,0.28"/>
			<path style="stroke: #0936bf;" id="kvg:07248-s6" kvg:type="㇒" d="M53.29,25.68c0.7,0.7,1.22,2.07,1.18,3.34c-0.6,20.48-2.6,43.23-12.75,58.69"/>
		</g>
		<g id="kvg:07248-g4" kvg:element="又">
			<path style="stroke: #6409bf;" id="kvg:07248-s7" kvg:type="㇇" d="M57.2,44.69c1.3,0.35,3.46,0.38,6.05-0.15c2.59-0.53,16.31-4.56,18.08-5.11c3.04-0.94,4.17,0.9,3.18,4.11C78,64.62,70.12,80.5,48.85,92.26"/>
			<path style="stroke: #bf0991;" id="kvg:07248-s8" kvg:type="㇏" d="M58.74,53.63c2.99,0.8,16.66,20.17,27.53,30.59c2.08,2,4.1,4.03,6.81,5.61"/>
		</g>
	</g>
</g>
</g>
<g id="kvg:StrokeNumbers_07248" style="font-size:8;fill:#808080" transform="scale(3.0,3.0)">
	<text style="fill: #bf0909;" transform="matrix(1 0 0 1 9.75 23.50)">1</text>
	<text style="fill: #bf9109;" transform="matrix(1 0 0 1 23.50 17.50)">2</text>
	<text style="fill: #64bf09;" transform="matrix(1 0 0 1 22.50 39.50)">3</text>
	<text style="fill: #09bf36;" transform="matrix(1 0 0 1 22.33 56.50)">4</text>
	<text style="fill: #09bfbf;" transform="matrix(1 0 0 1 50.50 22.50)">5</text>
	<text style="fill: #0936bf;" transform="matrix(1 0 0 1 46.50 34.50)">6</text>
	<text style="fill: #6409bf;" transform="matrix(1 0 0 1 59.50 41.50)">7</text>
	<text style="fill: #bf0991;" transform="matrix(1 0 0 1 56.50 63.50)">8</text>
</g>
</svg>
