<?xml version="1.0" encoding="UTF-8"?>
<!--
This file has been modified from the original version by the kanji_colorize.py
script (available at http://github.com/cayennes/kanji-colorize) with these
settings:
    mode: spectrum
    saturation: 0.95
    value: 0.75
    image_size: 327
It remains under a Creative Commons-Attribution-Share Alike 3.0 License.

The original SVG has the following copyright:

Copyright (C) 2009/2010/2011 Ulrich Apel.
This work is distributed under the conditions of the Creative Commons
Attribution-Share Alike 3.0 Licence. This means you are free:
* to Share - to copy, distribute and transmit the work
* to Remix - to adapt the work

Under the following conditions:
* Attribution. You must attribute the work by stating your use of KanjiVG in
  your own copyright header and linking to KanjiVG's website
  (http://kanjivg.tagaini.net)
* Share Alike. If you alter, transform, or build upon this work, you may
  distribute the resulting work only under the same or similar license to this
  one.

See http://creativecommons.org/licenses/by-sa/3.0/ for more details.
-->
<!DOCTYPE svg PUBLIC "-//W3C//DTD SVG 1.0//EN" "http://www.w3.org/TR/2001/REC-SVG-20010904/DTD/svg10.dtd" [
<!ATTLIST g
xmlns:kvg CDATA #FIXED "http://kanjivg.tagaini.net"
kvg:element CDATA #IMPLIED
kvg:variant CDATA #IMPLIED
kvg:partial CDATA #IMPLIED
kvg:original CDATA #IMPLIED
kvg:part CDATA #IMPLIED
kvg:number CDATA #IMPLIED
kvg:tradForm CDATA #IMPLIED
kvg:radicalForm CDATA #IMPLIED
kvg:position CDATA #IMPLIED
kvg:radical CDATA #IMPLIED
kvg:phon CDATA #IMPLIED >
<!ATTLIST path
xmlns:kvg CDATA #FIXED "http://kanjivg.tagaini.net"
kvg:type CDATA #IMPLIED >
]>
<svg xmlns="http://www.w3.org/2000/svg" width="327" height = "327" viewBox="0 0 327 327">
<g id="kvg:StrokePaths_07280" style="fill:none;stroke:#000000;stroke-width:3;stroke-linecap:round;stroke-linejoin:round;" transform="scale(3.0,3.0)">
<g id="kvg:07280" kvg:element="犀">
	<g id="kvg:07280-g1" kvg:element="尸" kvg:position="tare" kvg:radical="nelson">
		<path style="stroke: #bf0909;" id="kvg:07280-s1" kvg:type="㇕c" d="M26.18,15.9c2.92,0.73,5.85,0.82,8.81,0.54c12.88-1.19,28.88-2.57,40.65-3.46c5.06-0.38,6.51,0.99,5.49,4.64c-0.89,3.17-1.12,3.88-2.5,7.94"/>
		<path style="stroke: #bf6409;" id="kvg:07280-s2" kvg:type="㇐b" d="M31.15,29.42c4.32-0.19,28.58-1.7,41.61-2.46c3.58-0.21,6.31-0.36,7.55-0.41"/>
		<path style="stroke: #bfbf09;" id="kvg:07280-s3" kvg:type="㇒" d="M29.58,17.33c0.79,0.79,0.93,1.8,0.92,2.92c-0.38,25-5.5,53.12-17,66.25"/>
	</g>
	<path style="stroke: #64bf09;" id="kvg:07280-s4" kvg:type="㇑" d="M57.27,32.08c0.98,0.92,1.26,2.04,1.26,4.27c0,2.44-0.01,5.58-0.01,8.77c0,2.07-0.01,4.17-0.01,6.12"/>
	<g id="kvg:07280-g2" kvg:element="二">
		<path style="stroke: #09bf09;" id="kvg:07280-s5" kvg:type="㇐" d="M36.25,38.18c1,0.13,2,0.3,3,0.21c3.25-0.27,6.12-0.39,9.24-0.7c1.06-0.1,2.09-0.15,3.13,0.02"/>
		<path style="stroke: #09bf64;" id="kvg:07280-s6" kvg:type="㇐" d="M35,48.18c1.12,0.13,2.25,0.3,3.38,0.21c3.25-0.26,6.85-0.73,9.51-0.94c1.17-0.16,2.33-0.16,3.49,0.02"/>
	</g>
	<g id="kvg:07280-g3" kvg:element="二">
		<path style="stroke: #09bfbf;" id="kvg:07280-s7" kvg:type="㇐" d="M67.25,36.43c1.12,0.14,2.25,0.28,3.38,0.21c2.96-0.19,7.18-0.73,9.75-0.95c1-0.15,2-0.14,3,0.03"/>
		<path style="stroke: #0964bf;" id="kvg:07280-s8" kvg:type="㇐" d="M67.5,45.95c1,0.12,2,0.26,3,0.24c3.75-0.06,9.15-1.07,11.98-1.32c0.89-0.11,1.77-0.09,2.65,0.07"/>
	</g>
	<g id="kvg:07280-g4" kvg:element="牛" kvg:radical="tradit">
		<path style="stroke: #0909bf;" id="kvg:07280-s9" kvg:type="㇒" d="M42.36,55.98c0,1.02-0.19,2.25-0.73,3.23C39,64,36.38,68.25,30.9,74.33"/>
		<path style="stroke: #6409bf;" id="kvg:07280-s10" kvg:type="㇐" d="M41.26,66.65c2.25,0.22,4.5,0.28,6.75,0.19c8.42-0.67,20.01-1.76,27.86-2.52c2.05-0.37,4.11-0.41,6.16-0.11"/>
		<path style="stroke: #bf09bf;" id="kvg:07280-s11" kvg:type="㇐" d="M24.87,79.73c3.96,0.38,7.92,0.53,11.89,0.14c12.99-1.25,28.9-2.34,43.62-2.72c3.91-0.1,7.5-0.03,11.51,0.64"/>
		<path style="stroke: #bf0964;" id="kvg:07280-s12" kvg:type="㇑" d="M57.79,55.88c0.92,0.92,1.09,2.12,1.07,3.23C58.85,59.46,58.84,79,58.8,91.12c-0.01,4.79-0.03,8.42-0.05,9.25"/>
	</g>
</g>
</g>
<g id="kvg:StrokeNumbers_07280" style="font-size:8;fill:#808080" transform="scale(3.0,3.0)">
	<text style="fill: #bf0909;" transform="matrix(1 0 0 1 29.50 13.50)">1</text>
	<text style="fill: #bf6409;" transform="matrix(1 0 0 1 38.25 25.05)">2</text>
	<text style="fill: #bfbf09;" transform="matrix(1 0 0 1 21.50 24.50)">3</text>
	<text style="fill: #64bf09;" transform="matrix(1 0 0 1 50.25 35.50)">4</text>
	<text style="fill: #09bf09;" transform="matrix(1 0 0 1 36.50 36.33)">5</text>
	<text style="fill: #09bf64;" transform="matrix(1 0 0 1 35.50 46.50)">6</text>
	<text style="fill: #09bfbf;" transform="matrix(1 0 0 1 68.50 34.68)">7</text>
	<text style="fill: #0964bf;" transform="matrix(1 0 0 1 68.50 43.60)">8</text>
	<text style="fill: #0909bf;" transform="matrix(1 0 0 1 34.25 58.50)">9</text>
	<text style="fill: #6409bf;" transform="matrix(1 0 0 1 46.25 63.50)">10</text>
	<text style="fill: #bf09bf;" transform="matrix(1 0 0 1 37.50 76.50)">11</text>
	<text style="fill: #bf0964;" transform="matrix(1 0 0 1 61.50 58.30)">12</text>
</g>
</svg>
