<?xml version="1.0" encoding="UTF-8"?>
<!--
This file has been modified from the original version by the kanji_colorize.py
script (available at http://github.com/cayennes/kanji-colorize) with these
settings:
    mode: spectrum
    saturation: 0.95
    value: 0.75
    image_size: 327
It remains under a Creative Commons-Attribution-Share Alike 3.0 License.

The original SVG has the following copyright:

Copyright (C) 2009/2010/2011 Ulrich Apel.
This work is distributed under the conditions of the Creative Commons
Attribution-Share Alike 3.0 Licence. This means you are free:
* to Share - to copy, distribute and transmit the work
* to Remix - to adapt the work

Under the following conditions:
* Attribution. You must attribute the work by stating your use of KanjiVG in
  your own copyright header and linking to KanjiVG's website
  (http://kanjivg.tagaini.net)
* Share Alike. If you alter, transform, or build upon this work, you may
  distribute the resulting work only under the same or similar license to this
  one.

See http://creativecommons.org/licenses/by-sa/3.0/ for more details.
-->
<!DOCTYPE svg PUBLIC "-//W3C//DTD SVG 1.0//EN" "http://www.w3.org/TR/2001/REC-SVG-20010904/DTD/svg10.dtd" [
<!ATTLIST g
xmlns:kvg CDATA #FIXED "http://kanjivg.tagaini.net"
kvg:element CDATA #IMPLIED
kvg:variant CDATA #IMPLIED
kvg:partial CDATA #IMPLIED
kvg:original CDATA #IMPLIED
kvg:part CDATA #IMPLIED
kvg:number CDATA #IMPLIED
kvg:tradForm CDATA #IMPLIED
kvg:radicalForm CDATA #IMPLIED
kvg:position CDATA #IMPLIED
kvg:radical CDATA #IMPLIED
kvg:phon CDATA #IMPLIED >
<!ATTLIST path
xmlns:kvg CDATA #FIXED "http://kanjivg.tagaini.net"
kvg:type CDATA #IMPLIED >
]>
<svg xmlns="http://www.w3.org/2000/svg" width="327" height = "327" viewBox="0 0 327 327">
<g id="kvg:StrokePaths_072af" style="fill:none;stroke:#000000;stroke-width:3;stroke-linecap:round;stroke-linejoin:round;" transform="scale(3.0,3.0)">
<g id="kvg:072af" kvg:element="犯">
	<g id="kvg:072af-g1" kvg:element="⺨" kvg:variant="true" kvg:original="犬" kvg:position="left" kvg:radical="general">
		<path style="stroke: #bf0909;" id="kvg:072af-s1" kvg:type="㇒" d="M39.31,17.5c0.13,1.12-0.19,2.21-0.8,3.09c-5.08,7.33-11.26,12.79-22.76,20.7"/>
		<path style="stroke: #9abf09;" id="kvg:072af-s2" kvg:type="㇕va" d="M20.5,20.75c29.5,15,17.75,82.25,4.75,68.5"/>
		<path style="stroke: #09bf52;" id="kvg:072af-s3" kvg:type="㇒" d="M34.32,46.75c0,1.12-0.22,2.29-0.61,2.92C28.62,57.88,23.75,64.12,14,72.04"/>
	</g>
	<g id="kvg:072af-g2" kvg:element="㔾" kvg:original="卩" kvg:position="right" kvg:phon="㔾/卩">
		<path style="stroke: #0952bf;" id="kvg:072af-s4" kvg:type="㇆" d="M51.5,26.75c1,0.25,3.25,0.5,5.25,0.25s23.04-4.01,25.5-4.5c3.12-0.62,5.28,1.29,4.75,4c-1.75,9-2.75,17.25-7.5,29.25c-3.3,8.33-6.38,1.75-7.5,0"/>
		<path style="stroke: #9a09bf;" id="kvg:072af-s5" kvg:type="㇟/㇑" d="M52.74,27.37c1.07,1.07,1.26,2.99,1.28,5.13c0.1,10.48,0.45,39.57,0.45,44.66c0,12.59,2.53,15.37,20,15.37c20.28,0,21.92-3.02,21.92-9.79"/>
	</g>
</g>
</g>
<g id="kvg:StrokeNumbers_072af" style="font-size:8;fill:#808080" transform="scale(3.0,3.0)">
	<text style="fill: #bf0909;" transform="matrix(1 0 0 1 32.50 17.50)">1</text>
	<text style="fill: #9abf09;" transform="matrix(1 0 0 1 13.50 21.50)">2</text>
	<text style="fill: #09bf52;" transform="matrix(1 0 0 1 26.50 47.50)">3</text>
	<text style="fill: #0952bf;" transform="matrix(1 0 0 1 51.50 23.50)">4</text>
	<text style="fill: #9a09bf;" transform="matrix(1 0 0 1 46.50 35.50)">5</text>
</g>
</svg>
