<?xml version="1.0" encoding="UTF-8"?>
<!--
This file has been modified from the original version by the kanji_colorize.py
script (available at http://github.com/cayennes/kanji-colorize) with these
settings:
    mode: spectrum
    saturation: 0.95
    value: 0.75
    image_size: 327
It remains under a Creative Commons-Attribution-Share Alike 3.0 License.

The original SVG has the following copyright:

Copyright (C) 2009/2010/2011 Ulrich Apel.
This work is distributed under the conditions of the Creative Commons
Attribution-Share Alike 3.0 Licence. This means you are free:
* to Share - to copy, distribute and transmit the work
* to Remix - to adapt the work

Under the following conditions:
* Attribution. You must attribute the work by stating your use of KanjiVG in
  your own copyright header and linking to KanjiVG's website
  (http://kanjivg.tagaini.net)
* Share Alike. If you alter, transform, or build upon this work, you may
  distribute the resulting work only under the same or similar license to this
  one.

See http://creativecommons.org/licenses/by-sa/3.0/ for more details.
-->
<!DOCTYPE svg PUBLIC "-//W3C//DTD SVG 1.0//EN" "http://www.w3.org/TR/2001/REC-SVG-20010904/DTD/svg10.dtd" [
<!ATTLIST g
xmlns:kvg CDATA #FIXED "http://kanjivg.tagaini.net"
kvg:element CDATA #IMPLIED
kvg:variant CDATA #IMPLIED
kvg:partial CDATA #IMPLIED
kvg:original CDATA #IMPLIED
kvg:part CDATA #IMPLIED
kvg:number CDATA #IMPLIED
kvg:tradForm CDATA #IMPLIED
kvg:radicalForm CDATA #IMPLIED
kvg:position CDATA #IMPLIED
kvg:radical CDATA #IMPLIED
kvg:phon CDATA #IMPLIED >
<!ATTLIST path
xmlns:kvg CDATA #FIXED "http://kanjivg.tagaini.net"
kvg:type CDATA #IMPLIED >
]>
<svg xmlns="http://www.w3.org/2000/svg" width="327" height = "327" viewBox="0 0 327 327">
<g id="kvg:StrokePaths_072c4" style="fill:none;stroke:#000000;stroke-width:3;stroke-linecap:round;stroke-linejoin:round;" transform="scale(3.0,3.0)">
<g id="kvg:072c4" kvg:element="狄">
	<g id="kvg:072c4-g1" kvg:element="⺨" kvg:variant="true" kvg:original="犬" kvg:position="left" kvg:radical="general">
		<path style="stroke: #bf0909;" id="kvg:072c4-s1" kvg:type="㇒" d="M39.29,15c0.07,0.59-0.17,2.22-0.65,2.85C32.53,25.91,26.83,31.12,12,39.84"/>
		<path style="stroke: #bfa509;" id="kvg:072c4-s2" kvg:type="㇕va" d="M16,16.18c31,23.32,21,90.57,6.5,74.22"/>
		<path style="stroke: #3dbf09;" id="kvg:072c4-s3" kvg:type="㇒" d="M30.33,43.07c0.05,0.68,0.22,2.01-0.1,2.75c-4.1,9.43-8.27,16.09-18.23,26.29"/>
	</g>
	<g id="kvg:072c4-g2" kvg:element="火" kvg:position="right">
		<path style="stroke: #09bf71;" id="kvg:072c4-s4" kvg:type="㇔" d="M43.05,37.53C47,42,51.5,52,51.99,57.16"/>
		<path style="stroke: #0971bf;" id="kvg:072c4-s5" kvg:type="㇒" d="M87.87,30.76c0.38,1.74,0.01,3.9-1,5.48c-1.01,1.58-11.11,13.5-16.16,17.19"/>
		<path style="stroke: #3d09bf;" id="kvg:072c4-s6" kvg:type="㇒" d="M64.69,13.25c0.98,0.81,1.18,2.96,1.18,4.31C65.67,71.17,55.48,83.3,40,96.5"/>
		<path style="stroke: #bf09a5;" id="kvg:072c4-s7" kvg:type="㇏" d="M64.88,51.78c10.04,17.21,22.22,34.7,28.84,41.87c2.08,2.26,2.56,2.01,4.27,2.58"/>
	</g>
</g>
</g>
<g id="kvg:StrokeNumbers_072c4" style="font-size:8;fill:#808080" transform="scale(3.0,3.0)">
	<text style="fill: #bf0909;" transform="matrix(1 0 0 1 32.50 14.50)">1</text>
	<text style="fill: #bfa509;" transform="matrix(1 0 0 1 8.25 16.50)">2</text>
	<text style="fill: #3dbf09;" transform="matrix(1 0 0 1 22.50 44.50)">3</text>
	<text style="fill: #09bf71;" transform="matrix(1 0 0 1 39.50 33.50)">4</text>
	<text style="fill: #0971bf;" transform="matrix(1 0 0 1 79.50 29.50)">5</text>
	<text style="fill: #3d09bf;" transform="matrix(1 0 0 1 54.25 12.50)">6</text>
	<text style="fill: #bf09a5;" transform="matrix(1 0 0 1 74.50 62.18)">7</text>
</g>
</svg>
