<?xml version="1.0" encoding="UTF-8"?>
<!--
This file has been modified from the original version by the kanji_colorize.py
script (available at http://github.com/cayennes/kanji-colorize) with these
settings:
    mode: spectrum
    saturation: 0.95
    value: 0.75
    image_size: 327
It remains under a Creative Commons-Attribution-Share Alike 3.0 License.

The original SVG has the following copyright:

Copyright (C) 2009/2010/2011 Ulrich Apel.
This work is distributed under the conditions of the Creative Commons
Attribution-Share Alike 3.0 Licence. This means you are free:
* to Share - to copy, distribute and transmit the work
* to Remix - to adapt the work

Under the following conditions:
* Attribution. You must attribute the work by stating your use of KanjiVG in
  your own copyright header and linking to KanjiVG's website
  (http://kanjivg.tagaini.net)
* Share Alike. If you alter, transform, or build upon this work, you may
  distribute the resulting work only under the same or similar license to this
  one.

See http://creativecommons.org/licenses/by-sa/3.0/ for more details.
-->
<!DOCTYPE svg PUBLIC "-//W3C//DTD SVG 1.0//EN" "http://www.w3.org/TR/2001/REC-SVG-20010904/DTD/svg10.dtd" [
<!ATTLIST g
xmlns:kvg CDATA #FIXED "http://kanjivg.tagaini.net"
kvg:element CDATA #IMPLIED
kvg:variant CDATA #IMPLIED
kvg:partial CDATA #IMPLIED
kvg:original CDATA #IMPLIED
kvg:part CDATA #IMPLIED
kvg:number CDATA #IMPLIED
kvg:tradForm CDATA #IMPLIED
kvg:radicalForm CDATA #IMPLIED
kvg:position CDATA #IMPLIED
kvg:radical CDATA #IMPLIED
kvg:phon CDATA #IMPLIED >
<!ATTLIST path
xmlns:kvg CDATA #FIXED "http://kanjivg.tagaini.net"
kvg:type CDATA #IMPLIED >
]>
<svg xmlns="http://www.w3.org/2000/svg" width="327" height = "327" viewBox="0 0 327 327">
<g id="kvg:StrokePaths_07370" style="fill:none;stroke:#000000;stroke-width:3;stroke-linecap:round;stroke-linejoin:round;" transform="scale(3.0,3.0)">
<g id="kvg:07370" kvg:element="獰">
	<g id="kvg:07370-g1" kvg:element="⺨" kvg:variant="true" kvg:original="犬" kvg:position="left" kvg:radical="general">
		<path style="stroke: #bf0909;" id="kvg:07370-s1" kvg:type="㇒" d="M35.05,16.25c0.07,0.6,0.31,1.75-0.14,2.39c-5.66,8.21-11.41,14.02-25.16,22.9"/>
		<path style="stroke: #bf4909;" id="kvg:07370-s2" kvg:type="㇕va" d="M15,17.25c28.25,23.5,19.46,85.03,7.75,72"/>
		<path style="stroke: #bf8909;" id="kvg:07370-s3" kvg:type="㇒" d="M27.84,44c0.04,0.64,0.2,1.87-0.09,2.56c-3.71,8.78-7.48,14.99-16.5,24.48"/>
	</g>
	<g id="kvg:07370-g2" kvg:element="寧" kvg:variant="true" kvg:position="right">
		<g id="kvg:07370-g3" kvg:element="宀" kvg:position="top">
			<path style="stroke: #b4bf09;" id="kvg:07370-s4" kvg:type="㇑a" d="M64.46,10c0.93,0.37,2.25,2.21,2.23,3.29c-0.07,3.4-0.07,5.2-0.07,8.3"/>
			<g id="kvg:07370-g4" kvg:element="冖">
				<path style="stroke: #74bf09;" id="kvg:07370-s5" kvg:type="㇔" d="M44.24,21.33c0,3.2-3.68,13.04-4.9,15.17"/>
				<path style="stroke: #34bf09;" id="kvg:07370-s6" kvg:type="㇖b" d="M44.28,23.55c6.47-0.86,41.01-3.95,46.27-4.28c8.21-0.51,1.74,6.26-0.31,8.1"/>
			</g>
		</g>
		<g id="kvg:07370-g5" kvg:position="bottom">
			<g id="kvg:07370-g6" kvg:element="心">
				<path style="stroke: #09bf1e;" id="kvg:07370-s7" kvg:type="㇔" d="M48.54,30.75c0.16,1.63-1.62,8.8-2.92,11.51"/>
				<path style="stroke: #09bf5f;" id="kvg:07370-s8" kvg:type="㇟b" d="M55.54,29.46c6.48,10.43,11.6,13.23,23.98,12.72c5.07-0.21,5.3-1.23,1.76-4.84"/>
				<path style="stroke: #09bf9f;" id="kvg:07370-s9" kvg:type="㇔a" d="M64.18,28.25c1.25,3.74,3.05,7.48,4.38,1.75"/>
				<path style="stroke: #099fbf;" id="kvg:07370-s10" kvg:type="㇔" d="M78.81,28.48c4.71,1.92,8.24,3.67,12.06,9.63"/>
			</g>
			<g id="kvg:07370-g7" kvg:element="罒" kvg:variant="true" kvg:original="网">
				<g id="kvg:07370-g8" kvg:element="皿">
					<path style="stroke: #095fbf;" id="kvg:07370-s11" kvg:type="㇑a" d="M47.72,49.03c0.22,0.26,0.45,0.48,0.54,0.81c0.76,2.59,2.07,8.25,2.59,12.91"/>
					<path style="stroke: #091ebf;" id="kvg:07370-s12" kvg:type="㇕b" d="M48.69,50.29c6.11-0.79,35.54-2.71,38.13-3.06c0.94-0.12,2.23,0.88,1.97,2.34c-0.53,3.04-1.28,6.27-2.69,10.61"/>
					<path style="stroke: #3409bf;" id="kvg:07370-s13" kvg:type="㇑a" d="M60.49,51.34c0.76,0.66,0.67,1.58,0.82,2.87c0.37,3.05,0.91,5.36,1.02,6.73"/>
					<path style="stroke: #7409bf;" id="kvg:07370-s14" kvg:type="㇑a" d="M72.46,49.76c1.29,0.49,1.34,1.78,1.2,3.24c-0.29,3.01-0.19,5.48-0.39,6.64"/>
					<path style="stroke: #b409bf;" id="kvg:07370-s15" kvg:type="㇐" d="M39.25,63.49c2,0.45,3.46,0.32,5.07,0.23c12.09-0.69,37.3-3.81,49.79-4.59c2.32-0.14,3.81-0.04,5.08,0.73"/>
				</g>
			</g>
			<g id="kvg:07370-g9" kvg:element="丁">
				<g id="kvg:07370-g10" kvg:element="一">
					<path style="stroke: #bf0989;" id="kvg:07370-s16" kvg:type="㇐" d="M43.08,73.01c1.06,0.39,3.01,0.5,4.07,0.39c10.87-1.04,28.31-3.69,41.38-4.21c1.77-0.07,2.83,0.19,3.72,0.38"/>
				</g>
				<g id="kvg:07370-g11" kvg:element="亅">
					<path style="stroke: #bf0949;" id="kvg:07370-s17" kvg:type="㇚" d="M66.87,73.4c0.07,0.33,1.1,1.74,1.1,3.87c0,7.48,0.26,11.48,0.26,15.17c0,10.31-6.48,0.86-7.79-0.02"/>
				</g>
			</g>
		</g>
	</g>
</g>
</g>
<g id="kvg:StrokeNumbers_07370" style="font-size:8;fill:#808080" transform="scale(3.0,3.0)">
	<text style="fill: #bf0909;" transform="matrix(1 0 0 1 27.50 16.50)">1</text>
	<text style="fill: #bf4909;" transform="matrix(1 0 0 1 8.50 17.50)">2</text>
	<text style="fill: #bf8909;" transform="matrix(1 0 0 1 20.50 45.50)">3</text>
	<text style="fill: #b4bf09;" transform="matrix(1 0 0 1 56.00 10.50)">4</text>
	<text style="fill: #74bf09;" transform="matrix(1 0 0 1 39.00 23.33)">5</text>
	<text style="fill: #34bf09;" transform="matrix(1 0 0 1 46.50 19.50)">6</text>
	<text style="fill: #09bf1e;" transform="matrix(1 0 0 1 45.50 30.50)">7</text>
	<text style="fill: #09bf5f;" transform="matrix(1 0 0 1 52.50 37.50)">8</text>
	<text style="fill: #09bf9f;" transform="matrix(1 0 0 1 58.00 29.50)">9</text>
	<text style="fill: #099fbf;" transform="matrix(1 0 0 1 72.50 27.50)">10</text>
	<text style="fill: #095fbf;" transform="matrix(1 0 0 1 38.25 53.38)">11</text>
	<text style="fill: #091ebf;" transform="matrix(1 0 0 1 48.25 47.05)">12</text>
	<text style="fill: #3409bf;" transform="matrix(1 0 0 1 52.50 56.98)">13</text>
	<text style="fill: #7409bf;" transform="matrix(1 0 0 1 64.50 55.50)">14</text>
	<text style="fill: #b409bf;" transform="matrix(1 0 0 1 37.00 60.83)">15</text>
	<text style="fill: #bf0989;" transform="matrix(1 0 0 1 44.25 70.75)">16</text>
	<text style="fill: #bf0949;" transform="matrix(1 0 0 1 57.50 81.18)">17</text>
</g>
</svg>
