<?xml version="1.0" encoding="UTF-8"?>
<!--
This file has been modified from the original version by the kanji_colorize.py
script (available at http://github.com/cayennes/kanji-colorize) with these
settings:
    mode: spectrum
    saturation: 0.95
    value: 0.75
    image_size: 327
It remains under a Creative Commons-Attribution-Share Alike 3.0 License.

The original SVG has the following copyright:

Copyright (C) 2009/2010/2011 Ulrich Apel.
This work is distributed under the conditions of the Creative Commons
Attribution-Share Alike 3.0 Licence. This means you are free:
* to Share - to copy, distribute and transmit the work
* to Remix - to adapt the work

Under the following conditions:
* Attribution. You must attribute the work by stating your use of KanjiVG in
  your own copyright header and linking to KanjiVG's website
  (http://kanjivg.tagaini.net)
* Share Alike. If you alter, transform, or build upon this work, you may
  distribute the resulting work only under the same or similar license to this
  one.

See http://creativecommons.org/licenses/by-sa/3.0/ for more details.
-->
<!DOCTYPE svg PUBLIC "-//W3C//DTD SVG 1.0//EN" "http://www.w3.org/TR/2001/REC-SVG-20010904/DTD/svg10.dtd" [
<!ATTLIST g
xmlns:kvg CDATA #FIXED "http://kanjivg.tagaini.net"
kvg:element CDATA #IMPLIED
kvg:variant CDATA #IMPLIED
kvg:partial CDATA #IMPLIED
kvg:original CDATA #IMPLIED
kvg:part CDATA #IMPLIED
kvg:number CDATA #IMPLIED
kvg:tradForm CDATA #IMPLIED
kvg:radicalForm CDATA #IMPLIED
kvg:position CDATA #IMPLIED
kvg:radical CDATA #IMPLIED
kvg:phon CDATA #IMPLIED >
<!ATTLIST path
xmlns:kvg CDATA #FIXED "http://kanjivg.tagaini.net"
kvg:type CDATA #IMPLIED >
]>
<svg xmlns="http://www.w3.org/2000/svg" width="327" height = "327" viewBox="0 0 327 327">
<g id="kvg:StrokePaths_073bb" style="fill:none;stroke:#000000;stroke-width:3;stroke-linecap:round;stroke-linejoin:round;" transform="scale(3.0,3.0)">
<g id="kvg:073bb" kvg:element="玻">
	<g id="kvg:073bb-g1" kvg:element="王" kvg:original="玉" kvg:partial="true" kvg:position="left" kvg:radical="general">
		<path style="stroke: #bf0909;" id="kvg:073bb-s1" kvg:type="㇐" d="M11.5,24.5c0.65,0.28,4.16,0.34,4.82,0.26c3.05-0.37,15.44-1.57,22.76-1.98c1-0.06,2.85-0.2,3.68,0.03"/>
		<path style="stroke: #bf8209;" id="kvg:073bb-s2" kvg:type="㇑a" d="M25.57,26.02c0.87,0.88,1.48,2.78,1.48,3.48c0,5.95,0.02,44.12-0.15,48.07"/>
		<path style="stroke: #82bf09;" id="kvg:073bb-s3" kvg:type="㇐" d="M12,51.74c0.55,0.17,4.45,0.19,5.01,0.15c3.25-0.22,15.24-1.52,19.73-1.76c0.69-0.04,3.22-0.07,4.25,0.08"/>
		<path style="stroke: #09bf09;" id="kvg:073bb-s4" kvg:type="㇐" d="M11.25,83.75c1.24,0.52,2.25,1,4.5,0C21.17,81.34,32,75.5,40,70.75"/>
	</g>
	<g id="kvg:073bb-g2" kvg:element="皮" kvg:position="right">
		<path style="stroke: #09bf82;" id="kvg:073bb-s5" kvg:type="㇒" d="M49.75,26.46c0.62,1.23,1.54,4.57,1.53,7.13c-0.12,28.81-5.53,50.97-16.41,60.67"/>
		<path style="stroke: #0982bf;" id="kvg:073bb-s6" kvg:type="㇖b" d="M51.13,28.37c13.62-2.37,31.88-4.5,37.01-4.88c9.03-0.66-0.85,9.94-2.13,10.92"/>
		<path style="stroke: #0909bf;" id="kvg:073bb-s7" kvg:type="㇑a" d="M67.47,11.75c1.5,0.56,2.39,2.53,2.69,3.65c0.3,1.12-0.11,21.38-0.11,32.89"/>
		<path style="stroke: #8209bf;" id="kvg:073bb-s8" kvg:type="㇇" d="M53.25,50.5c1.54,0.37,2.9,0.57,5.96-0.07C66,49,76.94,47.22,83.48,46.36c2.18-0.29,3.82,2.14,2.88,4.06C76.63,70.15,64.25,89.5,42.62,98.07"/>
		<path style="stroke: #bf0982;" id="kvg:073bb-s9" kvg:type="㇏" d="M56.79,54.02C60.25,61,76,82.5,88.85,93.46c1.94,1.65,3.21,2.9,4.93,3.48"/>
	</g>
</g>
</g>
<g id="kvg:StrokeNumbers_073bb" style="font-size:8;fill:#808080" transform="scale(3.0,3.0)">
	<text style="fill: #bf0909;" transform="matrix(1 0 0 1 5.50 24.50)">1</text>
	<text style="fill: #bf8209;" transform="matrix(1 0 0 1 18.66 34.85)">2</text>
	<text style="fill: #82bf09;" transform="matrix(1 0 0 1 5.50 52.50)">3</text>
	<text style="fill: #09bf09;" transform="matrix(1 0 0 1 4.54 84.50)">4</text>
	<text style="fill: #09bf82;" transform="matrix(1 0 0 1 42.50 33.50)">5</text>
	<text style="fill: #0982bf;" transform="matrix(1 0 0 1 53.50 24.50)">6</text>
	<text style="fill: #0909bf;" transform="matrix(1 0 0 1 59.50 11.50)">7</text>
	<text style="fill: #8209bf;" transform="matrix(1 0 0 1 56.50 47.50)">8</text>
	<text style="fill: #bf0982;" transform="matrix(1 0 0 1 62.50 59.50)">9</text>
</g>
</svg>
