<?xml version="1.0" encoding="UTF-8"?>
<!--
This file has been modified from the original version by the kanji_colorize.py
script (available at http://github.com/cayennes/kanji-colorize) with these
settings:
    mode: spectrum
    saturation: 0.95
    value: 0.75
    image_size: 327
It remains under a Creative Commons-Attribution-Share Alike 3.0 License.

The original SVG has the following copyright:

Copyright (C) 2009/2010/2011 Ulrich Apel.
This work is distributed under the conditions of the Creative Commons
Attribution-Share Alike 3.0 Licence. This means you are free:
* to Share - to copy, distribute and transmit the work
* to Remix - to adapt the work

Under the following conditions:
* Attribution. You must attribute the work by stating your use of KanjiVG in
  your own copyright header and linking to KanjiVG's website
  (http://kanjivg.tagaini.net)
* Share Alike. If you alter, transform, or build upon this work, you may
  distribute the resulting work only under the same or similar license to this
  one.

See http://creativecommons.org/licenses/by-sa/3.0/ for more details.
-->
<!DOCTYPE svg PUBLIC "-//W3C//DTD SVG 1.0//EN" "http://www.w3.org/TR/2001/REC-SVG-20010904/DTD/svg10.dtd" [
<!ATTLIST g
xmlns:kvg CDATA #FIXED "http://kanjivg.tagaini.net"
kvg:element CDATA #IMPLIED
kvg:variant CDATA #IMPLIED
kvg:partial CDATA #IMPLIED
kvg:original CDATA #IMPLIED
kvg:part CDATA #IMPLIED
kvg:number CDATA #IMPLIED
kvg:tradForm CDATA #IMPLIED
kvg:radicalForm CDATA #IMPLIED
kvg:position CDATA #IMPLIED
kvg:radical CDATA #IMPLIED
kvg:phon CDATA #IMPLIED >
<!ATTLIST path
xmlns:kvg CDATA #FIXED "http://kanjivg.tagaini.net"
kvg:type CDATA #IMPLIED >
]>
<svg xmlns="http://www.w3.org/2000/svg" width="327" height = "327" viewBox="0 0 327 327">
<g id="kvg:StrokePaths_0748b" style="fill:none;stroke:#000000;stroke-width:3;stroke-linecap:round;stroke-linejoin:round;" transform="scale(3.0,3.0)">
<g id="kvg:0748b" kvg:element="璋">
	<g id="kvg:0748b-g1" kvg:element="王" kvg:original="玉" kvg:partial="true" kvg:position="left" kvg:radical="general">
		<path style="stroke: #bf0909;" id="kvg:0748b-s1" kvg:type="㇐" d="M11.1,21.25c0.67,0.37,4.31,0.45,4.99,0.34c3.16-0.5,14.48-1.59,22.06-2.14c1.03-0.07,2.95-0.26,3.8,0.04"/>
		<path style="stroke: #bf5209;" id="kvg:0748b-s2" kvg:type="㇑a" d="M26.05,24.02c0.93,0.88,1.58,2.78,1.58,3.48c0,5.95,0.05,46.62-0.13,50.57"/>
		<path style="stroke: #bf9a09;" id="kvg:0748b-s3" kvg:type="㇐" d="M12.52,50c0.59,0.4,4.75,0.46,5.36,0.37c3.47-0.53,13.78-1.62,18.58-2.19c0.74-0.09,3.44-0.16,4.54,0.19"/>
		<path style="stroke: #9abf09;" id="kvg:0748b-s4" kvg:type="㇐" d="M11.75,83.61c1.25,1.12,3.36,1.61,4.24,1.12c5.61-3.09,14.12-8.14,22.67-13.48"/>
	</g>
	<g id="kvg:0748b-g2" kvg:element="章" kvg:position="right">
		<g id="kvg:0748b-g3" kvg:element="立" kvg:position="top">
			<g id="kvg:0748b-g4" kvg:element="亠" kvg:position="top">
				<path style="stroke: #52bf09;" id="kvg:0748b-s5" kvg:type="㇑a" d="M67.62,10.25c1.38,1,1.98,2.44,1.98,3.85s0,2.76,0,8.28"/>
				<path style="stroke: #09bf09;" id="kvg:0748b-s6" kvg:type="㇐" d="M48.04,23.99c1.28,0.43,2.79,0.55,4.06,0.43c9.4-0.92,28.65-3.42,37.35-3.52c2.14-0.03,3.42,0.2,4.49,0.42"/>
			</g>
			<g id="kvg:0748b-g5" kvg:position="bottom">
				<path style="stroke: #09bf52;" id="kvg:0748b-s7" kvg:type="㇔" d="M56.3,26.08c3.36,3.32,5.2,6.88,5.51,9.06"/>
				<path style="stroke: #09bf9a;" id="kvg:0748b-s8" kvg:type="㇒" d="M82.42,24.42c0.08,0.83,0.04,1.54-0.01,1.83c-0.39,2.02-3.49,7.34-4.47,8.88"/>
				<path style="stroke: #099abf;" id="kvg:0748b-s9" kvg:type="㇐" d="M42.23,38.95c1.41,0.37,3.06,0.46,4.46,0.37c10.28-0.66,29.6-3.47,47.14-3.76c2.35-0.04,3.76,0.18,4.94,0.37"/>
			</g>
		</g>
		<g id="kvg:0748b-g6" kvg:element="早" kvg:position="bottom">
			<g id="kvg:0748b-g7" kvg:element="日">
				<path style="stroke: #0952bf;" id="kvg:0748b-s10" kvg:type="㇑" d="M51.59,45.83c0.63,0.96,0.94,1.45,1.67,2.56c1.04,1.6,2.75,13.19,3.78,18.85"/>
				<path style="stroke: #0909bf;" id="kvg:0748b-s11" kvg:type="㇕a" d="M53.64,47.26c3.56-0.16,28.41-3.34,31.65-3.34c2.17,0,2.78,1.46,2.38,4.47c-0.21,1.61-1.62,9.94-3.6,17.03"/>
				<path style="stroke: #5209bf;" id="kvg:0748b-s12" kvg:type="㇐a" d="M55.69,56.4c7.4-0.99,23.68-2.36,30.73-2.66"/>
				<path style="stroke: #9a09bf;" id="kvg:0748b-s13" kvg:type="㇐a" d="M57.29,65.53c9.24-1.04,21.96-1.88,26.42-1.88"/>
			</g>
			<g id="kvg:0748b-g8" kvg:element="十">
				<path style="stroke: #bf099a;" id="kvg:0748b-s14" kvg:type="㇐" d="M42.78,77.51c1.63,0.37,4.63,0.51,6.24,0.37C59.25,77,78.25,75,93.55,74.41c2.71-0.11,4.34,0.18,5.7,0.36"/>
				<path style="stroke: #bf0952;" id="kvg:0748b-s15" kvg:type="㇑" d="M69.13,67.73c0.33,0.35,1.02,2.65,1.09,3.35c0.06,0.71-0.04,24.75-0.11,29.17"/>
			</g>
		</g>
	</g>
</g>
</g>
<g id="kvg:StrokeNumbers_0748b" style="font-size:8;fill:#808080" transform="scale(3.0,3.0)">
	<text style="fill: #bf0909;" transform="matrix(1 0 0 1 5.50 22.50)">1</text>
	<text style="fill: #bf5209;" transform="matrix(1 0 0 1 19.50 31.50)">2</text>
	<text style="fill: #bf9a09;" transform="matrix(1 0 0 1 5.50 50.50)">3</text>
	<text style="fill: #9abf09;" transform="matrix(1 0 0 1 4.54 85.50)">4</text>
	<text style="fill: #52bf09;" transform="matrix(1 0 0 1 58.50 10.50)">5</text>
	<text style="fill: #09bf09;" transform="matrix(1 0 0 1 45.50 20.50)">6</text>
	<text style="fill: #09bf52;" transform="matrix(1 0 0 1 51.50 32.50)">7</text>
	<text style="fill: #09bf9a;" transform="matrix(1 0 0 1 73.50 30.50)">8</text>
	<text style="fill: #099abf;" transform="matrix(1 0 0 1 40.50 35.50)">9</text>
	<text style="fill: #0952bf;" transform="matrix(1 0 0 1 45.25 56.95)">10</text>
	<text style="fill: #0909bf;" transform="matrix(1 0 0 1 56.50 45.50)">11</text>
	<text style="fill: #5209bf;" transform="matrix(1 0 0 1 59.50 53.50)">12</text>
	<text style="fill: #9a09bf;" transform="matrix(1 0 0 1 60.50 63.50)">13</text>
	<text style="fill: #bf099a;" transform="matrix(1 0 0 1 44.50 74.50)">14</text>
	<text style="fill: #bf0952;" transform="matrix(1 0 0 1 59.50 72.50)">15</text>
</g>
</svg>
