<?xml version="1.0" encoding="UTF-8"?>
<!--
This file has been modified from the original version by the kanji_colorize.py
script (available at http://github.com/cayennes/kanji-colorize) with these
settings:
    mode: spectrum
    saturation: 0.95
    value: 0.75
    image_size: 327
It remains under a Creative Commons-Attribution-Share Alike 3.0 License.

The original SVG has the following copyright:

Copyright (C) 2009/2010/2011 Ulrich Apel.
This work is distributed under the conditions of the Creative Commons
Attribution-Share Alike 3.0 Licence. This means you are free:
* to Share - to copy, distribute and transmit the work
* to Remix - to adapt the work

Under the following conditions:
* Attribution. You must attribute the work by stating your use of KanjiVG in
  your own copyright header and linking to KanjiVG's website
  (http://kanjivg.tagaini.net)
* Share Alike. If you alter, transform, or build upon this work, you may
  distribute the resulting work only under the same or similar license to this
  one.

See http://creativecommons.org/licenses/by-sa/3.0/ for more details.
-->
<!DOCTYPE svg PUBLIC "-//W3C//DTD SVG 1.0//EN" "http://www.w3.org/TR/2001/REC-SVG-20010904/DTD/svg10.dtd" [
<!ATTLIST g
xmlns:kvg CDATA #FIXED "http://kanjivg.tagaini.net"
kvg:element CDATA #IMPLIED
kvg:variant CDATA #IMPLIED
kvg:partial CDATA #IMPLIED
kvg:original CDATA #IMPLIED
kvg:part CDATA #IMPLIED
kvg:number CDATA #IMPLIED
kvg:tradForm CDATA #IMPLIED
kvg:radicalForm CDATA #IMPLIED
kvg:position CDATA #IMPLIED
kvg:radical CDATA #IMPLIED
kvg:phon CDATA #IMPLIED >
<!ATTLIST path
xmlns:kvg CDATA #FIXED "http://kanjivg.tagaini.net"
kvg:type CDATA #IMPLIED >
]>
<svg xmlns="http://www.w3.org/2000/svg" width="327" height = "327" viewBox="0 0 327 327">
<g id="kvg:StrokePaths_07528" style="fill:none;stroke:#000000;stroke-width:3;stroke-linecap:round;stroke-linejoin:round;" transform="scale(3.0,3.0)">
<g id="kvg:07528" kvg:element="用" kvg:radical="general">
	<path style="stroke: #bf0909;" id="kvg:07528-s1" kvg:type="㇒" d="M25.44,16.14c0.83,1.04,1.1,2.36,1.15,3.86C28.12,65.5,24.5,82,13.75,95"/>
	<path style="stroke: #9abf09;" id="kvg:07528-s2" kvg:type="㇆a" d="M27.8,18.84C43.75,17,71.5,14,81.92,13.47c4.07-0.21,5.75,2.03,5.75,5.18c0,6.1-0.32,50.35-0.32,71.37c0,14.98-8.09,2.23-9.84,1.34"/>
	<path style="stroke: #09bf52;" id="kvg:07528-s3" kvg:type="㇐a" d="M27.99,40.91c16.26-1.66,41.51-3.66,58.25-4.7"/>
	<path style="stroke: #0952bf;" id="kvg:07528-s4" kvg:type="㇐a" d="M27.25,62c14.88-1.38,43-3.25,59-4.25"/>
	<path style="stroke: #9a09bf;" id="kvg:07528-s5" kvg:type="㇑" d="M53.62,19.5c1.13,1,1.96,2.5,1.96,4.25c0,3.66,0,42.87-0.12,60.75c-0.03,4.11-0.06,7.09-0.1,8.25"/>
</g>
</g>
<g id="kvg:StrokeNumbers_07528" style="font-size:8;fill:#808080" transform="scale(3.0,3.0)">
	<text style="fill: #bf0909;" transform="matrix(1 0 0 1 20.50 27.13)">1</text>
	<text style="fill: #9abf09;" transform="matrix(1 0 0 1 31.50 15.50)">2</text>
	<text style="fill: #09bf52;" transform="matrix(1 0 0 1 32.25 37.50)">3</text>
	<text style="fill: #0952bf;" transform="matrix(1 0 0 1 32.25 58.50)">4</text>
	<text style="fill: #9a09bf;" transform="matrix(1 0 0 1 47.00 27.50)">5</text>
</g>
</svg>
