<?xml version="1.0" encoding="UTF-8"?>
<!--
This file has been modified from the original version by the kanji_colorize.py
script (available at http://github.com/cayennes/kanji-colorize) with these
settings:
    mode: spectrum
    saturation: 0.95
    value: 0.75
    image_size: 327
It remains under a Creative Commons-Attribution-Share Alike 3.0 License.

The original SVG has the following copyright:

Copyright (C) 2009/2010/2011 Ulrich Apel.
This work is distributed under the conditions of the Creative Commons
Attribution-Share Alike 3.0 Licence. This means you are free:
* to Share - to copy, distribute and transmit the work
* to Remix - to adapt the work

Under the following conditions:
* Attribution. You must attribute the work by stating your use of KanjiVG in
  your own copyright header and linking to KanjiVG's website
  (http://kanjivg.tagaini.net)
* Share Alike. If you alter, transform, or build upon this work, you may
  distribute the resulting work only under the same or similar license to this
  one.

See http://creativecommons.org/licenses/by-sa/3.0/ for more details.
-->
<!DOCTYPE svg PUBLIC "-//W3C//DTD SVG 1.0//EN" "http://www.w3.org/TR/2001/REC-SVG-20010904/DTD/svg10.dtd" [
<!ATTLIST g
xmlns:kvg CDATA #FIXED "http://kanjivg.tagaini.net"
kvg:element CDATA #IMPLIED
kvg:variant CDATA #IMPLIED
kvg:partial CDATA #IMPLIED
kvg:original CDATA #IMPLIED
kvg:part CDATA #IMPLIED
kvg:number CDATA #IMPLIED
kvg:tradForm CDATA #IMPLIED
kvg:radicalForm CDATA #IMPLIED
kvg:position CDATA #IMPLIED
kvg:radical CDATA #IMPLIED
kvg:phon CDATA #IMPLIED >
<!ATTLIST path
xmlns:kvg CDATA #FIXED "http://kanjivg.tagaini.net"
kvg:type CDATA #IMPLIED >
]>
<svg xmlns="http://www.w3.org/2000/svg" width="327" height = "327" viewBox="0 0 327 327">
<g id="kvg:StrokePaths_07533" style="fill:none;stroke:#000000;stroke-width:3;stroke-linecap:round;stroke-linejoin:round;" transform="scale(3.0,3.0)">
<g id="kvg:07533" kvg:element="申">
	<g id="kvg:07533-g1" kvg:element="田" kvg:partial="true" kvg:radical="tradit">
		<path style="stroke: #bf0909;" id="kvg:07533-s1" kvg:type="㇑" d="M21.5,29.62c1.19,1.19,1.94,2.25,2.19,3.96c1.29,9.01,2.73,19.81,4.19,32.77c0.17,1.48,0.33,2.99,0.5,4.53"/>
		<path style="stroke: #9abf09;" id="kvg:07533-s2" kvg:type="㇕a" d="M24.6,31.18c17.65-1.68,45.19-3.9,56.93-4.59c4.55-0.27,6.58,1.68,5.96,5.94c-1,6.91-3.3,19.86-5.18,29.76c-0.35,1.83-0.68,3.56-0.99,5.12"/>
		<path style="stroke: #09bf52;" id="kvg:07533-s3" kvg:type="㇐a" d="M26.9,48.95c15.47-1.33,39.22-2.83,57.36-3.38"/>
		<path style="stroke: #0952bf;" id="kvg:07533-s4" kvg:type="㇐a" d="M29.44,67.56c12.93-0.94,34.43-2.56,51.27-3"/>
	</g>
	<g id="kvg:07533-g2" kvg:element="丨" kvg:radical="nelson">
		<path style="stroke: #9a09bf;" id="kvg:07533-s5" kvg:type="㇑" d="M52.48,10c1.12,1.12,1.74,2.95,1.74,4.17c0,4.21,0.03,58.55,0.04,79.45c0,2.76,0,4.8,0,5.88"/>
	</g>
</g>
</g>
<g id="kvg:StrokeNumbers_07533" style="font-size:8;fill:#808080" transform="scale(3.0,3.0)">
	<text style="fill: #bf0909;" transform="matrix(1 0 0 1 17.25 39.13)">1</text>
	<text style="fill: #9abf09;" transform="matrix(1 0 0 1 25.50 27.13)">2</text>
	<text style="fill: #09bf52;" transform="matrix(1 0 0 1 31.50 44.50)">3</text>
	<text style="fill: #0952bf;" transform="matrix(1 0 0 1 31.50 63.13)">4</text>
	<text style="fill: #9a09bf;" transform="matrix(1 0 0 1 42.50 10.50)">5</text>
</g>
</svg>
