<?xml version="1.0" encoding="UTF-8"?>
<!--
This file has been modified from the original version by the kanji_colorize.py
script (available at http://github.com/cayennes/kanji-colorize) with these
settings:
    mode: spectrum
    saturation: 0.95
    value: 0.75
    image_size: 327
It remains under a Creative Commons-Attribution-Share Alike 3.0 License.

The original SVG has the following copyright:

Copyright (C) 2009/2010/2011 Ulrich Apel.
This work is distributed under the conditions of the Creative Commons
Attribution-Share Alike 3.0 Licence. This means you are free:
* to Share - to copy, distribute and transmit the work
* to Remix - to adapt the work

Under the following conditions:
* Attribution. You must attribute the work by stating your use of KanjiVG in
  your own copyright header and linking to KanjiVG's website
  (http://kanjivg.tagaini.net)
* Share Alike. If you alter, transform, or build upon this work, you may
  distribute the resulting work only under the same or similar license to this
  one.

See http://creativecommons.org/licenses/by-sa/3.0/ for more details.
-->
<!DOCTYPE svg PUBLIC "-//W3C//DTD SVG 1.0//EN" "http://www.w3.org/TR/2001/REC-SVG-20010904/DTD/svg10.dtd" [
<!ATTLIST g
xmlns:kvg CDATA #FIXED "http://kanjivg.tagaini.net"
kvg:element CDATA #IMPLIED
kvg:variant CDATA #IMPLIED
kvg:partial CDATA #IMPLIED
kvg:original CDATA #IMPLIED
kvg:part CDATA #IMPLIED
kvg:number CDATA #IMPLIED
kvg:tradForm CDATA #IMPLIED
kvg:radicalForm CDATA #IMPLIED
kvg:position CDATA #IMPLIED
kvg:radical CDATA #IMPLIED
kvg:phon CDATA #IMPLIED >
<!ATTLIST path
xmlns:kvg CDATA #FIXED "http://kanjivg.tagaini.net"
kvg:type CDATA #IMPLIED >
]>
<svg xmlns="http://www.w3.org/2000/svg" width="327" height = "327" viewBox="0 0 327 327">
<g id="kvg:StrokePaths_0753b" style="fill:none;stroke:#000000;stroke-width:3;stroke-linecap:round;stroke-linejoin:round;" transform="scale(3.0,3.0)">
<g id="kvg:0753b" kvg:element="画">
	<g id="kvg:0753b-g1" kvg:element="一" kvg:radical="nelson">
		<path style="stroke: #bf0909;" id="kvg:0753b-s1" kvg:type="㇐" d="M26.13,23.42c1.98,0.38,4.51,0.58,6.49,0.38c12.89-1.3,29.64-3.55,42.7-4.63c3.29-0.27,5.13-0.04,6.94,0.37"/>
	</g>
	<g id="kvg:0753b-g2" kvg:element="由">
		<g id="kvg:0753b-g3" kvg:element="田" kvg:radical="tradit">
			<path style="stroke: #bf9109;" id="kvg:0753b-s2" kvg:type="㇑" d="M30.75,39.44c0.97,0.97,1.46,1.57,1.78,3.27c1.21,6.36,2.51,18.29,3.34,28.78c0.1,1.27,0.19,2.53,0.28,3.76"/>
			<path style="stroke: #64bf09;" id="kvg:0753b-s3" kvg:type="㇕a" d="M33.25,41.27c12.25-2.02,32.09-4.15,39.43-4.71c3.12-0.24,4.71,1.67,4.54,3.43c-0.52,5.36-2,18.54-3.76,27.49c-0.36,1.85-0.74,3.54-1.12,4.97"/>
			<g id="kvg:0753b-g4" kvg:element="丨">
				<path style="stroke: #09bf36;" id="kvg:0753b-s4" kvg:type="㇑a" d="M52.65,24.07c0.84,0.85,1.34,2.09,1.34,3.21c0,10.84-0.09,37.09-0.09,42.8"/>
			</g>
			<path style="stroke: #09bfbf;" id="kvg:0753b-s5" kvg:type="㇐a" d="M35.63,56.14c8.25-1.39,32.87-3.89,38.7-3.96"/>
			<path style="stroke: #0936bf;" id="kvg:0753b-s6" kvg:type="㇐a" d="M37.25,72.82C48.5,71.75,59.75,70,71.94,69.7"/>
		</g>
	</g>
	<g id="kvg:0753b-g5" kvg:element="凵">
		<path style="stroke: #6409bf;" id="kvg:0753b-s7" kvg:type="㇄a" d="M18.06,46.13c1.34,1.34,1.77,3.48,1.72,5.12c-0.28,8.63-0.5,21.08-0.93,34.25c0,2.75,0.42,3.73,3.51,3.37c11.95-1.39,52.28-3.55,66.89-4.26"/>
		<path style="stroke: #bf0991;" id="kvg:0753b-s8" kvg:type="㇑" d="M91.86,36.88c1,1,1.5,2.33,1.4,4.38c-0.53,11.45-1.3,25.21-2.48,41.7c-0.15,2.06-0.3,4.16-0.45,6.3"/>
	</g>
</g>
</g>
<g id="kvg:StrokeNumbers_0753b" style="font-size:8;fill:#808080" transform="scale(3.0,3.0)">
	<text style="fill: #bf0909;" transform="matrix(1 0 0 1 18.75 25.63)">1</text>
	<text style="fill: #bf9109;" transform="matrix(1 0 0 1 24.75 49.63)">2</text>
	<text style="fill: #64bf09;" transform="matrix(1 0 0 1 35.25 37.63)">3</text>
	<text style="fill: #09bf36;" transform="matrix(1 0 0 1 59.25 33.13)">4</text>
	<text style="fill: #09bfbf;" transform="matrix(1 0 0 1 38.25 52.63)">5</text>
	<text style="fill: #0936bf;" transform="matrix(1 0 0 1 39.75 69.13)">6</text>
	<text style="fill: #6409bf;" transform="matrix(1 0 0 1 9.75 46.63)">7</text>
	<text style="fill: #bf0991;" transform="matrix(1 0 0 1 98.25 43.63)">8</text>
</g>
</svg>
