<?xml version="1.0" encoding="UTF-8"?>
<!--
This file has been modified from the original version by the kanji_colorize.py
script (available at http://github.com/cayennes/kanji-colorize) with these
settings:
    mode: spectrum
    saturation: 0.95
    value: 0.75
    image_size: 327
It remains under a Creative Commons-Attribution-Share Alike 3.0 License.

The original SVG has the following copyright:

Copyright (C) 2009/2010/2011 Ulrich Apel.
This work is distributed under the conditions of the Creative Commons
Attribution-Share Alike 3.0 Licence. This means you are free:
* to Share - to copy, distribute and transmit the work
* to Remix - to adapt the work

Under the following conditions:
* Attribution. You must attribute the work by stating your use of KanjiVG in
  your own copyright header and linking to KanjiVG's website
  (http://kanjivg.tagaini.net)
* Share Alike. If you alter, transform, or build upon this work, you may
  distribute the resulting work only under the same or similar license to this
  one.

See http://creativecommons.org/licenses/by-sa/3.0/ for more details.
-->
<!DOCTYPE svg PUBLIC "-//W3C//DTD SVG 1.0//EN" "http://www.w3.org/TR/2001/REC-SVG-20010904/DTD/svg10.dtd" [
<!ATTLIST g
xmlns:kvg CDATA #FIXED "http://kanjivg.tagaini.net"
kvg:element CDATA #IMPLIED
kvg:variant CDATA #IMPLIED
kvg:partial CDATA #IMPLIED
kvg:original CDATA #IMPLIED
kvg:part CDATA #IMPLIED
kvg:number CDATA #IMPLIED
kvg:tradForm CDATA #IMPLIED
kvg:radicalForm CDATA #IMPLIED
kvg:position CDATA #IMPLIED
kvg:radical CDATA #IMPLIED
kvg:phon CDATA #IMPLIED >
<!ATTLIST path
xmlns:kvg CDATA #FIXED "http://kanjivg.tagaini.net"
kvg:type CDATA #IMPLIED >
]>
<svg xmlns="http://www.w3.org/2000/svg" width="327" height = "327" viewBox="0 0 327 327">
<g id="kvg:StrokePaths_07544" style="fill:none;stroke:#000000;stroke-width:3;stroke-linecap:round;stroke-linejoin:round;" transform="scale(3.0,3.0)">
<g id="kvg:07544" kvg:element="畄">
	<g id="kvg:07544-g1" kvg:element="⺍" kvg:original="つ" kvg:position="top">
		<path style="stroke: #bf0909;" id="kvg:07544-s1" kvg:type="㇔" d="M16.93,21.58c6.48,7.26,13.42,19.96,14.34,23.59"/>
		<path style="stroke: #bf9109;" id="kvg:07544-s2" kvg:type="㇔" d="M43.78,15.67c3.08,4.92,10.49,17.82,11.72,25.81"/>
		<path style="stroke: #64bf09;" id="kvg:07544-s3" kvg:type="㇒" d="M88.81,15.08c0.81,1.22,0.78,3.36-0.28,4.88C85,25,73.75,41,68.34,46.92"/>
	</g>
	<g id="kvg:07544-g2" kvg:element="田" kvg:position="bottom" kvg:radical="general">
		<path style="stroke: #09bf36;" id="kvg:07544-s4" kvg:type="㇑" d="M22.26,54.8c0.43,0.71,1.43,2.69,1.66,3.57c1.89,7.24,4.09,25.3,5.2,38.63"/>
		<path style="stroke: #09bfbf;" id="kvg:07544-s5" kvg:type="㇕a" d="M23.76,56.4c17.24-1.65,46.25-3.96,57.46-4.67c4.12-0.26,5.71,2.84,5.49,4.77c-0.82,7.1-2.96,25.74-5.79,38.45"/>
		<path style="stroke: #0936bf;" id="kvg:07544-s6" kvg:type="㇑a" d="M52.96,56.69c0.79,0.81,1.45,2.31,1.45,3.8c0,8.39,0.27,28.92,0.27,31.97"/>
		<path style="stroke: #6409bf;" id="kvg:07544-s7" kvg:type="㇐a" d="M26.94,74.96C31.83,74.61,80.79,71,84.83,71"/>
		<path style="stroke: #bf0991;" id="kvg:07544-s8" kvg:type="㇐a" d="M28.91,94.12c10.81,0,37.71-2.62,52.63-2.81"/>
	</g>
</g>
</g>
<g id="kvg:StrokeNumbers_07544" style="font-size:8;fill:#808080" transform="scale(3.0,3.0)">
	<text style="fill: #bf0909;" transform="matrix(1 0 0 1 9.50 21.50)">1</text>
	<text style="fill: #bf9109;" transform="matrix(1 0 0 1 36.50 15.50)">2</text>
	<text style="fill: #64bf09;" transform="matrix(1 0 0 1 79.50 15.50)">3</text>
	<text style="fill: #09bf36;" transform="matrix(1 0 0 1 16.50 62.50)">4</text>
	<text style="fill: #09bfbf;" transform="matrix(1 0 0 1 25.50 52.50)">5</text>
	<text style="fill: #0936bf;" transform="matrix(1 0 0 1 46.50 63.50)">6</text>
	<text style="fill: #6409bf;" transform="matrix(1 0 0 1 31.50 71.50)">7</text>
	<text style="fill: #bf0991;" transform="matrix(1 0 0 1 32.50 90.50)">8</text>
</g>
</svg>
