<?xml version="1.0" encoding="UTF-8"?>
<!--
This file has been modified from the original version by the kanji_colorize.py
script (available at http://github.com/cayennes/kanji-colorize) with these
settings:
    mode: spectrum
    saturation: 0.95
    value: 0.75
    image_size: 327
It remains under a Creative Commons-Attribution-Share Alike 3.0 License.

The original SVG has the following copyright:

Copyright (C) 2009/2010/2011 Ulrich Apel.
This work is distributed under the conditions of the Creative Commons
Attribution-Share Alike 3.0 Licence. This means you are free:
* to Share - to copy, distribute and transmit the work
* to Remix - to adapt the work

Under the following conditions:
* Attribution. You must attribute the work by stating your use of KanjiVG in
  your own copyright header and linking to KanjiVG's website
  (http://kanjivg.tagaini.net)
* Share Alike. If you alter, transform, or build upon this work, you may
  distribute the resulting work only under the same or similar license to this
  one.

See http://creativecommons.org/licenses/by-sa/3.0/ for more details.
-->
<!DOCTYPE svg PUBLIC "-//W3C//DTD SVG 1.0//EN" "http://www.w3.org/TR/2001/REC-SVG-20010904/DTD/svg10.dtd" [
<!ATTLIST g
xmlns:kvg CDATA #FIXED "http://kanjivg.tagaini.net"
kvg:element CDATA #IMPLIED
kvg:variant CDATA #IMPLIED
kvg:partial CDATA #IMPLIED
kvg:original CDATA #IMPLIED
kvg:part CDATA #IMPLIED
kvg:number CDATA #IMPLIED
kvg:tradForm CDATA #IMPLIED
kvg:radicalForm CDATA #IMPLIED
kvg:position CDATA #IMPLIED
kvg:radical CDATA #IMPLIED
kvg:phon CDATA #IMPLIED >
<!ATTLIST path
xmlns:kvg CDATA #FIXED "http://kanjivg.tagaini.net"
kvg:type CDATA #IMPLIED >
]>
<svg xmlns="http://www.w3.org/2000/svg" width="327" height = "327" viewBox="0 0 327 327">
<g id="kvg:StrokePaths_07565" style="fill:none;stroke:#000000;stroke-width:3;stroke-linecap:round;stroke-linejoin:round;" transform="scale(3.0,3.0)">
<g id="kvg:07565" kvg:element="略">
	<g id="kvg:07565-g1" kvg:element="田" kvg:position="left" kvg:radical="general">
		<path style="stroke: #bf0909;" id="kvg:07565-s1" kvg:type="㇑" d="M12.37,33.18c0.66,0.66,0.97,2.03,1.09,2.98c0.86,6.97,1.24,24.04,1.72,37.84c0.06,1.64,0.11,3.23,0.17,4.76"/>
		<path style="stroke: #bf6c09;" id="kvg:07565-s2" kvg:type="㇕a" d="M14.39,35.1c9.74-1.85,17.22-2.86,22.92-3.62c2.09-0.28,4.16,1.98,4.05,4.06c-0.38,6.99-0.32,23.26-0.8,35.2c-0.05,1.13-0.09,2.22-0.12,3.25"/>
		<path style="stroke: #aebf09;" id="kvg:07565-s3" kvg:type="㇑a" d="M26.73,34.13c0.63,0.63,0.97,1.74,0.97,2.86c0,9.1,0.14,32.39,0.14,35.66"/>
		<path style="stroke: #4bbf09;" id="kvg:07565-s4" kvg:type="㇐a" d="M15.75,53.34c2.49-0.38,22.33-2.64,24.39-2.64"/>
		<path style="stroke: #09bf2a;" id="kvg:07565-s5" kvg:type="㇐a" d="M16.25,75.73c8.5-1.23,14.25-2.23,23.24-2.95"/>
	</g>
	<g id="kvg:07565-g2" kvg:element="各" kvg:position="right" kvg:phon="各">
		<g id="kvg:07565-g3" kvg:element="夂" kvg:position="top">
			<path style="stroke: #09bf8d;" id="kvg:07565-s6" kvg:type="㇒" d="M60.81,14c0,0.88-0.01,1.89-0.33,2.88C58.5,23,53.88,35.38,46.87,44.42"/>
			<path style="stroke: #098dbf;" id="kvg:07565-s7" kvg:type="㇇" d="M61.48,23.93c0.33,0.04,1.73,0,2.67-0.12c3.09-0.37,9.78-2.45,14.19-3.59c3.03-0.78,3.89,1.39,3.12,3.52C77.22,35.38,63.25,58,45.75,66.25"/>
			<path style="stroke: #092abf;" id="kvg:07565-s8" kvg:type="㇏" d="M56.66,32.47c5.09,4.28,22.16,18.95,31.12,25.61c1.32,0.98,4.97,3.29,8.01,4.74"/>
		</g>
		<g id="kvg:07565-g4" kvg:element="口" kvg:position="bottom">
			<path style="stroke: #4b09bf;" id="kvg:07565-s9" kvg:type="㇑" d="M51.36,70.35c1.02,1.02,1.5,2.03,1.68,3.3c0.84,5.98,1.09,11.36,1.84,17.59c0.19,1.59,0.27,3.18,0.4,4.72"/>
			<path style="stroke: #ae09bf;" id="kvg:07565-s10" kvg:type="㇕b" d="M53.69,72.32c8.94-1.41,22.8-3.27,29.07-4.16c2.87-0.41,4.49,1.59,4.05,3.86c-0.97,5.02-2.12,11.85-3.52,18.2"/>
			<path style="stroke: #bf096c;" id="kvg:07565-s11" kvg:type="㇐b" d="M56.22,93.61c5.04-0.57,17.75-1.51,26.05-2.41c1.1-0.12,2.48-0.1,3.54-0.1"/>
		</g>
	</g>
</g>
</g>
<g id="kvg:StrokeNumbers_07565" style="font-size:8;fill:#808080" transform="scale(3.0,3.0)">
	<text style="fill: #bf0909;" transform="matrix(1 0 0 1 6.75 43.63)">1</text>
	<text style="fill: #bf6c09;" transform="matrix(1 0 0 1 17.25 31.50)">2</text>
	<text style="fill: #aebf09;" transform="matrix(1 0 0 1 20.50 42.50)">3</text>
	<text style="fill: #4bbf09;" transform="matrix(1 0 0 1 17.50 50.50)">4</text>
	<text style="fill: #09bf2a;" transform="matrix(1 0 0 1 18.75 71.90)">5</text>
	<text style="fill: #09bf8d;" transform="matrix(1 0 0 1 51.75 19.63)">6</text>
	<text style="fill: #098dbf;" transform="matrix(1 0 0 1 66.50 20.50)">7</text>
	<text style="fill: #092abf;" transform="matrix(1 0 0 1 62.50 34.55)">8</text>
	<text style="fill: #4b09bf;" transform="matrix(1 0 0 1 45.75 81.13)">9</text>
	<text style="fill: #ae09bf;" transform="matrix(1 0 0 1 56.50 68.50)">10</text>
	<text style="fill: #bf096c;" transform="matrix(1 0 0 1 59.50 90.05)">11</text>
</g>
</svg>
