<?xml version="1.0" encoding="UTF-8"?>
<!--
This file has been modified from the original version by the kanji_colorize.py
script (available at http://github.com/cayennes/kanji-colorize) with these
settings:
    mode: spectrum
    saturation: 0.95
    value: 0.75
    image_size: 327
It remains under a Creative Commons-Attribution-Share Alike 3.0 License.

The original SVG has the following copyright:

Copyright (C) 2009/2010/2011 Ulrich Apel.
This work is distributed under the conditions of the Creative Commons
Attribution-Share Alike 3.0 Licence. This means you are free:
* to Share - to copy, distribute and transmit the work
* to Remix - to adapt the work

Under the following conditions:
* Attribution. You must attribute the work by stating your use of KanjiVG in
  your own copyright header and linking to KanjiVG's website
  (http://kanjivg.tagaini.net)
* Share Alike. If you alter, transform, or build upon this work, you may
  distribute the resulting work only under the same or similar license to this
  one.

See http://creativecommons.org/licenses/by-sa/3.0/ for more details.
-->
<!DOCTYPE svg PUBLIC "-//W3C//DTD SVG 1.0//EN" "http://www.w3.org/TR/2001/REC-SVG-20010904/DTD/svg10.dtd" [
<!ATTLIST g
xmlns:kvg CDATA #FIXED "http://kanjivg.tagaini.net"
kvg:element CDATA #IMPLIED
kvg:variant CDATA #IMPLIED
kvg:partial CDATA #IMPLIED
kvg:original CDATA #IMPLIED
kvg:part CDATA #IMPLIED
kvg:number CDATA #IMPLIED
kvg:tradForm CDATA #IMPLIED
kvg:radicalForm CDATA #IMPLIED
kvg:position CDATA #IMPLIED
kvg:radical CDATA #IMPLIED
kvg:phon CDATA #IMPLIED >
<!ATTLIST path
xmlns:kvg CDATA #FIXED "http://kanjivg.tagaini.net"
kvg:type CDATA #IMPLIED >
]>
<svg xmlns="http://www.w3.org/2000/svg" width="327" height = "327" viewBox="0 0 327 327">
<g id="kvg:StrokePaths_0759a" style="fill:none;stroke:#000000;stroke-width:3;stroke-linecap:round;stroke-linejoin:round;" transform="scale(3.0,3.0)">
<g id="kvg:0759a" kvg:element="疚">
	<g id="kvg:0759a-g1" kvg:element="疒" kvg:position="tare" kvg:radical="general">
		<path style="stroke: #bf0909;" id="kvg:0759a-s1" kvg:type="㇑a" d="M55.81,12.13c0.76,0.38,1.86,2.88,2.01,3.65c0.15,0.77,0.08,3.65-0.07,8.46"/>
		<path style="stroke: #bf9109;" id="kvg:0759a-s2" kvg:type="㇐" d="M25.63,25.49c1.89,0.67,5.36,0.78,7.26,0.67c19.7-1.13,35.59-2.64,53.12-3.52c3.15-0.16,5.05,0.32,6.62,0.66"/>
		<path style="stroke: #64bf09;" id="kvg:0759a-s3" kvg:type="㇒" d="M30.49,26.5c0,0.93,0,1.85-0.01,2.76c-0.18,35.05-3.83,51.63-17.18,66.46"/>
		<path style="stroke: #09bf36;" id="kvg:0759a-s4" kvg:type="㇔" d="M12.5,36.75c3.35,1.94,8.66,7.98,9.5,11"/>
		<path style="stroke: #09bfbf;" id="kvg:0759a-s5" kvg:type="㇀" d="M10.67,67.04c1.53,0.67,2.01,0.47,3.35-0.34c5.45-3.28,7.1-4.37,11.22-7.2"/>
	</g>
	<g id="kvg:0759a-g2" kvg:element="久">
		<g id="kvg:0759a-g3" kvg:element="𠂊" kvg:variant="true" kvg:original="勹">
			<g id="kvg:0759a-g4" kvg:element="丿">
				<path style="stroke: #0936bf;" id="kvg:0759a-s6" kvg:type="㇒" d="M57.05,32c0.06,0.77,0.12,1.98-0.12,3.08c-1.38,6.48-8.42,21.13-19.23,29.84"/>
			</g>
			<path style="stroke: #6409bf;" id="kvg:0759a-s7" kvg:type="㇇" d="M56.46,41.9c1.28,0.29,3.06,0.77,4.51,0.58c2.92-0.39,12.83-2.55,14.37-2.71c1.87-0.19,2.5,1.03,2.05,2.23c-6.15,16.5-25.4,44.5-51.65,54"/>
		</g>
		<path style="stroke: #bf0991;" id="kvg:0759a-s8" kvg:type="㇏" d="M63.04,66.77C68,73.25,83.25,88.75,89.89,92.79c1.71,1.04,2.84,1.85,4.36,2.21"/>
	</g>
</g>
</g>
<g id="kvg:StrokeNumbers_0759a" style="font-size:8;fill:#808080" transform="scale(3.0,3.0)">
	<text style="fill: #bf0909;" transform="matrix(1 0 0 1 48.85 11.85)">1</text>
	<text style="fill: #bf9109;" transform="matrix(1 0 0 1 29.66 22.50)">2</text>
	<text style="fill: #64bf09;" transform="matrix(1 0 0 1 22.50 35.85)">3</text>
	<text style="fill: #09bf36;" transform="matrix(1 0 0 1 5.50 37.50)">4</text>
	<text style="fill: #09bfbf;" transform="matrix(1 0 0 1 3.72 69.50)">5</text>
	<text style="fill: #0936bf;" transform="matrix(1 0 0 1 49.50 34.50)">6</text>
	<text style="fill: #6409bf;" transform="matrix(1 0 0 1 62.50 39.50)">7</text>
	<text style="fill: #bf0991;" transform="matrix(1 0 0 1 69.50 70.50)">8</text>
</g>
</svg>
