<?xml version="1.0" encoding="UTF-8"?>
<!--
This file has been modified from the original version by the kanji_colorize.py
script (available at http://github.com/cayennes/kanji-colorize) with these
settings:
    mode: spectrum
    saturation: 0.95
    value: 0.75
    image_size: 327
It remains under a Creative Commons-Attribution-Share Alike 3.0 License.

The original SVG has the following copyright:

Copyright (C) 2009/2010/2011 Ulrich Apel.
This work is distributed under the conditions of the Creative Commons
Attribution-Share Alike 3.0 Licence. This means you are free:
* to Share - to copy, distribute and transmit the work
* to Remix - to adapt the work

Under the following conditions:
* Attribution. You must attribute the work by stating your use of KanjiVG in
  your own copyright header and linking to KanjiVG's website
  (http://kanjivg.tagaini.net)
* Share Alike. If you alter, transform, or build upon this work, you may
  distribute the resulting work only under the same or similar license to this
  one.

See http://creativecommons.org/licenses/by-sa/3.0/ for more details.
-->
<!DOCTYPE svg PUBLIC "-//W3C//DTD SVG 1.0//EN" "http://www.w3.org/TR/2001/REC-SVG-20010904/DTD/svg10.dtd" [
<!ATTLIST g
xmlns:kvg CDATA #FIXED "http://kanjivg.tagaini.net"
kvg:element CDATA #IMPLIED
kvg:variant CDATA #IMPLIED
kvg:partial CDATA #IMPLIED
kvg:original CDATA #IMPLIED
kvg:part CDATA #IMPLIED
kvg:number CDATA #IMPLIED
kvg:tradForm CDATA #IMPLIED
kvg:radicalForm CDATA #IMPLIED
kvg:position CDATA #IMPLIED
kvg:radical CDATA #IMPLIED
kvg:phon CDATA #IMPLIED >
<!ATTLIST path
xmlns:kvg CDATA #FIXED "http://kanjivg.tagaini.net"
kvg:type CDATA #IMPLIED >
]>
<svg xmlns="http://www.w3.org/2000/svg" width="327" height = "327" viewBox="0 0 327 327">
<g id="kvg:StrokePaths_075b8" style="fill:none;stroke:#000000;stroke-width:3;stroke-linecap:round;stroke-linejoin:round;" transform="scale(3.0,3.0)">
<g id="kvg:075b8" kvg:element="疸">
	<g id="kvg:075b8-g1" kvg:element="疒" kvg:position="tare" kvg:radical="general">
		<path style="stroke: #bf0909;" id="kvg:075b8-s1" kvg:type="㇑a" d="M55.41,11.13c0.7,0.36,2.18,2.66,2.32,3.37c0.14,0.71,0.07,4.3-0.07,8.74"/>
		<path style="stroke: #bf7609;" id="kvg:075b8-s2" kvg:type="㇐" d="M25.13,24.73c1.52,0.54,4.3,0.63,5.82,0.54c15.8-0.91,42.05-2.02,56.11-2.73c2.53-0.13,4.05,0.26,5.31,0.53"/>
		<path style="stroke: #9abf09;" id="kvg:075b8-s3" kvg:type="㇒" d="M30.74,25.25c0,1.27-0.01,2.52-0.02,3.75c-0.28,31.57-4.31,48.5-17.17,66.47"/>
		<path style="stroke: #2dbf09;" id="kvg:075b8-s4" kvg:type="㇔" d="M12,35.75c3.71,2.12,9.57,8.71,10.5,12"/>
		<path style="stroke: #09bf52;" id="kvg:075b8-s5" kvg:type="㇀" d="M11.17,67.02c1.36,0.7,1.79,0.5,2.99-0.36c4.86-3.46,7.66-5.67,11.34-8.66"/>
	</g>
	<g id="kvg:075b8-g2" kvg:element="旦">
		<g id="kvg:075b8-g3" kvg:element="日" kvg:position="top">
			<path style="stroke: #09bfbf;" id="kvg:075b8-s6" kvg:type="㇑" d="M46.19,39.51c0.42,0.93,0.79,1.9,0.85,3.15c0.21,4.09,1.86,36.24,2,37.49"/>
			<path style="stroke: #0952bf;" id="kvg:075b8-s7" kvg:type="㇕a" d="M48.24,41.42c2.39-0.16,23.6-2.99,25.78-3.18c1.82-0.16,2.99,1.72,2.84,2.65c-0.28,1.87-1.56,36.7-1.56,37.63"/>
			<path style="stroke: #2d09bf;" id="kvg:075b8-s8" kvg:type="㇐a" d="M49.33,58.48c3.24,0,21.67-1.56,25.33-1.56"/>
			<path style="stroke: #9a09bf;" id="kvg:075b8-s9" kvg:type="㇐a" d="M48.91,77.35c7.4-0.71,18.93-1.26,25.89-1.58"/>
		</g>
		<g id="kvg:075b8-g4" kvg:element="一" kvg:position="bottom">
			<path style="stroke: #bf0976;" id="kvg:075b8-s10" kvg:type="㇐" d="M29.3,91.71c1.76,0.7,5,0.74,6.76,0.7c15.58-0.35,34.74-2.29,52.96-2.27c2.94,0,4.7,0.33,6.17,0.69"/>
		</g>
	</g>
</g>
</g>
<g id="kvg:StrokeNumbers_075b8" style="font-size:8;fill:#808080" transform="scale(3.0,3.0)">
	<text style="fill: #bf0909;" transform="matrix(1 0 0 1 47.50 11.50)">1</text>
	<text style="fill: #bf7609;" transform="matrix(1 0 0 1 28.50 21.85)">2</text>
	<text style="fill: #9abf09;" transform="matrix(1 0 0 1 23.71 34.50)">3</text>
	<text style="fill: #2dbf09;" transform="matrix(1 0 0 1 4.50 36.50)">4</text>
	<text style="fill: #09bf52;" transform="matrix(1 0 0 1 2.50 71.50)">5</text>
	<text style="fill: #09bfbf;" transform="matrix(1 0 0 1 39.44 47.50)">6</text>
	<text style="fill: #0952bf;" transform="matrix(1 0 0 1 50.50 38.50)">7</text>
	<text style="fill: #2d09bf;" transform="matrix(1 0 0 1 52.50 55.50)">8</text>
	<text style="fill: #9a09bf;" transform="matrix(1 0 0 1 53.50 74.50)">9</text>
	<text style="fill: #bf0976;" transform="matrix(1 0 0 1 27.50 88.50)">10</text>
</g>
</svg>
