<?xml version="1.0" encoding="UTF-8"?>
<!--
This file has been modified from the original version by the kanji_colorize.py
script (available at http://github.com/cayennes/kanji-colorize) with these
settings:
    mode: spectrum
    saturation: 0.95
    value: 0.75
    image_size: 327
It remains under a Creative Commons-Attribution-Share Alike 3.0 License.

The original SVG has the following copyright:

Copyright (C) 2009/2010/2011 Ulrich Apel.
This work is distributed under the conditions of the Creative Commons
Attribution-Share Alike 3.0 Licence. This means you are free:
* to Share - to copy, distribute and transmit the work
* to Remix - to adapt the work

Under the following conditions:
* Attribution. You must attribute the work by stating your use of KanjiVG in
  your own copyright header and linking to KanjiVG's website
  (http://kanjivg.tagaini.net)
* Share Alike. If you alter, transform, or build upon this work, you may
  distribute the resulting work only under the same or similar license to this
  one.

See http://creativecommons.org/licenses/by-sa/3.0/ for more details.
-->
<!DOCTYPE svg PUBLIC "-//W3C//DTD SVG 1.0//EN" "http://www.w3.org/TR/2001/REC-SVG-20010904/DTD/svg10.dtd" [
<!ATTLIST g
xmlns:kvg CDATA #FIXED "http://kanjivg.tagaini.net"
kvg:element CDATA #IMPLIED
kvg:variant CDATA #IMPLIED
kvg:partial CDATA #IMPLIED
kvg:original CDATA #IMPLIED
kvg:part CDATA #IMPLIED
kvg:number CDATA #IMPLIED
kvg:tradForm CDATA #IMPLIED
kvg:radicalForm CDATA #IMPLIED
kvg:position CDATA #IMPLIED
kvg:radical CDATA #IMPLIED
kvg:phon CDATA #IMPLIED >
<!ATTLIST path
xmlns:kvg CDATA #FIXED "http://kanjivg.tagaini.net"
kvg:type CDATA #IMPLIED >
]>
<svg xmlns="http://www.w3.org/2000/svg" width="327" height = "327" viewBox="0 0 327 327">
<g id="kvg:StrokePaths_075ca" style="fill:none;stroke:#000000;stroke-width:3;stroke-linecap:round;stroke-linejoin:round;" transform="scale(3.0,3.0)">
<g id="kvg:075ca" kvg:element="痊">
	<g id="kvg:075ca-g1" kvg:element="疒" kvg:position="tare" kvg:radical="general">
		<path style="stroke: #bf0909;" id="kvg:075ca-s1" kvg:type="㇑a" d="M55.41,13.13c0.7,0.36,2.18,2.66,2.32,3.37c0.14,0.71,0.07,3.8-0.07,8.24"/>
		<path style="stroke: #bf6c09;" id="kvg:075ca-s2" kvg:type="㇐" d="M28.13,25.73c1.52,0.54,4.3,0.63,5.82,0.54c15.8-0.91,37.55-1.52,51.61-2.23c2.53-0.13,4.05,0.26,5.31,0.53"/>
		<path style="stroke: #aebf09;" id="kvg:075ca-s3" kvg:type="㇒" d="M30.99,27c0,1.1,0,2.18-0.01,3.25c-0.24,33.26-4.38,49.18-16.67,62.72"/>
		<path style="stroke: #4bbf09;" id="kvg:075ca-s4" kvg:type="㇔" d="M14.25,36.75c2.91,2.12,7.52,8.71,8.25,12"/>
		<path style="stroke: #09bf2a;" id="kvg:075ca-s5" kvg:type="㇀" d="M10.67,64.98c1.63,0.76,2.13,0.54,3.56-0.38c5.79-3.74,7.63-4.62,12.01-7.85"/>
	</g>
	<g id="kvg:075ca-g2" kvg:element="全">
		<g id="kvg:075ca-g3" kvg:element="人" kvg:variant="true" kvg:original="入" kvg:position="top">
			<path style="stroke: #09bf8d;" id="kvg:075ca-s6" kvg:type="㇒" d="M59.43,31.5c0.07,0.7,0.25,1.84-0.14,2.81c-2.43,6.02-11.54,17.94-24.04,26.85"/>
			<path style="stroke: #098dbf;" id="kvg:075ca-s7" kvg:type="㇏" d="M59.19,34.94c5.08,4.12,22.1,18.22,26.69,21.35c1.56,1.06,3.56,1.52,5.12,1.82"/>
		</g>
		<g id="kvg:075ca-g4" kvg:element="王" kvg:original="玉" kvg:partial="true" kvg:position="bottom">
			<path style="stroke: #092abf;" id="kvg:075ca-s8" kvg:type="㇐" d="M45.38,60.57c0.81,0.36,3.43,0.56,4.25,0.52C56.75,60.75,65.5,59,72.89,58.4c1.24-0.1,2.38,0.07,3.4,0.37"/>
			<path style="stroke: #4b09bf;" id="kvg:075ca-s9" kvg:type="㇑a" d="M59.62,60.72c0.71,0.86,0.71,1.38,0.71,2.07c0,4.83,0.36,24.61,0.18,29.44"/>
			<path style="stroke: #ae09bf;" id="kvg:075ca-s10" kvg:type="㇐" d="M44,76.31c0.77,0.45,3.31,0.28,4.1,0.2c8.2-0.79,16.02-1.5,25.65-2.31c0.96-0.08,3.08-0.18,4.51,0.21"/>
			<path style="stroke: #bf096c;" id="kvg:075ca-s11" kvg:type="㇐" d="M33.82,93.55c2.26,0.45,4.76,0.61,6.05,0.5c18.16-1.55,25.76-1.8,45.17-2.34c2.09-0.06,4.59,0.37,5.63,0.71"/>
		</g>
	</g>
</g>
</g>
<g id="kvg:StrokeNumbers_075ca" style="font-size:8;fill:#808080" transform="scale(3.0,3.0)">
	<text style="fill: #bf0909;" transform="matrix(1 0 0 1 47.50 13.50)">1</text>
	<text style="fill: #bf6c09;" transform="matrix(1 0 0 1 30.50 22.50)">2</text>
	<text style="fill: #aebf09;" transform="matrix(1 0 0 1 23.71 34.50)">3</text>
	<text style="fill: #4bbf09;" transform="matrix(1 0 0 1 7.50 37.50)">4</text>
	<text style="fill: #09bf2a;" transform="matrix(1 0 0 1 3.72 67.50)">5</text>
	<text style="fill: #09bf8d;" transform="matrix(1 0 0 1 51.50 34.50)">6</text>
	<text style="fill: #098dbf;" transform="matrix(1 0 0 1 66.50 38.50)">7</text>
	<text style="fill: #092abf;" transform="matrix(1 0 0 1 48.50 58.50)">8</text>
	<text style="fill: #4b09bf;" transform="matrix(1 0 0 1 52.25 70.50)">9</text>
	<text style="fill: #ae09bf;" transform="matrix(1 0 0 1 33.25 77.50)">10</text>
	<text style="fill: #bf096c;" transform="matrix(1 0 0 1 31.50 90.88)">11</text>
</g>
</svg>
