<?xml version="1.0" encoding="UTF-8"?>
<!--
This file has been modified from the original version by the kanji_colorize.py
script (available at http://github.com/cayennes/kanji-colorize) with these
settings:
    mode: spectrum
    saturation: 0.95
    value: 0.75
    image_size: 327
It remains under a Creative Commons-Attribution-Share Alike 3.0 License.

The original SVG has the following copyright:

Copyright (C) 2009/2010/2011 Ulrich Apel.
This work is distributed under the conditions of the Creative Commons
Attribution-Share Alike 3.0 Licence. This means you are free:
* to Share - to copy, distribute and transmit the work
* to Remix - to adapt the work

Under the following conditions:
* Attribution. You must attribute the work by stating your use of KanjiVG in
  your own copyright header and linking to KanjiVG's website
  (http://kanjivg.tagaini.net)
* Share Alike. If you alter, transform, or build upon this work, you may
  distribute the resulting work only under the same or similar license to this
  one.

See http://creativecommons.org/licenses/by-sa/3.0/ for more details.
-->
<!DOCTYPE svg PUBLIC "-//W3C//DTD SVG 1.0//EN" "http://www.w3.org/TR/2001/REC-SVG-20010904/DTD/svg10.dtd" [
<!ATTLIST g
xmlns:kvg CDATA #FIXED "http://kanjivg.tagaini.net"
kvg:element CDATA #IMPLIED
kvg:variant CDATA #IMPLIED
kvg:partial CDATA #IMPLIED
kvg:original CDATA #IMPLIED
kvg:part CDATA #IMPLIED
kvg:number CDATA #IMPLIED
kvg:tradForm CDATA #IMPLIED
kvg:radicalForm CDATA #IMPLIED
kvg:position CDATA #IMPLIED
kvg:radical CDATA #IMPLIED
kvg:phon CDATA #IMPLIED >
<!ATTLIST path
xmlns:kvg CDATA #FIXED "http://kanjivg.tagaini.net"
kvg:type CDATA #IMPLIED >
]>
<svg xmlns="http://www.w3.org/2000/svg" width="327" height = "327" viewBox="0 0 327 327">
<g id="kvg:StrokePaths_075c2" style="fill:none;stroke:#000000;stroke-width:3;stroke-linecap:round;stroke-linejoin:round;" transform="scale(3.0,3.0)">
<g id="kvg:075c2" kvg:element="痂">
	<g id="kvg:075c2-g1" kvg:element="疒" kvg:position="tare" kvg:radical="general">
		<path style="stroke: #bf0909;" id="kvg:075c2-s1" kvg:type="㇑a" d="M54.91,11.13c0.7,0.36,2.18,2.66,2.32,3.37c0.14,0.71,0.07,4.3-0.07,8.74"/>
		<path style="stroke: #bf7609;" id="kvg:075c2-s2" kvg:type="㇐" d="M24.63,24.73c1.52,0.54,4.3,0.63,5.82,0.54c15.8-0.91,42.55-2.52,56.61-3.23c2.53-0.13,4.05,0.26,5.31,0.53"/>
		<path style="stroke: #9abf09;" id="kvg:075c2-s3" kvg:type="㇒" d="M29.99,26c0,36.42-2.99,53.5-15.19,68.22"/>
		<path style="stroke: #2dbf09;" id="kvg:075c2-s4" kvg:type="㇔" d="M13.5,37c3.35,2.25,8.66,9.25,9.5,12.75"/>
		<path style="stroke: #09bf52;" id="kvg:075c2-s5" kvg:type="㇀" d="M9.67,66.07c1.44,0.61,1.88,0.43,3.15-0.31c5.11-3,8.06-4.92,11.93-7.51"/>
	</g>
	<g id="kvg:075c2-g2" kvg:element="加">
		<g id="kvg:075c2-g3" kvg:element="力" kvg:position="left">
			<path style="stroke: #09bfbf;" id="kvg:075c2-s6" kvg:type="㇆" d="M35.16,47.53c1.22,0.61,2.74,0.95,3.81,0.83c5.28-0.61,12.64-1.41,17.44-2.03c3.13-0.4,4.08,0.42,3.82,4.65c-0.76,12.27-2.74,24.28-6.91,36.15c-3.65,10.38-6.08,2.28-7.34,1.39"/>
			<path style="stroke: #0952bf;" id="kvg:075c2-s7" kvg:type="㇒" d="M49.63,32.93c0.22,0.33,0.26,1.78,0.15,3.43c-1.01,15.37-7.09,42.54-21.45,55.92"/>
		</g>
		<g id="kvg:075c2-g4" kvg:element="口" kvg:position="right">
			<path style="stroke: #2d09bf;" id="kvg:075c2-s8" kvg:type="㇑" d="M66.74,42.35c0.39,0.87,1.29,2.6,1.46,3.69c1.36,8.64,1.91,33.21,1.91,46.47"/>
			<path style="stroke: #9a09bf;" id="kvg:075c2-s9" kvg:type="㇕b" d="M67.99,43.92c8.77-1.26,13.26-2.17,18.39-2.64c1.61-0.15,3.12,0.97,3.05,3.27C89.28,49.5,88,77,87.61,88.11"/>
			<path style="stroke: #bf0976;" id="kvg:075c2-s10" kvg:type="㇐b" d="M70.42,90.61c5.14-0.51,12.67-1.86,19.38-2.49"/>
		</g>
	</g>
</g>
</g>
<g id="kvg:StrokeNumbers_075c2" style="font-size:8;fill:#808080" transform="scale(3.0,3.0)">
	<text style="fill: #bf0909;" transform="matrix(1 0 0 1 46.50 11.85)">1</text>
	<text style="fill: #bf7609;" transform="matrix(1 0 0 1 28.50 21.50)">2</text>
	<text style="fill: #9abf09;" transform="matrix(1 0 0 1 22.50 34.50)">3</text>
	<text style="fill: #2dbf09;" transform="matrix(1 0 0 1 5.50 37.50)">4</text>
	<text style="fill: #09bf52;" transform="matrix(1 0 0 1 2.50 66.50)">5</text>
	<text style="fill: #09bfbf;" transform="matrix(1 0 0 1 34.50 44.50)">6</text>
	<text style="fill: #0952bf;" transform="matrix(1 0 0 1 40.50 35.50)">7</text>
	<text style="fill: #2d09bf;" transform="matrix(1 0 0 1 62.50 58.50)">8</text>
	<text style="fill: #9a09bf;" transform="matrix(1 0 0 1 69.50 40.50)">9</text>
	<text style="fill: #bf0976;" transform="matrix(1 0 0 1 72.50 86.50)">10</text>
</g>
</svg>
