<?xml version="1.0" encoding="UTF-8"?>
<!--
This file has been modified from the original version by the kanji_colorize.py
script (available at http://github.com/cayennes/kanji-colorize) with these
settings:
    mode: spectrum
    saturation: 0.95
    value: 0.75
    image_size: 327
It remains under a Creative Commons-Attribution-Share Alike 3.0 License.

The original SVG has the following copyright:

Copyright (C) 2009/2010/2011 Ulrich Apel.
This work is distributed under the conditions of the Creative Commons
Attribution-Share Alike 3.0 Licence. This means you are free:
* to Share - to copy, distribute and transmit the work
* to Remix - to adapt the work

Under the following conditions:
* Attribution. You must attribute the work by stating your use of KanjiVG in
  your own copyright header and linking to KanjiVG's website
  (http://kanjivg.tagaini.net)
* Share Alike. If you alter, transform, or build upon this work, you may
  distribute the resulting work only under the same or similar license to this
  one.

See http://creativecommons.org/licenses/by-sa/3.0/ for more details.
-->
<!DOCTYPE svg PUBLIC "-//W3C//DTD SVG 1.0//EN" "http://www.w3.org/TR/2001/REC-SVG-20010904/DTD/svg10.dtd" [
<!ATTLIST g
xmlns:kvg CDATA #FIXED "http://kanjivg.tagaini.net"
kvg:element CDATA #IMPLIED
kvg:variant CDATA #IMPLIED
kvg:partial CDATA #IMPLIED
kvg:original CDATA #IMPLIED
kvg:part CDATA #IMPLIED
kvg:number CDATA #IMPLIED
kvg:tradForm CDATA #IMPLIED
kvg:radicalForm CDATA #IMPLIED
kvg:position CDATA #IMPLIED
kvg:radical CDATA #IMPLIED
kvg:phon CDATA #IMPLIED >
<!ATTLIST path
xmlns:kvg CDATA #FIXED "http://kanjivg.tagaini.net"
kvg:type CDATA #IMPLIED >
]>
<svg xmlns="http://www.w3.org/2000/svg" width="327" height = "327" viewBox="0 0 327 327">
<g id="kvg:StrokePaths_075f3" style="fill:none;stroke:#000000;stroke-width:3;stroke-linecap:round;stroke-linejoin:round;" transform="scale(3.0,3.0)">
<g id="kvg:075f3" kvg:element="痳">
	<g id="kvg:075f3-g1" kvg:element="疒" kvg:position="tare" kvg:radical="general">
		<path style="stroke: #bf0909;" id="kvg:075f3-s1" kvg:type="㇑a" d="M52.91,11.63c0.7,0.36,2.18,2.66,2.32,3.37c0.14,0.71,0.07,3.8-0.07,8.24"/>
		<path style="stroke: #bf5d09;" id="kvg:075f3-s2" kvg:type="㇐" d="M23.63,24.73c1.52,0.54,4.3,0.63,5.82,0.54c15.8-0.91,42.05-3.02,56.11-3.73c2.53-0.13,4.05,0.26,5.31,0.53"/>
		<path style="stroke: #bfb109;" id="kvg:075f3-s3" kvg:type="㇒" d="M28.49,25.5c0,1.1,0,2.18-0.01,3.24c-0.15,34.27-2.84,49.74-14.18,65.23"/>
		<path style="stroke: #79bf09;" id="kvg:075f3-s4" kvg:type="㇔" d="M11.5,37.5c3.18,1.9,8.21,7.8,9,10.75"/>
		<path style="stroke: #25bf09;" id="kvg:075f3-s5" kvg:type="㇀" d="M9.67,67.47c1.39,0.78,1.82,0.55,3.04-0.39c4.94-3.83,7.8-6.27,11.54-9.58"/>
	</g>
	<g id="kvg:075f3-g2" kvg:element="林">
		<g id="kvg:075f3-g3" kvg:element="木" kvg:variant="true" kvg:position="left">
			<path style="stroke: #09bf41;" id="kvg:075f3-s6" kvg:type="㇐" d="M33.38,47.06c0.62,0.22,2.49,0.19,4.14,0c5.79-0.66,10.11-1.7,16.31-2.14c1.65-0.12,2.89-0.22,3.93,0"/>
			<path style="stroke: #09bf95;" id="kvg:075f3-s7" kvg:type="㇑" d="M43.89,32.17c1.33,0.39,2.13,1.76,2.4,2.54s0,59.16-0.27,64.04"/>
			<path style="stroke: #0995bf;" id="kvg:075f3-s8" kvg:type="㇒" d="M46.28,49.42C43.1,59.3,33.62,75.87,27,81.46"/>
			<path style="stroke: #0941bf;" id="kvg:075f3-s9" kvg:type="㇔" d="M49.91,56.43c3.15,2.12,6.52,6.35,8.31,10.06"/>
		</g>
		<g id="kvg:075f3-g4" kvg:element="木" kvg:position="right">
			<path style="stroke: #2509bf;" id="kvg:075f3-s10" kvg:type="㇐" d="M64.31,44.04c0.44,0.14,1.4,0.22,2.58,0.14c4.15-0.29,15.27-1.29,23.38-2c1.17-0.1,2.2-0.14,2.94,0"/>
			<path style="stroke: #7909bf;" id="kvg:075f3-s11" kvg:type="㇑" d="M73.33,29.5c1.33,0.39,2.13,1.76,2.39,2.54c0.27,0.78,0,60.77-0.27,65.65"/>
			<path style="stroke: #bf09b1;" id="kvg:075f3-s12" kvg:type="㇒" d="M75.46,45.03C72.33,56.76,62.58,73.09,55.31,79.1"/>
			<path style="stroke: #bf095d;" id="kvg:075f3-s13" kvg:type="㇟/㇏" d="M75.99,47.44c5.11,11.69,13.28,26.69,17.42,31.3c1.18,1.31,1.84,2.22,2.83,2.66"/>
		</g>
	</g>
</g>
</g>
<g id="kvg:StrokeNumbers_075f3" style="font-size:8;fill:#808080" transform="scale(3.0,3.0)">
	<text style="fill: #bf0909;" transform="matrix(1 0 0 1 45.50 11.85)">1</text>
	<text style="fill: #bf5d09;" transform="matrix(1 0 0 1 28.50 22.50)">2</text>
	<text style="fill: #bfb109;" transform="matrix(1 0 0 1 20.50 34.50)">3</text>
	<text style="fill: #79bf09;" transform="matrix(1 0 0 1 4.50 37.50)">4</text>
	<text style="fill: #25bf09;" transform="matrix(1 0 0 1 2.50 70.50)">5</text>
	<text style="fill: #09bf41;" transform="matrix(1 0 0 1 32.50 44.50)">6</text>
	<text style="fill: #09bf95;" transform="matrix(1 0 0 1 36.75 33.50)">7</text>
	<text style="fill: #0995bf;" transform="matrix(1 0 0 1 36.50 55.50)">8</text>
	<text style="fill: #0941bf;" transform="matrix(1 0 0 1 51.50 55.03)">9</text>
	<text style="fill: #2509bf;" transform="matrix(1 0 0 1 61.50 41.45)">10</text>
	<text style="fill: #7909bf;" transform="matrix(1 0 0 1 63.75 31.50)">11</text>
	<text style="fill: #bf09b1;" transform="matrix(1 0 0 1 61.50 53.50)">12</text>
	<text style="fill: #bf095d;" transform="matrix(1 0 0 1 80.75 53.73)">13</text>
</g>
</svg>
