<?xml version="1.0" encoding="UTF-8"?>
<!--
This file has been modified from the original version by the kanji_colorize.py
script (available at http://github.com/cayennes/kanji-colorize) with these
settings:
    mode: spectrum
    saturation: 0.95
    value: 0.75
    image_size: 327
It remains under a Creative Commons-Attribution-Share Alike 3.0 License.

The original SVG has the following copyright:

Copyright (C) 2009/2010/2011 Ulrich Apel.
This work is distributed under the conditions of the Creative Commons
Attribution-Share Alike 3.0 Licence. This means you are free:
* to Share - to copy, distribute and transmit the work
* to Remix - to adapt the work

Under the following conditions:
* Attribution. You must attribute the work by stating your use of KanjiVG in
  your own copyright header and linking to KanjiVG's website
  (http://kanjivg.tagaini.net)
* Share Alike. If you alter, transform, or build upon this work, you may
  distribute the resulting work only under the same or similar license to this
  one.

See http://creativecommons.org/licenses/by-sa/3.0/ for more details.
-->
<!DOCTYPE svg PUBLIC "-//W3C//DTD SVG 1.0//EN" "http://www.w3.org/TR/2001/REC-SVG-20010904/DTD/svg10.dtd" [
<!ATTLIST g
xmlns:kvg CDATA #FIXED "http://kanjivg.tagaini.net"
kvg:element CDATA #IMPLIED
kvg:variant CDATA #IMPLIED
kvg:partial CDATA #IMPLIED
kvg:original CDATA #IMPLIED
kvg:part CDATA #IMPLIED
kvg:number CDATA #IMPLIED
kvg:tradForm CDATA #IMPLIED
kvg:radicalForm CDATA #IMPLIED
kvg:position CDATA #IMPLIED
kvg:radical CDATA #IMPLIED
kvg:phon CDATA #IMPLIED >
<!ATTLIST path
xmlns:kvg CDATA #FIXED "http://kanjivg.tagaini.net"
kvg:type CDATA #IMPLIED >
]>
<svg xmlns="http://www.w3.org/2000/svg" width="327" height = "327" viewBox="0 0 327 327">
<g id="kvg:StrokePaths_07647" style="fill:none;stroke:#000000;stroke-width:3;stroke-linecap:round;stroke-linejoin:round;" transform="scale(3.0,3.0)">
<g id="kvg:07647" kvg:element="癇">
	<g id="kvg:07647-g1" kvg:element="疒" kvg:position="tare" kvg:radical="general">
		<path style="stroke: #bf0909;" id="kvg:07647-s1" kvg:type="㇑a" d="M54.91,10.63c0.7,0.36,2.18,2.66,2.32,3.37c0.14,0.71,0.07,5.3-0.07,9.74"/>
		<path style="stroke: #bf4909;" id="kvg:07647-s2" kvg:type="㇐" d="M26.13,25.23c1.72,0.54,4.87,0.63,6.58,0.54c17.87-0.91,36.75-2.52,52.66-3.23c2.86-0.13,4.58,0.26,6.01,0.53"/>
		<path style="stroke: #bf8909;" id="kvg:07647-s3" kvg:type="㇒" d="M30.49,26.5c0,1.19,0,2.35,0,3.5c-0.09,33.35-1.66,49.24-13.93,63.47"/>
		<path style="stroke: #b4bf09;" id="kvg:07647-s4" kvg:type="㇔" d="M14,39.75c3.35,1.68,8.66,6.89,9.5,9.5"/>
		<path style="stroke: #74bf09;" id="kvg:07647-s5" kvg:type="㇀" d="M11.17,69.05c1.39,0.65,1.82,0.46,3.04-0.33c4.94-3.19,7.8-5.22,11.54-7.97"/>
	</g>
	<g id="kvg:07647-g2" kvg:element="間" kvg:variant="true">
		<g id="kvg:07647-g3" kvg:element="門" kvg:position="kamae">
			<g id="kvg:07647-g4" kvg:position="left">
				<path style="stroke: #34bf09;" id="kvg:07647-s6" kvg:type="㇑" d="M39.89,35.4c0.6,0.33,1.06,1.77,1.18,2.42c0.12,0.66-0.08,52.32-0.2,56.45"/>
				<path style="stroke: #09bf1e;" id="kvg:07647-s7" kvg:type="㇕a" d="M41.23,36.49c2.01-0.07,12.28-1.45,14.1-1.54c1.52-0.07,2.31,0.67,2.39,1.25c0.11,0.9-0.27,17.82-0.27,18.27"/>
				<path style="stroke: #09bf5f;" id="kvg:07647-s8" kvg:type="㇐a" d="M41.59,45.25c4.93-0.43,11.09-1.05,15.84-1.51"/>
				<path style="stroke: #09bf9f;" id="kvg:07647-s9" kvg:type="㇐a" d="M41.23,53.99c6.68-0.84,9.26-0.98,15.16-1.37"/>
			</g>
			<g id="kvg:07647-g5" kvg:position="right">
				<path style="stroke: #099fbf;" id="kvg:07647-s10" kvg:type="㇑" d="M67.68,34.02c0.34,0.39,0.69,1.23,0.69,1.75c0,0.52-0.12,17.04,0,17.56"/>
				<path style="stroke: #095fbf;" id="kvg:07647-s11" kvg:type="㇆a" d="M68.44,35.08c1.94-0.06,14.73-2.26,16.5-2.34c1.48-0.06,2.33,1.21,2.31,1.61c-0.38,12-0.39,45.93-0.39,54.64c0,9.77-4.93,1.96-6.06,1.16"/>
				<path style="stroke: #091ebf;" id="kvg:07647-s12" kvg:type="㇐a" d="M68.78,43.02c2.63,0,14.25-1.23,17.22-1.23"/>
				<path style="stroke: #3409bf;" id="kvg:07647-s13" kvg:type="㇐a" d="M68.94,51.91c3.89,0,12.3-1.1,17.33-1.1"/>
			</g>
		</g>
		<g id="kvg:07647-g6" kvg:element="日" kvg:variant="true">
			<g id="kvg:07647-g7" kvg:element="月">
				<path style="stroke: #7409bf;" id="kvg:07647-s14" kvg:type="㇒" d="M54.8,60.17c0.36,0.43,0.6,0.86,0.72,1.27c0.12,0.42,0.11,11.76-0.28,15.27c-0.55,4.99-1.1,10.02-6.24,15.76"/>
				<path style="stroke: #b409bf;" id="kvg:07647-s15" kvg:type="㇆a" d="M56,61.35c1.9-0.04,11.45-1.64,12.87-1.73c2.54-0.16,3.17,1.91,3.17,2.87c0,2.27-0.48,11.76-0.48,24.63c0,8.85-3.56,4.38-5.11,2.22"/>
				<path style="stroke: #bf0989;" id="kvg:07647-s16" kvg:type="㇐a" d="M56,70.6c4.17-0.24,11.35-1.39,15.01-1.41"/>
				<path style="stroke: #bf0949;" id="kvg:07647-s17" kvg:type="㇐a" d="M55.95,79.01c3.44-0.05,10.08-0.87,14.75-1.16"/>
			</g>
		</g>
	</g>
</g>
</g>
<g id="kvg:StrokeNumbers_07647" style="font-size:8;fill:#808080" transform="scale(3.0,3.0)">
	<text style="fill: #bf0909;" transform="matrix(1 0 0 1 48.85 11.85)">1</text>
	<text style="fill: #bf4909;" transform="matrix(1 0 0 1 26.50 22.50)">2</text>
	<text style="fill: #bf8909;" transform="matrix(1 0 0 1 22.50 34.50)">3</text>
	<text style="fill: #b4bf09;" transform="matrix(1 0 0 1 6.54 39.50)">4</text>
	<text style="fill: #74bf09;" transform="matrix(1 0 0 1 3.72 70.50)">5</text>
	<text style="fill: #34bf09;" transform="matrix(1 0 0 1 33.50 42.50)">6</text>
	<text style="fill: #09bf1e;" transform="matrix(1 0 0 1 43.50 33.50)">7</text>
	<text style="fill: #09bf5f;" transform="matrix(1 0 0 1 45.50 42.50)">8</text>
	<text style="fill: #09bf9f;" transform="matrix(1 0 0 1 45.50 51.50)">9</text>
	<text style="fill: #099fbf;" transform="matrix(1 0 0 1 59.50 42.50)">10</text>
	<text style="fill: #095fbf;" transform="matrix(1 0 0 1 69.50 31.88)">11</text>
	<text style="fill: #091ebf;" transform="matrix(1 0 0 1 71.50 40.50)">12</text>
	<text style="fill: #3409bf;" transform="matrix(1 0 0 1 71.50 49.73)">13</text>
	<text style="fill: #7409bf;" transform="matrix(1 0 0 1 45.25 67.65)">14</text>
	<text style="fill: #b409bf;" transform="matrix(1 0 0 1 59.25 58.58)">15</text>
	<text style="fill: #bf0989;" transform="matrix(1 0 0 1 59.25 68.50)">16</text>
	<text style="fill: #bf0949;" transform="matrix(1 0 0 1 59.25 77.50)">17</text>
</g>
</svg>
