<?xml version="1.0" encoding="UTF-8"?>
<!--
This file has been modified from the original version by the kanji_colorize.py
script (available at http://github.com/cayennes/kanji-colorize) with these
settings:
    mode: spectrum
    saturation: 0.95
    value: 0.75
    image_size: 327
It remains under a Creative Commons-Attribution-Share Alike 3.0 License.

The original SVG has the following copyright:

Copyright (C) 2009/2010/2011 Ulrich Apel.
This work is distributed under the conditions of the Creative Commons
Attribution-Share Alike 3.0 Licence. This means you are free:
* to Share - to copy, distribute and transmit the work
* to Remix - to adapt the work

Under the following conditions:
* Attribution. You must attribute the work by stating your use of KanjiVG in
  your own copyright header and linking to KanjiVG's website
  (http://kanjivg.tagaini.net)
* Share Alike. If you alter, transform, or build upon this work, you may
  distribute the resulting work only under the same or similar license to this
  one.

See http://creativecommons.org/licenses/by-sa/3.0/ for more details.
-->
<!DOCTYPE svg PUBLIC "-//W3C//DTD SVG 1.0//EN" "http://www.w3.org/TR/2001/REC-SVG-20010904/DTD/svg10.dtd" [
<!ATTLIST g
xmlns:kvg CDATA #FIXED "http://kanjivg.tagaini.net"
kvg:element CDATA #IMPLIED
kvg:variant CDATA #IMPLIED
kvg:partial CDATA #IMPLIED
kvg:original CDATA #IMPLIED
kvg:part CDATA #IMPLIED
kvg:number CDATA #IMPLIED
kvg:tradForm CDATA #IMPLIED
kvg:radicalForm CDATA #IMPLIED
kvg:position CDATA #IMPLIED
kvg:radical CDATA #IMPLIED
kvg:phon CDATA #IMPLIED >
<!ATTLIST path
xmlns:kvg CDATA #FIXED "http://kanjivg.tagaini.net"
kvg:type CDATA #IMPLIED >
]>
<svg xmlns="http://www.w3.org/2000/svg" width="327" height = "327" viewBox="0 0 327 327">
<g id="kvg:StrokePaths_0767d" style="fill:none;stroke:#000000;stroke-width:3;stroke-linecap:round;stroke-linejoin:round;" transform="scale(3.0,3.0)">
<g id="kvg:0767d" kvg:element="白" kvg:radical="general">
	<g id="kvg:0767d-g1" kvg:position="top">
		<path style="stroke: #bf0909;" id="kvg:0767d-s1" kvg:type="㇒" d="M55,13c0.38,1.5,0,3.25-0.57,4.29C51.32,22.93,46,31.12,36.81,40.22"/>
	</g>
	<g id="kvg:0767d-g2" kvg:element="日" kvg:position="bottom">
		<path style="stroke: #9abf09;" id="kvg:0767d-s2" kvg:type="㇑" d="M25.5,40.47c1.14,1.14,1.63,2.81,1.63,4.63c0,1.55,0.95,32.47,1.32,47.14c0.06,2.58,0.13,4.66,0.18,6"/>
		<path style="stroke: #09bf52;" id="kvg:0767d-s3" kvg:type="㇕a" d="M28.27,43.98c13.98-1.73,39.08-4.47,49.67-5.48c5.19-0.5,7.37,0.76,7.06,5.38c-0.62,9.12-2.09,30.3-3.29,46.88c-0.17,2.42-0.33,4.65-0.46,6.57"/>
		<path style="stroke: #0952bf;" id="kvg:0767d-s4" kvg:type="㇐a" d="M29.13,67.44C42.25,66,72.38,63.62,82.57,63.4"/>
		<path style="stroke: #9a09bf;" id="kvg:0767d-s5" kvg:type="㇐a" d="M29.69,94.49C43,93.75,66.62,92,80.19,91.41"/>
	</g>
</g>
</g>
<g id="kvg:StrokeNumbers_0767d" style="font-size:8;fill:#808080" transform="scale(3.0,3.0)">
	<text style="fill: #bf0909;" transform="matrix(1 0 0 1 46.50 13.50)">1</text>
	<text style="fill: #9abf09;" transform="matrix(1 0 0 1 17.50 48.13)">2</text>
	<text style="fill: #09bf52;" transform="matrix(1 0 0 1 29.50 40.50)">3</text>
	<text style="fill: #0952bf;" transform="matrix(1 0 0 1 32.50 63.00)">4</text>
	<text style="fill: #9a09bf;" transform="matrix(1 0 0 1 32.50 91.50)">5</text>
</g>
</svg>
