<?xml version="1.0" encoding="UTF-8"?>
<!--
This file has been modified from the original version by the kanji_colorize.py
script (available at http://github.com/cayennes/kanji-colorize) with these
settings:
    mode: spectrum
    saturation: 0.95
    value: 0.75
    image_size: 327
It remains under a Creative Commons-Attribution-Share Alike 3.0 License.

The original SVG has the following copyright:

Copyright (C) 2009/2010/2011 Ulrich Apel.
This work is distributed under the conditions of the Creative Commons
Attribution-Share Alike 3.0 Licence. This means you are free:
* to Share - to copy, distribute and transmit the work
* to Remix - to adapt the work

Under the following conditions:
* Attribution. You must attribute the work by stating your use of KanjiVG in
  your own copyright header and linking to KanjiVG's website
  (http://kanjivg.tagaini.net)
* Share Alike. If you alter, transform, or build upon this work, you may
  distribute the resulting work only under the same or similar license to this
  one.

See http://creativecommons.org/licenses/by-sa/3.0/ for more details.
-->
<!DOCTYPE svg PUBLIC "-//W3C//DTD SVG 1.0//EN" "http://www.w3.org/TR/2001/REC-SVG-20010904/DTD/svg10.dtd" [
<!ATTLIST g
xmlns:kvg CDATA #FIXED "http://kanjivg.tagaini.net"
kvg:element CDATA #IMPLIED
kvg:variant CDATA #IMPLIED
kvg:partial CDATA #IMPLIED
kvg:original CDATA #IMPLIED
kvg:part CDATA #IMPLIED
kvg:number CDATA #IMPLIED
kvg:tradForm CDATA #IMPLIED
kvg:radicalForm CDATA #IMPLIED
kvg:position CDATA #IMPLIED
kvg:radical CDATA #IMPLIED
kvg:phon CDATA #IMPLIED >
<!ATTLIST path
xmlns:kvg CDATA #FIXED "http://kanjivg.tagaini.net"
kvg:type CDATA #IMPLIED >
]>
<svg xmlns="http://www.w3.org/2000/svg" width="327" height = "327" viewBox="0 0 327 327">
<g id="kvg:StrokePaths_07683" style="fill:none;stroke:#000000;stroke-width:3;stroke-linecap:round;stroke-linejoin:round;" transform="scale(3.0,3.0)">
<g id="kvg:07683" kvg:element="皃">
	<g id="kvg:07683-g1" kvg:position="top" kvg:radical="tradit">
		<g id="kvg:07683-g2" kvg:position="top">
			<path style="stroke: #bf0909;" id="kvg:07683-s1" kvg:type="㇔" d="M50.72,9.5c0.54,0.57,0.24,2.3,0,2.77c-1.78,3.48-6.84,9-12.82,12.96"/>
		</g>
		<g id="kvg:07683-g3" kvg:element="日" kvg:position="bottom">
			<path style="stroke: #bfa509;" id="kvg:07683-s2" kvg:type="㇑" d="M25.5,25.66c0.84,0.77,1.55,2.17,1.69,3.19c0.56,3.89,3.06,24.31,3.4,29.39"/>
			<path style="stroke: #3dbf09;" id="kvg:07683-s3" kvg:type="㇕a" d="M27.7,27.49c4.77-0.13,45.33-3.5,49.67-3.72c2.76-0.14,4.21,0.88,3.88,2.48c-0.74,3.51-3.99,22.01-5.87,30.21"/>
			<path style="stroke: #09bf71;" id="kvg:07683-s4" kvg:type="㇐a" d="M29.14,41.76c10-0.39,41.57-2.92,48.87-2.92"/>
			<path style="stroke: #0971bf;" id="kvg:07683-s5" kvg:type="㇐a" d="M31.1,55.77c11.97-0.42,32.18-2.41,44.95-2.6"/>
		</g>
	</g>
	<g id="kvg:07683-g4" kvg:element="儿" kvg:position="bottom">
		<g id="kvg:07683-g5" kvg:element="八" kvg:variant="true">
			<g id="kvg:07683-g6" kvg:element="丿" kvg:position="left">
				<path style="stroke: #3d09bf;" id="kvg:07683-s6" kvg:type="㇒" d="M42.5,59.5c0.07,0.9,0.15,2.34-0.14,3.63c-1.68,7.66-10.5,25.94-24.44,34.78"/>
			</g>
			<g id="kvg:07683-g7" kvg:position="right">
				<path style="stroke: #bf09a5;" id="kvg:07683-s7" kvg:type="㇟" d="M56.99,57.87c0.71,1.22,1.27,2.66,1.31,4.54c0.19,8.4,0,18.07,0,23.78c0,13.34,8.49,11.83,16.84,11.83c8.81,0,14.62-1.72,15.86-2.69c2.62-2.05,1.91-3.08,2.14-6.67"/>
			</g>
		</g>
	</g>
</g>
</g>
<g id="kvg:StrokeNumbers_07683" style="font-size:8;fill:#808080" transform="scale(3.0,3.0)">
	<text style="fill: #bf0909;" transform="matrix(1 0 0 1 43 7.63)">1</text>
	<text style="fill: #bfa509;" transform="matrix(1 0 0 1 17.25 34.55)">2</text>
	<text style="fill: #3dbf09;" transform="matrix(1 0 0 1 32.25 23.48)">3</text>
	<text style="fill: #09bf71;" transform="matrix(1 0 0 1 32.25 38.40)">4</text>
	<text style="fill: #0971bf;" transform="matrix(1 0 0 1 32.25 53.33)">5</text>
	<text style="fill: #3d09bf;" transform="matrix(1 0 0 1 33.25 67.25)">6</text>
	<text style="fill: #bf09a5;" transform="matrix(1 0 0 1 49.25 66.18)">7</text>
</g>
</svg>
