<?xml version="1.0" encoding="UTF-8"?>
<!--
This file has been modified from the original version by the kanji_colorize.py
script (available at http://github.com/cayennes/kanji-colorize) with these
settings:
    mode: spectrum
    saturation: 0.95
    value: 0.75
    image_size: 327
It remains under a Creative Commons-Attribution-Share Alike 3.0 License.

The original SVG has the following copyright:

Copyright (C) 2009/2010/2011 Ulrich Apel.
This work is distributed under the conditions of the Creative Commons
Attribution-Share Alike 3.0 Licence. This means you are free:
* to Share - to copy, distribute and transmit the work
* to Remix - to adapt the work

Under the following conditions:
* Attribution. You must attribute the work by stating your use of KanjiVG in
  your own copyright header and linking to KanjiVG's website
  (http://kanjivg.tagaini.net)
* Share Alike. If you alter, transform, or build upon this work, you may
  distribute the resulting work only under the same or similar license to this
  one.

See http://creativecommons.org/licenses/by-sa/3.0/ for more details.
-->
<!DOCTYPE svg PUBLIC "-//W3C//DTD SVG 1.0//EN" "http://www.w3.org/TR/2001/REC-SVG-20010904/DTD/svg10.dtd" [
<!ATTLIST g
xmlns:kvg CDATA #FIXED "http://kanjivg.tagaini.net"
kvg:element CDATA #IMPLIED
kvg:variant CDATA #IMPLIED
kvg:partial CDATA #IMPLIED
kvg:original CDATA #IMPLIED
kvg:part CDATA #IMPLIED
kvg:number CDATA #IMPLIED
kvg:tradForm CDATA #IMPLIED
kvg:radicalForm CDATA #IMPLIED
kvg:position CDATA #IMPLIED
kvg:radical CDATA #IMPLIED
kvg:phon CDATA #IMPLIED >
<!ATTLIST path
xmlns:kvg CDATA #FIXED "http://kanjivg.tagaini.net"
kvg:type CDATA #IMPLIED >
]>
<svg xmlns="http://www.w3.org/2000/svg" width="327" height = "327" viewBox="0 0 327 327">
<g id="kvg:StrokePaths_076df" style="fill:none;stroke:#000000;stroke-width:3;stroke-linecap:round;stroke-linejoin:round;" transform="scale(3.0,3.0)">
<g id="kvg:076df" kvg:element="盟">
	<g id="kvg:076df-g1" kvg:element="明" kvg:position="top" kvg:phon="明">
		<g id="kvg:076df-g2" kvg:element="日" kvg:position="left">
			<path style="stroke: #bf0909;" id="kvg:076df-s1" kvg:type="㇑" d="M23.04,19.27c0.84,0.84,1.27,1.73,1.27,3.22c0,3.75,0.04,21.88,0.04,25.75c0,3.2-0.04,5.42-0.04,5.55"/>
			<path style="stroke: #bf5d09;" id="kvg:076df-s2" kvg:type="㇕a" d="M25.19,21.42c4.18-0.54,17.43-2.5,19.41-2.65c1.65-0.13,2.58,0.98,2.58,2.72c0,2.76,0.13,16.23,0.04,24.76c-0.03,3.25-0.05,5.55-0.05,5.77"/>
			<path style="stroke: #bfb109;" id="kvg:076df-s3" kvg:type="㇐a" d="M25.58,35.83c4.05-0.33,17.14-2.13,20.45-2.13"/>
			<path style="stroke: #79bf09;" id="kvg:076df-s4" kvg:type="㇐a" d="M25.44,50.92c7.93-0.79,13.79-1.64,20.58-1.87"/>
		</g>
		<g id="kvg:076df-g3" kvg:element="月" kvg:position="right">
			<path style="stroke: #25bf09;" id="kvg:076df-s5" kvg:type="㇒" d="M59.91,13.72c0.81,0.81,1.2,1.91,1.25,3.28C62,40.88,59.25,52.75,49.32,62.75"/>
			<path style="stroke: #09bf41;" id="kvg:076df-s6" kvg:type="㇆a" d="M61.91,15.56c1.99-0.15,21.24-2.5,22.73-2.58c2.12-0.11,3.32,0.77,3.32,2.82c0,3.45,0,27.85,0,39.88c0,9.06-6.46,1.93-7.44,1.34"/>
			<path style="stroke: #09bf95;" id="kvg:076df-s7" kvg:type="㇐a" d="M62.66,29.03c6.84-0.78,18.41-1.74,24.39-2.18"/>
			<path style="stroke: #0995bf;" id="kvg:076df-s8" kvg:type="㇐a" d="M61.19,41.22c5.32-0.45,19.63-1.34,25.77-1.64"/>
		</g>
	</g>
	<g id="kvg:076df-g4" kvg:element="皿" kvg:position="bottom" kvg:radical="general">
		<path style="stroke: #0941bf;" id="kvg:076df-s9" kvg:type="㇑a" d="M27.34,70.6c0.97,0.97,1.34,1.76,1.44,2.77s1.47,13,2.07,19.63"/>
		<path style="stroke: #2509bf;" id="kvg:076df-s10" kvg:type="㇕b" d="M29.57,72.13c10.67-0.75,37.1-3.03,46.93-3.88c4.23-0.37,6,1.12,4.89,6.04c-0.96,4.24-2.18,10-3.66,16.65"/>
		<path style="stroke: #7909bf;" id="kvg:076df-s11" kvg:type="㇑a" d="M44.36,72.12c0.63,0.63,1.13,1.37,1.19,2.45c0.2,3.56,0.57,10.69,1.1,17.34"/>
		<path style="stroke: #bf09b1;" id="kvg:076df-s12" kvg:type="㇑a" d="M62.9,70.87c0.49,0.49,0.8,1.7,0.73,2.36c-0.38,3.15-1,11.15-1.89,18.42"/>
		<path style="stroke: #bf095d;" id="kvg:076df-s13" kvg:type="㇐" d="M13.88,94.23c3,0.52,6.65,0.81,9.75,0.55C40,93.38,62.5,92,86.88,91.09c3.58-0.13,7.23-0.03,10.75,0.73"/>
	</g>
</g>
</g>
<g id="kvg:StrokeNumbers_076df" style="font-size:8;fill:#808080" transform="scale(3.0,3.0)">
	<text style="fill: #bf0909;" transform="matrix(1 0 0 1 17.25 28.63)">1</text>
	<text style="fill: #bf5d09;" transform="matrix(1 0 0 1 26.50 17.50)">2</text>
	<text style="fill: #bfb109;" transform="matrix(1 0 0 1 29.25 32.50)">3</text>
	<text style="fill: #79bf09;" transform="matrix(1 0 0 1 29.25 47.98)">4</text>
	<text style="fill: #25bf09;" transform="matrix(1 0 0 1 53.50 22.63)">5</text>
	<text style="fill: #09bf41;" transform="matrix(1 0 0 1 63.75 12.50)">6</text>
	<text style="fill: #09bf95;" transform="matrix(1 0 0 1 66.75 25.55)">7</text>
	<text style="fill: #0995bf;" transform="matrix(1 0 0 1 66.71 37.50)">8</text>
	<text style="fill: #0941bf;" transform="matrix(1 0 0 1 20.50 77.50)">9</text>
	<text style="fill: #2509bf;" transform="matrix(1 0 0 1 30.75 68.50)">10</text>
	<text style="fill: #7909bf;" transform="matrix(1 0 0 1 36.50 81.05)">11</text>
	<text style="fill: #bf09b1;" transform="matrix(1 0 0 1 52.50 79.50)">12</text>
	<text style="fill: #bf095d;" transform="matrix(1 0 0 1 3.50 95.50)">13</text>
</g>
</svg>
