<?xml version="1.0" encoding="UTF-8"?>
<!--
This file has been modified from the original version by the kanji_colorize.py
script (available at http://github.com/cayennes/kanji-colorize) with these
settings:
    mode: spectrum
    saturation: 0.95
    value: 0.75
    image_size: 327
It remains under a Creative Commons-Attribution-Share Alike 3.0 License.

The original SVG has the following copyright:

Copyright (C) 2009/2010/2011 Ulrich Apel.
This work is distributed under the conditions of the Creative Commons
Attribution-Share Alike 3.0 Licence. This means you are free:
* to Share - to copy, distribute and transmit the work
* to Remix - to adapt the work

Under the following conditions:
* Attribution. You must attribute the work by stating your use of KanjiVG in
  your own copyright header and linking to KanjiVG's website
  (http://kanjivg.tagaini.net)
* Share Alike. If you alter, transform, or build upon this work, you may
  distribute the resulting work only under the same or similar license to this
  one.

See http://creativecommons.org/licenses/by-sa/3.0/ for more details.
-->
<!DOCTYPE svg PUBLIC "-//W3C//DTD SVG 1.0//EN" "http://www.w3.org/TR/2001/REC-SVG-20010904/DTD/svg10.dtd" [
<!ATTLIST g
xmlns:kvg CDATA #FIXED "http://kanjivg.tagaini.net"
kvg:element CDATA #IMPLIED
kvg:variant CDATA #IMPLIED
kvg:partial CDATA #IMPLIED
kvg:original CDATA #IMPLIED
kvg:part CDATA #IMPLIED
kvg:number CDATA #IMPLIED
kvg:tradForm CDATA #IMPLIED
kvg:radicalForm CDATA #IMPLIED
kvg:position CDATA #IMPLIED
kvg:radical CDATA #IMPLIED
kvg:phon CDATA #IMPLIED >
<!ATTLIST path
xmlns:kvg CDATA #FIXED "http://kanjivg.tagaini.net"
kvg:type CDATA #IMPLIED >
]>
<svg xmlns="http://www.w3.org/2000/svg" width="327" height = "327" viewBox="0 0 327 327">
<g id="kvg:StrokePaths_076e4" style="fill:none;stroke:#000000;stroke-width:3;stroke-linecap:round;stroke-linejoin:round;" transform="scale(3.0,3.0)">
<g id="kvg:076e4" kvg:element="盤">
	<g id="kvg:076e4-g1" kvg:element="般" kvg:position="top" kvg:phon="般">
		<g id="kvg:076e4-g2" kvg:element="舟" kvg:position="left">
			<path style="stroke: #bf0909;" id="kvg:076e4-s1" kvg:type="㇒" d="M37.49,13.25c0.3,0.92,0.01,1.62-0.5,2.56c-0.94,1.73-2.36,3.94-5.17,7.22"/>
			<path style="stroke: #bf5209;" id="kvg:076e4-s2" kvg:type="㇒" d="M27.38,24.91c0.92,0.92,0.9,2.11,0.96,3.18c0.92,16.15-1.08,32.15-8.77,41.38"/>
			<path style="stroke: #bf9a09;" id="kvg:076e4-s3" kvg:type="㇆a" d="M28.89,25.6c3.35-0.39,11.53-1.97,15.77-2.64c3.74-0.59,4.73-0.23,4.73,3.41c0,6.28-0.02,34.23-0.02,36.25c0,6.66-4.89,1.33-5.61,0.89"/>
			<path style="stroke: #9abf09;" id="kvg:076e4-s4" kvg:type="㇔" d="M35.32,30.08c1.93,1.3,4.06,3.67,5.52,5.86"/>
			<path style="stroke: #52bf09;" id="kvg:076e4-s5" kvg:type="㇑" d="M37.26,43.22c0.9,1.11,1.09,1.77,1.09,2.66c0,0.6,0,4.95-0.11,8.38c-0.05,1.62-0.13,3.02-0.25,3.73"/>
			<path style="stroke: #09bf09;" id="kvg:076e4-s6" kvg:type="㇀/㇐" d="M19,46.13c1.06,1.06,2.28,1.12,3.73,0.66c8.02-2.54,26.9-8.37,30.56-9.61"/>
		</g>
		<g id="kvg:076e4-g3" kvg:element="殳" kvg:position="right">
			<g id="kvg:076e4-g4" kvg:element="几" kvg:position="top">
				<g id="kvg:076e4-g5" kvg:element="丿">
					<path style="stroke: #09bf52;" id="kvg:076e4-s7" kvg:type="㇒" d="M63.3,16.84c0.68,0.68,0.86,1.66,0.86,2.76c0,7.35-1.15,15.4-5.46,19.41"/>
				</g>
				<path style="stroke: #09bf9a;" id="kvg:076e4-s8" kvg:type="㇈b" d="M65.43,19.22c3.7-0.84,7.81-1.64,10.83-2.38c1.87-0.46,3.01,0.66,2.68,2.93c-0.39,2.68-0.9,6.34-0.9,8.73c0,5.26,0.76,6.94,7.42,6.94c6.63,0,7.99-1.56,7.99-6.91"/>
			</g>
			<g id="kvg:076e4-g6" kvg:element="又" kvg:position="bottom">
				<path style="stroke: #099abf;" id="kvg:076e4-s9" kvg:type="㇇" d="M62.5,44.41c1.01,0.22,2.14,0.3,4.16-0.03c2.03-0.33,12.21-3.73,13.6-4.06c1.39-0.33,2.52,1.28,1.9,2.43c-6.41,11.82-14.18,18.27-26.33,23.77"/>
				<path style="stroke: #0952bf;" id="kvg:076e4-s10" kvg:type="㇏" d="M59.23,49.81c3.9,0.29,17.14,9.81,27.22,15.03c2.03,1.05,3.79,1.78,6.5,2.37"/>
			</g>
		</g>
	</g>
	<g id="kvg:076e4-g7" kvg:element="皿" kvg:position="bottom" kvg:radical="general">
		<path style="stroke: #0909bf;" id="kvg:076e4-s11" kvg:type="㇑a" d="M29.83,74.2c0.8,0.8,1.05,1.8,1.21,2.94c0.63,4.6,0.84,8.73,1.36,14.61"/>
		<path style="stroke: #5209bf;" id="kvg:076e4-s12" kvg:type="㇕b" d="M31.34,75.49c12.02-1.25,37.99-3.83,45.78-4.3c3.25-0.2,4.38,1.68,3.93,4.66c-0.61,4.07-1.03,8.62-2.05,14.18"/>
		<path style="stroke: #9a09bf;" id="kvg:076e4-s13" kvg:type="㇑a" d="M45.79,76.02c0.66,0.66,0.91,1.35,0.95,2.47c0.14,4.25,0.27,7,0.37,12.48"/>
		<path style="stroke: #bf099a;" id="kvg:076e4-s14" kvg:type="㇑a" d="M62.83,74.25c0.77,0.77,1.01,1.62,0.93,2.76c-0.38,5.36-0.84,10.21-1,13.36"/>
		<path style="stroke: #bf0952;" id="kvg:076e4-s15" kvg:type="㇐" d="M14.63,93.23c2.55,0.96,6.19,0.79,8.87,0.58c15.5-1.19,38.65-2.88,62.63-3.22c3.49-0.05,6.63,0.21,10,0.97"/>
	</g>
</g>
</g>
<g id="kvg:StrokeNumbers_076e4" style="font-size:8;fill:#808080" transform="scale(3.0,3.0)">
	<text style="fill: #bf0909;" transform="matrix(1 0 0 1 29.50 12.50)">1</text>
	<text style="fill: #bf5209;" transform="matrix(1 0 0 1 20.50 31.50)">2</text>
	<text style="fill: #bf9a09;" transform="matrix(1 0 0 1 41.50 20.50)">3</text>
	<text style="fill: #9abf09;" transform="matrix(1 0 0 1 41.25 31.55)">4</text>
	<text style="fill: #52bf09;" transform="matrix(1 0 0 1 31.50 52.50)">5</text>
	<text style="fill: #09bf09;" transform="matrix(1 0 0 1 12.50 50.50)">6</text>
	<text style="fill: #09bf52;" transform="matrix(1 0 0 1 56.50 23.50)">7</text>
	<text style="fill: #09bf9a;" transform="matrix(1 0 0 1 67.50 15.50)">8</text>
	<text style="fill: #099abf;" transform="matrix(1 0 0 1 64.50 41.50)">9</text>
	<text style="fill: #0952bf;" transform="matrix(1 0 0 1 53.50 57.50)">10</text>
	<text style="fill: #0909bf;" transform="matrix(1 0 0 1 20.50 80.50)">11</text>
	<text style="fill: #5209bf;" transform="matrix(1 0 0 1 32.25 72.13)">12</text>
	<text style="fill: #9a09bf;" transform="matrix(1 0 0 1 36.50 84.05)">13</text>
	<text style="fill: #bf099a;" transform="matrix(1 0 0 1 53.50 81.50)">14</text>
	<text style="fill: #bf0952;" transform="matrix(1 0 0 1 4.50 95.50)">15</text>
</g>
</svg>
