<?xml version="1.0" encoding="UTF-8"?>
<!--
This file has been modified from the original version by the kanji_colorize.py
script (available at http://github.com/cayennes/kanji-colorize) with these
settings:
    mode: spectrum
    saturation: 0.95
    value: 0.75
    image_size: 327
It remains under a Creative Commons-Attribution-Share Alike 3.0 License.

The original SVG has the following copyright:

Copyright (C) 2009/2010/2011 Ulrich Apel.
This work is distributed under the conditions of the Creative Commons
Attribution-Share Alike 3.0 Licence. This means you are free:
* to Share - to copy, distribute and transmit the work
* to Remix - to adapt the work

Under the following conditions:
* Attribution. You must attribute the work by stating your use of KanjiVG in
  your own copyright header and linking to KanjiVG's website
  (http://kanjivg.tagaini.net)
* Share Alike. If you alter, transform, or build upon this work, you may
  distribute the resulting work only under the same or similar license to this
  one.

See http://creativecommons.org/licenses/by-sa/3.0/ for more details.
-->
<!DOCTYPE svg PUBLIC "-//W3C//DTD SVG 1.0//EN" "http://www.w3.org/TR/2001/REC-SVG-20010904/DTD/svg10.dtd" [
<!ATTLIST g
xmlns:kvg CDATA #FIXED "http://kanjivg.tagaini.net"
kvg:element CDATA #IMPLIED
kvg:variant CDATA #IMPLIED
kvg:partial CDATA #IMPLIED
kvg:original CDATA #IMPLIED
kvg:part CDATA #IMPLIED
kvg:number CDATA #IMPLIED
kvg:tradForm CDATA #IMPLIED
kvg:radicalForm CDATA #IMPLIED
kvg:position CDATA #IMPLIED
kvg:radical CDATA #IMPLIED
kvg:phon CDATA #IMPLIED >
<!ATTLIST path
xmlns:kvg CDATA #FIXED "http://kanjivg.tagaini.net"
kvg:type CDATA #IMPLIED >
]>
<svg xmlns="http://www.w3.org/2000/svg" width="327" height = "327" viewBox="0 0 327 327">
<g id="kvg:StrokePaths_076e5" style="fill:none;stroke:#000000;stroke-width:3;stroke-linecap:round;stroke-linejoin:round;" transform="scale(3.0,3.0)">
<g id="kvg:076e5" kvg:element="盥">
	<g id="kvg:076e5-g1" kvg:position="top">
		<g id="kvg:076e5-g2" kvg:element="水">
			<path style="stroke: #bf0909;" id="kvg:076e5-s1" kvg:type="㇚" d="M52.68,13.58c0.58,0.54,0.99,1.48,1.04,3.28c0.24,8.65-0.15,36.65-0.15,39.6c0,5.82-4.47,0.52-5.36-0.22"/>
			<path style="stroke: #bf4d09;" id="kvg:076e5-s2" kvg:type="㇇" d="M36.71,32.5c1.04,0.17,2.26,0.69,3.3,0.35c1.04-0.35,5.11-0.93,6.85-1.62s3.1,0.51,2.6,2.07c-2.32,7.24-9.79,17.25-16.21,21.22"/>
			<path style="stroke: #bf9109;" id="kvg:076e5-s3" kvg:type="㇒" d="M68.6,24.17c0.06,0.24-0.11,0.94-0.32,1.25c-1.96,2.98-6.13,6.65-9.68,8.2"/>
			<path style="stroke: #a8bf09;" id="kvg:076e5-s4" kvg:type="㇏" d="M54.7,31.67c4.16,6.9,11.13,16.21,15.78,20.18c0.98,0.84,1.91,1.26,2.81,1.55"/>
		</g>
		<g id="kvg:076e5-g3" kvg:element="𦥑" kvg:variant="true" kvg:original="臼">
			<path style="stroke: #64bf09;" id="kvg:076e5-s5" kvg:type="㇒" d="M35.84,14.88c0.04,0.23,0.15,0.65-0.08,0.91c-2.9,3.19-7.19,6.13-14.76,8.7"/>
			<path style="stroke: #20bf09;" id="kvg:076e5-s6" kvg:type="㇑" d="M16.87,23.91c1.09,0.55,1.74,2.47,1.96,3.56c0.22,1.1,3.92,28.78,5.42,37.56"/>
			<path style="stroke: #09bf36;" id="kvg:076e5-s7" kvg:type="㇐" d="M20.75,37.4c5-0.77,10.5-2.06,12.75-2.06"/>
			<path style="stroke: #09bf7b;" id="kvg:076e5-s8" kvg:type="㇐" d="M22.5,49.23c4.5-1.02,8.5-1.34,11.25-1.34"/>
			<path style="stroke: #09bfbf;" id="kvg:076e5-s9" kvg:type="㇕" d="M74.6,18.95c1.4,0.02,2.3,0.36,4.23,0.12c6.68-0.83,9.02-1.53,9.59-1.53c1.61,0,2.37,1.21,2.1,2.81c-1.02,6.14-4.04,39.91-5.02,43.53"/>
			<path style="stroke: #097bbf;" id="kvg:076e5-s10" kvg:type="㇐" d="M74.5,33.75c3.25,0.77,13.25-1.02,14.5-1.02"/>
			<path style="stroke: #0936bf;" id="kvg:076e5-s11" kvg:type="㇐" d="M74,45.79c3.5,0.77,10.25-0.54,13-0.5"/>
		</g>
	</g>
	<g id="kvg:076e5-g4" kvg:element="皿" kvg:position="bottom" kvg:radical="general">
		<path style="stroke: #2009bf;" id="kvg:076e5-s12" kvg:type="㇑a" d="M24.06,71.11c0.67,1.05,1.54,2.36,1.68,3.25c1.13,7.08,2.6,13.07,3.37,20.33"/>
		<path style="stroke: #6409bf;" id="kvg:076e5-s13" kvg:type="㇕b" d="M25.78,73.34c11.87-1.45,50.25-2.9,55.23-3.47c1.72-0.2,2.76,1.17,2.51,2.33c-1.02,4.79-3.06,15.38-4.1,21.28"/>
		<path style="stroke: #a809bf;" id="kvg:076e5-s14" kvg:type="㇑a" d="M44.21,73.56c0.28,0.67,0.56,1.24,0.68,2.08c0.95,6.57,0.54,11.72,1.21,18.71"/>
		<path style="stroke: #bf0991;" id="kvg:076e5-s15" kvg:type="㇑a" d="M62.23,72.27c0.44,0.67,0.89,1.65,0.83,2.53c-0.42,5.62-0.59,11.17-1.6,18.55"/>
		<path style="stroke: #bf094d;" id="kvg:076e5-s16" kvg:type="㇐" d="M12.79,95.35c2.03,0.72,5.76,0.84,7.79,0.72c21.14-1.21,43.98-2.44,71.27-2.02c3.39,0.05,5.42,0.34,7.11,0.71"/>
	</g>
</g>
</g>
<g id="kvg:StrokeNumbers_076e5" style="font-size:8;fill:#808080" transform="scale(3.0,3.0)">
	<text style="fill: #bf0909;" transform="matrix(1 0 0 1 45.50 13.50)">1</text>
	<text style="fill: #bf4d09;" transform="matrix(1 0 0 1 36.50 29.50)">2</text>
	<text style="fill: #bf9109;" transform="matrix(1 0 0 1 61.25 22.50)">3</text>
	<text style="fill: #a8bf09;" transform="matrix(1 0 0 1 62.50 39.50)">4</text>
	<text style="fill: #64bf09;" transform="matrix(1 0 0 1 27.50 14.50)">5</text>
	<text style="fill: #20bf09;" transform="matrix(1 0 0 1 10.50 31.25)">6</text>
	<text style="fill: #09bf36;" transform="matrix(1 0 0 1 24.50 33.50)">7</text>
	<text style="fill: #09bf7b;" transform="matrix(1 0 0 1 25.50 45.50)">8</text>
	<text style="fill: #09bfbf;" transform="matrix(1 0 0 1 72.50 16.50)">9</text>
	<text style="fill: #097bbf;" transform="matrix(1 0 0 1 71.50 30.50)">10</text>
	<text style="fill: #0936bf;" transform="matrix(1 0 0 1 71.50 43.50)">11</text>
	<text style="fill: #2009bf;" transform="matrix(1 0 0 1 15.50 78.50)">12</text>
	<text style="fill: #6409bf;" transform="matrix(1 0 0 1 27.25 69.50)">13</text>
	<text style="fill: #a809bf;" transform="matrix(1 0 0 1 34.50 81.50)">14</text>
	<text style="fill: #bf0991;" transform="matrix(1 0 0 1 52.50 80.58)">15</text>
	<text style="fill: #bf094d;" transform="matrix(1 0 0 1 10.50 92.50)">16</text>
</g>
</svg>
