<?xml version="1.0" encoding="UTF-8"?>
<!--
This file has been modified from the original version by the kanji_colorize.py
script (available at http://github.com/cayennes/kanji-colorize) with these
settings:
    mode: spectrum
    saturation: 0.95
    value: 0.75
    image_size: 327
It remains under a Creative Commons-Attribution-Share Alike 3.0 License.

The original SVG has the following copyright:

Copyright (C) 2009/2010/2011 Ulrich Apel.
This work is distributed under the conditions of the Creative Commons
Attribution-Share Alike 3.0 Licence. This means you are free:
* to Share - to copy, distribute and transmit the work
* to Remix - to adapt the work

Under the following conditions:
* Attribution. You must attribute the work by stating your use of KanjiVG in
  your own copyright header and linking to KanjiVG's website
  (http://kanjivg.tagaini.net)
* Share Alike. If you alter, transform, or build upon this work, you may
  distribute the resulting work only under the same or similar license to this
  one.

See http://creativecommons.org/licenses/by-sa/3.0/ for more details.
-->
<!DOCTYPE svg PUBLIC "-//W3C//DTD SVG 1.0//EN" "http://www.w3.org/TR/2001/REC-SVG-20010904/DTD/svg10.dtd" [
<!ATTLIST g
xmlns:kvg CDATA #FIXED "http://kanjivg.tagaini.net"
kvg:element CDATA #IMPLIED
kvg:variant CDATA #IMPLIED
kvg:partial CDATA #IMPLIED
kvg:original CDATA #IMPLIED
kvg:part CDATA #IMPLIED
kvg:number CDATA #IMPLIED
kvg:tradForm CDATA #IMPLIED
kvg:radicalForm CDATA #IMPLIED
kvg:position CDATA #IMPLIED
kvg:radical CDATA #IMPLIED
kvg:phon CDATA #IMPLIED >
<!ATTLIST path
xmlns:kvg CDATA #FIXED "http://kanjivg.tagaini.net"
kvg:type CDATA #IMPLIED >
]>
<svg xmlns="http://www.w3.org/2000/svg" width="327" height = "327" viewBox="0 0 327 327">
<g id="kvg:StrokePaths_077db" style="fill:none;stroke:#000000;stroke-width:3;stroke-linecap:round;stroke-linejoin:round;" transform="scale(3.0,3.0)">
<g id="kvg:077db" kvg:element="矛" kvg:radical="general">
	<g id="kvg:077db-g1" kvg:element="予">
		<g id="kvg:077db-g2" kvg:element="マ" kvg:position="top">
			<path style="stroke: #bf0909;" id="kvg:077db-s1" kvg:type="㇇" d="M29.48,15.91c2.63,0.87,5.12,0.72,7.78,0.36c7.63-1.02,28.14-4.06,31.25-4.52c3.58-0.53,4.56,2.25,2.42,4c-3.67,3-13.85,13.82-16.11,15.96"/>
			<path style="stroke: #9abf09;" id="kvg:077db-s2" kvg:type="㇔" d="M43.38,27c2.98,1.31,10.69,6.33,12.09,9.75"/>
		</g>
		<g id="kvg:077db-g3" kvg:element="了" kvg:position="bottom">
			<path style="stroke: #09bf52;" id="kvg:077db-s3" kvg:type="㇇a" d="M16.92,44.83c3.76,1.25,6.95,0.69,10.73-0.08c17.73-3.63,37.85-7.38,56.68-7.42c8.44-0.02-0.08,8.17-3.33,10.25"/>
			<g id="kvg:077db-g4" kvg:element="亅">
				<path style="stroke: #0952bf;" id="kvg:077db-s4" kvg:type="㇕v" d="M55.19,42.98c6.06,2.88,8.84,29.04,2.7,50.21c-2.64,9.09-7.89,2.3-10.14,0.46"/>
			</g>
		</g>
	</g>
	<g id="kvg:077db-g5" kvg:element="丿">
		<path style="stroke: #9a09bf;" id="kvg:077db-s5" kvg:type="㇒" d="M53.39,41.43c0.11,0.92-0.06,1.96-0.73,3.21C47.62,54,35.75,70,12.89,80.15"/>
	</g>
</g>
</g>
<g id="kvg:StrokeNumbers_077db" style="font-size:8;fill:#808080" transform="scale(3.0,3.0)">
	<text style="fill: #bf0909;" transform="matrix(1 0 0 1 23.50 16.50)">1</text>
	<text style="fill: #9abf09;" transform="matrix(1 0 0 1 35.50 28.50)">2</text>
	<text style="fill: #09bf52;" transform="matrix(1 0 0 1 17.25 41.50)">3</text>
	<text style="fill: #0952bf;" transform="matrix(1 0 0 1 62.50 49.50)">4</text>
	<text style="fill: #9a09bf;" transform="matrix(1 0 0 1 40.50 53.50)">5</text>
</g>
</svg>
