<?xml version="1.0" encoding="UTF-8"?>
<!--
This file has been modified from the original version by the kanji_colorize.py
script (available at http://github.com/cayennes/kanji-colorize) with these
settings:
    mode: spectrum
    saturation: 0.95
    value: 0.75
    image_size: 327
It remains under a Creative Commons-Attribution-Share Alike 3.0 License.

The original SVG has the following copyright:

Copyright (C) 2009/2010/2011 Ulrich Apel.
This work is distributed under the conditions of the Creative Commons
Attribution-Share Alike 3.0 Licence. This means you are free:
* to Share - to copy, distribute and transmit the work
* to Remix - to adapt the work

Under the following conditions:
* Attribution. You must attribute the work by stating your use of KanjiVG in
  your own copyright header and linking to KanjiVG's website
  (http://kanjivg.tagaini.net)
* Share Alike. If you alter, transform, or build upon this work, you may
  distribute the resulting work only under the same or similar license to this
  one.

See http://creativecommons.org/licenses/by-sa/3.0/ for more details.
-->
<!DOCTYPE svg PUBLIC "-//W3C//DTD SVG 1.0//EN" "http://www.w3.org/TR/2001/REC-SVG-20010904/DTD/svg10.dtd" [
<!ATTLIST g
xmlns:kvg CDATA #FIXED "http://kanjivg.tagaini.net"
kvg:element CDATA #IMPLIED
kvg:variant CDATA #IMPLIED
kvg:partial CDATA #IMPLIED
kvg:original CDATA #IMPLIED
kvg:part CDATA #IMPLIED
kvg:number CDATA #IMPLIED
kvg:tradForm CDATA #IMPLIED
kvg:radicalForm CDATA #IMPLIED
kvg:position CDATA #IMPLIED
kvg:radical CDATA #IMPLIED
kvg:phon CDATA #IMPLIED >
<!ATTLIST path
xmlns:kvg CDATA #FIXED "http://kanjivg.tagaini.net"
kvg:type CDATA #IMPLIED >
]>
<svg xmlns="http://www.w3.org/2000/svg" width="327" height = "327" viewBox="0 0 327 327">
<g id="kvg:StrokePaths_07956" style="fill:none;stroke:#000000;stroke-width:3;stroke-linecap:round;stroke-linejoin:round;" transform="scale(3.0,3.0)">
<g id="kvg:07956" kvg:element="祖">
	<g id="kvg:07956-g1" kvg:element="礻" kvg:variant="true" kvg:original="示" kvg:position="left" kvg:radical="general">
		<path style="stroke: #bf0909;" id="kvg:07956-s1" kvg:type="㇔" d="M25.83,15.5c3.24,2,6.72,5,9.5,8.5"/>
		<path style="stroke: #bf8209;" id="kvg:07956-s2" kvg:type="㇇" d="M12.08,37.82c1.05,0.48,3.12,0.93,4.92,0.75c3.13-0.32,18.08-5.01,20.68-5.81c2.6-0.8,4.46,1.33,2.88,3.73c-5.45,8.29-16.81,23.26-26.95,33.26"/>
		<path style="stroke: #82bf09;" id="kvg:07956-s3" kvg:type="㇑" d="M29,54.36c0.88,0.88,1.77,2.51,1.77,3.89c0,10.25-0.02,20-0.02,30.75c0,3.01,0.08,5.47,0.08,6.25"/>
		<path style="stroke: #09bf09;" id="kvg:07956-s4" kvg:type="㇔" d="M33.58,51c3.76,2.65,7.78,6.62,11,11.25"/>
	</g>
	<g id="kvg:07956-g2" kvg:element="且" kvg:position="right" kvg:phon="且">
		<g id="kvg:07956-g3" kvg:element="月">
			<path style="stroke: #09bf82;" id="kvg:07956-s5" kvg:type="㇑a" d="M54.69,25.48c0.98,0.98,1.38,2.4,1.38,3.64c0,0.97,0.09,52.38,0.09,59.25"/>
			<path style="stroke: #0982bf;" id="kvg:07956-s6" kvg:type="㇕b" d="M57.18,26.81c3.44-0.31,19.82-2.56,23.63-2.98c2.98-0.33,4.25,0.67,4.25,3.7c0,4.72-0.03,53.1-0.03,57.49"/>
			<path style="stroke: #0909bf;" id="kvg:07956-s7" kvg:type="㇐a" d="M57.26,46.78c7.63-0.94,20.1-2.55,26.8-2.84"/>
			<path style="stroke: #8209bf;" id="kvg:07956-s8" kvg:type="㇐a" d="M57.46,66.01c6.67-0.64,20.79-1.89,26.38-2.21"/>
		</g>
		<g id="kvg:07956-g4" kvg:element="一">
			<path style="stroke: #bf0982;" id="kvg:07956-s9" kvg:type="㇐" d="M43.08,89.84c2.05,0.53,5.16,0.36,7.56,0.2c11.28-0.77,30.06-2.41,41.36-2.69c2.53-0.06,5.11-0.18,7.6,0.36"/>
		</g>
	</g>
</g>
</g>
<g id="kvg:StrokeNumbers_07956" style="font-size:8;fill:#808080" transform="scale(3.0,3.0)">
	<text style="fill: #bf0909;" transform="matrix(1 0 0 1 17.25 15.50)">1</text>
	<text style="fill: #bf8209;" transform="matrix(1 0 0 1 14.25 35.50)">2</text>
	<text style="fill: #82bf09;" transform="matrix(1 0 0 1 23.50 70.50)">3</text>
	<text style="fill: #09bf09;" transform="matrix(1 0 0 1 39.75 52.40)">4</text>
	<text style="fill: #09bf82;" transform="matrix(1 0 0 1 48.75 36.13)">5</text>
	<text style="fill: #0982bf;" transform="matrix(1 0 0 1 57.50 23.50)">6</text>
	<text style="fill: #0909bf;" transform="matrix(1 0 0 1 60.50 43.58)">7</text>
	<text style="fill: #8209bf;" transform="matrix(1 0 0 1 60.46 62.50)">8</text>
	<text style="fill: #bf0982;" transform="matrix(1 0 0 1 41.50 87.50)">9</text>
</g>
</svg>
