<?xml version="1.0" encoding="UTF-8"?>
<!--
This file has been modified from the original version by the kanji_colorize.py
script (available at http://github.com/cayennes/kanji-colorize) with these
settings:
    mode: spectrum
    saturation: 0.95
    value: 0.75
    image_size: 327
It remains under a Creative Commons-Attribution-Share Alike 3.0 License.

The original SVG has the following copyright:

Copyright (C) 2009/2010/2011 Ulrich Apel.
This work is distributed under the conditions of the Creative Commons
Attribution-Share Alike 3.0 Licence. This means you are free:
* to Share - to copy, distribute and transmit the work
* to Remix - to adapt the work

Under the following conditions:
* Attribution. You must attribute the work by stating your use of KanjiVG in
  your own copyright header and linking to KanjiVG's website
  (http://kanjivg.tagaini.net)
* Share Alike. If you alter, transform, or build upon this work, you may
  distribute the resulting work only under the same or similar license to this
  one.

See http://creativecommons.org/licenses/by-sa/3.0/ for more details.
-->
<!DOCTYPE svg PUBLIC "-//W3C//DTD SVG 1.0//EN" "http://www.w3.org/TR/2001/REC-SVG-20010904/DTD/svg10.dtd" [
<!ATTLIST g
xmlns:kvg CDATA #FIXED "http://kanjivg.tagaini.net"
kvg:element CDATA #IMPLIED
kvg:variant CDATA #IMPLIED
kvg:partial CDATA #IMPLIED
kvg:original CDATA #IMPLIED
kvg:part CDATA #IMPLIED
kvg:number CDATA #IMPLIED
kvg:tradForm CDATA #IMPLIED
kvg:radicalForm CDATA #IMPLIED
kvg:position CDATA #IMPLIED
kvg:radical CDATA #IMPLIED
kvg:phon CDATA #IMPLIED >
<!ATTLIST path
xmlns:kvg CDATA #FIXED "http://kanjivg.tagaini.net"
kvg:type CDATA #IMPLIED >
]>
<svg xmlns="http://www.w3.org/2000/svg" width="327" height = "327" viewBox="0 0 327 327">
<g id="kvg:StrokePaths_07962" style="fill:none;stroke:#000000;stroke-width:3;stroke-linecap:round;stroke-linejoin:round;" transform="scale(3.0,3.0)">
<g id="kvg:07962" kvg:element="祢">
	<g id="kvg:07962-g1" kvg:element="礻" kvg:variant="true" kvg:original="示" kvg:radicalForm="true" kvg:position="left">
		<path style="stroke: #bf0909;" id="kvg:07962-s1" kvg:type="㇔" d="M28.58,15c3.33,2.06,6.9,5.15,9.75,8.75"/>
		<path style="stroke: #bf8209;" id="kvg:07962-s2" kvg:type="㇇" d="M15.08,38c1.01,0.45,2.59,1.2,4.26,0.7c2.05-0.61,17.24-3.45,19.74-4.2s5.02,1.01,3.5,3.25C37.33,45.5,26.08,60.25,17.33,68"/>
		<path style="stroke: #82bf09;" id="kvg:07962-s3" kvg:type="㇑" d="M31,54.61c0.12,0.29,1.65,1.53,1.77,3.39c0.57,8.93,0.06,33.7,0.06,36.75"/>
		<path style="stroke: #09bf09;" id="kvg:07962-s4" kvg:type="㇔" d="M33.83,55c3.76,2.18,7.78,5.44,11,9.25"/>
	</g>
	<g id="kvg:07962-g2" kvg:element="尓" kvg:position="right">
		<g id="kvg:07962-g3" kvg:position="top">
			<g id="kvg:07962-g4" kvg:element="丿">
				<path style="stroke: #09bf82;" id="kvg:07962-s5" kvg:type="㇒" d="M65.03,15.64c0.05,0.8,0.2,2.08-0.09,3.2c-1.79,6.75-7.47,21.54-16.18,30.59"/>
			</g>
			<path style="stroke: #0982bf;" id="kvg:07962-s6" kvg:type="㇐" d="M60.98,37.24c1.48,0.08,2.61,0.01,3.54-0.04c12.24-0.69,19.04-2.47,25.34-2.85c1.53-0.09,2.46,0.18,3.23,0.37"/>
		</g>
		<g id="kvg:07962-g5" kvg:element="小" kvg:position="bottom">
			<path style="stroke: #0909bf;" id="kvg:07962-s7" kvg:type="㇚" d="M71.62,38.69c0.07,0.4,0.99,2.11,1.06,4.67c0.34,12.32-0.22,40.77-0.22,44.97c0,9.52-6.1,1.27-7.37,0.21"/>
			<path style="stroke: #8209bf;" id="kvg:07962-s8" kvg:type="㇒" d="M57.15,56.38c0.03,0.57,0.07,1.47-0.07,2.28c-0.79,4.82-5.35,15.38-11.6,21.85"/>
			<path style="stroke: #bf0982;" id="kvg:07962-s9" kvg:type="㇔" d="M84.3,55.81c4.15,4.03,10.72,16.57,11.76,22.84"/>
		</g>
	</g>
</g>
</g>
<g id="kvg:StrokeNumbers_07962" style="font-size:8;fill:#808080" transform="scale(3.0,3.0)">
	<text style="fill: #bf0909;" transform="matrix(1 0 0 1 22.50 15.50)">1</text>
	<text style="fill: #bf8209;" transform="matrix(1 0 0 1 6.58 37.50)">2</text>
	<text style="fill: #82bf09;" transform="matrix(1 0 0 1 26.50 67.48)">3</text>
	<text style="fill: #09bf09;" transform="matrix(1 0 0 1 37.50 54.50)">4</text>
	<text style="fill: #09bf82;" transform="matrix(1 0 0 1 55.50 14.50)">5</text>
	<text style="fill: #0982bf;" transform="matrix(1 0 0 1 66.50 33.50)">6</text>
	<text style="fill: #0909bf;" transform="matrix(1 0 0 1 63.92 47.18)">7</text>
	<text style="fill: #8209bf;" transform="matrix(1 0 0 1 48.50 58.50)">8</text>
	<text style="fill: #bf0982;" transform="matrix(1 0 0 1 81.25 52.36)">9</text>
</g>
</svg>
