<?xml version="1.0" encoding="UTF-8"?>
<!--
This file has been modified from the original version by the kanji_colorize.py
script (available at http://github.com/cayennes/kanji-colorize) with these
settings:
    mode: spectrum
    saturation: 0.95
    value: 0.75
    image_size: 327
It remains under a Creative Commons-Attribution-Share Alike 3.0 License.

The original SVG has the following copyright:

Copyright (C) 2009/2010/2011 Ulrich Apel.
This work is distributed under the conditions of the Creative Commons
Attribution-Share Alike 3.0 Licence. This means you are free:
* to Share - to copy, distribute and transmit the work
* to Remix - to adapt the work

Under the following conditions:
* Attribution. You must attribute the work by stating your use of KanjiVG in
  your own copyright header and linking to KanjiVG's website
  (http://kanjivg.tagaini.net)
* Share Alike. If you alter, transform, or build upon this work, you may
  distribute the resulting work only under the same or similar license to this
  one.

See http://creativecommons.org/licenses/by-sa/3.0/ for more details.
-->
<!DOCTYPE svg PUBLIC "-//W3C//DTD SVG 1.0//EN" "http://www.w3.org/TR/2001/REC-SVG-20010904/DTD/svg10.dtd" [
<!ATTLIST g
xmlns:kvg CDATA #FIXED "http://kanjivg.tagaini.net"
kvg:element CDATA #IMPLIED
kvg:variant CDATA #IMPLIED
kvg:partial CDATA #IMPLIED
kvg:original CDATA #IMPLIED
kvg:part CDATA #IMPLIED
kvg:number CDATA #IMPLIED
kvg:tradForm CDATA #IMPLIED
kvg:radicalForm CDATA #IMPLIED
kvg:position CDATA #IMPLIED
kvg:radical CDATA #IMPLIED
kvg:phon CDATA #IMPLIED >
<!ATTLIST path
xmlns:kvg CDATA #FIXED "http://kanjivg.tagaini.net"
kvg:type CDATA #IMPLIED >
]>
<svg xmlns="http://www.w3.org/2000/svg" width="327" height = "327" viewBox="0 0 327 327">
<g id="kvg:StrokePaths_0798e" style="fill:none;stroke:#000000;stroke-width:3;stroke-linecap:round;stroke-linejoin:round;" transform="scale(3.0,3.0)">
<g id="kvg:0798e" kvg:element="禎">
	<g id="kvg:0798e-g1" kvg:element="礻" kvg:variant="true" kvg:original="示" kvg:position="left" kvg:radical="general">
		<path style="stroke: #bf0909;" id="kvg:0798e-s1" kvg:type="㇔" d="M23.33,13.41c4.35,2.14,9.02,5.34,12.75,9.08"/>
		<path style="stroke: #bf5d09;" id="kvg:0798e-s2" kvg:type="㇇" d="M14.33,38.25c2.31,1.03,4.51,0.85,6.93,0.28c5.04-1.2,15.08-3.68,17.07-4.28c2.5-0.75,4.02,1.01,2.5,3.25c-5.25,7.75-15.2,22-26.25,32.25"/>
		<path style="stroke: #bfb109;" id="kvg:0798e-s3" kvg:type="㇑" d="M29.25,55.86c0.94,0.94,1.27,2.02,1.27,3.89c0,8.14,0.03,22.5,0.04,31c0.01,3.51,0.01,6.11,0.01,7"/>
		<path style="stroke: #79bf09;" id="kvg:0798e-s4" kvg:type="㇔" d="M33.49,53.91c3.78,2.45,7.84,6.13,11.08,10.42"/>
	</g>
	<g id="kvg:0798e-g2" kvg:element="貞" kvg:position="right">
		<g id="kvg:0798e-g3" kvg:element="卜" kvg:variant="true" kvg:original="ト" kvg:position="top">
			<path style="stroke: #25bf09;" id="kvg:0798e-s5" kvg:type="㇑" d="M66.33,11.63c1.27,1.27,1.49,2.37,1.49,4.12c0,0.98,0.05,16,0.05,20.63"/>
			<path style="stroke: #09bf41;" id="kvg:0798e-s6" kvg:type="㇐" d="M70.8,25.25C75,24.62,83.5,23,86.94,22.5c1.56-0.23,2.37,0,3.55,0"/>
		</g>
		<g id="kvg:0798e-g4" kvg:element="貝" kvg:position="bottom">
			<g id="kvg:0798e-g5" kvg:element="目" kvg:position="top">
				<path style="stroke: #09bf95;" id="kvg:0798e-s7" kvg:type="㇑" d="M52.91,38.01c0.85,0.85,1.1,1.94,1.1,3.27c0,1.07,0.06,20.8,0.09,32.84c0.01,2.92,0.01,5.4,0.01,7.04"/>
				<path style="stroke: #0995bf;" id="kvg:0798e-s8" kvg:type="㇕a" d="M54.92,39.32c2.73-0.26,21.59-2.49,27.98-3.24c3.45-0.41,5.52-0.25,5.53,3.55c0.01,5.58,0.03,23.09,0.04,32.5c0,3.51,0.01,5.89,0.01,6.11"/>
				<path style="stroke: #0941bf;" id="kvg:0798e-s9" kvg:type="㇐a" d="M55.07,51.92c9.93-1.04,24.81-2.17,32.31-2.42"/>
				<path style="stroke: #2509bf;" id="kvg:0798e-s10" kvg:type="㇐a" d="M55.07,64.52c10.18-0.77,20.8-1.52,32.12-1.98"/>
				<path style="stroke: #7909bf;" id="kvg:0798e-s11" kvg:type="㇐a" d="M55.17,77.79c8.77-0.91,24.02-1.3,32.02-1.63"/>
			</g>
			<g id="kvg:0798e-g6" kvg:position="bottom">
				<path style="stroke: #bf09b1;" id="kvg:0798e-s12" kvg:type="㇒" d="M62.36,84.53c0,1.09-0.43,2.12-1.37,2.97c-2.84,2.58-10.22,7.53-15.9,10.68"/>
				<path style="stroke: #bf095d;" id="kvg:0798e-s13" kvg:type="㇔" d="M79.15,83.54c5.98,3.38,13.05,9.67,14.69,12.77"/>
			</g>
		</g>
	</g>
</g>
</g>
<g id="kvg:StrokeNumbers_0798e" style="font-size:8;fill:#808080" transform="scale(3.0,3.0)">
	<text style="fill: #bf0909;" transform="matrix(1 0 0 1 17.25 13.38)">1</text>
	<text style="fill: #bf5d09;" transform="matrix(1 0 0 1 6.25 39.25)">2</text>
	<text style="fill: #bfb109;" transform="matrix(1 0 0 1 23.25 71.25)">3</text>
	<text style="fill: #79bf09;" transform="matrix(1 0 0 1 38.25 54.25)">4</text>
	<text style="fill: #25bf09;" transform="matrix(1 0 0 1 56.25 12.25)">5</text>
	<text style="fill: #09bf41;" transform="matrix(1 0 0 1 72.25 22.25)">6</text>
	<text style="fill: #09bf95;" transform="matrix(1 0 0 1 46.25 46.26)">7</text>
	<text style="fill: #0995bf;" transform="matrix(1 0 0 1 56.25 36.25)">8</text>
	<text style="fill: #0941bf;" transform="matrix(1 0 0 1 59.25 48.25)">9</text>
	<text style="fill: #2509bf;" transform="matrix(1 0 0 1 58.99 61.25)">10</text>
	<text style="fill: #7909bf;" transform="matrix(1 0 0 1 59.25 74.30)">11</text>
	<text style="fill: #bf09b1;" transform="matrix(1 0 0 1 47.25 89.55)">12</text>
	<text style="fill: #bf095d;" transform="matrix(1 0 0 1 69.25 88.48)">13</text>
</g>
</svg>
