<?xml version="1.0" encoding="UTF-8"?>
<!--
This file has been modified from the original version by the kanji_colorize.py
script (available at http://github.com/cayennes/kanji-colorize) with these
settings:
    mode: spectrum
    saturation: 0.95
    value: 0.75
    image_size: 327
It remains under a Creative Commons-Attribution-Share Alike 3.0 License.

The original SVG has the following copyright:

Copyright (C) 2009/2010/2011 Ulrich Apel.
This work is distributed under the conditions of the Creative Commons
Attribution-Share Alike 3.0 Licence. This means you are free:
* to Share - to copy, distribute and transmit the work
* to Remix - to adapt the work

Under the following conditions:
* Attribution. You must attribute the work by stating your use of KanjiVG in
  your own copyright header and linking to KanjiVG's website
  (http://kanjivg.tagaini.net)
* Share Alike. If you alter, transform, or build upon this work, you may
  distribute the resulting work only under the same or similar license to this
  one.

See http://creativecommons.org/licenses/by-sa/3.0/ for more details.
-->
<!DOCTYPE svg PUBLIC "-//W3C//DTD SVG 1.0//EN" "http://www.w3.org/TR/2001/REC-SVG-20010904/DTD/svg10.dtd" [
<!ATTLIST g
xmlns:kvg CDATA #FIXED "http://kanjivg.tagaini.net"
kvg:element CDATA #IMPLIED
kvg:variant CDATA #IMPLIED
kvg:partial CDATA #IMPLIED
kvg:original CDATA #IMPLIED
kvg:part CDATA #IMPLIED
kvg:number CDATA #IMPLIED
kvg:tradForm CDATA #IMPLIED
kvg:radicalForm CDATA #IMPLIED
kvg:position CDATA #IMPLIED
kvg:radical CDATA #IMPLIED
kvg:phon CDATA #IMPLIED >
<!ATTLIST path
xmlns:kvg CDATA #FIXED "http://kanjivg.tagaini.net"
kvg:type CDATA #IMPLIED >
]>
<svg xmlns="http://www.w3.org/2000/svg" width="327" height = "327" viewBox="0 0 327 327">
<g id="kvg:StrokePaths_079be" style="fill:none;stroke:#000000;stroke-width:3;stroke-linecap:round;stroke-linejoin:round;" transform="scale(3.0,3.0)">
<g id="kvg:079be" kvg:element="禾" kvg:radical="general">
	<g id="kvg:079be-g1" kvg:element="丿" kvg:position="top">
		<path style="stroke: #bf0909;" id="kvg:079be-s1" kvg:type="㇒" d="M75,11.5c-0.23,1.22-1.43,2.39-2.48,2.92C63.62,19,52,23.62,28,29.25"/>
	</g>
	<g id="kvg:079be-g2" kvg:element="木" kvg:position="bottom">
		<path style="stroke: #9abf09;" id="kvg:079be-s2" kvg:type="㇐" d="M16.5,45c3.79,1.15,7.81,0.61,11.65,0.22c17.1-1.72,36.6-3.1,52.23-3.8c3.91-0.18,7.76-0.15,11.62,0.45"/>
		<path style="stroke: #09bf52;" id="kvg:079be-s3" kvg:type="㇑" d="M53.72,25.75c0.95,0.96,1.1,2.29,1.1,3.22c0,3.65-0.11,39.81-0.16,58.91c-0.01,5.28-0.02,9.25-0.02,10.88"/>
		<path style="stroke: #0952bf;" id="kvg:079be-s4" kvg:type="㇒" d="M52.5,44.18c0,1.19-1.99,4.17-3,5.57C41.25,61.15,27.06,74.7,15.25,82.5"/>
		<path style="stroke: #9a09bf;" id="kvg:079be-s5" kvg:type="㇏" d="M56,45.46c3.79,3.67,14.84,17,24.44,26.36C84.26,75.55,91.49,82.12,97,83.5"/>
	</g>
</g>
</g>
<g id="kvg:StrokeNumbers_079be" style="font-size:8;fill:#808080" transform="scale(3.0,3.0)">
	<text style="fill: #bf0909;" transform="matrix(1 0 0 1 66.50 10.50)">1</text>
	<text style="fill: #9abf09;" transform="matrix(1 0 0 1 8.50 45.13)">2</text>
	<text style="fill: #09bf52;" transform="matrix(1 0 0 1 46.50 34.50)">3</text>
	<text style="fill: #0952bf;" transform="matrix(1 0 0 1 36.75 55.63)">4</text>
	<text style="fill: #9a09bf;" transform="matrix(1 0 0 1 67.50 53.50)">5</text>
</g>
</svg>
