<?xml version="1.0" encoding="UTF-8"?>
<!--
This file has been modified from the original version by the kanji_colorize.py
script (available at http://github.com/cayennes/kanji-colorize) with these
settings:
    mode: spectrum
    saturation: 0.95
    value: 0.75
    image_size: 327
It remains under a Creative Commons-Attribution-Share Alike 3.0 License.

The original SVG has the following copyright:

Copyright (C) 2009/2010/2011 Ulrich Apel.
This work is distributed under the conditions of the Creative Commons
Attribution-Share Alike 3.0 Licence. This means you are free:
* to Share - to copy, distribute and transmit the work
* to Remix - to adapt the work

Under the following conditions:
* Attribution. You must attribute the work by stating your use of KanjiVG in
  your own copyright header and linking to KanjiVG's website
  (http://kanjivg.tagaini.net)
* Share Alike. If you alter, transform, or build upon this work, you may
  distribute the resulting work only under the same or similar license to this
  one.

See http://creativecommons.org/licenses/by-sa/3.0/ for more details.
-->
<!DOCTYPE svg PUBLIC "-//W3C//DTD SVG 1.0//EN" "http://www.w3.org/TR/2001/REC-SVG-20010904/DTD/svg10.dtd" [
<!ATTLIST g
xmlns:kvg CDATA #FIXED "http://kanjivg.tagaini.net"
kvg:element CDATA #IMPLIED
kvg:variant CDATA #IMPLIED
kvg:partial CDATA #IMPLIED
kvg:original CDATA #IMPLIED
kvg:part CDATA #IMPLIED
kvg:number CDATA #IMPLIED
kvg:tradForm CDATA #IMPLIED
kvg:radicalForm CDATA #IMPLIED
kvg:position CDATA #IMPLIED
kvg:radical CDATA #IMPLIED
kvg:phon CDATA #IMPLIED >
<!ATTLIST path
xmlns:kvg CDATA #FIXED "http://kanjivg.tagaini.net"
kvg:type CDATA #IMPLIED >
]>
<svg xmlns="http://www.w3.org/2000/svg" width="327" height = "327" viewBox="0 0 327 327">
<g id="kvg:StrokePaths_079d5" style="fill:none;stroke:#000000;stroke-width:3;stroke-linecap:round;stroke-linejoin:round;" transform="scale(3.0,3.0)">
<g id="kvg:079d5" kvg:element="秕">
	<g id="kvg:079d5-g1" kvg:element="禾" kvg:position="left" kvg:radical="tradit">
		<g id="kvg:079d5-g2" kvg:element="丿" kvg:position="top">
			<path style="stroke: #bf0909;" id="kvg:079d5-s1" kvg:type="㇒" d="M38.75,16.5c0.06,0.29,0.14,0.76-0.13,1.18C37.04,20.18,27.94,25.65,15.5,29"/>
		</g>
		<g id="kvg:079d5-g3" kvg:element="木" kvg:position="bottom">
			<path style="stroke: #bf8209;" id="kvg:079d5-s2" kvg:type="㇐" d="M13.12,44.61c0.47,0.22,1.73,0.85,2.96,0.66C24.25,44,31.75,43.5,41.67,42.9c1.25-0.08,1.55-0.22,2.33,0"/>
			<path style="stroke: #82bf09;" id="kvg:079d5-s3" kvg:type="㇑" d="M30.24,25.41c0.46,0.43,0.74,1.95,0.83,2.82c0.09,0.87,0,61.59-0.09,67.02"/>
			<path style="stroke: #09bf09;" id="kvg:079d5-s4" kvg:type="㇒" d="M30.93,45.47C26.79,56.54,19.88,70.2,10.5,79.25"/>
			<path style="stroke: #09bf82;" id="kvg:079d5-s5" kvg:type="㇏" d="M33.25,53.25c3.56,2.62,6.58,7.88,8.5,11.25"/>
		</g>
	</g>
	<g id="kvg:079d5-g4" kvg:element="比" kvg:position="right">
		<g id="kvg:079d5-g5" kvg:position="left">
			<path style="stroke: #0982bf;" id="kvg:079d5-s6" kvg:type="㇐b" d="M52.75,49.62c4.45-0.31,8.26-1.4,12.14-1.91c1.14-0.15,3.02-0.15,3.61-0.06"/>
			<path style="stroke: #0909bf;" id="kvg:079d5-s7" kvg:type="㇙" d="M50.91,17.81c0.72,1.34,1.34,2.74,1.29,4.55c-0.12,4.9-1.08,57.22-1.25,64.51c-0.11,4.46,0.58,5.39,2.49,3.78C58.79,86.14,64.72,81.75,68,79.5"/>
		</g>
		<g id="kvg:079d5-g6" kvg:element="匕" kvg:position="right">
			<path style="stroke: #8209bf;" id="kvg:079d5-s8" kvg:type="㇒" d="M95.56,33.44c0.23,0.78,0.29,2.57-0.8,3.46c-6.26,5.11-11,8.84-17.98,13.1"/>
			<path style="stroke: #bf0982;" id="kvg:079d5-s9" kvg:type="㇟" d="M73.79,16.5c0.74,1.23,1.38,3.2,1.38,4.76c0,4.1-0.81,49.02-0.81,53.84c0,15.39,0.13,17.39,10.56,17.39c11.3,0,11.02-4.71,11.02-13.15"/>
		</g>
	</g>
</g>
</g>
<g id="kvg:StrokeNumbers_079d5" style="font-size:8;fill:#808080" transform="scale(3.0,3.0)">
	<text style="fill: #bf0909;" transform="matrix(1 0 0 1 30.50 13.63)">1</text>
	<text style="fill: #bf8209;" transform="matrix(1 0 0 1 5.50 44.55)">2</text>
	<text style="fill: #82bf09;" transform="matrix(1 0 0 1 22.50 35.48)">3</text>
	<text style="fill: #09bf09;" transform="matrix(1 0 0 1 18.25 55.40)">4</text>
	<text style="fill: #09bf82;" transform="matrix(1 0 0 1 37.50 52.50)">5</text>
	<text style="fill: #0982bf;" transform="matrix(1 0 0 1 55.50 45.50)">6</text>
	<text style="fill: #0909bf;" transform="matrix(1 0 0 1 43.50 13.50)">7</text>
	<text style="fill: #8209bf;" transform="matrix(1 0 0 1 86.50 30.50)">8</text>
	<text style="fill: #bf0982;" transform="matrix(1 0 0 1 65.50 13.50)">9</text>
</g>
</svg>
