<?xml version="1.0" encoding="UTF-8"?>
<!--
This file has been modified from the original version by the kanji_colorize.py
script (available at http://github.com/cayennes/kanji-colorize) with these
settings:
    mode: spectrum
    saturation: 0.95
    value: 0.75
    image_size: 327
It remains under a Creative Commons-Attribution-Share Alike 3.0 License.

The original SVG has the following copyright:

Copyright (C) 2009/2010/2011 Ulrich Apel.
This work is distributed under the conditions of the Creative Commons
Attribution-Share Alike 3.0 Licence. This means you are free:
* to Share - to copy, distribute and transmit the work
* to Remix - to adapt the work

Under the following conditions:
* Attribution. You must attribute the work by stating your use of KanjiVG in
  your own copyright header and linking to KanjiVG's website
  (http://kanjivg.tagaini.net)
* Share Alike. If you alter, transform, or build upon this work, you may
  distribute the resulting work only under the same or similar license to this
  one.

See http://creativecommons.org/licenses/by-sa/3.0/ for more details.
-->
<!DOCTYPE svg PUBLIC "-//W3C//DTD SVG 1.0//EN" "http://www.w3.org/TR/2001/REC-SVG-20010904/DTD/svg10.dtd" [
<!ATTLIST g
xmlns:kvg CDATA #FIXED "http://kanjivg.tagaini.net"
kvg:element CDATA #IMPLIED
kvg:variant CDATA #IMPLIED
kvg:partial CDATA #IMPLIED
kvg:original CDATA #IMPLIED
kvg:part CDATA #IMPLIED
kvg:number CDATA #IMPLIED
kvg:tradForm CDATA #IMPLIED
kvg:radicalForm CDATA #IMPLIED
kvg:position CDATA #IMPLIED
kvg:radical CDATA #IMPLIED
kvg:phon CDATA #IMPLIED >
<!ATTLIST path
xmlns:kvg CDATA #FIXED "http://kanjivg.tagaini.net"
kvg:type CDATA #IMPLIED >
]>
<svg xmlns="http://www.w3.org/2000/svg" width="327" height = "327" viewBox="0 0 327 327">
<g id="kvg:StrokePaths_07a43" style="fill:none;stroke:#000000;stroke-width:3;stroke-linecap:round;stroke-linejoin:round;" transform="scale(3.0,3.0)">
<g id="kvg:07a43" kvg:element="穃">
	<g id="kvg:07a43-g1" kvg:element="禾" kvg:position="left" kvg:radical="general">
		<g id="kvg:07a43-g2" kvg:element="丿" kvg:position="top">
			<path style="stroke: #bf0909;" id="kvg:07a43-s1" kvg:type="㇒" d="M36.74,13.75c0.07,0.29,0.15,0.74-0.15,1.16C34.81,17.35,24.54,22.72,10.5,26"/>
		</g>
		<g id="kvg:07a43-g3" kvg:element="木" kvg:position="bottom">
			<path style="stroke: #bf5209;" id="kvg:07a43-s2" kvg:type="㇐" d="M10.37,41.53c0.26,0.13,0.95,0.34,1.63,0.39c1.89,0.13,17.35-1.95,22.07-2.59c0.68-0.09,0.86-0.13,1.29,0"/>
			<path style="stroke: #bf9a09;" id="kvg:07a43-s3" kvg:type="㇑" d="M25.39,24.25c0.43,0.46,0.69,2.05,0.78,2.96c0.09,0.91,0,64.59-0.09,70.29"/>
			<path style="stroke: #9abf09;" id="kvg:07a43-s4" kvg:type="㇒" d="M26,44c-3.45,11.3-9.2,25.25-17,34.5"/>
			<path style="stroke: #52bf09;" id="kvg:07a43-s5" kvg:type="㇔/㇏" d="M26.5,48.75c3.98,3.09,7.35,9.27,9.5,13.25"/>
		</g>
	</g>
	<g id="kvg:07a43-g4" kvg:element="容" kvg:position="right">
		<g id="kvg:07a43-g5" kvg:element="宀" kvg:position="top">
			<path style="stroke: #09bf09;" id="kvg:07a43-s6" kvg:type="㇑a" d="M64.05,12.66c1.21,0.43,2.45,3.04,2.42,4.28c-0.09,3.91-0.09,6.98-0.09,10.54"/>
			<g id="kvg:07a43-g6" kvg:element="冖">
				<path style="stroke: #09bf52;" id="kvg:07a43-s7" kvg:type="㇔" d="M43.71,26.25c0,4.02-1.9,15.07-2.77,17.75"/>
				<path style="stroke: #09bf9a;" id="kvg:07a43-s8" kvg:type="㇖b" d="M45.75,30.67c6.31-0.56,39.98-2.55,45.11-2.58c9.31-0.06,1.38,6.71-0.61,7.91"/>
			</g>
		</g>
		<g id="kvg:07a43-g7" kvg:element="谷" kvg:position="bottom">
			<g id="kvg:07a43-g8" kvg:position="top">
				<path style="stroke: #099abf;" id="kvg:07a43-s9" kvg:type="㇒" d="M58,38.5c0.04,0.39,0.2,1.07-0.09,1.58c-2.23,4-6.92,9.55-15.41,15.17"/>
				<path style="stroke: #0952bf;" id="kvg:07a43-s10" kvg:type="㇔" d="M75.25,37.5c5.67,3.28,12.57,9.55,14.51,12.91"/>
			</g>
			<g id="kvg:07a43-g9" kvg:position="bottom">
				<path style="stroke: #0909bf;" id="kvg:07a43-s11" kvg:type="㇒" d="M66.5,46.25c0.08,0.71,0.35,1.91-0.17,2.84c-4.62,8.32-14.07,18.15-30.25,28.08"/>
				<path style="stroke: #5209bf;" id="kvg:07a43-s12" kvg:type="㇏" d="M65.91,50.65c7.21,7.25,20.65,17.6,27.26,21.45c1.64,0.96,3.54,1.58,5.08,1.89"/>
				<g id="kvg:07a43-g10" kvg:element="口">
					<path style="stroke: #9a09bf;" id="kvg:07a43-s13" kvg:type="㇑" d="M50.5,75.75c0.36,0.33,0.73,1.12,0.89,1.53c1.25,3.31,2.36,14.47,3.18,20.42"/>
					<path style="stroke: #bf099a;" id="kvg:07a43-s14" kvg:type="㇕b" d="M52.07,77.82c9.93-1.07,21.67-1.95,27.52-2.65c2-0.24,3.22,1.6,2.92,2.65c-1.45,5-1.66,9.79-3.01,15.93"/>
					<path style="stroke: #bf0952;" id="kvg:07a43-s15" kvg:type="㇐b" d="M54.34,95.72c7.43-0.15,18.8-0.95,27.34-1.19"/>
				</g>
			</g>
		</g>
	</g>
</g>
</g>
<g id="kvg:StrokeNumbers_07a43" style="font-size:8;fill:#808080" transform="scale(3.0,3.0)">
	<text style="fill: #bf0909;" transform="matrix(1 0 0 1 29.25 10.50)">1</text>
	<text style="fill: #bf5209;" transform="matrix(1 0 0 1 2.50 40.55)">2</text>
	<text style="fill: #bf9a09;" transform="matrix(1 0 0 1 17.50 32.50)">3</text>
	<text style="fill: #9abf09;" transform="matrix(1 0 0 1 15.25 51.40)">4</text>
	<text style="fill: #52bf09;" transform="matrix(1 0 0 1 29.50 49.50)">5</text>
	<text style="fill: #09bf09;" transform="matrix(1 0 0 1 56.50 10.50)">6</text>
	<text style="fill: #09bf52;" transform="matrix(1 0 0 1 37.50 29.50)">7</text>
	<text style="fill: #09bf9a;" transform="matrix(1 0 0 1 47.50 27.50)">8</text>
	<text style="fill: #099abf;" transform="matrix(1 0 0 1 49.25 41.03)">9</text>
	<text style="fill: #0952bf;" transform="matrix(1 0 0 1 64.50 38.50)">10</text>
	<text style="fill: #0909bf;" transform="matrix(1 0 0 1 56.50 50.50)">11</text>
	<text style="fill: #5209bf;" transform="matrix(1 0 0 1 72.25 54.80)">12</text>
	<text style="fill: #9a09bf;" transform="matrix(1 0 0 1 41.25 83.73)">13</text>
	<text style="fill: #bf099a;" transform="matrix(1 0 0 1 53.50 74.50)">14</text>
	<text style="fill: #bf0952;" transform="matrix(1 0 0 1 57.50 92.50)">15</text>
</g>
</svg>
