<?xml version="1.0" encoding="UTF-8"?>
<!--
This file has been modified from the original version by the kanji_colorize.py
script (available at http://github.com/cayennes/kanji-colorize) with these
settings:
    mode: spectrum
    saturation: 0.95
    value: 0.75
    image_size: 327
It remains under a Creative Commons-Attribution-Share Alike 3.0 License.

The original SVG has the following copyright:

Copyright (C) 2009/2010/2011 Ulrich Apel.
This work is distributed under the conditions of the Creative Commons
Attribution-Share Alike 3.0 Licence. This means you are free:
* to Share - to copy, distribute and transmit the work
* to Remix - to adapt the work

Under the following conditions:
* Attribution. You must attribute the work by stating your use of KanjiVG in
  your own copyright header and linking to KanjiVG's website
  (http://kanjivg.tagaini.net)
* Share Alike. If you alter, transform, or build upon this work, you may
  distribute the resulting work only under the same or similar license to this
  one.

See http://creativecommons.org/licenses/by-sa/3.0/ for more details.
-->
<!DOCTYPE svg PUBLIC "-//W3C//DTD SVG 1.0//EN" "http://www.w3.org/TR/2001/REC-SVG-20010904/DTD/svg10.dtd" [
<!ATTLIST g
xmlns:kvg CDATA #FIXED "http://kanjivg.tagaini.net"
kvg:element CDATA #IMPLIED
kvg:variant CDATA #IMPLIED
kvg:partial CDATA #IMPLIED
kvg:original CDATA #IMPLIED
kvg:part CDATA #IMPLIED
kvg:number CDATA #IMPLIED
kvg:tradForm CDATA #IMPLIED
kvg:radicalForm CDATA #IMPLIED
kvg:position CDATA #IMPLIED
kvg:radical CDATA #IMPLIED
kvg:phon CDATA #IMPLIED >
<!ATTLIST path
xmlns:kvg CDATA #FIXED "http://kanjivg.tagaini.net"
kvg:type CDATA #IMPLIED >
]>
<svg xmlns="http://www.w3.org/2000/svg" width="327" height = "327" viewBox="0 0 327 327">
<g id="kvg:StrokePaths_07ab0" style="fill:none;stroke:#000000;stroke-width:3;stroke-linecap:round;stroke-linejoin:round;" transform="scale(3.0,3.0)">
<g id="kvg:07ab0" kvg:element="窰">
	<g id="kvg:07ab0-g1" kvg:element="穴" kvg:variant="true" kvg:position="top" kvg:radical="tradit">
		<g id="kvg:07ab0-g2" kvg:element="宀" kvg:position="top">
			<path style="stroke: #bf0909;" id="kvg:07ab0-s1" kvg:type="㇑a" d="M51.98,8.25c0.99,0.34,2.4,1.98,2.38,2.95c-0.07,3.05-0.07,5.24-0.08,8.02"/>
			<g id="kvg:07ab0-g3" kvg:element="冖">
				<path style="stroke: #bf5209;" id="kvg:07ab0-s2" kvg:type="㇔" d="M19.23,21.01c0,3.23-2.88,12.09-4.18,14.24"/>
				<path style="stroke: #bf9a09;" id="kvg:07ab0-s3" kvg:type="㇖b" d="M19.37,22.74c12.8-1.99,58-5.49,67.34-5.38c12.09,0.14,2.56,6.41-0.45,8.3"/>
			</g>
		</g>
		<g id="kvg:07ab0-g4" kvg:element="八" kvg:variant="true" kvg:position="bottom">
			<path style="stroke: #9abf09;" id="kvg:07ab0-s4" kvg:type="㇒" d="M42.13,23.25c0.06,0.41,0.23,1.11-0.11,1.66C38.83,30,32.14,35.86,21.75,40.75"/>
			<path style="stroke: #52bf09;" id="kvg:07ab0-s5" kvg:type="㇟/㇏" d="M61.34,20.37c0.43,0.49,0.79,1.07,0.79,1.83c0,2.01,0.2,5.04,0.2,7.34c0,5.38,6.21,4.77,11.27,4.77c5.34,0,9.93-0.69,10.67-1.09"/>
		</g>
	</g>
	<g id="kvg:07ab0-g5" kvg:position="bottom">
		<g id="kvg:07ab0-g6" kvg:element="月" kvg:variant="true" kvg:position="top">
			<path style="stroke: #09bf09;" id="kvg:07ab0-s6" kvg:type="㇒" d="M47.05,32.75c0.2,1.5-0.07,2.39-1.06,3.54C41.07,42,31.63,50.9,17.25,56"/>
			<path style="stroke: #09bf52;" id="kvg:07ab0-s7" kvg:type="㇇" d="M44.12,41.93c1.68,0.4,1.97,0.65,4.41,0.5c6.72-0.42,12.74-2.13,16.57-2.8c3.07-0.54,3.91,1.25,2.28,3.1c-7.1,8.08-24.65,20.1-50.97,28.03"/>
			<path style="stroke: #09bf9a;" id="kvg:07ab0-s8" kvg:type="㇐" d="M37.75,47.5c1.33,0.53,6.65,3.68,9.32,6.83"/>
			<path style="stroke: #099abf;" id="kvg:07ab0-s9" kvg:type="㇐" d="M27.8,53.38c1.49,0.98,5.97,5.16,7.22,7.38"/>
		</g>
		<g id="kvg:07ab0-g7" kvg:element="缶" kvg:position="bottom">
			<path style="stroke: #0952bf;" id="kvg:07ab0-s10" kvg:type="㇒" d="M39.33,64.06c0.03,0.29,0.06,0.75-0.05,1.18c-0.67,2.48-4.51,7.93-9.77,11.26"/>
			<path style="stroke: #0909bf;" id="kvg:07ab0-s11" kvg:type="㇐" d="M40.95,68.31c0.87,0.14,2.47,0.21,3.34,0.14c11.45-0.95,23.99-2.89,33.59-3.38c1.44-0.07,2.33,0.07,3.05,0.14"/>
			<path style="stroke: #5209bf;" id="kvg:07ab0-s12" kvg:type="㇐" d="M15.88,81.42c1.51,0.3,4.28,0.34,5.79,0.3c15.71-0.5,46.49-4.34,69.43-4.45c2.52-0.01,4.03,0.14,5.28,0.29"/>
			<path style="stroke: #9a09bf;" id="kvg:07ab0-s13" kvg:type="㇑" d="M54.19,69.08c0.83,0.67,1.28,1.66,1.28,2.58c0,3.24-0.09,22.6-0.22,25.34"/>
			<path style="stroke: #bf099a;" id="kvg:07ab0-s14" kvg:type="㇄" d="M29.19,87.47c0.7,0.21,1.4,1.11,1.39,1.54c-0.07,2.65-0.88,5.29-1.94,9.87c-0.22,0.96-0.29,2.16,1.38,1.77c15.73-3.65,42.04-5.4,50.76-5.52"/>
			<path style="stroke: #bf0952;" id="kvg:07ab0-s15" kvg:type="㇑" d="M81.32,82.87c0.18,0.88,1.49,2.64,1.34,3.08c-0.91,2.69-1.2,7.6-1.99,13.21"/>
		</g>
	</g>
</g>
</g>
<g id="kvg:StrokeNumbers_07ab0" style="font-size:8;fill:#808080" transform="scale(3.0,3.0)">
	<text style="fill: #bf0909;" transform="matrix(1 0 0 1 43.85 10.85)">1</text>
	<text style="fill: #bf5209;" transform="matrix(1 0 0 1 12.50 20.50)">2</text>
	<text style="fill: #bf9a09;" transform="matrix(1 0 0 1 23.71 18.50)">3</text>
	<text style="fill: #9abf09;" transform="matrix(1 0 0 1 29.50 30.50)">4</text>
	<text style="fill: #52bf09;" transform="matrix(1 0 0 1 54.50 28.50)">5</text>
	<text style="fill: #09bf09;" transform="matrix(1 0 0 1 37.50 37.50)">6</text>
	<text style="fill: #09bf52;" transform="matrix(1 0 0 1 52.50 38.50)">7</text>
	<text style="fill: #09bf9a;" transform="matrix(1 0 0 1 44.50 49.50)">8</text>
	<text style="fill: #099abf;" transform="matrix(1 0 0 1 33.50 55.50)">9</text>
	<text style="fill: #0952bf;" transform="matrix(1 0 0 1 26.25 72.95)">10</text>
	<text style="fill: #0909bf;" transform="matrix(1 0 0 1 47.50 65.50)">11</text>
	<text style="fill: #5209bf;" transform="matrix(1 0 0 1 5.50 82.50)">12</text>
	<text style="fill: #9a09bf;" transform="matrix(1 0 0 1 45.50 75.50)">13</text>
	<text style="fill: #bf099a;" transform="matrix(1 0 0 1 18.50 92.65)">14</text>
	<text style="fill: #bf0952;" transform="matrix(1 0 0 1 70.25 87.58)">15</text>
</g>
</svg>
