<?xml version="1.0" encoding="UTF-8"?>
<!--
This file has been modified from the original version by the kanji_colorize.py
script (available at http://github.com/cayennes/kanji-colorize) with these
settings:
    mode: spectrum
    saturation: 0.95
    value: 0.75
    image_size: 327
It remains under a Creative Commons-Attribution-Share Alike 3.0 License.

The original SVG has the following copyright:

Copyright (C) 2009/2010/2011 Ulrich Apel.
This work is distributed under the conditions of the Creative Commons
Attribution-Share Alike 3.0 Licence. This means you are free:
* to Share - to copy, distribute and transmit the work
* to Remix - to adapt the work

Under the following conditions:
* Attribution. You must attribute the work by stating your use of KanjiVG in
  your own copyright header and linking to KanjiVG's website
  (http://kanjivg.tagaini.net)
* Share Alike. If you alter, transform, or build upon this work, you may
  distribute the resulting work only under the same or similar license to this
  one.

See http://creativecommons.org/licenses/by-sa/3.0/ for more details.
-->
<!DOCTYPE svg PUBLIC "-//W3C//DTD SVG 1.0//EN" "http://www.w3.org/TR/2001/REC-SVG-20010904/DTD/svg10.dtd" [
<!ATTLIST g
xmlns:kvg CDATA #FIXED "http://kanjivg.tagaini.net"
kvg:element CDATA #IMPLIED
kvg:variant CDATA #IMPLIED
kvg:partial CDATA #IMPLIED
kvg:original CDATA #IMPLIED
kvg:part CDATA #IMPLIED
kvg:number CDATA #IMPLIED
kvg:tradForm CDATA #IMPLIED
kvg:radicalForm CDATA #IMPLIED
kvg:position CDATA #IMPLIED
kvg:radical CDATA #IMPLIED
kvg:phon CDATA #IMPLIED >
<!ATTLIST path
xmlns:kvg CDATA #FIXED "http://kanjivg.tagaini.net"
kvg:type CDATA #IMPLIED >
]>
<svg xmlns="http://www.w3.org/2000/svg" width="327" height = "327" viewBox="0 0 327 327">
<g id="kvg:StrokePaths_07b02" style="fill:none;stroke:#000000;stroke-width:3;stroke-linecap:round;stroke-linejoin:round;" transform="scale(3.0,3.0)">
<g id="kvg:07b02" kvg:element="笂">
	<g id="kvg:07b02-g1" kvg:element="竹" kvg:variant="true" kvg:position="top" kvg:radical="general">
		<g id="kvg:07b02-g2" kvg:position="left">
			<path style="stroke: #bf0909;" id="kvg:07b02-s1" kvg:type="㇒" d="M28,10.25c0.04,0.58,0.08,1.51-0.08,2.34C26.98,17.53,21.61,28.36,14.25,35"/>
			<path style="stroke: #bf8209;" id="kvg:07b02-s2" kvg:type="㇐b" d="M26.98,21c4.22,0,17.78-1.95,22.52-1.95"/>
			<path style="stroke: #82bf09;" id="kvg:07b02-s3" kvg:type="㇔/㇑" d="M32.5,22.75c2.4,1.94,6.21,7.96,6.81,10.97"/>
		</g>
		<g id="kvg:07b02-g3" kvg:position="right">
			<path style="stroke: #09bf09;" id="kvg:07b02-s4" kvg:type="㇒" d="M60.24,9.5c0.03,0.46,0.13,1.2-0.06,1.84C58.71,16.17,54.64,23.07,49.25,29"/>
			<path style="stroke: #09bf82;" id="kvg:07b02-s5" kvg:type="㇐b" d="M60.5,18.45c5.29,0,24.69-1.94,30.63-1.94"/>
			<path style="stroke: #0982bf;" id="kvg:07b02-s6" kvg:type="㇒/㇚" d="M74.96,22.15c0.03,0.28,0.06,0.72-0.05,1.12c-0.65,2.36-4.34,7.56-9.41,10.73"/>
		</g>
	</g>
	<g id="kvg:07b02-g4" kvg:element="丸" kvg:position="bottom">
		<g id="kvg:07b02-g5" kvg:element="九">
			<path style="stroke: #0909bf;" id="kvg:07b02-s7" kvg:type="㇒" d="M48.05,34.88c0.76,0.54,1.86,1.71,1.82,2.69C48.75,65.75,39.75,86.75,18,97.5"/>
			<g id="kvg:07b02-g6" kvg:element="乙">
				<path style="stroke: #8209bf;" id="kvg:07b02-s8" kvg:type="㇈" d="M22.25,50.75c2,0.25,3.5,0.25,5.5,0c5.3-0.66,42.23-6.7,43.09-6.75c1.93-0.11,3.86,0.88,3.28,3.46c-0.87,3.8-3.26,22.28-3.5,31.74C70.25,94,74.25,97.5,85.11,97.24c9.13-0.22,10.13-2.99,10.13-11.82"/>
			</g>
		</g>
		<g id="kvg:07b02-g7" kvg:element="丶">
			<path style="stroke: #bf0982;" id="kvg:07b02-s9" kvg:type="㇔" d="M33,62c8.31,3.13,21.48,12.86,23.56,17.72"/>
		</g>
	</g>
</g>
</g>
<g id="kvg:StrokeNumbers_07b02" style="font-size:8;fill:#808080" transform="scale(3.0,3.0)">
	<text style="fill: #bf0909;" transform="matrix(1 0 0 1 19.50 9.50)">1</text>
	<text style="fill: #bf8209;" transform="matrix(1 0 0 1 32.50 17.50)">2</text>
	<text style="fill: #82bf09;" transform="matrix(1 0 0 1 27.50 30.48)">3</text>
	<text style="fill: #09bf09;" transform="matrix(1 0 0 1 51.50 8.50)">4</text>
	<text style="fill: #09bf82;" transform="matrix(1 0 0 1 66.50 15.33)">5</text>
	<text style="fill: #0982bf;" transform="matrix(1 0 0 1 64.25 28.25)">6</text>
	<text style="fill: #0909bf;" transform="matrix(1 0 0 1 40.50 41.50)">7</text>
	<text style="fill: #8209bf;" transform="matrix(1 0 0 1 14.50 51.50)">8</text>
	<text style="fill: #bf0982;" transform="matrix(1 0 0 1 25.50 62.50)">9</text>
</g>
</svg>
