<?xml version="1.0" encoding="UTF-8"?>
<!--
This file has been modified from the original version by the kanji_colorize.py
script (available at http://github.com/cayennes/kanji-colorize) with these
settings:
    mode: spectrum
    saturation: 0.95
    value: 0.75
    image_size: 327
It remains under a Creative Commons-Attribution-Share Alike 3.0 License.

The original SVG has the following copyright:

Copyright (C) 2009/2010/2011 Ulrich Apel.
This work is distributed under the conditions of the Creative Commons
Attribution-Share Alike 3.0 Licence. This means you are free:
* to Share - to copy, distribute and transmit the work
* to Remix - to adapt the work

Under the following conditions:
* Attribution. You must attribute the work by stating your use of KanjiVG in
  your own copyright header and linking to KanjiVG's website
  (http://kanjivg.tagaini.net)
* Share Alike. If you alter, transform, or build upon this work, you may
  distribute the resulting work only under the same or similar license to this
  one.

See http://creativecommons.org/licenses/by-sa/3.0/ for more details.
-->
<!DOCTYPE svg PUBLIC "-//W3C//DTD SVG 1.0//EN" "http://www.w3.org/TR/2001/REC-SVG-20010904/DTD/svg10.dtd" [
<!ATTLIST g
xmlns:kvg CDATA #FIXED "http://kanjivg.tagaini.net"
kvg:element CDATA #IMPLIED
kvg:variant CDATA #IMPLIED
kvg:partial CDATA #IMPLIED
kvg:original CDATA #IMPLIED
kvg:part CDATA #IMPLIED
kvg:number CDATA #IMPLIED
kvg:tradForm CDATA #IMPLIED
kvg:radicalForm CDATA #IMPLIED
kvg:position CDATA #IMPLIED
kvg:radical CDATA #IMPLIED
kvg:phon CDATA #IMPLIED >
<!ATTLIST path
xmlns:kvg CDATA #FIXED "http://kanjivg.tagaini.net"
kvg:type CDATA #IMPLIED >
]>
<svg xmlns="http://www.w3.org/2000/svg" width="327" height = "327" viewBox="0 0 327 327">
<g id="kvg:StrokePaths_07b67" style="fill:none;stroke:#000000;stroke-width:3;stroke-linecap:round;stroke-linejoin:round;" transform="scale(3.0,3.0)">
<g id="kvg:07b67" kvg:element="筧">
	<g id="kvg:07b67-g1" kvg:element="竹" kvg:variant="true" kvg:position="top" kvg:radical="general">
		<g id="kvg:07b67-g2" kvg:position="left">
			<path style="stroke: #bf0909;" id="kvg:07b67-s1" kvg:type="㇒" d="M30.99,12c0.04,0.55,0.09,1.41-0.09,2.2c-1.04,4.64-7,14.82-15.16,21.05"/>
			<path style="stroke: #bf5d09;" id="kvg:07b67-s2" kvg:type="㇐b" d="M30.25,23.32c3.66,0,15.39-2.39,19.5-2.39"/>
			<path style="stroke: #bfb109;" id="kvg:07b67-s3" kvg:type="㇔/㇑" d="M34.02,25.08c2.29,1.53,5.91,6.29,6.48,8.67"/>
		</g>
		<g id="kvg:07b67-g3" kvg:position="right">
			<path style="stroke: #79bf09;" id="kvg:07b67-s4" kvg:type="㇒" d="M63.23,10.5c0.03,0.5,0.14,1.3-0.07,2.01c-1.6,5.26-6.04,12.77-11.91,19.24"/>
			<path style="stroke: #25bf09;" id="kvg:07b67-s5" kvg:type="㇐b" d="M63,21.97c4.9,0,22.87-3.36,28.38-3.36"/>
			<path style="stroke: #09bf41;" id="kvg:07b67-s6" kvg:type="㇒/㇚" d="M77.5,23.75c0.03,0.22,0.06,0.58-0.06,0.9c-0.7,1.9-4.7,6.06-10.19,8.6"/>
		</g>
	</g>
	<g id="kvg:07b67-g4" kvg:element="見" kvg:position="bottom">
		<g id="kvg:07b67-g5" kvg:element="目" kvg:position="top">
			<path style="stroke: #09bf95;" id="kvg:07b67-s7" kvg:type="㇑" d="M33.72,38.64c0.62,0.79,1.52,2.88,1.52,3.94c0,1.05-0.2,33.33,0,34.38"/>
			<path style="stroke: #0995bf;" id="kvg:07b67-s8" kvg:type="㇕a" d="M36.28,40.23c3.58-0.13,32.82-2.74,36.08-2.74c1.39,0,2.36,1.74,2.13,2.73c-0.29,1.25-0.76,35.42-0.76,36.22"/>
			<path style="stroke: #0941bf;" id="kvg:07b67-s9" kvg:type="㇐a" d="M36.22,51.61c5.29,0,31.4-2.14,37.34-2.14"/>
			<path style="stroke: #2509bf;" id="kvg:07b67-s10" kvg:type="㇐a" d="M35.5,62.81c10.53-0.31,27.54-1.78,36.89-1.78"/>
			<path style="stroke: #7909bf;" id="kvg:07b67-s11" kvg:type="㇐a" d="M35.41,73.96c7.11,0,28.64-1.71,37.84-1.71"/>
		</g>
		<g id="kvg:07b67-g6" kvg:position="bottom">
			<path style="stroke: #bf09b1;" id="kvg:07b67-s12" kvg:type="㇒" d="M45.14,77.21c0.08,0.56,0.17,1.45-0.16,2.25C43.06,84.21,32.06,94.62,17,101"/>
			<path style="stroke: #bf095d;" id="kvg:07b67-s13" kvg:type="㇟" d="M57.63,75.37c0.65,0.83,1.17,1.81,1.21,3.09c0.09,3.08-0.18,6.94-0.23,10.29c-0.11,8,2.39,9.21,16.15,9.34C91,98.25,92.25,96.25,92.25,87.21"/>
		</g>
	</g>
</g>
</g>
<g id="kvg:StrokeNumbers_07b67" style="font-size:8;fill:#808080" transform="scale(3.0,3.0)">
	<text style="fill: #bf0909;" transform="matrix(1 0 0 1 22.50 11.85)">1</text>
	<text style="fill: #bf5d09;" transform="matrix(1 0 0 1 36.50 19.50)">2</text>
	<text style="fill: #bfb109;" transform="matrix(1 0 0 1 28.50 32.50)">3</text>
	<text style="fill: #79bf09;" transform="matrix(1 0 0 1 54.50 10.50)">4</text>
	<text style="fill: #25bf09;" transform="matrix(1 0 0 1 68.50 18.50)">5</text>
	<text style="fill: #09bf41;" transform="matrix(1 0 0 1 80.00 28.50)">6</text>
	<text style="fill: #09bf95;" transform="matrix(1 0 0 1 26.50 45.50)">7</text>
	<text style="fill: #0995bf;" transform="matrix(1 0 0 1 43.50 36.50)">8</text>
	<text style="fill: #0941bf;" transform="matrix(1 0 0 1 37.34 48.50)">9</text>
	<text style="fill: #2509bf;" transform="matrix(1 0 0 1 37.34 59.50)">10</text>
	<text style="fill: #7909bf;" transform="matrix(1 0 0 1 37.34 70.50)">11</text>
	<text style="fill: #bf09b1;" transform="matrix(1 0 0 1 29.88 84.82)">12</text>
	<text style="fill: #bf095d;" transform="matrix(1 0 0 1 60.73 82.25)">13</text>
</g>
</svg>
