<?xml version="1.0" encoding="UTF-8"?>
<!--
This file has been modified from the original version by the kanji_colorize.py
script (available at http://github.com/cayennes/kanji-colorize) with these
settings:
    mode: spectrum
    saturation: 0.95
    value: 0.75
    image_size: 327
It remains under a Creative Commons-Attribution-Share Alike 3.0 License.

The original SVG has the following copyright:

Copyright (C) 2009/2010/2011 Ulrich Apel.
This work is distributed under the conditions of the Creative Commons
Attribution-Share Alike 3.0 Licence. This means you are free:
* to Share - to copy, distribute and transmit the work
* to Remix - to adapt the work

Under the following conditions:
* Attribution. You must attribute the work by stating your use of KanjiVG in
  your own copyright header and linking to KanjiVG's website
  (http://kanjivg.tagaini.net)
* Share Alike. If you alter, transform, or build upon this work, you may
  distribute the resulting work only under the same or similar license to this
  one.

See http://creativecommons.org/licenses/by-sa/3.0/ for more details.
-->
<!DOCTYPE svg PUBLIC "-//W3C//DTD SVG 1.0//EN" "http://www.w3.org/TR/2001/REC-SVG-20010904/DTD/svg10.dtd" [
<!ATTLIST g
xmlns:kvg CDATA #FIXED "http://kanjivg.tagaini.net"
kvg:element CDATA #IMPLIED
kvg:variant CDATA #IMPLIED
kvg:partial CDATA #IMPLIED
kvg:original CDATA #IMPLIED
kvg:part CDATA #IMPLIED
kvg:number CDATA #IMPLIED
kvg:tradForm CDATA #IMPLIED
kvg:radicalForm CDATA #IMPLIED
kvg:position CDATA #IMPLIED
kvg:radical CDATA #IMPLIED
kvg:phon CDATA #IMPLIED >
<!ATTLIST path
xmlns:kvg CDATA #FIXED "http://kanjivg.tagaini.net"
kvg:type CDATA #IMPLIED >
]>
<svg xmlns="http://www.w3.org/2000/svg" width="327" height = "327" viewBox="0 0 327 327">
<g id="kvg:StrokePaths_07c0d" style="fill:none;stroke:#000000;stroke-width:3;stroke-linecap:round;stroke-linejoin:round;" transform="scale(3.0,3.0)">
<g id="kvg:07c0d" kvg:element="簍">
	<g id="kvg:07c0d-g1" kvg:element="竹" kvg:variant="true" kvg:position="top" kvg:radical="general">
		<g id="kvg:07c0d-g2" kvg:position="left">
			<path style="stroke: #bf0909;" id="kvg:07c0d-s1" kvg:type="㇒" d="M31.5,10.5c0.04,0.51,0.08,1.32-0.08,2.06c-0.95,4.34-6.43,13.86-13.92,19.69"/>
			<path style="stroke: #bf4909;" id="kvg:07c0d-s2" kvg:type="㇐b" d="M30.5,20.77c3.56,0,17-1.99,21-1.99"/>
			<path style="stroke: #bf8909;" id="kvg:07c0d-s3" kvg:type="㇔/㇑" d="M36.02,22.33c2.2,1.57,5.68,6.47,6.23,8.92"/>
		</g>
		<g id="kvg:07c0d-g3" kvg:position="right">
			<path style="stroke: #b4bf09;" id="kvg:07c0d-s4" kvg:type="㇒" d="M62.5,9.25c0.02,0.38,0.09,1-0.04,1.54c-1.04,4.02-3.91,9.77-7.71,14.71"/>
			<path style="stroke: #74bf09;" id="kvg:07c0d-s5" kvg:type="㇐b" d="M62.48,19.66c4.73,0,25.08-3.57,30.4-3.57"/>
			<path style="stroke: #34bf09;" id="kvg:07c0d-s6" kvg:type="㇒/㇚" d="M76.49,21.25c0.03,0.19,0.06,0.5-0.05,0.78c-0.63,1.65-4.24,5.26-9.19,7.47"/>
		</g>
	</g>
	<g id="kvg:07c0d-g4" kvg:element="婁" kvg:position="bottom">
		<g id="kvg:07c0d-g5" kvg:position="top">
			<g id="kvg:07c0d-g6" kvg:element="串" kvg:part="1">
				<g id="kvg:07c0d-g7" kvg:element="口">
					<path style="stroke: #09bf1e;" id="kvg:07c0d-s7" kvg:type="㇑" d="M31.04,38.23c0.44,0.24,1.26,1.27,1.41,2.17c0.98,5.85,1.83,12.33,2.67,16.18"/>
					<path style="stroke: #09bf5f;" id="kvg:07c0d-s8" kvg:type="㇕" d="M31.93,38.92c12.88-0.73,32.31-2.48,42.49-3.13c3.25-0.21,4.09,1.34,3.65,3.05c-1.74,6.78-1.96,11.25-2.95,15.02"/>
				</g>
			</g>
			<path style="stroke: #09bf9f;" id="kvg:07c0d-s9" kvg:type="㇐" d="M16.25,46.98c1.48,0.6,4.21,0.75,5.69,0.6C33.37,46.48,72,44,89.55,43.92c2.47-0.01,3.96,0.29,5.2,0.59"/>
			<g id="kvg:07c0d-g8" kvg:element="串" kvg:part="2">
				<path style="stroke: #099fbf;" id="kvg:07c0d-s10" kvg:type="㇐" d="M35.75,54.68c3.37-0.21,34.17-1.89,38.5-2.1"/>
				<g id="kvg:07c0d-g9" kvg:element="中">
					<g id="kvg:07c0d-g10" kvg:element="口">
						<path style="stroke: #095fbf;" id="kvg:07c0d-s11" kvg:type="㇑" d="M31.73,61.04c0.27,0.48,0.74,1.11,0.86,2.16c0.47,3.87,1.66,6.67,2.15,10.24"/>
						<path style="stroke: #091ebf;" id="kvg:07c0d-s12" kvg:type="㇕b" d="M33.86,61.45c12.37-0.77,30.61-1.55,40.39-2.22c3.12-0.21,3.92,1.12,3.51,2.6c-0.48,1.74-1.44,4.6-2.19,6.7"/>
						<path style="stroke: #3409bf;" id="kvg:07c0d-s13" kvg:type="㇐b" d="M34.5,71.32c3.28-0.17,39.04-2.05,43.25-2.22"/>
					</g>
					<g id="kvg:07c0d-g11" kvg:element="丨">
						<path style="stroke: #7409bf;" id="kvg:07c0d-s14" kvg:type="㇑" d="M52.76,29.5c0.81,0.43,1.29,1.94,1.46,2.8c0.16,0.86,0,32.41-0.16,37.79"/>
					</g>
				</g>
			</g>
		</g>
		<g id="kvg:07c0d-g12" kvg:element="女" kvg:position="bottom">
			<path style="stroke: #b409bf;" id="kvg:07c0d-s15" kvg:type="㇛" d="M49.82,72.78c0.45,0.64,0.13,1.44-0.23,2.23c-1.76,3.88-6.79,9.74-12.4,14.2c-1.22,0.97-0.25,1.27,0.67,1.17c14.39-1.62,29.89,4.38,42.64,10.88"/>
			<path style="stroke: #bf0989;" id="kvg:07c0d-s16" kvg:type="㇒" d="M68.5,76.75c0.14,0.61,0.23,2.1-0.27,2.99c-4.08,7.2-13.24,18.05-44.98,22.76"/>
			<path style="stroke: #bf0949;" id="kvg:07c0d-s17" kvg:type="㇐" d="M14.65,80.82c2.09,0.25,4.33,0.39,5.34,0.38c15.76-0.25,51.55-3.37,71.79-3.49c1.68-0.01,4.56,0.15,5.92,0.43"/>
		</g>
	</g>
</g>
</g>
<g id="kvg:StrokeNumbers_07c0d" style="font-size:8;fill:#808080" transform="scale(3.0,3.0)">
	<text style="fill: #bf0909;" transform="matrix(1 0 0 1 23.85 10.50)">1</text>
	<text style="fill: #bf4909;" transform="matrix(1 0 0 1 35 17.50)">2</text>
	<text style="fill: #bf8909;" transform="matrix(1 0 0 1 31 29)">3</text>
	<text style="fill: #b4bf09;" transform="matrix(1 0 0 1 53.50 11.85)">4</text>
	<text style="fill: #74bf09;" transform="matrix(1 0 0 1 67 15.50)">5</text>
	<text style="fill: #34bf09;" transform="matrix(1 0 0 1 79 25)">6</text>
	<text style="fill: #09bf1e;" transform="matrix(1 0 0 1 24.00 40.93)">7</text>
	<text style="fill: #09bf5f;" transform="matrix(1 0 0 1 33.50 35.50)">8</text>
	<text style="fill: #09bf9f;" transform="matrix(1 0 0 1 8.50 48.50)">9</text>
	<text style="fill: #099fbf;" transform="matrix(1 0 0 1 37.00 52.45)">10</text>
	<text style="fill: #095fbf;" transform="matrix(1 0 0 1 22.50 67.50)">11</text>
	<text style="fill: #091ebf;" transform="matrix(1 0 0 1 37.06 60.50)">12</text>
	<text style="fill: #3409bf;" transform="matrix(1 0 0 1 37.10 68.48)">13</text>
	<text style="fill: #7409bf;" transform="matrix(1 0 0 1 44.00 26.90)">14</text>
	<text style="fill: #b409bf;" transform="matrix(1 0 0 1 38.50 78.33)">15</text>
	<text style="fill: #bf0989;" transform="matrix(1 0 0 1 56.50 77.50)">16</text>
	<text style="fill: #bf0949;" transform="matrix(1 0 0 1 5.50 81.50)">17</text>
</g>
</svg>
