<?xml version="1.0" encoding="UTF-8"?>
<!--
This file has been modified from the original version by the kanji_colorize.py
script (available at http://github.com/cayennes/kanji-colorize) with these
settings:
    mode: spectrum
    saturation: 0.95
    value: 0.75
    image_size: 327
It remains under a Creative Commons-Attribution-Share Alike 3.0 License.

The original SVG has the following copyright:

Copyright (C) 2009/2010/2011 Ulrich Apel.
This work is distributed under the conditions of the Creative Commons
Attribution-Share Alike 3.0 Licence. This means you are free:
* to Share - to copy, distribute and transmit the work
* to Remix - to adapt the work

Under the following conditions:
* Attribution. You must attribute the work by stating your use of KanjiVG in
  your own copyright header and linking to KanjiVG's website
  (http://kanjivg.tagaini.net)
* Share Alike. If you alter, transform, or build upon this work, you may
  distribute the resulting work only under the same or similar license to this
  one.

See http://creativecommons.org/licenses/by-sa/3.0/ for more details.
-->
<!DOCTYPE svg PUBLIC "-//W3C//DTD SVG 1.0//EN" "http://www.w3.org/TR/2001/REC-SVG-20010904/DTD/svg10.dtd" [
<!ATTLIST g
xmlns:kvg CDATA #FIXED "http://kanjivg.tagaini.net"
kvg:element CDATA #IMPLIED
kvg:variant CDATA #IMPLIED
kvg:partial CDATA #IMPLIED
kvg:original CDATA #IMPLIED
kvg:part CDATA #IMPLIED
kvg:number CDATA #IMPLIED
kvg:tradForm CDATA #IMPLIED
kvg:radicalForm CDATA #IMPLIED
kvg:position CDATA #IMPLIED
kvg:radical CDATA #IMPLIED
kvg:phon CDATA #IMPLIED >
<!ATTLIST path
xmlns:kvg CDATA #FIXED "http://kanjivg.tagaini.net"
kvg:type CDATA #IMPLIED >
]>
<svg xmlns="http://www.w3.org/2000/svg" width="327" height = "327" viewBox="0 0 327 327">
<g id="kvg:StrokePaths_07c2b" style="fill:none;stroke:#000000;stroke-width:3;stroke-linecap:round;stroke-linejoin:round;" transform="scale(3.0,3.0)">
<g id="kvg:07c2b" kvg:element="簫">
	<g id="kvg:07c2b-g1" kvg:element="竹" kvg:variant="true" kvg:position="top" kvg:radical="general">
		<g id="kvg:07c2b-g2" kvg:position="left">
			<path style="stroke: #bf0909;" id="kvg:07c2b-s1" kvg:type="㇒" d="M26.75,9.75c0.04,0.54,0.08,1.38-0.08,2.15c-0.95,4.54-6.43,14.5-13.92,20.6"/>
			<path style="stroke: #bf4209;" id="kvg:07c2b-s2" kvg:type="㇐b" d="M25.48,20.37c4.79,0,20.15-2.7,25.52-2.7"/>
			<path style="stroke: #bf7c09;" id="kvg:07c2b-s3" kvg:type="㇔/㇑" d="M34.25,21.5c1.87,1.49,4.84,6.14,5.31,8.47"/>
		</g>
		<g id="kvg:07c2b-g3" kvg:position="right">
			<path style="stroke: #bfb509;" id="kvg:07c2b-s4" kvg:type="㇒" d="M62.74,9.75c0.03,0.34,0.12,0.88-0.06,1.35c-1.3,3.53-4.91,8.57-9.69,12.9"/>
			<path style="stroke: #8fbf09;" id="kvg:07c2b-s5" kvg:type="㇐b" d="M62.48,18.8c5.53,0,25.81-3.2,32.02-3.2"/>
			<path style="stroke: #56bf09;" id="kvg:07c2b-s6" kvg:type="㇒/㇚" d="M79.51,17c0.03,0.28,0.07,0.73-0.07,1.14c-0.8,2.39-5.4,7.65-11.69,10.86"/>
		</g>
	</g>
	<g id="kvg:07c2b-g4" kvg:element="肅" kvg:position="bottom">
		<g id="kvg:07c2b-g5" kvg:element="聿" kvg:part="1" kvg:variant="true">
			<g id="kvg:07c2b-g6" kvg:element="⺕" kvg:variant="true" kvg:original="彑">
				<path style="stroke: #1cbf09;" id="kvg:07c2b-s7" kvg:type="㇕" d="M26.75,35.75c2.54,0.21,3.77,0.54,6.11,0.41c14.25-0.82,35.62-3.57,46.82-3.57c3.31,0,4.58,1.02,4.07,3.07c-1.33,5.36-2.29,8.2-2.54,13.53"/>
				<path style="stroke: #09bf2f;" id="kvg:07c2b-s8" kvg:type="㇐" d="M15,44.84c2.43,0.23,4.33,0.67,7.03,0.46c23.51-1.83,51.07-4.13,69.72-4.82c2.98-0.11,5.4,0.46,6.76,0.69"/>
				<path style="stroke: #09bf69;" id="kvg:07c2b-s9" kvg:type="㇐" d="M27,53.11c1.25,0.13,3.51,0.47,5,0.4c13.75-0.66,34.25-3.03,46.75-3.29c2-0.04,3.25,0,4.75,0.13"/>
			</g>
		</g>
		<g id="kvg:07c2b-g7" kvg:element="丨">
			<path style="stroke: #09bfa2;" id="kvg:07c2b-s10" kvg:type="㇑" d="M52.25,28c1.25,0.42,2,1.89,2.25,2.73s0,64.35-0.25,69.6"/>
		</g>
		<g id="kvg:07c2b-g8" kvg:element="丿">
			<path style="stroke: #09a2bf;" id="kvg:07c2b-s11" kvg:type="㇒" d="M26.1,58.69c0.44,1.15,1.07,2.05,1.07,3.49C27.17,75.32,28,92.5,14,101"/>
		</g>
		<path style="stroke: #0969bf;" id="kvg:07c2b-s12" kvg:type="㇑" d="M41.64,57.9c0.51,0.34,0.9,0.74,0.9,1.88c0,1.46-0.01,4.37-0.01,6.22"/>
		<path style="stroke: #092fbf;" id="kvg:07c2b-s13" kvg:type="㇐" d="M27.81,68.54c3.5-0.14,13.15-0.98,16.33-0.98"/>
		<path style="stroke: #1c09bf;" id="kvg:07c2b-s14" kvg:type="㇄" d="M65.48,56.34c0.87,0.36,1.47,0.78,1.54,1.97c0.11,1.78-0.19,4.91-0.46,6.78c-0.09,0.6,0.15,1.49,1.44,1.39c4.54-0.33,8.91-1.2,14.17-1.46"/>
		<path style="stroke: #5609bf;" id="kvg:07c2b-s15" kvg:type="㇑" d="M82.62,55.79c0.83,0.5,1.41,1.09,1.48,2.75c0.34,7.99-0.02,39.49-0.02,42.21"/>
		<g id="kvg:07c2b-g9" kvg:element="聿" kvg:part="2" kvg:variant="true">
			<path style="stroke: #8f09bf;" id="kvg:07c2b-s16" kvg:type="㇐" d="M29.31,75.9c8.65-0.58,46.96-2.72,53.19-2.72"/>
		</g>
		<path style="stroke: #bf09b5;" id="kvg:07c2b-s17" kvg:type="㇕" d="M27.06,86.53c5.87-1.02,7.94-1.93,11.99-2.69c3.26-0.61,3.92,0.88,3.92,1.76c0,0.88-0.6,13.53-0.6,14.41"/>
		<path style="stroke: #bf097c;" id="kvg:07c2b-s18" kvg:type="㇑" d="M64.8,82.42c0.93,0.06,1.54,0.26,2.62,0.19c4.75-0.3,11.92-0.78,15.16-0.88"/>
		<path style="stroke: #bf0942;" id="kvg:07c2b-s19" kvg:type="㇐" d="M68.86,84.41c0,4.28-0.02,11.8-0.02,14.57"/>
	</g>
</g>
</g>
<g id="kvg:StrokeNumbers_07c2b" style="font-size:8;fill:#808080" transform="scale(3.0,3.0)">
	<text style="fill: #bf0909;" transform="matrix(1 0 0 1 18.85 10.50)">1</text>
	<text style="fill: #bf4209;" transform="matrix(1 0 0 1 35.50 15.50)">2</text>
	<text style="fill: #bf7c09;" transform="matrix(1 0 0 1 28.50 28.50)">3</text>
	<text style="fill: #bfb509;" transform="matrix(1 0 0 1 53.50 11.85)">4</text>
	<text style="fill: #8fbf09;" transform="matrix(1 0 0 1 64.68 16.20)">5</text>
	<text style="fill: #56bf09;" transform="matrix(1 0 0 1 80.37 24.57)">6</text>
	<text style="fill: #1cbf09;" transform="matrix(1 0 0 1 19.82 37.34)">7</text>
	<text style="fill: #09bf2f;" transform="matrix(1 0 0 1 7.25 46.50)">8</text>
	<text style="fill: #09bf69;" transform="matrix(1 0 0 1 19.25 54.03)">9</text>
	<text style="fill: #09bfa2;" transform="matrix(1 0 0 1 41.16 31.61)">10</text>
	<text style="fill: #09a2bf;" transform="matrix(1 0 0 1 14.93 63.84)">11</text>
	<text style="fill: #0969bf;" transform="matrix(1 0 0 1 30.42 60.52)">12</text>
	<text style="fill: #092fbf;" transform="matrix(1 0 0 1 27.64 66.64)">13</text>
	<text style="fill: #1c09bf;" transform="matrix(1 0 0 1 55.55 62.33)">14</text>
	<text style="fill: #5609bf;" transform="matrix(1 0 0 1 71.50 60.50)">15</text>
	<text style="fill: #8f09bf;" transform="matrix(1 0 0 1 27.39 83.11)">16</text>
	<text style="fill: #bf09b5;" transform="matrix(1 0 0 1 25.39 93.94)">17</text>
	<text style="fill: #bf097c;" transform="matrix(1 0 0 1 56.10 81.39)">18</text>
	<text style="fill: #bf0942;" transform="matrix(1 0 0 1 69.83 89.96)">19</text>
</g>
</svg>
