<?xml version="1.0" encoding="UTF-8"?>
<!--
This file has been modified from the original version by the kanji_colorize.py
script (available at http://github.com/cayennes/kanji-colorize) with these
settings:
    mode: spectrum
    saturation: 0.95
    value: 0.75
    image_size: 327
It remains under a Creative Commons-Attribution-Share Alike 3.0 License.

The original SVG has the following copyright:

Copyright (C) 2009/2010/2011 Ulrich Apel.
This work is distributed under the conditions of the Creative Commons
Attribution-Share Alike 3.0 Licence. This means you are free:
* to Share - to copy, distribute and transmit the work
* to Remix - to adapt the work

Under the following conditions:
* Attribution. You must attribute the work by stating your use of KanjiVG in
  your own copyright header and linking to KanjiVG's website
  (http://kanjivg.tagaini.net)
* Share Alike. If you alter, transform, or build upon this work, you may
  distribute the resulting work only under the same or similar license to this
  one.

See http://creativecommons.org/licenses/by-sa/3.0/ for more details.
-->
<!DOCTYPE svg PUBLIC "-//W3C//DTD SVG 1.0//EN" "http://www.w3.org/TR/2001/REC-SVG-20010904/DTD/svg10.dtd" [
<!ATTLIST g
xmlns:kvg CDATA #FIXED "http://kanjivg.tagaini.net"
kvg:element CDATA #IMPLIED
kvg:variant CDATA #IMPLIED
kvg:partial CDATA #IMPLIED
kvg:original CDATA #IMPLIED
kvg:part CDATA #IMPLIED
kvg:number CDATA #IMPLIED
kvg:tradForm CDATA #IMPLIED
kvg:radicalForm CDATA #IMPLIED
kvg:position CDATA #IMPLIED
kvg:radical CDATA #IMPLIED
kvg:phon CDATA #IMPLIED >
<!ATTLIST path
xmlns:kvg CDATA #FIXED "http://kanjivg.tagaini.net"
kvg:type CDATA #IMPLIED >
]>
<svg xmlns="http://www.w3.org/2000/svg" width="327" height = "327" viewBox="0 0 327 327">
<g id="kvg:StrokePaths_07c7e" style="fill:none;stroke:#000000;stroke-width:3;stroke-linecap:round;stroke-linejoin:round;" transform="scale(3.0,3.0)">
<g id="kvg:07c7e" kvg:element="籾">
	<g id="kvg:07c7e-g1" kvg:element="米" kvg:position="left" kvg:radical="general">
		<path style="stroke: #bf0909;" id="kvg:07c7e-s1" kvg:type="㇔" d="M15.19,25.89c2.65,2.26,6.65,8.65,7.31,12.16"/>
		<path style="stroke: #bf8209;" id="kvg:07c7e-s2" kvg:type="㇒" d="M46.26,22.47c0.02,0.31,0.04,0.81-0.04,1.26c-0.51,2.66-3.42,8.49-7.4,12.06"/>
		<path style="stroke: #82bf09;" id="kvg:07c7e-s3" kvg:type="㇐" d="M12.6,46.35c0.55,0.27,2,0.95,3.46,0.8c5.21-0.53,20.68-3.2,26.57-4.06c1.45-0.21,1.82-0.27,2.73,0"/>
		<path style="stroke: #09bf09;" id="kvg:07c7e-s4" kvg:type="㇑" d="M30.02,14.46c0.88,0.45,1.41,2.03,1.59,2.94s0,72.74-0.18,78.39"/>
		<path style="stroke: #09bf82;" id="kvg:07c7e-s5" kvg:type="㇒" d="M31.02,45.46C27.76,55.95,19.83,70.67,12.5,76.73"/>
		<path style="stroke: #0982bf;" id="kvg:07c7e-s6" kvg:type="㇔/㇏" d="M33.62,51.57c5.3,3.03,9.19,6.53,11.15,11.65"/>
	</g>
	<g id="kvg:07c7e-g2" kvg:element="刃" kvg:position="right">
		<g id="kvg:07c7e-g3" kvg:element="刀">
			<path style="stroke: #0909bf;" id="kvg:07c7e-s7" kvg:type="㇆" d="M55.02,23.74c1.33,0.81,4.5,0.6,5.67,0.44c10.5-1.43,23.55-2.59,28.81-3.42c3.42-0.54,4.97,1.63,4.75,5.42C93.5,39,88.75,69.75,81.75,84.1c-3.95,8.1-6,5.15-9.41,1.26"/>
			<path style="stroke: #8209bf;" id="kvg:07c7e-s8" kvg:type="㇒" d="M68.88,26.06c0.12,1.44,0.67,3.15,0.36,5.15c-3.2,20.04-7.73,40.29-24.48,58"/>
		</g>
		<g id="kvg:07c7e-g4" kvg:element="丶">
			<path style="stroke: #bf0982;" id="kvg:07c7e-s9" kvg:type="㇏/㇔" d="M53.5,32.5c4.56,13.14,23.3,33.87,35.49,42.44c2.39,1.68,5.05,2.76,7.26,3.31"/>
		</g>
	</g>
</g>
</g>
<g id="kvg:StrokeNumbers_07c7e" style="font-size:8;fill:#808080" transform="scale(3.0,3.0)">
	<text style="fill: #bf0909;" transform="matrix(1 0 0 1 8.50 26.50)">1</text>
	<text style="fill: #bf8209;" transform="matrix(1 0 0 1 38.50 20.50)">2</text>
	<text style="fill: #82bf09;" transform="matrix(1 0 0 1 5.50 46.35)">3</text>
	<text style="fill: #09bf09;" transform="matrix(1 0 0 1 20.50 14.50)">4</text>
	<text style="fill: #09bf82;" transform="matrix(1 0 0 1 20.50 55.50)">5</text>
	<text style="fill: #0982bf;" transform="matrix(1 0 0 1 39.50 53.50)">6</text>
	<text style="fill: #0909bf;" transform="matrix(1 0 0 1 53.50 20.50)">7</text>
	<text style="fill: #8209bf;" transform="matrix(1 0 0 1 61.50 33.50)">8</text>
	<text style="fill: #bf0982;" transform="matrix(1 0 0 1 48.50 40.50)">9</text>
</g>
</svg>
