<?xml version="1.0" encoding="UTF-8"?>
<!--
This file has been modified from the original version by the kanji_colorize.py
script (available at http://github.com/cayennes/kanji-colorize) with these
settings:
    mode: spectrum
    saturation: 0.95
    value: 0.75
    image_size: 327
It remains under a Creative Commons-Attribution-Share Alike 3.0 License.

The original SVG has the following copyright:

Copyright (C) 2009/2010/2011 Ulrich Apel.
This work is distributed under the conditions of the Creative Commons
Attribution-Share Alike 3.0 Licence. This means you are free:
* to Share - to copy, distribute and transmit the work
* to Remix - to adapt the work

Under the following conditions:
* Attribution. You must attribute the work by stating your use of KanjiVG in
  your own copyright header and linking to KanjiVG's website
  (http://kanjivg.tagaini.net)
* Share Alike. If you alter, transform, or build upon this work, you may
  distribute the resulting work only under the same or similar license to this
  one.

See http://creativecommons.org/licenses/by-sa/3.0/ for more details.
-->
<!DOCTYPE svg PUBLIC "-//W3C//DTD SVG 1.0//EN" "http://www.w3.org/TR/2001/REC-SVG-20010904/DTD/svg10.dtd" [
<!ATTLIST g
xmlns:kvg CDATA #FIXED "http://kanjivg.tagaini.net"
kvg:element CDATA #IMPLIED
kvg:variant CDATA #IMPLIED
kvg:partial CDATA #IMPLIED
kvg:original CDATA #IMPLIED
kvg:part CDATA #IMPLIED
kvg:number CDATA #IMPLIED
kvg:tradForm CDATA #IMPLIED
kvg:radicalForm CDATA #IMPLIED
kvg:position CDATA #IMPLIED
kvg:radical CDATA #IMPLIED
kvg:phon CDATA #IMPLIED >
<!ATTLIST path
xmlns:kvg CDATA #FIXED "http://kanjivg.tagaini.net"
kvg:type CDATA #IMPLIED >
]>
<svg xmlns="http://www.w3.org/2000/svg" width="327" height = "327" viewBox="0 0 327 327">
<g id="kvg:StrokePaths_07c81" style="fill:none;stroke:#000000;stroke-width:3;stroke-linecap:round;stroke-linejoin:round;" transform="scale(3.0,3.0)">
<g id="kvg:07c81" kvg:element="粁">
	<g id="kvg:07c81-g1" kvg:element="米" kvg:variant="true" kvg:position="left" kvg:radical="general">
		<path style="stroke: #bf0909;" id="kvg:07c81-s1" kvg:type="㇔" d="M12.94,23.39c3.28,2.54,8.24,9.96,9.06,13.91"/>
		<path style="stroke: #bf8209;" id="kvg:07c81-s2" kvg:type="㇒" d="M46.76,21.47c0,0.91-0.17,1.85-0.5,2.57c-1.76,3.84-3.51,7.34-6.94,11.76"/>
		<path style="stroke: #82bf09;" id="kvg:07c81-s3" kvg:type="㇐" d="M11.1,45.35c2.52,0.65,4.67,0.72,7.15,0.44c7.02-0.81,18.27-2.97,24.64-3.9c1.72-0.34,3.46-0.43,5.21-0.29"/>
		<path style="stroke: #09bf09;" id="kvg:07c81-s4" kvg:type="㇑" d="M30.77,15.21c1.13,1.13,1.59,2.54,1.59,4.44c0,0.73-0.07,44.04-0.1,65.35c-0.01,5.68-0.01,9.8-0.01,11.12"/>
		<path style="stroke: #09bf82;" id="kvg:07c81-s5" kvg:type="㇒" d="M31.52,44.71c0,1.91-1.02,4.92-1.82,6.82C25.4,61.83,17.39,72.61,10,79.98"/>
		<path style="stroke: #0982bf;" id="kvg:07c81-s6" kvg:type="㇔/㇏" d="M35.62,51.07c5.06,3.23,7.75,7.06,9.65,11.15"/>
	</g>
	<g id="kvg:07c81-g2" kvg:element="千" kvg:position="right">
		<g id="kvg:07c81-g3" kvg:element="丿" kvg:position="top">
			<path style="stroke: #0909bf;" id="kvg:07c81-s7" kvg:type="㇒" d="M88.17,12.42c-0.3,1.71-0.93,2.38-2.11,3.26c-5.89,4.38-17.69,9.07-34.5,15.08"/>
		</g>
		<g id="kvg:07c81-g4" kvg:element="十" kvg:position="bottom">
			<path style="stroke: #8209bf;" id="kvg:07c81-s8" kvg:type="㇐" d="M49.22,51.75c2.98,0.59,6.15,0.25,9.17-0.06c10.23-1.07,21.44-2.47,33.23-2.95c2.32-0.25,4.62-0.15,6.91,0.3"/>
			<path style="stroke: #bf0982;" id="kvg:07c81-s9" kvg:type="㇑" d="M72.6,26.04c0.93,0.93,1.13,2.71,1.13,4.53c0,0.74,0.01,35.71,0.02,54.93c0,5.83,0,10.21,0,11.75"/>
		</g>
	</g>
</g>
</g>
<g id="kvg:StrokeNumbers_07c81" style="font-size:8;fill:#808080" transform="scale(3.0,3.0)">
	<text style="fill: #bf0909;" transform="matrix(1 0 0 1 6.50 23.50)">1</text>
	<text style="fill: #bf8209;" transform="matrix(1 0 0 1 39.50 17.85)">2</text>
	<text style="fill: #82bf09;" transform="matrix(1 0 0 1 3.50 45.85)">3</text>
	<text style="fill: #09bf09;" transform="matrix(1 0 0 1 22.54 12.85)">4</text>
	<text style="fill: #09bf82;" transform="matrix(1 0 0 1 20.50 55.50)">5</text>
	<text style="fill: #0982bf;" transform="matrix(1 0 0 1 39.50 52.50)">6</text>
	<text style="fill: #0909bf;" transform="matrix(1 0 0 1 79.50 11.50)">7</text>
	<text style="fill: #8209bf;" transform="matrix(1 0 0 1 49.50 49.50)">8</text>
	<text style="fill: #bf0982;" transform="matrix(1 0 0 1 66.50 35.50)">9</text>
</g>
</svg>
