<?xml version="1.0" encoding="UTF-8"?>
<!--
This file has been modified from the original version by the kanji_colorize.py
script (available at http://github.com/cayennes/kanji-colorize) with these
settings:
    mode: spectrum
    saturation: 0.95
    value: 0.75
    image_size: 327
It remains under a Creative Commons-Attribution-Share Alike 3.0 License.

The original SVG has the following copyright:

Copyright (C) 2009/2010/2011 Ulrich Apel.
This work is distributed under the conditions of the Creative Commons
Attribution-Share Alike 3.0 Licence. This means you are free:
* to Share - to copy, distribute and transmit the work
* to Remix - to adapt the work

Under the following conditions:
* Attribution. You must attribute the work by stating your use of KanjiVG in
  your own copyright header and linking to KanjiVG's website
  (http://kanjivg.tagaini.net)
* Share Alike. If you alter, transform, or build upon this work, you may
  distribute the resulting work only under the same or similar license to this
  one.

See http://creativecommons.org/licenses/by-sa/3.0/ for more details.
-->
<!DOCTYPE svg PUBLIC "-//W3C//DTD SVG 1.0//EN" "http://www.w3.org/TR/2001/REC-SVG-20010904/DTD/svg10.dtd" [
<!ATTLIST g
xmlns:kvg CDATA #FIXED "http://kanjivg.tagaini.net"
kvg:element CDATA #IMPLIED
kvg:variant CDATA #IMPLIED
kvg:partial CDATA #IMPLIED
kvg:original CDATA #IMPLIED
kvg:part CDATA #IMPLIED
kvg:number CDATA #IMPLIED
kvg:tradForm CDATA #IMPLIED
kvg:radicalForm CDATA #IMPLIED
kvg:position CDATA #IMPLIED
kvg:radical CDATA #IMPLIED
kvg:phon CDATA #IMPLIED >
<!ATTLIST path
xmlns:kvg CDATA #FIXED "http://kanjivg.tagaini.net"
kvg:type CDATA #IMPLIED >
]>
<svg xmlns="http://www.w3.org/2000/svg" width="327" height = "327" viewBox="0 0 327 327">
<g id="kvg:StrokePaths_07cb9" style="fill:none;stroke:#000000;stroke-width:3;stroke-linecap:round;stroke-linejoin:round;" transform="scale(3.0,3.0)">
<g id="kvg:07cb9" kvg:element="粹">
	<g id="kvg:07cb9-g1" kvg:element="米" kvg:variant="true" kvg:position="left" kvg:radical="tradit">
		<path style="stroke: #bf0909;" id="kvg:07cb9-s1" kvg:type="㇔" d="M16.5,26c2.72,2.1,6.82,8.04,7.5,11.3"/>
		<path style="stroke: #bf5709;" id="kvg:07cb9-s2" kvg:type="㇒" d="M47.26,22.75c0.02,0.34,0.04,0.87-0.04,1.35c-0.51,2.84-3.45,9.08-7.46,12.9"/>
		<path style="stroke: #bfa509;" id="kvg:07cb9-s3" kvg:type="㇐" d="M15.1,45.52c0.55,0.16,2.01,0.55,3.46,0.47c5.21-0.31,20.17-2.54,26.07-3.04c1.45-0.12,1.82-0.16,2.73,0"/>
		<path style="stroke: #8bbf09;" id="kvg:07cb9-s4" kvg:type="㇑" d="M31.52,14.96c0.98,0.54,1.41,2.03,1.59,2.94s0,71.74-0.18,77.39"/>
		<path style="stroke: #3dbf09;" id="kvg:07cb9-s5" kvg:type="㇒" d="M33.02,45.46c-3.79,10.49-13,25.21-21.52,31.26"/>
		<path style="stroke: #09bf23;" id="kvg:07cb9-s6" kvg:type="㇔/㇏" d="M35.87,51.07c3.98,2.65,6.9,5.71,8.38,10.18"/>
	</g>
	<g id="kvg:07cb9-g2" kvg:element="卒" kvg:position="right">
		<g id="kvg:07cb9-g3" kvg:position="top">
			<g id="kvg:07cb9-g4" kvg:element="亠">
				<path style="stroke: #09bf71;" id="kvg:07cb9-s7" kvg:type="㇑a" d="M68.64,14c0.49,0.36,1.3,1.76,1.3,2.48c0,2.65-0.16,7.53-0.06,9.78"/>
				<path style="stroke: #09bfbf;" id="kvg:07cb9-s8" kvg:type="㇐" d="M50.46,28.25c1.07,0.08,3.5,0.52,4.54,0.41c8.38-0.86,23.4-2.52,34.04-2.74c1.76-0.04,2.65,0.04,3.96,0.53"/>
			</g>
			<g id="kvg:07cb9-g5" kvg:element="从">
				<g id="kvg:07cb9-g6" kvg:element="人" kvg:position="left">
					<path style="stroke: #0971bf;" id="kvg:07cb9-s9" kvg:type="㇒" d="M60,34.5c0,0.5,0.03,0.9-0.08,1.5c-0.53,3.12-5.59,13.52-9.92,18.13"/>
					<path style="stroke: #0923bf;" id="kvg:07cb9-s10" kvg:type="㇏" d="M59.8,42.21c2.88,1.18,6.57,4.31,7.98,7.29"/>
				</g>
				<g id="kvg:07cb9-g7" kvg:element="人" kvg:position="right">
					<path style="stroke: #3d09bf;" id="kvg:07cb9-s11" kvg:type="㇒" d="M84,33.25c0,0.46,0.03,0.83-0.09,1.38c-0.65,2.88-6.87,12.48-12.2,16.75"/>
					<path style="stroke: #8b09bf;" id="kvg:07cb9-s12" kvg:type="㇏" d="M83.61,42.71c3.85,1.54,8.76,5.65,10.64,9.54"/>
				</g>
			</g>
		</g>
		<g id="kvg:07cb9-g8" kvg:element="十" kvg:position="bottom">
			<path style="stroke: #bf09a5;" id="kvg:07cb9-s13" kvg:type="㇐" d="M46,67.58c1.26,0.3,3.56,0.37,4.82,0.29c15.97-1,33.01-2.55,44.03-2.68c2.09-0.02,3.35,0.14,4.4,0.29"/>
			<path style="stroke: #bf0957;" id="kvg:07cb9-s14" kvg:type="㇑" d="M70.03,56c0.58,0.56,1.32,2.19,1.44,3.3c0.12,1.12-0.08,30.21-0.19,37.2"/>
		</g>
	</g>
</g>
</g>
<g id="kvg:StrokeNumbers_07cb9" style="font-size:8;fill:#808080" transform="scale(3.0,3.0)">
	<text style="fill: #bf0909;" transform="matrix(1 0 0 1 10.50 26.50)">1</text>
	<text style="fill: #bf5709;" transform="matrix(1 0 0 1 39.50 21.50)">2</text>
	<text style="fill: #bfa509;" transform="matrix(1 0 0 1 7.50 46.50)">3</text>
	<text style="fill: #8bbf09;" transform="matrix(1 0 0 1 21.75 15.50)">4</text>
	<text style="fill: #3dbf09;" transform="matrix(1 0 0 1 20.75 56.50)">5</text>
	<text style="fill: #09bf23;" transform="matrix(1 0 0 1 40.50 52.50)">6</text>
	<text style="fill: #09bf71;" transform="matrix(1 0 0 1 60.50 14.50)">7</text>
	<text style="fill: #09bfbf;" transform="matrix(1 0 0 1 52.50 25.50)">8</text>
	<text style="fill: #0971bf;" transform="matrix(1 0 0 1 51.50 37.50)">9</text>
	<text style="fill: #0923bf;" transform="matrix(1 0 0 1 63.50 42.45)">10</text>
	<text style="fill: #3d09bf;" transform="matrix(1 0 0 1 73.50 35.50)">11</text>
	<text style="fill: #8b09bf;" transform="matrix(1 0 0 1 87.50 42.50)">12</text>
	<text style="fill: #bf09a5;" transform="matrix(1 0 0 1 46.50 64.50)">13</text>
	<text style="fill: #bf0957;" transform="matrix(1 0 0 1 57.50 58.50)">14</text>
</g>
</svg>
