<?xml version="1.0" encoding="UTF-8"?>
<!--
This file has been modified from the original version by the kanji_colorize.py
script (available at http://github.com/cayennes/kanji-colorize) with these
settings:
    mode: spectrum
    saturation: 0.95
    value: 0.75
    image_size: 327
It remains under a Creative Commons-Attribution-Share Alike 3.0 License.

The original SVG has the following copyright:

Copyright (C) 2009/2010/2011 Ulrich Apel.
This work is distributed under the conditions of the Creative Commons
Attribution-Share Alike 3.0 Licence. This means you are free:
* to Share - to copy, distribute and transmit the work
* to Remix - to adapt the work

Under the following conditions:
* Attribution. You must attribute the work by stating your use of KanjiVG in
  your own copyright header and linking to KanjiVG's website
  (http://kanjivg.tagaini.net)
* Share Alike. If you alter, transform, or build upon this work, you may
  distribute the resulting work only under the same or similar license to this
  one.

See http://creativecommons.org/licenses/by-sa/3.0/ for more details.
-->
<!DOCTYPE svg PUBLIC "-//W3C//DTD SVG 1.0//EN" "http://www.w3.org/TR/2001/REC-SVG-20010904/DTD/svg10.dtd" [
<!ATTLIST g
xmlns:kvg CDATA #FIXED "http://kanjivg.tagaini.net"
kvg:element CDATA #IMPLIED
kvg:variant CDATA #IMPLIED
kvg:partial CDATA #IMPLIED
kvg:original CDATA #IMPLIED
kvg:part CDATA #IMPLIED
kvg:number CDATA #IMPLIED
kvg:tradForm CDATA #IMPLIED
kvg:radicalForm CDATA #IMPLIED
kvg:position CDATA #IMPLIED
kvg:radical CDATA #IMPLIED
kvg:phon CDATA #IMPLIED >
<!ATTLIST path
xmlns:kvg CDATA #FIXED "http://kanjivg.tagaini.net"
kvg:type CDATA #IMPLIED >
]>
<svg xmlns="http://www.w3.org/2000/svg" width="327" height = "327" viewBox="0 0 327 327">
<g id="kvg:StrokePaths_07cca" style="fill:none;stroke:#000000;stroke-width:3;stroke-linecap:round;stroke-linejoin:round;" transform="scale(3.0,3.0)">
<g id="kvg:07cca" kvg:element="糊">
	<g id="kvg:07cca-g1" kvg:element="米" kvg:variant="true" kvg:position="left" kvg:radical="general">
		<path style="stroke: #bf0909;" id="kvg:07cca-s1" kvg:type="㇔" d="M12.44,23.89c2.56,2.26,6.42,8.9,7.06,12.41"/>
		<path style="stroke: #bf5209;" id="kvg:07cca-s2" kvg:type="㇒" d="M40.01,21.72c0.07,0.83-0.05,1.62-0.37,2.39c-1.77,3.27-4.01,7.01-7.32,11.18"/>
		<path style="stroke: #bf9a09;" id="kvg:07cca-s3" kvg:type="㇐" d="M12.1,44.77c2.09,0.71,4.22,0.63,6.39,0.29c4.57-0.72,10.56-2.04,15.14-2.8c1.4-0.28,2.81-0.36,4.23-0.23"/>
		<path style="stroke: #9abf09;" id="kvg:07cca-s4" kvg:type="㇑" d="M26.27,13.21c0.88,0.88,1.09,2.29,1.09,3.19c0,0.74-0.07,46.3-0.1,67.47c-0.01,5.14-0.01,8.85-0.01,10.12"/>
		<path style="stroke: #52bf09;" id="kvg:07cca-s5" kvg:type="㇒" d="M26.52,44.46c0,2.16-0.44,3.64-0.98,5.22c-3.43,9.93-8.92,19.76-16.79,28.79"/>
		<path style="stroke: #09bf09;" id="kvg:07cca-s6" kvg:type="㇔/㇏" d="M30.12,53.32c3.5,2.81,5.5,5.56,7.65,10.15"/>
	</g>
	<g id="kvg:07cca-g2" kvg:element="胡" kvg:position="right">
		<g id="kvg:07cca-g3" kvg:element="古" kvg:position="left">
			<g id="kvg:07cca-g4" kvg:element="十">
				<path style="stroke: #09bf52;" id="kvg:07cca-s7" kvg:type="㇐" d="M42.25,44.51c1.87,0.36,3.74,0.22,5.62,0.1c4.88-0.86,10.45-1.47,15.62-2.43c1.67-0.15,3.34-0.12,5.01,0.11"/>
				<path style="stroke: #09bf9a;" id="kvg:07cca-s8" kvg:type="㇑a" d="M53.91,16.13c0.85,0.86,1.1,1.99,1.1,3.27c0,16.25,0.1,35.6,0.1,43.04"/>
			</g>
			<g id="kvg:07cca-g5" kvg:element="口">
				<path style="stroke: #099abf;" id="kvg:07cca-s9" kvg:type="㇑" d="M44.4,62.39c0.73,0.73,1.04,1.74,1.19,3.39c0.38,4.12,0.86,8.31,1.37,13.08c0.21,2,0.43,4.09,0.64,6.33"/>
				<path style="stroke: #0952bf;" id="kvg:07cca-s10" kvg:type="㇕b" d="M46.03,63.72c4.21-0.64,12.89-1.58,17.34-1.9c2.53-0.18,4.2,1.11,3.54,3.81c-1.16,4.75-2.16,9.25-3.85,15.12"/>
				<path style="stroke: #0909bf;" id="kvg:07cca-s11" kvg:type="㇐b" d="M48.61,82.99c2.9-0.22,7.33-0.66,11.39-1.03c1.6-0.15,3.14-0.29,4.51-0.4"/>
			</g>
		</g>
		<g id="kvg:07cca-g6" kvg:element="月" kvg:position="right">
			<path style="stroke: #5209bf;" id="kvg:07cca-s12" kvg:type="㇒" d="M76.74,20.25c0.57,0.57,0.71,1.88,0.72,2.83C78.25,65.38,77.25,75.5,65.25,90"/>
			<path style="stroke: #9a09bf;" id="kvg:07cca-s13" kvg:type="㇆a" d="M78.72,21.22c1.49-0.19,12.64-2.77,13.75-3.01c1.98-0.41,2.7,3.12,2.45,4.52c-0.25,1.34-0.32,46.63-0.32,65.6C94.59,100.5,88,91,86,89.25"/>
			<path style="stroke: #bf099a;" id="kvg:07cca-s14" kvg:type="㇐a" d="M77.96,40.69c5.17-0.89,11.62-1.66,16.16-1.9"/>
			<path style="stroke: #bf0952;" id="kvg:07cca-s15" kvg:type="㇐a" d="M78.64,58.81c4.03-0.29,10.36-1.52,15.02-1.5"/>
		</g>
	</g>
</g>
</g>
<g id="kvg:StrokeNumbers_07cca" style="font-size:8;fill:#808080" transform="scale(3.0,3.0)">
	<text style="fill: #bf0909;" transform="matrix(1 0 0 1 6.50 24.50)">1</text>
	<text style="fill: #bf5209;" transform="matrix(1 0 0 1 34.50 17.85)">2</text>
	<text style="fill: #bf9a09;" transform="matrix(1 0 0 1 5.50 44.50)">3</text>
	<text style="fill: #9abf09;" transform="matrix(1 0 0 1 16.50 12.50)">4</text>
	<text style="fill: #52bf09;" transform="matrix(1 0 0 1 16.50 54.50)">5</text>
	<text style="fill: #09bf09;" transform="matrix(1 0 0 1 32.50 52.50)">6</text>
	<text style="fill: #09bf52;" transform="matrix(1 0 0 1 41.50 41.50)">7</text>
	<text style="fill: #09bf9a;" transform="matrix(1 0 0 1 44.50 14.50)">8</text>
	<text style="fill: #099abf;" transform="matrix(1 0 0 1 38.25 71.50)">9</text>
	<text style="fill: #0952bf;" transform="matrix(1 0 0 1 44.50 60.50)">10</text>
	<text style="fill: #0909bf;" transform="matrix(1 0 0 1 50.50 79.50)">11</text>
	<text style="fill: #5209bf;" transform="matrix(1 0 0 1 66.50 28.50)">12</text>
	<text style="fill: #9a09bf;" transform="matrix(1 0 0 1 78.50 17.50)">13</text>
	<text style="fill: #bf099a;" transform="matrix(1 0 0 1 81.25 36.50)">14</text>
	<text style="fill: #bf0952;" transform="matrix(1 0 0 1 81.25 54.50)">15</text>
</g>
</svg>
