<?xml version="1.0" encoding="UTF-8"?>
<!--
This file has been modified from the original version by the kanji_colorize.py
script (available at http://github.com/cayennes/kanji-colorize) with these
settings:
    mode: spectrum
    saturation: 0.95
    value: 0.75
    image_size: 327
It remains under a Creative Commons-Attribution-Share Alike 3.0 License.

The original SVG has the following copyright:

Copyright (C) 2009/2010/2011 Ulrich Apel.
This work is distributed under the conditions of the Creative Commons
Attribution-Share Alike 3.0 Licence. This means you are free:
* to Share - to copy, distribute and transmit the work
* to Remix - to adapt the work

Under the following conditions:
* Attribution. You must attribute the work by stating your use of KanjiVG in
  your own copyright header and linking to KanjiVG's website
  (http://kanjivg.tagaini.net)
* Share Alike. If you alter, transform, or build upon this work, you may
  distribute the resulting work only under the same or similar license to this
  one.

See http://creativecommons.org/licenses/by-sa/3.0/ for more details.
-->
<!DOCTYPE svg PUBLIC "-//W3C//DTD SVG 1.0//EN" "http://www.w3.org/TR/2001/REC-SVG-20010904/DTD/svg10.dtd" [
<!ATTLIST g
xmlns:kvg CDATA #FIXED "http://kanjivg.tagaini.net"
kvg:element CDATA #IMPLIED
kvg:variant CDATA #IMPLIED
kvg:partial CDATA #IMPLIED
kvg:original CDATA #IMPLIED
kvg:part CDATA #IMPLIED
kvg:number CDATA #IMPLIED
kvg:tradForm CDATA #IMPLIED
kvg:radicalForm CDATA #IMPLIED
kvg:position CDATA #IMPLIED
kvg:radical CDATA #IMPLIED
kvg:phon CDATA #IMPLIED >
<!ATTLIST path
xmlns:kvg CDATA #FIXED "http://kanjivg.tagaini.net"
kvg:type CDATA #IMPLIED >
]>
<svg xmlns="http://www.w3.org/2000/svg" width="327" height = "327" viewBox="0 0 327 327">
<g id="kvg:StrokePaths_07d9b" style="fill:none;stroke:#000000;stroke-width:3;stroke-linecap:round;stroke-linejoin:round;" transform="scale(3.0,3.0)">
<g id="kvg:07d9b" kvg:element="綛">
	<g id="kvg:07d9b-g1" kvg:element="糸" kvg:position="left" kvg:radical="general">
		<path style="stroke: #bf0909;" id="kvg:07d9b-s1" kvg:type="㇜" d="M28.91,13.25c0.38,1.2,0.39,2.09-0.19,3.4c-2.55,5.76-7.78,13.9-12.77,18.5c-0.69,0.64-0.75,2.77,0,3c3.94,1.2,5.8,2.61,10.05,5.61"/>
		<path style="stroke: #bf5d09;" id="kvg:07d9b-s2" kvg:type="㇜" d="M40.07,25.18c0.3,0.51,0.37,2.15,0,2.7c-5.75,8.52-16.34,20.42-24.25,27.66c-1.81,1.66,0.45,2.61,1.63,2.27c4.95-1.41,16.71-3.93,23.07-5.28"/>
		<path style="stroke: #bfb109;" id="kvg:07d9b-s3" kvg:type="㇔" d="M36.88,45.63c2.34,2.36,6.04,9.69,6.62,13.35"/>
		<path style="stroke: #79bf09;" id="kvg:07d9b-s4" kvg:type="㇑" d="M28.14,57.87c0.07,0.36,0.91,1.85,0.98,4.09c0.31,10.79-0.2,30.29-0.2,33.96"/>
		<path style="stroke: #25bf09;" id="kvg:07d9b-s5" kvg:type="㇒" d="M18.35,69.1c0.16,0.88,0.13,2.63-0.16,3.26C16.33,76.49,11.65,84.46,9,88"/>
		<path style="stroke: #09bf41;" id="kvg:07d9b-s6" kvg:type="㇔" d="M36.75,67.5c2.5,3.25,4.42,10.8,5,13.75"/>
	</g>
	<g id="kvg:07d9b-g2" kvg:element="忍" kvg:position="right">
		<g id="kvg:07d9b-g3" kvg:element="刃" kvg:position="top">
			<g id="kvg:07d9b-g4" kvg:element="刀">
				<path style="stroke: #09bf95;" id="kvg:07d9b-s7" kvg:type="㇆" d="M53.7,21.17c1.26,0.51,2.84,0.38,3.96,0.28c9.96-0.9,24.5-3.45,29.49-3.97c3.24-0.34,4.69,1.03,4.51,3.42c-0.48,6.32-3.83,24.56-8.26,31.83c-3.21,5.28-5.08,3.58-7.5,0.16"/>
				<path style="stroke: #0995bf;" id="kvg:07d9b-s8" kvg:type="㇒" d="M68.64,22.98c0.05,0.72,0,1.86-0.1,2.91c-1.08,11.93-6.34,19.69-16.76,29.57"/>
			</g>
			<g id="kvg:07d9b-g5" kvg:element="丶">
				<path style="stroke: #0941bf;" id="kvg:07d9b-s9" kvg:type="㇔" d="M55.12,34.35c6.61,1.48,17.07,6.52,18.73,8.82"/>
			</g>
		</g>
		<g id="kvg:07d9b-g6" kvg:element="心" kvg:position="bottom">
			<path style="stroke: #2509bf;" id="kvg:07d9b-s10" kvg:type="㇔" d="M50.62,71.8c0.2,2.22-2.01,12-3.62,15.7"/>
			<path style="stroke: #7909bf;" id="kvg:07d9b-s11" kvg:type="㇟b" d="M56.88,66.61c6.76,15.19,12.28,27.17,31.78,26.97c7.59-0.08,6.59-3.83,2.21-7.16"/>
			<path style="stroke: #bf09b1;" id="kvg:07d9b-s12" kvg:type="㇔a" d="M68.05,63.69c1.95,3.72,6.56,10.04,7.78,4.78"/>
			<path style="stroke: #bf095d;" id="kvg:07d9b-s13" kvg:type="㇔" d="M87.25,65c4.49,2.15,7.85,4.6,11.5,11.25"/>
		</g>
	</g>
</g>
</g>
<g id="kvg:StrokeNumbers_07d9b" style="font-size:8;fill:#808080" transform="scale(3.0,3.0)">
	<text style="fill: #bf0909;" transform="matrix(1 0 0 1 22.50 13.50)">1</text>
	<text style="fill: #bf5d09;" transform="matrix(1 0 0 1 35.50 21.25)">2</text>
	<text style="fill: #bfb109;" transform="matrix(1 0 0 1 38.75 44.50)">3</text>
	<text style="fill: #79bf09;" transform="matrix(1 0 0 1 21.50 66.50)">4</text>
	<text style="fill: #25bf09;" transform="matrix(1 0 0 1 9.50 69.50)">5</text>
	<text style="fill: #09bf41;" transform="matrix(1 0 0 1 34.75 63.50)">6</text>
	<text style="fill: #09bf95;" transform="matrix(1 0 0 1 52.50 17.50)">7</text>
	<text style="fill: #0995bf;" transform="matrix(1 0 0 1 60.50 30.50)">8</text>
	<text style="fill: #0941bf;" transform="matrix(1 0 0 1 47.50 35.50)">9</text>
	<text style="fill: #2509bf;" transform="matrix(1 0 0 1 44.50 67.50)">10</text>
	<text style="fill: #7909bf;" transform="matrix(1 0 0 1 53.50 81.50)">11</text>
	<text style="fill: #bf09b1;" transform="matrix(1 0 0 1 58.50 64.50)">12</text>
	<text style="fill: #bf095d;" transform="matrix(1 0 0 1 80.50 73.50)">13</text>
</g>
</svg>
