<?xml version="1.0" encoding="UTF-8"?>
<!--
This file has been modified from the original version by the kanji_colorize.py
script (available at http://github.com/cayennes/kanji-colorize) with these
settings:
    mode: spectrum
    saturation: 0.95
    value: 0.75
    image_size: 327
It remains under a Creative Commons-Attribution-Share Alike 3.0 License.

The original SVG has the following copyright:

Copyright (C) 2009/2010/2011 Ulrich Apel.
This work is distributed under the conditions of the Creative Commons
Attribution-Share Alike 3.0 Licence. This means you are free:
* to Share - to copy, distribute and transmit the work
* to Remix - to adapt the work

Under the following conditions:
* Attribution. You must attribute the work by stating your use of KanjiVG in
  your own copyright header and linking to KanjiVG's website
  (http://kanjivg.tagaini.net)
* Share Alike. If you alter, transform, or build upon this work, you may
  distribute the resulting work only under the same or similar license to this
  one.

See http://creativecommons.org/licenses/by-sa/3.0/ for more details.
-->
<!DOCTYPE svg PUBLIC "-//W3C//DTD SVG 1.0//EN" "http://www.w3.org/TR/2001/REC-SVG-20010904/DTD/svg10.dtd" [
<!ATTLIST g
xmlns:kvg CDATA #FIXED "http://kanjivg.tagaini.net"
kvg:element CDATA #IMPLIED
kvg:variant CDATA #IMPLIED
kvg:partial CDATA #IMPLIED
kvg:original CDATA #IMPLIED
kvg:part CDATA #IMPLIED
kvg:number CDATA #IMPLIED
kvg:tradForm CDATA #IMPLIED
kvg:radicalForm CDATA #IMPLIED
kvg:position CDATA #IMPLIED
kvg:radical CDATA #IMPLIED
kvg:phon CDATA #IMPLIED >
<!ATTLIST path
xmlns:kvg CDATA #FIXED "http://kanjivg.tagaini.net"
kvg:type CDATA #IMPLIED >
]>
<svg xmlns="http://www.w3.org/2000/svg" width="327" height = "327" viewBox="0 0 327 327">
<g id="kvg:StrokePaths_07e6a" style="fill:none;stroke:#000000;stroke-width:3;stroke-linecap:round;stroke-linejoin:round;" transform="scale(3.0,3.0)">
<g id="kvg:07e6a" kvg:element="繪">
	<g id="kvg:07e6a-g1" kvg:element="糸" kvg:position="left" kvg:radical="general">
		<path style="stroke: #bf0909;" id="kvg:07e6a-s1" kvg:type="㇜" d="M28.98,12.5c0.4,1.38,0.41,2.4-0.2,3.91c-2.69,6.64-7.79,13.71-13.05,19.02c-0.73,0.73-0.79,3.19,0,3.45c4.16,1.38,8.03,2.2,11.59,4.73"/>
		<path style="stroke: #bf4209;" id="kvg:07e6a-s2" kvg:type="㇜" d="M39.08,25.93c0.29,0.58,0.37,2.46,0,3.09c-5.69,9.73-15.69,20.68-23.52,28.94c-1.8,1.89,0.45,2.98,1.62,2.59c4.9-1.61,15.27-4.26,21.57-5.8"/>
		<path style="stroke: #bf7c09;" id="kvg:07e6a-s3" kvg:type="㇔" d="M34.5,47c2.56,2.34,6.61,9.61,7.25,13.25"/>
		<path style="stroke: #bfb509;" id="kvg:07e6a-s4" kvg:type="㇑" d="M27.89,60.62c0.07,0.36,0.91,1.85,0.98,4.09c0.31,10.79-0.2,28.79-0.2,32.46"/>
		<path style="stroke: #8fbf09;" id="kvg:07e6a-s5" kvg:type="㇒" d="M17.78,70.5c0.15,0.87,0.12,2.57-0.15,3.19C15.88,77.74,11.49,85.53,9,89"/>
		<path style="stroke: #56bf09;" id="kvg:07e6a-s6" kvg:type="㇔" d="M36.25,69.25c2.71,3.54,4.79,11.76,5.42,14.97"/>
	</g>
	<g id="kvg:07e6a-g2" kvg:element="會" kvg:position="right">
		<g id="kvg:07e6a-g3" kvg:position="top">
			<g id="kvg:07e6a-g4" kvg:element="人">
				<path style="stroke: #1cbf09;" id="kvg:07e6a-s7" kvg:type="㇒" d="M65.17,11c0.07,0.86,0.27,2.33-0.14,3.48c-2.92,8.16-11.26,21.64-24.53,33.27"/>
				<path style="stroke: #09bf2f;" id="kvg:07e6a-s8" kvg:type="㇏" d="M65.51,15.59c4.19,4.73,21.73,19.68,26.35,23.15c1.57,1.18,3.58,1.68,5.14,2.01"/>
			</g>
			<path style="stroke: #09bf69;" id="kvg:07e6a-s9" kvg:type="㇐" d="M56.31,37.37c0.63,0.27,1.79,0.33,2.42,0.27c4.13-0.38,12.95-2,17.12-2.08c1.05-0.02,1.69,0.13,2.21,0.27"/>
			<path style="stroke: #09bfa2;" id="kvg:07e6a-s10" kvg:type="㇑" d="M47.54,47.43c0.34,0.7,1.12,2.04,1.26,2.97c0.4,2.55,1.92,13.11,2.61,16.93"/>
			<path style="stroke: #09a2bf;" id="kvg:07e6a-s11" kvg:type="㇕" d="M48.88,48.18c3.5-0.7,36.13-3.01,37.59-3.2c1.78-0.23,3.28,0.77,2.91,2.4C88.68,50.36,87,59.75,85.09,64.5"/>
			<path style="stroke: #0969bf;" id="kvg:07e6a-s12" kvg:type="㇑" d="M66.72,48.75c0.78,0.75,1,1.08,1.02,2.5c0.04,4.21,0.17,11.19,0.17,13.08"/>
			<path style="stroke: #092fbf;" id="kvg:07e6a-s13" kvg:type="㇔" d="M55.6,53.64c1.47,1.34,3.79,5.52,4.15,7.61"/>
			<path style="stroke: #1c09bf;" id="kvg:07e6a-s14" kvg:type="㇒" d="M80.33,50.99c0.02,0.24,0.03,0.62-0.03,0.97c-0.33,2.04-2.22,6.51-4.81,9.25"/>
			<path style="stroke: #5609bf;" id="kvg:07e6a-s15" kvg:type="㇐" d="M51.66,66.14c4.67-0.46,29.82-2.73,33.37-2.73"/>
		</g>
		<g id="kvg:07e6a-g5" kvg:element="日" kvg:position="bottom">
			<path style="stroke: #8f09bf;" id="kvg:07e6a-s16" kvg:type="㇑" d="M54.47,73.25c0.17,0.41,0.68,1.69,0.78,2.2c0.79,4.21,1.03,14.76,1.52,22.55"/>
			<path style="stroke: #bf09b5;" id="kvg:07e6a-s17" kvg:type="㇕a" d="M55.85,74.55c6.98-0.6,18.95-2.03,24.16-2.58c1.92-0.2,2.9,1.07,2.8,2.26C82.45,78.62,82.13,89.7,81.25,97"/>
			<path style="stroke: #bf097c;" id="kvg:07e6a-s18" kvg:type="㇐a" d="M56.92,85.54c2.25-0.27,23.22-1.99,25.08-2.03"/>
			<path style="stroke: #bf0942;" id="kvg:07e6a-s19" kvg:type="㇐a" d="M57.25,95.91c6.31-0.52,17.81-1.07,23.94-1.48"/>
		</g>
	</g>
</g>
</g>
<g id="kvg:StrokeNumbers_07e6a" style="font-size:8;fill:#808080" transform="scale(3.0,3.0)">
	<text style="fill: #bf0909;" transform="matrix(1 0 0 1 22.25 12.25)">1</text>
	<text style="fill: #bf4209;" transform="matrix(1 0 0 1 34.25 22.25)">2</text>
	<text style="fill: #bf7c09;" transform="matrix(1 0 0 1 35.25 45.25)">3</text>
	<text style="fill: #bfb509;" transform="matrix(1 0 0 1 21.25 68.25)">4</text>
	<text style="fill: #8fbf09;" transform="matrix(1 0 0 1 9.25 70.25)">5</text>
	<text style="fill: #56bf09;" transform="matrix(1 0 0 1 34.25 66.25)">6</text>
	<text style="fill: #1cbf09;" transform="matrix(1 0 0 1 58.25 10.25)">7</text>
	<text style="fill: #09bf2f;" transform="matrix(1 0 0 1 71.25 18.25)">8</text>
	<text style="fill: #09bf69;" transform="matrix(1 0 0 1 61.25 34.25)">9</text>
	<text style="fill: #09bfa2;" transform="matrix(1 0 0 1 40.00 54.25)">10</text>
	<text style="fill: #09a2bf;" transform="matrix(1 0 0 1 52.25 45.25)">11</text>
	<text style="fill: #0969bf;" transform="matrix(1 0 0 1 58.25 54.25)">12</text>
	<text style="fill: #092fbf;" transform="matrix(1 0 0 1 59.25 59.25)">13</text>
	<text style="fill: #1c09bf;" transform="matrix(1 0 0 1 70.25 54.25)">14</text>
	<text style="fill: #5609bf;" transform="matrix(1 0 0 1 51.75 64.25)">15</text>
	<text style="fill: #8f09bf;" transform="matrix(1 0 0 1 45.25 81.25)">16</text>
	<text style="fill: #bf09b5;" transform="matrix(1 0 0 1 57.25 71.93)">17</text>
	<text style="fill: #bf097c;" transform="matrix(1 0 0 1 58.26 82.10)">18</text>
	<text style="fill: #bf0942;" transform="matrix(1 0 0 1 58.25 93.25)">19</text>
</g>
</svg>
