<?xml version="1.0" encoding="UTF-8"?>
<!--
This file has been modified from the original version by the kanji_colorize.py
script (available at http://github.com/cayennes/kanji-colorize) with these
settings:
    mode: spectrum
    saturation: 0.95
    value: 0.75
    image_size: 327
It remains under a Creative Commons-Attribution-Share Alike 3.0 License.

The original SVG has the following copyright:

Copyright (C) 2009/2010/2011 Ulrich Apel.
This work is distributed under the conditions of the Creative Commons
Attribution-Share Alike 3.0 Licence. This means you are free:
* to Share - to copy, distribute and transmit the work
* to Remix - to adapt the work

Under the following conditions:
* Attribution. You must attribute the work by stating your use of KanjiVG in
  your own copyright header and linking to KanjiVG's website
  (http://kanjivg.tagaini.net)
* Share Alike. If you alter, transform, or build upon this work, you may
  distribute the resulting work only under the same or similar license to this
  one.

See http://creativecommons.org/licenses/by-sa/3.0/ for more details.
-->
<!DOCTYPE svg PUBLIC "-//W3C//DTD SVG 1.0//EN" "http://www.w3.org/TR/2001/REC-SVG-20010904/DTD/svg10.dtd" [
<!ATTLIST g
xmlns:kvg CDATA #FIXED "http://kanjivg.tagaini.net"
kvg:element CDATA #IMPLIED
kvg:variant CDATA #IMPLIED
kvg:partial CDATA #IMPLIED
kvg:original CDATA #IMPLIED
kvg:part CDATA #IMPLIED
kvg:number CDATA #IMPLIED
kvg:tradForm CDATA #IMPLIED
kvg:radicalForm CDATA #IMPLIED
kvg:position CDATA #IMPLIED
kvg:radical CDATA #IMPLIED
kvg:phon CDATA #IMPLIED >
<!ATTLIST path
xmlns:kvg CDATA #FIXED "http://kanjivg.tagaini.net"
kvg:type CDATA #IMPLIED >
]>
<svg xmlns="http://www.w3.org/2000/svg" width="327" height = "327" viewBox="0 0 327 327">
<g id="kvg:StrokePaths_07e70" style="fill:none;stroke:#000000;stroke-width:3;stroke-linecap:round;stroke-linejoin:round;" transform="scale(3.0,3.0)">
<g id="kvg:07e70" kvg:element="繰">
	<g id="kvg:07e70-g1" kvg:element="糸" kvg:position="left" kvg:radical="general">
		<path style="stroke: #bf0909;" id="kvg:07e70-s1" kvg:type="㇜" d="M28.38,15.17c0.34,1.34,0.02,2.66-0.67,4.05c-2.83,5.65-5.9,10.88-10.3,16.47C16.38,37,16.5,38,17.9,38.8c3.28,1.86,5.13,3.11,8.22,5.56"/>
		<path style="stroke: #bf4209;" id="kvg:07e70-s2" kvg:type="㇜" d="M38.3,27.43c0.45,1.2,0.32,2.7-0.5,3.84c-6.62,9.2-13.99,18.68-21.98,26.94c-1.83,1.89-0.87,3.54,1.4,2.84c5.9-1.8,14.37-4.74,20.79-6.28"/>
		<path style="stroke: #bf7c09;" id="kvg:07e70-s3" kvg:type="㇔" d="M34.75,48.62c2.38,2.09,6.15,8.6,6.75,11.86"/>
		<path style="stroke: #bfb509;" id="kvg:07e70-s4" kvg:type="㇑" d="M27.14,60.87c1,1,1.23,2.38,1.23,3.84c0,7.13-0.05,17.81-0.09,24.54c-0.02,3.21-0.03,5.53-0.03,6.13"/>
		<path style="stroke: #8fbf09;" id="kvg:07e70-s5" kvg:type="㇒" d="M19.61,69.85c0.14,1.53,0.02,2.28-0.4,3.47c-1.56,4.47-6.2,12.6-8.71,16.37"/>
		<path style="stroke: #56bf09;" id="kvg:07e70-s6" kvg:type="㇔" d="M34.68,69.04c3,3.24,5.3,10.75,5.99,13.69"/>
	</g>
	<g id="kvg:07e70-g2" kvg:position="right" kvg:phon="品+木">
		<g id="kvg:07e70-g3" kvg:element="品" kvg:position="top">
			<g id="kvg:07e70-g4" kvg:element="口" kvg:position="top">
				<path style="stroke: #1cbf09;" id="kvg:07e70-s7" kvg:type="㇑" d="M54.29,16.72c0.75,0.75,1.46,1.65,1.73,2.84c0.79,3.57,1.22,5.1,2,9.48c0.21,1.16,0.41,2.28,0.6,3.3"/>
				<path style="stroke: #09bf2f;" id="kvg:07e70-s8" kvg:type="㇕b" d="M56.84,18.29c8.12-1.41,18.17-2.95,22.83-3.3c1.7-0.13,2.72,1.03,2.48,1.8c-1.01,3.17-1.88,6.99-3.38,11.37"/>
				<path style="stroke: #09bf69;" id="kvg:07e70-s9" kvg:type="㇐b" d="M59.92,30.5c4.51-0.33,10.18-1.03,16.32-1.61c1.3-0.12,2.61-0.24,3.93-0.35"/>
			</g>
			<g id="kvg:07e70-g5" kvg:position="bottom">
				<g id="kvg:07e70-g6" kvg:element="口" kvg:position="left">
					<path style="stroke: #09bfa2;" id="kvg:07e70-s10" kvg:type="㇑" d="M46.5,40.35c0.7,0.7,1.12,1.28,1.37,2.09c0.64,2.11,1.6,4.96,2.26,9.08c0.19,1.2,0.36,2.38,0.5,3.48"/>
					<path style="stroke: #09a2bf;" id="kvg:07e70-s11" kvg:type="㇕b" d="M48.32,41.4c6.03-1.24,9.86-1.9,12.58-2.29c2.9-0.42,3.56,0.17,3,3.02c-0.56,2.87-1.21,5.29-2,8.91"/>
					<path style="stroke: #0969bf;" id="kvg:07e70-s12" kvg:type="㇐b" d="M51.75,53.39c2.93-0.34,3.91-0.62,8.49-0.97c0.85-0.07,1.78-0.14,2.8-0.24"/>
				</g>
				<g id="kvg:07e70-g7" kvg:element="口" kvg:position="right">
					<path style="stroke: #092fbf;" id="kvg:07e70-s13" kvg:type="㇑" d="M72.42,38.7c0.75,0.75,1.16,1.46,1.25,2.25c0.58,2.07,1.14,4.97,1.52,8.02c0.15,1.19,0.3,2.41,0.45,3.6"/>
					<path style="stroke: #1c09bf;" id="kvg:07e70-s14" kvg:type="㇕b" d="M74.56,40.01c5.59-0.83,10.08-1.64,13.21-2.09c2.78-0.4,3.59,0.2,2.94,2.99c-0.58,2.5-1,3.91-1.82,7.5"/>
					<path style="stroke: #5609bf;" id="kvg:07e70-s15" kvg:type="㇐b" d="M77.3,51.24c2.95-0.37,4.62-0.8,9.19-1.33c1.17-0.14,2.51-0.26,4.11-0.35"/>
				</g>
			</g>
		</g>
		<g id="kvg:07e70-g8" kvg:element="木" kvg:position="bottom">
			<path style="stroke: #8f09bf;" id="kvg:07e70-s16" kvg:type="㇐" d="M45.9,66.55c2.47,0.81,5.09,0.33,7.61,0.08c7.92-0.79,21.82-2.31,31.75-3.16c2.72-0.23,5.31-0.51,8.02,0.03"/>
			<path style="stroke: #bf09b5;" id="kvg:07e70-s17" kvg:type="㇑" d="M67.79,55.17c0.9,0.9,1.18,2.4,1.18,3.51c0,8.95,0,22.84-0.13,31.82c-0.04,2.4-0.08,4.41-0.14,5.83"/>
			<path style="stroke: #bf097c;" id="kvg:07e70-s18" kvg:type="㇒" d="M65.55,66.18c0,1.45-0.65,2.58-1.74,4.12c-5.47,7.78-14.94,16.67-22.56,20.55"/>
			<path style="stroke: #bf0942;" id="kvg:07e70-s19" kvg:type="㇏" d="M70.29,66.25c4.08,4.88,11.88,12.79,18.01,18.2c2.19,1.93,4.32,3.18,6.69,4.57"/>
		</g>
	</g>
</g>
</g>
<g id="kvg:StrokeNumbers_07e70" style="font-size:8;fill:#808080" transform="scale(3.0,3.0)">
	<text style="fill: #bf0909;" transform="matrix(1 0 0 1 21.75 14.50)">1</text>
	<text style="fill: #bf4209;" transform="matrix(1 0 0 1 30.75 27.50)">2</text>
	<text style="fill: #bf7c09;" transform="matrix(1 0 0 1 28.50 52.55)">3</text>
	<text style="fill: #bfb509;" transform="matrix(1 0 0 1 21.50 68.98)">4</text>
	<text style="fill: #8fbf09;" transform="matrix(1 0 0 1 11.25 72.50)">5</text>
	<text style="fill: #56bf09;" transform="matrix(1 0 0 1 33.50 66.50)">6</text>
	<text style="fill: #1cbf09;" transform="matrix(1 0 0 1 48.75 25.63)">7</text>
	<text style="fill: #09bf2f;" transform="matrix(1 0 0 1 58.50 14.50)">8</text>
	<text style="fill: #09bf69;" transform="matrix(1 0 0 1 62.25 27.50)">9</text>
	<text style="fill: #09bfa2;" transform="matrix(1 0 0 1 38.50 48.13)">10</text>
	<text style="fill: #09a2bf;" transform="matrix(1 0 0 1 48.50 38.13)">11</text>
	<text style="fill: #0969bf;" transform="matrix(1 0 0 1 52.50 50.50)">12</text>
	<text style="fill: #092fbf;" transform="matrix(1 0 0 1 65.50 48.50)">13</text>
	<text style="fill: #1c09bf;" transform="matrix(1 0 0 1 75.50 37.63)">14</text>
	<text style="fill: #5609bf;" transform="matrix(1 0 0 1 77.25 48.50)">15</text>
	<text style="fill: #8f09bf;" transform="matrix(1 0 0 1 45.00 64.50)">16</text>
	<text style="fill: #bf09b5;" transform="matrix(1 0 0 1 57.75 61.55)">17</text>
	<text style="fill: #bf097c;" transform="matrix(1 0 0 1 49.50 76.50)">18</text>
	<text style="fill: #bf0942;" transform="matrix(1 0 0 1 79.50 74.50)">19</text>
</g>
</svg>
