<?xml version="1.0" encoding="UTF-8"?>
<!--
This file has been modified from the original version by the kanji_colorize.py
script (available at http://github.com/cayennes/kanji-colorize) with these
settings:
    mode: spectrum
    saturation: 0.95
    value: 0.75
    image_size: 327
It remains under a Creative Commons-Attribution-Share Alike 3.0 License.

The original SVG has the following copyright:

Copyright (C) 2009/2010/2011 Ulrich Apel.
This work is distributed under the conditions of the Creative Commons
Attribution-Share Alike 3.0 Licence. This means you are free:
* to Share - to copy, distribute and transmit the work
* to Remix - to adapt the work

Under the following conditions:
* Attribution. You must attribute the work by stating your use of KanjiVG in
  your own copyright header and linking to KanjiVG's website
  (http://kanjivg.tagaini.net)
* Share Alike. If you alter, transform, or build upon this work, you may
  distribute the resulting work only under the same or similar license to this
  one.

See http://creativecommons.org/licenses/by-sa/3.0/ for more details.
-->
<!DOCTYPE svg PUBLIC "-//W3C//DTD SVG 1.0//EN" "http://www.w3.org/TR/2001/REC-SVG-20010904/DTD/svg10.dtd" [
<!ATTLIST g
xmlns:kvg CDATA #FIXED "http://kanjivg.tagaini.net"
kvg:element CDATA #IMPLIED
kvg:variant CDATA #IMPLIED
kvg:partial CDATA #IMPLIED
kvg:original CDATA #IMPLIED
kvg:part CDATA #IMPLIED
kvg:number CDATA #IMPLIED
kvg:tradForm CDATA #IMPLIED
kvg:radicalForm CDATA #IMPLIED
kvg:position CDATA #IMPLIED
kvg:radical CDATA #IMPLIED
kvg:phon CDATA #IMPLIED >
<!ATTLIST path
xmlns:kvg CDATA #FIXED "http://kanjivg.tagaini.net"
kvg:type CDATA #IMPLIED >
]>
<svg xmlns="http://www.w3.org/2000/svg" width="327" height = "327" viewBox="0 0 327 327">
<g id="kvg:StrokePaths_07f67" style="fill:none;stroke:#000000;stroke-width:3;stroke-linecap:round;stroke-linejoin:round;" transform="scale(3.0,3.0)">
<g id="kvg:07f67" kvg:element="罧">
	<g id="kvg:07f67-g1" kvg:element="罒" kvg:variant="true" kvg:original="网" kvg:position="top" kvg:radical="general">
		<path style="stroke: #bf0909;" id="kvg:07f67-s1" kvg:type="㇑" d="M20.42,14.5c0.34,0.3,0.69,0.54,0.84,0.91c1.19,2.93,3.18,12.07,3.99,17.34"/>
		<path style="stroke: #bf5d09;" id="kvg:07f67-s2" kvg:type="㇕a" d="M22.72,16.49c6.24-0.81,61.17-3.9,64.02-4.26c1.04-0.13,3.45,1.42,3.17,2.95c-0.58,3.19-3.02,10.13-4.57,14.69"/>
		<path style="stroke: #bfb109;" id="kvg:07f67-s3" kvg:type="㇑a" d="M43.76,15.86c0.15,1.76,1.73,11.36,1.89,13.33"/>
		<path style="stroke: #79bf09;" id="kvg:07f67-s4" kvg:type="㇑a" d="M65.95,14.04c-0.19,2.92-1.66,12.04-2.04,13.84"/>
		<path style="stroke: #25bf09;" id="kvg:07f67-s5" kvg:type="㇐a" d="M26.36,30.6c3.19-0.29,53.44-2.27,57.81-2.72"/>
	</g>
	<g id="kvg:07f67-g2" kvg:element="林" kvg:position="bottom">
		<g id="kvg:07f67-g3" kvg:element="木" kvg:variant="true" kvg:position="left">
			<path style="stroke: #09bf41;" id="kvg:07f67-s6" kvg:type="㇐" d="M16,52.43c0.75,0.21,3,0.06,5,0c8.04-0.24,16.76-1.66,24.26-2.08c1.99-0.11,3.5-0.22,4.75-0.01"/>
			<path style="stroke: #09bf95;" id="kvg:07f67-s7" kvg:type="㇑" d="M34.16,37.75c1.08,0.38,1.73,1.71,1.95,2.47c0.22,0.76,0,54.54-0.22,59.28"/>
			<path style="stroke: #0995bf;" id="kvg:07f67-s8" kvg:type="㇒" d="M35.75,54C32.24,64.64,21.8,82.48,14.5,88.5"/>
			<path style="stroke: #0941bf;" id="kvg:07f67-s9" kvg:type="㇔/㇏" d="M38,62c3.5,2,7.25,6,9.25,9.5"/>
		</g>
		<g id="kvg:07f67-g4" kvg:element="木" kvg:position="right">
			<path style="stroke: #2509bf;" id="kvg:07f67-s10" kvg:type="㇐" d="M55.25,51.11c0.56,0.19,1.78,0.29,3.28,0.19c5.28-0.38,20.43-1.69,30.74-2.62c1.5-0.14,2.8-0.19,3.74,0"/>
			<path style="stroke: #7909bf;" id="kvg:07f67-s11" kvg:type="㇑" d="M69.6,37c1.02,0.38,1.62,1.71,1.83,2.47c0.2,0.76,0,53.78-0.2,58.53"/>
			<path style="stroke: #bf09b1;" id="kvg:07f67-s12" kvg:type="㇒" d="M71,52c-3.89,12.22-15.5,27.5-25,35.5"/>
			<path style="stroke: #bf095d;" id="kvg:07f67-s13" kvg:type="㇏" d="M72,51c5.92,12.04,15.4,27.5,20.21,32.25c1.37,1.35,2.14,2.29,3.29,2.75"/>
		</g>
	</g>
</g>
</g>
<g id="kvg:StrokeNumbers_07f67" style="font-size:8;fill:#808080" transform="scale(3.0,3.0)">
	<text style="fill: #bf0909;" transform="matrix(1 0 0 1 14.25 22.25)">1</text>
	<text style="fill: #bf5d09;" transform="matrix(1 0 0 1 25.41 13.25)">2</text>
	<text style="fill: #bfb109;" transform="matrix(1 0 0 1 36.46 24.25)">3</text>
	<text style="fill: #79bf09;" transform="matrix(1 0 0 1 57.25 22.25)">4</text>
	<text style="fill: #25bf09;" transform="matrix(1 0 0 1 28.47 27.25)">5</text>
	<text style="fill: #09bf41;" transform="matrix(1 0 0 1 8.25 53.25)">6</text>
	<text style="fill: #09bf95;" transform="matrix(1 0 0 1 25.25 41.25)">7</text>
	<text style="fill: #0995bf;" transform="matrix(1 0 0 1 24.50 63.25)">8</text>
	<text style="fill: #0941bf;" transform="matrix(1 0 0 1 41.25 61.25)">9</text>
	<text style="fill: #2509bf;" transform="matrix(1 0 0 1 52.25 48.25)">10</text>
	<text style="fill: #7909bf;" transform="matrix(1 0 0 1 59.25 38.25)">11</text>
	<text style="fill: #bf09b1;" transform="matrix(1 0 0 1 55.25 62.25)">12</text>
	<text style="fill: #bf095d;" transform="matrix(1 0 0 1 79.25 60.25)">13</text>
</g>
</svg>
