<?xml version="1.0" encoding="UTF-8"?>
<!--
This file has been modified from the original version by the kanji_colorize.py
script (available at http://github.com/cayennes/kanji-colorize) with these
settings:
    mode: spectrum
    saturation: 0.95
    value: 0.75
    image_size: 327
It remains under a Creative Commons-Attribution-Share Alike 3.0 License.

The original SVG has the following copyright:

Copyright (C) 2009/2010/2011 Ulrich Apel.
This work is distributed under the conditions of the Creative Commons
Attribution-Share Alike 3.0 Licence. This means you are free:
* to Share - to copy, distribute and transmit the work
* to Remix - to adapt the work

Under the following conditions:
* Attribution. You must attribute the work by stating your use of KanjiVG in
  your own copyright header and linking to KanjiVG's website
  (http://kanjivg.tagaini.net)
* Share Alike. If you alter, transform, or build upon this work, you may
  distribute the resulting work only under the same or similar license to this
  one.

See http://creativecommons.org/licenses/by-sa/3.0/ for more details.
-->
<!DOCTYPE svg PUBLIC "-//W3C//DTD SVG 1.0//EN" "http://www.w3.org/TR/2001/REC-SVG-20010904/DTD/svg10.dtd" [
<!ATTLIST g
xmlns:kvg CDATA #FIXED "http://kanjivg.tagaini.net"
kvg:element CDATA #IMPLIED
kvg:variant CDATA #IMPLIED
kvg:partial CDATA #IMPLIED
kvg:original CDATA #IMPLIED
kvg:part CDATA #IMPLIED
kvg:number CDATA #IMPLIED
kvg:tradForm CDATA #IMPLIED
kvg:radicalForm CDATA #IMPLIED
kvg:position CDATA #IMPLIED
kvg:radical CDATA #IMPLIED
kvg:phon CDATA #IMPLIED >
<!ATTLIST path
xmlns:kvg CDATA #FIXED "http://kanjivg.tagaini.net"
kvg:type CDATA #IMPLIED >
]>
<svg xmlns="http://www.w3.org/2000/svg" width="327" height = "327" viewBox="0 0 327 327">
<g id="kvg:StrokePaths_07f75" style="fill:none;stroke:#000000;stroke-width:3;stroke-linecap:round;stroke-linejoin:round;" transform="scale(3.0,3.0)">
<g id="kvg:07f75" kvg:element="罵">
	<g id="kvg:07f75-g1" kvg:element="罒" kvg:variant="true" kvg:original="网" kvg:position="top" kvg:radical="general">
		<path style="stroke: #bf0909;" id="kvg:07f75-s1" kvg:type="㇑" d="M22.18,13.32c0.23,0.27,0.46,0.49,0.56,0.82c0.79,2.64,2.46,10.87,3,15.61"/>
		<path style="stroke: #bf5209;" id="kvg:07f75-s2" kvg:type="㇕a" d="M23.97,15.11c5.87-0.79,57.48-3.78,60.16-4.13c0.98-0.13,2.3,0.89,2.04,2.38c-0.55,3.1-1.89,8.85-3.35,13.27"/>
		<path style="stroke: #bf9a09;" id="kvg:07f75-s3" kvg:type="㇑a" d="M43.01,14.11c0.15,1.76,1.23,9.86,1.39,11.83"/>
		<path style="stroke: #9abf09;" id="kvg:07f75-s4" kvg:type="㇑a" d="M64.04,12.54c-0.15,2.86-0.92,10.33-1.23,12.09"/>
		<path style="stroke: #52bf09;" id="kvg:07f75-s5" kvg:type="㇐a" d="M26.11,27.36C32,27,73.75,24.25,83.17,24.37"/>
	</g>
	<g id="kvg:07f75-g2" kvg:element="馬" kvg:position="bottom">
		<path style="stroke: #09bf09;" id="kvg:07f75-s6" kvg:type="㇑" d="M29.79,37.43c0.43,0.31,0.89,2.05,0.89,2.6c0,5.52-0.45,26.25-0.71,34.95"/>
		<path style="stroke: #09bf52;" id="kvg:07f75-s7" kvg:type="㇐b" d="M31.94,38.26c10.53-1.08,33.56-2.76,42.62-3.12c1.59-0.06,4.25,0.05,5.05,0.21"/>
		<path style="stroke: #09bf9a;" id="kvg:07f75-s8" kvg:type="㇑a" d="M53.02,38.93c0.43,0.31,1.27,1.75,1.27,2.29c0,5.53,0.05,23.19-0.21,31.89"/>
		<path style="stroke: #099abf;" id="kvg:07f75-s9" kvg:type="㇐b" d="M31.47,50.04c10.53-1.08,33.28-2.79,41.25-3.29c1.59-0.1,4.25,0.05,5.05,0.21"/>
		<path style="stroke: #0952bf;" id="kvg:07f75-s10" kvg:type="㇐b" d="M31.7,61.7c10.53-1.08,37.23-2.69,41.75-3.29c1.58-0.21,4.25,0.06,5.05,0.21"/>
		<path style="stroke: #0909bf;" id="kvg:07f75-s11" kvg:type="㇆a" d="M29.98,75.12c13.02-1.37,47.28-2.94,54.56-3.74C88,71,89.8,72.91,89.4,76.03c-1.15,8.97-2.9,14.22-6.65,18.72c-5.91,7.09-6.25,2-8.69-1.02"/>
		<g id="kvg:07f75-g3" kvg:element="灬" kvg:variant="true" kvg:original="火">
			<path style="stroke: #5209bf;" id="kvg:07f75-s12" kvg:type="㇔" d="M20.76,81.67C19.25,87.5,18,92,14.84,96.73"/>
			<path style="stroke: #9a09bf;" id="kvg:07f75-s13" kvg:type="㇔" d="M33.27,82.21c2.52,2.18,4.91,8.18,5.54,11.57"/>
			<path style="stroke: #bf099a;" id="kvg:07f75-s14" kvg:type="㇔" d="M49.45,79.28c2.15,2.1,5.56,8.65,6.1,11.92"/>
			<path style="stroke: #bf0952;" id="kvg:07f75-s15" kvg:type="㇔" d="M65.4,77.78c1.99,1.52,5.14,6.25,5.64,8.62"/>
		</g>
	</g>
</g>
</g>
<g id="kvg:StrokeNumbers_07f75" style="font-size:8;fill:#808080" transform="scale(3.0,3.0)">
	<text style="fill: #bf0909;" transform="matrix(1 0 0 1 16.50 23.50)">1</text>
	<text style="fill: #bf5209;" transform="matrix(1 0 0 1 25.66 11.50)">2</text>
	<text style="fill: #bf9a09;" transform="matrix(1 0 0 1 36.50 21.50)">3</text>
	<text style="fill: #9abf09;" transform="matrix(1 0 0 1 56.54 20.85)">4</text>
	<text style="fill: #52bf09;" transform="matrix(1 0 0 1 28.50 24.50)">5</text>
	<text style="fill: #09bf09;" transform="matrix(1 0 0 1 23.50 45.50)">6</text>
	<text style="fill: #09bf52;" transform="matrix(1 0 0 1 34.50 34.50)">7</text>
	<text style="fill: #09bf9a;" transform="matrix(1 0 0 1 57.50 43.50)">8</text>
	<text style="fill: #099abf;" transform="matrix(1 0 0 1 35.50 46.50)">9</text>
	<text style="fill: #0952bf;" transform="matrix(1 0 0 1 34.50 58.95)">10</text>
	<text style="fill: #0909bf;" transform="matrix(1 0 0 1 34.50 71.50)">11</text>
	<text style="fill: #5209bf;" transform="matrix(1 0 0 1 12.50 82.50)">12</text>
	<text style="fill: #9a09bf;" transform="matrix(1 0 0 1 24.50 85.50)">13</text>
	<text style="fill: #bf099a;" transform="matrix(1 0 0 1 40.50 83.50)">14</text>
	<text style="fill: #bf0952;" transform="matrix(1 0 0 1 57.50 81.50)">15</text>
</g>
</svg>
