<?xml version="1.0" encoding="UTF-8"?>
<!--
This file has been modified from the original version by the kanji_colorize.py
script (available at http://github.com/cayennes/kanji-colorize) with these
settings:
    mode: spectrum
    saturation: 0.95
    value: 0.75
    image_size: 327
It remains under a Creative Commons-Attribution-Share Alike 3.0 License.

The original SVG has the following copyright:

Copyright (C) 2009/2010/2011 Ulrich Apel.
This work is distributed under the conditions of the Creative Commons
Attribution-Share Alike 3.0 Licence. This means you are free:
* to Share - to copy, distribute and transmit the work
* to Remix - to adapt the work

Under the following conditions:
* Attribution. You must attribute the work by stating your use of KanjiVG in
  your own copyright header and linking to KanjiVG's website
  (http://kanjivg.tagaini.net)
* Share Alike. If you alter, transform, or build upon this work, you may
  distribute the resulting work only under the same or similar license to this
  one.

See http://creativecommons.org/licenses/by-sa/3.0/ for more details.
-->
<!DOCTYPE svg PUBLIC "-//W3C//DTD SVG 1.0//EN" "http://www.w3.org/TR/2001/REC-SVG-20010904/DTD/svg10.dtd" [
<!ATTLIST g
xmlns:kvg CDATA #FIXED "http://kanjivg.tagaini.net"
kvg:element CDATA #IMPLIED
kvg:variant CDATA #IMPLIED
kvg:partial CDATA #IMPLIED
kvg:original CDATA #IMPLIED
kvg:part CDATA #IMPLIED
kvg:number CDATA #IMPLIED
kvg:tradForm CDATA #IMPLIED
kvg:radicalForm CDATA #IMPLIED
kvg:position CDATA #IMPLIED
kvg:radical CDATA #IMPLIED
kvg:phon CDATA #IMPLIED >
<!ATTLIST path
xmlns:kvg CDATA #FIXED "http://kanjivg.tagaini.net"
kvg:type CDATA #IMPLIED >
]>
<svg xmlns="http://www.w3.org/2000/svg" width="327" height = "327" viewBox="0 0 327 327">
<g id="kvg:StrokePaths_07f8a" style="fill:none;stroke:#000000;stroke-width:3;stroke-linecap:round;stroke-linejoin:round;" transform="scale(3.0,3.0)">
<g id="kvg:07f8a" kvg:element="羊" kvg:radical="general">
	<path style="stroke: #bf0909;" id="kvg:07f8a-s1" kvg:type="㇔" d="M33.89,11.71c3.06,2.03,7.9,8.35,8.67,11.51"/>
	<path style="stroke: #bfbf09;" id="kvg:07f8a-s2" kvg:type="㇒" d="M69.9,10.64c0.03,0.38,0.12,1.25-0.06,1.79C68.5,16.25,65,21,59.78,25.95"/>
	<path style="stroke: #09bf09;" id="kvg:07f8a-s3" kvg:type="㇐" d="M26.5,31.64c2.88,0.44,5.74,0.25,8.63,0.01c11-0.9,27.5-3.4,39.36-3.89c2.52-0.1,5.16-0.34,7.64,0.25"/>
	<path style="stroke: #09bfbf;" id="kvg:07f8a-s4" kvg:type="㇐" d="M28.25,49.64c2.38,0.61,4.96,0.67,7.14,0.34c11.36-1.73,26.36-3.23,36.74-3.73c2.43-0.12,5.23-0.07,7.62,0.51"/>
	<path style="stroke: #0909bf;" id="kvg:07f8a-s5" kvg:type="㇐" d="M13.75,68.95c3.96,0.68,8.72,0.42,12.73,0.13c15.53-1.16,37.11-3.35,55.58-3.77c4.08-0.09,8.3-0.28,12.32,0.49"/>
	<path style="stroke: #bf09bf;" id="kvg:07f8a-s6" kvg:type="㇑" d="M52.75,32.75c1,1,1.5,2.5,1.5,3.5c0,0.89,0,41.12,0,58.12c0,2.72,0,4.85,0,6.12"/>
</g>
</g>
<g id="kvg:StrokeNumbers_07f8a" style="font-size:8;fill:#808080" transform="scale(3.0,3.0)">
	<text style="fill: #bf0909;" transform="matrix(1 0 0 1 27.75 12.13)">1</text>
	<text style="fill: #bfbf09;" transform="matrix(1 0 0 1 60.75 10.63)">2</text>
	<text style="fill: #09bf09;" transform="matrix(1 0 0 1 18.75 31.50)">3</text>
	<text style="fill: #09bfbf;" transform="matrix(1 0 0 1 20.25 50.50)">4</text>
	<text style="fill: #0909bf;" transform="matrix(1 0 0 1 6.75 69.50)">5</text>
	<text style="fill: #bf09bf;" transform="matrix(1 0 0 1 45.50 40.63)">6</text>
</g>
</svg>
