<?xml version="1.0" encoding="UTF-8"?>
<!--
This file has been modified from the original version by the kanji_colorize.py
script (available at http://github.com/cayennes/kanji-colorize) with these
settings:
    mode: spectrum
    saturation: 0.95
    value: 0.75
    image_size: 327
It remains under a Creative Commons-Attribution-Share Alike 3.0 License.

The original SVG has the following copyright:

Copyright (C) 2009/2010/2011 Ulrich Apel.
This work is distributed under the conditions of the Creative Commons
Attribution-Share Alike 3.0 Licence. This means you are free:
* to Share - to copy, distribute and transmit the work
* to Remix - to adapt the work

Under the following conditions:
* Attribution. You must attribute the work by stating your use of KanjiVG in
  your own copyright header and linking to KanjiVG's website
  (http://kanjivg.tagaini.net)
* Share Alike. If you alter, transform, or build upon this work, you may
  distribute the resulting work only under the same or similar license to this
  one.

See http://creativecommons.org/licenses/by-sa/3.0/ for more details.
-->
<!DOCTYPE svg PUBLIC "-//W3C//DTD SVG 1.0//EN" "http://www.w3.org/TR/2001/REC-SVG-20010904/DTD/svg10.dtd" [
<!ATTLIST g
xmlns:kvg CDATA #FIXED "http://kanjivg.tagaini.net"
kvg:element CDATA #IMPLIED
kvg:variant CDATA #IMPLIED
kvg:partial CDATA #IMPLIED
kvg:original CDATA #IMPLIED
kvg:part CDATA #IMPLIED
kvg:number CDATA #IMPLIED
kvg:tradForm CDATA #IMPLIED
kvg:radicalForm CDATA #IMPLIED
kvg:position CDATA #IMPLIED
kvg:radical CDATA #IMPLIED
kvg:phon CDATA #IMPLIED >
<!ATTLIST path
xmlns:kvg CDATA #FIXED "http://kanjivg.tagaini.net"
kvg:type CDATA #IMPLIED >
]>
<svg xmlns="http://www.w3.org/2000/svg" width="327" height = "327" viewBox="0 0 327 327">
<g id="kvg:StrokePaths_07f9a" style="fill:none;stroke:#000000;stroke-width:3;stroke-linecap:round;stroke-linejoin:round;" transform="scale(3.0,3.0)">
<g id="kvg:07f9a" kvg:element="羚">
	<g id="kvg:07f9a-g1" kvg:element="羊" kvg:position="left" kvg:radical="general">
		<path style="stroke: #bf0909;" id="kvg:07f9a-s1" kvg:type="㇔" d="M15.79,16.09c3.41,2.12,8.82,8.72,9.68,12.02"/>
		<path style="stroke: #bf6c09;" id="kvg:07f9a-s2" kvg:type="㇒" d="M40.64,13.14c0.02,0.38,0.04,0.99-0.04,1.54c-0.53,3.25-3.54,10.39-7.67,14.76"/>
		<path style="stroke: #aebf09;" id="kvg:07f9a-s3" kvg:type="㇐" d="M14.96,34.21c0.71,0.35,2,0.39,2.71,0.35c5-0.25,18.66-2.94,24.98-3.79c1.17-0.16,1.88,0.17,2.47,0.34"/>
		<path style="stroke: #4bbf09;" id="kvg:07f9a-s4" kvg:type="㇐" d="M14.93,47.95c0.62,0.34,2.76,0.4,3.39,0.34c5.24-0.46,17.31-3.07,23.59-4.16c1.03-0.18,1.66,0.16,2.18,0.33"/>
		<path style="stroke: #09bf2a;" id="kvg:07f9a-s5" kvg:type="㇐" d="M12,64.89c0.66,0.77,1.88,0.9,2.54,0.77c5.09-1.05,20.48-6.57,28.71-9.16"/>
		<path style="stroke: #09bf8d;" id="kvg:07f9a-s6" kvg:type="㇑" d="M29.78,35.06c0.97,0.94,1.14,2.29,1.14,3.12C30.92,74.25,28.25,86,15,97"/>
	</g>
	<g id="kvg:07f9a-g2" kvg:element="令" kvg:position="right">
		<g id="kvg:07f9a-g3" kvg:element="人" kvg:position="top">
			<path style="stroke: #098dbf;" id="kvg:07f9a-s7" kvg:type="㇒" d="M67.02,14c0.07,0.92,0.29,2.4-0.13,3.69C64.24,25.76,55.84,42.28,46,52.1"/>
			<path style="stroke: #092abf;" id="kvg:07f9a-s8" kvg:type="㇏" d="M67.25,18c4.63,4.66,21.48,23.51,25.39,27.38c1.33,1.31,3.03,1.88,4.36,2.25"/>
		</g>
		<g id="kvg:07f9a-g4" kvg:position="bottom">
			<g id="kvg:07f9a-g5" kvg:element="一">
				<path style="stroke: #4b09bf;" id="kvg:07f9a-s9" kvg:type="" d="M64.5,43.5c3.97,1.9,10.26,7.8,11.25,10.75"/>
			</g>
			<g id="kvg:07f9a-g6" kvg:element="マ">
				<path style="stroke: #ae09bf;" id="kvg:07f9a-s10" kvg:type="㇆a" d="M49.7,64.22c1.14,0.75,3.54,1.12,4.83,0.92c5.73-0.89,29.66-4.07,32.36-4.45c2.7-0.37,3.88,1.88,1.94,3.86c-4.54,4.65-17.67,16.78-19.37,18.28"/>
				<path style="stroke: #bf096c;" id="kvg:07f9a-s11" kvg:type="㇔" d="M56.25,74.25c5.05,2.85,18.12,13.8,20.5,21.25"/>
			</g>
		</g>
	</g>
</g>
</g>
<g id="kvg:StrokeNumbers_07f9a" style="font-size:8;fill:#808080" transform="scale(3.0,3.0)">
	<text style="fill: #bf0909;" transform="matrix(1 0 0 1 9.25 16.25)">1</text>
	<text style="fill: #bf6c09;" transform="matrix(1 0 0 1 32.25 12.25)">2</text>
	<text style="fill: #aebf09;" transform="matrix(1 0 0 1 7.25 34.25)">3</text>
	<text style="fill: #4bbf09;" transform="matrix(1 0 0 1 8.25 48.25)">4</text>
	<text style="fill: #09bf2a;" transform="matrix(1 0 0 1 4.25 65.25)">5</text>
	<text style="fill: #09bf8d;" transform="matrix(1 0 0 1 23.00 42.25)">6</text>
	<text style="fill: #098dbf;" transform="matrix(1 0 0 1 59.25 15.25)">7</text>
	<text style="fill: #092abf;" transform="matrix(1 0 0 1 75.25 22.25)">8</text>
	<text style="fill: #4b09bf;" transform="matrix(1 0 0 1 66.25 41.25)">9</text>
	<text style="fill: #ae09bf;" transform="matrix(1 0 0 1 49.25 61.25)">10</text>
	<text style="fill: #bf096c;" transform="matrix(1 0 0 1 46.25 79.25)">11</text>
</g>
</svg>
