<?xml version="1.0" encoding="UTF-8"?>
<!--
This file has been modified from the original version by the kanji_colorize.py
script (available at http://github.com/cayennes/kanji-colorize) with these
settings:
    mode: spectrum
    saturation: 0.95
    value: 0.75
    image_size: 327
It remains under a Creative Commons-Attribution-Share Alike 3.0 License.

The original SVG has the following copyright:

Copyright (C) 2009/2010/2011 Ulrich Apel.
This work is distributed under the conditions of the Creative Commons
Attribution-Share Alike 3.0 Licence. This means you are free:
* to Share - to copy, distribute and transmit the work
* to Remix - to adapt the work

Under the following conditions:
* Attribution. You must attribute the work by stating your use of KanjiVG in
  your own copyright header and linking to KanjiVG's website
  (http://kanjivg.tagaini.net)
* Share Alike. If you alter, transform, or build upon this work, you may
  distribute the resulting work only under the same or similar license to this
  one.

See http://creativecommons.org/licenses/by-sa/3.0/ for more details.
-->
<!DOCTYPE svg PUBLIC "-//W3C//DTD SVG 1.0//EN" "http://www.w3.org/TR/2001/REC-SVG-20010904/DTD/svg10.dtd" [
<!ATTLIST g
xmlns:kvg CDATA #FIXED "http://kanjivg.tagaini.net"
kvg:element CDATA #IMPLIED
kvg:variant CDATA #IMPLIED
kvg:partial CDATA #IMPLIED
kvg:original CDATA #IMPLIED
kvg:part CDATA #IMPLIED
kvg:number CDATA #IMPLIED
kvg:tradForm CDATA #IMPLIED
kvg:radicalForm CDATA #IMPLIED
kvg:position CDATA #IMPLIED
kvg:radical CDATA #IMPLIED
kvg:phon CDATA #IMPLIED >
<!ATTLIST path
xmlns:kvg CDATA #FIXED "http://kanjivg.tagaini.net"
kvg:type CDATA #IMPLIED >
]>
<svg xmlns="http://www.w3.org/2000/svg" width="327" height = "327" viewBox="0 0 327 327">
<g id="kvg:StrokePaths_07f94" style="fill:none;stroke:#000000;stroke-width:3;stroke-linecap:round;stroke-linejoin:round;" transform="scale(3.0,3.0)">
<g id="kvg:07f94" kvg:element="羔">
	<g id="kvg:07f94-g1" kvg:element="羊" kvg:variant="true" kvg:position="top" kvg:radical="general">
		<path style="stroke: #bf0909;" id="kvg:07f94-s1" kvg:type="㇔" d="M32.18,14.9c3.45,2.25,9.5,9.25,10.36,12.75"/>
		<path style="stroke: #bf7609;" id="kvg:07f94-s2" kvg:type="㇒" d="M70.32,12.14c0.03,0.32,0.05,0.83-0.05,1.3c-0.63,2.74-5.52,10.31-10.23,14.5"/>
		<path style="stroke: #9abf09;" id="kvg:07f94-s3" kvg:type="㇐" d="M19.7,33.65c1.29,0.31,3.66,0.38,4.95,0.31c12.73-0.67,46.84-4.41,58.49-4.3c2.15,0.02,3.45,0.15,4.52,0.3"/>
		<path style="stroke: #2dbf09;" id="kvg:07f94-s4" kvg:type="㇑a" d="M51.97,32.15c1.22,0.43,2.2,1.91,2.2,2.81c0,7.36-0.01,19.37-0.01,27.08"/>
		<path style="stroke: #09bf52;" id="kvg:07f94-s5" kvg:type="㇐" d="M26.12,47.77c1.43,0.31,4.05,0.36,5.48,0.31c14.98-0.53,31.92-3.12,46.02-3.45c2.38-0.06,3.81,0.15,5,0.3"/>
		<path style="stroke: #09bfbf;" id="kvg:07f94-s6" kvg:type="㇐" d="M16.54,64.45c1.71,0.4,4.85,0.52,6.54,0.4c11.67-0.85,45.19-3.48,63.91-4.29c2.84-0.12,4.55,0.19,5.97,0.39"/>
	</g>
	<g id="kvg:07f94-g2" kvg:element="灬" kvg:variant="true" kvg:original="火" kvg:position="bottom">
		<path style="stroke: #0952bf;" id="kvg:07f94-s7" kvg:type="㇔" d="M24.25,77.95c0,6.45-6.34,15.96-8,17.8"/>
		<path style="stroke: #2d09bf;" id="kvg:07f94-s8" kvg:type="㇔" d="M40.77,74.61c3.15,3.91,6.15,14.66,6.94,20.74"/>
		<path style="stroke: #9a09bf;" id="kvg:07f94-s9" kvg:type="㇔" d="M62.37,74.58c2.54,3.6,6.55,14.81,7.18,20.41"/>
		<path style="stroke: #bf0976;" id="kvg:07f94-s10" kvg:type="㇔" d="M81.02,74.61c4.16,3.72,10.75,15.31,11.79,21.1"/>
	</g>
</g>
</g>
<g id="kvg:StrokeNumbers_07f94" style="font-size:8;fill:#808080" transform="scale(3.0,3.0)">
	<text style="fill: #bf0909;" transform="matrix(1 0 0 1 23.25 14.25)">1</text>
	<text style="fill: #bf7609;" transform="matrix(1 0 0 1 60.25 11.25)">2</text>
	<text style="fill: #9abf09;" transform="matrix(1 0 0 1 12.25 34.25)">3</text>
	<text style="fill: #2dbf09;" transform="matrix(1 0 0 1 46.19 41.25)">4</text>
	<text style="fill: #09bf52;" transform="matrix(1 0 0 1 18.25 48.25)">5</text>
	<text style="fill: #09bfbf;" transform="matrix(1 0 0 1 8.19 64.25)">6</text>
	<text style="fill: #0952bf;" transform="matrix(1 0 0 1 19.25 78.43)">7</text>
	<text style="fill: #2d09bf;" transform="matrix(1 0 0 1 33.25 76.25)">8</text>
	<text style="fill: #9a09bf;" transform="matrix(1 0 0 1 54.25 75.25)">9</text>
	<text style="fill: #bf0976;" transform="matrix(1 0 0 1 69.19 75.21)">10</text>
</g>
</svg>
