<?xml version="1.0" encoding="UTF-8"?>
<!--
This file has been modified from the original version by the kanji_colorize.py
script (available at http://github.com/cayennes/kanji-colorize) with these
settings:
    mode: spectrum
    saturation: 0.95
    value: 0.75
    image_size: 327
It remains under a Creative Commons-Attribution-Share Alike 3.0 License.

The original SVG has the following copyright:

Copyright (C) 2009/2010/2011 Ulrich Apel.
This work is distributed under the conditions of the Creative Commons
Attribution-Share Alike 3.0 Licence. This means you are free:
* to Share - to copy, distribute and transmit the work
* to Remix - to adapt the work

Under the following conditions:
* Attribution. You must attribute the work by stating your use of KanjiVG in
  your own copyright header and linking to KanjiVG's website
  (http://kanjivg.tagaini.net)
* Share Alike. If you alter, transform, or build upon this work, you may
  distribute the resulting work only under the same or similar license to this
  one.

See http://creativecommons.org/licenses/by-sa/3.0/ for more details.
-->
<!DOCTYPE svg PUBLIC "-//W3C//DTD SVG 1.0//EN" "http://www.w3.org/TR/2001/REC-SVG-20010904/DTD/svg10.dtd" [
<!ATTLIST g
xmlns:kvg CDATA #FIXED "http://kanjivg.tagaini.net"
kvg:element CDATA #IMPLIED
kvg:variant CDATA #IMPLIED
kvg:partial CDATA #IMPLIED
kvg:original CDATA #IMPLIED
kvg:part CDATA #IMPLIED
kvg:number CDATA #IMPLIED
kvg:tradForm CDATA #IMPLIED
kvg:radicalForm CDATA #IMPLIED
kvg:position CDATA #IMPLIED
kvg:radical CDATA #IMPLIED
kvg:phon CDATA #IMPLIED >
<!ATTLIST path
xmlns:kvg CDATA #FIXED "http://kanjivg.tagaini.net"
kvg:type CDATA #IMPLIED >
]>
<svg xmlns="http://www.w3.org/2000/svg" width="327" height = "327" viewBox="0 0 327 327">
<g id="kvg:StrokePaths_07fb8" style="fill:none;stroke:#000000;stroke-width:3;stroke-linecap:round;stroke-linejoin:round;" transform="scale(3.0,3.0)">
<g id="kvg:07fb8" kvg:element="羸">
	<g id="kvg:07fb8-g1" kvg:position="top">
		<g id="kvg:07fb8-g2" kvg:element="亡" kvg:position="top">
			<g id="kvg:07fb8-g3" kvg:element="亠" kvg:radical="nelson">
				<path style="stroke: #bf0909;" id="kvg:07fb8-s1" kvg:type="㇑a" d="M52.08,10.11c0.81,0.34,2.06,1.87,2.06,2.54c0,2.48-0.17,4.47-0.02,6.57"/>
				<g id="kvg:07fb8-g4" kvg:element="匸" kvg:part="1" kvg:variant="true" kvg:original="匚">
					<path style="stroke: #bf4209;" id="kvg:07fb8-s2" kvg:type="㇐" d="M17.14,20.67c1.39,0.08,4.57,0.52,5.93,0.42c10.95-0.87,49.46-2.79,63.36-3.01c2.3-0.04,3.47,0.04,5.18,0.53"/>
				</g>
			</g>
			<g id="kvg:07fb8-g5" kvg:element="匸" kvg:part="2" kvg:variant="true" kvg:original="匚">
				<path style="stroke: #bf7c09;" id="kvg:07fb8-s3" kvg:type="㇄" d="M30.19,21.61c0,2.55,0.21,3.5,0,4.44c-0.44,1.95,0.56,2.78,10.47,2.93c10.74,0.17,28.63-1.03,31.06-1.06c4.21-0.04,7.78-0.42,10.44-0.78"/>
			</g>
		</g>
		<g id="kvg:07fb8-g6" kvg:element="口" kvg:position="bottom">
			<path style="stroke: #bfb509;" id="kvg:07fb8-s4" kvg:type="㇑" d="M33.65,36.25c0.13,0.4,0.29,0.68,0.34,0.99c0.33,2.24,1.37,4.26,1.85,8.51"/>
			<path style="stroke: #8fbf09;" id="kvg:07fb8-s5" kvg:type="㇕b" d="M34.33,36.9c3.76-0.45,38.25-3.09,40.82-3.16c1.06-0.03,1.74,0.68,1.54,1.32c-0.72,2.28-1.88,2.79-2.29,6.34"/>
			<path style="stroke: #56bf09;" id="kvg:07fb8-s6" kvg:type="㇐b" d="M36.04,44.1c2.78,0,36-2.31,39.84-2.38"/>
		</g>
	</g>
	<g id="kvg:07fb8-g7" kvg:position="bottom">
		<g id="kvg:07fb8-g8" kvg:element="羊" kvg:radical="tradit">
			<path style="stroke: #1cbf09;" id="kvg:07fb8-s7" kvg:type="㇔" d="M45.29,48.57c1.93,1.44,4.98,5.94,5.46,8.18"/>
			<path style="stroke: #09bf2f;" id="kvg:07fb8-s8" kvg:type="㇒" d="M61.87,46.25c0.02,0.25,0.03,0.65-0.03,1.01c-0.37,2.13-2.47,6.81-5.36,9.68"/>
			<path style="stroke: #09bf69;" id="kvg:07fb8-s9" kvg:type="㇐" d="M42.38,60.23c0.4,0.17,1.12,0.19,1.51,0.17c2.79-0.12,16.24-1.96,19.8-1.9c0.66,0.01,1.05,0.08,1.38,0.17"/>
			<path style="stroke: #09bfa2;" id="kvg:07fb8-s10" kvg:type="㇐" d="M43.24,69.57c0.37,0.12,1.05,0.14,1.42,0.12c3.12-0.16,14.08-1.26,17.42-1.22c0.62,0.01,0.99,0.06,1.3,0.12"/>
			<path style="stroke: #09a2bf;" id="kvg:07fb8-s11" kvg:type="㇐" d="M41.93,79.97c0.44,0.13,1.24,0.15,1.67,0.13c3.35-0.18,15.19-1.32,20.12-1.25c0.73,0.01,1.16,0.06,1.53,0.13"/>
			<path style="stroke: #0969bf;" id="kvg:07fb8-s12" kvg:type="㇑" d="M53.29,60.21c0.49,0.28,0.78,1.27,0.88,1.83c0.1,0.57,0,33.18-0.1,36.71"/>
		</g>
		<g id="kvg:07fb8-g9" kvg:element="月">
			<path style="stroke: #092fbf;" id="kvg:07fb8-s13" kvg:type="㇒" d="M18.64,53c0.57,0.56,0.96,1.91,1.15,2.46c0.19,0.55,0.22,12.04,0.06,18.95C19.7,80.25,17.5,90,11.5,96"/>
			<path style="stroke: #1c09bf;" id="kvg:07fb8-s14" kvg:type="㇆a" d="M20.28,54.87c1.83-0.03,12.6-2.37,13.96-2.45c2.44-0.13,2.55,1.27,2.55,2.07c0,1.9-0.04,26.86-0.04,37.63c0,7.41-5.15,2.09-6.71,1.2"/>
			<path style="stroke: #5609bf;" id="kvg:07fb8-s15" kvg:type="㇐a" d="M21,65.66c3.78-0.12,11.68-1.51,15-1.52"/>
			<path style="stroke: #8f09bf;" id="kvg:07fb8-s16" kvg:type="㇐a" d="M20.52,76.47c3.28-0.02,10.91-1.19,15.37-1.29"/>
		</g>
		<g id="kvg:07fb8-g10" kvg:element="凡" kvg:variant="true">
			<g id="kvg:07fb8-g11" kvg:element="几">
				<g id="kvg:07fb8-g12" kvg:element="丿" kvg:variant="true">
					<path style="stroke: #bf09b5;" id="kvg:07fb8-s17" kvg:type="㇐/㇒" d="M71.12,51.64c0.39,1.22,0.96,2.18,0.96,3.71c0,13.95,0.54,32.84-12.08,41.9"/>
				</g>
				<path style="stroke: #bf097c;" id="kvg:07fb8-s18" kvg:type="㇈" d="M72.01,53.87c1.66-0.48,10.16-2.71,11.49-3.19c1.33-0.48,2.76,0.48,2.43,2.87s-0.57,31.24-0.6,32.99c-0.11,5.74,0.05,9.72,5.13,9.72c7.84,0,6.63-1.91,6.63-6.85"/>
			</g>
			<g id="kvg:07fb8-g13" kvg:element="丶">
				<path style="stroke: #bf0942;" id="kvg:07fb8-s19" kvg:type="㇔" d="M66.5,71.75c1.17,0,1.7,0.09,2.08,0.05c3.38-0.31,7.27-1.03,11.25-1.25c0.58-0.03,0.7-0.05,1.67-0.05"/>
			</g>
		</g>
	</g>
</g>
</g>
<g id="kvg:StrokeNumbers_07fb8" style="font-size:8;fill:#808080" transform="scale(3.0,3.0)">
	<text style="fill: #bf0909;" transform="matrix(1 0 0 1 44.25 11.25)">1</text>
	<text style="fill: #bf4209;" transform="matrix(1 0 0 1 9.25 20.30)">2</text>
	<text style="fill: #bf7c09;" transform="matrix(1 0 0 1 21.25 31.25)">3</text>
	<text style="fill: #bfb509;" transform="matrix(1 0 0 1 25.25 40.15)">4</text>
	<text style="fill: #8fbf09;" transform="matrix(1 0 0 1 34.25 35.58)">5</text>
	<text style="fill: #56bf09;" transform="matrix(1 0 0 1 36.87 43.36)">6</text>
	<text style="fill: #1cbf09;" transform="matrix(1 0 0 1 39.00 51.63)">7</text>
	<text style="fill: #09bf2f;" transform="matrix(1 0 0 1 52.25 51.25)">8</text>
	<text style="fill: #09bf69;" transform="matrix(1 0 0 1 40.25 57.25)">9</text>
	<text style="fill: #09bfa2;" transform="matrix(1 0 0 1 40.25 67.25)">10</text>
	<text style="fill: #09a2bf;" transform="matrix(1 0 0 1 40.25 77.25)">11</text>
	<text style="fill: #0969bf;" transform="matrix(1 0 0 1 56.25 66.25)">12</text>
	<text style="fill: #092fbf;" transform="matrix(1 0 0 1 8.50 59.93)">13</text>
	<text style="fill: #1c09bf;" transform="matrix(1 0 0 1 21.25 50.25)">14</text>
	<text style="fill: #5609bf;" transform="matrix(1 0 0 1 21.14 63.39)">15</text>
	<text style="fill: #8f09bf;" transform="matrix(1 0 0 1 21.09 74.38)">16</text>
	<text style="fill: #bf09b5;" transform="matrix(1 0 0 1 60.55 56.82)">17</text>
	<text style="fill: #bf097c;" transform="matrix(1 0 0 1 72.00 50.25)">18</text>
	<text style="fill: #bf0942;" transform="matrix(1 0 0 1 56.31 76.11)">19</text>
</g>
</svg>
