<?xml version="1.0" encoding="UTF-8"?>
<!--
This file has been modified from the original version by the kanji_colorize.py
script (available at http://github.com/cayennes/kanji-colorize) with these
settings:
    mode: spectrum
    saturation: 0.95
    value: 0.75
    image_size: 327
It remains under a Creative Commons-Attribution-Share Alike 3.0 License.

The original SVG has the following copyright:

Copyright (C) 2009/2010/2011 Ulrich Apel.
This work is distributed under the conditions of the Creative Commons
Attribution-Share Alike 3.0 Licence. This means you are free:
* to Share - to copy, distribute and transmit the work
* to Remix - to adapt the work

Under the following conditions:
* Attribution. You must attribute the work by stating your use of KanjiVG in
  your own copyright header and linking to KanjiVG's website
  (http://kanjivg.tagaini.net)
* Share Alike. If you alter, transform, or build upon this work, you may
  distribute the resulting work only under the same or similar license to this
  one.

See http://creativecommons.org/licenses/by-sa/3.0/ for more details.
-->
<!DOCTYPE svg PUBLIC "-//W3C//DTD SVG 1.0//EN" "http://www.w3.org/TR/2001/REC-SVG-20010904/DTD/svg10.dtd" [
<!ATTLIST g
xmlns:kvg CDATA #FIXED "http://kanjivg.tagaini.net"
kvg:element CDATA #IMPLIED
kvg:variant CDATA #IMPLIED
kvg:partial CDATA #IMPLIED
kvg:original CDATA #IMPLIED
kvg:part CDATA #IMPLIED
kvg:number CDATA #IMPLIED
kvg:tradForm CDATA #IMPLIED
kvg:radicalForm CDATA #IMPLIED
kvg:position CDATA #IMPLIED
kvg:radical CDATA #IMPLIED
kvg:phon CDATA #IMPLIED >
<!ATTLIST path
xmlns:kvg CDATA #FIXED "http://kanjivg.tagaini.net"
kvg:type CDATA #IMPLIED >
]>
<svg xmlns="http://www.w3.org/2000/svg" width="327" height = "327" viewBox="0 0 327 327">
<g id="kvg:StrokePaths_07fe9" style="fill:none;stroke:#000000;stroke-width:3;stroke-linecap:round;stroke-linejoin:round;" transform="scale(3.0,3.0)">
<g id="kvg:07fe9" kvg:element="翩">
	<g id="kvg:07fe9-g1" kvg:element="扁" kvg:position="left">
		<g id="kvg:07fe9-g2" kvg:element="戸" kvg:position="tare">
			<path style="stroke: #bf0909;" id="kvg:07fe9-s1" kvg:type="㇐" d="M15.25,17.94c0.81,0.23,2.8,0.76,3.62,0.73c8.46-0.26,19.72-2.87,27.16-3.13c1.36-0.05,2.17,0.11,2.85,0.22"/>
			<path style="stroke: #bf5209;" id="kvg:07fe9-s2" kvg:type="㇕c" d="M18.79,31.71C27,31,40.8,29.15,46.76,28.5c1.11-0.12,2.8,0.28,2.18,2.6c-0.92,3.47-1.63,5.77-2.6,9.9"/>
			<path style="stroke: #bf9a09;" id="kvg:07fe9-s3" kvg:type="㇐b" d="M18.25,44.49c4.2,0,23.11-2.53,30.5-2.99"/>
			<path style="stroke: #9abf09;" id="kvg:07fe9-s4" kvg:type="㇒" d="M16.77,29.18c0.98,0.57,1.25,1.07,1.26,3.07C18.11,57.4,16.22,78.48,10,88"/>
		</g>
		<g id="kvg:07fe9-g3" kvg:element="冊">
			<g id="kvg:07fe9-g4" kvg:element="冂">
				<path style="stroke: #52bf09;" id="kvg:07fe9-s5" kvg:type="㇑" d="M20.63,55.96c0.28,0.64,0.46,1.66,0.37,2.81c-0.09,1.15,0.41,34.05,0.41,35.97"/>
				<path style="stroke: #09bf09;" id="kvg:07fe9-s6" kvg:type="㇆a" d="M21.93,56.24c3.33-0.51,22.52-2.88,23.18-3.06c1.4-0.38,2.54,1.35,2.54,2.03c0,6.78,0.01,31.95,0.01,34.83c0,6.7-3.81,0.93-4.86-0.73"/>
			</g>
			<g id="kvg:07fe9-g5" kvg:element="廾" kvg:variant="true">
				<g id="kvg:07fe9-g6" kvg:element="十" kvg:part="1" kvg:variant="true">
					<path style="stroke: #09bf52;" id="kvg:07fe9-s7" kvg:type="㇐" d="M21.47,71.31c3.87-0.4,17.23-2.26,25.69-2.52"/>
				</g>
				<g id="kvg:07fe9-g7" kvg:element="丿" kvg:variant="true" kvg:radical="nelson">
					<path style="stroke: #09bf9a;" id="kvg:07fe9-s8" kvg:type="㇑" d="M29.05,57.75c0.52,0.29,0.83,1.33,0.94,1.92c0.1,0.59,0,29.14-0.1,32.83"/>
				</g>
				<g id="kvg:07fe9-g8" kvg:element="十" kvg:part="2" kvg:variant="true">
					<path style="stroke: #099abf;" id="kvg:07fe9-s9" kvg:type="㇑" d="M37.02,55.82c0.52,0.3,0.83,1.36,0.94,1.97c0.1,0.61,0,30.18-0.1,33.96"/>
				</g>
			</g>
		</g>
	</g>
	<g id="kvg:07fe9-g9" kvg:element="羽" kvg:position="right" kvg:radical="tradit">
		<g id="kvg:07fe9-g10" kvg:position="left">
			<path style="stroke: #0952bf;" id="kvg:07fe9-s10" kvg:type="㇆" d="M50,22.65c1.86,0.95,2.18,0.95,4.91,0.63c5.54-0.64,11.97-2.88,13.66-3.02c1.91-0.16,3.02,1.26,3.08,3.82c0.07,2.83-0.71,56.21-0.71,65.22c0,9.52-6.52,0.24-7.48-0.32"/>
			<path style="stroke: #0909bf;" id="kvg:07fe9-s11" kvg:type="㇒" d="M64.48,24.66c0.04,0.45,0.2,1.2-0.07,1.81c-1.67,3.78-4.92,11.28-11.92,17.28"/>
			<path style="stroke: #5209bf;" id="kvg:07fe9-s12" kvg:type="㇒" d="M68.5,43.75c0.04,0.57,0.09,1.48-0.08,2.31c-1.02,4.86-6.88,15.53-14.88,22.07"/>
		</g>
		<g id="kvg:07fe9-g11" kvg:position="right">
			<path style="stroke: #9a09bf;" id="kvg:07fe9-s13" kvg:type="㇆" d="M76.76,20.29c1.69,0.95,1.4,0.95,3.88,0.63c5.05-0.64,9.15-2.1,10.69-2.2c3.47-0.22,3.32,1.12,3.32,3.76c0,4.21-0.37,56.7-0.37,65.71c0,9.57-7.45,1.71-8.31,1.15"/>
			<path style="stroke: #bf099a;" id="kvg:07fe9-s14" kvg:type="㇒" d="M87.51,22.63c0.03,0.44,0.16,1.16-0.06,1.76c-1.45,3.86-4.7,9.86-10.66,16.82"/>
			<path style="stroke: #bf0952;" id="kvg:07fe9-s15" kvg:type="㇒" d="M91.02,39.5c0.04,0.66,0.08,1.7-0.07,2.65c-0.92,5.58-6.18,17.83-13.39,25.32"/>
		</g>
	</g>
</g>
</g>
<g id="kvg:StrokeNumbers_07fe9" style="font-size:8;fill:#808080" transform="scale(3.0,3.0)">
	<text style="fill: #bf0909;" transform="matrix(1 0 0 1 9.25 18.25)">1</text>
	<text style="fill: #bf5209;" transform="matrix(1 0 0 1 20.25 28.25)">2</text>
	<text style="fill: #bf9a09;" transform="matrix(1 0 0 1 23.25 41.25)">3</text>
	<text style="fill: #9abf09;" transform="matrix(1 0 0 1 9.75 38.25)">4</text>
	<text style="fill: #52bf09;" transform="matrix(1 0 0 1 15.50 83.05)">5</text>
	<text style="fill: #09bf09;" transform="matrix(1 0 0 1 23.25 53.25)">6</text>
	<text style="fill: #09bf52;" transform="matrix(1 0 0 1 24.00 67.15)">7</text>
	<text style="fill: #09bf9a;" transform="matrix(1 0 0 1 31.25 61.82)">8</text>
	<text style="fill: #099abf;" transform="matrix(1 0 0 1 40.25 61.25)">9</text>
	<text style="fill: #0952bf;" transform="matrix(1 0 0 1 51.75 20.25)">10</text>
	<text style="fill: #0909bf;" transform="matrix(1 0 0 1 54.25 31.25)">11</text>
	<text style="fill: #5209bf;" transform="matrix(1 0 0 1 58.25 47.25)">12</text>
	<text style="fill: #9a09bf;" transform="matrix(1 0 0 1 73.75 17.70)">13</text>
	<text style="fill: #bf099a;" transform="matrix(1 0 0 1 76.25 29.25)">14</text>
	<text style="fill: #bf0952;" transform="matrix(1 0 0 1 81.25 45.25)">15</text>
</g>
</svg>
