<?xml version="1.0" encoding="UTF-8"?>
<!--
This file has been modified from the original version by the kanji_colorize.py
script (available at http://github.com/cayennes/kanji-colorize) with these
settings:
    mode: spectrum
    saturation: 0.95
    value: 0.75
    image_size: 327
It remains under a Creative Commons-Attribution-Share Alike 3.0 License.

The original SVG has the following copyright:

Copyright (C) 2009/2010/2011 Ulrich Apel.
This work is distributed under the conditions of the Creative Commons
Attribution-Share Alike 3.0 Licence. This means you are free:
* to Share - to copy, distribute and transmit the work
* to Remix - to adapt the work

Under the following conditions:
* Attribution. You must attribute the work by stating your use of KanjiVG in
  your own copyright header and linking to KanjiVG's website
  (http://kanjivg.tagaini.net)
* Share Alike. If you alter, transform, or build upon this work, you may
  distribute the resulting work only under the same or similar license to this
  one.

See http://creativecommons.org/licenses/by-sa/3.0/ for more details.
-->
<!DOCTYPE svg PUBLIC "-//W3C//DTD SVG 1.0//EN" "http://www.w3.org/TR/2001/REC-SVG-20010904/DTD/svg10.dtd" [
<!ATTLIST g
xmlns:kvg CDATA #FIXED "http://kanjivg.tagaini.net"
kvg:element CDATA #IMPLIED
kvg:variant CDATA #IMPLIED
kvg:partial CDATA #IMPLIED
kvg:original CDATA #IMPLIED
kvg:part CDATA #IMPLIED
kvg:number CDATA #IMPLIED
kvg:tradForm CDATA #IMPLIED
kvg:radicalForm CDATA #IMPLIED
kvg:position CDATA #IMPLIED
kvg:radical CDATA #IMPLIED
kvg:phon CDATA #IMPLIED >
<!ATTLIST path
xmlns:kvg CDATA #FIXED "http://kanjivg.tagaini.net"
kvg:type CDATA #IMPLIED >
]>
<svg xmlns="http://www.w3.org/2000/svg" width="327" height = "327" viewBox="0 0 327 327">
<g id="kvg:StrokePaths_08018" style="fill:none;stroke:#000000;stroke-width:3;stroke-linecap:round;stroke-linejoin:round;" transform="scale(3.0,3.0)">
<g id="kvg:08018" kvg:element="耘">
	<g id="kvg:08018-g1" kvg:element="耒" kvg:position="left" kvg:radical="general">
		<g id="kvg:08018-g2" kvg:element="丿">
			<path style="stroke: #bf0909;" id="kvg:08018-s1" kvg:type="㇒" d="M42.48,21.41c0.07,0.32,0.33,0.97-0.15,1.27c-8.07,5.09-16.3,9.42-26.58,12.08"/>
		</g>
		<g id="kvg:08018-g3" kvg:element="未">
			<path style="stroke: #bf7609;" id="kvg:08018-s2" kvg:type="㇐" d="M12.97,42.61c0.51,0.34,3.94,0.94,4.46,0.91c5.31-0.39,16.08-1.58,24.5-2.95c0.84-0.14,2.36,0.16,2.79,0.33"/>
			<g id="kvg:08018-g4" kvg:element="木">
				<path style="stroke: #9abf09;" id="kvg:08018-s3" kvg:type="㇐" d="M9.84,55.8c0.42,0.31,3.11,0.93,4.23,0.93c5.85,0.01,19.16-2.11,28.69-3.35c1.11-0.15,2.11,0.31,2.81,0.62"/>
				<path style="stroke: #2dbf09;" id="kvg:08018-s4" kvg:type="㇑" d="M30.01,15c0.65,0.45,1.17,3.35,1.17,4.3c0,3.62,0.22,70.55,0.09,76.2"/>
				<path style="stroke: #09bf52;" id="kvg:08018-s5" kvg:type="㇒" d="M30.53,55.36c-3.67,9.95-13.16,25.03-20.79,30.66"/>
				<path style="stroke: #09bfbf;" id="kvg:08018-s6" kvg:type="㇔/㇏" d="M34.25,60.98c4.93,2.65,8.54,6.74,11.5,11.32"/>
			</g>
		</g>
	</g>
	<g id="kvg:08018-g5" kvg:element="云" kvg:position="right">
		<g id="kvg:08018-g6" kvg:element="二" kvg:position="top">
			<path style="stroke: #0952bf;" id="kvg:08018-s7" kvg:type="㇐" d="M56.49,27.37c1.67,0.32,4.14,0.26,4.61,0.27c5.66,0.11,17.21-1.46,22.71-2.07c0.76-0.09,3.57-0.37,3.95-0.24"/>
			<path style="stroke: #2d09bf;" id="kvg:08018-s8" kvg:type="㇐" d="M50.5,48.54c0.84,0.29,3.95,0.33,4.79,0.29c7.46-0.33,27.13-3.14,37.47-2.94c1.4,0.03,3.29,0.14,3.99,0.28"/>
		</g>
		<g id="kvg:08018-g7" kvg:element="厶" kvg:position="bottom">
			<path style="stroke: #9a09bf;" id="kvg:08018-s9" kvg:type="㇜" d="M69.54,50.5c0.3,1.26,0.38,2.91-0.24,4.43c-4.66,11.29-11.23,22.56-18.06,33.05c-1.86,2.85-0.82,4.18,2.1,3.6c6.13-1.21,20.58-5,34.41-8.08"/>
			<path style="stroke: #bf0976;" id="kvg:08018-s10" kvg:type="㇔" d="M78.13,70.33c5.53,4.59,13.53,18.75,14.91,25.89"/>
		</g>
	</g>
</g>
</g>
<g id="kvg:StrokeNumbers_08018" style="font-size:8;fill:#808080" transform="scale(3.0,3.0)">
	<text style="fill: #bf0909;" transform="matrix(1 0 0 1 38.25 17.25)">1</text>
	<text style="fill: #bf7609;" transform="matrix(1 0 0 1 6.25 45.25)">2</text>
	<text style="fill: #9abf09;" transform="matrix(1 0 0 1 3.25 57.25)">3</text>
	<text style="fill: #2dbf09;" transform="matrix(1 0 0 1 19.19 15.25)">4</text>
	<text style="fill: #09bf52;" transform="matrix(1 0 0 1 18.25 67.25)">5</text>
	<text style="fill: #09bfbf;" transform="matrix(1 0 0 1 41.25 63.51)">6</text>
	<text style="fill: #0952bf;" transform="matrix(1 0 0 1 54.25 23.25)">7</text>
	<text style="fill: #2d09bf;" transform="matrix(1 0 0 1 49.25 45.25)">8</text>
	<text style="fill: #9a09bf;" transform="matrix(1 0 0 1 60.25 59.25)">9</text>
	<text style="fill: #bf0976;" transform="matrix(1 0 0 1 75.25 67.25)">10</text>
</g>
</svg>
