<?xml version="1.0" encoding="UTF-8"?>
<!--
This file has been modified from the original version by the kanji_colorize.py
script (available at http://github.com/cayennes/kanji-colorize) with these
settings:
    mode: spectrum
    saturation: 0.95
    value: 0.75
    image_size: 327
It remains under a Creative Commons-Attribution-Share Alike 3.0 License.

The original SVG has the following copyright:

Copyright (C) 2009/2010/2011 Ulrich Apel.
This work is distributed under the conditions of the Creative Commons
Attribution-Share Alike 3.0 Licence. This means you are free:
* to Share - to copy, distribute and transmit the work
* to Remix - to adapt the work

Under the following conditions:
* Attribution. You must attribute the work by stating your use of KanjiVG in
  your own copyright header and linking to KanjiVG's website
  (http://kanjivg.tagaini.net)
* Share Alike. If you alter, transform, or build upon this work, you may
  distribute the resulting work only under the same or similar license to this
  one.

See http://creativecommons.org/licenses/by-sa/3.0/ for more details.
-->
<!DOCTYPE svg PUBLIC "-//W3C//DTD SVG 1.0//EN" "http://www.w3.org/TR/2001/REC-SVG-20010904/DTD/svg10.dtd" [
<!ATTLIST g
xmlns:kvg CDATA #FIXED "http://kanjivg.tagaini.net"
kvg:element CDATA #IMPLIED
kvg:variant CDATA #IMPLIED
kvg:partial CDATA #IMPLIED
kvg:original CDATA #IMPLIED
kvg:part CDATA #IMPLIED
kvg:number CDATA #IMPLIED
kvg:tradForm CDATA #IMPLIED
kvg:radicalForm CDATA #IMPLIED
kvg:position CDATA #IMPLIED
kvg:radical CDATA #IMPLIED
kvg:phon CDATA #IMPLIED >
<!ATTLIST path
xmlns:kvg CDATA #FIXED "http://kanjivg.tagaini.net"
kvg:type CDATA #IMPLIED >
]>
<svg xmlns="http://www.w3.org/2000/svg" width="327" height = "327" viewBox="0 0 327 327">
<g id="kvg:StrokePaths_08021" style="fill:none;stroke:#000000;stroke-width:3;stroke-linecap:round;stroke-linejoin:round;" transform="scale(3.0,3.0)">
<g id="kvg:08021" kvg:element="耡">
	<g id="kvg:08021-g1" kvg:element="耒" kvg:position="left" kvg:radical="general">
		<g id="kvg:08021-g2" kvg:element="丿">
			<path style="stroke: #bf0909;" id="kvg:08021-s1" kvg:type="㇒" d="M36.99,19.91c0.07,0.32,0.3,0.97-0.13,1.29C30,26.25,21,30.75,12.5,33"/>
		</g>
		<g id="kvg:08021-g3" kvg:element="未">
			<path style="stroke: #bf5d09;" id="kvg:08021-s2" kvg:type="㇐" d="M10.68,41.42c0.44,0.26,3.4,0.73,3.84,0.7c4.58-0.3,14.78-1.5,22.04-2.57c0.73-0.11,2.03,0.13,2.4,0.26"/>
			<g id="kvg:08021-g4" kvg:element="木">
				<path style="stroke: #bfb109;" id="kvg:08021-s3" kvg:type="㇐" d="M9.84,54.47c0.36,0.25,2.65,0.74,3.61,0.75c4.99,0.01,16.35-2.09,24.48-3.08c0.95-0.12,1.8,0.25,2.4,0.5"/>
				<path style="stroke: #79bf09;" id="kvg:08021-s4" kvg:type="㇑" d="M25.2,10.75c0.71,0.47,1.27,3.47,1.27,4.44c0,3.74,0.24,76.96,0.1,82.81"/>
				<path style="stroke: #25bf09;" id="kvg:08021-s5" kvg:type="㇒" d="M26.53,55.86C23.7,64.83,16.38,78.42,10.5,83.5"/>
				<path style="stroke: #09bf41;" id="kvg:08021-s6" kvg:type="㇔/㇏" d="M29,61.5c4.71,3.22,8.17,8.19,11,13.75"/>
			</g>
		</g>
	</g>
	<g id="kvg:08021-g5" kvg:element="助" kvg:position="right">
		<g id="kvg:08021-g6" kvg:element="且" kvg:variant="true" kvg:position="left">
			<g id="kvg:08021-g7" kvg:element="月" kvg:variant="true">
				<path style="stroke: #09bf95;" id="kvg:08021-s7" kvg:type="㇑a" d="M46.81,23.05c0.29,0.96,0.49,1.91,0.59,2.84c0.1,0.94,0.22,57.66,0.18,59.73"/>
				<path style="stroke: #0995bf;" id="kvg:08021-s8" kvg:type="㇕b" d="M47.48,24.61c1.17-0.1,11.85-2.27,12.72-2.43c1.55-0.28,2.64,1.75,2.45,3.12c-0.18,1.31-0.09,32.25-0.15,50.97"/>
				<path style="stroke: #0941bf;" id="kvg:08021-s9" kvg:type="㇐a" d="M48.02,44.25C52,43.5,56.86,43.07,62,42.15"/>
				<path style="stroke: #2509bf;" id="kvg:08021-s10" kvg:type="㇐a" d="M48,61.39c4.28-0.9,8.78-1.63,13.84-2.23"/>
			</g>
			<g id="kvg:08021-g8" kvg:element="一">
				<path style="stroke: #7909bf;" id="kvg:08021-s11" kvg:type="㇀/㇐" d="M39,87.93c1.25,0.82,2.64,1.41,4.98,0.28c1.66-0.8,17.8-8.31,24.77-12.71"/>
			</g>
		</g>
		<g id="kvg:08021-g9" kvg:element="力" kvg:position="right">
			<path style="stroke: #bf09b1;" id="kvg:08021-s12" kvg:type="㇆" d="M67.5,38.25c0.79,0.74,4.26,0.62,5,0.5c7.5-1.25,17.67-3.17,20.87-3.93c2.08-0.49,4.13,0.71,3.98,4.16c-0.6,14.26-6.03,43.93-8.94,50.32c-3.16,6.94-5.16,5.19-7.5,1.76"/>
			<path style="stroke: #bf095d;" id="kvg:08021-s13" kvg:type="㇒" d="M83.95,14.5c0.39,0.64,0.42,4.49,0.46,7.04C84.73,41.92,76.74,79.2,61.25,95"/>
		</g>
	</g>
</g>
</g>
<g id="kvg:StrokeNumbers_08021" style="font-size:8;fill:#808080" transform="scale(3.0,3.0)">
	<text style="fill: #bf0909;" transform="matrix(1 0 0 1 33.25 16.25)">1</text>
	<text style="fill: #bf5d09;" transform="matrix(1 0 0 1 4.25 42.25)">2</text>
	<text style="fill: #bfb109;" transform="matrix(1 0 0 1 2.25 55.25)">3</text>
	<text style="fill: #79bf09;" transform="matrix(1 0 0 1 15.25 10.25)">4</text>
	<text style="fill: #25bf09;" transform="matrix(1 0 0 1 16.25 64.25)">5</text>
	<text style="fill: #09bf41;" transform="matrix(1 0 0 1 33.25 62.25)">6</text>
	<text style="fill: #09bf95;" transform="matrix(1 0 0 1 40.25 32.25)">7</text>
	<text style="fill: #0995bf;" transform="matrix(1 0 0 1 49.50 21.25)">8</text>
	<text style="fill: #0941bf;" transform="matrix(1 0 0 1 51.25 40.25)">9</text>
	<text style="fill: #2509bf;" transform="matrix(1 0 0 1 49.50 57.25)">10</text>
	<text style="fill: #7909bf;" transform="matrix(1 0 0 1 32.25 83.25)">11</text>
	<text style="fill: #bf09b1;" transform="matrix(1 0 0 1 65.25 35.25)">12</text>
	<text style="fill: #bf095d;" transform="matrix(1 0 0 1 71.25 14.25)">13</text>
</g>
</svg>
