<?xml version="1.0" encoding="UTF-8"?>
<!--
This file has been modified from the original version by the kanji_colorize.py
script (available at http://github.com/cayennes/kanji-colorize) with these
settings:
    mode: spectrum
    saturation: 0.95
    value: 0.75
    image_size: 327
It remains under a Creative Commons-Attribution-Share Alike 3.0 License.

The original SVG has the following copyright:

Copyright (C) 2009/2010/2011 Ulrich Apel.
This work is distributed under the conditions of the Creative Commons
Attribution-Share Alike 3.0 Licence. This means you are free:
* to Share - to copy, distribute and transmit the work
* to Remix - to adapt the work

Under the following conditions:
* Attribution. You must attribute the work by stating your use of KanjiVG in
  your own copyright header and linking to KanjiVG's website
  (http://kanjivg.tagaini.net)
* Share Alike. If you alter, transform, or build upon this work, you may
  distribute the resulting work only under the same or similar license to this
  one.

See http://creativecommons.org/licenses/by-sa/3.0/ for more details.
-->
<!DOCTYPE svg PUBLIC "-//W3C//DTD SVG 1.0//EN" "http://www.w3.org/TR/2001/REC-SVG-20010904/DTD/svg10.dtd" [
<!ATTLIST g
xmlns:kvg CDATA #FIXED "http://kanjivg.tagaini.net"
kvg:element CDATA #IMPLIED
kvg:variant CDATA #IMPLIED
kvg:partial CDATA #IMPLIED
kvg:original CDATA #IMPLIED
kvg:part CDATA #IMPLIED
kvg:number CDATA #IMPLIED
kvg:tradForm CDATA #IMPLIED
kvg:radicalForm CDATA #IMPLIED
kvg:position CDATA #IMPLIED
kvg:radical CDATA #IMPLIED
kvg:phon CDATA #IMPLIED >
<!ATTLIST path
xmlns:kvg CDATA #FIXED "http://kanjivg.tagaini.net"
kvg:type CDATA #IMPLIED >
]>
<svg xmlns="http://www.w3.org/2000/svg" width="327" height = "327" viewBox="0 0 327 327">
<g id="kvg:StrokePaths_08033" style="fill:none;stroke:#000000;stroke-width:3;stroke-linecap:round;stroke-linejoin:round;" transform="scale(3.0,3.0)">
<g id="kvg:08033" kvg:element="耳" kvg:radical="general">
	<path style="stroke: #bf0909;" id="kvg:08033-s1" kvg:type="㇐" d="M20.25,20c3.03,0.85,6.17,0.58,9.24,0.21c14.62-1.76,31.45-3.95,48.12-5.06c3.33-0.22,6.59-0.2,9.89,0.35"/>
	<path style="stroke: #bfbf09;" id="kvg:08033-s2" kvg:type="㇑a" d="M36.68,22.5c1.1,1.1,1.64,2.71,1.64,4.73c0,1.6-0.33,40.02-0.33,41.52"/>
	<path style="stroke: #09bf09;" id="kvg:08033-s3" kvg:type="㇐a" d="M39.5,35.5c6.75-0.88,24-2.75,32.25-3.25"/>
	<path style="stroke: #09bfbf;" id="kvg:08033-s4" kvg:type="㇐a" d="M39.25,51.25c7-0.5,24.62-2.75,32.25-3"/>
	<path style="stroke: #0909bf;" id="kvg:08033-s5" kvg:type="㇀" d="M17.25,71c0.75,1.12,2.01,1.81,3.75,1.5c7-1.25,48-8.75,58.75-10.75"/>
	<path style="stroke: #bf09bf;" id="kvg:08033-s6" kvg:type="㇑" d="M71,18.5c1,1,1.75,2.5,1.75,4.25c0,1.05,0.18,44.73,0.23,64.75c0.01,3.74,0.02,6.64,0.02,8.25"/>
</g>
</g>
<g id="kvg:StrokeNumbers_08033" style="font-size:8;fill:#808080" transform="scale(3.0,3.0)">
	<text style="fill: #bf0909;" transform="matrix(1 0 0 1 12.50 21.50)">1</text>
	<text style="fill: #bfbf09;" transform="matrix(1 0 0 1 29.50 30.50)">2</text>
	<text style="fill: #09bf09;" transform="matrix(1 0 0 1 43.50 31.50)">3</text>
	<text style="fill: #09bfbf;" transform="matrix(1 0 0 1 43.50 48.00)">4</text>
	<text style="fill: #0909bf;" transform="matrix(1 0 0 1 8.50 76.50)">5</text>
	<text style="fill: #bf09bf;" transform="matrix(1 0 0 1 64.50 25.50)">6</text>
</g>
</svg>
