<?xml version="1.0" encoding="UTF-8"?>
<!--
This file has been modified from the original version by the kanji_colorize.py
script (available at http://github.com/cayennes/kanji-colorize) with these
settings:
    mode: spectrum
    saturation: 0.95
    value: 0.75
    image_size: 327
It remains under a Creative Commons-Attribution-Share Alike 3.0 License.

The original SVG has the following copyright:

Copyright (C) 2009/2010/2011 Ulrich Apel.
This work is distributed under the conditions of the Creative Commons
Attribution-Share Alike 3.0 Licence. This means you are free:
* to Share - to copy, distribute and transmit the work
* to Remix - to adapt the work

Under the following conditions:
* Attribution. You must attribute the work by stating your use of KanjiVG in
  your own copyright header and linking to KanjiVG's website
  (http://kanjivg.tagaini.net)
* Share Alike. If you alter, transform, or build upon this work, you may
  distribute the resulting work only under the same or similar license to this
  one.

See http://creativecommons.org/licenses/by-sa/3.0/ for more details.
-->
<!DOCTYPE svg PUBLIC "-//W3C//DTD SVG 1.0//EN" "http://www.w3.org/TR/2001/REC-SVG-20010904/DTD/svg10.dtd" [
<!ATTLIST g
xmlns:kvg CDATA #FIXED "http://kanjivg.tagaini.net"
kvg:element CDATA #IMPLIED
kvg:variant CDATA #IMPLIED
kvg:partial CDATA #IMPLIED
kvg:original CDATA #IMPLIED
kvg:part CDATA #IMPLIED
kvg:number CDATA #IMPLIED
kvg:tradForm CDATA #IMPLIED
kvg:radicalForm CDATA #IMPLIED
kvg:position CDATA #IMPLIED
kvg:radical CDATA #IMPLIED
kvg:phon CDATA #IMPLIED >
<!ATTLIST path
xmlns:kvg CDATA #FIXED "http://kanjivg.tagaini.net"
kvg:type CDATA #IMPLIED >
]>
<svg xmlns="http://www.w3.org/2000/svg" width="327" height = "327" viewBox="0 0 327 327">
<g id="kvg:StrokePaths_08074" style="fill:none;stroke:#000000;stroke-width:3;stroke-linecap:round;stroke-linejoin:round;" transform="scale(3.0,3.0)">
<g id="kvg:08074" kvg:element="聴">
	<g id="kvg:08074-g1" kvg:element="耳" kvg:position="left" kvg:radical="general">
		<path style="stroke: #bf0909;" id="kvg:08074-s1" kvg:type="㇐" d="M11.44,22.12c2.44,0.47,4.86,0.46,6.85,0.17c7.71-1.16,15.34-2.78,24.09-3.94c2.1-0.28,4.56-0.21,6.62,0.2"/>
		<path style="stroke: #bf4909;" id="kvg:08074-s2" kvg:type="㇑a" d="M20.96,24.72c0.85,0.85,0.95,1.94,0.95,3.25c0,1.3-0.03,42.85-0.03,47.54"/>
		<path style="stroke: #bf8909;" id="kvg:08074-s3" kvg:type="㇐a" d="M22.93,39.24c8.6-1.63,9.53-1.87,17.13-2.66"/>
		<path style="stroke: #b4bf09;" id="kvg:08074-s4" kvg:type="㇐a" d="M22.64,54.71c7.02-1.13,8.42-1.6,16.98-2.4"/>
		<path style="stroke: #74bf09;" id="kvg:08074-s5" kvg:type="㇀" d="M14.11,78.82c0.85,0.85,2.01,0.93,3.41,0.25c3.14-1.53,17.91-9.31,22.63-11.97"/>
		<path style="stroke: #34bf09;" id="kvg:08074-s6" kvg:type="㇑" d="M39.72,21.8c0.86,0.86,1.03,2.13,1.03,3.43c0,1.08-0.15,42.54-0.12,63.27c0.01,4.31,0.01,7.66,0.01,9.5"/>
	</g>
	<g id="kvg:08074-g2" kvg:position="right" kvg:phon="悳V">
		<g id="kvg:08074-g3" kvg:element="十">
			<path style="stroke: #09bf1e;" id="kvg:08074-s7" kvg:type="㇐" d="M51.93,26.94c0.82,0.34,2.32,0.41,3.13,0.34c8.94-0.78,25.01-3.73,32.17-3.86c1.36-0.02,2.18,0.16,2.86,0.33"/>
			<path style="stroke: #09bf5f;" id="kvg:08074-s8" kvg:type="㇑a" d="M70.61,11.88c0.88,0.88,1.01,1.99,0.85,3.3c-0.09,0.75-1.97,16.56-3.13,22.2"/>
		</g>
		<g id="kvg:08074-g4" kvg:element="罒" kvg:variant="true" kvg:original="网">
			<path style="stroke: #09bf9f;" id="kvg:08074-s9" kvg:type="㇑" d="M50.55,39.17c1.01,1.02,1.57,1.83,1.87,3.62c0.81,4.91,1.17,8.44,2.17,13.9c0.22,1.22,0.48,2.56,0.77,4.07"/>
			<path style="stroke: #099fbf;" id="kvg:08074-s10" kvg:type="㇕a" d="M53,40.85c5.53-1.07,25.04-3.69,33.13-4.76c4.12-0.55,5.85,0.89,5.02,5.06c-0.8,4.06-1.27,7.58-2.47,11.66c-0.37,1.26-0.79,3.05-1.27,4.39"/>
			<path style="stroke: #095fbf;" id="kvg:08074-s11" kvg:type="㇑a" d="M63.44,40.35c0.86,0.86,1.19,1.78,1.33,3.09c0.56,5.42,1.36,10.45,1.46,12.42"/>
			<path style="stroke: #091ebf;" id="kvg:08074-s12" kvg:type="㇑a" d="M77.65,38.6c0.48,0.9,0.65,1.73,0.44,3.17c-0.58,3.98-0.83,8.6-1.35,12.79"/>
			<path style="stroke: #3409bf;" id="kvg:08074-s13" kvg:type="㇐a" d="M56.26,58.54C59,58.01,82.22,55,86.95,54.87"/>
		</g>
		<g id="kvg:08074-g5" kvg:element="心">
			<path style="stroke: #7409bf;" id="kvg:08074-s14" kvg:type="㇔" d="M51.4,74.98c0.17,2.13-1.65,11.52-2.96,15.06"/>
			<path style="stroke: #b409bf;" id="kvg:08074-s15" kvg:type="㇟b" d="M57.95,76.1c6.55,11.65,12.8,19.4,30.41,19.78c9.39,0.2,9.39-1.88,2.47-6.8"/>
			<path style="stroke: #bf0989;" id="kvg:08074-s16" kvg:type="㇔a" d="M68.51,68c1.14,2.49,4.12,6.32,4.84,2.8"/>
			<path style="stroke: #bf0949;" id="kvg:08074-s17" kvg:type="㇔" d="M87.26,66.82c4.19,2.01,7.33,3.84,10.74,10.06"/>
		</g>
	</g>
</g>
</g>
<g id="kvg:StrokeNumbers_08074" style="font-size:8;fill:#808080" transform="scale(3.0,3.0)">
	<text style="fill: #bf0909;" transform="matrix(1 0 0 1 5.50 22.50)">1</text>
	<text style="fill: #bf4909;" transform="matrix(1 0 0 1 14.50 32.50)">2</text>
	<text style="fill: #bf8909;" transform="matrix(1 0 0 1 26.25 34.63)">3</text>
	<text style="fill: #b4bf09;" transform="matrix(1 0 0 1 26.25 50.50)">4</text>
	<text style="fill: #74bf09;" transform="matrix(1 0 0 1 5.50 79.50)">5</text>
	<text style="fill: #34bf09;" transform="matrix(1 0 0 1 32.50 28.50)">6</text>
	<text style="fill: #09bf1e;" transform="matrix(1 0 0 1 52.50 24.50)">7</text>
	<text style="fill: #09bf5f;" transform="matrix(1 0 0 1 60.75 11.50)">8</text>
	<text style="fill: #09bf9f;" transform="matrix(1 0 0 1 45.50 47.50)">9</text>
	<text style="fill: #099fbf;" transform="matrix(1 0 0 1 51.75 37.50)">10</text>
	<text style="fill: #095fbf;" transform="matrix(1 0 0 1 56.00 47.50)">11</text>
	<text style="fill: #091ebf;" transform="matrix(1 0 0 1 68.50 45.50)">12</text>
	<text style="fill: #3409bf;" transform="matrix(1 0 0 1 56.25 55.63)">13</text>
	<text style="fill: #7409bf;" transform="matrix(1 0 0 1 44.25 71.50)">14</text>
	<text style="fill: #b409bf;" transform="matrix(1 0 0 1 53.50 89.50)">15</text>
	<text style="fill: #bf0989;" transform="matrix(1 0 0 1 58.50 69.50)">16</text>
	<text style="fill: #bf0949;" transform="matrix(1 0 0 1 78.50 68.50)">17</text>
</g>
</svg>
