<?xml version="1.0" encoding="UTF-8"?>
<!--
This file has been modified from the original version by the kanji_colorize.py
script (available at http://github.com/cayennes/kanji-colorize) with these
settings:
    mode: spectrum
    saturation: 0.95
    value: 0.75
    image_size: 327
It remains under a Creative Commons-Attribution-Share Alike 3.0 License.

The original SVG has the following copyright:

Copyright (C) 2009/2010/2011 Ulrich Apel.
This work is distributed under the conditions of the Creative Commons
Attribution-Share Alike 3.0 Licence. This means you are free:
* to Share - to copy, distribute and transmit the work
* to Remix - to adapt the work

Under the following conditions:
* Attribution. You must attribute the work by stating your use of KanjiVG in
  your own copyright header and linking to KanjiVG's website
  (http://kanjivg.tagaini.net)
* Share Alike. If you alter, transform, or build upon this work, you may
  distribute the resulting work only under the same or similar license to this
  one.

See http://creativecommons.org/licenses/by-sa/3.0/ for more details.
-->
<!DOCTYPE svg PUBLIC "-//W3C//DTD SVG 1.0//EN" "http://www.w3.org/TR/2001/REC-SVG-20010904/DTD/svg10.dtd" [
<!ATTLIST g
xmlns:kvg CDATA #FIXED "http://kanjivg.tagaini.net"
kvg:element CDATA #IMPLIED
kvg:variant CDATA #IMPLIED
kvg:partial CDATA #IMPLIED
kvg:original CDATA #IMPLIED
kvg:part CDATA #IMPLIED
kvg:number CDATA #IMPLIED
kvg:tradForm CDATA #IMPLIED
kvg:radicalForm CDATA #IMPLIED
kvg:position CDATA #IMPLIED
kvg:radical CDATA #IMPLIED
kvg:phon CDATA #IMPLIED >
<!ATTLIST path
xmlns:kvg CDATA #FIXED "http://kanjivg.tagaini.net"
kvg:type CDATA #IMPLIED >
]>
<svg xmlns="http://www.w3.org/2000/svg" width="327" height = "327" viewBox="0 0 327 327">
<g id="kvg:StrokePaths_08089" style="fill:none;stroke:#000000;stroke-width:3;stroke-linecap:round;stroke-linejoin:round;" transform="scale(3.0,3.0)">
<g id="kvg:08089" kvg:element="肉" kvg:radical="general">
	<path style="stroke: #bf0909;" id="kvg:08089-s1" kvg:type="㇑" d="M19,30.27c1.11,1.11,1.44,2.82,1.44,4.56c0,5.46,0.16,39.85,0.21,53.67c0.01,3.04,0.02,5.09,0.02,5.61"/>
	<path style="stroke: #bfbf09;" id="kvg:08089-s2" kvg:type="㇆a" d="M21.01,32.11c16.09-1.31,61.86-4.76,63.38-4.76c3.86,0,5.92,1.9,5.92,5.3c0,1.91,0.24,54.28,0.24,58.68c0,9.67-6.04,2.42-9.44-0.71"/>
	<path style="stroke: #09bf09;" id="kvg:08089-s3" kvg:type="㇒" d="M53.28,12.75C54,14,54.03,15.33,54.1,16.79c0.65,13.46-8.35,34.46-24.6,38.71"/>
	<path style="stroke: #09bfbf;" id="kvg:08089-s4" kvg:type="㇔" d="M54.5,37.25c8.56,3.18,22.11,13.06,24.25,18"/>
	<path style="stroke: #0909bf;" id="kvg:08089-s5" kvg:type="㇒" d="M52,51.38c0.12,1.22,0.05,2.34-0.47,3.45c-3.28,7.05-11.03,17.05-21.23,22.4"/>
	<path style="stroke: #bf09bf;" id="kvg:08089-s6" kvg:type="㇔" d="M52,62.25C60.47,65.03,73.88,73.68,76,78"/>
</g>
</g>
<g id="kvg:StrokeNumbers_08089" style="font-size:8;fill:#808080" transform="scale(3.0,3.0)">
	<text style="fill: #bf0909;" transform="matrix(1 0 0 1 13.50 39.50)">1</text>
	<text style="fill: #bfbf09;" transform="matrix(1 0 0 1 24.50 28.50)">2</text>
	<text style="fill: #09bf09;" transform="matrix(1 0 0 1 44.50 14.50)">3</text>
	<text style="fill: #09bfbf;" transform="matrix(1 0 0 1 61.50 39.13)">4</text>
	<text style="fill: #0909bf;" transform="matrix(1 0 0 1 44.50 55.50)">5</text>
	<text style="fill: #bf09bf;" transform="matrix(1 0 0 1 56.50 62.50)">6</text>
</g>
</svg>
