<?xml version="1.0" encoding="UTF-8"?>
<!--
This file has been modified from the original version by the kanji_colorize.py
script (available at http://github.com/cayennes/kanji-colorize) with these
settings:
    mode: spectrum
    saturation: 0.95
    value: 0.75
    image_size: 327
It remains under a Creative Commons-Attribution-Share Alike 3.0 License.

The original SVG has the following copyright:

Copyright (C) 2009/2010/2011 Ulrich Apel.
This work is distributed under the conditions of the Creative Commons
Attribution-Share Alike 3.0 Licence. This means you are free:
* to Share - to copy, distribute and transmit the work
* to Remix - to adapt the work

Under the following conditions:
* Attribution. You must attribute the work by stating your use of KanjiVG in
  your own copyright header and linking to KanjiVG's website
  (http://kanjivg.tagaini.net)
* Share Alike. If you alter, transform, or build upon this work, you may
  distribute the resulting work only under the same or similar license to this
  one.

See http://creativecommons.org/licenses/by-sa/3.0/ for more details.
-->
<!DOCTYPE svg PUBLIC "-//W3C//DTD SVG 1.0//EN" "http://www.w3.org/TR/2001/REC-SVG-20010904/DTD/svg10.dtd" [
<!ATTLIST g
xmlns:kvg CDATA #FIXED "http://kanjivg.tagaini.net"
kvg:element CDATA #IMPLIED
kvg:variant CDATA #IMPLIED
kvg:partial CDATA #IMPLIED
kvg:original CDATA #IMPLIED
kvg:part CDATA #IMPLIED
kvg:number CDATA #IMPLIED
kvg:tradForm CDATA #IMPLIED
kvg:radicalForm CDATA #IMPLIED
kvg:position CDATA #IMPLIED
kvg:radical CDATA #IMPLIED
kvg:phon CDATA #IMPLIED >
<!ATTLIST path
xmlns:kvg CDATA #FIXED "http://kanjivg.tagaini.net"
kvg:type CDATA #IMPLIED >
]>
<svg xmlns="http://www.w3.org/2000/svg" width="327" height = "327" viewBox="0 0 327 327">
<g id="kvg:StrokePaths_0809a" style="fill:none;stroke:#000000;stroke-width:3;stroke-linecap:round;stroke-linejoin:round;" transform="scale(3.0,3.0)">
<g id="kvg:0809a" kvg:element="肚">
	<g id="kvg:0809a-g1" kvg:element="月" kvg:variant="true" kvg:original="肉" kvg:position="left" kvg:radical="general">
		<path style="stroke: #bf0909;" id="kvg:0809a-s1" kvg:type="㇒" d="M17.25,19.75c1,0.75,1.5,2.5,1.5,3.5c0,19-0.88,41.58-0.5,36c0.79-11.71-1.34,21.54-8.75,35"/>
		<path style="stroke: #bfa509;" id="kvg:0809a-s2" kvg:type="㇆a" d="M19.32,21.48c2.19-0.06,12.64-2.26,14.27-2.38c2.92-0.22,3.64,1.26,3.64,2.58c0,3.12-0.55,44.65-0.55,62.36c0,12.18-4.74,4.68-6.6,3.21"/>
		<path style="stroke: #3dbf09;" id="kvg:0809a-s3" kvg:type="㇐a" d="M20.82,40.3c4.23-0.27,11.96-1.55,15.68-1.56"/>
		<path style="stroke: #09bf71;" id="kvg:0809a-s4" kvg:type="㇐a" d="M19.26,57.73c3.96-0.09,12.16-1.4,17.54-1.85"/>
	</g>
	<g id="kvg:0809a-g2" kvg:element="土" kvg:position="right">
		<path style="stroke: #0971bf;" id="kvg:0809a-s5" kvg:type="㇐" d="M45.5,51.21c1.18,0.22,4.46,0.47,5.64,0.41c9.73-0.45,23.61-2.62,36.25-3.41c1.96-0.12,4.13,0.27,5.11,0.38"/>
		<path style="stroke: #3d09bf;" id="kvg:0809a-s6" kvg:type="㇑a" d="M65.75,17c1.25,0.75,2.34,1.83,2.34,3.63c0,11.61-0.32,50.77-0.32,66.12"/>
		<path style="stroke: #bf09a5;" id="kvg:0809a-s7" kvg:type="㇐" d="M42.25,88.5c0.97,0.33,5.53,1.08,6.5,1c12.06-0.92,33.56-2.58,44.34-3c1.62-0.07,4.09,0.84,4.91,1"/>
	</g>
</g>
</g>
<g id="kvg:StrokeNumbers_0809a" style="font-size:8;fill:#808080" transform="scale(3.0,3.0)">
	<text style="fill: #bf0909;" transform="matrix(1 0 0 1 11.25 27.25)">1</text>
	<text style="fill: #bfa509;" transform="matrix(1 0 0 1 21.25 17.25)">2</text>
	<text style="fill: #3dbf09;" transform="matrix(1 0 0 1 23.25 37.25)">3</text>
	<text style="fill: #09bf71;" transform="matrix(1 0 0 1 23.25 54.25)">4</text>
	<text style="fill: #0971bf;" transform="matrix(1 0 0 1 43.25 48.25)">5</text>
	<text style="fill: #3d09bf;" transform="matrix(1 0 0 1 56.25 17.25)">6</text>
	<text style="fill: #bf09a5;" transform="matrix(1 0 0 1 42.25 85.25)">7</text>
</g>
</svg>
