<?xml version="1.0" encoding="UTF-8"?>
<!--
This file has been modified from the original version by the kanji_colorize.py
script (available at http://github.com/cayennes/kanji-colorize) with these
settings:
    mode: spectrum
    saturation: 0.95
    value: 0.75
    image_size: 327
It remains under a Creative Commons-Attribution-Share Alike 3.0 License.

The original SVG has the following copyright:

Copyright (C) 2009/2010/2011 Ulrich Apel.
This work is distributed under the conditions of the Creative Commons
Attribution-Share Alike 3.0 Licence. This means you are free:
* to Share - to copy, distribute and transmit the work
* to Remix - to adapt the work

Under the following conditions:
* Attribution. You must attribute the work by stating your use of KanjiVG in
  your own copyright header and linking to KanjiVG's website
  (http://kanjivg.tagaini.net)
* Share Alike. If you alter, transform, or build upon this work, you may
  distribute the resulting work only under the same or similar license to this
  one.

See http://creativecommons.org/licenses/by-sa/3.0/ for more details.
-->
<!DOCTYPE svg PUBLIC "-//W3C//DTD SVG 1.0//EN" "http://www.w3.org/TR/2001/REC-SVG-20010904/DTD/svg10.dtd" [
<!ATTLIST g
xmlns:kvg CDATA #FIXED "http://kanjivg.tagaini.net"
kvg:element CDATA #IMPLIED
kvg:variant CDATA #IMPLIED
kvg:partial CDATA #IMPLIED
kvg:original CDATA #IMPLIED
kvg:part CDATA #IMPLIED
kvg:number CDATA #IMPLIED
kvg:tradForm CDATA #IMPLIED
kvg:radicalForm CDATA #IMPLIED
kvg:position CDATA #IMPLIED
kvg:radical CDATA #IMPLIED
kvg:phon CDATA #IMPLIED >
<!ATTLIST path
xmlns:kvg CDATA #FIXED "http://kanjivg.tagaini.net"
kvg:type CDATA #IMPLIED >
]>
<svg xmlns="http://www.w3.org/2000/svg" width="327" height = "327" viewBox="0 0 327 327">
<g id="kvg:StrokePaths_080b1" style="fill:none;stroke:#000000;stroke-width:3;stroke-linecap:round;stroke-linejoin:round;" transform="scale(3.0,3.0)">
<g id="kvg:080b1" kvg:element="肱">
	<g id="kvg:080b1-g1" kvg:element="月" kvg:variant="true" kvg:original="肉" kvg:position="left" kvg:radical="general">
		<path style="stroke: #bf0909;" id="kvg:080b1-s1" kvg:type="㇒" d="M18.27,20.74c0.74,0.74,1.08,2.14,1.09,3.3c0.26,40.46-1.49,55.34-7.86,68.35"/>
		<path style="stroke: #bf9109;" id="kvg:080b1-s2" kvg:type="㇆a" d="M20.45,22.31c3.8-0.81,12.59-2.34,14.21-2.46c2.23-0.18,3.63,0.84,3.63,2.92c0,3.23-0.04,46.03-0.04,64.36c0,12.61-6.13,2.99-7.98,1.48"/>
		<path style="stroke: #64bf09;" id="kvg:080b1-s3" kvg:type="㇐a" d="M20.2,41.7c4.78-0.35,12.75-1.29,16.95-1.32"/>
		<path style="stroke: #09bf36;" id="kvg:080b1-s4" kvg:type="㇐a" d="M19.89,61.15c4.73-0.4,12.06-1.03,17.39-1.45"/>
	</g>
	<g id="kvg:080b1-g2" kvg:position="right">
		<path style="stroke: #09bfbf;" id="kvg:080b1-s5" kvg:type="㇐" d="M46,38.31c2.9,0.55,5.82,0.58,8.75,0.13c10.29-1.57,24.21-3.6,33.61-4.23c3.12-0.25,6.25,0.06,9.39,0.44"/>
		<path style="stroke: #0936bf;" id="kvg:080b1-s6" kvg:type="㇒" d="M67.62,14c0.63,1.75,0.63,3.29,0.39,5.44c-3.14,28.69-9.64,57.44-23.77,73.55"/>
		<g id="kvg:080b1-g3" kvg:element="厶">
			<path style="stroke: #6409bf;" id="kvg:080b1-s7" kvg:type="㇜" d="M77.4,53c0.23,1.25-0.15,2.65-0.57,3.48C71.5,67,67.75,73.75,60.75,85.55c-2.04,3.44-0.31,3.15,2.39,2.48c5.63-1.4,16.36-4.28,24.37-6.65"/>
			<path style="stroke: #bf0991;" id="kvg:080b1-s8" kvg:type="㇔" d="M83.5,70.31c4.62,5.69,9.12,15.19,10.34,22.4"/>
		</g>
	</g>
</g>
</g>
<g id="kvg:StrokeNumbers_080b1" style="font-size:8;fill:#808080" transform="scale(3.0,3.0)">
	<text style="fill: #bf0909;" transform="matrix(1 0 0 1 11.25 27.50)">1</text>
	<text style="fill: #bf9109;" transform="matrix(1 0 0 1 22.50 18.50)">2</text>
	<text style="fill: #64bf09;" transform="matrix(1 0 0 1 23.50 38.50)">3</text>
	<text style="fill: #09bf36;" transform="matrix(1 0 0 1 23.50 57.50)">4</text>
	<text style="fill: #09bfbf;" transform="matrix(1 0 0 1 43.50 34.50)">5</text>
	<text style="fill: #0936bf;" transform="matrix(1 0 0 1 57.25 12.25)">6</text>
	<text style="fill: #6409bf;" transform="matrix(1 0 0 1 71.50 50.18)">7</text>
	<text style="fill: #bf0991;" transform="matrix(1 0 0 1 84.50 67.50)">8</text>
</g>
</svg>
