<?xml version="1.0" encoding="UTF-8"?>
<!--
This file has been modified from the original version by the kanji_colorize.py
script (available at http://github.com/cayennes/kanji-colorize) with these
settings:
    mode: spectrum
    saturation: 0.95
    value: 0.75
    image_size: 327
It remains under a Creative Commons-Attribution-Share Alike 3.0 License.

The original SVG has the following copyright:

Copyright (C) 2009/2010/2011 Ulrich Apel.
This work is distributed under the conditions of the Creative Commons
Attribution-Share Alike 3.0 Licence. This means you are free:
* to Share - to copy, distribute and transmit the work
* to Remix - to adapt the work

Under the following conditions:
* Attribution. You must attribute the work by stating your use of KanjiVG in
  your own copyright header and linking to KanjiVG's website
  (http://kanjivg.tagaini.net)
* Share Alike. If you alter, transform, or build upon this work, you may
  distribute the resulting work only under the same or similar license to this
  one.

See http://creativecommons.org/licenses/by-sa/3.0/ for more details.
-->
<!DOCTYPE svg PUBLIC "-//W3C//DTD SVG 1.0//EN" "http://www.w3.org/TR/2001/REC-SVG-20010904/DTD/svg10.dtd" [
<!ATTLIST g
xmlns:kvg CDATA #FIXED "http://kanjivg.tagaini.net"
kvg:element CDATA #IMPLIED
kvg:variant CDATA #IMPLIED
kvg:partial CDATA #IMPLIED
kvg:original CDATA #IMPLIED
kvg:part CDATA #IMPLIED
kvg:number CDATA #IMPLIED
kvg:tradForm CDATA #IMPLIED
kvg:radicalForm CDATA #IMPLIED
kvg:position CDATA #IMPLIED
kvg:radical CDATA #IMPLIED
kvg:phon CDATA #IMPLIED >
<!ATTLIST path
xmlns:kvg CDATA #FIXED "http://kanjivg.tagaini.net"
kvg:type CDATA #IMPLIED >
]>
<svg xmlns="http://www.w3.org/2000/svg" width="327" height = "327" viewBox="0 0 327 327">
<g id="kvg:StrokePaths_080ce" style="fill:none;stroke:#000000;stroke-width:3;stroke-linecap:round;stroke-linejoin:round;" transform="scale(3.0,3.0)">
<g id="kvg:080ce" kvg:element="胎">
	<g id="kvg:080ce-g1" kvg:element="月" kvg:variant="true" kvg:original="肉" kvg:position="left" kvg:radical="general">
		<path style="stroke: #bf0909;" id="kvg:080ce-s1" kvg:type="㇒" d="M22.07,20.76c0.9,0.9,1.28,2.14,1.28,3.09c0,34.6-1.35,53.65-10.1,68.53"/>
		<path style="stroke: #bf8209;" id="kvg:080ce-s2" kvg:type="㇆a" d="M24.38,22.09c4.33-0.97,10.77-2.28,13.24-2.65c3.23-0.49,4.17,1.04,4.17,3.94c0,7.98-0.01,45.13-0.01,62.34c0,11.37-5.8,3.6-7.56,2.07"/>
		<path style="stroke: #82bf09;" id="kvg:080ce-s3" kvg:type="㇐a" d="M24.38,41.01c4.53-0.36,11.12-1.26,16.02-1.6"/>
		<path style="stroke: #09bf09;" id="kvg:080ce-s4" kvg:type="㇐a" d="M23.58,58.45C28.5,58,35.5,57.41,40.56,56.98"/>
	</g>
	<g id="kvg:080ce-g2" kvg:element="台" kvg:position="right" kvg:phon="台">
		<g id="kvg:080ce-g3" kvg:element="厶" kvg:position="top">
			<path style="stroke: #09bf82;" id="kvg:080ce-s5" kvg:type="㇜" d="M71.8,15.75c0.45,1.62,0.41,2.93-0.52,4.81C66,31.25,61.5,38.75,54.91,49.51c-2.44,3.99-2.06,4.29,1.29,3.47c11.05-2.72,20.3-4.72,33.36-8.04"/>
			<path style="stroke: #0982bf;" id="kvg:080ce-s6" kvg:type="㇔" d="M81.77,34.13c4.71,3.37,12.18,13.86,13.36,19.1"/>
		</g>
		<g id="kvg:080ce-g4" kvg:element="口" kvg:position="bottom">
			<path style="stroke: #0909bf;" id="kvg:080ce-s7" kvg:type="㇑" d="M55.41,66.59c0.84,0.89,1.32,1.95,1.43,3.17c1.06,4.56,2.21,12.47,3.06,19.51c0.19,1.58,0.37,3.09,0.52,4.49"/>
			<path style="stroke: #8209bf;" id="kvg:080ce-s8" kvg:type="㇕b" d="M57.3,67.81c13.12-1.54,22.96-2.37,29.61-3.22c3.11-0.4,5.78,0.58,4.9,4.21c-1.54,6.36-2.38,11.63-3.86,19.54"/>
			<path style="stroke: #bf0982;" id="kvg:080ce-s9" kvg:type="㇐b" d="M61.51,91.85c7.53-0.55,16.49-1.48,23.51-1.94c1.52-0.1,3.1-0.08,4.76-0.08"/>
		</g>
	</g>
</g>
</g>
<g id="kvg:StrokeNumbers_080ce" style="font-size:8;fill:#808080" transform="scale(3.0,3.0)">
	<text style="fill: #bf0909;" transform="matrix(1 0 0 1 15.50 27.50)">1</text>
	<text style="fill: #bf8209;" transform="matrix(1 0 0 1 24.75 18.50)">2</text>
	<text style="fill: #82bf09;" transform="matrix(1 0 0 1 27.50 37.50)">3</text>
	<text style="fill: #09bf09;" transform="matrix(1 0 0 1 27.33 55.42)">4</text>
	<text style="fill: #09bf82;" transform="matrix(1 0 0 1 63.50 15.50)">5</text>
	<text style="fill: #0982bf;" transform="matrix(1 0 0 1 75.50 35.50)">6</text>
	<text style="fill: #0909bf;" transform="matrix(1 0 0 1 49.50 74.50)">7</text>
	<text style="fill: #8209bf;" transform="matrix(1 0 0 1 59.25 64.50)">8</text>
	<text style="fill: #bf0982;" transform="matrix(1 0 0 1 63.50 88.50)">9</text>
</g>
</svg>
