<?xml version="1.0" encoding="UTF-8"?>
<!--
This file has been modified from the original version by the kanji_colorize.py
script (available at http://github.com/cayennes/kanji-colorize) with these
settings:
    mode: spectrum
    saturation: 0.95
    value: 0.75
    image_size: 327
It remains under a Creative Commons-Attribution-Share Alike 3.0 License.

The original SVG has the following copyright:

Copyright (C) 2009/2010/2011 Ulrich Apel.
This work is distributed under the conditions of the Creative Commons
Attribution-Share Alike 3.0 Licence. This means you are free:
* to Share - to copy, distribute and transmit the work
* to Remix - to adapt the work

Under the following conditions:
* Attribution. You must attribute the work by stating your use of KanjiVG in
  your own copyright header and linking to KanjiVG's website
  (http://kanjivg.tagaini.net)
* Share Alike. If you alter, transform, or build upon this work, you may
  distribute the resulting work only under the same or similar license to this
  one.

See http://creativecommons.org/licenses/by-sa/3.0/ for more details.
-->
<!DOCTYPE svg PUBLIC "-//W3C//DTD SVG 1.0//EN" "http://www.w3.org/TR/2001/REC-SVG-20010904/DTD/svg10.dtd" [
<!ATTLIST g
xmlns:kvg CDATA #FIXED "http://kanjivg.tagaini.net"
kvg:element CDATA #IMPLIED
kvg:variant CDATA #IMPLIED
kvg:partial CDATA #IMPLIED
kvg:original CDATA #IMPLIED
kvg:part CDATA #IMPLIED
kvg:number CDATA #IMPLIED
kvg:tradForm CDATA #IMPLIED
kvg:radicalForm CDATA #IMPLIED
kvg:position CDATA #IMPLIED
kvg:radical CDATA #IMPLIED
kvg:phon CDATA #IMPLIED >
<!ATTLIST path
xmlns:kvg CDATA #FIXED "http://kanjivg.tagaini.net"
kvg:type CDATA #IMPLIED >
]>
<svg xmlns="http://www.w3.org/2000/svg" width="327" height = "327" viewBox="0 0 327 327">
<g id="kvg:StrokePaths_08107" style="fill:none;stroke:#000000;stroke-width:3;stroke-linecap:round;stroke-linejoin:round;" transform="scale(3.0,3.0)">
<g id="kvg:08107" kvg:element="脇">
	<g id="kvg:08107-g1" kvg:element="月" kvg:variant="true" kvg:original="肉" kvg:position="left" kvg:radical="general">
		<path style="stroke: #bf0909;" id="kvg:08107-s1" kvg:type="㇒" d="M16.47,17.24c0.52,0.95,0.88,1.88,1.05,2.8c0.17,0.92,0.15,25.9-0.41,33.63c-0.8,11-1.61,24.08-8.61,36.22"/>
		<path style="stroke: #bf7609;" id="kvg:08107-s2" kvg:type="㇆a" d="M18.07,19.31C23,18.5,27.25,18,30.29,17.35c2.75-0.59,3.5,1.31,3.5,2.67c0,3.23-0.53,44.22-0.53,62.55c0,12.61-5.41,4.05-7.2,2.54"/>
		<path style="stroke: #9abf09;" id="kvg:08107-s3" kvg:type="㇐a" d="M17.57,37.2c4.61-0.35,11.53-1.54,15.58-1.57"/>
		<path style="stroke: #2dbf09;" id="kvg:08107-s4" kvg:type="㇐a" d="M17.01,55.15c3.79-0.08,10.64-1.28,15.79-1.7"/>
	</g>
	<g id="kvg:08107-g2" kvg:position="right">
		<g id="kvg:08107-g3" kvg:element="力" kvg:position="top">
			<path style="stroke: #09bf52;" id="kvg:08107-s5" kvg:type="㇆" d="M48.19,27.39c2.06,0.11,3.97,0.28,4.74,0.17c6.23-0.9,31.13-4.28,34.59-4.61c2.25-0.21,2.87,0.97,2.75,2.47c-0.33,3.96-6.75,20.15-10.23,22.84c-3.25,2.51-5.08,0.15-5.99-0.32"/>
			<path style="stroke: #09bfbf;" id="kvg:08107-s6" kvg:type="㇒" d="M69.16,12.43c0.06,0.91,0.16,2.36-0.13,3.66c-2.68,12.17-8.79,25.41-22.65,35.03"/>
		</g>
		<g id="kvg:08107-g4" kvg:position="bottom">
			<g id="kvg:08107-g5" kvg:element="力" kvg:position="left">
				<path style="stroke: #0952bf;" id="kvg:08107-s7" kvg:type="㇆" d="M39.86,67.29c0.69,0.35,1.54,0.25,2.15,0.19c6.74-0.72,17.54-2.57,20.24-2.93c1.76-0.23,2.25,1.05,2.15,2.69c-0.26,4.33-6.3,21.49-9.03,24.43c-2.54,2.74-3.99,0.16-4.7-0.35"/>
				<path style="stroke: #2d09bf;" id="kvg:08107-s8" kvg:type="㇒" d="M52.23,55.68c0.04,0.88,0.1,2.27-0.08,3.53c-1.4,9.32-5.71,24.21-14.89,33.81"/>
			</g>
			<g id="kvg:08107-g6" kvg:element="力" kvg:position="right">
				<path style="stroke: #9a09bf;" id="kvg:08107-s9" kvg:type="㇆" d="M70.86,65.94c0.71,0.41,2.6,0.32,3.23,0.22c5.91-0.91,17.26-2.69,20.08-3.11c1.83-0.27,2.34,1.23,2.24,3.16c-0.27,5.07-6.5,25.29-9.34,28.74c-2.64,3.22-4.14,0.19-4.88-0.41"/>
				<path style="stroke: #bf0976;" id="kvg:08107-s10" kvg:type="㇒" d="M83.22,54.43c0.05,0.98,0.13,2.55-0.11,3.96C81.31,68.83,75.78,85.51,64,96.27"/>
			</g>
		</g>
	</g>
</g>
</g>
<g id="kvg:StrokeNumbers_08107" style="font-size:8;fill:#808080" transform="scale(3.0,3.0)">
	<text style="fill: #bf0909;" transform="matrix(1 0 0 1 10.50 24.50)">1</text>
	<text style="fill: #bf7609;" transform="matrix(1 0 0 1 20.50 15.50)">2</text>
	<text style="fill: #9abf09;" transform="matrix(1 0 0 1 22.50 33.50)">3</text>
	<text style="fill: #2dbf09;" transform="matrix(1 0 0 1 22.50 51.50)">4</text>
	<text style="fill: #09bf52;" transform="matrix(1 0 0 1 40.50 27.50)">5</text>
	<text style="fill: #09bfbf;" transform="matrix(1 0 0 1 59.50 12.50)">6</text>
	<text style="fill: #0952bf;" transform="matrix(1 0 0 1 37.50 64.50)">7</text>
	<text style="fill: #2d09bf;" transform="matrix(1 0 0 1 43.50 59.50)">8</text>
	<text style="fill: #9a09bf;" transform="matrix(1 0 0 1 68.50 62.50)">9</text>
	<text style="fill: #bf0976;" transform="matrix(1 0 0 1 72.50 58.50)">10</text>
</g>
</svg>
