<?xml version="1.0" encoding="UTF-8"?>
<!--
This file has been modified from the original version by the kanji_colorize.py
script (available at http://github.com/cayennes/kanji-colorize) with these
settings:
    mode: spectrum
    saturation: 0.95
    value: 0.75
    image_size: 327
It remains under a Creative Commons-Attribution-Share Alike 3.0 License.

The original SVG has the following copyright:

Copyright (C) 2009/2010/2011 Ulrich Apel.
This work is distributed under the conditions of the Creative Commons
Attribution-Share Alike 3.0 Licence. This means you are free:
* to Share - to copy, distribute and transmit the work
* to Remix - to adapt the work

Under the following conditions:
* Attribution. You must attribute the work by stating your use of KanjiVG in
  your own copyright header and linking to KanjiVG's website
  (http://kanjivg.tagaini.net)
* Share Alike. If you alter, transform, or build upon this work, you may
  distribute the resulting work only under the same or similar license to this
  one.

See http://creativecommons.org/licenses/by-sa/3.0/ for more details.
-->
<!DOCTYPE svg PUBLIC "-//W3C//DTD SVG 1.0//EN" "http://www.w3.org/TR/2001/REC-SVG-20010904/DTD/svg10.dtd" [
<!ATTLIST g
xmlns:kvg CDATA #FIXED "http://kanjivg.tagaini.net"
kvg:element CDATA #IMPLIED
kvg:variant CDATA #IMPLIED
kvg:partial CDATA #IMPLIED
kvg:original CDATA #IMPLIED
kvg:part CDATA #IMPLIED
kvg:number CDATA #IMPLIED
kvg:tradForm CDATA #IMPLIED
kvg:radicalForm CDATA #IMPLIED
kvg:position CDATA #IMPLIED
kvg:radical CDATA #IMPLIED
kvg:phon CDATA #IMPLIED >
<!ATTLIST path
xmlns:kvg CDATA #FIXED "http://kanjivg.tagaini.net"
kvg:type CDATA #IMPLIED >
]>
<svg xmlns="http://www.w3.org/2000/svg" width="327" height = "327" viewBox="0 0 327 327">
<g id="kvg:StrokePaths_08133" style="fill:none;stroke:#000000;stroke-width:3;stroke-linecap:round;stroke-linejoin:round;" transform="scale(3.0,3.0)">
<g id="kvg:08133" kvg:element="脳">
	<g id="kvg:08133-g1" kvg:element="月" kvg:variant="true" kvg:original="肉" kvg:position="left" kvg:radical="general">
		<path style="stroke: #bf0909;" id="kvg:08133-s1" kvg:type="㇒" d="M20.57,22.42c0.76,0.76,1,2.03,1.03,2.92c0.98,32.04-1.61,56.32-9.6,65.08"/>
		<path style="stroke: #bf6c09;" id="kvg:08133-s2" kvg:type="㇆a" d="M22.38,23.94c2.99-0.57,12.94-2.65,14.47-2.85c1.78-0.22,2.94,1.24,2.94,2.54c0,3.07-0.02,44.25-0.02,61.71c0,10.68-5.8,3.38-7.56,1.94"/>
		<path style="stroke: #aebf09;" id="kvg:08133-s3" kvg:type="㇐a" d="M22.88,40.25c4.53-0.34,11.8-1.73,15.77-1.75"/>
		<path style="stroke: #4bbf09;" id="kvg:08133-s4" kvg:type="㇐a" d="M22.33,57.12c3.72-0.08,11.43-0.97,16.48-1.37"/>
	</g>
	<g id="kvg:08133-g2" kvg:position="right" kvg:phon="つ+凶">
		<g id="kvg:08133-g3" kvg:element="⺍" kvg:original="つ" kvg:position="top">
			<path style="stroke: #09bf2a;" id="kvg:08133-s5" kvg:type="㇔" d="M47,27.36c3.76,4.43,6.88,10.27,8.08,13.89"/>
			<path style="stroke: #09bf8d;" id="kvg:08133-s6" kvg:type="㇔" d="M63.82,20.25c2.68,3.38,6.43,10.5,7.65,16.25"/>
			<path style="stroke: #098dbf;" id="kvg:08133-s7" kvg:type="㇒" d="M92.86,17.5c0.51,1.25,0.26,2.75-0.65,4.14c-2.81,4.3-4.84,7.24-10.05,14.33"/>
		</g>
		<g id="kvg:08133-g4" kvg:element="凶" kvg:position="bottom">
			<g id="kvg:08133-g5" kvg:element="乂">
				<g id="kvg:08133-g6" kvg:element="丿">
					<path style="stroke: #092abf;" id="kvg:08133-s8" kvg:type="㇒" d="M80.72,46.18c0.37,0.75,0.49,1.85-0.06,3.17c-4.99,11.89-12.41,21.6-23.15,27.82"/>
				</g>
				<path style="stroke: #4b09bf;" id="kvg:08133-s9" kvg:type="㇔/㇏" d="M60.26,54.97c7.18,3.02,17.76,13.08,21.51,20.26"/>
			</g>
			<g id="kvg:08133-g7" kvg:element="凵" kvg:position="kamae">
				<path style="stroke: #ae09bf;" id="kvg:08133-s10" kvg:type="㇄a" d="M49.56,59.31c0.69,0.69,1.06,1.94,1.04,3.12c-0.08,3.44,0.14,17.3-0.06,22.56c-0.06,1.74-0.36,3.18,1.86,3.04c8.43-0.5,33.96-2.72,38.78-3"/>
				<path style="stroke: #bf096c;" id="kvg:08133-s11" kvg:type="㇑" d="M93.05,54.56c0.76,0.76,0.95,2.06,0.79,3.87c-0.34,3.67-1.5,16.3-2.25,25.06c-0.21,2.45-0.39,4.52-0.51,5.89"/>
			</g>
		</g>
	</g>
</g>
</g>
<g id="kvg:StrokeNumbers_08133" style="font-size:8;fill:#808080" transform="scale(3.0,3.0)">
	<text style="fill: #bf0909;" transform="matrix(1 0 0 1 14.50 30.50)">1</text>
	<text style="fill: #bf6c09;" transform="matrix(1 0 0 1 23.25 20.50)">2</text>
	<text style="fill: #aebf09;" transform="matrix(1 0 0 1 26.25 36.05)">3</text>
	<text style="fill: #4bbf09;" transform="matrix(1 0 0 1 26.08 53.98)">4</text>
	<text style="fill: #09bf2a;" transform="matrix(1 0 0 1 45.50 24.50)">5</text>
	<text style="fill: #09bf8d;" transform="matrix(1 0 0 1 56.50 19.50)">6</text>
	<text style="fill: #098dbf;" transform="matrix(1 0 0 1 84.75 17.50)">7</text>
	<text style="fill: #092abf;" transform="matrix(1 0 0 1 72.50 47.98)">8</text>
	<text style="fill: #4b09bf;" transform="matrix(1 0 0 1 54.75 52.63)">9</text>
	<text style="fill: #ae09bf;" transform="matrix(1 0 0 1 44.25 56.50)">10</text>
	<text style="fill: #bf096c;" transform="matrix(1 0 0 1 88.50 51.50)">11</text>
</g>
</svg>
