<?xml version="1.0" encoding="UTF-8"?>
<!--
This file has been modified from the original version by the kanji_colorize.py
script (available at http://github.com/cayennes/kanji-colorize) with these
settings:
    mode: spectrum
    saturation: 0.95
    value: 0.75
    image_size: 327
It remains under a Creative Commons-Attribution-Share Alike 3.0 License.

The original SVG has the following copyright:

Copyright (C) 2009/2010/2011 Ulrich Apel.
This work is distributed under the conditions of the Creative Commons
Attribution-Share Alike 3.0 Licence. This means you are free:
* to Share - to copy, distribute and transmit the work
* to Remix - to adapt the work

Under the following conditions:
* Attribution. You must attribute the work by stating your use of KanjiVG in
  your own copyright header and linking to KanjiVG's website
  (http://kanjivg.tagaini.net)
* Share Alike. If you alter, transform, or build upon this work, you may
  distribute the resulting work only under the same or similar license to this
  one.

See http://creativecommons.org/licenses/by-sa/3.0/ for more details.
-->
<!DOCTYPE svg PUBLIC "-//W3C//DTD SVG 1.0//EN" "http://www.w3.org/TR/2001/REC-SVG-20010904/DTD/svg10.dtd" [
<!ATTLIST g
xmlns:kvg CDATA #FIXED "http://kanjivg.tagaini.net"
kvg:element CDATA #IMPLIED
kvg:variant CDATA #IMPLIED
kvg:partial CDATA #IMPLIED
kvg:original CDATA #IMPLIED
kvg:part CDATA #IMPLIED
kvg:number CDATA #IMPLIED
kvg:tradForm CDATA #IMPLIED
kvg:radicalForm CDATA #IMPLIED
kvg:position CDATA #IMPLIED
kvg:radical CDATA #IMPLIED
kvg:phon CDATA #IMPLIED >
<!ATTLIST path
xmlns:kvg CDATA #FIXED "http://kanjivg.tagaini.net"
kvg:type CDATA #IMPLIED >
]>
<svg xmlns="http://www.w3.org/2000/svg" width="327" height = "327" viewBox="0 0 327 327">
<g id="kvg:StrokePaths_08154" style="fill:none;stroke:#000000;stroke-width:3;stroke-linecap:round;stroke-linejoin:round;" transform="scale(3.0,3.0)">
<g id="kvg:08154" kvg:element="腔">
	<g id="kvg:08154-g1" kvg:element="月" kvg:variant="true" kvg:original="肉" kvg:position="left" kvg:radical="general">
		<path style="stroke: #bf0909;" id="kvg:08154-s1" kvg:type="㇒" d="M17.72,20.24c1.03,0.89,1.3,2.37,1.3,3.3C19,59.88,17.62,78.75,10,91.89"/>
		<path style="stroke: #bf6409;" id="kvg:08154-s2" kvg:type="㇆a" d="M20.07,21.81c3.05-0.8,9.2-1.95,11.94-2.34c3.52-0.5,4.55,0.99,4.52,4.15c-0.07,8.65-0.02,46.14-0.02,62.94c0,12.61-6.16,3.55-7.95,2.04"/>
		<path style="stroke: #bfbf09;" id="kvg:08154-s3" kvg:type="㇐a" d="M19.82,41.45c5.05-0.7,10.43-1.33,15.83-1.82"/>
		<path style="stroke: #64bf09;" id="kvg:08154-s4" kvg:type="㇐a" d="M19.51,58.9c4.99-0.52,10.89-1.03,16.04-1.45"/>
	</g>
	<g id="kvg:08154-g2" kvg:element="空" kvg:position="right">
		<g id="kvg:08154-g3" kvg:element="穴" kvg:variant="true" kvg:position="top">
			<g id="kvg:08154-g4" kvg:element="宀">
				<path style="stroke: #09bf09;" id="kvg:08154-s5" kvg:type="㇑a" d="M65.04,14.25c1.04,1.04,1.45,2.5,1.45,3.64c0,3.36-0.08,6.11-0.08,9.17"/>
				<g id="kvg:08154-g5" kvg:element="冖">
					<path style="stroke: #09bf64;" id="kvg:08154-s6" kvg:type="㇔" d="M46.57,28.23c0,3.51-2.31,12.93-3.24,15.27"/>
					<path style="stroke: #09bfbf;" id="kvg:08154-s7" kvg:type="㇖b" d="M48.61,30.13c6.14-1.13,36.74-4.35,41.37-4.63c7.67-0.47,3.21,4.67-0.47,8.17"/>
				</g>
			</g>
			<g id="kvg:08154-g6" kvg:element="八" kvg:variant="true">
				<path style="stroke: #0964bf;" id="kvg:08154-s8" kvg:type="㇒" d="M59.77,36.75c0.1,1-0.07,2.02-0.4,2.84c-3,7.54-6.75,14.29-13.37,20.16"/>
				<path style="stroke: #0909bf;" id="kvg:08154-s9" kvg:type="㇟a/㇏" d="M75.01,33.72c0.95,0.95,1.24,2.16,1.24,3.78c0,3.47,0.11,6.5,0.06,9.23c-0.07,3.73,1.32,4.91,10.57,4.91c4.24,0,7.67-0.94,9.12-1.39"/>
			</g>
		</g>
		<g id="kvg:08154-g7" kvg:element="工" kvg:position="bottom">
			<path style="stroke: #6409bf;" id="kvg:08154-s10" kvg:type="㇐" d="M51.42,65.92c2.64,0.46,5.29,0.51,7.95,0.17c5.94-0.6,13.13-1.34,19.63-1.89c2.47-0.21,4.89-0.36,7.32,0.1"/>
			<path style="stroke: #bf09bf;" id="kvg:08154-s11" kvg:type="㇑a" d="M67.33,68.2c0.68,0.68,0.96,1.55,0.96,3c0,7-0.04,9.93-0.04,17.93"/>
			<path style="stroke: #bf0964;" id="kvg:08154-s12" kvg:type="㇐" d="M44.75,90.8c3.5,0.95,8.01,0.76,10.75,0.45c8.87-1,20.05-1.91,31.37-2.07c3.62-0.05,6.5,0.57,9.62,1.62"/>
		</g>
	</g>
</g>
</g>
<g id="kvg:StrokeNumbers_08154" style="font-size:8;fill:#808080" transform="scale(3.0,3.0)">
	<text style="fill: #bf0909;" transform="matrix(1 0 0 1 11.50 28.50)">1</text>
	<text style="fill: #bf6409;" transform="matrix(1 0 0 1 22.50 17.50)">2</text>
	<text style="fill: #bfbf09;" transform="matrix(1 0 0 1 23.50 37.50)">3</text>
	<text style="fill: #64bf09;" transform="matrix(1 0 0 1 23.50 55.50)">4</text>
	<text style="fill: #09bf09;" transform="matrix(1 0 0 1 55.50 13.50)">5</text>
	<text style="fill: #09bf64;" transform="matrix(1 0 0 1 41.25 27.50)">6</text>
	<text style="fill: #09bfbf;" transform="matrix(1 0 0 1 50.50 26.50)">7</text>
	<text style="fill: #0964bf;" transform="matrix(1 0 0 1 51.50 38.50)">8</text>
	<text style="fill: #0909bf;" transform="matrix(1 0 0 1 68.50 39.50)">9</text>
	<text style="fill: #6409bf;" transform="matrix(1 0 0 1 51.50 63.50)">10</text>
	<text style="fill: #bf09bf;" transform="matrix(1 0 0 1 58.50 75.50)">11</text>
	<text style="fill: #bf0964;" transform="matrix(1 0 0 1 43.50 87.50)">12</text>
</g>
</svg>
