<?xml version="1.0" encoding="UTF-8"?>
<!--
This file has been modified from the original version by the kanji_colorize.py
script (available at http://github.com/cayennes/kanji-colorize) with these
settings:
    mode: spectrum
    saturation: 0.95
    value: 0.75
    image_size: 327
It remains under a Creative Commons-Attribution-Share Alike 3.0 License.

The original SVG has the following copyright:

Copyright (C) 2009/2010/2011 Ulrich Apel.
This work is distributed under the conditions of the Creative Commons
Attribution-Share Alike 3.0 Licence. This means you are free:
* to Share - to copy, distribute and transmit the work
* to Remix - to adapt the work

Under the following conditions:
* Attribution. You must attribute the work by stating your use of KanjiVG in
  your own copyright header and linking to KanjiVG's website
  (http://kanjivg.tagaini.net)
* Share Alike. If you alter, transform, or build upon this work, you may
  distribute the resulting work only under the same or similar license to this
  one.

See http://creativecommons.org/licenses/by-sa/3.0/ for more details.
-->
<!DOCTYPE svg PUBLIC "-//W3C//DTD SVG 1.0//EN" "http://www.w3.org/TR/2001/REC-SVG-20010904/DTD/svg10.dtd" [
<!ATTLIST g
xmlns:kvg CDATA #FIXED "http://kanjivg.tagaini.net"
kvg:element CDATA #IMPLIED
kvg:variant CDATA #IMPLIED
kvg:partial CDATA #IMPLIED
kvg:original CDATA #IMPLIED
kvg:part CDATA #IMPLIED
kvg:number CDATA #IMPLIED
kvg:tradForm CDATA #IMPLIED
kvg:radicalForm CDATA #IMPLIED
kvg:position CDATA #IMPLIED
kvg:radical CDATA #IMPLIED
kvg:phon CDATA #IMPLIED >
<!ATTLIST path
xmlns:kvg CDATA #FIXED "http://kanjivg.tagaini.net"
kvg:type CDATA #IMPLIED >
]>
<svg xmlns="http://www.w3.org/2000/svg" width="327" height = "327" viewBox="0 0 327 327">
<g id="kvg:StrokePaths_08183" style="fill:none;stroke:#000000;stroke-width:3;stroke-linecap:round;stroke-linejoin:round;" transform="scale(3.0,3.0)">
<g id="kvg:08183" kvg:element="膃">
	<g id="kvg:08183-g1" kvg:element="月" kvg:variant="true" kvg:original="肉" kvg:position="left" kvg:radical="general">
		<path style="stroke: #bf0909;" id="kvg:08183-s1" kvg:type="㇒" d="M15.42,17.92c1.08,1.08,1.4,2.2,1.54,3.16c0.14,0.96,0.12,27-0.33,35.05C15.98,67.58,15.5,80.5,9.25,92.31"/>
		<path style="stroke: #bf5709;" id="kvg:08183-s2" kvg:type="㇆a" d="M16.75,19.58c1.9-0.06,12.71-2.02,14.12-2.15c2.53-0.23,3.16,1.31,3.16,2.69c0,3.25-0.47,46.53-0.47,64.98c0,12.69-5.36,4.67-6.98,3.15"/>
		<path style="stroke: #bfa509;" id="kvg:08183-s3" kvg:type="㇐a" d="M17.15,39.06c4.52-0.28,12.78-1.6,16.75-1.62"/>
		<path style="stroke: #8bbf09;" id="kvg:08183-s4" kvg:type="㇐a" d="M17.76,59.45c3.34-0.08,10.25-1.23,14.79-1.63"/>
	</g>
	<g id="kvg:08183-g2" kvg:position="right">
		<g id="kvg:08183-g3" kvg:element="囚" kvg:position="top">
			<g id="kvg:08183-g4" kvg:element="囗" kvg:part="1">
				<path style="stroke: #3dbf09;" id="kvg:08183-s5" kvg:type="㇑" d="M46.58,18.58c0.32,0.49,1.35,2.41,1.43,3.06c0.67,5.43,2.55,15.94,3.25,26.94"/>
				<path style="stroke: #09bf23;" id="kvg:08183-s6" kvg:type="㇕a" d="M48.51,19.94c11.39-1.46,27.86-3.08,34.57-3.69c2.69-0.25,4.08,1.82,3.83,4c-0.78,6.89-1.97,17.63-3.49,25.98"/>
			</g>
			<g id="kvg:08183-g5" kvg:element="人" kvg:variant="true">
				<path style="stroke: #09bf71;" id="kvg:08183-s7" kvg:type="㇒" d="M67.92,21.25c0.09,0.44,0.48,2.32,0.33,3c-0.38,1.71-10.06,15.62-13.08,17.11"/>
				<path style="stroke: #09bfbf;" id="kvg:08183-s8" kvg:type="㇔/㇏" d="M68.42,29.58c3.55,1.16,9.34,6.14,10.22,8.4"/>
			</g>
			<g id="kvg:08183-g6" kvg:element="囗" kvg:part="2">
				<path style="stroke: #0971bf;" id="kvg:08183-s9" kvg:type="㇐a" d="M52.63,45.83c7.11,0,20.13-1.91,29.95-2.08"/>
			</g>
		</g>
		<g id="kvg:08183-g7" kvg:element="皿" kvg:position="bottom">
			<path style="stroke: #0923bf;" id="kvg:08183-s10" kvg:type="㇑a" d="M46.14,59.83c0.7,0.79,1.29,1.75,1.44,2.42c1.17,5.29,1.93,18.47,2.73,27.98"/>
			<path style="stroke: #3d09bf;" id="kvg:08183-s11" kvg:type="㇕b" d="M47.87,61.54c9.26-1.09,34.48-3.49,37.84-3.72c2.11-0.14,3.28,1.04,3.07,3.2c-0.31,3.05-1.44,23.11-2.52,27.23"/>
			<path style="stroke: #8b09bf;" id="kvg:08183-s12" kvg:type="㇑a" d="M59.9,62.54c0.23,0.51,0.96,1.43,1.06,2.06c0.79,5.01,0.87,16.17,1.41,25.17"/>
			<path style="stroke: #bf09a5;" id="kvg:08183-s13" kvg:type="㇑a" d="M74.13,61.5c0.37,0.6,0.71,1.63,0.65,2.41c-0.6,7.71-0.46,14.6-1.2,24.48"/>
			<path style="stroke: #bf0957;" id="kvg:08183-s14" kvg:type="㇐" d="M39.92,91.08c1.02,0.52,4.01,1.31,5.03,1.22c10.59-0.88,30.05-3.05,47.13-3.39c1.7-0.03,5.48,0.24,6.33,0.5"/>
		</g>
	</g>
</g>
</g>
<g id="kvg:StrokeNumbers_08183" style="font-size:8;fill:#808080" transform="scale(3.0,3.0)">
	<text style="fill: #bf0909;" transform="matrix(1 0 0 1 8.25 24.25)">1</text>
	<text style="fill: #bf5709;" transform="matrix(1 0 0 1 18.25 16.25)">2</text>
	<text style="fill: #bfa509;" transform="matrix(1 0 0 1 21.25 35.25)">3</text>
	<text style="fill: #8bbf09;" transform="matrix(1 0 0 1 21.25 56.25)">4</text>
	<text style="fill: #3dbf09;" transform="matrix(1 0 0 1 39.25 24.25)">5</text>
	<text style="fill: #09bf23;" transform="matrix(1 0 0 1 49.25 16.00)">6</text>
	<text style="fill: #09bf71;" transform="matrix(1 0 0 1 60.25 27.18)">7</text>
	<text style="fill: #09bfbf;" transform="matrix(1 0 0 1 73.25 29.25)">8</text>
	<text style="fill: #0971bf;" transform="matrix(1 0 0 1 61.25 43.53)">9</text>
	<text style="fill: #0923bf;" transform="matrix(1 0 0 1 37.25 67.25)">10</text>
	<text style="fill: #3d09bf;" transform="matrix(1 0 0 1 48.00 58.25)">11</text>
	<text style="fill: #8b09bf;" transform="matrix(1 0 0 1 51.25 69.25)">12</text>
	<text style="fill: #bf09a5;" transform="matrix(1 0 0 1 65.25 68.25)">13</text>
	<text style="fill: #bf0957;" transform="matrix(1 0 0 1 37.25 87.90)">14</text>
</g>
</svg>
