<?xml version="1.0" encoding="UTF-8"?>
<!--
This file has been modified from the original version by the kanji_colorize.py
script (available at http://github.com/cayennes/kanji-colorize) with these
settings:
    mode: spectrum
    saturation: 0.95
    value: 0.75
    image_size: 327
It remains under a Creative Commons-Attribution-Share Alike 3.0 License.

The original SVG has the following copyright:

Copyright (C) 2009/2010/2011 Ulrich Apel.
This work is distributed under the conditions of the Creative Commons
Attribution-Share Alike 3.0 Licence. This means you are free:
* to Share - to copy, distribute and transmit the work
* to Remix - to adapt the work

Under the following conditions:
* Attribution. You must attribute the work by stating your use of KanjiVG in
  your own copyright header and linking to KanjiVG's website
  (http://kanjivg.tagaini.net)
* Share Alike. If you alter, transform, or build upon this work, you may
  distribute the resulting work only under the same or similar license to this
  one.

See http://creativecommons.org/licenses/by-sa/3.0/ for more details.
-->
<!DOCTYPE svg PUBLIC "-//W3C//DTD SVG 1.0//EN" "http://www.w3.org/TR/2001/REC-SVG-20010904/DTD/svg10.dtd" [
<!ATTLIST g
xmlns:kvg CDATA #FIXED "http://kanjivg.tagaini.net"
kvg:element CDATA #IMPLIED
kvg:variant CDATA #IMPLIED
kvg:partial CDATA #IMPLIED
kvg:original CDATA #IMPLIED
kvg:part CDATA #IMPLIED
kvg:number CDATA #IMPLIED
kvg:tradForm CDATA #IMPLIED
kvg:radicalForm CDATA #IMPLIED
kvg:position CDATA #IMPLIED
kvg:radical CDATA #IMPLIED
kvg:phon CDATA #IMPLIED >
<!ATTLIST path
xmlns:kvg CDATA #FIXED "http://kanjivg.tagaini.net"
kvg:type CDATA #IMPLIED >
]>
<svg xmlns="http://www.w3.org/2000/svg" width="327" height = "327" viewBox="0 0 327 327">
<g id="kvg:StrokePaths_081a4" style="fill:none;stroke:#000000;stroke-width:3;stroke-linecap:round;stroke-linejoin:round;" transform="scale(3.0,3.0)">
<g id="kvg:081a4" kvg:element="膤">
	<g id="kvg:081a4-g1" kvg:element="月" kvg:variant="true" kvg:original="肉" kvg:position="left" kvg:radical="general">
		<path style="stroke: #bf0909;" id="kvg:081a4-s1" kvg:type="㇒" d="M17.75,18.42c0.52,1.01,0.83,2.02,1,3c0.17,0.98,0.34,27.43-0.21,35.64c-0.78,11.69-1.59,23.48-8.96,36.92"/>
		<path style="stroke: #bf5209;" id="kvg:081a4-s2" kvg:type="㇆a" d="M19.75,20.25c1.78-0.06,10.34-1.85,11.66-1.98c2.37-0.23,2.96,1.33,2.96,2.72c0,3.29-0.44,47.16-0.44,65.86c0,12.86-3.83,5.96-5.34,4.41"/>
		<path style="stroke: #bf9a09;" id="kvg:081a4-s3" kvg:type="㇐a" d="M19.65,40.43c3.75-0.2,10.47-1.33,13.76-1.34"/>
		<path style="stroke: #9abf09;" id="kvg:081a4-s4" kvg:type="㇐a" d="M18.92,60.58c3.12-0.05,9.41-0.98,13.63-1.25"/>
	</g>
	<g id="kvg:081a4-g2" kvg:element="雪" kvg:position="right">
		<g id="kvg:081a4-g3" kvg:element="雨" kvg:variant="true" kvg:position="top">
			<path style="stroke: #52bf09;" id="kvg:081a4-s5" kvg:type="㇐" d="M47.75,18.42c1.18,0.22,4.09,0.74,5.17,0.67c5.08-0.33,20.59-1.93,30.33-2.83c1.49-0.14,3.8,0.03,5.17,0.33"/>
			<path style="stroke: #09bf09;" id="kvg:081a4-s6" kvg:type="㇔/㇑" d="M44.11,25.6c-0.23,4.86-2.2,10.19-3.67,15.09"/>
			<path style="stroke: #09bf52;" id="kvg:081a4-s7" kvg:type="㇖b/㇆" d="M44.42,29.02c1.22,0.32,37.74-3.81,49.17-3.94c7.67-0.08-0.62,7.23-1.67,8.33"/>
			<path style="stroke: #09bf9a;" id="kvg:081a4-s8" kvg:type="㇑" d="M66.36,18.17c0.82,0.7,1.48,1.96,1.48,2.52c0,0.56,0.07,31.85,0.07,33.39"/>
			<path style="stroke: #099abf;" id="kvg:081a4-s9" kvg:type="㇔" d="M49.92,35.73c3.27,0.94,7.74,3.77,9.52,5.34"/>
			<path style="stroke: #0952bf;" id="kvg:081a4-s10" kvg:type="㇔" d="M48.52,47.81c3.28,0.94,8.34,4.39,10.13,5.96"/>
			<path style="stroke: #0909bf;" id="kvg:081a4-s11" kvg:type="㇔" d="M76.19,35.31c3.84,1.3,8.2,3.89,9.74,4.97"/>
			<path style="stroke: #5209bf;" id="kvg:081a4-s12" kvg:type="㇔" d="M77.38,47.29c3.16,1.06,7.47,4.25,9.19,6.02"/>
		</g>
		<g id="kvg:081a4-g4" kvg:element="⺕" kvg:variant="true" kvg:original="彑" kvg:position="bottom">
			<path style="stroke: #9a09bf;" id="kvg:081a4-s13" kvg:type="㇕" d="M48.25,63.08c2.38,1.36,4.52,1.18,6.09,1c9.54-1.09,20.3-2.5,27.8-2.5c2.21,0,3.79,0.68,3.53,3.4c-0.87,9.41-0.36,19.18-1.41,29.93"/>
			<path style="stroke: #bf099a;" id="kvg:081a4-s14" kvg:type="㇐" d="M42.56,77.47c1.39,0.34,3.89,1.21,5.55,1.02c15.26-1.7,29.27-3.06,43.14-3.74c2.22-0.11,5.34,0.66,7,1"/>
			<path style="stroke: #bf0952;" id="kvg:081a4-s15" kvg:type="㇐c" d="M49.42,92.32c0.78,0.28,5.51,0.93,6.45,0.78c8.59-1.39,15.23-1.47,23.05-2.03c1.25-0.09,3.74-0.12,4.67,0.16"/>
		</g>
	</g>
</g>
</g>
<g id="kvg:StrokeNumbers_081a4" style="font-size:8;fill:#808080" transform="scale(3.0,3.0)">
	<text style="fill: #bf0909;" transform="matrix(1 0 0 1 12.00 26.38)">1</text>
	<text style="fill: #bf5209;" transform="matrix(1 0 0 1 21.25 16.30)">2</text>
	<text style="fill: #bf9a09;" transform="matrix(1 0 0 1 22.25 37.25)">3</text>
	<text style="fill: #9abf09;" transform="matrix(1 0 0 1 22.25 57.25)">4</text>
	<text style="fill: #52bf09;" transform="matrix(1 0 0 1 47.25 15.25)">5</text>
	<text style="fill: #09bf09;" transform="matrix(1 0 0 1 38.25 24.25)">6</text>
	<text style="fill: #09bf52;" transform="matrix(1 0 0 1 46.25 26.75)">7</text>
	<text style="fill: #09bf9a;" transform="matrix(1 0 0 1 61.25 25.25)">8</text>
	<text style="fill: #099abf;" transform="matrix(1 0 0 1 55.25 35.25)">9</text>
	<text style="fill: #0952bf;" transform="matrix(1 0 0 1 43.25 45.25)">10</text>
	<text style="fill: #0909bf;" transform="matrix(1 0 0 1 71.25 33.25)">11</text>
	<text style="fill: #5209bf;" transform="matrix(1 0 0 1 71.25 44.25)">12</text>
	<text style="fill: #9a09bf;" transform="matrix(1 0 0 1 41.25 60.25)">13</text>
	<text style="fill: #bf099a;" transform="matrix(1 0 0 1 39.00 74.40)">14</text>
	<text style="fill: #bf0952;" transform="matrix(1 0 0 1 39.25 92.25)">15</text>
</g>
</svg>
