<?xml version="1.0" encoding="UTF-8"?>
<!--
This file has been modified from the original version by the kanji_colorize.py
script (available at http://github.com/cayennes/kanji-colorize) with these
settings:
    mode: spectrum
    saturation: 0.95
    value: 0.75
    image_size: 327
It remains under a Creative Commons-Attribution-Share Alike 3.0 License.

The original SVG has the following copyright:

Copyright (C) 2009/2010/2011 Ulrich Apel.
This work is distributed under the conditions of the Creative Commons
Attribution-Share Alike 3.0 Licence. This means you are free:
* to Share - to copy, distribute and transmit the work
* to Remix - to adapt the work

Under the following conditions:
* Attribution. You must attribute the work by stating your use of KanjiVG in
  your own copyright header and linking to KanjiVG's website
  (http://kanjivg.tagaini.net)
* Share Alike. If you alter, transform, or build upon this work, you may
  distribute the resulting work only under the same or similar license to this
  one.

See http://creativecommons.org/licenses/by-sa/3.0/ for more details.
-->
<!DOCTYPE svg PUBLIC "-//W3C//DTD SVG 1.0//EN" "http://www.w3.org/TR/2001/REC-SVG-20010904/DTD/svg10.dtd" [
<!ATTLIST g
xmlns:kvg CDATA #FIXED "http://kanjivg.tagaini.net"
kvg:element CDATA #IMPLIED
kvg:variant CDATA #IMPLIED
kvg:partial CDATA #IMPLIED
kvg:original CDATA #IMPLIED
kvg:part CDATA #IMPLIED
kvg:number CDATA #IMPLIED
kvg:tradForm CDATA #IMPLIED
kvg:radicalForm CDATA #IMPLIED
kvg:position CDATA #IMPLIED
kvg:radical CDATA #IMPLIED
kvg:phon CDATA #IMPLIED >
<!ATTLIST path
xmlns:kvg CDATA #FIXED "http://kanjivg.tagaini.net"
kvg:type CDATA #IMPLIED >
]>
<svg xmlns="http://www.w3.org/2000/svg" width="327" height = "327" viewBox="0 0 327 327">
<g id="kvg:StrokePaths_081fe" style="fill:none;stroke:#000000;stroke-width:3;stroke-linecap:round;stroke-linejoin:round;" transform="scale(3.0,3.0)">
<g id="kvg:081fe" kvg:element="臾">
	<g id="kvg:081fe-g1" kvg:element="𦥑" kvg:variant="true" kvg:original="臼" kvg:radical="tradit">
		<path style="stroke: #bf0909;" id="kvg:081fe-s1" kvg:type="㇒" d="M41.85,20.42c0.05,0.29-0.28,1.43-0.59,1.74c-4.21,4.15-8.14,7.28-17.75,10.59"/>
		<g id="kvg:081fe-g2" kvg:element="丨" kvg:radical="nelson">
			<path style="stroke: #bf8209;" id="kvg:081fe-s2" kvg:type="㇑" d="M22.36,31.98c0.83,0.86,1.17,2.78,1.38,4.54c0.75,6.43,3.13,19.96,3.89,28.65"/>
		</g>
		<path style="stroke: #82bf09;" id="kvg:081fe-s3" kvg:type="㇐" d="M25.67,44.43c4.11-0.39,15-2.03,15.98-2.03c0.98,0,2.35,0,3.13,0"/>
		<path style="stroke: #09bf09;" id="kvg:081fe-s4" kvg:type="㇐" d="M27.75,62.12c4.11-0.39,14-2.03,14.98-2.03c0.98,0,2.35,0,3.13,0"/>
		<path style="stroke: #09bf82;" id="kvg:081fe-s5" kvg:type="㇕" d="M63.47,25.36c0.98,0.19,1.76,0.59,3.13,0.59c1.37,0,14.88-2.35,16.45-2.54c1.57-0.2,2.86,0.97,2.74,2.15c-1.17,11.34-4.91,36.9-5.1,37.68"/>
		<path style="stroke: #0982bf;" id="kvg:081fe-s6" kvg:type="㇐" d="M61.87,40.55c0.98,0.19,1.76,0.59,3.13,0.59c1.37,0,15.47-0.99,17.04-1.19"/>
		<path style="stroke: #0909bf;" id="kvg:081fe-s7" kvg:type="㇐" d="M61.77,58.44c0.98,0.19,1.76,0.59,3.13,0.59c1.37,0,14.47-0.99,16.04-1.19"/>
	</g>
	<g id="kvg:081fe-g3" kvg:element="人">
		<path style="stroke: #8209bf;" id="kvg:081fe-s8" kvg:type="㇒" d="M53.25,11.25c1.25,2,0.78,2.92,0.78,5.99c0,52.01-3.04,65.51-38.79,83.76"/>
		<path style="stroke: #bf0982;" id="kvg:081fe-s9" kvg:type="㇏" d="M52.75,56.75c5.64,11.3,19.5,31.19,32.86,38.71c2.32,1.31,4.45,2.54,6.39,3.04"/>
	</g>
</g>
</g>
<g id="kvg:StrokeNumbers_081fe" style="font-size:8;fill:#808080" transform="scale(3.0,3.0)">
	<text style="fill: #bf0909;" transform="matrix(1 0 0 1 33.25 18.25)">1</text>
	<text style="fill: #bf8209;" transform="matrix(1 0 0 1 16.00 38.30)">2</text>
	<text style="fill: #82bf09;" transform="matrix(1 0 0 1 29.25 41.25)">3</text>
	<text style="fill: #09bf09;" transform="matrix(1 0 0 1 31.25 58.25)">4</text>
	<text style="fill: #09bf82;" transform="matrix(1 0 0 1 61.25 22.25)">5</text>
	<text style="fill: #0982bf;" transform="matrix(1 0 0 1 60.25 37.25)">6</text>
	<text style="fill: #0909bf;" transform="matrix(1 0 0 1 60.25 55.25)">7</text>
	<text style="fill: #8209bf;" transform="matrix(1 0 0 1 43.00 10.25)">8</text>
	<text style="fill: #bf0982;" transform="matrix(1 0 0 1 64.25 71.25)">9</text>
</g>
</svg>
