<?xml version="1.0" encoding="UTF-8"?>
<!--
This file has been modified from the original version by the kanji_colorize.py
script (available at http://github.com/cayennes/kanji-colorize) with these
settings:
    mode: spectrum
    saturation: 0.95
    value: 0.75
    image_size: 327
It remains under a Creative Commons-Attribution-Share Alike 3.0 License.

The original SVG has the following copyright:

Copyright (C) 2009/2010/2011 Ulrich Apel.
This work is distributed under the conditions of the Creative Commons
Attribution-Share Alike 3.0 Licence. This means you are free:
* to Share - to copy, distribute and transmit the work
* to Remix - to adapt the work

Under the following conditions:
* Attribution. You must attribute the work by stating your use of KanjiVG in
  your own copyright header and linking to KanjiVG's website
  (http://kanjivg.tagaini.net)
* Share Alike. If you alter, transform, or build upon this work, you may
  distribute the resulting work only under the same or similar license to this
  one.

See http://creativecommons.org/licenses/by-sa/3.0/ for more details.
-->
<!DOCTYPE svg PUBLIC "-//W3C//DTD SVG 1.0//EN" "http://www.w3.org/TR/2001/REC-SVG-20010904/DTD/svg10.dtd" [
<!ATTLIST g
xmlns:kvg CDATA #FIXED "http://kanjivg.tagaini.net"
kvg:element CDATA #IMPLIED
kvg:variant CDATA #IMPLIED
kvg:partial CDATA #IMPLIED
kvg:original CDATA #IMPLIED
kvg:part CDATA #IMPLIED
kvg:number CDATA #IMPLIED
kvg:tradForm CDATA #IMPLIED
kvg:radicalForm CDATA #IMPLIED
kvg:position CDATA #IMPLIED
kvg:radical CDATA #IMPLIED
kvg:phon CDATA #IMPLIED >
<!ATTLIST path
xmlns:kvg CDATA #FIXED "http://kanjivg.tagaini.net"
kvg:type CDATA #IMPLIED >
]>
<svg xmlns="http://www.w3.org/2000/svg" width="327" height = "327" viewBox="0 0 327 327">
<g id="kvg:StrokePaths_08205" style="fill:none;stroke:#000000;stroke-width:3;stroke-linecap:round;stroke-linejoin:round;" transform="scale(3.0,3.0)">
<g id="kvg:08205" kvg:element="舅">
	<g id="kvg:08205-g1" kvg:element="臼" kvg:position="top" kvg:radical="general">
		<path style="stroke: #bf0909;" id="kvg:08205-s1" kvg:type="㇒" d="M44.6,9.38c0.04,0.21,0.19,0.61-0.09,0.83c-3.6,2.97-9.5,5.91-15.53,7.98"/>
		<path style="stroke: #bf5d09;" id="kvg:08205-s2" kvg:type="㇑" d="M26.42,16.58c0.53,0.42,1.61,1.96,1.74,2.83c0.48,3.18,2.83,12.46,3.31,16.76"/>
		<path style="stroke: #bfb109;" id="kvg:08205-s3" kvg:type="㇕" d="M61.08,12.92c0.81,0.09,2.01,0.5,3.33,0.5c1.23,0,14.37-1.59,15.78-1.69c1.41-0.1,2.58,0.51,2.47,1.14c-1.06,5.99-3.53,16.26-4.58,21.22"/>
		<path style="stroke: #79bf09;" id="kvg:08205-s4" kvg:type="㇐" d="M31.1,25.39c4.98-0.95,13.04-2.3,13.98-2.3c0.94,0,3.08,0,3.83,0"/>
		<path style="stroke: #25bf09;" id="kvg:08205-s5" kvg:type="㇐" d="M59.25,22.08c0.94,0.16,2.86,0.67,4.17,0.67c1.31,0,15.84-1.17,17.33-1.33"/>
		<path style="stroke: #09bf41;" id="kvg:08205-s6" kvg:type="㇐" d="M32.16,34.57c10.16-0.89,34.06-3.07,46-3.42"/>
	</g>
	<g id="kvg:08205-g2" kvg:element="男" kvg:position="bottom">
		<g id="kvg:08205-g3" kvg:element="田" kvg:position="top">
			<path style="stroke: #09bf95;" id="kvg:08205-s7" kvg:type="㇑" d="M29.08,42.42c0.82,0.73,1.81,1.94,2,2.67c1.12,4.23,2.94,12.82,4.09,20.69"/>
			<path style="stroke: #0995bf;" id="kvg:08205-s8" kvg:type="㇕a" d="M30.42,43.42c12.57-0.75,38.59-2.88,47.17-3c3.55-0.05,3.48,1.92,3,4.33c-0.98,4.93-2.15,10.83-4.17,19"/>
			<path style="stroke: #0941bf;" id="kvg:08205-s9" kvg:type="㇑a" d="M53.42,42.75c0.68,0.54,1.15,2.37,1.16,3.28c0.05,6.34,0.26,13.83,0.26,15.62"/>
			<path style="stroke: #2509bf;" id="kvg:08205-s10" kvg:type="㇐a" d="M33.42,52.92c7.3-0.84,39.89-2.8,45.83-2.83"/>
			<path style="stroke: #7909bf;" id="kvg:08205-s11" kvg:type="㇐a" d="M35.08,63.58c12.17-1.44,27-1.98,41.33-2.5"/>
		</g>
		<g id="kvg:08205-g4" kvg:element="力" kvg:position="bottom">
			<path style="stroke: #bf09b1;" id="kvg:08205-s12" kvg:type="㇆" d="M24.75,74.08c1.54,0.43,3.21,0.84,6,0.67c13-0.83,41.34-3.59,46.19-3.94c3.15-0.23,3.56,1.51,3.39,3.11c-0.46,4.21-5.64,16.5-9.58,20.66c-3.15,3.33-3.83,1.33-6-0.17"/>
			<path style="stroke: #bf095d;" id="kvg:08205-s13" kvg:type="㇒" d="M51.78,65.08c0.79,1.01,0.77,2.08,0.48,3.21c-3.96,15.4-15.22,25.88-33.78,30.39"/>
		</g>
	</g>
</g>
</g>
<g id="kvg:StrokeNumbers_08205" style="font-size:8;fill:#808080" transform="scale(3.0,3.0)">
	<text style="fill: #bf0909;" transform="matrix(1 0 0 1 36.25 8.38)">1</text>
	<text style="fill: #bf5d09;" transform="matrix(1 0 0 1 18.25 20.25)">2</text>
	<text style="fill: #bfb109;" transform="matrix(1 0 0 1 57.25 9.25)">3</text>
	<text style="fill: #79bf09;" transform="matrix(1 0 0 1 35.25 22.25)">4</text>
	<text style="fill: #25bf09;" transform="matrix(1 0 0 1 56.25 19.25)">5</text>
	<text style="fill: #09bf41;" transform="matrix(1 0 0 1 35.25 32.25)">6</text>
	<text style="fill: #09bf95;" transform="matrix(1 0 0 1 21.25 46.25)">7</text>
	<text style="fill: #0995bf;" transform="matrix(1 0 0 1 35.50 40.85)">8</text>
	<text style="fill: #0941bf;" transform="matrix(1 0 0 1 58.50 49.25)">9</text>
	<text style="fill: #2509bf;" transform="matrix(1 0 0 1 35.25 50.25)">10</text>
	<text style="fill: #7909bf;" transform="matrix(1 0 0 1 36.50 61.25)">11</text>
	<text style="fill: #bf09b1;" transform="matrix(1 0 0 1 13.25 73.55)">12</text>
	<text style="fill: #bf095d;" transform="matrix(1 0 0 1 41.25 71.25)">13</text>
</g>
</svg>
