<?xml version="1.0" encoding="UTF-8"?>
<!--
This file has been modified from the original version by the kanji_colorize.py
script (available at http://github.com/cayennes/kanji-colorize) with these
settings:
    mode: spectrum
    saturation: 0.95
    value: 0.75
    image_size: 327
It remains under a Creative Commons-Attribution-Share Alike 3.0 License.

The original SVG has the following copyright:

Copyright (C) 2009/2010/2011 Ulrich Apel.
This work is distributed under the conditions of the Creative Commons
Attribution-Share Alike 3.0 Licence. This means you are free:
* to Share - to copy, distribute and transmit the work
* to Remix - to adapt the work

Under the following conditions:
* Attribution. You must attribute the work by stating your use of KanjiVG in
  your own copyright header and linking to KanjiVG's website
  (http://kanjivg.tagaini.net)
* Share Alike. If you alter, transform, or build upon this work, you may
  distribute the resulting work only under the same or similar license to this
  one.

See http://creativecommons.org/licenses/by-sa/3.0/ for more details.
-->
<!DOCTYPE svg PUBLIC "-//W3C//DTD SVG 1.0//EN" "http://www.w3.org/TR/2001/REC-SVG-20010904/DTD/svg10.dtd" [
<!ATTLIST g
xmlns:kvg CDATA #FIXED "http://kanjivg.tagaini.net"
kvg:element CDATA #IMPLIED
kvg:variant CDATA #IMPLIED
kvg:partial CDATA #IMPLIED
kvg:original CDATA #IMPLIED
kvg:part CDATA #IMPLIED
kvg:number CDATA #IMPLIED
kvg:tradForm CDATA #IMPLIED
kvg:radicalForm CDATA #IMPLIED
kvg:position CDATA #IMPLIED
kvg:radical CDATA #IMPLIED
kvg:phon CDATA #IMPLIED >
<!ATTLIST path
xmlns:kvg CDATA #FIXED "http://kanjivg.tagaini.net"
kvg:type CDATA #IMPLIED >
]>
<svg xmlns="http://www.w3.org/2000/svg" width="327" height = "327" viewBox="0 0 327 327">
<g id="kvg:StrokePaths_08201" style="fill:none;stroke:#000000;stroke-width:3;stroke-linecap:round;stroke-linejoin:round;" transform="scale(3.0,3.0)">
<g id="kvg:08201" kvg:element="舁">
	<g id="kvg:08201-g1" kvg:element="臼" kvg:position="top" kvg:radical="general">
		<path style="stroke: #bf0909;" id="kvg:08201-s1" kvg:type="㇒" d="M45.63,12.21c0.05,0.21-0.75,1.56-1.07,1.78c-4.2,2.92-6.52,5.23-16.67,9.02"/>
		<path style="stroke: #bf8209;" id="kvg:08201-s2" kvg:type="㇑" d="M26.33,23.16c0.81,0.61,1.14,1.99,1.34,3.24c0.73,4.6,2.54,18.63,3.27,24.84"/>
		<path style="stroke: #82bf09;" id="kvg:08201-s3" kvg:type="㇕" d="M59.08,17.06c0.95,0.14,1.71,0.42,3.04,0.42c1.33,0,15.42-2.68,16.94-2.82c1.52-0.14,3.35,0.91,3.14,2.5c-1.16,8.79-2.66,22.29-3.8,29c-0.16,0.97,0,1.54-0.19,2.1"/>
		<path style="stroke: #09bf09;" id="kvg:08201-s4" kvg:type="㇐" d="M29.28,34.24c4.3-0.6,14.66-2.99,15.68-2.99c1.02,0,2.46,0,3.27,0"/>
		<path style="stroke: #09bf82;" id="kvg:08201-s5" kvg:type="㇐" d="M59,31.06c0.95,0.14,1.71,0.42,3.04,0.42c1.33,0,16.95-1.6,18.47-1.74"/>
		<path style="stroke: #0982bf;" id="kvg:08201-s6" kvg:type="㇐" d="M31.12,48.87c4.75-0.28,43.48-3.26,46.33-3.4"/>
	</g>
	<g id="kvg:08201-g2" kvg:element="廾" kvg:position="bottom">
		<g id="kvg:08201-g3" kvg:element="十" kvg:part="1">
			<path style="stroke: #0909bf;" id="kvg:08201-s7" kvg:type="㇐" d="M16.63,67.23c1.52,0.54,4.3,0.63,5.82,0.54C38.25,66.86,68,64,88.06,63.54c2.53-0.06,4.05,0.26,5.31,0.53"/>
		</g>
		<g id="kvg:08201-g4" kvg:element="丿">
			<path style="stroke: #8209bf;" id="kvg:08201-s8" kvg:type="㇒" d="M41.3,52.75c0.69,1.07,1.39,2.18,1.39,3.74c0,17.18-0.4,33.71-20.44,42.76"/>
		</g>
		<g id="kvg:08201-g5" kvg:element="十" kvg:part="2">
			<path style="stroke: #bf0982;" id="kvg:08201-s9" kvg:type="㇑" d="M65.62,49.5c1.13,1,1.96,2.25,1.96,4.25c0,6.75,0,39.25-0.22,45.5"/>
		</g>
	</g>
</g>
</g>
<g id="kvg:StrokeNumbers_08201" style="font-size:8;fill:#808080" transform="scale(3.0,3.0)">
	<text style="fill: #bf0909;" transform="matrix(1 0 0 1 36.25 11.25)">1</text>
	<text style="fill: #bf8209;" transform="matrix(1 0 0 1 18.75 31.55)">2</text>
	<text style="fill: #82bf09;" transform="matrix(1 0 0 1 56.25 13.73)">3</text>
	<text style="fill: #09bf09;" transform="matrix(1 0 0 1 33.25 30.25)">4</text>
	<text style="fill: #09bf82;" transform="matrix(1 0 0 1 57.25 28.08)">5</text>
	<text style="fill: #0982bf;" transform="matrix(1 0 0 1 35.00 45.00)">6</text>
	<text style="fill: #0909bf;" transform="matrix(1 0 0 1 8.50 67.93)">7</text>
	<text style="fill: #8209bf;" transform="matrix(1 0 0 1 33.25 57.25)">8</text>
	<text style="fill: #bf0982;" transform="matrix(1 0 0 1 59.25 56.28)">9</text>
</g>
</svg>
