<?xml version="1.0" encoding="UTF-8"?>
<!--
This file has been modified from the original version by the kanji_colorize.py
script (available at http://github.com/cayennes/kanji-colorize) with these
settings:
    mode: spectrum
    saturation: 0.95
    value: 0.75
    image_size: 327
It remains under a Creative Commons-Attribution-Share Alike 3.0 License.

The original SVG has the following copyright:

Copyright (C) 2009/2010/2011 Ulrich Apel.
This work is distributed under the conditions of the Creative Commons
Attribution-Share Alike 3.0 Licence. This means you are free:
* to Share - to copy, distribute and transmit the work
* to Remix - to adapt the work

Under the following conditions:
* Attribution. You must attribute the work by stating your use of KanjiVG in
  your own copyright header and linking to KanjiVG's website
  (http://kanjivg.tagaini.net)
* Share Alike. If you alter, transform, or build upon this work, you may
  distribute the resulting work only under the same or similar license to this
  one.

See http://creativecommons.org/licenses/by-sa/3.0/ for more details.
-->
<!DOCTYPE svg PUBLIC "-//W3C//DTD SVG 1.0//EN" "http://www.w3.org/TR/2001/REC-SVG-20010904/DTD/svg10.dtd" [
<!ATTLIST g
xmlns:kvg CDATA #FIXED "http://kanjivg.tagaini.net"
kvg:element CDATA #IMPLIED
kvg:variant CDATA #IMPLIED
kvg:partial CDATA #IMPLIED
kvg:original CDATA #IMPLIED
kvg:part CDATA #IMPLIED
kvg:number CDATA #IMPLIED
kvg:tradForm CDATA #IMPLIED
kvg:radicalForm CDATA #IMPLIED
kvg:position CDATA #IMPLIED
kvg:radical CDATA #IMPLIED
kvg:phon CDATA #IMPLIED >
<!ATTLIST path
xmlns:kvg CDATA #FIXED "http://kanjivg.tagaini.net"
kvg:type CDATA #IMPLIED >
]>
<svg xmlns="http://www.w3.org/2000/svg" width="327" height = "327" viewBox="0 0 327 327">
<g id="kvg:StrokePaths_0825f" style="fill:none;stroke:#000000;stroke-width:3;stroke-linecap:round;stroke-linejoin:round;" transform="scale(3.0,3.0)">
<g id="kvg:0825f" kvg:element="艟">
	<g id="kvg:0825f-g1" kvg:element="舟" kvg:position="left" kvg:radical="general">
		<path style="stroke: #bf0909;" id="kvg:0825f-s1" kvg:type="㇒" d="M27.68,10.75c1.17,1.86,0.68,2.79-0.1,4.11C26,17.5,23.5,21.5,20.17,25.25"/>
		<path style="stroke: #bf4609;" id="kvg:0825f-s2" kvg:type="㇒" d="M17.42,27.08c0.91,1.27,1.17,2.41,1.17,4c0,1.59,0.58,22.79,0.68,25.65C19.72,69.25,15.5,86,8.08,91.25"/>
		<path style="stroke: #bf8209;" id="kvg:0825f-s3" kvg:type="㇆a" d="M18.5,28.64c3.6-0.64,12.69-2.86,15.95-3.5c3.26-0.64,3.09,1.27,3.09,3.5c0,2.22-0.34,56.21-0.34,59.39c0,9.97-6.25,2.36-6.94,1.72"/>
		<path style="stroke: #bfbf09;" id="kvg:0825f-s4" kvg:type="㇔" d="M24.7,34.19c1.43,2.03,4.99,7.44,5.34,9.8"/>
		<path style="stroke: #82bf09;" id="kvg:0825f-s5" kvg:type="㇑" d="M26.25,54.92c1,1.61,1.33,2.55,1.33,3.83c0,2.2,0.32,18.24,0,20.83"/>
		<path style="stroke: #46bf09;" id="kvg:0825f-s6" kvg:type="㇀/㇐" d="M10.58,54.58c0.38,1.24,2.88,0.83,4.08,0.49c1.21-0.33,28.32-9.74,29.83-9.74"/>
	</g>
	<g id="kvg:0825f-g2" kvg:element="童" kvg:position="right">
		<g id="kvg:0825f-g3" kvg:element="立" kvg:position="top">
			<g id="kvg:0825f-g4" kvg:element="亠" kvg:position="top">
				<path style="stroke: #09bf09;" id="kvg:0825f-s7" kvg:type="㇑a" d="M66.08,11.42c0.79,0.72,1.67,1.82,1.67,3.5c0,1.67,0,2.45,0,7"/>
				<path style="stroke: #09bf46;" id="kvg:0825f-s8" kvg:type="㇐" d="M48.25,23.19c0.89,0.22,3.51,0.88,6.5,0.69c8-0.52,23-2.05,30.5-2.68c2.49-0.21,4.59,0.46,5.33,0.57"/>
			</g>
			<g id="kvg:0825f-g5" kvg:position="bottom">
				<path style="stroke: #09bf82;" id="kvg:0825f-s9" kvg:type="㇔" d="M55.85,26.37c3.12,3.63,4.54,6.83,4.83,9.23"/>
				<path style="stroke: #09bfbf;" id="kvg:0825f-s10" kvg:type="㇒" d="M80.58,23.25c0.35,0.32,0.77,1.57,0.73,1.83c-0.28,1.81-2.88,7.56-3.58,8.95"/>
				<path style="stroke: #0982bf;" id="kvg:0825f-s11" kvg:type="㇐" d="M44.75,39.08c1.11,0.31,3.25,0.67,6.17,0.33C63.33,38,76.8,36.47,90.75,36.08c3-0.08,5.25,0.18,6.17,0.33"/>
			</g>
		</g>
		<g id="kvg:0825f-g6" kvg:element="里" kvg:position="bottom">
			<path style="stroke: #0946bf;" id="kvg:0825f-s12" kvg:type="㇑" d="M51.08,47.58c0.26,0.33,1.02,1.91,1.17,2.33c1.19,3.47,2.26,15.53,3,22"/>
			<path style="stroke: #0909bf;" id="kvg:0825f-s13" kvg:type="㇕a" d="M53.43,49.16c9.2-0.92,25.48-2.45,32.35-3.22c2.52-0.28,4.22,2.16,4.09,3.16c-0.47,3.67-1.68,13.36-3.45,21.15"/>
			<path style="stroke: #4609bf;" id="kvg:0825f-s14" kvg:type="㇐a" d="M54.58,59.25c3-0.34,30.02-2.36,32.5-2.5"/>
			<path style="stroke: #8209bf;" id="kvg:0825f-s15" kvg:type="㇐a" d="M55.75,70.42c6.63-0.37,20.85-1.73,30-2.33"/>
			<path style="stroke: #bf09bf;" id="kvg:0825f-s16" kvg:type="㇑a" d="M69.13,50.04c0.46,0.53,0.78,1.52,0.8,2.82c0.16,9.48,0.05,36.22,0.05,38.86"/>
			<path style="stroke: #bf0982;" id="kvg:0825f-s17" kvg:type="㇐" d="M51.58,79.78c0.65,0.25,4.34,0.84,5,0.81c6.8-0.28,19.42-1.71,27.83-1.76c0.35,0,3.43,0.05,5,0.41"/>
			<path style="stroke: #bf0946;" id="kvg:0825f-s18" kvg:type="㇐" d="M46.25,92.97c0.86,0.29,4.76,0.86,5.62,0.81c5.32-0.29,22.05-2,37.88-2c1.43,0,5.62,0.3,6.33,0.45"/>
		</g>
	</g>
</g>
</g>
<g id="kvg:StrokeNumbers_0825f" style="font-size:8;fill:#808080" transform="scale(3.0,3.0)">
	<text style="fill: #bf0909;" transform="matrix(1 0 0 1 20.25 9.88)">1</text>
	<text style="fill: #bf4609;" transform="matrix(1 0 0 1 8.25 31.25)">2</text>
	<text style="fill: #bf8209;" transform="matrix(1 0 0 1 30.25 23.25)">3</text>
	<text style="fill: #bfbf09;" transform="matrix(1 0 0 1 22.25 47.25)">4</text>
	<text style="fill: #82bf09;" transform="matrix(1 0 0 1 22.25 64.25)">5</text>
	<text style="fill: #46bf09;" transform="matrix(1 0 0 1 2.25 52.25)">6</text>
	<text style="fill: #09bf09;" transform="matrix(1 0 0 1 58.25 11.25)">7</text>
	<text style="fill: #09bf46;" transform="matrix(1 0 0 1 45.25 20.25)">8</text>
	<text style="fill: #09bf82;" transform="matrix(1 0 0 1 50.25 32.25)">9</text>
	<text style="fill: #09bfbf;" transform="matrix(1 0 0 1 69.25 31.25)">10</text>
	<text style="fill: #0982bf;" transform="matrix(1 0 0 1 42.25 36.25)">11</text>
	<text style="fill: #0946bf;" transform="matrix(1 0 0 1 42.25 56.05)">12</text>
	<text style="fill: #0909bf;" transform="matrix(1 0 0 1 53.25 46.25)">13</text>
	<text style="fill: #4609bf;" transform="matrix(1 0 0 1 57.25 57.25)">14</text>
	<text style="fill: #8209bf;" transform="matrix(1 0 0 1 57.25 68.25)">15</text>
	<text style="fill: #bf09bf;" transform="matrix(1 0 0 1 73.25 54.25)">16</text>
	<text style="fill: #bf0982;" transform="matrix(1 0 0 1 42.25 79.25)">17</text>
	<text style="fill: #bf0946;" transform="matrix(1 0 0 1 41.25 90.25)">18</text>
</g>
</svg>
