<?xml version="1.0" encoding="UTF-8"?>
<!--
This file has been modified from the original version by the kanji_colorize.py
script (available at http://github.com/cayennes/kanji-colorize) with these
settings:
    mode: spectrum
    saturation: 0.95
    value: 0.75
    image_size: 327
It remains under a Creative Commons-Attribution-Share Alike 3.0 License.

The original SVG has the following copyright:

Copyright (C) 2009/2010/2011 Ulrich Apel.
This work is distributed under the conditions of the Creative Commons
Attribution-Share Alike 3.0 Licence. This means you are free:
* to Share - to copy, distribute and transmit the work
* to Remix - to adapt the work

Under the following conditions:
* Attribution. You must attribute the work by stating your use of KanjiVG in
  your own copyright header and linking to KanjiVG's website
  (http://kanjivg.tagaini.net)
* Share Alike. If you alter, transform, or build upon this work, you may
  distribute the resulting work only under the same or similar license to this
  one.

See http://creativecommons.org/licenses/by-sa/3.0/ for more details.
-->
<!DOCTYPE svg PUBLIC "-//W3C//DTD SVG 1.0//EN" "http://www.w3.org/TR/2001/REC-SVG-20010904/DTD/svg10.dtd" [
<!ATTLIST g
xmlns:kvg CDATA #FIXED "http://kanjivg.tagaini.net"
kvg:element CDATA #IMPLIED
kvg:variant CDATA #IMPLIED
kvg:partial CDATA #IMPLIED
kvg:original CDATA #IMPLIED
kvg:part CDATA #IMPLIED
kvg:number CDATA #IMPLIED
kvg:tradForm CDATA #IMPLIED
kvg:radicalForm CDATA #IMPLIED
kvg:position CDATA #IMPLIED
kvg:radical CDATA #IMPLIED
kvg:phon CDATA #IMPLIED >
<!ATTLIST path
xmlns:kvg CDATA #FIXED "http://kanjivg.tagaini.net"
kvg:type CDATA #IMPLIED >
]>
<svg xmlns="http://www.w3.org/2000/svg" width="327" height = "327" viewBox="0 0 327 327">
<g id="kvg:StrokePaths_0825d" style="fill:none;stroke:#000000;stroke-width:3;stroke-linecap:round;stroke-linejoin:round;" transform="scale(3.0,3.0)">
<g id="kvg:0825d" kvg:element="艝">
	<g id="kvg:0825d-g1" kvg:element="舟" kvg:position="left" kvg:radical="general">
		<path style="stroke: #bf0909;" id="kvg:0825d-s1" kvg:type="㇒" d="M29.08,11.75c0.42,1.75,0.16,3.01-0.5,4.5c-1.33,3-3.58,6.25-6.92,11"/>
		<path style="stroke: #bf4909;" id="kvg:0825d-s2" kvg:type="㇒" d="M18.08,28.08c0.9,1.38,1.17,2.94,1.17,4.67c0,1.72,0.08,25.29,0.18,28.39c0.45,13.58-6.54,30.55-11.02,37.44"/>
		<path style="stroke: #bf8909;" id="kvg:0825d-s3" kvg:type="㇆a" d="M19.75,30.58c3.29-0.61,13.27-2.75,16.3-2.94c2.2-0.14,2.82,2.23,2.82,4.38c0,2.15-0.31,53.27-0.31,56.34c0,9.64-4.8,3.14-5.8,1.39"/>
		<path style="stroke: #b4bf09;" id="kvg:0825d-s4" kvg:type="㇔" d="M26.2,38.27c1.43,1.77,4.99,6.49,5.34,8.55"/>
		<path style="stroke: #74bf09;" id="kvg:0825d-s5" kvg:type="㇑" d="M27.27,58.14c1.06,1.62,1.28,2.6,1.28,3.89c0,1.3,0.28,16.82-0.15,20.05"/>
		<path style="stroke: #34bf09;" id="kvg:0825d-s6" kvg:type="㇀/㇐" d="M10.42,58.92c0.4,1.29,3.16,1.67,4.44,1.32C16.14,59.89,42.5,50.75,46,49.67"/>
	</g>
	<g id="kvg:0825d-g2" kvg:element="雪" kvg:position="right">
		<g id="kvg:0825d-g3" kvg:element="雨" kvg:variant="true" kvg:position="top">
			<path style="stroke: #09bf1e;" id="kvg:0825d-s7" kvg:type="㇐" d="M52.58,19.25c0.99,0.15,2.2,0.43,5,0c4.92-0.75,17.13-1.88,25.33-2.5c1.25-0.09,3.85,0.46,5,0.67"/>
			<path style="stroke: #09bf5f;" id="kvg:0825d-s8" kvg:type="㇔/㇑" d="M49.24,27.18c-0.19,4.94-1.85,10.36-3.08,15.34"/>
			<path style="stroke: #09bf9f;" id="kvg:0825d-s9" kvg:type="㇖b/㇆" d="M49.25,31.08C56,30,81.2,25.53,90.86,25.25c8.64-0.25,0.51,6.17-1.37,7.67"/>
			<path style="stroke: #099fbf;" id="kvg:0825d-s10" kvg:type="㇑" d="M68.08,21.25c0.89,0.63,1.33,1.5,1.33,3.17c0,0.51-0.17,28.94-0.17,30.33"/>
			<path style="stroke: #095fbf;" id="kvg:0825d-s11" kvg:type="㇔" d="M56.09,36.48c2.13,1.02,5.03,4.07,6.19,5.75"/>
			<path style="stroke: #091ebf;" id="kvg:0825d-s12" kvg:type="㇔" d="M55.02,47.81c2.31,0.86,5.87,4.02,7.13,5.46"/>
			<path style="stroke: #3409bf;" id="kvg:0825d-s13" kvg:type="㇔" d="M76.69,34.89c2.66,1.32,5.67,3.95,6.74,5.05"/>
			<path style="stroke: #7409bf;" id="kvg:0825d-s14" kvg:type="㇔" d="M75.71,46.04c3.27,1.22,7.74,4.89,9.52,6.94"/>
		</g>
		<g id="kvg:0825d-g4" kvg:element="⺕" kvg:variant="true" kvg:original="彑" kvg:position="bottom">
			<path style="stroke: #b409bf;" id="kvg:0825d-s15" kvg:type="㇕" d="M52.75,63.25c2,0.75,4.27,0.85,5.83,0.67c9.92-1.17,18.54-2.17,26-2.17c2.2,0,3.5,1.5,3.5,3.67c0,12.02-0.67,22.58-0.67,29.17"/>
			<path style="stroke: #bf0989;" id="kvg:0825d-s16" kvg:type="㇐" d="M46.42,76.08c2.08,0.92,3.82,0.9,5.33,0.83c15-0.67,27.05-1.47,39.67-2c2.02-0.08,6.32-0.1,7.83,0.17"/>
			<path style="stroke: #bf0949;" id="kvg:0825d-s17" kvg:type="㇐c" d="M52.08,91.92c1.17,0.33,2.67,1.33,5,1.17c9.09-0.65,19.19-1.49,27.47-1.68c1.32-0.03,1.54-0.08,2.53,0.01"/>
		</g>
	</g>
</g>
</g>
<g id="kvg:StrokeNumbers_0825d" style="font-size:8;fill:#808080" transform="scale(3.0,3.0)">
	<text style="fill: #bf0909;" transform="matrix(1 0 0 1 22.25 11.25)">1</text>
	<text style="fill: #bf4909;" transform="matrix(1 0 0 1 8.25 28.25)">2</text>
	<text style="fill: #bf8909;" transform="matrix(1 0 0 1 32.00 25.23)">3</text>
	<text style="fill: #b4bf09;" transform="matrix(1 0 0 1 23.25 46.25)">4</text>
	<text style="fill: #74bf09;" transform="matrix(1 0 0 1 22.25 66.25)">5</text>
	<text style="fill: #34bf09;" transform="matrix(1 0 0 1 3.25 58.25)">6</text>
	<text style="fill: #09bf1e;" transform="matrix(1 0 0 1 52.25 16.25)">7</text>
	<text style="fill: #09bf5f;" transform="matrix(1 0 0 1 43.25 29.25)">8</text>
	<text style="fill: #09bf9f;" transform="matrix(1 0 0 1 52.25 27.25)">9</text>
	<text style="fill: #099fbf;" transform="matrix(1 0 0 1 72.25 24.25)">10</text>
	<text style="fill: #095fbf;" transform="matrix(1 0 0 1 50.25 44.63)">11</text>
	<text style="fill: #091ebf;" transform="matrix(1 0 0 1 49.00 54.25)">12</text>
	<text style="fill: #3409bf;" transform="matrix(1 0 0 1 72.00 42.25)">13</text>
	<text style="fill: #7409bf;" transform="matrix(1 0 0 1 72.25 55.25)">14</text>
	<text style="fill: #b409bf;" transform="matrix(1 0 0 1 42.25 64.25)">15</text>
	<text style="fill: #bf0989;" transform="matrix(1 0 0 1 41.25 73.25)">16</text>
	<text style="fill: #bf0949;" transform="matrix(1 0 0 1 43.25 91.25)">17</text>
</g>
</svg>
