<?xml version="1.0" encoding="UTF-8"?>
<!--
This file has been modified from the original version by the kanji_colorize.py
script (available at http://github.com/cayennes/kanji-colorize) with these
settings:
    mode: spectrum
    saturation: 0.95
    value: 0.75
    image_size: 327
It remains under a Creative Commons-Attribution-Share Alike 3.0 License.

The original SVG has the following copyright:

Copyright (C) 2009/2010/2011 Ulrich Apel.
This work is distributed under the conditions of the Creative Commons
Attribution-Share Alike 3.0 Licence. This means you are free:
* to Share - to copy, distribute and transmit the work
* to Remix - to adapt the work

Under the following conditions:
* Attribution. You must attribute the work by stating your use of KanjiVG in
  your own copyright header and linking to KanjiVG's website
  (http://kanjivg.tagaini.net)
* Share Alike. If you alter, transform, or build upon this work, you may
  distribute the resulting work only under the same or similar license to this
  one.

See http://creativecommons.org/licenses/by-sa/3.0/ for more details.
-->
<!DOCTYPE svg PUBLIC "-//W3C//DTD SVG 1.0//EN" "http://www.w3.org/TR/2001/REC-SVG-20010904/DTD/svg10.dtd" [
<!ATTLIST g
xmlns:kvg CDATA #FIXED "http://kanjivg.tagaini.net"
kvg:element CDATA #IMPLIED
kvg:variant CDATA #IMPLIED
kvg:partial CDATA #IMPLIED
kvg:original CDATA #IMPLIED
kvg:part CDATA #IMPLIED
kvg:number CDATA #IMPLIED
kvg:tradForm CDATA #IMPLIED
kvg:radicalForm CDATA #IMPLIED
kvg:position CDATA #IMPLIED
kvg:radical CDATA #IMPLIED
kvg:phon CDATA #IMPLIED >
<!ATTLIST path
xmlns:kvg CDATA #FIXED "http://kanjivg.tagaini.net"
kvg:type CDATA #IMPLIED >
]>
<svg xmlns="http://www.w3.org/2000/svg" width="327" height = "327" viewBox="0 0 327 327">
<g id="kvg:StrokePaths_0826f" style="fill:none;stroke:#000000;stroke-width:3;stroke-linecap:round;stroke-linejoin:round;" transform="scale(3.0,3.0)">
<g id="kvg:0826f" kvg:element="良">
	<path style="stroke: #bf0909;" id="kvg:0826f-s1" kvg:type="㇑a" d="M51.34,9.75c0.89,0.89,1.28,2.5,1.28,3.78c0,1.99,0.06,7.1,0.06,10.09"/>
	<g id="kvg:0826f-g1" kvg:element="艮" kvg:radical="general">
		<path style="stroke: #bfa509;" id="kvg:0826f-s2" kvg:type="㇕" d="M31.12,26.12c1.12,0.75,2.87,1.09,4.75,0.8c11.75-1.8,33.19-4.43,35.54-4.56c2.3-0.12,3.71,1.5,3.61,3.28c-0.25,4.37-1.94,14.62-3.6,22.76c-0.27,1.31-0.54,2.57-0.8,3.75"/>
		<path style="stroke: #3dbf09;" id="kvg:0826f-s3" kvg:type="㇐a" d="M35.19,39.95c10.56-1.58,29.98-3.58,37.32-4.04"/>
		<path style="stroke: #09bf71;" id="kvg:0826f-s4" kvg:type="㇐a" d="M35.33,53.33c11.05-1.2,23.44-2.23,34.81-3.11"/>
		<path style="stroke: #0971bf;" id="kvg:0826f-s5" kvg:type="㇙" d="M32.51,27.24c1.12,1.12,1.61,2.71,1.61,3.88c0,4.63,0.1,54.75,0.1,59.57c0,2.54,1.03,4.81,3.62,2.95c4.96-3.57,8.91-6.64,14.91-11.39"/>
		<path style="stroke: #3d09bf;" id="kvg:0826f-s6" kvg:type="㇒" d="M82.05,52.69c0.2,1.56-0.43,2.87-1.54,4.01c-1.75,1.8-8.5,7.92-14.87,12.49"/>
		<path style="stroke: #bf09a5;" id="kvg:0826f-s7" kvg:type="㇏" d="M44.32,61.84c5.72,0,35.24,24.86,39.64,27.33c3.91,2.2,5.91,3.32,9.61,4.37"/>
	</g>
</g>
</g>
<g id="kvg:StrokeNumbers_0826f" style="font-size:8;fill:#808080" transform="scale(3.0,3.0)">
	<text style="fill: #bf0909;" transform="matrix(1 0 0 1 42.50 10.50)">1</text>
	<text style="fill: #bfa509;" transform="matrix(1 0 0 1 36.50 23.50)">2</text>
	<text style="fill: #3dbf09;" transform="matrix(1 0 0 1 39.75 35.50)">3</text>
	<text style="fill: #09bf71;" transform="matrix(1 0 0 1 39.75 49.50)">4</text>
	<text style="fill: #0971bf;" transform="matrix(1 0 0 1 26.50 35.50)">5</text>
	<text style="fill: #3d09bf;" transform="matrix(1 0 0 1 84.50 51.13)">6</text>
	<text style="fill: #bf09a5;" transform="matrix(1 0 0 1 39.50 61.50)">7</text>
</g>
</svg>
