<?xml version="1.0" encoding="UTF-8"?>
<!--
This file has been modified from the original version by the kanji_colorize.py
script (available at http://github.com/cayennes/kanji-colorize) with these
settings:
    mode: spectrum
    saturation: 0.95
    value: 0.75
    image_size: 327
It remains under a Creative Commons-Attribution-Share Alike 3.0 License.

The original SVG has the following copyright:

Copyright (C) 2009/2010/2011 Ulrich Apel.
This work is distributed under the conditions of the Creative Commons
Attribution-Share Alike 3.0 Licence. This means you are free:
* to Share - to copy, distribute and transmit the work
* to Remix - to adapt the work

Under the following conditions:
* Attribution. You must attribute the work by stating your use of KanjiVG in
  your own copyright header and linking to KanjiVG's website
  (http://kanjivg.tagaini.net)
* Share Alike. If you alter, transform, or build upon this work, you may
  distribute the resulting work only under the same or similar license to this
  one.

See http://creativecommons.org/licenses/by-sa/3.0/ for more details.
-->
<!DOCTYPE svg PUBLIC "-//W3C//DTD SVG 1.0//EN" "http://www.w3.org/TR/2001/REC-SVG-20010904/DTD/svg10.dtd" [
<!ATTLIST g
xmlns:kvg CDATA #FIXED "http://kanjivg.tagaini.net"
kvg:element CDATA #IMPLIED
kvg:variant CDATA #IMPLIED
kvg:partial CDATA #IMPLIED
kvg:original CDATA #IMPLIED
kvg:part CDATA #IMPLIED
kvg:number CDATA #IMPLIED
kvg:tradForm CDATA #IMPLIED
kvg:radicalForm CDATA #IMPLIED
kvg:position CDATA #IMPLIED
kvg:radical CDATA #IMPLIED
kvg:phon CDATA #IMPLIED >
<!ATTLIST path
xmlns:kvg CDATA #FIXED "http://kanjivg.tagaini.net"
kvg:type CDATA #IMPLIED >
]>
<svg xmlns="http://www.w3.org/2000/svg" width="327" height = "327" viewBox="0 0 327 327">
<g id="kvg:StrokePaths_082b9" style="fill:none;stroke:#000000;stroke-width:3;stroke-linecap:round;stroke-linejoin:round;" transform="scale(3.0,3.0)">
<g id="kvg:082b9" kvg:element="芹">
	<g id="kvg:082b9-g1" kvg:element="艹" kvg:variant="true" kvg:original="艸" kvg:position="top" kvg:radical="general">
		<path style="stroke: #bf0909;" id="kvg:082b9-s1" kvg:type="㇐" d="M19.75,28.74c3.62,0.73,6.69,0.31,9.75,0.05c13.23-1.13,37.51-3.26,51.75-3.88c3.55-0.16,7.27-0.52,10.75,0.34"/>
		<path style="stroke: #bfa509;" id="kvg:082b9-s2" kvg:type="㇑a" d="M39.25,17.97c1,1,1.56,2.12,1.75,3c1.75,8.25,2.75,15.25,3.25,18.25"/>
		<path style="stroke: #3dbf09;" id="kvg:082b9-s3" kvg:type="㇑a" d="M68.3,15.47c0.56,1.25,0.52,2.26,0.22,3.75c-1.57,8-1.8,9.5-3.15,16.5"/>
	</g>
	<g id="kvg:082b9-g2" kvg:element="斤" kvg:position="bottom">
		<path style="stroke: #09bf71;" id="kvg:082b9-s4" kvg:type="㇒" d="M73.99,35.97c-0.36,1.38-1.5,2.21-2.55,2.65c-8.57,3.6-20.64,6.95-38.19,10.39"/>
		<path style="stroke: #0971bf;" id="kvg:082b9-s5" kvg:type="㇒" d="M29.68,47.21c0.7,1.01,1.02,2.4,1.02,4.02c0,25.87-4.82,39.62-14.89,48.23"/>
		<path style="stroke: #3d09bf;" id="kvg:082b9-s6" kvg:type="㇐" d="M33.5,62.7c2.5,0.39,5.14-0.02,7.75-0.21c11.58-0.85,31.59-2.3,43.12-3.17c2.81-0.21,5.82-0.61,8.62-0.19"/>
		<path style="stroke: #bf09a5;" id="kvg:082b9-s7" kvg:type="㇑" d="M63.62,63.64c1.1,1.1,1.07,2.21,1.07,3.66c0,0.84-0.02,17.99-0.03,29.67c0,3.39,0,6.31,0,8.25"/>
	</g>
</g>
</g>
<g id="kvg:StrokeNumbers_082b9" style="font-size:8;fill:#808080" transform="scale(3.0,3.0)">
	<text style="fill: #bf0909;" transform="matrix(1 0 0 1 17.24 25.88)">1</text>
	<text style="fill: #bfa509;" transform="matrix(1 0 0 1 33.60 16.68)">2</text>
	<text style="fill: #3dbf09;" transform="matrix(1 0 0 1 62.74 13.10)">3</text>
	<text style="fill: #09bf71;" transform="matrix(1 0 0 1 76.97 39.01)">4</text>
	<text style="fill: #0971bf;" transform="matrix(1 0 0 1 23.39 52.41)">5</text>
	<text style="fill: #3d09bf;" transform="matrix(1 0 0 1 35.09 59.60)">6</text>
	<text style="fill: #bf09a5;" transform="matrix(1 0 0 1 57.13 71.27)">7</text>
</g>
</svg>
