<?xml version="1.0" encoding="UTF-8"?>
<!--
This file has been modified from the original version by the kanji_colorize.py
script (available at http://github.com/cayennes/kanji-colorize) with these
settings:
    mode: spectrum
    saturation: 0.95
    value: 0.75
    image_size: 327
It remains under a Creative Commons-Attribution-Share Alike 3.0 License.

The original SVG has the following copyright:

Copyright (C) 2009/2010/2011 Ulrich Apel.
This work is distributed under the conditions of the Creative Commons
Attribution-Share Alike 3.0 Licence. This means you are free:
* to Share - to copy, distribute and transmit the work
* to Remix - to adapt the work

Under the following conditions:
* Attribution. You must attribute the work by stating your use of KanjiVG in
  your own copyright header and linking to KanjiVG's website
  (http://kanjivg.tagaini.net)
* Share Alike. If you alter, transform, or build upon this work, you may
  distribute the resulting work only under the same or similar license to this
  one.

See http://creativecommons.org/licenses/by-sa/3.0/ for more details.
-->
<!DOCTYPE svg PUBLIC "-//W3C//DTD SVG 1.0//EN" "http://www.w3.org/TR/2001/REC-SVG-20010904/DTD/svg10.dtd" [
<!ATTLIST g
xmlns:kvg CDATA #FIXED "http://kanjivg.tagaini.net"
kvg:element CDATA #IMPLIED
kvg:variant CDATA #IMPLIED
kvg:partial CDATA #IMPLIED
kvg:original CDATA #IMPLIED
kvg:part CDATA #IMPLIED
kvg:number CDATA #IMPLIED
kvg:tradForm CDATA #IMPLIED
kvg:radicalForm CDATA #IMPLIED
kvg:position CDATA #IMPLIED
kvg:radical CDATA #IMPLIED
kvg:phon CDATA #IMPLIED >
<!ATTLIST path
xmlns:kvg CDATA #FIXED "http://kanjivg.tagaini.net"
kvg:type CDATA #IMPLIED >
]>
<svg xmlns="http://www.w3.org/2000/svg" width="327" height = "327" viewBox="0 0 327 327">
<g id="kvg:StrokePaths_082b1" style="fill:none;stroke:#000000;stroke-width:3;stroke-linecap:round;stroke-linejoin:round;" transform="scale(3.0,3.0)">
<g id="kvg:082b1" kvg:element="花">
	<g id="kvg:082b1-g1" kvg:element="艹" kvg:variant="true" kvg:original="艸" kvg:position="top" kvg:radical="general">
		<path style="stroke: #bf0909;" id="kvg:082b1-s1" kvg:type="㇐" d="M17,29.77c3,0.73,6.35,0.54,9.37,0.29c16.22-1.35,36.31-4.64,56.76-4.79c2.4-0.02,4.77,0.04,7.12,0.51"/>
		<path style="stroke: #bfa509;" id="kvg:082b1-s2" kvg:type="㇑a" d="M32.25,16c1.25,0.5,2.25,1.62,2.5,2.75c1.33,5.97,4.86,19.92,5,20.75"/>
		<path style="stroke: #3dbf09;" id="kvg:082b1-s3" kvg:type="㇑a" d="M71.25,12.5c0.42,1.18,0.47,3.05,0,4.5c-2.19,6.77-6.14,19.12-6.75,20.75"/>
	</g>
	<g id="kvg:082b1-g2" kvg:element="化" kvg:position="bottom" kvg:phon="化">
		<g id="kvg:082b1-g3" kvg:element="亻" kvg:variant="true" kvg:original="人">
			<path style="stroke: #09bf71;" id="kvg:082b1-s4" kvg:type="㇒" d="M38.25,48.25c0.25,1.75-0.37,3.31-0.98,4.44C33.25,60,24.8,69.67,19.5,74.5"/>
			<path style="stroke: #0971bf;" id="kvg:082b1-s5" kvg:type="㇑" d="M30.75,65.5c0.75,1,1.12,1.97,1.12,3c0,6.64-0.08,16.47-0.11,24c-0.01,1.96-0.01,3.82-0.01,5.5"/>
		</g>
		<g id="kvg:082b1-g4" kvg:element="匕">
			<path style="stroke: #3d09bf;" id="kvg:082b1-s6" kvg:type="㇒" d="M84.25,50.25c-0.12,1.62-0.84,2.87-2,3.75c-4.62,3.5-11,6.75-19,9.75"/>
			<path style="stroke: #bf09a5;" id="kvg:082b1-s7" kvg:type="㇟" d="M58.25,43.75c1.06,1.06,1.5,2.5,1.5,4.75c0,2.96-0.22,20.59-0.22,31.25C59.53,93,63,94.15,77,94.15c16.25,0,18-2.65,18-11.15"/>
		</g>
	</g>
</g>
</g>
<g id="kvg:StrokeNumbers_082b1" style="font-size:8;fill:#808080" transform="scale(3.0,3.0)">
	<text style="fill: #bf0909;" transform="matrix(1 0 0 1 9.50 30.13)">1</text>
	<text style="fill: #bfa509;" transform="matrix(1 0 0 1 22.50 15.50)">2</text>
	<text style="fill: #3dbf09;" transform="matrix(1 0 0 1 62.50 12.50)">3</text>
	<text style="fill: #09bf71;" transform="matrix(1 0 0 1 28.50 48.50)">4</text>
	<text style="fill: #0971bf;" transform="matrix(1 0 0 1 24.50 78.50)">5</text>
	<text style="fill: #3d09bf;" transform="matrix(1 0 0 1 74.50 49.50)">6</text>
	<text style="fill: #bf09a5;" transform="matrix(1 0 0 1 50.50 44.50)">7</text>
</g>
</svg>
