<?xml version="1.0" encoding="UTF-8"?>
<!--
This file has been modified from the original version by the kanji_colorize.py
script (available at http://github.com/cayennes/kanji-colorize) with these
settings:
    mode: spectrum
    saturation: 0.95
    value: 0.75
    image_size: 327
It remains under a Creative Commons-Attribution-Share Alike 3.0 License.

The original SVG has the following copyright:

Copyright (C) 2009/2010/2011 Ulrich Apel.
This work is distributed under the conditions of the Creative Commons
Attribution-Share Alike 3.0 Licence. This means you are free:
* to Share - to copy, distribute and transmit the work
* to Remix - to adapt the work

Under the following conditions:
* Attribution. You must attribute the work by stating your use of KanjiVG in
  your own copyright header and linking to KanjiVG's website
  (http://kanjivg.tagaini.net)
* Share Alike. If you alter, transform, or build upon this work, you may
  distribute the resulting work only under the same or similar license to this
  one.

See http://creativecommons.org/licenses/by-sa/3.0/ for more details.
-->
<!DOCTYPE svg PUBLIC "-//W3C//DTD SVG 1.0//EN" "http://www.w3.org/TR/2001/REC-SVG-20010904/DTD/svg10.dtd" [
<!ATTLIST g
xmlns:kvg CDATA #FIXED "http://kanjivg.tagaini.net"
kvg:element CDATA #IMPLIED
kvg:variant CDATA #IMPLIED
kvg:partial CDATA #IMPLIED
kvg:original CDATA #IMPLIED
kvg:part CDATA #IMPLIED
kvg:number CDATA #IMPLIED
kvg:tradForm CDATA #IMPLIED
kvg:radicalForm CDATA #IMPLIED
kvg:position CDATA #IMPLIED
kvg:radical CDATA #IMPLIED
kvg:phon CDATA #IMPLIED >
<!ATTLIST path
xmlns:kvg CDATA #FIXED "http://kanjivg.tagaini.net"
kvg:type CDATA #IMPLIED >
]>
<svg xmlns="http://www.w3.org/2000/svg" width="327" height = "327" viewBox="0 0 327 327">
<g id="kvg:StrokePaths_082b8" style="fill:none;stroke:#000000;stroke-width:3;stroke-linecap:round;stroke-linejoin:round;" transform="scale(3.0,3.0)">
<g id="kvg:082b8" kvg:element="芸">
	<g id="kvg:082b8-g1" kvg:element="艹" kvg:variant="true" kvg:original="艸" kvg:position="top" kvg:radical="general">
		<path style="stroke: #bf0909;" id="kvg:082b8-s1" kvg:type="㇐" d="M19.5,27.52c2.4,0.98,5.13,0.44,7.61,0.24c12.74-1.01,38.67-3.21,53.01-3.66c3.04-0.1,6.14-0.31,9.12,0.42"/>
		<path style="stroke: #bfa509;" id="kvg:082b8-s2" kvg:type="㇑a" d="M38.25,14.5c1.25,0.75,2.02,1.87,2.25,3.25C42,26.88,42.38,31.25,43,36"/>
		<path style="stroke: #3dbf09;" id="kvg:082b8-s3" kvg:type="㇑a" d="M70.25,13c0.42,1.18,0.77,2,0.5,3.5c-1.38,7.62-2.12,11.12-3.75,18"/>
	</g>
	<g id="kvg:082b8-g2" kvg:element="云" kvg:position="bottom">
		<g id="kvg:082b8-g3" kvg:element="二" kvg:position="top">
			<path style="stroke: #09bf71;" id="kvg:082b8-s4" kvg:type="㇐" d="M31.25,45.2c2.04,0.75,4.68,0.78,6.76,0.64c9.81-0.66,21.41-1.71,31.61-2.37c2.38-0.15,4.78-0.41,7.13,0.11"/>
			<path style="stroke: #0971bf;" id="kvg:082b8-s5" kvg:type="㇐" d="M16.75,61.63c3.34,0.89,6.89,0.51,10.26,0.22c15.33-1.33,42.06-3.21,56.98-3.53c3.25-0.07,6.53-0.18,9.76,0.33"/>
		</g>
		<g id="kvg:082b8-g4" kvg:element="厶" kvg:position="bottom">
			<path style="stroke: #3d09bf;" id="kvg:082b8-s6" kvg:type="㇜" d="M50.74,63.68c0.38,1.32,0,3.46-1.13,4.82C43.62,75.75,38.62,81,30.9,88.73c-3.96,3.96-3.15,5.39,1.93,4.28c15.22-3.33,25.67-5.27,43.92-9.27"/>
			<path style="stroke: #bf09a5;" id="kvg:082b8-s7" kvg:type="㇔" d="M68.25,74.5c6.5,4,14.25,13.5,16.31,19.97"/>
		</g>
	</g>
</g>
</g>
<g id="kvg:StrokeNumbers_082b8" style="font-size:8;fill:#808080" transform="scale(3.0,3.0)">
	<text style="fill: #bf0909;" transform="matrix(1 0 0 1 12.49 28.63)">1</text>
	<text style="fill: #bfa509;" transform="matrix(1 0 0 1 30.49 15.06)">2</text>
	<text style="fill: #3dbf09;" transform="matrix(1 0 0 1 61.99 13.48)">3</text>
	<text style="fill: #09bf71;" transform="matrix(1 0 0 1 24.49 46.41)">4</text>
	<text style="fill: #0971bf;" transform="matrix(1 0 0 1 9.49 62.83)">5</text>
	<text style="fill: #3d09bf;" transform="matrix(1 0 0 1 39.49 71.76)">6</text>
	<text style="fill: #bf09a5;" transform="matrix(1 0 0 1 61.99 73.18)">7</text>
</g>
</svg>
