<?xml version="1.0" encoding="UTF-8"?>
<!--
This file has been modified from the original version by the kanji_colorize.py
script (available at http://github.com/cayennes/kanji-colorize) with these
settings:
    mode: spectrum
    saturation: 0.95
    value: 0.75
    image_size: 327
It remains under a Creative Commons-Attribution-Share Alike 3.0 License.

The original SVG has the following copyright:

Copyright (C) 2009/2010/2011 Ulrich Apel.
This work is distributed under the conditions of the Creative Commons
Attribution-Share Alike 3.0 Licence. This means you are free:
* to Share - to copy, distribute and transmit the work
* to Remix - to adapt the work

Under the following conditions:
* Attribution. You must attribute the work by stating your use of KanjiVG in
  your own copyright header and linking to KanjiVG's website
  (http://kanjivg.tagaini.net)
* Share Alike. If you alter, transform, or build upon this work, you may
  distribute the resulting work only under the same or similar license to this
  one.

See http://creativecommons.org/licenses/by-sa/3.0/ for more details.
-->
<!DOCTYPE svg PUBLIC "-//W3C//DTD SVG 1.0//EN" "http://www.w3.org/TR/2001/REC-SVG-20010904/DTD/svg10.dtd" [
<!ATTLIST g
xmlns:kvg CDATA #FIXED "http://kanjivg.tagaini.net"
kvg:element CDATA #IMPLIED
kvg:variant CDATA #IMPLIED
kvg:partial CDATA #IMPLIED
kvg:original CDATA #IMPLIED
kvg:part CDATA #IMPLIED
kvg:number CDATA #IMPLIED
kvg:tradForm CDATA #IMPLIED
kvg:radicalForm CDATA #IMPLIED
kvg:position CDATA #IMPLIED
kvg:radical CDATA #IMPLIED
kvg:phon CDATA #IMPLIED >
<!ATTLIST path
xmlns:kvg CDATA #FIXED "http://kanjivg.tagaini.net"
kvg:type CDATA #IMPLIED >
]>
<svg xmlns="http://www.w3.org/2000/svg" width="327" height = "327" viewBox="0 0 327 327">
<g id="kvg:StrokePaths_082d3" style="fill:none;stroke:#000000;stroke-width:3;stroke-linecap:round;stroke-linejoin:round;" transform="scale(3.0,3.0)">
<g id="kvg:082d3" kvg:element="苓">
	<g id="kvg:082d3-g1" kvg:element="艹" kvg:variant="true" kvg:original="艸" kvg:position="top" kvg:radical="general">
		<path style="stroke: #bf0909;" id="kvg:082d3-s1" kvg:type="㇐" d="M16.5,22.74c1.41,0.56,3.04,0.67,4.45,0.56c12.93-1.01,50.97-4.71,65.87-4.78c2.34-0.01,3.75,0.26,4.92,0.54"/>
		<path style="stroke: #bf9109;" id="kvg:082d3-s2" kvg:type="㇑a" d="M36.25,11c1.75,1.43,2.31,1.87,2.5,2.75C40.5,22,40,29,40.5,32"/>
		<path style="stroke: #64bf09;" id="kvg:082d3-s3" kvg:type="㇑a" d="M67.25,8.75c1.12,1,1.87,2.52,1.5,4c-1.12,4.5-1.88,11.5-3.5,17.25"/>
	</g>
	<g id="kvg:082d3-g2" kvg:element="令" kvg:position="bottom">
		<g id="kvg:082d3-g3" kvg:element="人" kvg:position="top">
			<path style="stroke: #09bf36;" id="kvg:082d3-s4" kvg:type="㇒" d="M52.13,27.5c0.11,0.9,0.49,2.36-0.22,3.62c-4.49,7.93-18.73,24.16-35.41,33.8"/>
			<path style="stroke: #09bfbf;" id="kvg:082d3-s5" kvg:type="㇏" d="M52.6,30.57c6.44,4.56,29.9,23.01,35.34,26.8c1.85,1.29,4.22,1.84,6.06,2.2"/>
		</g>
		<g id="kvg:082d3-g4" kvg:position="bottom">
			<g id="kvg:082d3-g5" kvg:element="一">
				<path style="stroke: #0936bf;" id="kvg:082d3-s6" kvg:type="㇔" d="M47.67,48.26c4.42,1.71,11.42,7.02,12.52,9.67"/>
			</g>
			<g id="kvg:082d3-g6" kvg:element="マ">
				<path style="stroke: #6409bf;" id="kvg:082d3-s7" kvg:type="㇆a" d="M29.15,66.46c1.28,0.73,3.97,1.09,5.43,0.9c2.88-0.37,38.71-4,41.75-4.36c3.04-0.37,3.3,1.36,1.12,3.31c-5.11,4.56-20.98,18.95-22.9,20.41"/>
				<path style="stroke: #bf0991;" id="kvg:082d3-s8" kvg:type="㇔" d="M40.26,77.5c5.69,2.75,20.41,13.31,23.09,20.5"/>
			</g>
		</g>
	</g>
</g>
</g>
<g id="kvg:StrokeNumbers_082d3" style="font-size:8;fill:#808080" transform="scale(3.0,3.0)">
	<text style="fill: #bf0909;" transform="matrix(1 0 0 1 9.50 23.50)">1</text>
	<text style="fill: #bf9109;" transform="matrix(1 0 0 1 28.66 11.85)">2</text>
	<text style="fill: #64bf09;" transform="matrix(1 0 0 1 59.71 12.85)">3</text>
	<text style="fill: #09bf36;" transform="matrix(1 0 0 1 36.50 40.50)">4</text>
	<text style="fill: #09bfbf;" transform="matrix(1 0 0 1 66.50 38.50)">5</text>
	<text style="fill: #0936bf;" transform="matrix(1 0 0 1 48.50 46.50)">6</text>
	<text style="fill: #6409bf;" transform="matrix(1 0 0 1 30.50 64.50)">7</text>
	<text style="fill: #bf0991;" transform="matrix(1 0 0 1 31.50 79.50)">8</text>
</g>
</svg>
