<?xml version="1.0" encoding="UTF-8"?>
<!--
This file has been modified from the original version by the kanji_colorize.py
script (available at http://github.com/cayennes/kanji-colorize) with these
settings:
    mode: spectrum
    saturation: 0.95
    value: 0.75
    image_size: 327
It remains under a Creative Commons-Attribution-Share Alike 3.0 License.

The original SVG has the following copyright:

Copyright (C) 2009/2010/2011 Ulrich Apel.
This work is distributed under the conditions of the Creative Commons
Attribution-Share Alike 3.0 Licence. This means you are free:
* to Share - to copy, distribute and transmit the work
* to Remix - to adapt the work

Under the following conditions:
* Attribution. You must attribute the work by stating your use of KanjiVG in
  your own copyright header and linking to KanjiVG's website
  (http://kanjivg.tagaini.net)
* Share Alike. If you alter, transform, or build upon this work, you may
  distribute the resulting work only under the same or similar license to this
  one.

See http://creativecommons.org/licenses/by-sa/3.0/ for more details.
-->
<!DOCTYPE svg PUBLIC "-//W3C//DTD SVG 1.0//EN" "http://www.w3.org/TR/2001/REC-SVG-20010904/DTD/svg10.dtd" [
<!ATTLIST g
xmlns:kvg CDATA #FIXED "http://kanjivg.tagaini.net"
kvg:element CDATA #IMPLIED
kvg:variant CDATA #IMPLIED
kvg:partial CDATA #IMPLIED
kvg:original CDATA #IMPLIED
kvg:part CDATA #IMPLIED
kvg:number CDATA #IMPLIED
kvg:tradForm CDATA #IMPLIED
kvg:radicalForm CDATA #IMPLIED
kvg:position CDATA #IMPLIED
kvg:radical CDATA #IMPLIED
kvg:phon CDATA #IMPLIED >
<!ATTLIST path
xmlns:kvg CDATA #FIXED "http://kanjivg.tagaini.net"
kvg:type CDATA #IMPLIED >
]>
<svg xmlns="http://www.w3.org/2000/svg" width="327" height = "327" viewBox="0 0 327 327">
<g id="kvg:StrokePaths_082d7" style="fill:none;stroke:#000000;stroke-width:3;stroke-linecap:round;stroke-linejoin:round;" transform="scale(3.0,3.0)">
<g id="kvg:082d7" kvg:element="苗">
	<g id="kvg:082d7-g1" kvg:element="艹" kvg:variant="true" kvg:original="艸" kvg:position="top" kvg:radical="general">
		<path style="stroke: #bf0909;" id="kvg:082d7-s1" kvg:type="㇐" d="M15.5,31.68c2.72,0.96,6.3,0.74,9.13,0.41c14.92-1.74,42.04-4.07,57.62-4.63c3.49-0.12,7.05-0.11,10.5,0.62"/>
		<path style="stroke: #bf9109;" id="kvg:082d7-s2" kvg:type="㇑a" d="M36.7,15.56c0.8,1.19,1.2,2.17,1.32,3.32c1.1,10.71,2.04,21.21,2.35,25.11"/>
		<path style="stroke: #64bf09;" id="kvg:082d7-s3" kvg:type="㇑a" d="M72.68,13c0.26,1.53,0.25,2.69-0.19,4.54c-2.24,9.46-3.74,14.21-6.42,25.05"/>
	</g>
	<g id="kvg:082d7-g2" kvg:element="田" kvg:position="bottom">
		<path style="stroke: #09bf36;" id="kvg:082d7-s4" kvg:type="㇑" d="M22.75,54c1,1,1.47,2.1,1.73,4.09c1.14,8.78,2.52,19.9,3.61,31.35c0.22,2.29,0.42,4.52,0.61,6.63"/>
		<path style="stroke: #09bfbf;" id="kvg:082d7-s5" kvg:type="㇕a" d="M24.93,55.74c18.69-2.49,41.69-4.74,55.03-5.28c4.12-0.17,6.19,1.63,5.7,5.55c-0.83,6.61-2.52,19.36-4.64,30.28c-0.58,2.98-1.17,5.82-1.75,8.37"/>
		<path style="stroke: #0936bf;" id="kvg:082d7-s6" kvg:type="㇑a" d="M53.12,55.04c0.98,0.98,1.22,2.09,1.22,3.57c0,9.35-0.04,25.86-0.09,32.51"/>
		<path style="stroke: #6409bf;" id="kvg:082d7-s7" kvg:type="㇐a" d="M27.8,73.67c15.2-1.54,40.32-3.79,54.89-4.53"/>
		<path style="stroke: #bf0991;" id="kvg:082d7-s8" kvg:type="㇐a" d="M29.48,93.64c12.02-0.89,34.75-2.3,49.49-2.73"/>
	</g>
</g>
</g>
<g id="kvg:StrokeNumbers_082d7" style="font-size:8;fill:#808080" transform="scale(3.0,3.0)">
	<text style="fill: #bf0909;" transform="matrix(1 0 0 1 8.50 33.13)">1</text>
	<text style="fill: #bf9109;" transform="matrix(1 0 0 1 26.50 16.63)">2</text>
	<text style="fill: #64bf09;" transform="matrix(1 0 0 1 63.50 13.50)">3</text>
	<text style="fill: #09bf36;" transform="matrix(1 0 0 1 15.50 59.50)">4</text>
	<text style="fill: #09bfbf;" transform="matrix(1 0 0 1 26.50 52.50)">5</text>
	<text style="fill: #0936bf;" transform="matrix(1 0 0 1 46.50 63.13)">6</text>
	<text style="fill: #6409bf;" transform="matrix(1 0 0 1 31.50 70.50)">7</text>
	<text style="fill: #bf0991;" transform="matrix(1 0 0 1 32.50 90.05)">8</text>
</g>
</svg>
