<?xml version="1.0" encoding="UTF-8"?>
<!--
This file has been modified from the original version by the kanji_colorize.py
script (available at http://github.com/cayennes/kanji-colorize) with these
settings:
    mode: spectrum
    saturation: 0.95
    value: 0.75
    image_size: 327
It remains under a Creative Commons-Attribution-Share Alike 3.0 License.

The original SVG has the following copyright:

Copyright (C) 2009/2010/2011 Ulrich Apel.
This work is distributed under the conditions of the Creative Commons
Attribution-Share Alike 3.0 Licence. This means you are free:
* to Share - to copy, distribute and transmit the work
* to Remix - to adapt the work

Under the following conditions:
* Attribution. You must attribute the work by stating your use of KanjiVG in
  your own copyright header and linking to KanjiVG's website
  (http://kanjivg.tagaini.net)
* Share Alike. If you alter, transform, or build upon this work, you may
  distribute the resulting work only under the same or similar license to this
  one.

See http://creativecommons.org/licenses/by-sa/3.0/ for more details.
-->
<!DOCTYPE svg PUBLIC "-//W3C//DTD SVG 1.0//EN" "http://www.w3.org/TR/2001/REC-SVG-20010904/DTD/svg10.dtd" [
<!ATTLIST g
xmlns:kvg CDATA #FIXED "http://kanjivg.tagaini.net"
kvg:element CDATA #IMPLIED
kvg:variant CDATA #IMPLIED
kvg:partial CDATA #IMPLIED
kvg:original CDATA #IMPLIED
kvg:part CDATA #IMPLIED
kvg:number CDATA #IMPLIED
kvg:tradForm CDATA #IMPLIED
kvg:radicalForm CDATA #IMPLIED
kvg:position CDATA #IMPLIED
kvg:radical CDATA #IMPLIED
kvg:phon CDATA #IMPLIED >
<!ATTLIST path
xmlns:kvg CDATA #FIXED "http://kanjivg.tagaini.net"
kvg:type CDATA #IMPLIED >
]>
<svg xmlns="http://www.w3.org/2000/svg" width="327" height = "327" viewBox="0 0 327 327">
<g id="kvg:StrokePaths_082f9" style="fill:none;stroke:#000000;stroke-width:3;stroke-linecap:round;stroke-linejoin:round;" transform="scale(3.0,3.0)">
<g id="kvg:082f9" kvg:element="苹">
	<g id="kvg:082f9-g1" kvg:element="艹" kvg:variant="true" kvg:original="艸" kvg:position="top" kvg:radical="general">
		<path style="stroke: #bf0909;" id="kvg:082f9-s1" kvg:type="㇐" d="M19.25,21.25c1.29,0.53,4.5,0.5,7.67,0.33c11.92-0.63,44.95-3.26,58.67-3.33c2.16-0.01,5.42,0.4,6.5,0.67"/>
		<path style="stroke: #bf9109;" id="kvg:082f9-s2" kvg:type="㇑a" d="M38.42,11.42c1.58,0.83,2.7,2.54,2.83,3.33c1.25,7.42,0.98,13.14,1.33,15.83"/>
		<path style="stroke: #64bf09;" id="kvg:082f9-s3" kvg:type="㇑a" d="M66.75,8.58c1.65,1.01,1.29,2.61,1,4.17c-0.83,4.5-2,10.33-3.92,16.67"/>
	</g>
	<g id="kvg:082f9-g2" kvg:element="平" kvg:variant="true" kvg:position="bottom">
		<g id="kvg:082f9-g3" kvg:element="干" kvg:part="1">
			<path style="stroke: #09bf36;" id="kvg:082f9-s4" kvg:type="㇐" d="M26.42,35.58c3.08,0.67,5.83,0.67,9.17,0.67c6.83,0,30.19-1.6,41.83-2.17c1.64-0.08,6.51-0.15,7.33,0"/>
		</g>
		<path style="stroke: #09bfbf;" id="kvg:082f9-s5" kvg:type="㇒" d="M39.94,44.35c0.05,0.38,0.11,0.99-0.1,1.54c-1.21,3.24-8.17,10.34-17.68,14.69"/>
		<path style="stroke: #0936bf;" id="kvg:082f9-s6" kvg:type="㇔" d="M67.15,40.37c7,3.63,14.74,11.26,16.5,16.92"/>
		<g id="kvg:082f9-g4" kvg:element="干" kvg:part="2">
			<g id="kvg:082f9-g5" kvg:element="十">
				<path style="stroke: #6409bf;" id="kvg:082f9-s7" kvg:type="㇐" d="M14.08,65.92c2.92,1.33,6.42,1.08,10,0.83c18.3-1.28,38.93-2.44,61.67-3.33C90,63.25,93,63.5,94.92,64.25"/>
				<path style="stroke: #bf0991;" id="kvg:082f9-s8" kvg:type="㇑" d="M53.25,36.58c0.85,0.37,0.94,4.62,1.11,5.36c0.17,0.74-0.11,54.02-0.28,58.64"/>
			</g>
		</g>
	</g>
</g>
</g>
<g id="kvg:StrokeNumbers_082f9" style="font-size:8;fill:#808080" transform="scale(3.0,3.0)">
	<text style="fill: #bf0909;" transform="matrix(1 0 0 1 12.25 22.25)">1</text>
	<text style="fill: #bf9109;" transform="matrix(1 0 0 1 29.25 12.25)">2</text>
	<text style="fill: #64bf09;" transform="matrix(1 0 0 1 58.25 9.25)">3</text>
	<text style="fill: #09bf36;" transform="matrix(1 0 0 1 19.25 36.25)">4</text>
	<text style="fill: #09bfbf;" transform="matrix(1 0 0 1 31.25 46.25)">5</text>
	<text style="fill: #0936bf;" transform="matrix(1 0 0 1 61.25 47.25)">6</text>
	<text style="fill: #6409bf;" transform="matrix(1 0 0 1 7.25 65.25)">7</text>
	<text style="fill: #bf0991;" transform="matrix(1 0 0 1 46.00 46.25)">8</text>
</g>
</svg>
