<?xml version="1.0" encoding="UTF-8"?>
<!--
This file has been modified from the original version by the kanji_colorize.py
script (available at http://github.com/cayennes/kanji-colorize) with these
settings:
    mode: spectrum
    saturation: 0.95
    value: 0.75
    image_size: 327
It remains under a Creative Commons-Attribution-Share Alike 3.0 License.

The original SVG has the following copyright:

Copyright (C) 2009/2010/2011 Ulrich Apel.
This work is distributed under the conditions of the Creative Commons
Attribution-Share Alike 3.0 Licence. This means you are free:
* to Share - to copy, distribute and transmit the work
* to Remix - to adapt the work

Under the following conditions:
* Attribution. You must attribute the work by stating your use of KanjiVG in
  your own copyright header and linking to KanjiVG's website
  (http://kanjivg.tagaini.net)
* Share Alike. If you alter, transform, or build upon this work, you may
  distribute the resulting work only under the same or similar license to this
  one.

See http://creativecommons.org/licenses/by-sa/3.0/ for more details.
-->
<!DOCTYPE svg PUBLIC "-//W3C//DTD SVG 1.0//EN" "http://www.w3.org/TR/2001/REC-SVG-20010904/DTD/svg10.dtd" [
<!ATTLIST g
xmlns:kvg CDATA #FIXED "http://kanjivg.tagaini.net"
kvg:element CDATA #IMPLIED
kvg:variant CDATA #IMPLIED
kvg:partial CDATA #IMPLIED
kvg:original CDATA #IMPLIED
kvg:part CDATA #IMPLIED
kvg:number CDATA #IMPLIED
kvg:tradForm CDATA #IMPLIED
kvg:radicalForm CDATA #IMPLIED
kvg:position CDATA #IMPLIED
kvg:radical CDATA #IMPLIED
kvg:phon CDATA #IMPLIED >
<!ATTLIST path
xmlns:kvg CDATA #FIXED "http://kanjivg.tagaini.net"
kvg:type CDATA #IMPLIED >
]>
<svg xmlns="http://www.w3.org/2000/svg" width="327" height = "327" viewBox="0 0 327 327">
<g id="kvg:StrokePaths_08309" style="fill:none;stroke:#000000;stroke-width:3;stroke-linecap:round;stroke-linejoin:round;" transform="scale(3.0,3.0)">
<g id="kvg:08309" kvg:element="茉">
	<g id="kvg:08309-g1" kvg:element="艹" kvg:variant="true" kvg:original="艸" kvg:position="top" kvg:radical="general">
		<path style="stroke: #bf0909;" id="kvg:08309-s1" kvg:type="㇐" d="M15,22.14c3.1,1.09,6.66,0.94,9.88,0.58c14.33-1.58,39.21-3.71,54.37-4.33c3.86-0.16,7.85,0.01,11.67,0.81"/>
		<path style="stroke: #bf9109;" id="kvg:08309-s2" kvg:type="㇑a" d="M36.69,10.95c0.99,0.99,1.53,2.14,1.61,3.06c0.83,10.49,1.38,14.66,1.61,18.24"/>
		<path style="stroke: #64bf09;" id="kvg:08309-s3" kvg:type="㇑a" d="M67.35,8.92c0.35,1.19,0.4,2.25,0.17,3.77c-0.84,5.37-2.51,13.33-3.73,18.28"/>
	</g>
	<g id="kvg:08309-g2" kvg:element="末" kvg:position="bottom">
		<path style="stroke: #09bf36;" id="kvg:08309-s4" kvg:type="㇐" d="M18,42.45c3.45,1.23,7.72,0.81,11.26,0.37c12.77-1.58,36.1-3.49,47.74-4.24c3.69-0.24,7.63-0.32,11.26,0.46"/>
		<g id="kvg:08309-g3" kvg:element="木">
			<path style="stroke: #09bfbf;" id="kvg:08309-s5" kvg:type="㇐" d="M26.5,57c2.79,0.93,6.65,0.21,9.52-0.1c10.64-1.16,24.36-2.65,37.74-3.29c3.35-0.16,6.27,0,9.49,0.64"/>
			<path style="stroke: #0936bf;" id="kvg:08309-s6" kvg:type="㇑" d="M52.75,28.5c1.12,1.12,1.5,2.38,1.5,4c0,0.85,0,38.37,0,57.5c0,4.15,0,7.42,0,9.25"/>
			<path style="stroke: #6409bf;" id="kvg:08309-s7" kvg:type="㇒" d="M51.5,56.12c0,0.88-0.48,2.04-1.33,3.36C42.8,70.9,30.11,84.24,13.75,91.75"/>
			<path style="stroke: #bf0991;" id="kvg:08309-s8" kvg:type="㇏" d="M54.75,56.75c6,6.25,16.75,17.12,25.48,25.36c2.64,2.49,5.58,4.51,9.27,6.64"/>
		</g>
	</g>
</g>
</g>
<g id="kvg:StrokeNumbers_08309" style="font-size:8;fill:#808080" transform="scale(3.0,3.0)">
	<text style="fill: #bf0909;" transform="matrix(1 0 0 1 8.25 22.25)">1</text>
	<text style="fill: #bf9109;" transform="matrix(1 0 0 1 27.25 11.60)">2</text>
	<text style="fill: #64bf09;" transform="matrix(1 0 0 1 58.25 9.25)">3</text>
	<text style="fill: #09bf36;" transform="matrix(1 0 0 1 11.25 43.25)">4</text>
	<text style="fill: #09bfbf;" transform="matrix(1 0 0 1 18.25 57.25)">5</text>
	<text style="fill: #0936bf;" transform="matrix(1 0 0 1 43.25 29.25)">6</text>
	<text style="fill: #6409bf;" transform="matrix(1 0 0 1 37.25 67.25)">7</text>
	<text style="fill: #bf0991;" transform="matrix(1 0 0 1 66.00 65.25)">8</text>
</g>
</svg>
