<?xml version="1.0" encoding="UTF-8"?>
<!--
This file has been modified from the original version by the kanji_colorize.py
script (available at http://github.com/cayennes/kanji-colorize) with these
settings:
    mode: spectrum
    saturation: 0.95
    value: 0.75
    image_size: 327
It remains under a Creative Commons-Attribution-Share Alike 3.0 License.

The original SVG has the following copyright:

Copyright (C) 2009/2010/2011 Ulrich Apel.
This work is distributed under the conditions of the Creative Commons
Attribution-Share Alike 3.0 Licence. This means you are free:
* to Share - to copy, distribute and transmit the work
* to Remix - to adapt the work

Under the following conditions:
* Attribution. You must attribute the work by stating your use of KanjiVG in
  your own copyright header and linking to KanjiVG's website
  (http://kanjivg.tagaini.net)
* Share Alike. If you alter, transform, or build upon this work, you may
  distribute the resulting work only under the same or similar license to this
  one.

See http://creativecommons.org/licenses/by-sa/3.0/ for more details.
-->
<!DOCTYPE svg PUBLIC "-//W3C//DTD SVG 1.0//EN" "http://www.w3.org/TR/2001/REC-SVG-20010904/DTD/svg10.dtd" [
<!ATTLIST g
xmlns:kvg CDATA #FIXED "http://kanjivg.tagaini.net"
kvg:element CDATA #IMPLIED
kvg:variant CDATA #IMPLIED
kvg:partial CDATA #IMPLIED
kvg:original CDATA #IMPLIED
kvg:part CDATA #IMPLIED
kvg:number CDATA #IMPLIED
kvg:tradForm CDATA #IMPLIED
kvg:radicalForm CDATA #IMPLIED
kvg:position CDATA #IMPLIED
kvg:radical CDATA #IMPLIED
kvg:phon CDATA #IMPLIED >
<!ATTLIST path
xmlns:kvg CDATA #FIXED "http://kanjivg.tagaini.net"
kvg:type CDATA #IMPLIED >
]>
<svg xmlns="http://www.w3.org/2000/svg" width="327" height = "327" viewBox="0 0 327 327">
<g id="kvg:StrokePaths_08316" style="fill:none;stroke:#000000;stroke-width:3;stroke-linecap:round;stroke-linejoin:round;" transform="scale(3.0,3.0)">
<g id="kvg:08316" kvg:element="茖">
	<g id="kvg:08316-g1" kvg:element="艹" kvg:variant="true" kvg:original="艸" kvg:position="top" kvg:radical="general">
		<path style="stroke: #bf0909;" id="kvg:08316-s1" kvg:type="㇐" d="M18.58,22.92c1.23,0.66,6.43,0.3,7.67,0.17c11.33-1.21,44.78-3.91,57.83-4c2.05-0.01,5.97,0.67,7,1"/>
		<path style="stroke: #bf8209;" id="kvg:08316-s2" kvg:type="㇑a" d="M37.25,11.58c2.33,1,2.22,3.04,2.33,3.83c1.08,7.42,1.36,13.47,1.67,16.17"/>
		<path style="stroke: #82bf09;" id="kvg:08316-s3" kvg:type="㇑a" d="M66.58,10.08c0.92,0.92,1.29,2.94,0.92,4.42c-1.12,4.5-1.38,10.5-3,16.25"/>
	</g>
	<g id="kvg:08316-g2" kvg:element="各" kvg:position="bottom">
		<g id="kvg:08316-g3" kvg:element="夂" kvg:position="top">
			<path style="stroke: #09bf09;" id="kvg:08316-s4" kvg:type="㇒" d="M48.31,26.83c0.08,0.66,0.3,1.7-0.16,2.66c-3.9,8.25-11.65,19-27.28,25.98"/>
			<path style="stroke: #09bf82;" id="kvg:08316-s5" kvg:type="㇇" d="M46.08,35.42c0.36,0.03,2.47,1.42,3.5,1.33c3.4-0.28,12.36-1.36,17.21-2.23c3.33-0.6,3.15,1.28,2.29,2.9c-7.84,14.93-28.58,31.86-53.5,38.83"/>
			<path style="stroke: #0982bf;" id="kvg:08316-s6" kvg:type="㇏" d="M41.62,42.51c6.36,4.78,34.89,23.37,43.46,27.74c2.56,1.3,4.9,1.51,7.39,1.89"/>
		</g>
		<g id="kvg:08316-g4" kvg:element="口" kvg:position="bottom">
			<path style="stroke: #0909bf;" id="kvg:08316-s7" kvg:type="㇑" d="M36.42,73.25c1.33,0.75,1.72,1.96,1.83,2.5c1.17,5.67,2.17,15.33,3.17,23"/>
			<path style="stroke: #8209bf;" id="kvg:08316-s8" kvg:type="㇕b" d="M39.39,75.54c11.2-1.22,26.03-2.48,30.7-2.95c1.7-0.17,2.9,1.96,2.83,3c-0.33,5-1.5,11.86-3,17.67"/>
			<path style="stroke: #bf0982;" id="kvg:08316-s9" kvg:type="㇐b" d="M41.92,95.58c6.06-0.48,21.17-0.93,29.5-1.67"/>
		</g>
	</g>
</g>
</g>
<g id="kvg:StrokeNumbers_08316" style="font-size:8;fill:#808080" transform="scale(3.0,3.0)">
	<text style="fill: #bf0909;" transform="matrix(1 0 0 1 11.25 23.25)">1</text>
	<text style="fill: #bf8209;" transform="matrix(1 0 0 1 27.25 12.25)">2</text>
	<text style="fill: #82bf09;" transform="matrix(1 0 0 1 57.25 11.25)">3</text>
	<text style="fill: #09bf09;" transform="matrix(1 0 0 1 34.25 39.25)">4</text>
	<text style="fill: #09bf82;" transform="matrix(1 0 0 1 54.25 33.25)">5</text>
	<text style="fill: #0982bf;" transform="matrix(1 0 0 1 49.25 45.25)">6</text>
	<text style="fill: #0909bf;" transform="matrix(1 0 0 1 29.25 80.25)">7</text>
	<text style="fill: #8209bf;" transform="matrix(1 0 0 1 45.25 71.25)">8</text>
	<text style="fill: #bf0982;" transform="matrix(1 0 0 1 45.25 92.25)">9</text>
</g>
</svg>
