<?xml version="1.0" encoding="UTF-8"?>
<!--
This file has been modified from the original version by the kanji_colorize.py
script (available at http://github.com/cayennes/kanji-colorize) with these
settings:
    mode: spectrum
    saturation: 0.95
    value: 0.75
    image_size: 327
It remains under a Creative Commons-Attribution-Share Alike 3.0 License.

The original SVG has the following copyright:

Copyright (C) 2009/2010/2011 Ulrich Apel.
This work is distributed under the conditions of the Creative Commons
Attribution-Share Alike 3.0 Licence. This means you are free:
* to Share - to copy, distribute and transmit the work
* to Remix - to adapt the work

Under the following conditions:
* Attribution. You must attribute the work by stating your use of KanjiVG in
  your own copyright header and linking to KanjiVG's website
  (http://kanjivg.tagaini.net)
* Share Alike. If you alter, transform, or build upon this work, you may
  distribute the resulting work only under the same or similar license to this
  one.

See http://creativecommons.org/licenses/by-sa/3.0/ for more details.
-->
<!DOCTYPE svg PUBLIC "-//W3C//DTD SVG 1.0//EN" "http://www.w3.org/TR/2001/REC-SVG-20010904/DTD/svg10.dtd" [
<!ATTLIST g
xmlns:kvg CDATA #FIXED "http://kanjivg.tagaini.net"
kvg:element CDATA #IMPLIED
kvg:variant CDATA #IMPLIED
kvg:partial CDATA #IMPLIED
kvg:original CDATA #IMPLIED
kvg:part CDATA #IMPLIED
kvg:number CDATA #IMPLIED
kvg:tradForm CDATA #IMPLIED
kvg:radicalForm CDATA #IMPLIED
kvg:position CDATA #IMPLIED
kvg:radical CDATA #IMPLIED
kvg:phon CDATA #IMPLIED >
<!ATTLIST path
xmlns:kvg CDATA #FIXED "http://kanjivg.tagaini.net"
kvg:type CDATA #IMPLIED >
]>
<svg xmlns="http://www.w3.org/2000/svg" width="327" height = "327" viewBox="0 0 327 327">
<g id="kvg:StrokePaths_0832b" style="fill:none;stroke:#000000;stroke-width:3;stroke-linecap:round;stroke-linejoin:round;" transform="scale(3.0,3.0)">
<g id="kvg:0832b" kvg:element="茫">
	<g id="kvg:0832b-g1" kvg:element="艹" kvg:variant="true" kvg:original="艸" kvg:position="top" kvg:radical="general">
		<path style="stroke: #bf0909;" id="kvg:0832b-s1" kvg:type="㇐" d="M20.33,26.17c1.25,0.53,4.67,0.83,7.83,0.67C39.69,26.23,67,23.5,83,23.17c2.26-0.05,6.12,0.57,7.17,0.83"/>
		<path style="stroke: #bf8209;" id="kvg:0832b-s2" kvg:type="㇑a" d="M36,14c2.17,0.5,2.72,1.44,2.82,2.38c0.93,8.87,1.96,15.98,2.51,19.12"/>
		<path style="stroke: #82bf09;" id="kvg:0832b-s3" kvg:type="㇑a" d="M71.4,11.75c0.6,0.75,1.37,2.49,0.8,3.94c-1.73,4.43-2.38,11.32-4.87,16.98"/>
	</g>
	<g id="kvg:0832b-g2" kvg:position="bottom">
		<g id="kvg:0832b-g3" kvg:element="氵" kvg:variant="true" kvg:original="水" kvg:position="left">
			<path style="stroke: #09bf09;" id="kvg:0832b-s4" kvg:type="㇔" d="M20.97,39.5c4.25,1.35,10.97,5.56,12.03,7.67"/>
			<path style="stroke: #09bf82;" id="kvg:0832b-s5" kvg:type="㇔" d="M16.67,56.76c4,1.16,10.33,4.77,11.33,6.58"/>
			<path style="stroke: #0982bf;" id="kvg:0832b-s6" kvg:type="㇀" d="M16.42,90.33c3.33,1.17,4.73-0.69,6.16-3.13c4.16-7.11,4.92-8.7,10.09-17.87"/>
		</g>
		<g id="kvg:0832b-g4" kvg:element="亡" kvg:position="right">
			<g id="kvg:0832b-g5" kvg:element="亠">
				<path style="stroke: #0909bf;" id="kvg:0832b-s7" kvg:type="㇑a" d="M63.71,37.94c0.91,0.42,1.8,1.56,1.8,3.66c0,3.08-0.19,8.05-0.02,10.66"/>
				<g id="kvg:0832b-g6" kvg:element="匸" kvg:part="1" kvg:variant="true" kvg:original="匚">
					<path style="stroke: #8209bf;" id="kvg:0832b-s8" kvg:type="㇐" d="M38.83,53.67c1.67,0.33,4.42,0.83,6.83,0.83c7.19,0,32.95-3.08,42-3.33c1.5-0.04,5.08-0.42,7,0"/>
				</g>
			</g>
			<g id="kvg:0832b-g7" kvg:element="匸" kvg:part="2" kvg:variant="true" kvg:original="匚">
				<path style="stroke: #bf0982;" id="kvg:0832b-s9" kvg:type="㇄a" d="M45.5,55.67c0.81,0.78,0.64,4.74,0.64,5.82c0,9.6,0,18.7,0,22.33c0,4.04,0.51,8.56,9.55,9.15c9.8,0.64,26.11-0.13,28.32-0.21c3.84-0.14,6.19-0.95,8.15-1.45"/>
			</g>
		</g>
	</g>
</g>
</g>
<g id="kvg:StrokeNumbers_0832b" style="font-size:8;fill:#808080" transform="scale(3.0,3.0)">
	<text style="fill: #bf0909;" transform="matrix(1 0 0 1 12.50 26.50)">1</text>
	<text style="fill: #bf8209;" transform="matrix(1 0 0 1 27.50 11.85)">2</text>
	<text style="fill: #82bf09;" transform="matrix(1 0 0 1 62.50 11.50)">3</text>
	<text style="fill: #09bf09;" transform="matrix(1 0 0 1 12.50 39.50)">4</text>
	<text style="fill: #09bf82;" transform="matrix(1 0 0 1 8.25 57.33)">5</text>
	<text style="fill: #0982bf;" transform="matrix(1 0 0 1 8.50 99.50)">6</text>
	<text style="fill: #0909bf;" transform="matrix(1 0 0 1 54.50 38.18)">7</text>
	<text style="fill: #8209bf;" transform="matrix(1 0 0 1 40.25 49.50)">8</text>
	<text style="fill: #bf0982;" transform="matrix(1 0 0 1 38.50 64.50)">9</text>
</g>
</svg>
