<?xml version="1.0" encoding="UTF-8"?>
<!--
This file has been modified from the original version by the kanji_colorize.py
script (available at http://github.com/cayennes/kanji-colorize) with these
settings:
    mode: spectrum
    saturation: 0.95
    value: 0.75
    image_size: 327
It remains under a Creative Commons-Attribution-Share Alike 3.0 License.

The original SVG has the following copyright:

Copyright (C) 2009/2010/2011 Ulrich Apel.
This work is distributed under the conditions of the Creative Commons
Attribution-Share Alike 3.0 Licence. This means you are free:
* to Share - to copy, distribute and transmit the work
* to Remix - to adapt the work

Under the following conditions:
* Attribution. You must attribute the work by stating your use of KanjiVG in
  your own copyright header and linking to KanjiVG's website
  (http://kanjivg.tagaini.net)
* Share Alike. If you alter, transform, or build upon this work, you may
  distribute the resulting work only under the same or similar license to this
  one.

See http://creativecommons.org/licenses/by-sa/3.0/ for more details.
-->
<!DOCTYPE svg PUBLIC "-//W3C//DTD SVG 1.0//EN" "http://www.w3.org/TR/2001/REC-SVG-20010904/DTD/svg10.dtd" [
<!ATTLIST g
xmlns:kvg CDATA #FIXED "http://kanjivg.tagaini.net"
kvg:element CDATA #IMPLIED
kvg:variant CDATA #IMPLIED
kvg:partial CDATA #IMPLIED
kvg:original CDATA #IMPLIED
kvg:part CDATA #IMPLIED
kvg:number CDATA #IMPLIED
kvg:tradForm CDATA #IMPLIED
kvg:radicalForm CDATA #IMPLIED
kvg:position CDATA #IMPLIED
kvg:radical CDATA #IMPLIED
kvg:phon CDATA #IMPLIED >
<!ATTLIST path
xmlns:kvg CDATA #FIXED "http://kanjivg.tagaini.net"
kvg:type CDATA #IMPLIED >
]>
<svg xmlns="http://www.w3.org/2000/svg" width="327" height = "327" viewBox="0 0 327 327">
<g id="kvg:StrokePaths_08331" style="fill:none;stroke:#000000;stroke-width:3;stroke-linecap:round;stroke-linejoin:round;" transform="scale(3.0,3.0)">
<g id="kvg:08331" kvg:element="茱">
	<g id="kvg:08331-g1" kvg:element="艹" kvg:variant="true" kvg:original="艸" kvg:position="top" kvg:radical="general">
		<path style="stroke: #bf0909;" id="kvg:08331-s1" kvg:type="㇐" d="M18,23.67c1.29,0.53,5.5,0.83,8.83,0.5c11.88-1.19,44.97-3.8,58.67-4.5c3.25-0.17,6.25,0.9,7.33,1.17"/>
		<path style="stroke: #bf8209;" id="kvg:08331-s2" kvg:type="㇑a" d="M37.33,11.83c2.33,1,3.44,2.54,3.6,3.35c1.53,7.55,2.46,13.91,2.9,16.65"/>
		<path style="stroke: #82bf09;" id="kvg:08331-s3" kvg:type="㇑a" d="M70,10.67c1.18,0.92,1.5,2.1,1.33,3.5c-0.5,4.17-1.72,10.73-3.42,16"/>
	</g>
	<g id="kvg:08331-g2" kvg:element="朱" kvg:position="bottom">
		<path style="stroke: #09bf09;" id="kvg:08331-s4" kvg:type="㇒" d="M36.94,32.42c0.04,0.54,0.16,1.56-0.08,2.17c-3.05,7.61-7.56,14.6-15.52,20.74"/>
		<g id="kvg:08331-g3" kvg:element="未">
			<path style="stroke: #09bf82;" id="kvg:08331-s5" kvg:type="㇐" d="M33.83,45.33c0.83,0.33,4.16,0.7,5,0.67c8.65-0.38,27.31-2.91,37.83-4c1.38-0.14,4.31,0.17,5,0.33"/>
			<g id="kvg:08331-g4" kvg:element="木">
				<path style="stroke: #0982bf;" id="kvg:08331-s6" kvg:type="㇐" d="M15.5,61.5c2.5,0.75,4.5,1.25,9,1c10.27-0.57,40.57-2.9,58.33-4.33C88,57.75,91.25,58.25,93.5,59"/>
				<path style="stroke: #0909bf;" id="kvg:08331-s7" kvg:type="㇑" d="M52.33,29c1.62,0.42,2.56,2.65,2.56,3.54c0,4.21,0,62.09-0.32,67.29"/>
				<path style="stroke: #8209bf;" id="kvg:08331-s8" kvg:type="㇒" d="M52.38,62c-9.09,12.55-22.89,24.17-39.52,30.42"/>
				<path style="stroke: #bf0982;" id="kvg:08331-s9" kvg:type="㇏" d="M56.65,61.65c4.82,5.75,25.17,22.19,32.35,27c1.79,1.2,3.23,1.81,4.97,2.18"/>
			</g>
		</g>
	</g>
</g>
</g>
<g id="kvg:StrokeNumbers_08331" style="font-size:8;fill:#808080" transform="scale(3.0,3.0)">
	<text style="fill: #bf0909;" transform="matrix(1 0 0 1 10.50 24.50)">1</text>
	<text style="fill: #bf8209;" transform="matrix(1 0 0 1 28.66 11.85)">2</text>
	<text style="fill: #82bf09;" transform="matrix(1 0 0 1 60.50 10.50)">3</text>
	<text style="fill: #09bf09;" transform="matrix(1 0 0 1 27.50 33.50)">4</text>
	<text style="fill: #09bf82;" transform="matrix(1 0 0 1 39.50 42.50)">5</text>
	<text style="fill: #0982bf;" transform="matrix(1 0 0 1 8.50 62.50)">6</text>
	<text style="fill: #0909bf;" transform="matrix(1 0 0 1 47.50 35.50)">7</text>
	<text style="fill: #8209bf;" transform="matrix(1 0 0 1 35.50 72.50)">8</text>
	<text style="fill: #bf0982;" transform="matrix(1 0 0 1 69.50 70.50)">9</text>
</g>
</svg>
