<?xml version="1.0" encoding="UTF-8"?>
<!--
This file has been modified from the original version by the kanji_colorize.py
script (available at http://github.com/cayennes/kanji-colorize) with these
settings:
    mode: spectrum
    saturation: 0.95
    value: 0.75
    image_size: 327
It remains under a Creative Commons-Attribution-Share Alike 3.0 License.

The original SVG has the following copyright:

Copyright (C) 2009/2010/2011 Ulrich Apel.
This work is distributed under the conditions of the Creative Commons
Attribution-Share Alike 3.0 Licence. This means you are free:
* to Share - to copy, distribute and transmit the work
* to Remix - to adapt the work

Under the following conditions:
* Attribution. You must attribute the work by stating your use of KanjiVG in
  your own copyright header and linking to KanjiVG's website
  (http://kanjivg.tagaini.net)
* Share Alike. If you alter, transform, or build upon this work, you may
  distribute the resulting work only under the same or similar license to this
  one.

See http://creativecommons.org/licenses/by-sa/3.0/ for more details.
-->
<!DOCTYPE svg PUBLIC "-//W3C//DTD SVG 1.0//EN" "http://www.w3.org/TR/2001/REC-SVG-20010904/DTD/svg10.dtd" [
<!ATTLIST g
xmlns:kvg CDATA #FIXED "http://kanjivg.tagaini.net"
kvg:element CDATA #IMPLIED
kvg:variant CDATA #IMPLIED
kvg:partial CDATA #IMPLIED
kvg:original CDATA #IMPLIED
kvg:part CDATA #IMPLIED
kvg:number CDATA #IMPLIED
kvg:tradForm CDATA #IMPLIED
kvg:radicalForm CDATA #IMPLIED
kvg:position CDATA #IMPLIED
kvg:radical CDATA #IMPLIED
kvg:phon CDATA #IMPLIED >
<!ATTLIST path
xmlns:kvg CDATA #FIXED "http://kanjivg.tagaini.net"
kvg:type CDATA #IMPLIED >
]>
<svg xmlns="http://www.w3.org/2000/svg" width="327" height = "327" viewBox="0 0 327 327">
<g id="kvg:StrokePaths_08345" style="fill:none;stroke:#000000;stroke-width:3;stroke-linecap:round;stroke-linejoin:round;" transform="scale(3.0,3.0)">
<g id="kvg:08345" kvg:element="荅">
	<g id="kvg:08345-g1" kvg:element="艹" kvg:variant="true" kvg:original="艸" kvg:position="top" kvg:radical="general">
		<path style="stroke: #bf0909;" id="kvg:08345-s1" kvg:type="㇐" d="M20,24.27c1.29,0.53,2.8,0.63,4.1,0.53C36,23.83,72,21.33,85.72,21.26c2.16-0.01,3.45,0.25,4.53,0.51"/>
		<path style="stroke: #bf8209;" id="kvg:08345-s2" kvg:type="㇑a" d="M38.25,13.5c1.75,1.43,2.39,1.85,2.5,2.75c1,8.5,1.25,11.5,1.25,17.75"/>
		<path style="stroke: #82bf09;" id="kvg:08345-s3" kvg:type="㇑a" d="M67.75,12.25c0.42,1.18,0.78,2.01,0.5,3.5c-1.5,8-2.25,10.75-3.5,16.25"/>
	</g>
	<g id="kvg:08345-g2" kvg:element="合" kvg:position="bottom">
		<g id="kvg:08345-g3" kvg:position="top">
			<g id="kvg:08345-g4" kvg:element="人">
				<path style="stroke: #09bf09;" id="kvg:08345-s4" kvg:type="㇒" d="M51.77,28.75c0.1,0.92,0.5,2.47-0.21,3.72C46.69,41.12,35.5,56,15.23,68.02"/>
				<path style="stroke: #09bf82;" id="kvg:08345-s5" kvg:type="㇏" d="M52.87,31.39c5.55,5.89,29.46,25.14,35.59,29.45c2.08,1.46,4.74,2.09,6.82,2.51"/>
			</g>
			<g id="kvg:08345-g5" kvg:element="一">
				<path style="stroke: #0982bf;" id="kvg:08345-s6" kvg:type="㇐" d="M36.84,59.52c0.64,0.19,3.61,0.21,4.25,0.19c6.65-0.21,17.48-1.61,26.98-1.65c1.06,0,2.61,0.09,3.14,0.18"/>
			</g>
		</g>
		<g id="kvg:08345-g6" kvg:element="口" kvg:position="bottom">
			<path style="stroke: #0909bf;" id="kvg:08345-s7" kvg:type="㇑" d="M32.57,71.93c0.64,0.56,1.42,1.91,1.58,2.65c2.16,9.63,3.09,14.67,4.55,22.7"/>
			<path style="stroke: #8209bf;" id="kvg:08345-s8" kvg:type="㇕b" d="M34,73.75c16.5-1.5,30.76-2.25,38.28-2.98c2.75-0.27,4.4,1.59,4.01,3.16c-1.63,6.51-2.79,10.57-4.45,17.83"/>
			<path style="stroke: #bf0982;" id="kvg:08345-s9" kvg:type="㇐b" d="M38.53,94.68c10.15-0.63,22.6-1.5,35.55-2.11"/>
		</g>
	</g>
</g>
</g>
<g id="kvg:StrokeNumbers_08345" style="font-size:8;fill:#808080" transform="scale(3.0,3.0)">
	<text style="fill: #bf0909;" transform="matrix(1 0 0 1 12.50 24.50)">1</text>
	<text style="fill: #bf8209;" transform="matrix(1 0 0 1 30.50 13.50)">2</text>
	<text style="fill: #82bf09;" transform="matrix(1 0 0 1 58.50 11.50)">3</text>
	<text style="fill: #09bf09;" transform="matrix(1 0 0 1 36.50 42.50)">4</text>
	<text style="fill: #09bf82;" transform="matrix(1 0 0 1 67.50 41.33)">5</text>
	<text style="fill: #0982bf;" transform="matrix(1 0 0 1 42.50 56.25)">6</text>
	<text style="fill: #0909bf;" transform="matrix(1 0 0 1 26.50 80.50)">7</text>
	<text style="fill: #8209bf;" transform="matrix(1 0 0 1 37.50 70.50)">8</text>
	<text style="fill: #bf0982;" transform="matrix(1 0 0 1 43.50 91.50)">9</text>
</g>
</svg>
