<?xml version="1.0" encoding="UTF-8"?>
<!--
This file has been modified from the original version by the kanji_colorize.py
script (available at http://github.com/cayennes/kanji-colorize) with these
settings:
    mode: spectrum
    saturation: 0.95
    value: 0.75
    image_size: 327
It remains under a Creative Commons-Attribution-Share Alike 3.0 License.

The original SVG has the following copyright:

Copyright (C) 2009/2010/2011 Ulrich Apel.
This work is distributed under the conditions of the Creative Commons
Attribution-Share Alike 3.0 Licence. This means you are free:
* to Share - to copy, distribute and transmit the work
* to Remix - to adapt the work

Under the following conditions:
* Attribution. You must attribute the work by stating your use of KanjiVG in
  your own copyright header and linking to KanjiVG's website
  (http://kanjivg.tagaini.net)
* Share Alike. If you alter, transform, or build upon this work, you may
  distribute the resulting work only under the same or similar license to this
  one.

See http://creativecommons.org/licenses/by-sa/3.0/ for more details.
-->
<!DOCTYPE svg PUBLIC "-//W3C//DTD SVG 1.0//EN" "http://www.w3.org/TR/2001/REC-SVG-20010904/DTD/svg10.dtd" [
<!ATTLIST g
xmlns:kvg CDATA #FIXED "http://kanjivg.tagaini.net"
kvg:element CDATA #IMPLIED
kvg:variant CDATA #IMPLIED
kvg:partial CDATA #IMPLIED
kvg:original CDATA #IMPLIED
kvg:part CDATA #IMPLIED
kvg:number CDATA #IMPLIED
kvg:tradForm CDATA #IMPLIED
kvg:radicalForm CDATA #IMPLIED
kvg:position CDATA #IMPLIED
kvg:radical CDATA #IMPLIED
kvg:phon CDATA #IMPLIED >
<!ATTLIST path
xmlns:kvg CDATA #FIXED "http://kanjivg.tagaini.net"
kvg:type CDATA #IMPLIED >
]>
<svg xmlns="http://www.w3.org/2000/svg" width="327" height = "327" viewBox="0 0 327 327">
<g id="kvg:StrokePaths_0837b" style="fill:none;stroke:#000000;stroke-width:3;stroke-linecap:round;stroke-linejoin:round;" transform="scale(3.0,3.0)">
<g id="kvg:0837b" kvg:element="荻">
	<g id="kvg:0837b-g1" kvg:element="艹" kvg:variant="true" kvg:original="艸" kvg:position="top" kvg:radical="general">
		<path style="stroke: #bf0909;" id="kvg:0837b-s1" kvg:type="㇐" d="M21.5,25.5c2.96,0.41,5.91,0.28,8.89,0.03c13.74-1.16,34.74-2.66,50.36-3.43c3.01-0.15,6.25,0.02,9,0.46"/>
		<path style="stroke: #bf7609;" id="kvg:0837b-s2" kvg:type="㇑a" d="M39.25,12.5c0.81,0.81,1.36,2.11,1.5,3c1,6.25,2.25,15,2.75,18"/>
		<path style="stroke: #9abf09;" id="kvg:0837b-s3" kvg:type="㇑a" d="M69.5,11.5c0.42,1.18,0.44,2.29,0,3.75c-1.5,5-2,9.25-4,15.75"/>
	</g>
	<g id="kvg:0837b-g2" kvg:element="狄" kvg:position="bottom">
		<g id="kvg:0837b-g3" kvg:element="⺨" kvg:variant="true" kvg:original="犬" kvg:position="left">
			<path style="stroke: #2dbf09;" id="kvg:0837b-s4" kvg:type="㇒" d="M40.6,39.27c0,0.98-0.31,1.99-1.07,2.63c-5.62,5.84-11.1,9.74-24.78,16.17"/>
			<path style="stroke: #09bf52;" id="kvg:0837b-s5" kvg:type="㇕va" d="M21.83,40.27c24.67,20.98,18.08,65.18,4.22,53.3"/>
			<path style="stroke: #09bfbf;" id="kvg:0837b-s6" kvg:type="㇒" d="M32.53,60.42c-0.1,1.25-0.52,2.36-1.25,3.34c-3.9,6.33-7.53,9.49-17.28,17.76"/>
		</g>
		<g id="kvg:0837b-g4" kvg:element="火" kvg:position="right">
			<path style="stroke: #0952bf;" id="kvg:0837b-s7" kvg:type="㇔" d="M49.44,49.9c2.06,3.73,4.56,11.73,4.81,16.01"/>
			<path style="stroke: #2d09bf;" id="kvg:0837b-s8" kvg:type="㇒" d="M87.1,48.47c0,0.9-0.49,2.03-1.2,2.95c-0.7,0.92-7.74,7.87-11.25,10.03"/>
			<path style="stroke: #9a09bf;" id="kvg:0837b-s9" kvg:type="㇒" d="M66.32,39.5c0.93,1,1.19,2.36,1.19,3.32C67.62,80,55.88,91,41.28,98.25"/>
			<path style="stroke: #bf0976;" id="kvg:0837b-s10" kvg:type="㇏" d="M67.62,67.75C75.5,78.5,81,85.62,87.01,91.74c2.43,2.48,4.86,4.38,7.99,5.81"/>
		</g>
	</g>
</g>
</g>
<g id="kvg:StrokeNumbers_0837b" style="font-size:8;fill:#808080" transform="scale(3.0,3.0)">
	<text style="fill: #bf0909;" transform="matrix(1 0 0 1 14.50 25.50)">1</text>
	<text style="fill: #bf7609;" transform="matrix(1 0 0 1 29.50 12.50)">2</text>
	<text style="fill: #9abf09;" transform="matrix(1 0 0 1 59.50 11.50)">3</text>
	<text style="fill: #2dbf09;" transform="matrix(1 0 0 1 32.50 38.50)">4</text>
	<text style="fill: #09bf52;" transform="matrix(1 0 0 1 15.44 42.83)">5</text>
	<text style="fill: #09bfbf;" transform="matrix(1 0 0 1 24.50 62.50)">6</text>
	<text style="fill: #0952bf;" transform="matrix(1 0 0 1 43.50 51.50)">7</text>
	<text style="fill: #2d09bf;" transform="matrix(1 0 0 1 77.50 47.50)">8</text>
	<text style="fill: #9a09bf;" transform="matrix(1 0 0 1 56.50 40.50)">9</text>
	<text style="fill: #bf0976;" transform="matrix(1 0 0 1 72.50 72.46)">10</text>
</g>
</svg>
