<?xml version="1.0" encoding="UTF-8"?>
<!--
This file has been modified from the original version by the kanji_colorize.py
script (available at http://github.com/cayennes/kanji-colorize) with these
settings:
    mode: spectrum
    saturation: 0.95
    value: 0.75
    image_size: 327
It remains under a Creative Commons-Attribution-Share Alike 3.0 License.

The original SVG has the following copyright:

Copyright (C) 2009/2010/2011 Ulrich Apel.
This work is distributed under the conditions of the Creative Commons
Attribution-Share Alike 3.0 Licence. This means you are free:
* to Share - to copy, distribute and transmit the work
* to Remix - to adapt the work

Under the following conditions:
* Attribution. You must attribute the work by stating your use of KanjiVG in
  your own copyright header and linking to KanjiVG's website
  (http://kanjivg.tagaini.net)
* Share Alike. If you alter, transform, or build upon this work, you may
  distribute the resulting work only under the same or similar license to this
  one.

See http://creativecommons.org/licenses/by-sa/3.0/ for more details.
-->
<!DOCTYPE svg PUBLIC "-//W3C//DTD SVG 1.0//EN" "http://www.w3.org/TR/2001/REC-SVG-20010904/DTD/svg10.dtd" [
<!ATTLIST g
xmlns:kvg CDATA #FIXED "http://kanjivg.tagaini.net"
kvg:element CDATA #IMPLIED
kvg:variant CDATA #IMPLIED
kvg:partial CDATA #IMPLIED
kvg:original CDATA #IMPLIED
kvg:part CDATA #IMPLIED
kvg:number CDATA #IMPLIED
kvg:tradForm CDATA #IMPLIED
kvg:radicalForm CDATA #IMPLIED
kvg:position CDATA #IMPLIED
kvg:radical CDATA #IMPLIED
kvg:phon CDATA #IMPLIED >
<!ATTLIST path
xmlns:kvg CDATA #FIXED "http://kanjivg.tagaini.net"
kvg:type CDATA #IMPLIED >
]>
<svg xmlns="http://www.w3.org/2000/svg" width="327" height = "327" viewBox="0 0 327 327">
<g id="kvg:StrokePaths_08407" style="fill:none;stroke:#000000;stroke-width:3;stroke-linecap:round;stroke-linejoin:round;" transform="scale(3.0,3.0)">
<g id="kvg:08407" kvg:element="萇">
	<g id="kvg:08407-g1" kvg:element="艹" kvg:variant="true" kvg:original="艸" kvg:position="top" kvg:radical="general">
		<path style="stroke: #bf0909;" id="kvg:08407-s1" kvg:type="㇐" d="M17.17,20.67c1.29,0.53,3.83,1.33,7,1.17c11.92-0.63,46.95-3.59,60.67-3.67c2.16-0.01,7.42,0.74,8.5,1"/>
		<path style="stroke: #bf6c09;" id="kvg:08407-s2" kvg:type="㇑a" d="M36.83,9.83c2.67,0.67,3.54,2.28,3.67,3c1.14,6.71,2.01,13.06,2.33,15.5"/>
		<path style="stroke: #aebf09;" id="kvg:08407-s3" kvg:type="㇑a" d="M66.83,8.33c2,0.67,2.29,2.44,1.92,3.92c-1.12,4.5-1.96,8.33-3.58,14.08"/>
	</g>
	<g id="kvg:08407-g2" kvg:element="長" kvg:position="bottom">
		<path style="stroke: #4bbf09;" id="kvg:08407-s4" kvg:type="㇑a" d="M33.67,31c1.58,0.75,2.31,2.79,2.31,3.91s0.31,24.98,0.31,26.65"/>
		<path style="stroke: #09bf2a;" id="kvg:08407-s5" kvg:type="㇐b" d="M35.67,33.17c15.83-0.67,35.23-3,38.67-3c2.7,0,4.64,0.16,6.67,0.5"/>
		<path style="stroke: #09bf8d;" id="kvg:08407-s6" kvg:type="㇐b" d="M36.58,41.59C49.91,41.4,66.04,38.83,69,38.83c2.32,0,4.77-0.06,6.5,0.33"/>
		<path style="stroke: #098dbf;" id="kvg:08407-s7" kvg:type="㇐b" d="M36.67,51.85c13.33-0.68,26.12-1.86,31-2.18c2.28-0.15,5.76,0.05,7.5,0.33"/>
		<path style="stroke: #092abf;" id="kvg:08407-s8" kvg:type="㇐" d="M14.5,63.5c1.35,0.33,5.26,0.88,8.33,0.67C40,63,65.3,61.2,84.5,60c4-0.25,7.37,0.5,8.5,0.67"/>
		<path style="stroke: #4b09bf;" id="kvg:08407-s9" kvg:type="㇙" d="M34.75,65.99c1.5,1.6,1.39,2.28,1.39,4.57c0,10.79-0.45,23-0.45,24.83c0,1.83,1.65,2.86,3.74,1.49c2.09-1.37,17-10.4,19.78-11.77"/>
		<path style="stroke: #ae09bf;" id="kvg:08407-s10" kvg:type="㇒" d="M77.7,67.32c0.03,0.24,0.38,1.15,0.16,1.47c-1.34,1.97-5.53,4.79-12.36,8.71"/>
		<path style="stroke: #bf096c;" id="kvg:08407-s11" kvg:type="㇏" d="M47.08,66.81C53.25,71,74.25,89.75,85.01,94.67c1.97,0.9,3.2,1.18,5.33,1.65"/>
	</g>
</g>
</g>
<g id="kvg:StrokeNumbers_08407" style="font-size:8;fill:#808080" transform="scale(3.0,3.0)">
	<text style="fill: #bf0909;" transform="matrix(1 0 0 1 10.50 20.50)">1</text>
	<text style="fill: #bf6c09;" transform="matrix(1 0 0 1 29.50 10.50)">2</text>
	<text style="fill: #aebf09;" transform="matrix(1 0 0 1 58.50 8.50)">3</text>
	<text style="fill: #4bbf09;" transform="matrix(1 0 0 1 25.50 36.50)">4</text>
	<text style="fill: #09bf2a;" transform="matrix(1 0 0 1 45.50 29.50)">5</text>
	<text style="fill: #09bf8d;" transform="matrix(1 0 0 1 40.50 39.25)">6</text>
	<text style="fill: #098dbf;" transform="matrix(1 0 0 1 40.54 49.50)">7</text>
	<text style="fill: #092abf;" transform="matrix(1 0 0 1 7.50 64.50)">8</text>
	<text style="fill: #4b09bf;" transform="matrix(1 0 0 1 28.50 73.50)">9</text>
	<text style="fill: #ae09bf;" transform="matrix(1 0 0 1 65.50 70.50)">10</text>
	<text style="fill: #bf096c;" transform="matrix(1 0 0 1 41.50 74.50)">11</text>
</g>
</svg>
