<?xml version="1.0" encoding="UTF-8"?>
<!--
This file has been modified from the original version by the kanji_colorize.py
script (available at http://github.com/cayennes/kanji-colorize) with these
settings:
    mode: spectrum
    saturation: 0.95
    value: 0.75
    image_size: 327
It remains under a Creative Commons-Attribution-Share Alike 3.0 License.

The original SVG has the following copyright:

Copyright (C) 2009/2010/2011 Ulrich Apel.
This work is distributed under the conditions of the Creative Commons
Attribution-Share Alike 3.0 Licence. This means you are free:
* to Share - to copy, distribute and transmit the work
* to Remix - to adapt the work

Under the following conditions:
* Attribution. You must attribute the work by stating your use of KanjiVG in
  your own copyright header and linking to KanjiVG's website
  (http://kanjivg.tagaini.net)
* Share Alike. If you alter, transform, or build upon this work, you may
  distribute the resulting work only under the same or similar license to this
  one.

See http://creativecommons.org/licenses/by-sa/3.0/ for more details.
-->
<!DOCTYPE svg PUBLIC "-//W3C//DTD SVG 1.0//EN" "http://www.w3.org/TR/2001/REC-SVG-20010904/DTD/svg10.dtd" [
<!ATTLIST g
xmlns:kvg CDATA #FIXED "http://kanjivg.tagaini.net"
kvg:element CDATA #IMPLIED
kvg:variant CDATA #IMPLIED
kvg:partial CDATA #IMPLIED
kvg:original CDATA #IMPLIED
kvg:part CDATA #IMPLIED
kvg:number CDATA #IMPLIED
kvg:tradForm CDATA #IMPLIED
kvg:radicalForm CDATA #IMPLIED
kvg:position CDATA #IMPLIED
kvg:radical CDATA #IMPLIED
kvg:phon CDATA #IMPLIED >
<!ATTLIST path
xmlns:kvg CDATA #FIXED "http://kanjivg.tagaini.net"
kvg:type CDATA #IMPLIED >
]>
<svg xmlns="http://www.w3.org/2000/svg" width="327" height = "327" viewBox="0 0 327 327">
<g id="kvg:StrokePaths_0848b" style="fill:none;stroke:#000000;stroke-width:3;stroke-linecap:round;stroke-linejoin:round;" transform="scale(3.0,3.0)">
<g id="kvg:0848b" kvg:element="蒋">
	<g id="kvg:0848b-g1" kvg:element="艹" kvg:variant="true" kvg:original="艸" kvg:position="top" kvg:radical="general">
		<path style="stroke: #bf0909;" id="kvg:0848b-s1" kvg:type="㇐" d="M20.75,21.27c3.51,0.68,7.03,0.62,10.61,0.29C44,20.38,62.12,19.25,75.25,18.9c3.88-0.1,7.69-0.25,11.5,0.38"/>
		<path style="stroke: #bf5d09;" id="kvg:0848b-s2" kvg:type="㇑a" d="M39,11.75c1.06,1.06,1.68,2.35,1.75,3.25c0.62,8.12,0.75,12.12,1,16"/>
		<path style="stroke: #bfb109;" id="kvg:0848b-s3" kvg:type="㇑a" d="M66.25,9.75c0.62,1.25,0.37,2.52,0,4c-1.12,4.5-2.38,9.5-4,15.25"/>
	</g>
	<g id="kvg:0848b-g2" kvg:element="将" kvg:position="bottom">
		<g id="kvg:0848b-g3" kvg:element="⺦" kvg:variant="true" kvg:original="爿" kvg:position="left">
			<path style="stroke: #79bf09;" id="kvg:0848b-s4" kvg:type="㇑" d="M34.41,33.68c1.2,1.2,1.66,2.82,1.66,4.24c0,0.67,0.02,32.44,0.03,50.46c0,5.49,0.01,9.71,0.01,11.37"/>
			<path style="stroke: #25bf09;" id="kvg:0848b-s5" kvg:type="㇔" d="M17.7,44.07c3.02,1.98,7.79,8.14,8.54,11.22"/>
			<path style="stroke: #09bf41;" id="kvg:0848b-s6" kvg:type="㇀" d="M15.5,82.51c1.75,0.86,2.54,0.51,3.69-0.59c3.34-3.23,7.66-7.18,10.7-11.31"/>
		</g>
		<g id="kvg:0848b-g4" kvg:position="right">
			<g id="kvg:0848b-g5" kvg:element="⺤" kvg:variant="true" kvg:original="爪" kvg:position="top">
				<path style="stroke: #09bf95;" id="kvg:0848b-s7" kvg:type="㇒" d="M80.68,27.89c-0.34,1.12-1,1.93-1.97,2.42c-4.31,2.61-14.51,6.59-28.12,9.3"/>
				<path style="stroke: #0995bf;" id="kvg:0848b-s8" kvg:type="㇔" d="M45.93,46.6c2.47,1.96,6.62,8.08,7.24,11.14"/>
				<path style="stroke: #0941bf;" id="kvg:0848b-s9" kvg:type="㇔" d="M60.34,43.95c2.04,1.74,5.27,6.9,5.78,9.6"/>
				<path style="stroke: #2509bf;" id="kvg:0848b-s10" kvg:type="㇒" d="M85.45,37.93c0.1,0.96-0.29,1.89-0.75,2.74c-2.07,3.84-5.12,7.81-10.75,12.83"/>
			</g>
			<g id="kvg:0848b-g6" kvg:element="寸" kvg:position="bottom">
				<path style="stroke: #7909bf;" id="kvg:0848b-s11" kvg:type="㇐" d="M42.42,69.02c3.48,0.67,6.89,0.09,10.45-0.2c9.5-0.77,21.38-1.73,31.25-2.33c3.33-0.23,6.68-0.21,10.02,0.07"/>
				<path style="stroke: #bf09b1;" id="kvg:0848b-s12" kvg:type="㇚" d="M79.51,57.08c1.52,1.52,1.24,2.8,1.24,5.17c0,16.32-0.18,28.81-0.18,31.51c0,6.24-5.23,0.98-6.75,0.14"/>
				<path style="stroke: #bf095d;" id="kvg:0848b-s13" kvg:type="㇔" d="M54.22,76.86c2.79,1.57,6.96,6.43,7.65,8.87"/>
			</g>
		</g>
	</g>
</g>
</g>
<g id="kvg:StrokeNumbers_0848b" style="font-size:8;fill:#808080" transform="scale(3.0,3.0)">
	<text style="fill: #bf0909;" transform="matrix(1 0 0 1 13.85 22.35)">1</text>
	<text style="fill: #bf5d09;" transform="matrix(1 0 0 1 29.50 11.85)">2</text>
	<text style="fill: #bfb109;" transform="matrix(1 0 0 1 57.71 9.85)">3</text>
	<text style="fill: #79bf09;" transform="matrix(1 0 0 1 25.50 33.40)">4</text>
	<text style="fill: #25bf09;" transform="matrix(1 0 0 1 9.75 43.50)">5</text>
	<text style="fill: #09bf41;" transform="matrix(1 0 0 1 7.75 85.50)">6</text>
	<text style="fill: #09bf95;" transform="matrix(1 0 0 1 71.75 28.50)">7</text>
	<text style="fill: #0995bf;" transform="matrix(1 0 0 1 39.50 52.50)">8</text>
	<text style="fill: #0941bf;" transform="matrix(1 0 0 1 53.50 48.50)">9</text>
	<text style="fill: #2509bf;" transform="matrix(1 0 0 1 73.50 41.95)">10</text>
	<text style="fill: #7909bf;" transform="matrix(1 0 0 1 40.50 65.50)">11</text>
	<text style="fill: #bf09b1;" transform="matrix(1 0 0 1 68.75 62.50)">12</text>
	<text style="fill: #bf095d;" transform="matrix(1 0 0 1 43.50 80.50)">13</text>
</g>
</svg>
