<?xml version="1.0" encoding="UTF-8"?>
<!--
This file has been modified from the original version by the kanji_colorize.py
script (available at http://github.com/cayennes/kanji-colorize) with these
settings:
    mode: spectrum
    saturation: 0.95
    value: 0.75
    image_size: 327
It remains under a Creative Commons-Attribution-Share Alike 3.0 License.

The original SVG has the following copyright:

Copyright (C) 2009/2010/2011 Ulrich Apel.
This work is distributed under the conditions of the Creative Commons
Attribution-Share Alike 3.0 Licence. This means you are free:
* to Share - to copy, distribute and transmit the work
* to Remix - to adapt the work

Under the following conditions:
* Attribution. You must attribute the work by stating your use of KanjiVG in
  your own copyright header and linking to KanjiVG's website
  (http://kanjivg.tagaini.net)
* Share Alike. If you alter, transform, or build upon this work, you may
  distribute the resulting work only under the same or similar license to this
  one.

See http://creativecommons.org/licenses/by-sa/3.0/ for more details.
-->
<!DOCTYPE svg PUBLIC "-//W3C//DTD SVG 1.0//EN" "http://www.w3.org/TR/2001/REC-SVG-20010904/DTD/svg10.dtd" [
<!ATTLIST g
xmlns:kvg CDATA #FIXED "http://kanjivg.tagaini.net"
kvg:element CDATA #IMPLIED
kvg:variant CDATA #IMPLIED
kvg:partial CDATA #IMPLIED
kvg:original CDATA #IMPLIED
kvg:part CDATA #IMPLIED
kvg:number CDATA #IMPLIED
kvg:tradForm CDATA #IMPLIED
kvg:radicalForm CDATA #IMPLIED
kvg:position CDATA #IMPLIED
kvg:radical CDATA #IMPLIED
kvg:phon CDATA #IMPLIED >
<!ATTLIST path
xmlns:kvg CDATA #FIXED "http://kanjivg.tagaini.net"
kvg:type CDATA #IMPLIED >
]>
<svg xmlns="http://www.w3.org/2000/svg" width="327" height = "327" viewBox="0 0 327 327">
<g id="kvg:StrokePaths_084cb" style="fill:none;stroke:#000000;stroke-width:3;stroke-linecap:round;stroke-linejoin:round;" transform="scale(3.0,3.0)">
<g id="kvg:084cb" kvg:element="蓋">
	<g id="kvg:084cb-g1" kvg:element="艹" kvg:variant="true" kvg:original="艸" kvg:position="top" kvg:radical="general">
		<path style="stroke: #bf0909;" id="kvg:084cb-s1" kvg:type="㇐" d="M21.75,22.02c3.4,0.72,6.77,0.68,10.25,0.28c13.53-1.54,32.12-2.57,46.88-3.18c3.58-0.15,7.36-0.2,10.88,0.4"/>
		<path style="stroke: #bf5d09;" id="kvg:084cb-s2" kvg:type="㇑a" d="M38.25,11c0.94,0.94,1.43,2.33,1.52,3.08c0.85,6.67,1.48,10.42,1.98,15.42"/>
		<path style="stroke: #bfb109;" id="kvg:084cb-s3" kvg:type="㇑a" d="M70.38,8.75c0.84,1.38,0.65,2.6,0.32,4.02c-1.57,6.73-2.19,9.6-3.91,15.98"/>
	</g>
	<g id="kvg:084cb-g2" kvg:element="盍" kvg:position="bottom">
		<g id="kvg:084cb-g3" kvg:element="去" kvg:position="top">
			<g id="kvg:084cb-g4" kvg:element="土" kvg:position="top">
				<path style="stroke: #79bf09;" id="kvg:084cb-s4" kvg:type="㇐" d="M29.63,39.34c2.74,0.41,5.49,0.43,8.25,0.08c9.59-1.08,21.8-2.2,32-2.69c3.09-0.39,6.18-0.12,9.25,0.31"/>
				<path style="stroke: #25bf09;" id="kvg:084cb-s5" kvg:type="㇑a" d="M52.42,27.25c0.98,0.98,1.27,2.28,1.27,3.84c0,8.03,0.14,13.28,0.14,17.25"/>
				<path style="stroke: #09bf41;" id="kvg:084cb-s6" kvg:type="㇐" d="M18.63,51.69c3.7,0.67,7.36,0.44,11.1,0.09c16.85-1.57,37.1-2.97,51.02-3.54c3.47-0.34,7.18,0.02,10.63,0.59"/>
			</g>
			<g id="kvg:084cb-g5" kvg:element="厶" kvg:position="bottom">
				<path style="stroke: #09bf95;" id="kvg:084cb-s7" kvg:type="㇜" d="M50.55,52.79c0,1.21-0.85,2.26-1.33,2.66c-4.84,4.05-8.34,6.05-15.32,10.76c-2.49,1.68-2.78,3.04,0.98,2.41c12.62-2.09,19.74-3.13,37.61-6.5"/>
				<path style="stroke: #0995bf;" id="kvg:084cb-s8" kvg:type="㇔" d="M66.02,55.14c4.78,2.11,12.35,8.68,13.54,11.97"/>
			</g>
		</g>
		<g id="kvg:084cb-g6" kvg:element="皿" kvg:position="bottom">
			<path style="stroke: #0941bf;" id="kvg:084cb-s9" kvg:type="㇑a" d="M29.27,75.88c0.93,0.93,1.48,1.84,1.62,2.8c0.98,6.7,1.61,10.3,2.36,16.7"/>
			<path style="stroke: #2509bf;" id="kvg:084cb-s10" kvg:type="㇕b" d="M31.63,77.42c14.3-1.13,35.56-3.14,46.02-4.31c2.04-0.23,4.1,0.9,3.69,3.17C80.5,81,79.79,85.57,78,92.88"/>
			<path style="stroke: #7909bf;" id="kvg:084cb-s11" kvg:type="㇑a" d="M46.06,78.37c0.72,0.72,0.86,1.63,0.91,2.72c0.27,6.03,0.52,7.41,0.81,12.95"/>
			<path style="stroke: #bf09b1;" id="kvg:084cb-s12" kvg:type="㇑a" d="M63.74,76.56c0.38,0.82,0.48,1.6,0.38,2.12C63,84.62,62.75,86,61.54,93.62"/>
			<path style="stroke: #bf095d;" id="kvg:084cb-s13" kvg:type="㇐" d="M15.89,96.63c4.56,0.82,9.09,0.63,13.74,0.25C50,95.25,62.88,94.75,85,93.79c3.73-0.07,7.44,0.18,11.12,0.75"/>
		</g>
	</g>
</g>
</g>
<g id="kvg:StrokeNumbers_084cb" style="font-size:8;fill:#808080" transform="scale(3.0,3.0)">
	<text style="fill: #bf0909;" transform="matrix(1 0 0 1 14.50 23.50)">1</text>
	<text style="fill: #bf5d09;" transform="matrix(1 0 0 1 28.66 11.85)">2</text>
	<text style="fill: #bfb109;" transform="matrix(1 0 0 1 61.50 10.50)">3</text>
	<text style="fill: #79bf09;" transform="matrix(1 0 0 1 21.50 39.50)">4</text>
	<text style="fill: #25bf09;" transform="matrix(1 0 0 1 44.50 32.50)">5</text>
	<text style="fill: #09bf41;" transform="matrix(1 0 0 1 10.50 52.50)">6</text>
	<text style="fill: #09bf95;" transform="matrix(1 0 0 1 36.50 60.18)">7</text>
	<text style="fill: #0995bf;" transform="matrix(1 0 0 1 57.50 58.10)">8</text>
	<text style="fill: #0941bf;" transform="matrix(1 0 0 1 22.50 81.50)">9</text>
	<text style="fill: #2509bf;" transform="matrix(1 0 0 1 37.50 75.50)">10</text>
	<text style="fill: #7909bf;" transform="matrix(1 0 0 1 37.50 85.50)">11</text>
	<text style="fill: #bf09b1;" transform="matrix(1 0 0 1 53.50 83.50)">12</text>
	<text style="fill: #bf095d;" transform="matrix(1 0 0 1 12.50 93.50)">13</text>
</g>
</svg>
