<?xml version="1.0" encoding="UTF-8"?>
<!--
This file has been modified from the original version by the kanji_colorize.py
script (available at http://github.com/cayennes/kanji-colorize) with these
settings:
    mode: spectrum
    saturation: 0.95
    value: 0.75
    image_size: 327
It remains under a Creative Commons-Attribution-Share Alike 3.0 License.

The original SVG has the following copyright:

Copyright (C) 2009/2010/2011 Ulrich Apel.
This work is distributed under the conditions of the Creative Commons
Attribution-Share Alike 3.0 Licence. This means you are free:
* to Share - to copy, distribute and transmit the work
* to Remix - to adapt the work

Under the following conditions:
* Attribution. You must attribute the work by stating your use of KanjiVG in
  your own copyright header and linking to KanjiVG's website
  (http://kanjivg.tagaini.net)
* Share Alike. If you alter, transform, or build upon this work, you may
  distribute the resulting work only under the same or similar license to this
  one.

See http://creativecommons.org/licenses/by-sa/3.0/ for more details.
-->
<!DOCTYPE svg PUBLIC "-//W3C//DTD SVG 1.0//EN" "http://www.w3.org/TR/2001/REC-SVG-20010904/DTD/svg10.dtd" [
<!ATTLIST g
xmlns:kvg CDATA #FIXED "http://kanjivg.tagaini.net"
kvg:element CDATA #IMPLIED
kvg:variant CDATA #IMPLIED
kvg:partial CDATA #IMPLIED
kvg:original CDATA #IMPLIED
kvg:part CDATA #IMPLIED
kvg:number CDATA #IMPLIED
kvg:tradForm CDATA #IMPLIED
kvg:radicalForm CDATA #IMPLIED
kvg:position CDATA #IMPLIED
kvg:radical CDATA #IMPLIED
kvg:phon CDATA #IMPLIED >
<!ATTLIST path
xmlns:kvg CDATA #FIXED "http://kanjivg.tagaini.net"
kvg:type CDATA #IMPLIED >
]>
<svg xmlns="http://www.w3.org/2000/svg" width="327" height = "327" viewBox="0 0 327 327">
<g id="kvg:StrokePaths_08543" style="fill:none;stroke:#000000;stroke-width:3;stroke-linecap:round;stroke-linejoin:round;" transform="scale(3.0,3.0)">
<g id="kvg:08543" kvg:element="蕃">
	<g id="kvg:08543-g1" kvg:element="艹" kvg:variant="true" kvg:original="艸" kvg:position="top" kvg:radical="general">
		<path style="stroke: #bf0909;" id="kvg:08543-s1" kvg:type="㇐" d="M20,23.27c1.29,0.53,2.8,0.63,4.1,0.53C36,22.83,71,19.33,84.72,19.26c2.16-0.01,3.45,0.25,4.53,0.51"/>
		<path style="stroke: #bf5209;" id="kvg:08543-s2" kvg:type="㇑a" d="M38.5,13.5c1.33,1.13,1.76,1.48,1.9,2.17c1.33,6.52,1.71,12.45,2.1,14.83"/>
		<path style="stroke: #bf9a09;" id="kvg:08543-s3" kvg:type="㇑a" d="M71.23,10.5c0.83,0.74,1.38,1.86,1.1,2.94c-0.83,3.31-1.38,8.83-2.58,13.06"/>
	</g>
	<g id="kvg:08543-g2" kvg:element="番" kvg:position="bottom">
		<g id="kvg:08543-g3" kvg:element="釆" kvg:position="top">
			<g id="kvg:08543-g4" kvg:element="丿">
				<path style="stroke: #9abf09;" id="kvg:08543-s4" kvg:type="㇒" d="M64.26,29c0.1,0.24,0.13,0.59-0.19,0.98c-2.65,3.2-17.02,6.2-34.07,8.78"/>
			</g>
			<g id="kvg:08543-g5" kvg:element="米">
				<path style="stroke: #52bf09;" id="kvg:08543-s5" kvg:type="㇔" d="M34.26,41.53c1.89,1.21,4.73,4.64,5.2,6.53"/>
				<path style="stroke: #09bf09;" id="kvg:08543-s6" kvg:type="㇒" d="M75.01,35.03c0.03,0.29,0.15,0.76-0.05,1.15c-1.61,3.1-4.19,6.75-9.49,11.01"/>
				<path style="stroke: #09bf52;" id="kvg:08543-s7" kvg:type="㇐" d="M17.77,51.96c0.84,0.16,3.09,0.42,5.33,0.48c6.17,0.16,53.81-5.23,63.63-4.91c2.24,0.07,3.26-0.04,4.71,0.5"/>
				<path style="stroke: #09bf9a;" id="kvg:08543-s8" kvg:type="㇑" d="M52.59,36.91c1.18,0.44,2.12,2.59,2.12,3.52c0,5.51-0.24,21.31-0.24,27.84"/>
				<path style="stroke: #099abf;" id="kvg:08543-s9" kvg:type="㇒" d="M51,50.22c-6.66,8.73-22.53,19.99-37.5,25.03"/>
				<path style="stroke: #0952bf;" id="kvg:08543-s10" kvg:type="㇏" d="M55.88,50.33c4.74,2.65,27.47,16.44,32.61,19.05c1.74,0.88,3.24,1.26,4.99,1.52"/>
			</g>
		</g>
		<g id="kvg:08543-g6" kvg:element="田" kvg:position="bottom">
			<path style="stroke: #0909bf;" id="kvg:08543-s11" kvg:type="㇑" d="M32.4,73.64c0.31,0.43,1.32,2.22,1.48,2.76c1.38,4.4,2.61,14.24,3.42,22.35"/>
			<path style="stroke: #5209bf;" id="kvg:08543-s12" kvg:type="㇕a" d="M34.36,75.05c13.72-1.25,31.16-3.08,39.34-3.51c3.01-0.16,4.54,1.12,4.37,2.3C77.4,78.7,75.4,89.7,73.1,97.19"/>
			<path style="stroke: #9a09bf;" id="kvg:08543-s13" kvg:type="㇑a" d="M53.54,74.58c0.65,0.83,0.88,1.17,0.88,2.33c-0.02,5.47,0.2,16.36,0.2,18.14"/>
			<path style="stroke: #bf099a;" id="kvg:08543-s14" kvg:type="㇐a" d="M36.32,85.2c3.57-0.21,36.1-2.17,39.06-2.17"/>
			<path style="stroke: #bf0952;" id="kvg:08543-s15" kvg:type="㇐a" d="M37.88,96.36c9.47-0.29,24.3-2.07,35.19-2.18"/>
		</g>
	</g>
</g>
</g>
<g id="kvg:StrokeNumbers_08543" style="font-size:8;fill:#808080" transform="scale(3.0,3.0)">
	<text style="fill: #bf0909;" transform="matrix(1 0 0 1 13.50 22.50)">1</text>
	<text style="fill: #bf5209;" transform="matrix(1 0 0 1 30.50 13.50)">2</text>
	<text style="fill: #bf9a09;" transform="matrix(1 0 0 1 64.50 11.50)">3</text>
	<text style="fill: #9abf09;" transform="matrix(1 0 0 1 55.50 29.50)">4</text>
	<text style="fill: #52bf09;" transform="matrix(1 0 0 1 28.50 47.33)">5</text>
	<text style="fill: #09bf09;" transform="matrix(1 0 0 1 65.50 38.50)">6</text>
	<text style="fill: #09bf52;" transform="matrix(1 0 0 1 10.50 53.18)">7</text>
	<text style="fill: #09bf9a;" transform="matrix(1 0 0 1 47.50 44.50)">8</text>
	<text style="fill: #099abf;" transform="matrix(1 0 0 1 31.25 62.03)">9</text>
	<text style="fill: #0952bf;" transform="matrix(1 0 0 1 72.25 58.95)">10</text>
	<text style="fill: #0909bf;" transform="matrix(1 0 0 1 23.50 80.50)">11</text>
	<text style="fill: #5209bf;" transform="matrix(1 0 0 1 40.50 70.50)">12</text>
	<text style="fill: #9a09bf;" transform="matrix(1 0 0 1 58.50 80.73)">13</text>
	<text style="fill: #bf099a;" transform="matrix(1 0 0 1 39.50 82.50)">14</text>
	<text style="fill: #bf0952;" transform="matrix(1 0 0 1 40.50 93.58)">15</text>
</g>
</svg>
