<?xml version="1.0" encoding="UTF-8"?>
<!--
This file has been modified from the original version by the kanji_colorize.py
script (available at http://github.com/cayennes/kanji-colorize) with these
settings:
    mode: spectrum
    saturation: 0.95
    value: 0.75
    image_size: 327
It remains under a Creative Commons-Attribution-Share Alike 3.0 License.

The original SVG has the following copyright:

Copyright (C) 2009/2010/2011 Ulrich Apel.
This work is distributed under the conditions of the Creative Commons
Attribution-Share Alike 3.0 Licence. This means you are free:
* to Share - to copy, distribute and transmit the work
* to Remix - to adapt the work

Under the following conditions:
* Attribution. You must attribute the work by stating your use of KanjiVG in
  your own copyright header and linking to KanjiVG's website
  (http://kanjivg.tagaini.net)
* Share Alike. If you alter, transform, or build upon this work, you may
  distribute the resulting work only under the same or similar license to this
  one.

See http://creativecommons.org/licenses/by-sa/3.0/ for more details.
-->
<!DOCTYPE svg PUBLIC "-//W3C//DTD SVG 1.0//EN" "http://www.w3.org/TR/2001/REC-SVG-20010904/DTD/svg10.dtd" [
<!ATTLIST g
xmlns:kvg CDATA #FIXED "http://kanjivg.tagaini.net"
kvg:element CDATA #IMPLIED
kvg:variant CDATA #IMPLIED
kvg:partial CDATA #IMPLIED
kvg:original CDATA #IMPLIED
kvg:part CDATA #IMPLIED
kvg:number CDATA #IMPLIED
kvg:tradForm CDATA #IMPLIED
kvg:radicalForm CDATA #IMPLIED
kvg:position CDATA #IMPLIED
kvg:radical CDATA #IMPLIED
kvg:phon CDATA #IMPLIED >
<!ATTLIST path
xmlns:kvg CDATA #FIXED "http://kanjivg.tagaini.net"
kvg:type CDATA #IMPLIED >
]>
<svg xmlns="http://www.w3.org/2000/svg" width="327" height = "327" viewBox="0 0 327 327">
<g id="kvg:StrokePaths_08569" style="fill:none;stroke:#000000;stroke-width:3;stroke-linecap:round;stroke-linejoin:round;" transform="scale(3.0,3.0)">
<g id="kvg:08569" kvg:element="蕩">
	<g id="kvg:08569-g1" kvg:element="艹" kvg:variant="true" kvg:original="艸" kvg:position="top" kvg:radical="general">
		<path style="stroke: #bf0909;" id="kvg:08569-s1" kvg:type="㇐" d="M22,22.27c1.29,0.53,2.8,0.63,4.1,0.53c11.9-0.96,43.4-3.96,57.12-4.03c2.16-0.01,3.45,0.25,4.53,0.51"/>
		<path style="stroke: #bf5209;" id="kvg:08569-s2" kvg:type="㇑a" d="M38.75,11.5c1.75,1.43,2.39,1.86,2.5,2.75C42,20.25,42.5,27.5,43,30.5"/>
		<path style="stroke: #bf9a09;" id="kvg:08569-s3" kvg:type="㇑a" d="M67.72,9.5c0.98,0.87,1.63,2.21,1.31,3.49c-0.98,3.93-2.14,10.48-3.56,15.51"/>
	</g>
	<g id="kvg:08569-g2" kvg:element="湯" kvg:position="bottom">
		<g id="kvg:08569-g3" kvg:element="氵" kvg:variant="true" kvg:original="水" kvg:position="left">
			<path style="stroke: #9abf09;" id="kvg:08569-s4" kvg:type="㇔" d="M23.88,34.32c3.48,1.3,9,5.34,9.87,7.37"/>
			<path style="stroke: #52bf09;" id="kvg:08569-s5" kvg:type="㇔" d="M17.5,52.79c3.71,1.14,9.57,4.67,10.5,6.43"/>
			<path style="stroke: #09bf09;" id="kvg:08569-s6" kvg:type="㇀" d="M16.75,90.64c1.5,1.06,3.31,1.11,4.25-0.21c2.75-3.82,5.5-8.49,8-13.36"/>
		</g>
		<g id="kvg:08569-g4" kvg:element="昜" kvg:position="right">
			<g id="kvg:08569-g5" kvg:element="旦" kvg:position="top">
				<g id="kvg:08569-g6" kvg:element="日">
					<path style="stroke: #09bf52;" id="kvg:08569-s7" kvg:type="㇑" d="M48.3,33.85c0.35,0.28,0.98,0.78,1.08,1.46c0.71,4.77,3.88,19.62,3.98,20.31"/>
					<path style="stroke: #09bf9a;" id="kvg:08569-s8" kvg:type="㇕a" d="M50.09,34.68c5.58-0.68,21.71-2.48,28.86-2.94c1.24-0.08,1.99,1.84,1.95,2.36c-0.54,6.43-3.36,19.35-3.36,19.87"/>
					<path style="stroke: #099abf;" id="kvg:08569-s9" kvg:type="㇐a" d="M51.2,44.13c2.22,0,25.53-2.66,28.04-2.66"/>
					<path style="stroke: #0952bf;" id="kvg:08569-s10" kvg:type="㇐a" d="M53.69,54.04c4.51-0.51,17.73-1.98,23.35-2.42"/>
				</g>
				<g id="kvg:08569-g7" kvg:element="一">
					<path style="stroke: #0909bf;" id="kvg:08569-s11" kvg:type="㇐" d="M38,62.03c1.17,0.31,3.33,0.44,4.5,0.31c11.76-1.33,38.76-3.97,48.63-4.17c1.96-0.04,3.13,0.15,4.11,0.3"/>
				</g>
			</g>
			<g id="kvg:08569-g8" kvg:element="勿" kvg:position="bottom">
				<g id="kvg:08569-g9" kvg:element="勹">
					<g id="kvg:08569-g10" kvg:element="丿">
						<path style="stroke: #5209bf;" id="kvg:08569-s12" kvg:type="㇒" d="M53.66,63.53c-0.02,0.4-0.08,1.04-0.34,1.62c-1.51,3.4-9.35,10.65-17.63,15.07"/>
					</g>
					<path style="stroke: #9a09bf;" id="kvg:08569-s13" kvg:type="㇆" d="M52.69,71.01c0.73,0.42,1.82,0.58,3.11,0.34c1.3-0.23,27.05-2.95,30.22-3c3.17-0.05,3.18,1.33,2.73,4.16c-0.62,3.9-3.26,17.72-10.13,25.98c-2.08,2.5-3.2-0.46-4.83-2.15"/>
				</g>
				<g id="kvg:08569-g11" kvg:element="丿">
					<path style="stroke: #bf099a;" id="kvg:08569-s14" kvg:type="㇒" d="M57.95,74.36c-0.01,0.34-0.02,1.66-0.28,2.14c-2.55,4.67-8.61,10.31-16.52,13.99"/>
				</g>
				<g id="kvg:08569-g12" kvg:element="丿">
					<path style="stroke: #bf0952;" id="kvg:08569-s15" kvg:type="㇒" d="M73.91,72.56c-0.03,0.74-0.12,1.91-0.67,2.95c-3.22,6.19-12.74,16.24-27.7,24.28"/>
				</g>
			</g>
		</g>
	</g>
</g>
</g>
<g id="kvg:StrokeNumbers_08569" style="font-size:8;fill:#808080" transform="scale(3.0,3.0)">
	<text style="fill: #bf0909;" transform="matrix(1 0 0 1 16.50 21.50)">1</text>
	<text style="fill: #bf5209;" transform="matrix(1 0 0 1 30.50 11.50)">2</text>
	<text style="fill: #bf9a09;" transform="matrix(1 0 0 1 59.71 10.50)">3</text>
	<text style="fill: #9abf09;" transform="matrix(1 0 0 1 15.75 34.50)">4</text>
	<text style="fill: #52bf09;" transform="matrix(1 0 0 1 10.50 53.50)">5</text>
	<text style="fill: #09bf09;" transform="matrix(1 0 0 1 9.50 94.50)">6</text>
	<text style="fill: #09bf52;" transform="matrix(1 0 0 1 42.50 41.50)">7</text>
	<text style="fill: #09bf9a;" transform="matrix(1 0 0 1 51.50 31.10)">8</text>
	<text style="fill: #099abf;" transform="matrix(1 0 0 1 55.75 41.03)">9</text>
	<text style="fill: #0952bf;" transform="matrix(1 0 0 1 55.75 51.50)">10</text>
	<text style="fill: #0909bf;" transform="matrix(1 0 0 1 35.50 59.50)">11</text>
	<text style="fill: #5209bf;" transform="matrix(1 0 0 1 39.50 70.80)">12</text>
	<text style="fill: #9a09bf;" transform="matrix(1 0 0 1 57.50 68.23)">13</text>
	<text style="fill: #bf099a;" transform="matrix(1 0 0 1 46.50 79.50)">14</text>
	<text style="fill: #bf0952;" transform="matrix(1 0 0 1 60.50 81.50)">15</text>
</g>
</svg>
