<?xml version="1.0" encoding="UTF-8"?>
<!--
This file has been modified from the original version by the kanji_colorize.py
script (available at http://github.com/cayennes/kanji-colorize) with these
settings:
    mode: spectrum
    saturation: 0.95
    value: 0.75
    image_size: 327
It remains under a Creative Commons-Attribution-Share Alike 3.0 License.

The original SVG has the following copyright:

Copyright (C) 2009/2010/2011 Ulrich Apel.
This work is distributed under the conditions of the Creative Commons
Attribution-Share Alike 3.0 Licence. This means you are free:
* to Share - to copy, distribute and transmit the work
* to Remix - to adapt the work

Under the following conditions:
* Attribution. You must attribute the work by stating your use of KanjiVG in
  your own copyright header and linking to KanjiVG's website
  (http://kanjivg.tagaini.net)
* Share Alike. If you alter, transform, or build upon this work, you may
  distribute the resulting work only under the same or similar license to this
  one.

See http://creativecommons.org/licenses/by-sa/3.0/ for more details.
-->
<!DOCTYPE svg PUBLIC "-//W3C//DTD SVG 1.0//EN" "http://www.w3.org/TR/2001/REC-SVG-20010904/DTD/svg10.dtd" [
<!ATTLIST g
xmlns:kvg CDATA #FIXED "http://kanjivg.tagaini.net"
kvg:element CDATA #IMPLIED
kvg:variant CDATA #IMPLIED
kvg:partial CDATA #IMPLIED
kvg:original CDATA #IMPLIED
kvg:part CDATA #IMPLIED
kvg:number CDATA #IMPLIED
kvg:tradForm CDATA #IMPLIED
kvg:radicalForm CDATA #IMPLIED
kvg:position CDATA #IMPLIED
kvg:radical CDATA #IMPLIED
kvg:phon CDATA #IMPLIED >
<!ATTLIST path
xmlns:kvg CDATA #FIXED "http://kanjivg.tagaini.net"
kvg:type CDATA #IMPLIED >
]>
<svg xmlns="http://www.w3.org/2000/svg" width="327" height = "327" viewBox="0 0 327 327">
<g id="kvg:StrokePaths_0857e" style="fill:none;stroke:#000000;stroke-width:3;stroke-linecap:round;stroke-linejoin:round;" transform="scale(3.0,3.0)">
<g id="kvg:0857e" kvg:element="蕾">
	<g id="kvg:0857e-g1" kvg:element="艹" kvg:variant="true" kvg:original="艸" kvg:position="top" kvg:radical="general">
		<path style="stroke: #bf0909;" id="kvg:0857e-s1" kvg:type="㇐" d="M18,20.27c1.9,0.53,4.11,0.63,6.01,0.53c17.46-0.96,40.46-2.46,60.59-2.53c3.17-0.01,5.07,0.25,6.65,0.51"/>
		<path style="stroke: #bf4d09;" id="kvg:0857e-s2" kvg:type="㇑a" d="M38.75,10.6c1.42,1.16,1.87,1.51,2.02,2.23c1.42,6.68,1.32,13.25,1.73,15.68"/>
		<path style="stroke: #bf9109;" id="kvg:0857e-s3" kvg:type="㇑a" d="M65.71,9.75c0.89,0.79,0.98,2,0.69,3.17c-0.89,3.57-1.49,9.52-2.78,14.08"/>
	</g>
	<g id="kvg:0857e-g2" kvg:element="雷" kvg:position="bottom">
		<g id="kvg:0857e-g3" kvg:element="雨" kvg:variant="true" kvg:position="top">
			<path style="stroke: #a8bf09;" id="kvg:0857e-s4" kvg:type="㇐" d="M27.72,32.87c1.62,0.18,4.28,0.64,5.75,0.51c8.89-0.79,28.39-1.74,41.86-2.48c2.06-0.11,3.77-0.15,5.67,0.1"/>
			<path style="stroke: #64bf09;" id="kvg:0857e-s5" kvg:type="㇔/㇑" d="M20.86,40.51c-0.32,5.41-3.09,11.4-5.14,16.86"/>
			<path style="stroke: #20bf09;" id="kvg:0857e-s6" kvg:type="㇖b/㇆" d="M21.65,43.47c21.05-2.14,49.15-3.99,65.26-3.99c8.34,0,3.01,4.92-1.31,8.7"/>
			<path style="stroke: #09bf36;" id="kvg:0857e-s7" kvg:type="㇑" d="M52.28,34.37c1.28,0.65,1.83,2.26,1.83,2.78c0,0.52-0.29,23.9-0.29,25.34"/>
			<path style="stroke: #09bf7b;" id="kvg:0857e-s8" kvg:type="㇔" d="M33.51,46.76c3.04,0.76,7.18,3.04,8.84,4.3"/>
			<path style="stroke: #09bfbf;" id="kvg:0857e-s9" kvg:type="㇔" d="M30.75,55.12c3.02,0.76,7.7,3.54,9.35,4.8"/>
			<path style="stroke: #097bbf;" id="kvg:0857e-s10" kvg:type="㇔" d="M66.86,45.77c4,1.41,8.54,4.23,10.14,5.4"/>
			<path style="stroke: #0936bf;" id="kvg:0857e-s11" kvg:type="㇔" d="M66.34,55.48c3.55,1.09,8.39,4.36,10.33,6.18"/>
		</g>
		<g id="kvg:0857e-g4" kvg:element="田" kvg:position="bottom">
			<path style="stroke: #2009bf;" id="kvg:0857e-s12" kvg:type="㇑" d="M26.96,67.9c0.39,0.51,0.4,0.87,0.62,1.52c1.77,5.35,2.97,19.82,4.06,29.79"/>
			<path style="stroke: #6409bf;" id="kvg:0857e-s13" kvg:type="㇕a" d="M28.31,69.58c13.7-1.35,38.67-2.67,48.9-3.8c3.76-0.42,4.68,2.55,4.49,4.02c-0.71,5.39-2.41,19.85-5.62,28.6"/>
			<path style="stroke: #a809bf;" id="kvg:0857e-s14" kvg:type="㇑a" d="M52.04,68.59c0.98,0.27,1.56,1.98,1.6,3.14c0.27,7.63,0.09,19.12,0.09,23.14"/>
			<path style="stroke: #bf0991;" id="kvg:0857e-s15" kvg:type="㇐a" d="M30.38,82.94c4.46-0.52,45.61-2.44,49.29-2.65"/>
			<path style="stroke: #bf094d;" id="kvg:0857e-s16" kvg:type="㇐a" d="M31.86,97.27c9.87-0.57,29.36-1.4,44.72-1.98"/>
		</g>
	</g>
</g>
</g>
<g id="kvg:StrokeNumbers_0857e" style="font-size:8;fill:#808080" transform="scale(3.0,3.0)">
	<text style="fill: #bf0909;" transform="matrix(1 0 0 1 11.50 20.50)">1</text>
	<text style="fill: #bf4d09;" transform="matrix(1 0 0 1 29.50 10.50)">2</text>
	<text style="fill: #bf9109;" transform="matrix(1 0 0 1 57.50 9.50)">3</text>
	<text style="fill: #a8bf09;" transform="matrix(1 0 0 1 20.50 33.50)">4</text>
	<text style="fill: #64bf09;" transform="matrix(1 0 0 1 14.50 40.50)">5</text>
	<text style="fill: #20bf09;" transform="matrix(1 0 0 1 23.50 40.25)">6</text>
	<text style="fill: #09bf36;" transform="matrix(1 0 0 1 46.50 40.50)">7</text>
	<text style="fill: #09bf7b;" transform="matrix(1 0 0 1 26.50 50.50)">8</text>
	<text style="fill: #09bfbf;" transform="matrix(1 0 0 1 23.25 58.50)">9</text>
	<text style="fill: #097bbf;" transform="matrix(1 0 0 1 57.50 49.50)">10</text>
	<text style="fill: #0936bf;" transform="matrix(1 0 0 1 57.50 57.50)">11</text>
	<text style="fill: #2009bf;" transform="matrix(1 0 0 1 16.50 74.50)">12</text>
	<text style="fill: #6409bf;" transform="matrix(1 0 0 1 29.50 66.73)">13</text>
	<text style="fill: #a809bf;" transform="matrix(1 0 0 1 57.50 75.65)">14</text>
	<text style="fill: #bf0991;" transform="matrix(1 0 0 1 34.50 79.50)">15</text>
	<text style="fill: #bf094d;" transform="matrix(1 0 0 1 35.25 93.50)">16</text>
</g>
</svg>
