<?xml version="1.0" encoding="UTF-8"?>
<!--
This file has been modified from the original version by the kanji_colorize.py
script (available at http://github.com/cayennes/kanji-colorize) with these
settings:
    mode: spectrum
    saturation: 0.95
    value: 0.75
    image_size: 327
It remains under a Creative Commons-Attribution-Share Alike 3.0 License.

The original SVG has the following copyright:

Copyright (C) 2009/2010/2011 Ulrich Apel.
This work is distributed under the conditions of the Creative Commons
Attribution-Share Alike 3.0 Licence. This means you are free:
* to Share - to copy, distribute and transmit the work
* to Remix - to adapt the work

Under the following conditions:
* Attribution. You must attribute the work by stating your use of KanjiVG in
  your own copyright header and linking to KanjiVG's website
  (http://kanjivg.tagaini.net)
* Share Alike. If you alter, transform, or build upon this work, you may
  distribute the resulting work only under the same or similar license to this
  one.

See http://creativecommons.org/licenses/by-sa/3.0/ for more details.
-->
<!DOCTYPE svg PUBLIC "-//W3C//DTD SVG 1.0//EN" "http://www.w3.org/TR/2001/REC-SVG-20010904/DTD/svg10.dtd" [
<!ATTLIST g
xmlns:kvg CDATA #FIXED "http://kanjivg.tagaini.net"
kvg:element CDATA #IMPLIED
kvg:variant CDATA #IMPLIED
kvg:partial CDATA #IMPLIED
kvg:original CDATA #IMPLIED
kvg:part CDATA #IMPLIED
kvg:number CDATA #IMPLIED
kvg:tradForm CDATA #IMPLIED
kvg:radicalForm CDATA #IMPLIED
kvg:position CDATA #IMPLIED
kvg:radical CDATA #IMPLIED
kvg:phon CDATA #IMPLIED >
<!ATTLIST path
xmlns:kvg CDATA #FIXED "http://kanjivg.tagaini.net"
kvg:type CDATA #IMPLIED >
]>
<svg xmlns="http://www.w3.org/2000/svg" width="327" height = "327" viewBox="0 0 327 327">
<g id="kvg:StrokePaths_085fa" style="fill:none;stroke:#000000;stroke-width:3;stroke-linecap:round;stroke-linejoin:round;" transform="scale(3.0,3.0)">
<g id="kvg:085fa" kvg:element="藺">
	<g id="kvg:085fa-g1" kvg:element="艹" kvg:variant="true" kvg:original="艸" kvg:position="top" kvg:radical="general">
		<path style="stroke: #bf0909;" id="kvg:085fa-s1" kvg:type="㇐" d="M17.5,21.32c1.78,0.72,3.85,0.87,5.63,0.72c16.34-1.32,43.81-4.44,62.65-4.54c2.96-0.02,4.74,0.34,6.22,0.71"/>
		<path style="stroke: #bf4209;" id="kvg:085fa-s2" kvg:type="㇑a" d="M37.59,11c1.3,1.07,1.72,1.39,1.86,2.05c1.3,6.14,1.67,11.72,2.05,13.95"/>
		<path style="stroke: #bf7c09;" id="kvg:085fa-s3" kvg:type="㇑a" d="M65.79,8.75c0.89,0.79,0.98,2,0.69,3.17C65.59,15.49,65,21.44,63.71,26"/>
	</g>
	<g id="kvg:085fa-g2" kvg:position="bottom">
		<g id="kvg:085fa-g3" kvg:position="kamae">
			<g id="kvg:085fa-g4" kvg:element="門">
				<g id="kvg:085fa-g5" kvg:position="left">
					<path style="stroke: #bfb509;" id="kvg:085fa-s4" kvg:type="㇑" d="M19.58,33.18c0.7,0.38,1.68,2.87,1.82,3.64c0.14,0.77-0.09,56.81-0.23,61.6"/>
					<path style="stroke: #8fbf09;" id="kvg:085fa-s5" kvg:type="㇕a" d="M21.59,34.91c2.32-0.08,18.38-2.72,20.49-2.81c1.76-0.08,2.68,0.72,2.76,1.36c0.13,0.98-1.47,17.7-1.47,18.18"/>
					<path style="stroke: #56bf09;" id="kvg:085fa-s6" kvg:type="㇐a" d="M22,42.98c5.71-0.47,15.85-1.68,21.34-2.19"/>
					<path style="stroke: #1cbf09;" id="kvg:085fa-s7" kvg:type="㇐a" d="M21.59,52.47c7.73-0.91,13.72-1.61,20.56-2.03"/>
				</g>
				<g id="kvg:085fa-g6" kvg:position="right">
					<path style="stroke: #09bf2f;" id="kvg:085fa-s8" kvg:type="㇑" d="M62.81,31.04c0.42,0.52,0.84,1.64,0.84,2.34c0,0.7-0.14,16.88,0,17.57"/>
					<path style="stroke: #09bf69;" id="kvg:085fa-s9" kvg:type="㇆a" d="M64.36,32.98c2.38-0.09,18.97-1.89,21.13-1.99c1.81-0.09,2.84,0.95,2.83,1.48c-0.47,16.06-0.48,48.07-0.47,59.72c0,9.53-4.03,4.68-7.94,1.47"/>
					<path style="stroke: #09bfa2;" id="kvg:085fa-s10" kvg:type="㇐a" d="M64.78,40.6c3.22,0,18.37-1.65,22.01-1.65"/>
					<path style="stroke: #09a2bf;" id="kvg:085fa-s11" kvg:type="㇐a" d="M64.36,48.99c4.76,0,15.99-1.47,22.15-1.47"/>
				</g>
			</g>
			<g id="kvg:085fa-g7" kvg:element="隹">
				<g id="kvg:085fa-g8" kvg:element="亻" kvg:variant="true" kvg:original="人">
					<path style="stroke: #0969bf;" id="kvg:085fa-s12" kvg:type="㇒" d="M43.49,56.25c0.13,0.82-0.04,1.89-0.45,2.59c-2.62,4.46-5.95,8.24-11.96,13.67"/>
					<path style="stroke: #092fbf;" id="kvg:085fa-s13" kvg:type="㇑" d="M38.93,64.73c0.56,0.47,1,1.52,1.03,2.25c0.33,6.55-0.46,25.86-0.18,29.27"/>
				</g>
				<path style="stroke: #1c09bf;" id="kvg:085fa-s14" kvg:type="㇒" d="M59.15,52.75c0.05,0.52-0.01,1.21-0.17,1.66c-0.99,2.86-2.24,5.06-4.51,8.54"/>
				<path style="stroke: #5609bf;" id="kvg:085fa-s15" kvg:type="㇐b" d="M39.8,65.37c6.54-0.62,30.92-3.41,33.72-3.75"/>
				<path style="stroke: #8f09bf;" id="kvg:085fa-s16" kvg:type="㇑a" d="M56.1,66.01c0.44,0.34,0.79,0.79,0.79,1.37c0,6.59,0.02,14.19-0.22,22.78"/>
				<path style="stroke: #bf09b5;" id="kvg:085fa-s17" kvg:type="㇐b" d="M40.68,73.93c6.17-0.51,28.1-3,30.75-3.28"/>
				<path style="stroke: #bf097c;" id="kvg:085fa-s18" kvg:type="㇐b" d="M39.93,82.06c6.51-0.43,28.08-2.81,30.87-3.04"/>
				<path style="stroke: #bf0942;" id="kvg:085fa-s19" kvg:type="㇐b" d="M39.93,91.59c6.54-0.62,31.69-2.3,34.49-2.63"/>
			</g>
		</g>
	</g>
</g>
</g>
<g id="kvg:StrokeNumbers_085fa" style="font-size:8;fill:#808080" transform="scale(3.0,3.0)">
	<text style="fill: #bf0909;" transform="matrix(1 0 0 1 11.50 20.50)">1</text>
	<text style="fill: #bf4209;" transform="matrix(1 0 0 1 28.66 10.50)">2</text>
	<text style="fill: #bf7c09;" transform="matrix(1 0 0 1 57.50 8.50)">3</text>
	<text style="fill: #bfb509;" transform="matrix(1 0 0 1 13.25 40.50)">4</text>
	<text style="fill: #8fbf09;" transform="matrix(1 0 0 1 22.50 31.50)">5</text>
	<text style="fill: #56bf09;" transform="matrix(1 0 0 1 26.46 41.50)">6</text>
	<text style="fill: #1cbf09;" transform="matrix(1 0 0 1 26.50 49.50)">7</text>
	<text style="fill: #09bf2f;" transform="matrix(1 0 0 1 56.25 38.50)">8</text>
	<text style="fill: #09bf69;" transform="matrix(1 0 0 1 67.50 29.50)">9</text>
	<text style="fill: #09bfa2;" transform="matrix(1 0 0 1 67.27 38.50)">10</text>
	<text style="fill: #09a2bf;" transform="matrix(1 0 0 1 67.50 46.88)">11</text>
	<text style="fill: #0969bf;" transform="matrix(1 0 0 1 33.50 58.50)">12</text>
	<text style="fill: #092fbf;" transform="matrix(1 0 0 1 30.50 80.50)">13</text>
	<text style="fill: #1c09bf;" transform="matrix(1 0 0 1 49.25 53.50)">14</text>
	<text style="fill: #5609bf;" transform="matrix(1 0 0 1 43.5 62.5)">15</text>
	<text style="fill: #8f09bf;" transform="matrix(1 0 0 1 59.50 69.50)">16</text>
	<text style="fill: #bf09b5;" transform="matrix(1 0 0 1 44.25 71.50)">17</text>
	<text style="fill: #bf097c;" transform="matrix(1 0 0 1 44.50 79.50)">18</text>
	<text style="fill: #bf0942;" transform="matrix(1 0 0 1 44.50 88.50)">19</text>
</g>
</svg>
