<?xml version="1.0" encoding="UTF-8"?>
<!--
This file has been modified from the original version by the kanji_colorize.py
script (available at http://github.com/cayennes/kanji-colorize) with these
settings:
    mode: spectrum
    saturation: 0.95
    value: 0.75
    image_size: 327
It remains under a Creative Commons-Attribution-Share Alike 3.0 License.

The original SVG has the following copyright:

Copyright (C) 2009/2010/2011 Ulrich Apel.
This work is distributed under the conditions of the Creative Commons
Attribution-Share Alike 3.0 Licence. This means you are free:
* to Share - to copy, distribute and transmit the work
* to Remix - to adapt the work

Under the following conditions:
* Attribution. You must attribute the work by stating your use of KanjiVG in
  your own copyright header and linking to KanjiVG's website
  (http://kanjivg.tagaini.net)
* Share Alike. If you alter, transform, or build upon this work, you may
  distribute the resulting work only under the same or similar license to this
  one.

See http://creativecommons.org/licenses/by-sa/3.0/ for more details.
-->
<!DOCTYPE svg PUBLIC "-//W3C//DTD SVG 1.0//EN" "http://www.w3.org/TR/2001/REC-SVG-20010904/DTD/svg10.dtd" [
<!ATTLIST g
xmlns:kvg CDATA #FIXED "http://kanjivg.tagaini.net"
kvg:element CDATA #IMPLIED
kvg:variant CDATA #IMPLIED
kvg:partial CDATA #IMPLIED
kvg:original CDATA #IMPLIED
kvg:part CDATA #IMPLIED
kvg:number CDATA #IMPLIED
kvg:tradForm CDATA #IMPLIED
kvg:radicalForm CDATA #IMPLIED
kvg:position CDATA #IMPLIED
kvg:radical CDATA #IMPLIED
kvg:phon CDATA #IMPLIED >
<!ATTLIST path
xmlns:kvg CDATA #FIXED "http://kanjivg.tagaini.net"
kvg:type CDATA #IMPLIED >
]>
<svg xmlns="http://www.w3.org/2000/svg" width="327" height = "327" viewBox="0 0 327 327">
<g id="kvg:StrokePaths_0860a" style="fill:none;stroke:#000000;stroke-width:3;stroke-linecap:round;stroke-linejoin:round;" transform="scale(3.0,3.0)">
<g id="kvg:0860a" kvg:element="蘊">
	<g id="kvg:0860a-g1" kvg:element="艹" kvg:variant="true" kvg:original="艸" kvg:position="top" kvg:radical="general">
		<path style="stroke: #bf0909;" id="kvg:0860a-s1" kvg:type="㇐" d="M20.5,21c1.61,0.65,3.47,0.78,5.08,0.65c14.75-1.19,40.05-3.17,57.05-3.26c2.68-0.01,4.28,0.31,5.62,0.64"/>
		<path style="stroke: #bf4209;" id="kvg:0860a-s2" kvg:type="㇑a" d="M36.36,11c1.55,1.27,2.04,1.65,2.21,2.43C40.12,20.72,40.56,27.35,41,30"/>
		<path style="stroke: #bf7c09;" id="kvg:0860a-s3" kvg:type="㇑a" d="M65.79,9.75c0.89,0.79,1.48,2,1.19,3.17c-0.89,3.57-1.49,9.52-2.78,14.08"/>
	</g>
	<g id="kvg:0860a-g2" kvg:position="bottom">
		<g id="kvg:0860a-g3" kvg:element="糸" kvg:position="left">
			<path style="stroke: #bfb509;" id="kvg:0860a-s4" kvg:type="㇜" d="M29.4,29.75c0.31,1.21,0.59,2.24-0.16,3.44c-3.26,5.27-6.21,10.46-9.32,13.29c-0.64,0.58-0.62,2.81,0,3.04c3.26,1.21,6.34,2.74,9.14,4.97"/>
			<path style="stroke: #8fbf09;" id="kvg:0860a-s5" kvg:type="㇜" d="M42.03,37.19c0.29,0.55,0.38,2.35,0,2.94c-5.53,8.62-16.28,18.12-23.88,25.98c-1.74,1.8,0.43,2.83,1.57,2.47c4.75-1.53,14.62-3.77,20.73-5.24"/>
			<path style="stroke: #56bf09;" id="kvg:0860a-s6" kvg:type="㇔" d="M38.25,57.25c2.03,1.94,5.24,7.98,5.75,11"/>
			<path style="stroke: #1cbf09;" id="kvg:0860a-s7" kvg:type="㇑" d="M29.51,68.26c0.09,0.29,1.37,1.48,1.37,3.28c0,6.21-0.28,23.77-0.28,26.71"/>
			<path style="stroke: #09bf2f;" id="kvg:0860a-s8" kvg:type="㇒" d="M20.99,75.75c0.13,0.88,0.11,2.61-0.13,3.24c-1.6,4.1-5.59,12-7.86,15.51"/>
			<path style="stroke: #09bf69;" id="kvg:0860a-s9" kvg:type="㇔" d="M38,74.75c2.5,3.25,4.42,10.8,5,13.75"/>
		</g>
		<g id="kvg:0860a-g4" kvg:position="right">
			<g id="kvg:0860a-g5" kvg:element="囚" kvg:position="top">
				<g id="kvg:0860a-g6" kvg:element="囗" kvg:part="1">
					<path style="stroke: #09bfa2;" id="kvg:0860a-s10" kvg:type="㇑" d="M53.13,35.04c0.36,0.42,0.81,1.56,0.9,2.11c0.78,4.59,2.94,13.89,3.74,23.18"/>
					<path style="stroke: #09a2bf;" id="kvg:0860a-s11" kvg:type="㇕a" d="M54.39,36.13c9.93-1.21,26.16-2.35,32-2.86c2.35-0.21,2.78,1.03,2.57,2.84c-0.68,5.73-2.31,15.42-3.63,22.36"/>
				</g>
				<g id="kvg:0860a-g7" kvg:element="人" kvg:variant="true">
					<path style="stroke: #0969bf;" id="kvg:0860a-s12" kvg:type="㇒" d="M69.89,39.01c0.05,0.33,0.2,1.04,0.11,1.54c-0.54,2.97-2.75,7.45-6.91,12.48"/>
					<path style="stroke: #092fbf;" id="kvg:0860a-s13" kvg:type="㇔/㇏" d="M70.91,44.83c3.21,0.99,7.87,4.95,8.67,6.88"/>
				</g>
				<g id="kvg:0860a-g8" kvg:element="囗" kvg:part="2">
					<path style="stroke: #1c09bf;" id="kvg:0860a-s14" kvg:type="㇐a" d="M57.8,57.94c6.35,0,18.75-1.94,27.52-2.06"/>
				</g>
			</g>
			<g id="kvg:0860a-g9" kvg:element="皿" kvg:position="bottom">
				<path style="stroke: #5609bf;" id="kvg:0860a-s15" kvg:type="㇑a" d="M52.98,69.17c0.46,0.65,1.13,1.36,1.16,1.92C54.5,77.5,55.08,87,55.08,94.48"/>
				<path style="stroke: #8f09bf;" id="kvg:0860a-s16" kvg:type="㇕b" d="M54.86,71.05c8.3-0.91,30.89-3.42,33.9-3.61c1.89-0.12,2.94,0.87,2.75,2.67c-0.28,2.55-2.6,19.64-3.57,23.08"/>
				<path style="stroke: #bf09b5;" id="kvg:0860a-s17" kvg:type="㇑a" d="M65.02,71.26c0.19,0.42,0.39,0.77,0.47,1.29c0.67,4.16,1.16,14.08,1.62,21.56"/>
				<path style="stroke: #bf097c;" id="kvg:0860a-s18" kvg:type="㇑a" d="M76.62,70.41c0.35,0.5,0.69,1.36,0.63,2.01c-0.58,6.44,0.07,12.35-0.64,20.6"/>
				<path style="stroke: #bf0942;" id="kvg:0860a-s19" kvg:type="㇐" d="M43.58,95.27c1.33,0.43,3.78,0.5,5.12,0.43c13.89-0.72,18.74-2.45,44.31-2.56c2.22-0.01,3.56,0.2,4.67,0.42"/>
			</g>
		</g>
	</g>
</g>
</g>
<g id="kvg:StrokeNumbers_0860a" style="font-size:8;fill:#808080" transform="scale(3.0,3.0)">
	<text style="fill: #bf0909;" transform="matrix(1 0 0 1 14.50 21.50)">1</text>
	<text style="fill: #bf4209;" transform="matrix(1 0 0 1 27.50 11.50)">2</text>
	<text style="fill: #bf7c09;" transform="matrix(1 0 0 1 58.50 10.50)">3</text>
	<text style="fill: #bfb509;" transform="matrix(1 0 0 1 21.50 31.50)">4</text>
	<text style="fill: #8fbf09;" transform="matrix(1 0 0 1 34.50 37.50)">5</text>
	<text style="fill: #56bf09;" transform="matrix(1 0 0 1 39.50 55.25)">6</text>
	<text style="fill: #1cbf09;" transform="matrix(1 0 0 1 24.50 75.50)">7</text>
	<text style="fill: #09bf2f;" transform="matrix(1 0 0 1 12.50 77.50)">8</text>
	<text style="fill: #09bf69;" transform="matrix(1 0 0 1 35.50 71.50)">9</text>
	<text style="fill: #09bfa2;" transform="matrix(1 0 0 1 45.50 43.50)">10</text>
	<text style="fill: #09a2bf;" transform="matrix(1 0 0 1 55.50 32.50)">11</text>
	<text style="fill: #0969bf;" transform="matrix(1 0 0 1 60.25 43.50)">12</text>
	<text style="fill: #092fbf;" transform="matrix(1 0 0 1 73.25 42.73)">13</text>
	<text style="fill: #1c09bf;" transform="matrix(1 0 0 1 69.25 55.65)">14</text>
	<text style="fill: #5609bf;" transform="matrix(1 0 0 1 45.50 77.50)">15</text>
	<text style="fill: #8f09bf;" transform="matrix(1 0 0 1 53.50 67.50)">16</text>
	<text style="fill: #bf09b5;" transform="matrix(1 0 0 1 57.50 78.50)">17</text>
	<text style="fill: #bf097c;" transform="matrix(1 0 0 1 68.50 77.35)">18</text>
	<text style="fill: #bf0942;" transform="matrix(1 0 0 1 45.50 92.50)">19</text>
</g>
</svg>
