<?xml version="1.0" encoding="UTF-8"?>
<!--
This file has been modified from the original version by the kanji_colorize.py
script (available at http://github.com/cayennes/kanji-colorize) with these
settings:
    mode: spectrum
    saturation: 0.95
    value: 0.75
    image_size: 327
It remains under a Creative Commons-Attribution-Share Alike 3.0 License.

The original SVG has the following copyright:

Copyright (C) 2009/2010/2011 Ulrich Apel.
This work is distributed under the conditions of the Creative Commons
Attribution-Share Alike 3.0 Licence. This means you are free:
* to Share - to copy, distribute and transmit the work
* to Remix - to adapt the work

Under the following conditions:
* Attribution. You must attribute the work by stating your use of KanjiVG in
  your own copyright header and linking to KanjiVG's website
  (http://kanjivg.tagaini.net)
* Share Alike. If you alter, transform, or build upon this work, you may
  distribute the resulting work only under the same or similar license to this
  one.

See http://creativecommons.org/licenses/by-sa/3.0/ for more details.
-->
<!DOCTYPE svg PUBLIC "-//W3C//DTD SVG 1.0//EN" "http://www.w3.org/TR/2001/REC-SVG-20010904/DTD/svg10.dtd" [
<!ATTLIST g
xmlns:kvg CDATA #FIXED "http://kanjivg.tagaini.net"
kvg:element CDATA #IMPLIED
kvg:variant CDATA #IMPLIED
kvg:partial CDATA #IMPLIED
kvg:original CDATA #IMPLIED
kvg:part CDATA #IMPLIED
kvg:number CDATA #IMPLIED
kvg:tradForm CDATA #IMPLIED
kvg:radicalForm CDATA #IMPLIED
kvg:position CDATA #IMPLIED
kvg:radical CDATA #IMPLIED
kvg:phon CDATA #IMPLIED >
<!ATTLIST path
xmlns:kvg CDATA #FIXED "http://kanjivg.tagaini.net"
kvg:type CDATA #IMPLIED >
]>
<svg xmlns="http://www.w3.org/2000/svg" width="327" height = "327" viewBox="0 0 327 327">
<g id="kvg:StrokePaths_0875f" style="fill:none;stroke:#000000;stroke-width:3;stroke-linecap:round;stroke-linejoin:round;" transform="scale(3.0,3.0)">
<g id="kvg:0875f" kvg:element="蝟">
	<g id="kvg:0875f-g1" kvg:element="虫" kvg:position="left" kvg:radical="general">
		<g id="kvg:0875f-g2" kvg:element="中">
			<g id="kvg:0875f-g3" kvg:element="口">
				<path style="stroke: #bf0909;" id="kvg:0875f-s1" kvg:type="㇑" d="M13.26,37.4c0.48,0.54,1.08,1.48,1.19,2.19c0.92,6.15,1.98,14.12,3.31,23.3"/>
				<path style="stroke: #bf5209;" id="kvg:0875f-s2" kvg:type="㇕b" d="M15.22,39.48c6.93-0.97,20.11-2.83,25.13-3.2c1.96-0.14,2.86,1.38,2.62,2.83c-0.83,4.98-1.98,10.84-3.33,19.12"/>
				<path style="stroke: #bf9a09;" id="kvg:0875f-s3" kvg:type="㇐b" d="M17.76,60.43c5.58-0.98,16.46-1.48,24.26-2.39"/>
			</g>
			<g id="kvg:0875f-g4" kvg:element="丨">
				<path style="stroke: #9abf09;" id="kvg:0875f-s4" kvg:type="㇑a" d="M25.92,16.75c1.08,1,2.26,2.75,2.26,4.47c0,4.78-0.2,46.28-0.2,59.66"/>
			</g>
		</g>
		<path style="stroke: #52bf09;" id="kvg:0875f-s5" kvg:type="㇀" d="M12.07,87.27c0.6,1.16,2.46,1.11,3.06,0.82c0.6-0.29,23.54-12.15,27.26-14.47"/>
		<path style="stroke: #09bf09;" id="kvg:0875f-s6" kvg:type="㇔" d="M37.5,65.25c2.84,2.76,7.35,11.35,8.06,15.64"/>
	</g>
	<g id="kvg:0875f-g5" kvg:element="胃" kvg:position="right">
		<g id="kvg:0875f-g6" kvg:element="田" kvg:position="top">
			<path style="stroke: #09bf52;" id="kvg:0875f-s7" kvg:type="㇑" d="M49.38,14.5c0.29,0.49,0.63,1.3,0.78,1.91c1.28,5.02,3.94,16.19,4.69,25.53"/>
			<path style="stroke: #09bf9a;" id="kvg:0875f-s8" kvg:type="㇕a" d="M50.74,15.65c10.18-1.11,30.46-2.44,38.05-3.38c2.79-0.34,4.36,1.17,4.06,3.85c-0.57,5.03-1.86,12.52-3.24,23.05"/>
			<path style="stroke: #099abf;" id="kvg:0875f-s9" kvg:type="㇑a" d="M70.19,14.92c0.52,0.4,1.1,2.5,1.1,4.17c0,7.65-0.08,10.46-0.08,18.52"/>
			<path style="stroke: #0952bf;" id="kvg:0875f-s10" kvg:type="㇐a" d="M53.06,27.63c4.69-0.38,34.77-2.59,37.51-2.75"/>
			<path style="stroke: #0909bf;" id="kvg:0875f-s11" kvg:type="㇐a" d="M55.39,39.61c9.61-1.11,24.2-2,34.32-2.73"/>
		</g>
		<g id="kvg:0875f-g7" kvg:element="月" kvg:position="bottom">
			<path style="stroke: #5209bf;" id="kvg:0875f-s12" kvg:type="㇒" d="M56.38,50.47c0.6,0.71,0.99,1.98,1.2,2.7c0.2,0.72,0.35,44.43,0.28,46.06"/>
			<path style="stroke: #9a09bf;" id="kvg:0875f-s13" kvg:type="㇆a" d="M57.58,51.19c2.38-0.23,25.36-2.25,27.13-2.49c3.17-0.43,3.97,2.13,3.97,3.36c0,2.75-0.07,25.33-0.07,40.02c0,11.77-6.38,1.74-7.17,0.85"/>
			<path style="stroke: #bf099a;" id="kvg:0875f-s14" kvg:type="㇐a" d="M58.3,63.97c8.12-1.26,22.89-2.11,30.02-2.8"/>
			<path style="stroke: #bf0952;" id="kvg:0875f-s15" kvg:type="㇐a" d="M57.93,76.59c6.34-0.68,22.7-2.04,30.04-2.55"/>
		</g>
	</g>
</g>
</g>
<g id="kvg:StrokeNumbers_0875f" style="font-size:8;fill:#808080" transform="scale(3.0,3.0)">
	<text style="fill: #bf0909;" transform="matrix(1 0 0 1 7.50 45.50)">1</text>
	<text style="fill: #bf5209;" transform="matrix(1 0 0 1 15.50 35.85)">2</text>
	<text style="fill: #bf9a09;" transform="matrix(1 0 0 1 20.50 57.50)">3</text>
	<text style="fill: #9abf09;" transform="matrix(1 0 0 1 16.50 18.50)">4</text>
	<text style="fill: #52bf09;" transform="matrix(1 0 0 1 3.72 92.85)">5</text>
	<text style="fill: #09bf09;" transform="matrix(1 0 0 1 41.58 67.85)">6</text>
	<text style="fill: #09bf52;" transform="matrix(1 0 0 1 43.50 22.50)">7</text>
	<text style="fill: #09bf9a;" transform="matrix(1 0 0 1 52.50 12.50)">8</text>
	<text style="fill: #099abf;" transform="matrix(1 0 0 1 75.50 21.50)">9</text>
	<text style="fill: #0952bf;" transform="matrix(1 0 0 1 56.50 24.95)">10</text>
	<text style="fill: #0909bf;" transform="matrix(1 0 0 1 58.50 35.50)">11</text>
	<text style="fill: #5209bf;" transform="matrix(1 0 0 1 46.25 58.80)">12</text>
	<text style="fill: #9a09bf;" transform="matrix(1 0 0 1 59.50 47.50)">13</text>
	<text style="fill: #bf099a;" transform="matrix(1 0 0 1 62.50 60.65)">14</text>
	<text style="fill: #bf0952;" transform="matrix(1 0 0 1 62.50 72.50)">15</text>
</g>
</svg>
