<?xml version="1.0" encoding="UTF-8"?>
<!--
This file has been modified from the original version by the kanji_colorize.py
script (available at http://github.com/cayennes/kanji-colorize) with these
settings:
    mode: spectrum
    saturation: 0.95
    value: 0.75
    image_size: 327
It remains under a Creative Commons-Attribution-Share Alike 3.0 License.

The original SVG has the following copyright:

Copyright (C) 2009/2010/2011 Ulrich Apel.
This work is distributed under the conditions of the Creative Commons
Attribution-Share Alike 3.0 Licence. This means you are free:
* to Share - to copy, distribute and transmit the work
* to Remix - to adapt the work

Under the following conditions:
* Attribution. You must attribute the work by stating your use of KanjiVG in
  your own copyright header and linking to KanjiVG's website
  (http://kanjivg.tagaini.net)
* Share Alike. If you alter, transform, or build upon this work, you may
  distribute the resulting work only under the same or similar license to this
  one.

See http://creativecommons.org/licenses/by-sa/3.0/ for more details.
-->
<!DOCTYPE svg PUBLIC "-//W3C//DTD SVG 1.0//EN" "http://www.w3.org/TR/2001/REC-SVG-20010904/DTD/svg10.dtd" [
<!ATTLIST g
xmlns:kvg CDATA #FIXED "http://kanjivg.tagaini.net"
kvg:element CDATA #IMPLIED
kvg:variant CDATA #IMPLIED
kvg:partial CDATA #IMPLIED
kvg:original CDATA #IMPLIED
kvg:part CDATA #IMPLIED
kvg:number CDATA #IMPLIED
kvg:tradForm CDATA #IMPLIED
kvg:radicalForm CDATA #IMPLIED
kvg:position CDATA #IMPLIED
kvg:radical CDATA #IMPLIED
kvg:phon CDATA #IMPLIED >
<!ATTLIST path
xmlns:kvg CDATA #FIXED "http://kanjivg.tagaini.net"
kvg:type CDATA #IMPLIED >
]>
<svg xmlns="http://www.w3.org/2000/svg" width="327" height = "327" viewBox="0 0 327 327">
<g id="kvg:StrokePaths_08805" style="fill:none;stroke:#000000;stroke-width:3;stroke-linecap:round;stroke-linejoin:round;" transform="scale(3.0,3.0)">
<g id="kvg:08805" kvg:element="蠅">
	<g id="kvg:08805-g1" kvg:element="虫" kvg:position="left" kvg:radical="general">
		<g id="kvg:08805-g2" kvg:element="中">
			<g id="kvg:08805-g3" kvg:element="口">
				<path style="stroke: #bf0909;" id="kvg:08805-s1" kvg:type="㇑" d="M9.72,36.4c0.45,0.56,1.01,1.54,1.11,2.28c0.86,6.39,1.86,14.67,3.1,24.22"/>
				<path style="stroke: #bf4209;" id="kvg:08805-s2" kvg:type="㇕b" d="M11.05,37.48c6.49-0.97,19.72-2.33,24.41-2.7c1.83-0.14,2.68,1.38,2.45,2.83c-0.78,4.98-1.85,12.34-3.12,20.62"/>
				<path style="stroke: #bf7c09;" id="kvg:08805-s3" kvg:type="㇐b" d="M13.92,60.49c4.84-0.65,15.58-1.65,22.36-2.25"/>
			</g>
			<g id="kvg:08805-g4" kvg:element="丨">
				<path style="stroke: #bfb509;" id="kvg:08805-s4" kvg:type="㇑a" d="M22.03,14.75c1.01,1,2.12,2.75,2.12,4.47c0,4.78-0.18,50.78-0.18,64.16"/>
			</g>
		</g>
		<path style="stroke: #8fbf09;" id="kvg:08805-s5" kvg:type="㇀" d="M10.07,88.5c0.51,0.89,2.1,0.86,2.62,0.63c0.51-0.22,21-9.73,24.18-11.51"/>
		<path style="stroke: #56bf09;" id="kvg:08805-s6" kvg:type="㇔" d="M31.33,67.75c2.99,3.03,7.73,12.44,8.47,17.14"/>
	</g>
	<g id="kvg:08805-g5" kvg:element="黽" kvg:variant="true" kvg:position="right">
		<path style="stroke: #1cbf09;" id="kvg:08805-s7" kvg:type="㇑" d="M43,17.58c0.5,0.7,0.57,1.15,0.78,2.06c0.73,3.12,2.16,10.37,2.87,14.47"/>
		<path style="stroke: #09bf2f;" id="kvg:08805-s8" kvg:type="㇕" d="M43.98,19.19c6.86-1.44,39.52-3.94,45.27-4.54c1.63-0.17,2.57,1.93,2.34,3.14c-0.94,4.97-2.09,9.22-3.15,13.2"/>
		<path style="stroke: #09bf69;" id="kvg:08805-s9" kvg:type="㇐" d="M46.87,32c2.05,0,12.67-1.75,14.34-1.75"/>
		<path style="stroke: #09bfa2;" id="kvg:08805-s10" kvg:type="㇐" d="M72.76,29.5c3.72-0.5,13.71-1.25,15.95-1.25"/>
		<path style="stroke: #09a2bf;" id="kvg:08805-s11" kvg:type="㇑" d="M 70.68,16.25 c 0.81,0.5 1.3,2.25 1.46,3.25 0.16,1 0,68.289583 -0.16,74.539583"/>
		<path style="stroke: #0969bf;" id="kvg:08805-s12" kvg:type="㇟" d="M60.83,17.37c0.55,1.19,1.02,2.59,1.02,4.43c0,12.45,0.15,54.14-0.02,59.7c-0.34,10.75,3.41,13.53,18.01,13.53c16.57,0,17.8-1.78,17.8-11.12"/>
		<path style="stroke: #092fbf;" id="kvg:08805-s13" kvg:type="㇒" d="M 46.338959,47.902084 C 53.00288,47.783357 54.589308,47.27321 60.401875,47.267083"/>
		<path style="stroke: #1c09bf;" id="kvg:08805-s14" kvg:type="㇑" d="M44.12,47.25c0.81,0.5,1.29,2.25,1.46,3.25c0.5,3,0.3,20.25,1.05,29.5"/>
		<path style="stroke: #5609bf;" id="kvg:08805-s15" kvg:type="㇐" d="M 46.668333,61.558958 c 1.9,0 13.241667,-1.38 14.791667,-1.38"/>
		<path style="stroke: #8f09bf;" id="kvg:08805-s16" kvg:type="㇐" d="M46.81,77.98c1.92,0,12.89-1.72,14.46-1.72"/>
		<path style="stroke: #bf09b5;" id="kvg:08805-s17" kvg:type="㇕" d="M72.79,45.69c6.86-1.44,13.11-2.59,17.46-3.54c1.6-0.35,2.44,0.9,2.34,2.14c-0.56,6.72-3.37,25.97-4.02,32.7"/>
		<path style="stroke: #bf097c;" id="kvg:08805-s18" kvg:type="㇐" d="M72.95,58.75C75,58.75,88.48,58,90.15,58"/>
		<path style="stroke: #bf0942;" id="kvg:08805-s19" kvg:type="㇐" d="M72.64,75c2.05,0,13.67-1.25,15.34-1.25"/>
	</g>
</g>
</g>
<g id="kvg:StrokeNumbers_08805" style="font-size:8;fill:#808080" transform="scale(3.0,3.0)">
	<text style="fill: #bf0909;" transform="matrix(1 0 0 1 3.50 41.50)">1</text>
	<text style="fill: #bf4209;" transform="matrix(1 0 0 1 12.50 34.50)">2</text>
	<text style="fill: #bf7c09;" transform="matrix(1 0 0 1 16.50 56.50)">3</text>
	<text style="fill: #bfb509;" transform="matrix(1 0 0 1 13.04 14.50)">4</text>
	<text style="fill: #8fbf09;" transform="matrix(1 0 0 1 2.50 90.50)">5</text>
	<text style="fill: #56bf09;" transform="matrix(1 0 0 1 34.50 67.85)">6</text>
	<text style="fill: #1cbf09;" transform="matrix(1 0 0 1 36.50 25.50)">7</text>
	<text style="fill: #09bf2f;" transform="matrix(1 0 0 1 45.50 15.50)">8</text>
	<text style="fill: #09bf69;" transform="matrix(1 0 0 1 47.5 30)">9</text>
	<text style="fill: #09bfa2;" transform="matrix(1 0 0 1 75.50 26.95)">10</text>
	<text style="fill: #09a2bf;" transform="matrix(1 0 0 1 62.75 24.50)">11</text>
	<text style="fill: #0969bf;" transform="matrix(1 0 0 1 50.7 25.50)">12</text>
	<text style="fill: #092fbf;" transform="matrix(1 0 0 1 43.6 44.9)">13</text>
	<text style="fill: #1c09bf;" transform="matrix(1 0 0 1 36.1 57.4)">14</text>
	<text style="fill: #5609bf;" transform="matrix(1 0 0 1 47.6 58.6)">15</text>
	<text style="fill: #8f09bf;" transform="matrix(1 0 0 1 49.50 74.50)">16</text>
	<text style="fill: #bf09b5;" transform="matrix(1 0 0 1 75.00 42.50)">17</text>
	<text style="fill: #bf097c;" transform="matrix(1 0 0 1 75.00 55.10)">18</text>
	<text style="fill: #bf0942;" transform="matrix(1 0 0 1 75.00 71.50)">19</text>
</g>
</svg>
