<?xml version="1.0" encoding="UTF-8"?>
<!--
This file has been modified from the original version by the kanji_colorize.py
script (available at http://github.com/cayennes/kanji-colorize) with these
settings:
    mode: spectrum
    saturation: 0.95
    value: 0.75
    image_size: 327
It remains under a Creative Commons-Attribution-Share Alike 3.0 License.

The original SVG has the following copyright:

Copyright (C) 2009/2010/2011 Ulrich Apel.
This work is distributed under the conditions of the Creative Commons
Attribution-Share Alike 3.0 Licence. This means you are free:
* to Share - to copy, distribute and transmit the work
* to Remix - to adapt the work

Under the following conditions:
* Attribution. You must attribute the work by stating your use of KanjiVG in
  your own copyright header and linking to KanjiVG's website
  (http://kanjivg.tagaini.net)
* Share Alike. If you alter, transform, or build upon this work, you may
  distribute the resulting work only under the same or similar license to this
  one.

See http://creativecommons.org/licenses/by-sa/3.0/ for more details.
-->
<!DOCTYPE svg PUBLIC "-//W3C//DTD SVG 1.0//EN" "http://www.w3.org/TR/2001/REC-SVG-20010904/DTD/svg10.dtd" [
<!ATTLIST g
xmlns:kvg CDATA #FIXED "http://kanjivg.tagaini.net"
kvg:element CDATA #IMPLIED
kvg:variant CDATA #IMPLIED
kvg:partial CDATA #IMPLIED
kvg:original CDATA #IMPLIED
kvg:part CDATA #IMPLIED
kvg:number CDATA #IMPLIED
kvg:tradForm CDATA #IMPLIED
kvg:radicalForm CDATA #IMPLIED
kvg:position CDATA #IMPLIED
kvg:radical CDATA #IMPLIED
kvg:phon CDATA #IMPLIED >
<!ATTLIST path
xmlns:kvg CDATA #FIXED "http://kanjivg.tagaini.net"
kvg:type CDATA #IMPLIED >
]>
<svg xmlns="http://www.w3.org/2000/svg" width="327" height = "327" viewBox="0 0 327 327">
<g id="kvg:StrokePaths_08811" style="fill:none;stroke:#000000;stroke-width:3;stroke-linecap:round;stroke-linejoin:round;" transform="scale(3.0,3.0)">
<g id="kvg:08811" kvg:element="蠑">
	<g id="kvg:08811-g1" kvg:element="虫" kvg:position="left" kvg:radical="general">
		<g id="kvg:08811-g2" kvg:element="中">
			<g id="kvg:08811-g3" kvg:element="口">
				<path style="stroke: #bf0909;" id="kvg:08811-s1" kvg:type="㇑" d="M9.76,32.4c0.32,0.65,0.72,1.77,0.79,2.62c0.61,7.36,1.32,16.89,2.2,27.87"/>
				<path style="stroke: #bf4009;" id="kvg:08811-s2" kvg:type="㇕b" d="M10.72,34.48c6.93-0.97,18.11-2.83,23.13-3.2c1.96-0.14,2.86,1.38,2.62,2.83c-0.83,4.98-2.46,15.14-3.33,24.12"/>
				<path style="stroke: #bf7609;" id="kvg:08811-s3" kvg:type="㇐b" d="M12.76,60.43c6.74-0.43,14.46-1.48,22.26-2.39"/>
			</g>
			<g id="kvg:08811-g4" kvg:element="丨">
				<path style="stroke: #bfad09;" id="kvg:08811-s4" kvg:type="㇑a" d="M20.92,13.75c1.08,1,2.26,2.75,2.26,4.47c0,4.78-0.2,50.78-0.2,64.16"/>
			</g>
		</g>
		<path style="stroke: #9abf09;" id="kvg:08811-s5" kvg:type="㇀" d="M10.07,87.43c0.48,0.97,1.97,0.93,2.45,0.69c0.48-0.24,19.64-10.56,22.62-12.5"/>
		<path style="stroke: #64bf09;" id="kvg:08811-s6" kvg:type="㇔" d="M29.5,68c3.2,2.81,8.26,11.53,9.06,15.89"/>
	</g>
	<g id="kvg:08811-g5" kvg:element="榮" kvg:position="right">
		<g id="kvg:08811-g6" kvg:position="top">
			<g id="kvg:08811-g7" kvg:element="火">
				<path style="stroke: #2dbf09;" id="kvg:08811-s7" kvg:type="㇔" d="M42.4,18.43c2.69,1.8,5.38,6.66,5.61,9.56"/>
				<path style="stroke: #09bf1b;" id="kvg:08811-s8" kvg:type="㇒" d="M63.24,16.87c0.47,0.37,0.25,1.72-0.17,2.3c-0.42,0.57-4.33,4.2-6.44,5.54"/>
				<path style="stroke: #09bf52;" id="kvg:08811-s9" kvg:type="㇒" d="M54.24,11.75c0.69,0.72,0.69,2.56,0.69,3.02c0,12.89-3.5,20.48-8.75,25.23"/>
				<path style="stroke: #09bf88;" id="kvg:08811-s10" kvg:type="㇔/㇏" d="M55.39,30.89c3.45,1.71,7.81,7.11,8.72,9.52"/>
			</g>
			<g id="kvg:08811-g8" kvg:element="火">
				<path style="stroke: #09bfbf;" id="kvg:08811-s11" kvg:type="㇔" d="M69.17,16.93c2.72,2.43,4.9,6.34,5.18,9.06"/>
				<path style="stroke: #0988bf;" id="kvg:08811-s12" kvg:type="㇒" d="M91.4,15.87c0.02,1.04-0.14,1.93-0.64,2.58c-0.5,0.64-5.54,4.26-8.03,5.76"/>
				<path style="stroke: #0952bf;" id="kvg:08811-s13" kvg:type="㇒" d="M80.1,12.25c0.77,0.69,0.77,1.54,0.77,1.99c0,12.51-4.01,21.76-9.71,25.26"/>
				<path style="stroke: #091bbf;" id="kvg:08811-s14" kvg:type="㇔/㇏" d="M81.15,29.89c3.92,1.62,8.86,6.74,9.89,9.02"/>
			</g>
			<g id="kvg:08811-g9" kvg:element="冖">
				<path style="stroke: #2d09bf;" id="kvg:08811-s15" kvg:type="㇔" d="M45.28,46.13c-0.15,3.45-3.66,12.46-4.91,14.52"/>
				<path style="stroke: #6409bf;" id="kvg:08811-s16" kvg:type="㇆" d="M45.43,47.99c2.56,0,33.08-3.39,45.97-3.39c8.77,0,2.77,4.95-0.5,8.18"/>
			</g>
		</g>
		<g id="kvg:08811-g10" kvg:element="木" kvg:position="bottom">
			<path style="stroke: #9a09bf;" id="kvg:08811-s17" kvg:type="㇐" d="M46.28,63.2c1.24,0.48,2.64,0.63,4.07,0.48c7.25-0.78,27.28-2,38.24-2.92c1.41-0.12,2.3,0.08,3.71,0.42"/>
			<path style="stroke: #bf09ad;" id="kvg:08811-s18" kvg:type="㇑" d="M67.58,50.25c0.74,0.46,1.33,2.72,1.33,3.68c0,9.73,0,39.28-0.15,45.07"/>
			<path style="stroke: #bf0976;" id="kvg:08811-s19" kvg:type="㇒" d="M68.22,62.81C63.1,71.9,52.14,83.82,38.74,90.95"/>
			<path style="stroke: #bf0940;" id="kvg:08811-s20" kvg:type="㇏" d="M69.07,62.13c3.41,3.4,19.44,20.48,23.14,23.82c1.26,1.13,2.33,1.62,3.59,1.94"/>
		</g>
	</g>
</g>
</g>
<g id="kvg:StrokeNumbers_08811" style="font-size:8;fill:#808080" transform="scale(3.0,3.0)">
	<text style="fill: #bf0909;" transform="matrix(1 0 0 1 3.50 38.50)">1</text>
	<text style="fill: #bf4009;" transform="matrix(1 0 0 1 12.50 30.50)">2</text>
	<text style="fill: #bf7609;" transform="matrix(1 0 0 1 15.50 57.50)">3</text>
	<text style="fill: #bfad09;" transform="matrix(1 0 0 1 11.50 13.50)">4</text>
	<text style="fill: #9abf09;" transform="matrix(1 0 0 1 2.50 89.50)">5</text>
	<text style="fill: #64bf09;" transform="matrix(1 0 0 1 32.50 69.50)">6</text>
	<text style="fill: #2dbf09;" transform="matrix(1 0 0 1 37.50 17.50)">7</text>
	<text style="fill: #09bf1b;" transform="matrix(1 0 0 1 59.50 13.50)">8</text>
	<text style="fill: #09bf52;" transform="matrix(1 0 0 1 48.50 10.50)">9</text>
	<text style="fill: #09bf88;" transform="matrix(1 0 0 1 58.50 31.50)">10</text>
	<text style="fill: #09bfbf;" transform="matrix(1 0 0 1 65.50 14.50)">11</text>
	<text style="fill: #0988bf;" transform="matrix(1 0 0 1 87.50 12.50)">12</text>
	<text style="fill: #0952bf;" transform="matrix(1 0 0 1 73.50 8.50)">13</text>
	<text style="fill: #091bbf;" transform="matrix(1 0 0 1 85.50 31.50)">14</text>
	<text style="fill: #2d09bf;" transform="matrix(1 0 0 1 36.75 45.58)">15</text>
	<text style="fill: #6409bf;" transform="matrix(1 0 0 1 48.50 44.50)">16</text>
	<text style="fill: #9a09bf;" transform="matrix(1 0 0 1 46.50 60.50)">17</text>
	<text style="fill: #bf09ad;" transform="matrix(1 0 0 1 56.75 55.35)">18</text>
	<text style="fill: #bf0976;" transform="matrix(1 0 0 1 51.50 72.28)">19</text>
	<text style="fill: #bf0940;" transform="matrix(1 0 0 1 80.50 71.50)">20</text>
</g>
</svg>
