<?xml version="1.0" encoding="UTF-8"?>
<!--
This file has been modified from the original version by the kanji_colorize.py
script (available at http://github.com/cayennes/kanji-colorize) with these
settings:
    mode: spectrum
    saturation: 0.95
    value: 0.75
    image_size: 327
It remains under a Creative Commons-Attribution-Share Alike 3.0 License.

The original SVG has the following copyright:

Copyright (C) 2009/2010/2011 Ulrich Apel.
This work is distributed under the conditions of the Creative Commons
Attribution-Share Alike 3.0 Licence. This means you are free:
* to Share - to copy, distribute and transmit the work
* to Remix - to adapt the work

Under the following conditions:
* Attribution. You must attribute the work by stating your use of KanjiVG in
  your own copyright header and linking to KanjiVG's website
  (http://kanjivg.tagaini.net)
* Share Alike. If you alter, transform, or build upon this work, you may
  distribute the resulting work only under the same or similar license to this
  one.

See http://creativecommons.org/licenses/by-sa/3.0/ for more details.
-->
<!DOCTYPE svg PUBLIC "-//W3C//DTD SVG 1.0//EN" "http://www.w3.org/TR/2001/REC-SVG-20010904/DTD/svg10.dtd" [
<!ATTLIST g
xmlns:kvg CDATA #FIXED "http://kanjivg.tagaini.net"
kvg:element CDATA #IMPLIED
kvg:variant CDATA #IMPLIED
kvg:partial CDATA #IMPLIED
kvg:original CDATA #IMPLIED
kvg:part CDATA #IMPLIED
kvg:number CDATA #IMPLIED
kvg:tradForm CDATA #IMPLIED
kvg:radicalForm CDATA #IMPLIED
kvg:position CDATA #IMPLIED
kvg:radical CDATA #IMPLIED
kvg:phon CDATA #IMPLIED >
<!ATTLIST path
xmlns:kvg CDATA #FIXED "http://kanjivg.tagaini.net"
kvg:type CDATA #IMPLIED >
]>
<svg xmlns="http://www.w3.org/2000/svg" width="327" height = "327" viewBox="0 0 327 327">
<g id="kvg:StrokePaths_08815" style="fill:none;stroke:#000000;stroke-width:3;stroke-linecap:round;stroke-linejoin:round;" transform="scale(3.0,3.0)">
<g id="kvg:08815" kvg:element="蠕">
	<g id="kvg:08815-g1" kvg:element="虫" kvg:position="left" kvg:radical="general">
		<g id="kvg:08815-g2" kvg:element="中">
			<g id="kvg:08815-g3" kvg:element="口">
				<path style="stroke: #bf0909;" id="kvg:08815-s1" kvg:type="㇑" d="M10.05,34.31c0.42,0.61,0.93,1.66,1.02,2.46c0.79,6.9,1.7,15.83,2.85,26.13"/>
				<path style="stroke: #bf4009;" id="kvg:08815-s2" kvg:type="㇕b" d="M11.33,36.28c6.32-1.16,17.21-2.57,21.78-3.01c1.78-0.17,2.61,1.64,2.39,3.38c-0.76,5.93-1.8,11.22-3.04,21.08"/>
				<path style="stroke: #bf7609;" id="kvg:08815-s3" kvg:type="㇐b" d="M14.15,59.56c7.1-0.81,12.1-1.06,20.49-2.04"/>
			</g>
			<g id="kvg:08815-g4" kvg:element="丨">
				<path style="stroke: #bfad09;" id="kvg:08815-s4" kvg:type="㇑a" d="M20.7,16.25c1.08,1,2.26,2.75,2.26,4.47c0,4.78-0.2,46.78-0.2,60.16"/>
			</g>
		</g>
		<path style="stroke: #9abf09;" id="kvg:08815-s5" kvg:type="㇀" d="M10.85,84.77c0.6,1.16,2.46,1.11,3.06,0.82c0.6-0.29,14.84-7.59,20.76-10.47"/>
		<path style="stroke: #64bf09;" id="kvg:08815-s6" kvg:type="㇔" d="M30.78,67c2.67,2.98,6.89,12.26,7.56,16.89"/>
	</g>
	<g id="kvg:08815-g5" kvg:element="需" kvg:position="right">
		<g id="kvg:08815-g6" kvg:element="雨" kvg:variant="true" kvg:position="top">
			<path style="stroke: #2dbf09;" id="kvg:08815-s7" kvg:type="㇐" d="M48.5,17.14c1.33,0.05,3.29,0.29,4.58,0.15c9.92-1.04,21.42-2.54,30.95-3.15c1.81-0.12,3.32-0.14,4.99,0.1"/>
			<path style="stroke: #09bf1b;" id="kvg:08815-s8" kvg:type="㇔/㇑" d="M44.7,25.83c-0.16,5.22-1.56,9.99-2.59,15.26"/>
			<path style="stroke: #09bf52;" id="kvg:08815-s9" kvg:type="㇖b/㇆" d="M45.06,28.03c5.54-1.21,35.16-4.27,46.92-4.27c6.82,0,0.87,7.49-0.21,9.39"/>
			<path style="stroke: #09bf88;" id="kvg:08815-s10" kvg:type="㇑" d="M66.6,17.93c0.65,1.4,0.94,2.32,0.95,3.69c0.01,0.49-0.2,24.85-0.2,26.2"/>
			<path style="stroke: #09bfbf;" id="kvg:08815-s11" kvg:type="㇔" d="M52.21,33.38c2.42,0.9,5.73,3.6,7.05,5.09"/>
			<path style="stroke: #0988bf;" id="kvg:08815-s12" kvg:type="㇔" d="M49.31,42.23c2.62,0.98,6.67,4.6,8.1,6.24"/>
			<path style="stroke: #0952bf;" id="kvg:08815-s13" kvg:type="㇔" d="M75.49,29.76c3.15,1.34,6.71,4.01,7.97,5.12"/>
			<path style="stroke: #091bbf;" id="kvg:08815-s14" kvg:type="㇔" d="M75.34,40.13c3.42,1.13,8.09,4.54,9.96,6.43"/>
		</g>
		<g id="kvg:08815-g7" kvg:element="而" kvg:position="bottom">
			<g id="kvg:08815-g8" kvg:position="top">
				<path style="stroke: #2d09bf;" id="kvg:08815-s15" kvg:type="㇐" d="M44.28,55.33c1.32,0.47,3.73,0.6,5.05,0.47c8.39-0.81,32.5-3.45,40.63-2.91c2.19,0.15,3.51,0.22,4.61,0.46"/>
				<path style="stroke: #6409bf;" id="kvg:08815-s16" kvg:type="㇒" d="M67.14,56.36c0.01,0.2,0.03,0.53-0.03,0.82c-0.32,1.73-2.17,5.51-4.71,7.83"/>
			</g>
			<g id="kvg:08815-g9" kvg:position="bottom">
				<g id="kvg:08815-g10" kvg:element="冂">
					<path style="stroke: #9a09bf;" id="kvg:08815-s17" kvg:type="㇑" d="M48.06,65.86c0.43,1.12,1.65,2.92,1.41,4.92C49,74.75,49.49,92,49.49,97.05"/>
					<path style="stroke: #bf09ad;" id="kvg:08815-s18" kvg:type="㇆a" d="M49.52,68.58c5.45-0.9,38.57-3.95,39.64-4.27c2.3-0.67,3.63,0.86,3.59,3.85c-0.08,7.28,0.82,15.03-0.5,22.71c-1.34,7.78-4.2,3.56-5.92,0.65"/>
				</g>
				<path style="stroke: #bf0976;" id="kvg:08815-s19" kvg:type="㇑" d="M61.91,69.7c0.52,0.74,1.18,2.18,1.24,3.28c0.17,3.65-0.3,19.68-0.3,21.32"/>
				<path style="stroke: #bf0940;" id="kvg:08815-s20" kvg:type="㇑" d="M75.49,67.43c0.62,1.69,0.88,2.81,0.9,4.46c0.08,6.39-0.53,17.16-0.88,22.96"/>
			</g>
		</g>
	</g>
</g>
</g>
<g id="kvg:StrokeNumbers_08815" style="font-size:8;fill:#808080" transform="scale(3.0,3.0)">
	<text style="fill: #bf0909;" transform="matrix(1 0 0 1 4.50 42.50)">1</text>
	<text style="fill: #bf4009;" transform="matrix(1 0 0 1 13.50 32.50)">2</text>
	<text style="fill: #bf7609;" transform="matrix(1 0 0 1 15.50 56.50)">3</text>
	<text style="fill: #bfad09;" transform="matrix(1 0 0 1 11.50 16.50)">4</text>
	<text style="fill: #9abf09;" transform="matrix(1 0 0 1 3.50 87.50)">5</text>
	<text style="fill: #64bf09;" transform="matrix(1 0 0 1 32.50 67.85)">6</text>
	<text style="fill: #2dbf09;" transform="matrix(1 0 0 1 46.50 13.50)">7</text>
	<text style="fill: #09bf1b;" transform="matrix(1 0 0 1 38.50 28.50)">8</text>
	<text style="fill: #09bf52;" transform="matrix(1 0 0 1 47.50 25.03)">9</text>
	<text style="fill: #09bf88;" transform="matrix(1 0 0 1 57.50 23.50)">10</text>
	<text style="fill: #09bfbf;" transform="matrix(1 0 0 1 52.53 34.88)">11</text>
	<text style="fill: #0988bf;" transform="matrix(1 0 0 1 49.53 43.80)">12</text>
	<text style="fill: #0952bf;" transform="matrix(1 0 0 1 79.53 30.73)">13</text>
	<text style="fill: #091bbf;" transform="matrix(1 0 0 1 71.53 38.65)">14</text>
	<text style="fill: #2d09bf;" transform="matrix(1 0 0 1 40.50 52.50)">15</text>
	<text style="fill: #6409bf;" transform="matrix(1 0 0 1 55.50 61.50)">16</text>
	<text style="fill: #9a09bf;" transform="matrix(1 0 0 1 39.50 72.50)">17</text>
	<text style="fill: #bf09ad;" transform="matrix(1 0 0 1 49.50 65.50)">18</text>
	<text style="fill: #bf0976;" transform="matrix(1 0 0 1 52.53 75.50)">19</text>
	<text style="fill: #bf0940;" transform="matrix(1 0 0 1 66.53 74.50)">20</text>
</g>
</svg>
