<?xml version="1.0" encoding="UTF-8"?>
<!--
This file has been modified from the original version by the kanji_colorize.py
script (available at http://github.com/cayennes/kanji-colorize) with these
settings:
    mode: spectrum
    saturation: 0.95
    value: 0.75
    image_size: 327
It remains under a Creative Commons-Attribution-Share Alike 3.0 License.

The original SVG has the following copyright:

Copyright (C) 2009/2010/2011 Ulrich Apel.
This work is distributed under the conditions of the Creative Commons
Attribution-Share Alike 3.0 Licence. This means you are free:
* to Share - to copy, distribute and transmit the work
* to Remix - to adapt the work

Under the following conditions:
* Attribution. You must attribute the work by stating your use of KanjiVG in
  your own copyright header and linking to KanjiVG's website
  (http://kanjivg.tagaini.net)
* Share Alike. If you alter, transform, or build upon this work, you may
  distribute the resulting work only under the same or similar license to this
  one.

See http://creativecommons.org/licenses/by-sa/3.0/ for more details.
-->
<!DOCTYPE svg PUBLIC "-//W3C//DTD SVG 1.0//EN" "http://www.w3.org/TR/2001/REC-SVG-20010904/DTD/svg10.dtd" [
<!ATTLIST g
xmlns:kvg CDATA #FIXED "http://kanjivg.tagaini.net"
kvg:element CDATA #IMPLIED
kvg:variant CDATA #IMPLIED
kvg:partial CDATA #IMPLIED
kvg:original CDATA #IMPLIED
kvg:part CDATA #IMPLIED
kvg:number CDATA #IMPLIED
kvg:tradForm CDATA #IMPLIED
kvg:radicalForm CDATA #IMPLIED
kvg:position CDATA #IMPLIED
kvg:radical CDATA #IMPLIED
kvg:phon CDATA #IMPLIED >
<!ATTLIST path
xmlns:kvg CDATA #FIXED "http://kanjivg.tagaini.net"
kvg:type CDATA #IMPLIED >
]>
<svg xmlns="http://www.w3.org/2000/svg" width="327" height = "327" viewBox="0 0 327 327">
<g id="kvg:StrokePaths_0886b" style="fill:none;stroke:#000000;stroke-width:3;stroke-linecap:round;stroke-linejoin:round;" transform="scale(3.0,3.0)">
<g id="kvg:0886b" kvg:element="衫">
	<g id="kvg:0886b-g1" kvg:element="衤" kvg:variant="true" kvg:original="衣" kvg:position="left" kvg:radical="general">
		<path style="stroke: #bf0909;" id="kvg:0886b-s1" kvg:type="㇔" d="M24.83,14c3.07,2.53,6.37,6.32,9,10.75"/>
		<path style="stroke: #bf9109;" id="kvg:0886b-s2" kvg:type="㇇" d="M15.7,36.36c0.94,0.39,2.41,1.55,3.96,1.11c1.9-0.54,16.87-4.83,19.19-5.49c2.33-0.66,4.58,0.83,3.26,2.85C34.36,46.65,23.9,60.02,12.5,69"/>
		<path style="stroke: #64bf09;" id="kvg:0886b-s3" kvg:type="㇑" d="M30.5,52.11c0.12,0.29,1.65,1.53,1.77,3.39c0.57,8.93,0.06,38.2,0.06,41.25"/>
		<path style="stroke: #09bf36;" id="kvg:0886b-s4" kvg:type="㇒" d="M44.75,46.39c0.2,0.85,0.4,1.08,0,1.7c-1.2,1.87-4.9,6.45-7.3,8.66"/>
		<path style="stroke: #09bfbf;" id="kvg:0886b-s5" kvg:type="㇔" d="M35.33,57.25c3.16,3,6.54,7.5,9.25,12.75"/>
	</g>
	<g id="kvg:0886b-g2" kvg:element="彡" kvg:position="right">
		<g id="kvg:0886b-g3" kvg:element="丿">
			<path style="stroke: #0936bf;" id="kvg:0886b-s6" kvg:type="㇒" d="M82.8,13.5c0.06,0.53,0.24,1.45-0.13,2.15c-2.46,4.58-10.92,13.6-22.95,19.76"/>
		</g>
		<g id="kvg:0886b-g4" kvg:element="丿">
			<path style="stroke: #6409bf;" id="kvg:0886b-s7" kvg:type="㇒" d="M87.99,33.86c0.09,0.76,0.33,2.08-0.18,3.06c-3.53,6.68-16.77,21.13-32.37,29.25"/>
		</g>
		<g id="kvg:0886b-g5" kvg:element="丿">
			<path style="stroke: #bf0991;" id="kvg:0886b-s8" kvg:type="㇒" d="M92.79,59.5c0.11,0.84-0.07,2.75-0.72,3.87C87.75,70.75,74,84.25,53.32,95"/>
		</g>
	</g>
</g>
</g>
<g id="kvg:StrokeNumbers_0886b" style="font-size:8;fill:#808080" transform="scale(3.0,3.0)">
	<text style="fill: #bf0909;" transform="matrix(1 0 0 1 17.50 13.50)">1</text>
	<text style="fill: #bf9109;" transform="matrix(1 0 0 1 8.25 36.50)">2</text>
	<text style="fill: #64bf09;" transform="matrix(1 0 0 1 25.50 66.50)">3</text>
	<text style="fill: #09bf36;" transform="matrix(1 0 0 1 44.50 43.40)">4</text>
	<text style="fill: #09bfbf;" transform="matrix(1 0 0 1 35.50 71.50)">5</text>
	<text style="fill: #0936bf;" transform="matrix(1 0 0 1 74.50 14.50)">6</text>
	<text style="fill: #6409bf;" transform="matrix(1 0 0 1 79.50 35.68)">7</text>
	<text style="fill: #bf0991;" transform="matrix(1 0 0 1 84.50 60.60)">8</text>
</g>
</svg>
