<?xml version="1.0" encoding="UTF-8"?>
<!--
This file has been modified from the original version by the kanji_colorize.py
script (available at http://github.com/cayennes/kanji-colorize) with these
settings:
    mode: spectrum
    saturation: 0.95
    value: 0.75
    image_size: 327
It remains under a Creative Commons-Attribution-Share Alike 3.0 License.

The original SVG has the following copyright:

Copyright (C) 2009/2010/2011 Ulrich Apel.
This work is distributed under the conditions of the Creative Commons
Attribution-Share Alike 3.0 Licence. This means you are free:
* to Share - to copy, distribute and transmit the work
* to Remix - to adapt the work

Under the following conditions:
* Attribution. You must attribute the work by stating your use of KanjiVG in
  your own copyright header and linking to KanjiVG's website
  (http://kanjivg.tagaini.net)
* Share Alike. If you alter, transform, or build upon this work, you may
  distribute the resulting work only under the same or similar license to this
  one.

See http://creativecommons.org/licenses/by-sa/3.0/ for more details.
-->
<!DOCTYPE svg PUBLIC "-//W3C//DTD SVG 1.0//EN" "http://www.w3.org/TR/2001/REC-SVG-20010904/DTD/svg10.dtd" [
<!ATTLIST g
xmlns:kvg CDATA #FIXED "http://kanjivg.tagaini.net"
kvg:element CDATA #IMPLIED
kvg:variant CDATA #IMPLIED
kvg:partial CDATA #IMPLIED
kvg:original CDATA #IMPLIED
kvg:part CDATA #IMPLIED
kvg:number CDATA #IMPLIED
kvg:tradForm CDATA #IMPLIED
kvg:radicalForm CDATA #IMPLIED
kvg:position CDATA #IMPLIED
kvg:radical CDATA #IMPLIED
kvg:phon CDATA #IMPLIED >
<!ATTLIST path
xmlns:kvg CDATA #FIXED "http://kanjivg.tagaini.net"
kvg:type CDATA #IMPLIED >
]>
<svg xmlns="http://www.w3.org/2000/svg" width="327" height = "327" viewBox="0 0 327 327">
<g id="kvg:StrokePaths_0889e" style="fill:none;stroke:#000000;stroke-width:3;stroke-linecap:round;stroke-linejoin:round;" transform="scale(3.0,3.0)">
<g id="kvg:0889e" kvg:element="袞">
	<g id="kvg:0889e-g1" kvg:element="哀" kvg:part="1" kvg:position="top">
		<g id="kvg:0889e-g2" kvg:element="裏">
			<g id="kvg:0889e-g3" kvg:element="衣" kvg:part="1" kvg:radical="tradit">
				<g id="kvg:0889e-g4" kvg:element="亠" kvg:radical="nelson">
					<path style="stroke: #bf0909;" id="kvg:0889e-s1" kvg:type="㇑a" d="M51.25,9.35c1.06,0.57,2.81,2.79,2.81,3.93c0,4.21-0.33,6.42-0.14,9.98"/>
					<path style="stroke: #bf6c09;" id="kvg:0889e-s2" kvg:type="㇐" d="M21.25,25.54c1.35,0.1,4.42,0.65,5.72,0.52c10.57-1.09,43.17-4.58,57.52-4.86c2.22-0.04,3.35,0.04,5,0.66"/>
				</g>
			</g>
		</g>
	</g>
	<g id="kvg:0889e-g5" kvg:position="bottom">
		<g id="kvg:0889e-g6" kvg:element="八">
			<g id="kvg:0889e-g7" kvg:position="left">
				<path style="stroke: #aebf09;" id="kvg:0889e-s3" kvg:type="㇒" d="M41.75,27.89c0.06,0.39,0.28,1.1-0.12,1.57C38,33.75,32,39,20.81,44.47"/>
			</g>
			<g id="kvg:0889e-g8" kvg:position="right">
				<path style="stroke: #4bbf09;" id="kvg:0889e-s4" kvg:type="㇏" d="M65.02,28.08c6.63,2.05,17.13,8.44,18.79,11.63"/>
			</g>
		</g>
		<g id="kvg:0889e-g9" kvg:element="哀" kvg:part="2">
			<g id="kvg:0889e-g10" kvg:element="口">
				<path style="stroke: #09bf2a;" id="kvg:0889e-s5" kvg:type="㇑" d="M32.25,44.47c0.41,0.29,0.84,0.54,1.02,0.91c1.44,2.91,2.63,10.37,3.61,15.59"/>
				<path style="stroke: #09bf8d;" id="kvg:0889e-s6" kvg:type="㇕b" d="M34.83,45.46c10.13-1.22,29.26-3.29,34.48-3.7c1.91-0.15,3.06,1.52,2.79,2.4c-1.13,3.66-2,5.04-3.89,11.17"/>
				<path style="stroke: #098dbf;" id="kvg:0889e-s7" kvg:type="㇐b" d="M37.81,59.11c6.14-0.46,24.99-2.85,32.78-3.32"/>
			</g>
		</g>
		<g id="kvg:0889e-g11" kvg:element="衣" kvg:part="2" kvg:radical="tradit">
			<path style="stroke: #092abf;" id="kvg:0889e-s8" kvg:type="㇒" d="M46.97,61.66c0.09,0.55,0.36,1.48-0.18,2.23c-3.45,4.84-13.17,14.53-31.98,21.29"/>
			<path style="stroke: #4b09bf;" id="kvg:0889e-s9" kvg:type="㇙" d="M39.75,75.75c0.48,0.46,1,0.9,1,1.7c-0.03,10.04-0.32,14.88-0.32,16.58c0,1.7,1.18,2.67,2.68,1.39s14.35-11.07,16.35-12.34"/>
			<path style="stroke: #ae09bf;" id="kvg:0889e-s10" kvg:type="㇒" d="M79.32,57.89c0.04,0.33,0.47,1.61,0.2,2.05c-1.65,2.75-6.8,6.69-15.21,12.17"/>
			<path style="stroke: #bf096c;" id="kvg:0889e-s11" kvg:type="㇏" d="M52,65.18c1.21,0,3.88,1.12,6.06,2.9c6.88,5.62,24.3,19.23,29.19,22.32c1.84,1.16,3.41,1.66,5.25,1.99"/>
		</g>
	</g>
</g>
</g>
<g id="kvg:StrokeNumbers_0889e" style="font-size:8;fill:#808080" transform="scale(3.0,3.0)">
	<text style="fill: #bf0909;" transform="matrix(1 0 0 1 43.50 10.50)">1</text>
	<text style="fill: #bf6c09;" transform="matrix(1 0 0 1 13.50 24.50)">2</text>
	<text style="fill: #aebf09;" transform="matrix(1 0 0 1 27.50 35.48)">3</text>
	<text style="fill: #4bbf09;" transform="matrix(1 0 0 1 59.50 34.50)">4</text>
	<text style="fill: #09bf2a;" transform="matrix(1 0 0 1 26.50 52.50)">5</text>
	<text style="fill: #09bf8d;" transform="matrix(1 0 0 1 40.50 41.50)">6</text>
	<text style="fill: #098dbf;" transform="matrix(1 0 0 1 40.50 55.50)">7</text>
	<text style="fill: #092abf;" transform="matrix(1 0 0 1 33.50 69.50)">8</text>
	<text style="fill: #4b09bf;" transform="matrix(1 0 0 1 33.50 86.50)">9</text>
	<text style="fill: #ae09bf;" transform="matrix(1 0 0 1 63.25 65.50)">10</text>
	<text style="fill: #bf096c;" transform="matrix(1 0 0 1 49.50 74.50)">11</text>
</g>
</svg>
