<?xml version="1.0" encoding="UTF-8"?>
<!--
This file has been modified from the original version by the kanji_colorize.py
script (available at http://github.com/cayennes/kanji-colorize) with these
settings:
    mode: spectrum
    saturation: 0.95
    value: 0.75
    image_size: 327
It remains under a Creative Commons-Attribution-Share Alike 3.0 License.

The original SVG has the following copyright:

Copyright (C) 2009/2010/2011 Ulrich Apel.
This work is distributed under the conditions of the Creative Commons
Attribution-Share Alike 3.0 Licence. This means you are free:
* to Share - to copy, distribute and transmit the work
* to Remix - to adapt the work

Under the following conditions:
* Attribution. You must attribute the work by stating your use of KanjiVG in
  your own copyright header and linking to KanjiVG's website
  (http://kanjivg.tagaini.net)
* Share Alike. If you alter, transform, or build upon this work, you may
  distribute the resulting work only under the same or similar license to this
  one.

See http://creativecommons.org/licenses/by-sa/3.0/ for more details.
-->
<!DOCTYPE svg PUBLIC "-//W3C//DTD SVG 1.0//EN" "http://www.w3.org/TR/2001/REC-SVG-20010904/DTD/svg10.dtd" [
<!ATTLIST g
xmlns:kvg CDATA #FIXED "http://kanjivg.tagaini.net"
kvg:element CDATA #IMPLIED
kvg:variant CDATA #IMPLIED
kvg:partial CDATA #IMPLIED
kvg:original CDATA #IMPLIED
kvg:part CDATA #IMPLIED
kvg:number CDATA #IMPLIED
kvg:tradForm CDATA #IMPLIED
kvg:radicalForm CDATA #IMPLIED
kvg:position CDATA #IMPLIED
kvg:radical CDATA #IMPLIED
kvg:phon CDATA #IMPLIED >
<!ATTLIST path
xmlns:kvg CDATA #FIXED "http://kanjivg.tagaini.net"
kvg:type CDATA #IMPLIED >
]>
<svg xmlns="http://www.w3.org/2000/svg" width="327" height = "327" viewBox="0 0 327 327">
<g id="kvg:StrokePaths_0895f" style="fill:none;stroke:#000000;stroke-width:3;stroke-linecap:round;stroke-linejoin:round;" transform="scale(3.0,3.0)">
<g id="kvg:0895f" kvg:element="襟">
	<g id="kvg:0895f-g1" kvg:element="衤" kvg:variant="true" kvg:original="衣" kvg:position="left" kvg:radical="general">
		<path style="stroke: #bf0909;" id="kvg:0895f-s1" kvg:type="㇔" d="M17.88,13.5c3.23,2.82,6.69,7.06,9.45,12"/>
		<path style="stroke: #bf4609;" id="kvg:0895f-s2" kvg:type="㇇" d="M9.7,34.11c1.66,0.7,3.98,0.83,5.71,0.45c4.15-0.92,14-3.78,15.94-4.33c2.33-0.66,3.94,1.25,2.76,3.35C27.25,45.75,21.25,55.25,9,67"/>
		<path style="stroke: #bf8209;" id="kvg:0895f-s3" kvg:type="㇑" d="M24.5,51.86c0.76,0.76,1.02,2.14,1.02,3.64c0,6.1,0.04,25.75,0.05,36.38c0,2.44,0,4.41,0,5.62"/>
		<path style="stroke: #bfbf09;" id="kvg:0895f-s4" kvg:type="㇒" d="M38.98,44.64c0.21,0.91-0.05,1.65-0.46,2.31c-1.25,2-4.4,6.18-6.9,8.55"/>
		<path style="stroke: #82bf09;" id="kvg:0895f-s5" kvg:type="㇔" d="M28.58,56.5c2.82,2.29,5.84,5.73,8.25,9.75"/>
	</g>
	<g id="kvg:0895f-g2" kvg:element="禁" kvg:position="right" kvg:phon="禁">
		<g id="kvg:0895f-g3" kvg:element="林" kvg:position="top">
			<g id="kvg:0895f-g4" kvg:element="木" kvg:variant="true" kvg:position="left">
				<path style="stroke: #46bf09;" id="kvg:0895f-s6" kvg:type="㇐" d="M40.9,24.98c0.55,0.15,2.21,0.38,3.67,0.25c5.14-0.45,10.54-1.39,16.05-1.69c1.46-0.08,2.57-0.45,3.49-0.3"/>
				<path style="stroke: #09bf09;" id="kvg:0895f-s7" kvg:type="㇑" d="M53.36,12.01c0.69,0.69,0.76,1.74,0.76,2.89c0,4.16-0.05,15.01-0.07,22.98c-0.01,2.15-0.01,4.09-0.01,5.63"/>
				<path style="stroke: #09bf46;" id="kvg:0895f-s8" kvg:type="㇒" d="M52.77,24.79c0,0.96-0.64,2.05-1.44,3.2c-3.06,4.4-8.09,9.69-11.84,11.76"/>
				<path style="stroke: #09bf82;" id="kvg:0895f-s9" kvg:type="㇔/㇏" d="M57,28.28c1.96,1.32,4.42,3.76,6.13,5.83"/>
			</g>
			<g id="kvg:0895f-g5" kvg:element="木" kvg:position="right">
				<path style="stroke: #09bfbf;" id="kvg:0895f-s10" kvg:type="㇐" d="M69.23,21.33c1.62,0.54,3.6,0.71,5.3,0.52c4.09-0.47,9.92-1.17,16.19-1.74c1.19-0.11,2.22-0.15,2.97,0"/>
				<path style="stroke: #0982bf;" id="kvg:0895f-s11" kvg:type="㇑" d="M79.97,10.25c0.83,0.83,1.15,2,1.15,3.07c0,3.63,0,16.33-0.08,24.18c-0.03,2.53-0.06,4.5-0.1,5.42"/>
				<path style="stroke: #0946bf;" id="kvg:0895f-s12" kvg:type="㇒" d="M79.45,22.24c0,1.26-0.75,3.23-1.86,4.82C74.15,32,68.74,37.21,64.44,39.48"/>
				<path style="stroke: #0909bf;" id="kvg:0895f-s13" kvg:type="㇏" d="M81.67,21.44c3.11,4.48,6.92,9.34,9.93,12.22c1.13,1.08,2.78,2.34,4.17,2.97"/>
			</g>
		</g>
		<g id="kvg:0895f-g6" kvg:element="示" kvg:position="bottom">
			<g id="kvg:0895f-g7" kvg:position="top">
				<path style="stroke: #4609bf;" id="kvg:0895f-s14" kvg:type="㇐" d="M52.21,52.68c1.73,0.68,4.36,0.46,6.16,0.26c5.86-0.63,15.36-1.67,20.63-1.96c1.62-0.09,3.19-0.12,4.78,0.25"/>
				<path style="stroke: #8209bf;" id="kvg:0895f-s15" kvg:type="㇐" d="M43.29,64.95c2.23,0.96,5.37,0.46,7.7,0.28c8.69-0.66,26.23-2.53,37.76-2.98c2.65-0.1,5.39-0.29,7.98,0.38"/>
			</g>
			<g id="kvg:0895f-g8" kvg:position="bottom">
				<path style="stroke: #bf09bf;" id="kvg:0895f-s16" kvg:type="㇑" d="M67.53,67.04c0.9,0.9,0.98,2.21,0.98,3.95c0,13.73-0.01,16.48-0.01,20.88c0,9.93-2.94,4.01-6.22,0.68"/>
				<path style="stroke: #bf0982;" id="kvg:0895f-s17" kvg:type="㇒" d="M54.22,72.83c0.14,1.03-0.05,1.99-0.59,2.86c-2.05,3.77-8.87,9.83-16.21,14.14"/>
				<path style="stroke: #bf0946;" id="kvg:0895f-s18" kvg:type="㇔" d="M80.62,74.12c5.07,2.8,12.38,9.75,14.85,15.33"/>
			</g>
		</g>
	</g>
</g>
</g>
<g id="kvg:StrokeNumbers_0895f" style="font-size:8;fill:#808080" transform="scale(3.0,3.0)">
	<text style="fill: #bf0909;" transform="matrix(1 0 0 1 11.50 14.50)">1</text>
	<text style="fill: #bf4609;" transform="matrix(1 0 0 1 2.50 35.50)">2</text>
	<text style="fill: #bf8209;" transform="matrix(1 0 0 1 17.50 67.50)">3</text>
	<text style="fill: #bfbf09;" transform="matrix(1 0 0 1 30.75 47.50)">4</text>
	<text style="fill: #82bf09;" transform="matrix(1 0 0 1 33.79 60.05)">5</text>
	<text style="fill: #46bf09;" transform="matrix(1 0 0 1 38.50 22.63)">6</text>
	<text style="fill: #09bf09;" transform="matrix(1 0 0 1 47.66 11.61)">7</text>
	<text style="fill: #09bf46;" transform="matrix(1 0 0 1 41.25 33.50)">8</text>
	<text style="fill: #09bf82;" transform="matrix(1 0 0 1 62.25 30.50)">9</text>
	<text style="fill: #09bfbf;" transform="matrix(1 0 0 1 64.82 19.18)">10</text>
	<text style="fill: #0982bf;" transform="matrix(1 0 0 1 69.50 9.50)">11</text>
	<text style="fill: #0946bf;" transform="matrix(1 0 0 1 66.75 29.50)">12</text>
	<text style="fill: #0909bf;" transform="matrix(1 0 0 1 88.50 28.50)">13</text>
	<text style="fill: #4609bf;" transform="matrix(1 0 0 1 54.50 50.50)">14</text>
	<text style="fill: #8209bf;" transform="matrix(1 0 0 1 41.50 62.50)">15</text>
	<text style="fill: #bf09bf;" transform="matrix(1 0 0 1 56.39 72.61)">16</text>
	<text style="fill: #bf0982;" transform="matrix(1 0 0 1 43.50 75.50)">17</text>
	<text style="fill: #bf0946;" transform="matrix(1 0 0 1 82.50 73.63)">18</text>
</g>
</svg>
