<?xml version="1.0" encoding="UTF-8"?>
<!--
This file has been modified from the original version by the kanji_colorize.py
script (available at http://github.com/cayennes/kanji-colorize) with these
settings:
    mode: spectrum
    saturation: 0.95
    value: 0.75
    image_size: 327
It remains under a Creative Commons-Attribution-Share Alike 3.0 License.

The original SVG has the following copyright:

Copyright (C) 2009/2010/2011 Ulrich Apel.
This work is distributed under the conditions of the Creative Commons
Attribution-Share Alike 3.0 Licence. This means you are free:
* to Share - to copy, distribute and transmit the work
* to Remix - to adapt the work

Under the following conditions:
* Attribution. You must attribute the work by stating your use of KanjiVG in
  your own copyright header and linking to KanjiVG's website
  (http://kanjivg.tagaini.net)
* Share Alike. If you alter, transform, or build upon this work, you may
  distribute the resulting work only under the same or similar license to this
  one.

See http://creativecommons.org/licenses/by-sa/3.0/ for more details.
-->
<!DOCTYPE svg PUBLIC "-//W3C//DTD SVG 1.0//EN" "http://www.w3.org/TR/2001/REC-SVG-20010904/DTD/svg10.dtd" [
<!ATTLIST g
xmlns:kvg CDATA #FIXED "http://kanjivg.tagaini.net"
kvg:element CDATA #IMPLIED
kvg:variant CDATA #IMPLIED
kvg:partial CDATA #IMPLIED
kvg:original CDATA #IMPLIED
kvg:part CDATA #IMPLIED
kvg:number CDATA #IMPLIED
kvg:tradForm CDATA #IMPLIED
kvg:radicalForm CDATA #IMPLIED
kvg:position CDATA #IMPLIED
kvg:radical CDATA #IMPLIED
kvg:phon CDATA #IMPLIED >
<!ATTLIST path
xmlns:kvg CDATA #FIXED "http://kanjivg.tagaini.net"
kvg:type CDATA #IMPLIED >
]>
<svg xmlns="http://www.w3.org/2000/svg" width="327" height = "327" viewBox="0 0 327 327">
<g id="kvg:StrokePaths_08964" style="fill:none;stroke:#000000;stroke-width:3;stroke-linecap:round;stroke-linejoin:round;" transform="scale(3.0,3.0)">
<g id="kvg:08964" kvg:element="襤">
	<g id="kvg:08964-g1" kvg:element="衤" kvg:variant="true" kvg:original="衣" kvg:position="left" kvg:radical="general">
		<path style="stroke: #bf0909;" id="kvg:08964-s1" kvg:type="㇔" d="M19.33,15c3.07,2.53,6.37,6.32,9,10.75"/>
		<path style="stroke: #bf4009;" id="kvg:08964-s2" kvg:type="㇇" d="M9.2,37.36c0.94,0.39,2.38,0.91,3.96,0.61c5.09-0.97,17.87-4.33,20.19-4.99c2.33-0.66,4.58,0.83,3.26,2.85C28.86,47.65,22.25,57.75,10.5,69.5"/>
		<path style="stroke: #bf7609;" id="kvg:08964-s3" kvg:type="㇑" d="M25.1,54.61c0.11,0.27,1.5,1.38,1.6,3.07c0.51,8.08,0.05,34.57,0.05,37.32"/>
		<path style="stroke: #bfad09;" id="kvg:08964-s4" kvg:type="㇒" d="M38.28,46.89c0.17,0.95,0.34,1.21,0,1.9c-1.04,2.09-4.25,7.23-6.33,9.71"/>
		<path style="stroke: #9abf09;" id="kvg:08964-s5" kvg:type="㇔" d="M29.33,60c3.67,2.59,7.6,6.47,10.75,11"/>
	</g>
	<g id="kvg:08964-g2" kvg:element="監" kvg:position="right">
		<g id="kvg:08964-g3" kvg:position="top">
			<g id="kvg:08964-g4" kvg:element="臣" kvg:position="left">
				<path style="stroke: #64bf09;" id="kvg:08964-s6" kvg:type="㇑" d="M44.54,18.09c0.4,0.26,0.63,1.16,0.71,1.68c0.08,0.52,0,37.89-0.08,41.11"/>
				<path style="stroke: #2dbf09;" id="kvg:08964-s7" kvg:type="㇐b" d="M45.34,18.87c3.87-0.19,13.96-2.71,20-3.09c0.92-0.06,1.46-0.12,1.92,0.02"/>
				<path style="stroke: #09bf1b;" id="kvg:08964-s8" kvg:type="㇑a" d="M56.61,17.7c0.68,0.55,0.81,0.97,0.82,2.13c0.02,2.66-0.02,6.64-0.07,8.89"/>
				<path style="stroke: #09bf52;" id="kvg:08964-s9" kvg:type="㇕b" d="M45.49,31.27c6.23-0.95,14.42-1.93,18.74-2.58c1.75-0.26,2.23,0.8,1.99,2.2c-0.44,2.52-1.09,7.04-1.54,10.07"/>
				<path style="stroke: #09bf88;" id="kvg:08964-s10" kvg:type="㇐b" d="M45.52,44.23c2.6-0.38,17.63-2.38,20.07-2.62"/>
				<path style="stroke: #09bfbf;" id="kvg:08964-s11" kvg:type="㇑a" d="M56.39,45.19c0.21,0.65,0.82,1.1,0.82,2.01c0,2.97-0.02,6.97-0.07,9.2"/>
				<path style="stroke: #0988bf;" id="kvg:08964-s12" kvg:type="㇐b" d="M45.27,57.95c4.75-0.67,15.14-1.63,21.33-2.25c0.91-0.09,1.47-0.12,1.92,0.02"/>
			</g>
			<g id="kvg:08964-g5" kvg:position="right">
				<path style="stroke: #0952bf;" id="kvg:08964-s13" kvg:type="㇒" d="M80.04,13c0.02,0.61,0.17,1.65-0.05,2.46c-1.59,6-4.48,15.26-8.59,23.55"/>
				<path style="stroke: #091bbf;" id="kvg:08964-s14" kvg:type="㇐" d="M79.24,27.67c0.76,0.54,2.16,0.65,2.93,0.54c3.33-0.46,7.83-1.46,11.17-1.73c1.29-0.1,2.44-0.25,3.08,0.02"/>
				<path style="stroke: #2d09bf;" id="kvg:08964-s15" kvg:type="㇐" d="M71.34,48.02c0.79,0.54,2.22,0.55,3.02,0.54c4.76-0.06,10.03-0.81,17.4-1.78c1.3-0.28,2.52-0.36,3.71-0.04"/>
			</g>
		</g>
		<g id="kvg:08964-g6" kvg:element="皿" kvg:position="bottom">
			<path style="stroke: #6409bf;" id="kvg:08964-s16" kvg:type="㇑a" d="M48.34,68.12c0.53,0.66,1.21,0.8,1.33,1.38c0.9,4.55,2.55,15.62,3.18,23.83"/>
			<path style="stroke: #9a09bf;" id="kvg:08964-s17" kvg:type="㇕b" d="M50.2,70.13c9.3-0.63,37.53-3.59,38.72-3.62c1.2-0.03,2.15,1.12,1.93,2.64c-0.55,3.89-1.61,11.85-3.37,22.23"/>
			<path style="stroke: #bf09ad;" id="kvg:08964-s18" kvg:type="㇑a" d="M62.88,71.07c0.22,0.43,0.52,0.78,0.54,1.33c0.31,7.4,0.58,13.11,0.81,20.04"/>
			<path style="stroke: #bf0976;" id="kvg:08964-s19" kvg:type="㇑a" d="M76.02,69.17c0.4,0.51,0.79,1.39,0.73,2.06c-0.64,6.72-0.8,12.12-1.58,20.73"/>
			<path style="stroke: #bf0940;" id="kvg:08964-s20" kvg:type="㇐" d="M37.66,93.36c1.82,0.31,5.15,0.33,6.98,0.24C57.25,93,78.75,91,92.58,91.44c2,0.06,4.17,0.06,6.37,0.74"/>
		</g>
	</g>
</g>
</g>
<g id="kvg:StrokeNumbers_08964" style="font-size:8;fill:#808080" transform="scale(3.0,3.0)">
	<text style="fill: #bf0909;" transform="matrix(1 0 0 1 13.50 16.50)">1</text>
	<text style="fill: #bf4009;" transform="matrix(1 0 0 1 1.75 37.50)">2</text>
	<text style="fill: #bf7609;" transform="matrix(1 0 0 1 19.75 68.50)">3</text>
	<text style="fill: #bfad09;" transform="matrix(1 0 0 1 37.50 44.50)">4</text>
	<text style="fill: #9abf09;" transform="matrix(1 0 0 1 30.50 72.50)">5</text>
	<text style="fill: #64bf09;" transform="matrix(1 0 0 1 37.50 24.50)">6</text>
	<text style="fill: #2dbf09;" transform="matrix(1 0 0 1 45.50 15.50)">7</text>
	<text style="fill: #09bf1b;" transform="matrix(1 0 0 1 60.50 24.60)">8</text>
	<text style="fill: #09bf52;" transform="matrix(1 0 0 1 48.50 28.53)">9</text>
	<text style="fill: #09bf88;" transform="matrix(1 0 0 1 47.50 40.50)">10</text>
	<text style="fill: #09bfbf;" transform="matrix(1 0 0 1 59.50 50.50)">11</text>
	<text style="fill: #0988bf;" transform="matrix(1 0 0 1 47.25 54.50)">12</text>
	<text style="fill: #0952bf;" transform="matrix(1 0 0 1 68.25 12.50)">13</text>
	<text style="fill: #091bbf;" transform="matrix(1 0 0 1 82.50 24.50)">14</text>
	<text style="fill: #2d09bf;" transform="matrix(1 0 0 1 73.00 45.83)">15</text>
	<text style="fill: #6409bf;" transform="matrix(1 0 0 1 40.50 78.50)">16</text>
	<text style="fill: #9a09bf;" transform="matrix(1 0 0 1 51.50 67.50)">17</text>
	<text style="fill: #bf09ad;" transform="matrix(1 0 0 1 53.75 77.50)">18</text>
	<text style="fill: #bf0976;" transform="matrix(1 0 0 1 67.50 75.50)">19</text>
	<text style="fill: #bf0940;" transform="matrix(1 0 0 1 36.50 90.50)">20</text>
</g>
</svg>
