<?xml version="1.0" encoding="UTF-8"?>
<!--
This file has been modified from the original version by the kanji_colorize.py
script (available at http://github.com/cayennes/kanji-colorize) with these
settings:
    mode: spectrum
    saturation: 0.95
    value: 0.75
    image_size: 327
It remains under a Creative Commons-Attribution-Share Alike 3.0 License.

The original SVG has the following copyright:

Copyright (C) 2009/2010/2011 Ulrich Apel.
This work is distributed under the conditions of the Creative Commons
Attribution-Share Alike 3.0 Licence. This means you are free:
* to Share - to copy, distribute and transmit the work
* to Remix - to adapt the work

Under the following conditions:
* Attribution. You must attribute the work by stating your use of KanjiVG in
  your own copyright header and linking to KanjiVG's website
  (http://kanjivg.tagaini.net)
* Share Alike. If you alter, transform, or build upon this work, you may
  distribute the resulting work only under the same or similar license to this
  one.

See http://creativecommons.org/licenses/by-sa/3.0/ for more details.
-->
<!DOCTYPE svg PUBLIC "-//W3C//DTD SVG 1.0//EN" "http://www.w3.org/TR/2001/REC-SVG-20010904/DTD/svg10.dtd" [
<!ATTLIST g
xmlns:kvg CDATA #FIXED "http://kanjivg.tagaini.net"
kvg:element CDATA #IMPLIED
kvg:variant CDATA #IMPLIED
kvg:partial CDATA #IMPLIED
kvg:original CDATA #IMPLIED
kvg:part CDATA #IMPLIED
kvg:number CDATA #IMPLIED
kvg:tradForm CDATA #IMPLIED
kvg:radicalForm CDATA #IMPLIED
kvg:position CDATA #IMPLIED
kvg:radical CDATA #IMPLIED
kvg:phon CDATA #IMPLIED >
<!ATTLIST path
xmlns:kvg CDATA #FIXED "http://kanjivg.tagaini.net"
kvg:type CDATA #IMPLIED >
]>
<svg xmlns="http://www.w3.org/2000/svg" width="327" height = "327" viewBox="0 0 327 327">
<g id="kvg:StrokePaths_08a82" style="fill:none;stroke:#000000;stroke-width:3;stroke-linecap:round;stroke-linejoin:round;" transform="scale(3.0,3.0)">
<g id="kvg:08a82" kvg:element="誂">
	<g id="kvg:08a82-g1" kvg:element="言" kvg:position="left" kvg:radical="general">
		<path style="stroke: #bf0909;" id="kvg:08a82-s1" kvg:type="㇔" d="M20.3,16.5c3.13,1.7,8.09,6.99,8.88,9.64"/>
		<path style="stroke: #bf5d09;" id="kvg:08a82-s2" kvg:type="㇐" d="M9.12,33.89c0.71,0.24,3.4,0.28,4.1,0.24c8.73-0.44,17.48-2.79,23.83-3c1.18-0.04,2.95,0.12,3.54,0.24"/>
		<path style="stroke: #bfb109;" id="kvg:08a82-s3" kvg:type="㇐" d="M16.18,45.94c0.43,0.13,3.04,0.14,3.47,0.13c4.44-0.14,10.36-1.52,14.84-2.17c0.7-0.1,3.68,0.06,4.04,0.12"/>
		<path style="stroke: #79bf09;" id="kvg:08a82-s4" kvg:type="㇐" d="M15.3,60.25c0.38,0.12,2.71,0.14,3.1,0.12c3.97-0.14,12.11-2.37,16.33-2.69c0.63-0.05,3.29,0.06,3.6,0.12"/>
		<g id="kvg:08a82-g2" kvg:element="口">
			<path style="stroke: #25bf09;" id="kvg:08a82-s5" kvg:type="㇑" d="M15.51,73.39c0.37,0.38,0.78,1.21,0.9,1.71c1.04,4.4,2.84,13.7,3.89,20.15"/>
			<path style="stroke: #09bf41;" id="kvg:08a82-s6" kvg:type="㇕b" d="M16.36,75.42c6.77-0.93,13.54-2.72,19.78-3.66c1.57-0.23,2.52,1.08,2.29,2.15c-0.93,4.44-1.28,9.11-2.93,16.5"/>
			<path style="stroke: #09bf95;" id="kvg:08a82-s7" kvg:type="㇐b" d="M21.1,92.88c5.05-0.57,10.04-1.02,16.97-1.89"/>
		</g>
	</g>
	<g id="kvg:08a82-g3" kvg:element="兆" kvg:position="right">
		<g id="kvg:08a82-g4" kvg:element="儿" kvg:part="1" kvg:position="left">
			<g id="kvg:08a82-g5" kvg:element="丿">
				<path style="stroke: #0995bf;" id="kvg:08a82-s8" kvg:type="㇒" d="M57.54,18.91c0.71,1.56,1.39,3.51,1.39,4.72c0,7.64,0.06,21.73,0.06,30.15c0,20.84-7.27,31.87-16.59,39.4"/>
			</g>
			<g id="kvg:08a82-g6" kvg:element="冫">
				<g id="kvg:08a82-g7" kvg:position="top">
					<path style="stroke: #0941bf;" id="kvg:08a82-s9" kvg:type="㇔" d="M43.91,38.06c3.42,1.69,8.84,6.94,9.7,9.57"/>
				</g>
				<g id="kvg:08a82-g8" kvg:position="bottom">
					<path style="stroke: #2509bf;" id="kvg:08a82-s10" kvg:type="㇀" d="M42.61,67.79c0.95,0.45,1.9,0.59,2.62,0.09c1-0.7,8.17-6.48,12.08-9.85"/>
				</g>
			</g>
		</g>
		<g id="kvg:08a82-g9" kvg:position="right">
			<g id="kvg:08a82-g10" kvg:element="儿" kvg:part="2">
				<path style="stroke: #7909bf;" id="kvg:08a82-s11" kvg:type="㇟" d="M70.28,14.69c1.01,1.08,1.51,2.86,1.55,4.53c0.15,7.44-0.02,57.03-0.02,62.09c0,11.81,3.91,10.93,12.68,10.93c10.72,0,12.02-1.76,12.02-8.8"/>
			</g>
			<path style="stroke: #bf09b1;" id="kvg:08a82-s12" kvg:type="㇒" d="M90.14,30.75c0.04,0.36,0.09,0.94-0.08,1.46c-1.04,3.07-6.98,9.81-15.11,13.94"/>
			<path style="stroke: #bf095d;" id="kvg:08a82-s13" kvg:type="㇔" d="M75.2,50.77c6.42,2.62,16.59,10.76,18.2,14.84"/>
		</g>
	</g>
</g>
</g>
<g id="kvg:StrokeNumbers_08a82" style="font-size:8;fill:#808080" transform="scale(3.0,3.0)">
	<text style="fill: #bf0909;" transform="matrix(1 0 0 1 13.50 15.50)">1</text>
	<text style="fill: #bf5d09;" transform="matrix(1 0 0 1 2.75 34.50)">2</text>
	<text style="fill: #bfb109;" transform="matrix(1 0 0 1 8.50 47.50)">3</text>
	<text style="fill: #79bf09;" transform="matrix(1 0 0 1 8.50 61.72)">4</text>
	<text style="fill: #25bf09;" transform="matrix(1 0 0 1 9.50 81.50)">5</text>
	<text style="fill: #09bf41;" transform="matrix(1 0 0 1 18.50 71.50)">6</text>
	<text style="fill: #09bf95;" transform="matrix(1 0 0 1 23.50 89.50)">7</text>
	<text style="fill: #0995bf;" transform="matrix(1 0 0 1 48.50 19.50)">8</text>
	<text style="fill: #0941bf;" transform="matrix(1 0 0 1 43.50 34.50)">9</text>
	<text style="fill: #2509bf;" transform="matrix(1 0 0 1 40.50 63.50)">10</text>
	<text style="fill: #7909bf;" transform="matrix(1 0 0 1 64.50 11.13)">11</text>
	<text style="fill: #bf09b1;" transform="matrix(1 0 0 1 78.50 29.30)">12</text>
	<text style="fill: #bf095d;" transform="matrix(1 0 0 1 81.50 52.50)">13</text>
</g>
</svg>
