<?xml version="1.0" encoding="UTF-8"?>
<!--
This file has been modified from the original version by the kanji_colorize.py
script (available at http://github.com/cayennes/kanji-colorize) with these
settings:
    mode: spectrum
    saturation: 0.95
    value: 0.75
    image_size: 327
It remains under a Creative Commons-Attribution-Share Alike 3.0 License.

The original SVG has the following copyright:

Copyright (C) 2009/2010/2011 Ulrich Apel.
This work is distributed under the conditions of the Creative Commons
Attribution-Share Alike 3.0 Licence. This means you are free:
* to Share - to copy, distribute and transmit the work
* to Remix - to adapt the work

Under the following conditions:
* Attribution. You must attribute the work by stating your use of KanjiVG in
  your own copyright header and linking to KanjiVG's website
  (http://kanjivg.tagaini.net)
* Share Alike. If you alter, transform, or build upon this work, you may
  distribute the resulting work only under the same or similar license to this
  one.

See http://creativecommons.org/licenses/by-sa/3.0/ for more details.
-->
<!DOCTYPE svg PUBLIC "-//W3C//DTD SVG 1.0//EN" "http://www.w3.org/TR/2001/REC-SVG-20010904/DTD/svg10.dtd" [
<!ATTLIST g
xmlns:kvg CDATA #FIXED "http://kanjivg.tagaini.net"
kvg:element CDATA #IMPLIED
kvg:variant CDATA #IMPLIED
kvg:partial CDATA #IMPLIED
kvg:original CDATA #IMPLIED
kvg:part CDATA #IMPLIED
kvg:number CDATA #IMPLIED
kvg:tradForm CDATA #IMPLIED
kvg:radicalForm CDATA #IMPLIED
kvg:position CDATA #IMPLIED
kvg:radical CDATA #IMPLIED
kvg:phon CDATA #IMPLIED >
<!ATTLIST path
xmlns:kvg CDATA #FIXED "http://kanjivg.tagaini.net"
kvg:type CDATA #IMPLIED >
]>
<svg xmlns="http://www.w3.org/2000/svg" width="327" height = "327" viewBox="0 0 327 327">
<g id="kvg:StrokePaths_08ab9" style="fill:none;stroke:#000000;stroke-width:3;stroke-linecap:round;stroke-linejoin:round;" transform="scale(3.0,3.0)">
<g id="kvg:08ab9" kvg:element="誹">
	<g id="kvg:08ab9-g1" kvg:element="言" kvg:position="left" kvg:radical="general">
		<path style="stroke: #bf0909;" id="kvg:08ab9-s1" kvg:type="㇔" d="M22.88,16.75c3.13,1.41,8.09,5.8,8.87,8"/>
		<path style="stroke: #bf5209;" id="kvg:08ab9-s2" kvg:type="㇐" d="M11.37,35.58c0.63,0.23,3.04,0.27,3.67,0.23c7.8-0.42,18.97-3.17,24.64-3.37c1.05-0.04,2.64,0.11,3.16,0.23"/>
		<path style="stroke: #bf9a09;" id="kvg:08ab9-s3" kvg:type="㇐" d="M18.73,49.52c0.36,0.12,2.58,0.13,2.95,0.12c3.78-0.13,9.32-1.96,13.04-1.95c0.6,0,3.13,0.05,3.43,0.11"/>
		<path style="stroke: #9abf09;" id="kvg:08ab9-s4" kvg:type="㇐" d="M19.23,63.33c0.34,0.12,2.42,0.13,2.77,0.12c3.55-0.13,9-1.45,13.31-2.59c0.55-0.15,2.94,0.06,3.22,0.11"/>
		<g id="kvg:08ab9-g2" kvg:element="口">
			<path style="stroke: #52bf09;" id="kvg:08ab9-s5" kvg:type="㇑" d="M15.64,76.9c0.35,0.36,0.75,0.65,0.86,1.13c0.99,4.21,2.75,12.04,3.75,18.21"/>
			<path style="stroke: #09bf09;" id="kvg:08ab9-s6" kvg:type="㇕b" d="M17.81,78.87c6.44-0.89,12.48-2.6,18.42-3.5c1.49-0.22,2.39,1.04,2.18,2.06c-0.89,4.25-1.66,7.22-3.24,14.28"/>
			<path style="stroke: #09bf52;" id="kvg:08ab9-s7" kvg:type="㇐b" d="M20.97,94.05c4.8-0.54,9.6-1.47,16.19-2.31"/>
		</g>
	</g>
	<g id="kvg:08ab9-g3" kvg:element="非" kvg:position="right">
		<g id="kvg:08ab9-g4" kvg:position="left">
			<path style="stroke: #09bf9a;" id="kvg:08ab9-s8" kvg:type="㇒" d="M60.62,14.7c0.75,0.48,1.2,2.17,1.34,3.13c0.06,0.41,0.07,14.74,0.05,30.35C61.99,69.16,61.25,86,47.31,97.75"/>
			<path style="stroke: #099abf;" id="kvg:08ab9-s9" kvg:type="㇐" d="M45.3,39.37c1.03,0,2.23,0.24,3.26,0c1.03-0.24,8.19-1.37,12.79-2.41"/>
			<path style="stroke: #0952bf;" id="kvg:08ab9-s10" kvg:type="㇐" d="M44.96,55.51c1.03,0,2.23,0.24,3.26,0c1.03-0.24,9.58-2.17,12.32-2.89"/>
			<path style="stroke: #0909bf;" id="kvg:08ab9-s11" kvg:type="㇐" d="M44.25,73.97c1.81,0.7,2.73,0.32,4.27-0.57c0.91-0.52,5.81-3.13,11.16-6.1"/>
		</g>
		<g id="kvg:08ab9-g5" kvg:position="right">
			<path style="stroke: #5209bf;" id="kvg:08ab9-s12" kvg:type="㇑" d="M75.89,13c0.75,0.48,1.19,2.17,1.34,3.13c0.15,0.96,0,75.39-0.15,81.4"/>
			<path style="stroke: #9a09bf;" id="kvg:08ab9-s13" kvg:type="㇐" d="M78.74,34.86c3.55-0.36,14.62-2.01,17.28-2.61c0.97-0.22,0.29-0.12,1.97-0.12"/>
			<path style="stroke: #bf099a;" id="kvg:08ab9-s14" kvg:type="㇐" d="M79,52.96c3.09-0.36,12.06-2.03,14.38-2.63c0.84-0.22,0.26-0.12,1.71-0.12"/>
			<path style="stroke: #bf0952;" id="kvg:08ab9-s15" kvg:type="㇐" d="M77.91,71.04c3.25-0.36,13.24-1.29,17.48-2.13c0.9-0.18,1.32-0.12,2.86-0.12"/>
		</g>
	</g>
</g>
</g>
<g id="kvg:StrokeNumbers_08ab9" style="font-size:8;fill:#808080" transform="scale(3.0,3.0)">
	<text style="fill: #bf0909;" transform="matrix(1 0 0 1 15.50 16.63)">1</text>
	<text style="fill: #bf5209;" transform="matrix(1 0 0 1 4.50 37.50)">2</text>
	<text style="fill: #bf9a09;" transform="matrix(1 0 0 1 12.50 50.50)">3</text>
	<text style="fill: #9abf09;" transform="matrix(1 0 0 1 12.50 63.40)">4</text>
	<text style="fill: #52bf09;" transform="matrix(1 0 0 1 10.25 83.50)">5</text>
	<text style="fill: #09bf09;" transform="matrix(1 0 0 1 20.50 75.50)">6</text>
	<text style="fill: #09bf52;" transform="matrix(1 0 0 1 23.50 90.50)">7</text>
	<text style="fill: #09bf9a;" transform="matrix(1 0 0 1 51.50 15.50)">8</text>
	<text style="fill: #099abf;" transform="matrix(1 0 0 1 46.50 36.50)">9</text>
	<text style="fill: #0952bf;" transform="matrix(1 0 0 1 42.50 52.45)">10</text>
	<text style="fill: #0909bf;" transform="matrix(1 0 0 1 41.50 70.50)">11</text>
	<text style="fill: #5209bf;" transform="matrix(1 0 0 1 64.50 10.50)">12</text>
	<text style="fill: #9a09bf;" transform="matrix(1 0 0 1 80.67 31.50)">13</text>
	<text style="fill: #bf099a;" transform="matrix(1 0 0 1 80.50 49.50)">14</text>
	<text style="fill: #bf0952;" transform="matrix(1 0 0 1 80.68 67.50)">15</text>
</g>
</svg>
