<?xml version="1.0" encoding="UTF-8"?>
<!--
This file has been modified from the original version by the kanji_colorize.py
script (available at http://github.com/cayennes/kanji-colorize) with these
settings:
    mode: spectrum
    saturation: 0.95
    value: 0.75
    image_size: 327
It remains under a Creative Commons-Attribution-Share Alike 3.0 License.

The original SVG has the following copyright:

Copyright (C) 2009/2010/2011 Ulrich Apel.
This work is distributed under the conditions of the Creative Commons
Attribution-Share Alike 3.0 Licence. This means you are free:
* to Share - to copy, distribute and transmit the work
* to Remix - to adapt the work

Under the following conditions:
* Attribution. You must attribute the work by stating your use of KanjiVG in
  your own copyright header and linking to KanjiVG's website
  (http://kanjivg.tagaini.net)
* Share Alike. If you alter, transform, or build upon this work, you may
  distribute the resulting work only under the same or similar license to this
  one.

See http://creativecommons.org/licenses/by-sa/3.0/ for more details.
-->
<!DOCTYPE svg PUBLIC "-//W3C//DTD SVG 1.0//EN" "http://www.w3.org/TR/2001/REC-SVG-20010904/DTD/svg10.dtd" [
<!ATTLIST g
xmlns:kvg CDATA #FIXED "http://kanjivg.tagaini.net"
kvg:element CDATA #IMPLIED
kvg:variant CDATA #IMPLIED
kvg:partial CDATA #IMPLIED
kvg:original CDATA #IMPLIED
kvg:part CDATA #IMPLIED
kvg:number CDATA #IMPLIED
kvg:tradForm CDATA #IMPLIED
kvg:radicalForm CDATA #IMPLIED
kvg:position CDATA #IMPLIED
kvg:radical CDATA #IMPLIED
kvg:phon CDATA #IMPLIED >
<!ATTLIST path
xmlns:kvg CDATA #FIXED "http://kanjivg.tagaini.net"
kvg:type CDATA #IMPLIED >
]>
<svg xmlns="http://www.w3.org/2000/svg" width="327" height = "327" viewBox="0 0 327 327">
<g id="kvg:StrokePaths_08ad6" style="fill:none;stroke:#000000;stroke-width:3;stroke-linecap:round;stroke-linejoin:round;" transform="scale(3.0,3.0)">
<g id="kvg:08ad6" kvg:element="論">
	<g id="kvg:08ad6-g1" kvg:element="言" kvg:position="left" kvg:radical="general">
		<path style="stroke: #bf0909;" id="kvg:08ad6-s1" kvg:type="㇔" d="M21.55,15.25c2.52,1.5,6.5,6.17,7.13,8.5"/>
		<path style="stroke: #bf5209;" id="kvg:08ad6-s2" kvg:type="㇐" d="M9.62,33.58c1.61,0.53,3.72,0.27,5.38,0.16c7.68-0.48,13.44-1.78,20.49-2.67c1.48-0.19,3.12-0.44,4.6-0.15"/>
		<path style="stroke: #bf9a09;" id="kvg:08ad6-s3" kvg:type="㇐" d="M15.93,47.31c1.31,0.37,3.11,0.3,4.45,0.07C24.62,46.62,28,46,31.5,45.24c1.39-0.3,3.25-0.62,4.52-0.49"/>
		<path style="stroke: #9abf09;" id="kvg:08ad6-s4" kvg:type="㇐" d="M16.55,59.33c1.13,0.35,2.66,0.15,3.83,0.08c3.6-0.2,8.15-0.97,11.77-1.65c1.3-0.25,2.87-0.53,4.18-0.29"/>
		<g id="kvg:08ad6-g2" kvg:element="口">
			<path style="stroke: #52bf09;" id="kvg:08ad6-s5" kvg:type="㇑" d="M15.26,72.01c0.67,0.66,0.89,1.6,1.08,2.48c0.71,3.3,1.4,8.74,2.28,13.49c0.25,1.33,0.48,2.61,0.68,3.77"/>
			<path style="stroke: #09bf09;" id="kvg:08ad6-s6" kvg:type="㇕b" d="M17.04,72.87c5.77-0.74,11.14-1.7,16.46-2.49c2.4-0.36,4.34-0.26,3.72,2.62c-0.77,3.6-1.38,7.16-2.82,13.19"/>
			<path style="stroke: #09bf52;" id="kvg:08ad6-s7" kvg:type="㇐b" d="M20,89.33c3.8-0.35,7.32-0.91,12-1.46c1.23-0.15,2.52-0.29,3.9-0.43"/>
		</g>
	</g>
	<g id="kvg:08ad6-g3" kvg:element="侖" kvg:position="right" kvg:phon="侖">
		<g id="kvg:08ad6-g4" kvg:element="人" kvg:position="top">
			<path style="stroke: #09bf9a;" id="kvg:08ad6-s8" kvg:type="㇒" d="M65.57,13.9c0.3,0.98,0.16,2.43-0.39,3.64c-4.43,9.71-10.43,21.71-24.95,35.09"/>
			<path style="stroke: #099abf;" id="kvg:08ad6-s9" kvg:type="㇏" d="M66.12,18.13c4.41,3.74,15.76,15.99,22.47,22.42c2.04,1.96,4.66,4.08,7.43,5.52"/>
		</g>
		<g id="kvg:08ad6-g5" kvg:position="bottom">
			<g id="kvg:08ad6-g6" kvg:element="一">
				<path style="stroke: #0952bf;" id="kvg:08ad6-s10" kvg:type="㇐" d="M53.66,46.35c1.84,0.27,3.55,0.25,4.99,0.05c4.68-0.64,11.99-1.86,16.97-2.34c1.63-0.16,3.19-0.26,4.8,0.14"/>
			</g>
			<g id="kvg:08ad6-g7" kvg:element="冊">
				<g id="kvg:08ad6-g8" kvg:element="冂">
					<path style="stroke: #0909bf;" id="kvg:08ad6-s11" kvg:type="㇑" d="M46.57,58.38c0.84,0.84,0.94,2.13,0.94,3.28c0,4.24,0.07,18.71,0.1,29.09c0,1.97,0.01,3.8,0.01,5.38"/>
					<path style="stroke: #5209bf;" id="kvg:08ad6-s12" kvg:type="㇆a" d="M48.54,60.21c8.51-0.94,29.2-3.23,35.48-3.94c2.8-0.32,5.42,0.29,5.42,3.71c0,9.26,0.07,17.9,0.07,29.95c0,7.96-2.78,5.35-6.15,2.57"/>
				</g>
				<g id="kvg:08ad6-g9" kvg:element="廾" kvg:variant="true">
					<g id="kvg:08ad6-g10" kvg:element="十" kvg:part="1" kvg:variant="true">
						<path style="stroke: #9a09bf;" id="kvg:08ad6-s13" kvg:type="㇐a" d="M48.28,75.48c12.09-1.36,31.97-3.36,40.01-3.65"/>
					</g>
					<g id="kvg:08ad6-g11" kvg:element="丿" kvg:variant="true">
						<path style="stroke: #bf099a;" id="kvg:08ad6-s14" kvg:type="㇑" d="M60.25,61.02c0.74,0.74,1.07,1.85,1.07,3.6c0,9.75,0.1,19.03,0.03,24.88c-0.02,1.92-0.04,3.47-0.04,4.53"/>
					</g>
					<g id="kvg:08ad6-g12" kvg:element="十" kvg:part="2" kvg:variant="true">
						<path style="stroke: #bf0952;" id="kvg:08ad6-s15" kvg:type="㇑" d="M72.36,60.17c0.74,0.79,1.06,1.83,1.06,3.6c0,8.6,0.03,17.47,0.03,23.72c0,2.05-0.05,3.7-0.05,4.85"/>
					</g>
				</g>
			</g>
		</g>
	</g>
</g>
</g>
<g id="kvg:StrokeNumbers_08ad6" style="font-size:8;fill:#808080" transform="scale(3.0,3.0)">
	<text style="fill: #bf0909;" transform="matrix(1 0 0 1 14.50 15.13)">1</text>
	<text style="fill: #bf5209;" transform="matrix(1 0 0 1 2.50 34.55)">2</text>
	<text style="fill: #bf9a09;" transform="matrix(1 0 0 1 8.50 48.50)">3</text>
	<text style="fill: #9abf09;" transform="matrix(1 0 0 1 9.50 61.40)">4</text>
	<text style="fill: #52bf09;" transform="matrix(1 0 0 1 8.50 80.83)">5</text>
	<text style="fill: #09bf09;" transform="matrix(1 0 0 1 18.50 69.50)">6</text>
	<text style="fill: #09bf52;" transform="matrix(1 0 0 1 22.50 85.55)">7</text>
	<text style="fill: #09bf9a;" transform="matrix(1 0 0 1 56.50 18.50)">8</text>
	<text style="fill: #099abf;" transform="matrix(1 0 0 1 74.50 23.50)">9</text>
	<text style="fill: #0952bf;" transform="matrix(1 0 0 1 57.75 43.55)">10</text>
	<text style="fill: #0909bf;" transform="matrix(1 0 0 1 37.50 65.98)">11</text>
	<text style="fill: #5209bf;" transform="matrix(1 0 0 1 48.75 56.50)">12</text>
	<text style="fill: #9a09bf;" transform="matrix(1 0 0 1 50.25 72.05)">13</text>
	<text style="fill: #bf099a;" transform="matrix(1 0 0 1 63.75 67.50)">14</text>
	<text style="fill: #bf0952;" transform="matrix(1 0 0 1 75.50 67.50)">15</text>
</g>
</svg>
