<?xml version="1.0" encoding="UTF-8"?>
<!--
This file has been modified from the original version by the kanji_colorize.py
script (available at http://github.com/cayennes/kanji-colorize) with these
settings:
    mode: spectrum
    saturation: 0.95
    value: 0.75
    image_size: 327
It remains under a Creative Commons-Attribution-Share Alike 3.0 License.

The original SVG has the following copyright:

Copyright (C) 2009/2010/2011 Ulrich Apel.
This work is distributed under the conditions of the Creative Commons
Attribution-Share Alike 3.0 Licence. This means you are free:
* to Share - to copy, distribute and transmit the work
* to Remix - to adapt the work

Under the following conditions:
* Attribution. You must attribute the work by stating your use of KanjiVG in
  your own copyright header and linking to KanjiVG's website
  (http://kanjivg.tagaini.net)
* Share Alike. If you alter, transform, or build upon this work, you may
  distribute the resulting work only under the same or similar license to this
  one.

See http://creativecommons.org/licenses/by-sa/3.0/ for more details.
-->
<!DOCTYPE svg PUBLIC "-//W3C//DTD SVG 1.0//EN" "http://www.w3.org/TR/2001/REC-SVG-20010904/DTD/svg10.dtd" [
<!ATTLIST g
xmlns:kvg CDATA #FIXED "http://kanjivg.tagaini.net"
kvg:element CDATA #IMPLIED
kvg:variant CDATA #IMPLIED
kvg:partial CDATA #IMPLIED
kvg:original CDATA #IMPLIED
kvg:part CDATA #IMPLIED
kvg:number CDATA #IMPLIED
kvg:tradForm CDATA #IMPLIED
kvg:radicalForm CDATA #IMPLIED
kvg:position CDATA #IMPLIED
kvg:radical CDATA #IMPLIED
kvg:phon CDATA #IMPLIED >
<!ATTLIST path
xmlns:kvg CDATA #FIXED "http://kanjivg.tagaini.net"
kvg:type CDATA #IMPLIED >
]>
<svg xmlns="http://www.w3.org/2000/svg" width="327" height = "327" viewBox="0 0 327 327">
<g id="kvg:StrokePaths_08af7" style="fill:none;stroke:#000000;stroke-width:3;stroke-linecap:round;stroke-linejoin:round;" transform="scale(3.0,3.0)">
<g id="kvg:08af7" kvg:element="諷">
	<g id="kvg:08af7-g1" kvg:element="言" kvg:position="left" kvg:radical="general">
		<path style="stroke: #bf0909;" id="kvg:08af7-s1" kvg:type="㇔" d="M18.3,17.75c3.66,1.77,9.46,7.25,10.38,10"/>
		<path style="stroke: #bf4d09;" id="kvg:08af7-s2" kvg:type="㇐" d="M8.12,36.58c0.71,0.23,3.4,0.27,4.1,0.23c8.73-0.42,17.28-2.31,23.83-3.37c1.17-0.19,2.95,0.11,3.54,0.23"/>
		<path style="stroke: #bf9109;" id="kvg:08af7-s3" kvg:type="㇐" d="M13.68,48.06c0.43,0.12,3.04,0.13,3.47,0.12c4.44-0.14,10.86-1.43,15.34-2.05c0.7-0.1,3.68,0.06,4.04,0.12"/>
		<path style="stroke: #a8bf09;" id="kvg:08af7-s4" kvg:type="㇐" d="M13.8,60.83c0.38,0.12,2.71,0.13,3.1,0.12c3.97-0.13,11.36-1.95,15.83-2.59c0.63-0.09,3.29,0.06,3.6,0.11"/>
		<g id="kvg:08af7-g2" kvg:element="口">
			<path style="stroke: #64bf09;" id="kvg:08af7-s5" kvg:type="㇑" d="M13.51,75.55c0.32,0.3,0.68,0.95,0.79,1.35c0.91,3.47,2.48,12.01,3.39,17.11"/>
			<path style="stroke: #20bf09;" id="kvg:08af7-s6" kvg:type="㇕b" d="M14.69,76.76c5.91-0.74,12.81-2.15,18.25-2.89c1.37-0.18,2.19,0.86,2,1.7c-0.81,3.51-1.11,6.2-2.56,12.03"/>
			<path style="stroke: #09bf36;" id="kvg:08af7-s7" kvg:type="㇐b" d="M17.95,90.94c4.4-0.45,9.75-1.8,15.8-2.49"/>
		</g>
	</g>
	<g id="kvg:08af7-g3" kvg:element="風" kvg:position="right">
		<g id="kvg:08af7-g4" kvg:element="几">
			<g id="kvg:08af7-g5" kvg:element="丿">
				<path style="stroke: #09bf7b;" id="kvg:08af7-s8" kvg:type="㇒" d="M44.58,21.48c0.27,1.99,0.65,3.56,0.65,6.05c0,22.75,1.53,51.22-9.47,65.72"/>
			</g>
			<path style="stroke: #09bfbf;" id="kvg:08af7-s9" kvg:type="㇈a" d="M45.35,22.55C55.5,21,78.06,17,81.05,17s4.31,1.01,4.11,4.98c-1.17,23.77-2.52,47.71,7.6,66.32c4.74,8.71,6.99,4.21,5.99-3.14"/>
		</g>
		<path style="stroke: #097bbf;" id="kvg:08af7-s10" kvg:type="㇒" d="M72.33,25.62c0.06,0.26,0.12,0.68-0.11,1.05c-1.35,2.22-9.1,7.1-19.7,10.08"/>
		<g id="kvg:08af7-g6" kvg:element="虫">
			<g id="kvg:08af7-g7" kvg:element="中">
				<g id="kvg:08af7-g8" kvg:element="口">
					<path style="stroke: #0936bf;" id="kvg:08af7-s11" kvg:type="㇑" d="M51.76,44.3c0.34,0.52,0.78,0.94,0.85,1.54c0.47,4.32,1.97,9.5,2.62,17.64"/>
					<path style="stroke: #2009bf;" id="kvg:08af7-s12" kvg:type="㇕b" d="M52.86,45.47c5.24,0.27,18.38-2.87,22.18-2.38c1.48,0.19,2.16,1.66,1.98,2.89c-0.63,4.2-1.76,7.09-2.78,14.07"/>
					<path style="stroke: #6409bf;" id="kvg:08af7-s13" kvg:type="㇐b" d="M55.42,61.81c4.22,0.05,15.58-2.24,21.49-1.77"/>
				</g>
				<g id="kvg:08af7-g9" kvg:element="丨">
					<path style="stroke: #a809bf;" id="kvg:08af7-s14" kvg:type="㇑a" d="M63.84,34.94c0.52,0.29,0.83,1.31,0.93,1.9s0,40.65-0.1,44.29"/>
				</g>
			</g>
			<path style="stroke: #bf0991;" id="kvg:08af7-s15" kvg:type="㇀" d="M52.06,84.64c0.55,0.64,1.89,0.94,2.44,0.78c0.56-0.16,20.76-7.21,22.43-8.01"/>
			<path style="stroke: #bf094d;" id="kvg:08af7-s16" kvg:type="㇔" d="M74.02,69.82c2.05,2.97,6.25,11.35,6.94,15.21"/>
		</g>
	</g>
</g>
</g>
<g id="kvg:StrokeNumbers_08af7" style="font-size:8;fill:#808080" transform="scale(3.0,3.0)">
	<text style="fill: #bf0909;" transform="matrix(1 0 0 1 11.50 16.50)">1</text>
	<text style="fill: #bf4d09;" transform="matrix(1 0 0 1 2.25 36.50)">2</text>
	<text style="fill: #bf9109;" transform="matrix(1 0 0 1 6.50 48.50)">3</text>
	<text style="fill: #a8bf09;" transform="matrix(1 0 0 1 6.50 61.50)">4</text>
	<text style="fill: #64bf09;" transform="matrix(1 0 0 1 6.50 80.50)">5</text>
	<text style="fill: #20bf09;" transform="matrix(1 0 0 1 15.50 73.50)">6</text>
	<text style="fill: #09bf36;" transform="matrix(1 0 0 1 20.50 88.50)">7</text>
	<text style="fill: #09bf7b;" transform="matrix(1 0 0 1 36.50 27.50)">8</text>
	<text style="fill: #09bfbf;" transform="matrix(1 0 0 1 46.50 18.50)">9</text>
	<text style="fill: #097bbf;" transform="matrix(1 0 0 1 60.50 27.50)">10</text>
	<text style="fill: #0936bf;" transform="matrix(1 0 0 1 47.50 56.50)">11</text>
	<text style="fill: #2009bf;" transform="matrix(1 0 0 1 53.50 43.50)">12</text>
	<text style="fill: #6409bf;" transform="matrix(1 0 0 1 56.50 58.50)">13</text>
	<text style="fill: #a809bf;" transform="matrix(1 0 0 1 66.75 38.50)">14</text>
	<text style="fill: #bf0991;" transform="matrix(1 0 0 1 48.50 80.50)">15</text>
	<text style="fill: #bf094d;" transform="matrix(1 0 0 1 72.75 67.00)">16</text>
</g>
</svg>
