<?xml version="1.0" encoding="UTF-8"?>
<!--
This file has been modified from the original version by the kanji_colorize.py
script (available at http://github.com/cayennes/kanji-colorize) with these
settings:
    mode: spectrum
    saturation: 0.95
    value: 0.75
    image_size: 327
It remains under a Creative Commons-Attribution-Share Alike 3.0 License.

The original SVG has the following copyright:

Copyright (C) 2009/2010/2011 Ulrich Apel.
This work is distributed under the conditions of the Creative Commons
Attribution-Share Alike 3.0 Licence. This means you are free:
* to Share - to copy, distribute and transmit the work
* to Remix - to adapt the work

Under the following conditions:
* Attribution. You must attribute the work by stating your use of KanjiVG in
  your own copyright header and linking to KanjiVG's website
  (http://kanjivg.tagaini.net)
* Share Alike. If you alter, transform, or build upon this work, you may
  distribute the resulting work only under the same or similar license to this
  one.

See http://creativecommons.org/licenses/by-sa/3.0/ for more details.
-->
<!DOCTYPE svg PUBLIC "-//W3C//DTD SVG 1.0//EN" "http://www.w3.org/TR/2001/REC-SVG-20010904/DTD/svg10.dtd" [
<!ATTLIST g
xmlns:kvg CDATA #FIXED "http://kanjivg.tagaini.net"
kvg:element CDATA #IMPLIED
kvg:variant CDATA #IMPLIED
kvg:partial CDATA #IMPLIED
kvg:original CDATA #IMPLIED
kvg:part CDATA #IMPLIED
kvg:number CDATA #IMPLIED
kvg:tradForm CDATA #IMPLIED
kvg:radicalForm CDATA #IMPLIED
kvg:position CDATA #IMPLIED
kvg:radical CDATA #IMPLIED
kvg:phon CDATA #IMPLIED >
<!ATTLIST path
xmlns:kvg CDATA #FIXED "http://kanjivg.tagaini.net"
kvg:type CDATA #IMPLIED >
]>
<svg xmlns="http://www.w3.org/2000/svg" width="327" height = "327" viewBox="0 0 327 327">
<g id="kvg:StrokePaths_08b4c" style="fill:none;stroke:#000000;stroke-width:3;stroke-linecap:round;stroke-linejoin:round;" transform="scale(3.0,3.0)">
<g id="kvg:08b4c" kvg:element="譌">
	<g id="kvg:08b4c-g1" kvg:element="言" kvg:position="left" kvg:radical="general">
		<path style="stroke: #bf0909;" id="kvg:08b4c-s1" kvg:type="㇔" d="M21.05,14.5c3.75,1.9,9.69,7.8,10.63,10.75"/>
		<path style="stroke: #bf4209;" id="kvg:08b4c-s2" kvg:type="㇐" d="M10.62,35.08c0.71,0.23,3.4,0.27,4.1,0.23c8.73-0.42,19.03-2.06,24.83-3.37c1.15-0.26,2.95,0.11,3.54,0.23"/>
		<path style="stroke: #bf7c09;" id="kvg:08b4c-s3" kvg:type="㇐" d="M16.18,47.56c0.43,0.12,3.04,0.13,3.47,0.12c4.44-0.14,10.86-1.43,15.34-2.05c0.7-0.1,3.68,0.06,4.04,0.12"/>
		<path style="stroke: #bfb509;" id="kvg:08b4c-s4" kvg:type="㇐" d="M15.8,59.33c0.38,0.12,2.71,0.13,3.1,0.12C22.86,59.32,32,58,35.73,57.36c0.63-0.11,3.29,0.06,3.6,0.11"/>
		<g id="kvg:08b4c-g2" kvg:element="口">
			<path style="stroke: #8fbf09;" id="kvg:08b4c-s5" kvg:type="㇑" d="M15.51,73.4c0.39,0.36,0.83,1.15,0.96,1.63c1.11,4.21,1.28,15.71,1.64,22.21"/>
			<path style="stroke: #56bf09;" id="kvg:08b4c-s6" kvg:type="㇕b" d="M16.94,74.87c7.2-0.89,13.9-2.6,20.55-3.5c1.67-0.22,2.68,1.04,2.44,2.06c-0.99,4.25-1.86,10.22-3.62,17.28"/>
			<path style="stroke: #1cbf09;" id="kvg:08b4c-s7" kvg:type="㇐b" d="M18.42,93.55C23.8,93,31.6,92.57,38.98,91.74"/>
		</g>
	</g>
	<g id="kvg:08b4c-g3" kvg:element="爲" kvg:position="right">
		<g id="kvg:08b4c-g4" kvg:element="⺤" kvg:variant="true" kvg:original="爪" kvg:position="top">
			<path style="stroke: #09bf2f;" id="kvg:08b4c-s8" kvg:type="㇒" d="M85.47,10.43c0.09,0.29,0.2,0.73-0.19,1.14C83.03,13.98,68.25,21,51.36,22.5"/>
			<path style="stroke: #09bf69;" id="kvg:08b4c-s9" kvg:type="㇒" d="M53.66,26.93c0.03,0.4,0.06,1.02-0.06,1.59c-0.69,3.36-4.68,10.72-10.13,15.23"/>
			<path style="stroke: #09bfa2;" id="kvg:08b4c-s10" kvg:type="㇔" d="M64.62,25.12c2.19,1.83,5.64,7.53,6.19,10.38"/>
			<path style="stroke: #09a2bf;" id="kvg:08b4c-s11" kvg:type="㇔" d="M80.47,21.62c5,2.63,12.93,10.8,14.18,14.88"/>
		</g>
		<g id="kvg:08b4c-g5" kvg:position="bottom">
			<g id="kvg:08b4c-g6" kvg:element="勹" kvg:part="1">
				<g id="kvg:08b4c-g7" kvg:element="丿">
					<path style="stroke: #0969bf;" id="kvg:08b4c-s12" kvg:type="㇒" d="M54.87,40.25c0.41,1.43,0.99,2.55,0.99,4.33c0,16.28-1.16,35.42-11.8,48.14"/>
				</g>
			</g>
			<path style="stroke: #092fbf;" id="kvg:08b4c-s13" kvg:type="㇕" d="M55.84,42.67c8.64-1.42,20.94-2.53,26.61-3.62c2.08-0.4,3.36,1.09,3.04,2.45c-0.71,3-2.28,7.5-2.81,10.25"/>
			<path style="stroke: #1c09bf;" id="kvg:08b4c-s14" kvg:type="㇕" d="M55.84,54.42c8.64-1.42,24.21-1.53,29.88-2.62c2.08-0.4,3.36,1.09,3.04,2.45c-0.71,3-2.64,8-2.81,10.25"/>
			<g id="kvg:08b4c-g8" kvg:element="勹" kvg:part="2">
				<path style="stroke: #5609bf;" id="kvg:08b4c-s15" kvg:type="㇆" d="M54.87,67.75c2.67,0,33.7-3,37.27-3c2.14,0,3.74,0.75,3.38,4.75c-0.47,5.26-2.99,17-5.48,24.75c-1.58,4.93-5.42,3.25-7.55,0.25"/>
			</g>
			<g id="kvg:08b4c-g9" kvg:element="灬" kvg:variant="true" kvg:original="火">
				<path style="stroke: #8f09bf;" id="kvg:08b4c-s16" kvg:type="㇔" d="M55.65,79.75c0.1,4.01-1.07,8.95-3.55,14.5"/>
				<path style="stroke: #bf09b5;" id="kvg:08b4c-s17" kvg:type="㇔" d="M61.32,76.83c1.71,2.76,3.34,10.34,3.77,14.63"/>
				<path style="stroke: #bf097c;" id="kvg:08b4c-s18" kvg:type="㇔" d="M70.14,75.08c1.97,2.23,5.08,9.17,5.58,12.63"/>
				<path style="stroke: #bf0942;" id="kvg:08b4c-s19" kvg:type="㇔" d="M80.36,75.08c1.61,1.79,4.16,7.35,4.56,10.13"/>
			</g>
		</g>
	</g>
</g>
</g>
<g id="kvg:StrokeNumbers_08b4c" style="font-size:8;fill:#808080" transform="scale(3.0,3.0)">
	<text style="fill: #bf0909;" transform="matrix(1 0 0 1 14.50 13.50)">1</text>
	<text style="fill: #bf4209;" transform="matrix(1 0 0 1 3.50 35.50)">2</text>
	<text style="fill: #bf7c09;" transform="matrix(1 0 0 1 8.50 48.50)">3</text>
	<text style="fill: #bfb509;" transform="matrix(1 0 0 1 8.50 60.50)">4</text>
	<text style="fill: #8fbf09;" transform="matrix(1 0 0 1 8.50 79.50)">5</text>
	<text style="fill: #56bf09;" transform="matrix(1 0 0 1 18.50 71.50)">6</text>
	<text style="fill: #1cbf09;" transform="matrix(1 0 0 1 20.75 90.50)">7</text>
	<text style="fill: #09bf2f;" transform="matrix(1 0 0 1 78.78 10.22)">8</text>
	<text style="fill: #09bf69;" transform="matrix(1 0 0 1 45.50 31.50)">9</text>
	<text style="fill: #09bfa2;" transform="matrix(1 0 0 1 66.79 27.36)">10</text>
	<text style="fill: #09a2bf;" transform="matrix(1 0 0 1 81.41 20.35)">11</text>
	<text style="fill: #0969bf;" transform="matrix(1 0 0 1 44.87 49.25)">12</text>
	<text style="fill: #092fbf;" transform="matrix(1 0 0 1 56.50 39.50)">13</text>
	<text style="fill: #1c09bf;" transform="matrix(1 0 0 1 59.50 51.50)">14</text>
	<text style="fill: #5609bf;" transform="matrix(1 0 0 1 58.50 64.50)">15</text>
	<text style="fill: #8f09bf;" transform="matrix(1 0 0 1 50.66 78.29)">16</text>
	<text style="fill: #bf09b5;" transform="matrix(1 0 0 1 59.27 74.92)">17</text>
	<text style="fill: #bf097c;" transform="matrix(1 0 0 1 69.26 74.32)">18</text>
	<text style="fill: #bf0942;" transform="matrix(1 0 0 1 81.91 75.00)">19</text>
</g>
</svg>
