<?xml version="1.0" encoding="UTF-8"?>
<!--
This file has been modified from the original version by the kanji_colorize.py
script (available at http://github.com/cayennes/kanji-colorize) with these
settings:
    mode: spectrum
    saturation: 0.95
    value: 0.75
    image_size: 327
It remains under a Creative Commons-Attribution-Share Alike 3.0 License.

The original SVG has the following copyright:

Copyright (C) 2009/2010/2011 Ulrich Apel.
This work is distributed under the conditions of the Creative Commons
Attribution-Share Alike 3.0 Licence. This means you are free:
* to Share - to copy, distribute and transmit the work
* to Remix - to adapt the work

Under the following conditions:
* Attribution. You must attribute the work by stating your use of KanjiVG in
  your own copyright header and linking to KanjiVG's website
  (http://kanjivg.tagaini.net)
* Share Alike. If you alter, transform, or build upon this work, you may
  distribute the resulting work only under the same or similar license to this
  one.

See http://creativecommons.org/licenses/by-sa/3.0/ for more details.
-->
<!DOCTYPE svg PUBLIC "-//W3C//DTD SVG 1.0//EN" "http://www.w3.org/TR/2001/REC-SVG-20010904/DTD/svg10.dtd" [
<!ATTLIST g
xmlns:kvg CDATA #FIXED "http://kanjivg.tagaini.net"
kvg:element CDATA #IMPLIED
kvg:variant CDATA #IMPLIED
kvg:partial CDATA #IMPLIED
kvg:original CDATA #IMPLIED
kvg:part CDATA #IMPLIED
kvg:number CDATA #IMPLIED
kvg:tradForm CDATA #IMPLIED
kvg:radicalForm CDATA #IMPLIED
kvg:position CDATA #IMPLIED
kvg:radical CDATA #IMPLIED
kvg:phon CDATA #IMPLIED >
<!ATTLIST path
xmlns:kvg CDATA #FIXED "http://kanjivg.tagaini.net"
kvg:type CDATA #IMPLIED >
]>
<svg xmlns="http://www.w3.org/2000/svg" width="327" height = "327" viewBox="0 0 327 327">
<g id="kvg:StrokePaths_08b70" style="fill:none;stroke:#000000;stroke-width:3;stroke-linecap:round;stroke-linejoin:round;" transform="scale(3.0,3.0)">
<g id="kvg:08b70" kvg:element="議">
	<g id="kvg:08b70-g1" kvg:element="言" kvg:position="left" kvg:radical="general">
		<path style="stroke: #bf0909;" id="kvg:08b70-s1" kvg:type="㇔" d="M23.75,15.5c2.38,1.46,6.15,5.98,6.75,8.25"/>
		<path style="stroke: #bf4009;" id="kvg:08b70-s2" kvg:type="㇐" d="M11.37,34.08c0.63,0.23,3.03,0.26,3.67,0.23C22.25,34,31,32.25,38.93,31.19c1.05-0.14,2.64,0.11,3.16,0.23"/>
		<path style="stroke: #bf7609;" id="kvg:08b70-s3" kvg:type="㇐" d="M17.98,47.56c0.99,0.31,2.38,0.14,3.39,0.06c3.67-0.29,8.73-1.4,12.76-1.89c1.15-0.14,2.36-0.21,3.51,0.01"/>
		<path style="stroke: #bfad09;" id="kvg:08b70-s4" kvg:type="㇐" d="M18.48,60.08c1.1,0.38,2.76,0.14,3.91,0.05c3.19-0.23,7.37-0.93,10.76-1.41c1.19-0.17,2.69-0.5,3.88-0.26"/>
		<g id="kvg:08b70-g2" kvg:element="口">
			<path style="stroke: #9abf09;" id="kvg:08b70-s5" kvg:type="㇑" d="M17.14,73.65c0.77,0.68,1.16,1.78,1.17,2.81c0.7,3.43,1.4,8.21,2.1,12.78c0.2,1.28,0.39,2.55,0.59,3.76"/>
			<path style="stroke: #64bf09;" id="kvg:08b70-s6" kvg:type="㇕b" d="M19.31,74.37c6.44-0.89,11.23-2.1,17.17-3c1.49-0.22,2.39,1.04,2.18,2.06c-0.89,4.25-1.66,6.72-3.24,13.78"/>
			<path style="stroke: #2dbf09;" id="kvg:08b70-s7" kvg:type="㇐b" d="M21.72,90.3c3.89-0.44,7.44-0.97,12.16-1.6c1.11-0.15,2.28-0.3,3.54-0.46"/>
		</g>
	</g>
	<g id="kvg:08b70-g3" kvg:element="義" kvg:position="right" kvg:phon="義">
		<g id="kvg:08b70-g4" kvg:element="羊" kvg:variant="true" kvg:position="top">
			<path style="stroke: #09bf1b;" id="kvg:08b70-s8" kvg:type="㇔" d="M50.93,13.95c2.58,1.52,6.67,6.23,7.32,8.59"/>
			<path style="stroke: #09bf52;" id="kvg:08b70-s9" kvg:type="㇒" d="M76.38,9.25c0.02,0.35,0.09,1.16-0.04,1.65c-0.83,3.1-2.8,7.38-6.12,11.27"/>
			<path style="stroke: #09bf88;" id="kvg:08b70-s10" kvg:type="㇐" d="M49.06,27.75c1.81,0.37,4.15,0.29,5.57,0.03c6.06-1.14,17.68-3.27,23.88-3.99c1.63-0.19,3.66-0.46,5.27-0.02"/>
			<path style="stroke: #09bfbf;" id="kvg:08b70-s11" kvg:type="㇑a" d="M65.28,27.21c0.94,0.94,1.22,2.29,1.22,3.72c0,2.82-0.14,7.44-0.14,11.75"/>
			<path style="stroke: #0988bf;" id="kvg:08b70-s12" kvg:type="㇐" d="M51.3,36.49c2.08,0.39,4.1,0.1,5.62-0.13c5.23-0.81,14.22-2.28,19.35-2.78c1.52-0.15,3.17-0.35,4.68,0.06"/>
			<path style="stroke: #0952bf;" id="kvg:08b70-s13" kvg:type="㇐" d="M45.78,45.82c2.47,0.56,5.42,0.23,7.59-0.1c7.12-1.09,21.41-3.3,30.14-4.24c2.49-0.27,5-0.71,7.47-0.11"/>
		</g>
		<g id="kvg:08b70-g5" kvg:element="我" kvg:position="bottom">
			<g id="kvg:08b70-g6" kvg:element="丿">
				<path style="stroke: #091bbf;" id="kvg:08b70-s14" kvg:type="㇒" d="M56.76,50.12c0.12,0.63-0.05,1.28-0.35,1.64c-1.96,2.39-5.6,5.52-12.66,8.73"/>
			</g>
			<g id="kvg:08b70-g7" kvg:element="戈" kvg:part="1">
				<g id="kvg:08b70-g8" kvg:element="弋" kvg:part="1">
					<path style="stroke: #2d09bf;" id="kvg:08b70-s15" kvg:type="㇐" d="M43.22,65.89c2.66,0.61,5.89,0.36,8.56-0.05c8.24-1.26,22.23-4.44,32.84-5.7c2.63-0.31,5.06-0.53,7.66,0.07"/>
				</g>
			</g>
			<g id="kvg:08b70-g9" kvg:element="亅">
				<path style="stroke: #6409bf;" id="kvg:08b70-s16" kvg:type="㇚" d="M55.01,56.65c0.07,0.28,0.95,1.47,0.95,3.27c0,10.95-0.08,28.88-0.08,32.7c0,5.12-4.32,1.15-6.7-0.4"/>
			</g>
			<path style="stroke: #9a09bf;" id="kvg:08b70-s17" kvg:type="㇀" d="M44.88,82.88c1.25,0.62,2.49,0.25,3.25-0.28c0.76-0.51,11.48-8.71,14.69-11.18"/>
			<g id="kvg:08b70-g10" kvg:element="戈" kvg:part="2">
				<path style="stroke: #bf09ad;" id="kvg:08b70-s18" kvg:type="㇂" d="M67.81,47.99c1.53,1.57,2.33,3.38,2.6,5.51c2.34,18.31,10.69,35.73,22.11,43.33c4.04,2.68,4.44-1.05,3.93-5.7"/>
				<g id="kvg:08b70-g11" kvg:element="丿">
					<path style="stroke: #bf0976;" id="kvg:08b70-s19" kvg:type="㇒" d="M84.87,66.62c0.06,0.59,0.12,1.54-0.11,2.39c-1.39,5.04-9.03,16.67-19.91,23.45"/>
				</g>
				<g id="kvg:08b70-g12" kvg:element="弋" kvg:part="2">
					<g id="kvg:08b70-g13" kvg:element="丶">
						<path style="stroke: #bf0940;" id="kvg:08b70-s20" kvg:type="㇔" d="M77.88,47.38c2.31,1.27,5.99,4.16,7.07,6.33"/>
					</g>
				</g>
			</g>
		</g>
	</g>
</g>
</g>
<g id="kvg:StrokeNumbers_08b70" style="font-size:8;fill:#808080" transform="scale(3.0,3.0)">
	<text style="fill: #bf0909;" transform="matrix(1 0 0 1 16.50 15.50)">1</text>
	<text style="fill: #bf4009;" transform="matrix(1 0 0 1 4.50 35.50)">2</text>
	<text style="fill: #bf7609;" transform="matrix(1 0 0 1 11.50 48.50)">3</text>
	<text style="fill: #bfad09;" transform="matrix(1 0 0 1 10.99 61.41)">4</text>
	<text style="fill: #9abf09;" transform="matrix(1 0 0 1 11.50 80.50)">5</text>
	<text style="fill: #64bf09;" transform="matrix(1 0 0 1 19.99 70.50)">6</text>
	<text style="fill: #2dbf09;" transform="matrix(1 0 0 1 23.50 86.68)">7</text>
	<text style="fill: #09bf1b;" transform="matrix(1 0 0 1 47.50 11.50)">8</text>
	<text style="fill: #09bf52;" transform="matrix(1 0 0 1 68.50 9.50)">9</text>
	<text style="fill: #09bf88;" transform="matrix(1 0 0 1 43.50 26.50)">10</text>
	<text style="fill: #09bfbf;" transform="matrix(1 0 0 1 69.94 32.38)">11</text>
	<text style="fill: #0988bf;" transform="matrix(1 0 0 1 44.50 35.50)">12</text>
	<text style="fill: #0952bf;" transform="matrix(1 0 0 1 44.44 44.50)">13</text>
	<text style="fill: #091bbf;" transform="matrix(1 0 0 1 46.50 53.50)">14</text>
	<text style="fill: #2d09bf;" transform="matrix(1 0 0 1 34.50 68.08)">15</text>
	<text style="fill: #6409bf;" transform="matrix(1 0 0 1 57.94 60.50)">16</text>
	<text style="fill: #9a09bf;" transform="matrix(1 0 0 1 42.50 79.50)">17</text>
	<text style="fill: #bf09ad;" transform="matrix(1 0 0 1 60.50 54.50)">18</text>
	<text style="fill: #bf0976;" transform="matrix(1 0 0 1 87.50 70.50)">19</text>
	<text style="fill: #bf0940;" transform="matrix(1 0 0 1 85.50 49.50)">20</text>
</g>
</svg>
