<?xml version="1.0" encoding="UTF-8"?>
<!--
This file has been modified from the original version by the kanji_colorize.py
script (available at http://github.com/cayennes/kanji-colorize) with these
settings:
    mode: spectrum
    saturation: 0.95
    value: 0.75
    image_size: 327
It remains under a Creative Commons-Attribution-Share Alike 3.0 License.

The original SVG has the following copyright:

Copyright (C) 2009/2010/2011 Ulrich Apel.
This work is distributed under the conditions of the Creative Commons
Attribution-Share Alike 3.0 Licence. This means you are free:
* to Share - to copy, distribute and transmit the work
* to Remix - to adapt the work

Under the following conditions:
* Attribution. You must attribute the work by stating your use of KanjiVG in
  your own copyright header and linking to KanjiVG's website
  (http://kanjivg.tagaini.net)
* Share Alike. If you alter, transform, or build upon this work, you may
  distribute the resulting work only under the same or similar license to this
  one.

See http://creativecommons.org/licenses/by-sa/3.0/ for more details.
-->
<!DOCTYPE svg PUBLIC "-//W3C//DTD SVG 1.0//EN" "http://www.w3.org/TR/2001/REC-SVG-20010904/DTD/svg10.dtd" [
<!ATTLIST g
xmlns:kvg CDATA #FIXED "http://kanjivg.tagaini.net"
kvg:element CDATA #IMPLIED
kvg:variant CDATA #IMPLIED
kvg:partial CDATA #IMPLIED
kvg:original CDATA #IMPLIED
kvg:part CDATA #IMPLIED
kvg:number CDATA #IMPLIED
kvg:tradForm CDATA #IMPLIED
kvg:radicalForm CDATA #IMPLIED
kvg:position CDATA #IMPLIED
kvg:radical CDATA #IMPLIED
kvg:phon CDATA #IMPLIED >
<!ATTLIST path
xmlns:kvg CDATA #FIXED "http://kanjivg.tagaini.net"
kvg:type CDATA #IMPLIED >
]>
<svg xmlns="http://www.w3.org/2000/svg" width="327" height = "327" viewBox="0 0 327 327">
<g id="kvg:StrokePaths_08b90" style="fill:none;stroke:#000000;stroke-width:3;stroke-linecap:round;stroke-linejoin:round;" transform="scale(3.0,3.0)">
<g id="kvg:08b90" kvg:element="讐">
	<g id="kvg:08b90-g1" kvg:position="top">
		<g id="kvg:08b90-g2" kvg:element="隹" kvg:position="left">
			<g id="kvg:08b90-g3" kvg:element="亻" kvg:variant="true" kvg:original="人">
				<path style="stroke: #bf0909;" id="kvg:08b90-s1" kvg:type="㇒" d="M29.26,12c0,1.25-0.29,2.23-0.78,3.06c-3.12,5.28-7.33,9.5-14.48,15.93"/>
				<path style="stroke: #bf3809;" id="kvg:08b90-s2" kvg:type="㇑" d="M22.36,25.33c0.78,0.78,1.09,1.67,1.09,2.88c0,4.19-0.04,12.46-0.06,18.67c-0.01,2.93-0.02,5.39-0.02,6.75"/>
			</g>
			<path style="stroke: #bf6809;" id="kvg:08b90-s3" kvg:type="㇒" d="M41.31,13c0.05,0.82-0.12,1.57-0.51,2.27c-1,2.16-2.15,3.49-4.4,6.37"/>
			<path style="stroke: #bf9709;" id="kvg:08b90-s4" kvg:type="㇐b" d="M24.08,24.71c8.34-0.91,18.01-1.64,23.42-2.13c2.38-0.22,4.13-0.39,4.71-0.47"/>
			<path style="stroke: #b7bf09;" id="kvg:08b90-s5" kvg:type="㇑a" d="M36.19,25.4c0.83,0.83,0.96,1.97,0.96,3.1c0,4.98-0.02,14.3-0.02,20"/>
			<path style="stroke: #87bf09;" id="kvg:08b90-s6" kvg:type="㇐b" d="M24.62,33.25c3.77-0.36,14.72-1.58,20.89-2.16c2.07-0.19,2.98-0.22,4.13-0.16"/>
			<path style="stroke: #58bf09;" id="kvg:08b90-s7" kvg:type="㇐b" d="M24.68,42c3.86-0.3,14.63-1.73,21.08-2.43c2.42-0.26,3.61-0.19,4.85-0.27"/>
			<path style="stroke: #29bf09;" id="kvg:08b90-s8" kvg:type="㇐b" d="M24.68,51.18c3.9-0.43,15.87-1.68,23.57-2.44c2.81-0.28,3.75-0.37,5.5-0.33"/>
		</g>
		<g id="kvg:08b90-g4" kvg:element="隹" kvg:position="right">
			<g id="kvg:08b90-g5" kvg:element="亻" kvg:variant="true" kvg:original="人">
				<path style="stroke: #09bf19;" id="kvg:08b90-s9" kvg:type="㇒" d="M64.21,11.25c0.09,1.01-0.22,2.34-0.57,3.18c-2.51,6.07-4.79,10.14-9.13,16.82"/>
				<path style="stroke: #09bf48;" id="kvg:08b90-s10" kvg:type="㇑" d="M60.16,22.98c0.87,0.87,1.04,1.65,1.04,2.75c0,4.51-0.04,13.3-0.06,19.65c-0.01,2.88-0.02,5.25-0.02,6.5"/>
			</g>
			<path style="stroke: #09bf78;" id="kvg:08b90-s11" kvg:type="㇒" d="M77.8,11.75c0.04,0.73-0.1,1.42-0.43,2.05c-0.87,2.02-1.7,3.19-3.72,5.64"/>
			<path style="stroke: #09bfa7;" id="kvg:08b90-s12" kvg:type="㇐b" d="M62.08,23.28c3.91-0.44,15.99-1.6,23.05-2.19c2.56-0.21,3.12-0.21,5.07-0.22"/>
			<path style="stroke: #09a7bf;" id="kvg:08b90-s13" kvg:type="㇑a" d="M73.38,24c0.81,0.81,0.96,2,0.96,3.01c0,4.25-0.08,14.7-0.08,20.87"/>
			<path style="stroke: #0978bf;" id="kvg:08b90-s14" kvg:type="㇐b" d="M62.29,32.33c3.75-0.37,14.4-1.51,20.46-2.05c2.07-0.19,3.25-0.15,4.15-0.15"/>
			<path style="stroke: #0948bf;" id="kvg:08b90-s15" kvg:type="㇐b" d="M62.43,40.67c4.09-0.32,14.92-1.3,20.69-1.72c1.71-0.12,2.75-0.08,3.74-0.02"/>
			<path style="stroke: #0919bf;" id="kvg:08b90-s16" kvg:type="㇐b" d="M62.43,50.09c4.86-0.33,16.44-1.22,23.45-1.57c3.01-0.15,3.87-0.02,5.62,0.01"/>
		</g>
	</g>
	<g id="kvg:08b90-g6" kvg:element="言" kvg:position="bottom" kvg:radical="general">
		<path style="stroke: #2909bf;" id="kvg:08b90-s17" kvg:type="㇔" d="M51.25,51.5c2.47,1.1,5.38,3.79,6,5.5"/>
		<path style="stroke: #5809bf;" id="kvg:08b90-s18" kvg:type="㇐" d="M17.38,63.73c4.83,0.79,9.59,0.21,14.5-0.17c15.37-1.18,35.7-2.31,48.63-2.8c4.23-0.21,8.43-0.02,12.62,0.56"/>
		<path style="stroke: #8709bf;" id="kvg:08b90-s19" kvg:type="㇐" d="M35.88,70.65c2.46,0.3,4.91,0.3,7.37,0.03c6.67-0.48,16.65-1.36,22.24-1.89c2.43-0.23,5.56-0.76,8.01-0.29"/>
		<path style="stroke: #b709bf;" id="kvg:08b90-s20" kvg:type="㇐" d="M34.88,78.15c2.69,0.59,5.4,0.65,8.13,0.19c6.84-0.58,17.44-1.73,23-2.18c2.5-0.2,4.98-0.67,7.5-0.17"/>
		<g id="kvg:08b90-g7" kvg:element="口">
			<path style="stroke: #bf0997;" id="kvg:08b90-s21" kvg:type="㇑" d="M35,85.39c0.8,0.8,1.12,1.73,1.32,2.55c0.48,1.98,1.04,4.31,1.59,6.98c0.29,1.4,0.58,2.89,0.85,4.48"/>
			<path style="stroke: #bf0968;" id="kvg:08b90-s22" kvg:type="㇕b" d="M36.83,86.87c8.84-1.17,30.33-3.02,37.55-3.76c2.07-0.21,3.98,1.31,2.94,3.54c-1.32,2.85-2.22,4.13-4.07,7.73"/>
			<path style="stroke: #bf0938;" id="kvg:08b90-s23" kvg:type="㇐b" d="M39.67,97.65c3.74-0.31,19.87-1.38,30.33-1.88c2.38-0.11,4.46-0.2,6.04-0.24"/>
		</g>
	</g>
</g>
</g>
<g id="kvg:StrokeNumbers_08b90" style="font-size:8;fill:#808080" transform="scale(3.0,3.0)">
	<text style="fill: #bf0909;" transform="matrix(1 0 0 1 20.50 13.50)">1</text>
	<text style="fill: #bf3809;" transform="matrix(1 0 0 1 16.50 37.50)">2</text>
	<text style="fill: #bf6809;" transform="matrix(1 0 0 1 33.50 11.50)">3</text>
	<text style="fill: #bf9709;" transform="matrix(1 0 0 1 30.25 21.50)">4</text>
	<text style="fill: #b7bf09;" transform="matrix(1 0 0 1 40.50 29.33)">5</text>
	<text style="fill: #87bf09;" transform="matrix(1 0 0 1 27.50 30.25)">6</text>
	<text style="fill: #58bf09;" transform="matrix(1 0 0 1 27.54 39.50)">7</text>
	<text style="fill: #29bf09;" transform="matrix(1 0 0 1 27.51 48.50)">8</text>
	<text style="fill: #09bf19;" transform="matrix(1 0 0 1 55.50 12.50)">9</text>
	<text style="fill: #09bf48;" transform="matrix(1 0 0 1 50.25 34.95)">10</text>
	<text style="fill: #09bf78;" transform="matrix(1 0 0 1 67.50 10.50)">11</text>
	<text style="fill: #09bfa7;" transform="matrix(1 0 0 1 65.25 19.50)">12</text>
	<text style="fill: #09a7bf;" transform="matrix(1 0 0 1 77.50 28.50)">13</text>
	<text style="fill: #0978bf;" transform="matrix(1 0 0 1 63.34 29.65)">14</text>
	<text style="fill: #0948bf;" transform="matrix(1 0 0 1 63.50 38.50)">15</text>
	<text style="fill: #0919bf;" transform="matrix(1 0 0 1 63.38 47.50)">16</text>
	<text style="fill: #2909bf;" transform="matrix(1 0 0 1 42.25 57.43)">17</text>
	<text style="fill: #5809bf;" transform="matrix(1 0 0 1 6.25 65.50)">18</text>
	<text style="fill: #8709bf;" transform="matrix(1 0 0 1 25.50 73.50)">19</text>
	<text style="fill: #b709bf;" transform="matrix(1 0 0 1 25.50 80.20)">20</text>
	<text style="fill: #bf0997;" transform="matrix(1 0 0 1 26.50 93.50)">21</text>
	<text style="fill: #bf0968;" transform="matrix(1 0 0 1 38.50 85.50)">22</text>
	<text style="fill: #bf0938;" transform="matrix(1 0 0 1 42.50 94.50)">23</text>
</g>
</svg>
