<?xml version="1.0" encoding="UTF-8"?>
<!--
This file has been modified from the original version by the kanji_colorize.py
script (available at http://github.com/cayennes/kanji-colorize) with these
settings:
    mode: spectrum
    saturation: 0.95
    value: 0.75
    image_size: 327
It remains under a Creative Commons-Attribution-Share Alike 3.0 License.

The original SVG has the following copyright:

Copyright (C) 2009/2010/2011 Ulrich Apel.
This work is distributed under the conditions of the Creative Commons
Attribution-Share Alike 3.0 Licence. This means you are free:
* to Share - to copy, distribute and transmit the work
* to Remix - to adapt the work

Under the following conditions:
* Attribution. You must attribute the work by stating your use of KanjiVG in
  your own copyright header and linking to KanjiVG's website
  (http://kanjivg.tagaini.net)
* Share Alike. If you alter, transform, or build upon this work, you may
  distribute the resulting work only under the same or similar license to this
  one.

See http://creativecommons.org/licenses/by-sa/3.0/ for more details.
-->
<!DOCTYPE svg PUBLIC "-//W3C//DTD SVG 1.0//EN" "http://www.w3.org/TR/2001/REC-SVG-20010904/DTD/svg10.dtd" [
<!ATTLIST g
xmlns:kvg CDATA #FIXED "http://kanjivg.tagaini.net"
kvg:element CDATA #IMPLIED
kvg:variant CDATA #IMPLIED
kvg:partial CDATA #IMPLIED
kvg:original CDATA #IMPLIED
kvg:part CDATA #IMPLIED
kvg:number CDATA #IMPLIED
kvg:tradForm CDATA #IMPLIED
kvg:radicalForm CDATA #IMPLIED
kvg:position CDATA #IMPLIED
kvg:radical CDATA #IMPLIED
kvg:phon CDATA #IMPLIED >
<!ATTLIST path
xmlns:kvg CDATA #FIXED "http://kanjivg.tagaini.net"
kvg:type CDATA #IMPLIED >
]>
<svg xmlns="http://www.w3.org/2000/svg" width="327" height = "327" viewBox="0 0 327 327">
<g id="kvg:StrokePaths_08c78" style="fill:none;stroke:#000000;stroke-width:3;stroke-linecap:round;stroke-linejoin:round;" transform="scale(3.0,3.0)">
<g id="kvg:08c78" kvg:element="豸" kvg:radical="general">
	<path style="stroke: #bf0909;" id="kvg:08c78-s1" kvg:type="㇒" d="M65.24,9c0.1,0.5,0.39,1.43-0.2,1.99c-7.43,6.99-18.42,13.41-37.79,19.05"/>
	<path style="stroke: #bfa509;" id="kvg:08c78-s2" kvg:type="㇔" d="M35,29.5c3,2.21,7.75,9.07,8.5,12.5"/>
	<path style="stroke: #3dbf09;" id="kvg:08c78-s3" kvg:type="㇔" d="M53.75,21.5c2.65,1.76,6.84,7.26,7.5,10"/>
	<path style="stroke: #09bf71;" id="kvg:08c78-s4" kvg:type="㇒" d="M75.2,20.5c0.13,0.74,0.51,2.13-0.26,2.96c-9.53,10.4-23.61,19.94-48.44,28.33"/>
	<path style="stroke: #0971bf;" id="kvg:08c78-s5" kvg:type="㇕v" d="M57.75,39C69,45.75,75.11,72.45,66.83,93.33c-4.83,12.17-9.64,1.12-10.89,0.06"/>
	<path style="stroke: #3d09bf;" id="kvg:08c78-s6" kvg:type="㇒" d="M60.75,44.75c0.09,0.59,0.19,1.53-0.18,2.38c-2.22,5.02-14.98,16.03-32.43,22.77"/>
	<path style="stroke: #bf09a5;" id="kvg:08c78-s7" kvg:type="㇒" d="M65.25,56.75c0.1,0.81,0.44,2.19-0.21,3.24C60.25,67.75,47.25,80.75,28.75,91"/>
</g>
</g>
<g id="kvg:StrokeNumbers_08c78" style="font-size:8;fill:#808080" transform="scale(3.0,3.0)">
	<text style="fill: #bf0909;" transform="matrix(1 0 0 1 57.75 9.13)">1</text>
	<text style="fill: #bfa509;" transform="matrix(1 0 0 1 31.50 38.63)">2</text>
	<text style="fill: #3dbf09;" transform="matrix(1 0 0 1 50.25 30.50)">3</text>
	<text style="fill: #09bf71;" transform="matrix(1 0 0 1 67.50 21.50)">4</text>
	<text style="fill: #0971bf;" transform="matrix(1 0 0 1 65.50 43.63)">5</text>
	<text style="fill: #3d09bf;" transform="matrix(1 0 0 1 48.75 52.63)">6</text>
	<text style="fill: #bf09a5;" transform="matrix(1 0 0 1 54.75 66.13)">7</text>
</g>
</svg>
