<?xml version="1.0" encoding="UTF-8"?>
<!--
This file has been modified from the original version by the kanji_colorize.py
script (available at http://github.com/cayennes/kanji-colorize) with these
settings:
    mode: spectrum
    saturation: 0.95
    value: 0.75
    image_size: 327
It remains under a Creative Commons-Attribution-Share Alike 3.0 License.

The original SVG has the following copyright:

Copyright (C) 2009/2010/2011 Ulrich Apel.
This work is distributed under the conditions of the Creative Commons
Attribution-Share Alike 3.0 Licence. This means you are free:
* to Share - to copy, distribute and transmit the work
* to Remix - to adapt the work

Under the following conditions:
* Attribution. You must attribute the work by stating your use of KanjiVG in
  your own copyright header and linking to KanjiVG's website
  (http://kanjivg.tagaini.net)
* Share Alike. If you alter, transform, or build upon this work, you may
  distribute the resulting work only under the same or similar license to this
  one.

See http://creativecommons.org/licenses/by-sa/3.0/ for more details.
-->
<!DOCTYPE svg PUBLIC "-//W3C//DTD SVG 1.0//EN" "http://www.w3.org/TR/2001/REC-SVG-20010904/DTD/svg10.dtd" [
<!ATTLIST g
xmlns:kvg CDATA #FIXED "http://kanjivg.tagaini.net"
kvg:element CDATA #IMPLIED
kvg:variant CDATA #IMPLIED
kvg:partial CDATA #IMPLIED
kvg:original CDATA #IMPLIED
kvg:part CDATA #IMPLIED
kvg:number CDATA #IMPLIED
kvg:tradForm CDATA #IMPLIED
kvg:radicalForm CDATA #IMPLIED
kvg:position CDATA #IMPLIED
kvg:radical CDATA #IMPLIED
kvg:phon CDATA #IMPLIED >
<!ATTLIST path
xmlns:kvg CDATA #FIXED "http://kanjivg.tagaini.net"
kvg:type CDATA #IMPLIED >
]>
<svg xmlns="http://www.w3.org/2000/svg" width="327" height = "327" viewBox="0 0 327 327">
<g id="kvg:StrokePaths_08ce3" style="fill:none;stroke:#000000;stroke-width:3;stroke-linecap:round;stroke-linejoin:round;" transform="scale(3.0,3.0)">
<g id="kvg:08ce3" kvg:element="賣">
	<g id="kvg:08ce3-g1" kvg:position="top">
		<g id="kvg:08ce3-g2" kvg:element="士">
			<path style="stroke: #bf0909;" id="kvg:08ce3-s1" kvg:type="㇐" d="M27.22,18.57c0.99,0.35,2.8,0.41,3.79,0.35c10.29-0.59,34.24-2.67,46.32-3.43c1.64-0.1,2.64,0.17,3.46,0.35"/>
			<path style="stroke: #bf5209;" id="kvg:08ce3-s2" kvg:type="㇑a" d="M52.38,9c0.81,0.33,1.3,1.47,1.47,2.12c0.16,0.65,0,11.07-0.16,15.14"/>
			<path style="stroke: #bf9a09;" id="kvg:08ce3-s3" kvg:type="㇐" d="M34.51,27.38c0.79,0.24,2.23,0.26,3.02,0.24c10.42-0.29,23.67-2.71,34.67-2.68c1.31,0,2.1,0.11,2.76,0.24"/>
		</g>
		<g id="kvg:08ce3-g3" kvg:element="罒" kvg:variant="true" kvg:original="网">
			<path style="stroke: #9abf09;" id="kvg:08ce3-s4" kvg:type="㇑" d="M23.74,35.11c0.3,0.24,0.6,0.45,0.73,0.75c1.03,2.41,2.27,9.06,2.98,13.39"/>
			<path style="stroke: #52bf09;" id="kvg:08ce3-s5" kvg:type="㇕a" d="M25.6,36.75c6.57-0.94,54.34-3.95,57.83-4.27c1.28-0.12,3.01,0.82,2.66,2.17c-0.71,2.83-1.97,7.68-3.87,11.71"/>
			<path style="stroke: #09bf09;" id="kvg:08ce3-s6" kvg:type="㇑a" d="M44.2,35.4c0.2,1.61,1.61,9.43,1.81,11.24"/>
			<path style="stroke: #09bf52;" id="kvg:08ce3-s7" kvg:type="㇑a" d="M64.07,34.4c-0.2,2.61-1.2,9.43-1.61,11.04"/>
			<path style="stroke: #09bf9a;" id="kvg:08ce3-s8" kvg:type="㇐a" d="M28.4,47.94c4.1-0.36,48.67-3.08,54.3-3.63"/>
		</g>
	</g>
	<g id="kvg:08ce3-g4" kvg:element="貝" kvg:position="bottom" kvg:radical="tradit">
		<g id="kvg:08ce3-g5" kvg:element="目" kvg:position="top">
			<path style="stroke: #099abf;" id="kvg:08ce3-s9" kvg:type="㇑" d="M36.31,54.7c0.55,1.08,1.35,1.88,1.35,3.32s0.25,21.46-0.4,27.49"/>
			<path style="stroke: #0952bf;" id="kvg:08ce3-s10" kvg:type="㇕a" d="M38.58,55.94c3.12-0.18,26.86-2.98,29.69-3.2c2.37-0.18,3.63,0.99,3.63,2.34c0,3.29-0.7,27.22-0.7,28.3"/>
			<path style="stroke: #0909bf;" id="kvg:08ce3-s11" kvg:type="㇐a" d="M37.72,64.65c5.83-0.41,28.41-2.92,33.41-2.92"/>
			<path style="stroke: #5209bf;" id="kvg:08ce3-s12" kvg:type="㇐a" d="M37.98,73.3c8.79-0.79,23.87-2.4,33.19-2.56"/>
			<path style="stroke: #9a09bf;" id="kvg:08ce3-s13" kvg:type="㇐a" d="M37.58,83.68c8.79-0.59,25.58-2.16,33.59-2.16"/>
		</g>
		<g id="kvg:08ce3-g6" kvg:position="bottom">
			<path style="stroke: #bf099a;" id="kvg:08ce3-s14" kvg:type="㇒" d="M43.48,87.12c0.56,1.08-0.43,2.13-1.54,2.91c-3.37,2.37-12.22,7.42-18.97,10.21"/>
			<path style="stroke: #bf0952;" id="kvg:08ce3-s15" kvg:type="㇔" d="M62.16,87.22c8.34,3.28,16.78,10.35,18.88,13.58"/>
		</g>
	</g>
</g>
</g>
<g id="kvg:StrokeNumbers_08ce3" style="font-size:8;fill:#808080" transform="scale(3.0,3.0)">
	<text style="fill: #bf0909;" transform="matrix(1 0 0 1 21.25 16.63)">1</text>
	<text style="fill: #bf5209;" transform="matrix(1 0 0 1 44.50 9.50)">2</text>
	<text style="fill: #bf9a09;" transform="matrix(1 0 0 1 28.50 27.50)">3</text>
	<text style="fill: #9abf09;" transform="matrix(1 0 0 1 18.25 43.40)">4</text>
	<text style="fill: #52bf09;" transform="matrix(1 0 0 1 25.50 34.50)">5</text>
	<text style="fill: #09bf09;" transform="matrix(1 0 0 1 37.50 42.50)">6</text>
	<text style="fill: #09bf52;" transform="matrix(1 0 0 1 57.25 41.50)">7</text>
	<text style="fill: #09bf9a;" transform="matrix(1 0 0 1 30.50 45.10)">8</text>
	<text style="fill: #099abf;" transform="matrix(1 0 0 1 29.50 60.50)">9</text>
	<text style="fill: #0952bf;" transform="matrix(1 0 0 1 39.50 53.50)">10</text>
	<text style="fill: #0909bf;" transform="matrix(1 0 0 1 41.50 62.88)">11</text>
	<text style="fill: #5209bf;" transform="matrix(1 0 0 1 41.50 70.50)">12</text>
	<text style="fill: #9a09bf;" transform="matrix(1 0 0 1 41.50 80.50)">13</text>
	<text style="fill: #bf099a;" transform="matrix(1 0 0 1 28.50 91.50)">14</text>
	<text style="fill: #bf0952;" transform="matrix(1 0 0 1 53.50 94.50)">15</text>
</g>
</svg>
