<?xml version="1.0" encoding="UTF-8"?>
<!--
This file has been modified from the original version by the kanji_colorize.py
script (available at http://github.com/cayennes/kanji-colorize) with these
settings:
    mode: spectrum
    saturation: 0.95
    value: 0.75
    image_size: 327
It remains under a Creative Commons-Attribution-Share Alike 3.0 License.

The original SVG has the following copyright:

Copyright (C) 2009/2010/2011 Ulrich Apel.
This work is distributed under the conditions of the Creative Commons
Attribution-Share Alike 3.0 Licence. This means you are free:
* to Share - to copy, distribute and transmit the work
* to Remix - to adapt the work

Under the following conditions:
* Attribution. You must attribute the work by stating your use of KanjiVG in
  your own copyright header and linking to KanjiVG's website
  (http://kanjivg.tagaini.net)
* Share Alike. If you alter, transform, or build upon this work, you may
  distribute the resulting work only under the same or similar license to this
  one.

See http://creativecommons.org/licenses/by-sa/3.0/ for more details.
-->
<!DOCTYPE svg PUBLIC "-//W3C//DTD SVG 1.0//EN" "http://www.w3.org/TR/2001/REC-SVG-20010904/DTD/svg10.dtd" [
<!ATTLIST g
xmlns:kvg CDATA #FIXED "http://kanjivg.tagaini.net"
kvg:element CDATA #IMPLIED
kvg:variant CDATA #IMPLIED
kvg:partial CDATA #IMPLIED
kvg:original CDATA #IMPLIED
kvg:part CDATA #IMPLIED
kvg:number CDATA #IMPLIED
kvg:tradForm CDATA #IMPLIED
kvg:radicalForm CDATA #IMPLIED
kvg:position CDATA #IMPLIED
kvg:radical CDATA #IMPLIED
kvg:phon CDATA #IMPLIED >
<!ATTLIST path
xmlns:kvg CDATA #FIXED "http://kanjivg.tagaini.net"
kvg:type CDATA #IMPLIED >
]>
<svg xmlns="http://www.w3.org/2000/svg" width="327" height = "327" viewBox="0 0 327 327">
<g id="kvg:StrokePaths_08e49" style="fill:none;stroke:#000000;stroke-width:3;stroke-linecap:round;stroke-linejoin:round;" transform="scale(3.0,3.0)">
<g id="kvg:08e49" kvg:element="蹉">
	<g id="kvg:08e49-g1" kvg:element="足" kvg:position="left" kvg:radical="general">
		<g id="kvg:08e49-g2" kvg:element="口">
			<path style="stroke: #bf0909;" id="kvg:08e49-s1" kvg:type="㇑" d="M14.78,19.21c0.37,0.32,0.75,0.58,0.91,0.97c1.28,3.13,2.35,14.2,3.23,19.82"/>
			<path style="stroke: #bf4909;" id="kvg:08e49-s2" kvg:type="㇕b" d="M16.61,20.9c8.39-1.65,16.79-3,21.13-3.41c1.58-0.15,2.54,0.89,2.31,1.77c-1.04,4.06-2.15,11.35-3.43,16"/>
			<path style="stroke: #bf8909;" id="kvg:08e49-s3" kvg:type="㇐b" d="M19.56,37.69c5.09-0.46,11.65-0.84,18.64-1.55"/>
		</g>
		<path style="stroke: #b4bf09;" id="kvg:08e49-s4" kvg:type="㇑a" d="M27.37,39.24c1.09,0.5,1.96,2.23,1.96,3.25c0,5.51,0.28,28.01,0.28,38"/>
		<path style="stroke: #74bf09;" id="kvg:08e49-s5" kvg:type="㇐b" d="M29.88,57.74c3.37-0.49,5.87-1.24,9.35-1.5c1.74-0.13,2.18-0.25,3.26,0"/>
		<path style="stroke: #34bf09;" id="kvg:08e49-s6" kvg:type="㇒" d="M15.87,52.49c1.09,0.5,1.74,2.25,1.96,3.25c0.22,1,0.42,20.01,0.42,31.76"/>
		<path style="stroke: #09bf1e;" id="kvg:08e49-s7" kvg:type="㇀/㇏" d="M12,89.07c0.34,0.8,2.87,0.85,3.7,0.4C23.91,85,31.44,79.5,40.5,74.49"/>
	</g>
	<g id="kvg:08e49-g3" kvg:element="差" kvg:position="right">
		<g id="kvg:08e49-g4" kvg:element="羊" kvg:variant="true">
			<path style="stroke: #09bf5f;" id="kvg:08e49-s8" kvg:type="㇔" d="M55.7,14.08c2.88,1.74,7.46,7.16,8.18,9.87"/>
			<path style="stroke: #09bf9f;" id="kvg:08e49-s9" kvg:type="㇒" d="M83.07,12.52c0.02,0.29,0.05,0.74-0.05,1.15c-0.54,2.42-3.68,7.73-7.98,10.98"/>
			<path style="stroke: #099fbf;" id="kvg:08e49-s10" kvg:type="㇐" d="M50.88,28.68c0.81,0.34,3.79,0.34,4.61,0.34c4.76,0,23.26-1.77,31.17-2.68c1.34-0.16,3.66,0.16,4.34,0.33"/>
			<path style="stroke: #095fbf;" id="kvg:08e49-s11" kvg:type="㇑a" d="M68.57,28.93c1.08,0.45,1.73,2.01,1.94,2.9s0.5,14.86,0.28,20.43"/>
			<path style="stroke: #091ebf;" id="kvg:08e49-s12" kvg:type="㇐" d="M52.34,40.72c1.02,0.34,2.88,0.38,3.91,0.34c8.44-0.31,17.63-2.81,29.19-2.96c1.7-0.02,2.72,0.16,3.57,0.33"/>
			<path style="stroke: #3409bf;" id="kvg:08e49-s13" kvg:type="㇐" d="M45.52,53.37c1.31,0.48,3.71,0.55,5.02,0.48c7.28-0.35,29.09-2.35,42.87-2.66c2.18-0.05,3.5,0.23,4.59,0.47"/>
		</g>
		<g id="kvg:08e49-g5" kvg:element="丿">
			<path style="stroke: #7409bf;" id="kvg:08e49-s14" kvg:type="㇒" d="M59.73,56.02c0.07,0.81,0.27,2.19-0.14,3.27c-3.02,7.89-10.71,20.72-24.27,30.61"/>
		</g>
		<g id="kvg:08e49-g6" kvg:element="工">
			<path style="stroke: #b409bf;" id="kvg:08e49-s15" kvg:type="㇐" d="M57.78,69.86c0.78,0.45,3.34,0.6,4.13,0.46c3.69-0.61,18.99-2.15,25.19-2.62c1.21-0.09,2.31,0.09,3.31,0.47"/>
			<path style="stroke: #bf0989;" id="kvg:08e49-s16" kvg:type="㇑a" d="M71.03,72.04c0.83,1.09,0.83,1.75,0.83,2.62c0,6.11,0,11.3-0.21,17.41"/>
			<path style="stroke: #bf0949;" id="kvg:08e49-s17" kvg:type="㇐" d="M49.25,92.82c0.76,0.28,3.05,0.62,4.34,0.5C69,92,79.82,91.76,92.42,91.35c2.07-0.07,4.55,0.46,5.58,0.9"/>
		</g>
	</g>
</g>
</g>
<g id="kvg:StrokeNumbers_08e49" style="font-size:8;fill:#808080" transform="scale(3.0,3.0)">
	<text style="fill: #bf0909;" transform="matrix(1 0 0 1 9.85 26.50)">1</text>
	<text style="fill: #bf4909;" transform="matrix(1 0 0 1 18.50 16.50)">2</text>
	<text style="fill: #bf8909;" transform="matrix(1 0 0 1 21.71 34.50)">3</text>
	<text style="fill: #b4bf09;" transform="matrix(1 0 0 1 22.54 47.50)">4</text>
	<text style="fill: #74bf09;" transform="matrix(1 0 0 1 32.50 53.50)">5</text>
	<text style="fill: #34bf09;" transform="matrix(1 0 0 1 7.50 52.50)">6</text>
	<text style="fill: #09bf1e;" transform="matrix(1 0 0 1 4.50 90.50)">7</text>
	<text style="fill: #09bf5f;" transform="matrix(1 0 0 1 48.50 14.50)">8</text>
	<text style="fill: #09bf9f;" transform="matrix(1 0 0 1 75.50 11.50)">9</text>
	<text style="fill: #099fbf;" transform="matrix(1 0 0 1 47.50 25.50)">10</text>
	<text style="fill: #095fbf;" transform="matrix(1 0 0 1 62.50 36.88)">11</text>
	<text style="fill: #091ebf;" transform="matrix(1 0 0 1 48.50 37.50)">12</text>
	<text style="fill: #3409bf;" transform="matrix(1 0 0 1 44.50 50.50)">13</text>
	<text style="fill: #7409bf;" transform="matrix(1 0 0 1 48.50 62.50)">14</text>
	<text style="fill: #b409bf;" transform="matrix(1 0 0 1 61.50 67.50)">15</text>
	<text style="fill: #bf0989;" transform="matrix(1 0 0 1 61.50 79.50)">16</text>
	<text style="fill: #bf0949;" transform="matrix(1 0 0 1 47.50 89.50)">17</text>
</g>
</svg>
