<?xml version="1.0" encoding="UTF-8"?>
<!--
This file has been modified from the original version by the kanji_colorize.py
script (available at http://github.com/cayennes/kanji-colorize) with these
settings:
    mode: spectrum
    saturation: 0.95
    value: 0.75
    image_size: 327
It remains under a Creative Commons-Attribution-Share Alike 3.0 License.

The original SVG has the following copyright:

Copyright (C) 2009/2010/2011 Ulrich Apel.
This work is distributed under the conditions of the Creative Commons
Attribution-Share Alike 3.0 Licence. This means you are free:
* to Share - to copy, distribute and transmit the work
* to Remix - to adapt the work

Under the following conditions:
* Attribution. You must attribute the work by stating your use of KanjiVG in
  your own copyright header and linking to KanjiVG's website
  (http://kanjivg.tagaini.net)
* Share Alike. If you alter, transform, or build upon this work, you may
  distribute the resulting work only under the same or similar license to this
  one.

See http://creativecommons.org/licenses/by-sa/3.0/ for more details.
-->
<!DOCTYPE svg PUBLIC "-//W3C//DTD SVG 1.0//EN" "http://www.w3.org/TR/2001/REC-SVG-20010904/DTD/svg10.dtd" [
<!ATTLIST g
xmlns:kvg CDATA #FIXED "http://kanjivg.tagaini.net"
kvg:element CDATA #IMPLIED
kvg:variant CDATA #IMPLIED
kvg:partial CDATA #IMPLIED
kvg:original CDATA #IMPLIED
kvg:part CDATA #IMPLIED
kvg:number CDATA #IMPLIED
kvg:tradForm CDATA #IMPLIED
kvg:radicalForm CDATA #IMPLIED
kvg:position CDATA #IMPLIED
kvg:radical CDATA #IMPLIED
kvg:phon CDATA #IMPLIED >
<!ATTLIST path
xmlns:kvg CDATA #FIXED "http://kanjivg.tagaini.net"
kvg:type CDATA #IMPLIED >
]>
<svg xmlns="http://www.w3.org/2000/svg" width="327" height = "327" viewBox="0 0 327 327">
<g id="kvg:StrokePaths_08e50" style="fill:none;stroke:#000000;stroke-width:3;stroke-linecap:round;stroke-linejoin:round;" transform="scale(3.0,3.0)">
<g id="kvg:08e50" kvg:element="蹐">
	<g id="kvg:08e50-g1" kvg:element="足" kvg:position="left" kvg:radical="general">
		<g id="kvg:08e50-g2" kvg:element="口">
			<path style="stroke: #bf0909;" id="kvg:08e50-s1" kvg:type="㇑" d="M13.28,20.21c0.37,0.32,0.75,0.58,0.91,0.97c1.28,3.13,2.85,15.7,3.73,21.32"/>
			<path style="stroke: #bf4909;" id="kvg:08e50-s2" kvg:type="㇕b" d="M15.11,21.9c8.76-1.68,16.79-3,21.13-3.41c1.58-0.15,2.54,0.89,2.31,1.77c-1.04,4.06-2.15,12.35-3.43,17"/>
			<path style="stroke: #bf8909;" id="kvg:08e50-s3" kvg:type="㇐b" d="M18.56,40.19c5.09-0.46,12.65-1.34,19.64-2.05"/>
		</g>
		<path style="stroke: #b4bf09;" id="kvg:08e50-s4" kvg:type="㇑a" d="M26.37,41.24c1.09,0.5,1.96,2.23,1.96,3.25c0,5.51,0.28,28.01,0.28,38"/>
		<path style="stroke: #74bf09;" id="kvg:08e50-s5" kvg:type="㇐b" d="M28.38,58.24c3.37-0.49,5.87-1.24,9.35-1.5c1.74-0.13,2.18-0.25,3.26,0"/>
		<path style="stroke: #34bf09;" id="kvg:08e50-s6" kvg:type="㇒" d="M15.87,54.49c1.09,0.5,1.74,2.25,1.96,3.25c0.22,1,0.42,19.01,0.42,30.76"/>
		<path style="stroke: #09bf1e;" id="kvg:08e50-s7" kvg:type="㇀/㇏" d="M11.5,90.6c0.34,0.77,2.87,0.82,3.7,0.38c8.21-4.32,16.24-9.15,25.3-13.99"/>
	</g>
	<g id="kvg:08e50-g3" kvg:element="脊" kvg:position="right">
		<g id="kvg:08e50-g4" kvg:position="top">
			<g id="kvg:08e50-g5" kvg:element="人">
				<path style="stroke: #09bf5f;" id="kvg:08e50-s8" kvg:type="㇒" d="M67.96,14.25c0.17,1.17,0.34,2.73,0.19,4.28C66.5,35.25,62,52,43,60"/>
				<path style="stroke: #09bf9f;" id="kvg:08e50-s9" kvg:type="㇏" d="M66.5,30.5c5.5,3,20.52,19.07,24.88,22.35c1.48,1.11,3.88,1.59,5.37,1.9"/>
			</g>
			<g id="kvg:08e50-g6" kvg:element="二">
				<g id="kvg:08e50-g7" kvg:position="top">
					<path style="stroke: #099fbf;" id="kvg:08e50-s10" kvg:type="㇐" d="M45.94,24.35c0.52,0.13,1.48,0.12,2.01,0.13c4.97,0.02,8.87-1.44,12.1-1.3c0.87,0.04,1.4,0.06,1.83,0.12"/>
				</g>
				<g id="kvg:08e50-g8" kvg:position="bottom">
					<path style="stroke: #095fbf;" id="kvg:08e50-s11" kvg:type="㇐" d="M44.38,35.06c0.58,0.17,1.63,0.16,2.21,0.17c5.45,0.03,8.24-1.24,11.79-1.04c0.96,0.05,1.54,0.08,2.01,0.16"/>
				</g>
			</g>
			<g id="kvg:08e50-g9" kvg:element="二">
				<g id="kvg:08e50-g10" kvg:position="top">
					<path style="stroke: #091ebf;" id="kvg:08e50-s12" kvg:type="㇐" d="M75.12,22.1c0.67,0.13,1.91,0.12,2.58,0.13c6.37,0.02,9.05-1.44,13.2-1.3c1.12,0.04,1.79,0.06,2.36,0.12"/>
				</g>
				<g id="kvg:08e50-g11" kvg:position="bottom">
					<path style="stroke: #3409bf;" id="kvg:08e50-s13" kvg:type="㇐" d="M76.46,32.85c0.67,0.13,1.9,0.12,2.58,0.13c6.37,0.02,8.97-1.44,13.12-1.3c1.12,0.04,1.8,0.06,2.35,0.12"/>
				</g>
			</g>
		</g>
		<g id="kvg:08e50-g12" kvg:element="月" kvg:position="bottom">
			<path style="stroke: #7409bf;" id="kvg:08e50-s14" kvg:type="㇒" d="M54.64,55.7c0.56,0.8,0.93,1.61,1.11,2.41c0.19,0.8,0.26,37.93,0.19,39.74"/>
			<path style="stroke: #b409bf;" id="kvg:08e50-s15" kvg:type="㇆a" d="M56.37,57.81c2.22-0.2,22.17-3.09,23.82-3.32c2.97-0.4,4.08,2.61,3.71,3.82c-0.36,1.16-0.06,15.06-0.06,31.33c0,10.44-4.45,3.61-6.3,1.81"/>
			<path style="stroke: #bf0989;" id="kvg:08e50-s16" kvg:type="㇐a" d="M56.87,67.77c6.02-0.77,20.06-2.01,26.73-2.62"/>
			<path style="stroke: #bf0949;" id="kvg:08e50-s17" kvg:type="㇐a" d="M56.5,79.14c5.93-0.6,19.79-1.91,26.65-2.31"/>
		</g>
	</g>
</g>
</g>
<g id="kvg:StrokeNumbers_08e50" style="font-size:8;fill:#808080" transform="scale(3.0,3.0)">
	<text style="fill: #bf0909;" transform="matrix(1 0 0 1 7.50 27.50)">1</text>
	<text style="fill: #bf4909;" transform="matrix(1 0 0 1 17.50 18.50)">2</text>
	<text style="fill: #bf8909;" transform="matrix(1 0 0 1 20.50 37.50)">3</text>
	<text style="fill: #b4bf09;" transform="matrix(1 0 0 1 21.50 48.50)">4</text>
	<text style="fill: #74bf09;" transform="matrix(1 0 0 1 31.50 54.50)">5</text>
	<text style="fill: #34bf09;" transform="matrix(1 0 0 1 8.58 55.50)">6</text>
	<text style="fill: #09bf1e;" transform="matrix(1 0 0 1 4.50 93.50)">7</text>
	<text style="fill: #09bf5f;" transform="matrix(1 0 0 1 61.25 10.80)">8</text>
	<text style="fill: #09bf9f;" transform="matrix(1 0 0 1 82.25 41.50)">9</text>
	<text style="fill: #099fbf;" transform="matrix(1 0 0 1 43.50 21.50)">10</text>
	<text style="fill: #095fbf;" transform="matrix(1 0 0 1 42.50 32.50)">11</text>
	<text style="fill: #091ebf;" transform="matrix(1 0 0 1 72.50 18.50)">12</text>
	<text style="fill: #3409bf;" transform="matrix(1 0 0 1 73.50 30.50)">13</text>
	<text style="fill: #7409bf;" transform="matrix(1 0 0 1 45.50 67.50)">14</text>
	<text style="fill: #b409bf;" transform="matrix(1 0 0 1 61.50 53.50)">15</text>
	<text style="fill: #bf0989;" transform="matrix(1 0 0 1 59.46 64.50)">16</text>
	<text style="fill: #bf0949;" transform="matrix(1 0 0 1 59.50 75.50)">17</text>
</g>
</svg>
