<?xml version="1.0" encoding="UTF-8"?>
<!--
This file has been modified from the original version by the kanji_colorize.py
script (available at http://github.com/cayennes/kanji-colorize) with these
settings:
    mode: spectrum
    saturation: 0.95
    value: 0.75
    image_size: 327
It remains under a Creative Commons-Attribution-Share Alike 3.0 License.

The original SVG has the following copyright:

Copyright (C) 2009/2010/2011 Ulrich Apel.
This work is distributed under the conditions of the Creative Commons
Attribution-Share Alike 3.0 Licence. This means you are free:
* to Share - to copy, distribute and transmit the work
* to Remix - to adapt the work

Under the following conditions:
* Attribution. You must attribute the work by stating your use of KanjiVG in
  your own copyright header and linking to KanjiVG's website
  (http://kanjivg.tagaini.net)
* Share Alike. If you alter, transform, or build upon this work, you may
  distribute the resulting work only under the same or similar license to this
  one.

See http://creativecommons.org/licenses/by-sa/3.0/ for more details.
-->
<!DOCTYPE svg PUBLIC "-//W3C//DTD SVG 1.0//EN" "http://www.w3.org/TR/2001/REC-SVG-20010904/DTD/svg10.dtd" [
<!ATTLIST g
xmlns:kvg CDATA #FIXED "http://kanjivg.tagaini.net"
kvg:element CDATA #IMPLIED
kvg:variant CDATA #IMPLIED
kvg:partial CDATA #IMPLIED
kvg:original CDATA #IMPLIED
kvg:part CDATA #IMPLIED
kvg:number CDATA #IMPLIED
kvg:tradForm CDATA #IMPLIED
kvg:radicalForm CDATA #IMPLIED
kvg:position CDATA #IMPLIED
kvg:radical CDATA #IMPLIED
kvg:phon CDATA #IMPLIED >
<!ATTLIST path
xmlns:kvg CDATA #FIXED "http://kanjivg.tagaini.net"
kvg:type CDATA #IMPLIED >
]>
<svg xmlns="http://www.w3.org/2000/svg" width="327" height = "327" viewBox="0 0 327 327">
<g id="kvg:StrokePaths_08e72" style="fill:none;stroke:#000000;stroke-width:3;stroke-linecap:round;stroke-linejoin:round;" transform="scale(3.0,3.0)">
<g id="kvg:08e72" kvg:element="蹲">
	<g id="kvg:08e72-g1" kvg:element="足" kvg:position="left" kvg:radical="general">
		<g id="kvg:08e72-g2" kvg:element="口">
			<path style="stroke: #bf0909;" id="kvg:08e72-s1" kvg:type="㇑" d="M12.28,18.64c0.37,0.39,0.75,0.72,0.91,1.22c1.28,3.9,2.85,15.21,3.73,22.22"/>
			<path style="stroke: #bf4209;" id="kvg:08e72-s2" kvg:type="㇕b" d="M14.11,20.75c8.76-2.1,17.29-3.75,21.63-4.26c1.58-0.19,2.54,1.11,2.31,2.21C37,23.77,35.9,30.35,34.62,36.15"/>
			<path style="stroke: #bf7c09;" id="kvg:08e72-s3" kvg:type="㇐b" d="M17.56,39.73c5.09-0.58,11.65-1.58,18.64-2.47"/>
		</g>
		<path style="stroke: #bfb509;" id="kvg:08e72-s4" kvg:type="㇑a" d="M26.37,41.26c1.09,0.54,1.74,2.42,1.96,3.5c0.22,1.08,0,34.04-0.22,40.77"/>
		<path style="stroke: #8fbf09;" id="kvg:08e72-s5" kvg:type="㇐b" d="M28.88,57.8c3.37-0.53,6.37-1.34,9.85-1.62c1.74-0.14,2.18-0.27,3.26,0"/>
		<path style="stroke: #56bf09;" id="kvg:08e72-s6" kvg:type="㇒" d="M15.87,56.23c1.09,0.54,1.74,2.42,1.96,3.5c0.22,1.08-0.33,18.71,0.42,30.29"/>
		<path style="stroke: #1cbf09;" id="kvg:08e72-s7" kvg:type="㇀/㇏" d="M10.25,91.04c0.35,0.68,2.97,1.58,3.83,1.19c8.49-3.82,16.8-8.09,26.17-12.37"/>
	</g>
	<g id="kvg:08e72-g3" kvg:element="尊" kvg:variant="true" kvg:position="right">
		<g id="kvg:08e72-g4" kvg:element="酋" kvg:variant="true" kvg:position="top">
			<g id="kvg:08e72-g5" kvg:element="八" kvg:position="top">
				<g id="kvg:08e72-g6" kvg:position="left">
					<path style="stroke: #09bf2f;" id="kvg:08e72-s8" kvg:type="㇒" d="M57.14,13.15c0.04,0.39,0.07,1.02-0.07,1.58c-0.85,3.34-5.73,10.66-12.4,15.14"/>
				</g>
				<g id="kvg:08e72-g7" kvg:position="right">
					<path style="stroke: #09bf69;" id="kvg:08e72-s9" kvg:type="㇏" d="M67.75,10.5c4.75,1,19.45,16.49,23.16,19.18c1.26,0.91,2.33,1.31,3.59,1.57"/>
				</g>
			</g>
			<g id="kvg:08e72-g8" kvg:element="酉" kvg:position="bottom">
				<g id="kvg:08e72-g9" kvg:element="西" kvg:part="1" kvg:original="襾">
					<path style="stroke: #09bfa2;" id="kvg:08e72-s10" kvg:type="㇐" d="M52.93,27.88c0.8,0.48,2.26,0.59,3.07,0.48c7.11-0.97,15.99-2.61,20.4-2.87c1.33-0.08,2.14,0.23,2.81,0.47"/>
					<path style="stroke: #09a2bf;" id="kvg:08e72-s11" kvg:type="㇑" d="M50.33,36.58c0.44,0.71,0.6,2.42,0.6,3.36s0.03,25.37,0.03,25.64"/>
					<path style="stroke: #0969bf;" id="kvg:08e72-s12" kvg:type="㇕a" d="M52.58,38.05c2.48-0.12,26.27-3.82,28.38-3.91c1.75-0.07,2.67,1.17,2.67,2.73c0,0.87-0.71,20.29-0.7,26.34"/>
					<path style="stroke: #092fbf;" id="kvg:08e72-s13" kvg:type="㇒" d="M61.28,30.39c0.35,0.72,0.89,1.34,0.8,2.11C61.25,40,58.75,46,53.57,49.74"/>
					<path style="stroke: #1c09bf;" id="kvg:08e72-s14" kvg:type="㇟a" d="M68.46,28.29c0.38,0.68,0.68,1.49,0.7,2.54c0.07,3.35-0.17,6.85-0.2,10.98c-0.03,3.59,1.06,4.03,4.67,4.03c2.29,0,4.56-0.45,4.82-0.85"/>
				</g>
				<g id="kvg:08e72-g10" kvg:element="一">
					<path style="stroke: #5609bf;" id="kvg:08e72-s15" kvg:type="㇐a" d="M51.36,55.54c3.13,0,27.74-2.71,31.27-2.71"/>
				</g>
				<g id="kvg:08e72-g11" kvg:element="西" kvg:part="2" kvg:original="襾">
					<path style="stroke: #8f09bf;" id="kvg:08e72-s16" kvg:type="㇐a" d="M51.86,63.04c6.37-0.3,23.01-1.81,30.94-2.07"/>
				</g>
			</g>
		</g>
		<g id="kvg:08e72-g12" kvg:element="寸" kvg:position="bottom">
			<path style="stroke: #bf09b5;" id="kvg:08e72-s17" kvg:type="㇐" d="M41.63,72.21c1.34,0.7,3.78,0.87,5.13,0.7C61.5,71,76.5,69.75,91.19,68.81c2.23-0.14,4.57,0.33,5.69,0.68"/>
			<path style="stroke: #bf097c;" id="kvg:08e72-s18" kvg:type="㇚" d="M74.88,63.49c0.05,0.38,1.24,1.96,1.24,4.35c0,8.32,0.22,19.95,0.22,23.85c0,9.48-5.43,1.41-6.73,0.2"/>
			<path style="stroke: #bf0942;" id="kvg:08e72-s19" kvg:type="㇔" d="M53.86,78.23c2.15,1.86,5.56,7.66,6.09,10.56"/>
		</g>
	</g>
</g>
</g>
<g id="kvg:StrokeNumbers_08e72" style="font-size:8;fill:#808080" transform="scale(3.0,3.0)">
	<text style="fill: #bf0909;" transform="matrix(1 0 0 1 7.50 27.50)">1</text>
	<text style="fill: #bf4209;" transform="matrix(1 0 0 1 15.50 16.50)">2</text>
	<text style="fill: #bf7c09;" transform="matrix(1 0 0 1 20.50 35.50)">3</text>
	<text style="fill: #bfb509;" transform="matrix(1 0 0 1 20.50 49.50)">4</text>
	<text style="fill: #8fbf09;" transform="matrix(1 0 0 1 31.50 53.50)">5</text>
	<text style="fill: #56bf09;" transform="matrix(1 0 0 1 7.50 56.50)">6</text>
	<text style="fill: #1cbf09;" transform="matrix(1 0 0 1 4.50 91.50)">7</text>
	<text style="fill: #09bf2f;" transform="matrix(1 0 0 1 49.50 13.50)">8</text>
	<text style="fill: #09bf69;" transform="matrix(1 0 0 1 62.50 10.50)">9</text>
	<text style="fill: #09bfa2;" transform="matrix(1 0 0 1 58.50 24.50)">10</text>
	<text style="fill: #09a2bf;" transform="matrix(1 0 0 1 41.25 43.50)">11</text>
	<text style="fill: #0969bf;" transform="matrix(1 0 0 1 47.25 35.50)">12</text>
	<text style="fill: #092fbf;" transform="matrix(1 0 0 1 53.50 35.50)">13</text>
	<text style="fill: #1c09bf;" transform="matrix(1 0 0 1 72.00 33.00)">14</text>
	<text style="fill: #5609bf;" transform="matrix(1 0 0 1 57.50 52.50)">15</text>
	<text style="fill: #8f09bf;" transform="matrix(1 0 0 1 56.25 61.50)">16</text>
	<text style="fill: #bf09b5;" transform="matrix(1 0 0 1 38.25 69.50)">17</text>
	<text style="fill: #bf097c;" transform="matrix(1 0 0 1 64.50 68.50)">18</text>
	<text style="fill: #bf0942;" transform="matrix(1 0 0 1 45.50 85.50)">19</text>
</g>
</svg>
