<?xml version="1.0" encoding="UTF-8"?>
<!--
This file has been modified from the original version by the kanji_colorize.py
script (available at http://github.com/cayennes/kanji-colorize) with these
settings:
    mode: spectrum
    saturation: 0.95
    value: 0.75
    image_size: 327
It remains under a Creative Commons-Attribution-Share Alike 3.0 License.

The original SVG has the following copyright:

Copyright (C) 2009/2010/2011 Ulrich Apel.
This work is distributed under the conditions of the Creative Commons
Attribution-Share Alike 3.0 Licence. This means you are free:
* to Share - to copy, distribute and transmit the work
* to Remix - to adapt the work

Under the following conditions:
* Attribution. You must attribute the work by stating your use of KanjiVG in
  your own copyright header and linking to KanjiVG's website
  (http://kanjivg.tagaini.net)
* Share Alike. If you alter, transform, or build upon this work, you may
  distribute the resulting work only under the same or similar license to this
  one.

See http://creativecommons.org/licenses/by-sa/3.0/ for more details.
-->
<!DOCTYPE svg PUBLIC "-//W3C//DTD SVG 1.0//EN" "http://www.w3.org/TR/2001/REC-SVG-20010904/DTD/svg10.dtd" [
<!ATTLIST g
xmlns:kvg CDATA #FIXED "http://kanjivg.tagaini.net"
kvg:element CDATA #IMPLIED
kvg:variant CDATA #IMPLIED
kvg:partial CDATA #IMPLIED
kvg:original CDATA #IMPLIED
kvg:part CDATA #IMPLIED
kvg:number CDATA #IMPLIED
kvg:tradForm CDATA #IMPLIED
kvg:radicalForm CDATA #IMPLIED
kvg:position CDATA #IMPLIED
kvg:radical CDATA #IMPLIED
kvg:phon CDATA #IMPLIED >
<!ATTLIST path
xmlns:kvg CDATA #FIXED "http://kanjivg.tagaini.net"
kvg:type CDATA #IMPLIED >
]>
<svg xmlns="http://www.w3.org/2000/svg" width="327" height = "327" viewBox="0 0 327 327">
<g id="kvg:StrokePaths_08ec5" style="fill:none;stroke:#000000;stroke-width:3;stroke-linecap:round;stroke-linejoin:round;" transform="scale(3.0,3.0)">
<g id="kvg:08ec5" kvg:element="軅">
	<g id="kvg:08ec5-g1" kvg:element="身" kvg:position="left" kvg:radical="tradit">
		<path style="stroke: #bf0909;" id="kvg:08ec5-s1" kvg:type="㇒" d="M29.63,11.39c0.01,0.25,0.27,1.36,0.22,1.72c-0.3,2.1-2.66,7.79-5.04,10.61"/>
		<path style="stroke: #bf4209;" id="kvg:08ec5-s2" kvg:type="㇑a" d="M18.67,25.25c0.59,0.5,0.95,2.25,1.07,3.25c0.12,1,0.27,29.25,0.15,35.5"/>
		<path style="stroke: #bf7c09;" id="kvg:08ec5-s3" kvg:type="㇆a" d="M19.64,26.96c2.39-0.62,11.76-1.97,13.73-1.98c1.65-0.01,2.05,0.75,2.05,2.97c0,9.17-0.3,53.69-0.3,61.91c0,11.63-3.11,6.63-8.95,2.09"/>
		<path style="stroke: #bfb509;" id="kvg:08ec5-s4" kvg:type="㇐a" d="M19.88,38.89c3.45-0.44,13.72-1.42,15.33-1.53"/>
		<path style="stroke: #8fbf09;" id="kvg:08ec5-s5" kvg:type="㇐a" d="M20.28,49.64c4.22-0.38,9.52-0.84,14.42-1.03"/>
		<path style="stroke: #56bf09;" id="kvg:08ec5-s6" kvg:type="㇀" d="M11.66,65.35c0.63,0.88,1.73,1.18,3.61,0.44c3.84-1.5,12.62-4.87,17.04-6.79"/>
		<path style="stroke: #1cbf09;" id="kvg:08ec5-s7" kvg:type="㇒" d="M41.62,49c0.25,0.87,0.69,2.38,0,3.81C36.85,62.67,20.19,79.98,10.03,85"/>
	</g>
	<g id="kvg:08ec5-g2" kvg:element="雁" kvg:position="right">
		<g id="kvg:08ec5-g3" kvg:element="厂" kvg:position="tare">
			<path style="stroke: #09bf2f;" id="kvg:08ec5-s8" kvg:type="㇐" d="M47.96,21.03c1.09,0.22,3.1,0.25,4.19,0.22c11.39-0.36,27.2-2.3,41.48-2.39c1.82-0.01,2.92,0.1,3.83,0.21"/>
			<path style="stroke: #09bf69;" id="kvg:08ec5-s9" kvg:type="㇒" d="M52.08,22.16C52.11,23.8,52,26.37,52,28.73c0,26.76-4.52,51.73-12.2,62.37"/>
		</g>
		<g id="kvg:08ec5-g4" kvg:element="亻" kvg:variant="true" kvg:original="人" kvg:position="left">
			<path style="stroke: #09bfa2;" id="kvg:08ec5-s10" kvg:type="㇒" d="M66.95,29.14c0.09,0.77,0.16,1.75-0.08,2.7c-1.5,6.02-7.28,17.65-14.26,25.81"/>
			<path style="stroke: #09a2bf;" id="kvg:08ec5-s11" kvg:type="㇑" d="M59.57,51.54c0.42,0.49,0.54,1.59,0.54,2.6c0,10.49-0.21,33.83-0.21,40.88"/>
		</g>
		<g id="kvg:08ec5-g5" kvg:element="隹" kvg:position="right">
			<g id="kvg:08ec5-g6" kvg:element="亻" kvg:variant="true" kvg:original="人">
				<path style="stroke: #0969bf;" id="kvg:08ec5-s12" kvg:type="㇒" d="M77.63,29.7c0.12,1.37-0.03,3.16-0.41,4.33c-2.41,7.48-5.48,13.81-11.01,22.91"/>
				<path style="stroke: #092fbf;" id="kvg:08ec5-s13" kvg:type="㇑" d="M71.16,48.97c0.43,0.74,0.75,2.37,0.78,3.52c0.25,10.23-0.35,36.7-0.13,42.02"/>
			</g>
			<path style="stroke: #1c09bf;" id="kvg:08ec5-s14" kvg:type="㇒" d="M89.21,29.48c0.04,0.8-0.01,1.86-0.15,2.55c-0.88,4.4-2.01,7.79-4.04,13.14"/>
			<path style="stroke: #5609bf;" id="kvg:08ec5-s15" kvg:type="㇐b" d="M71.82,49.24c4.93-0.96,23.08-2.29,25.2-2.82"/>
			<path style="stroke: #8f09bf;" id="kvg:08ec5-s16" kvg:type="㇑a" d="M84.71,49.85c0.24,0.38,0.43,0.9,0.43,1.55c0,6.64,0.03,26.89-0.12,37.34"/>
			<path style="stroke: #bf09b5;" id="kvg:08ec5-s17" kvg:type="㇐b" d="M72.48,62.22c4.66-0.8,21.6-2.14,23.6-2.58"/>
			<path style="stroke: #bf097c;" id="kvg:08ec5-s18" kvg:type="㇐b" d="M71.92,75.17c4.91-0.67,22.35-2.04,24.46-2.41"/>
			<path style="stroke: #bf0942;" id="kvg:08ec5-s19" kvg:type="㇐b" d="M71.92,90.96c4.94-0.96,24.79-2.36,26.9-2.88"/>
		</g>
	</g>
</g>
</g>
<g id="kvg:StrokeNumbers_08ec5" style="font-size:8;fill:#808080" transform="scale(3.0,3.0)">
	<text style="fill: #bf0909;" transform="matrix(1 0 0 1 22.50 11.50)">1</text>
	<text style="fill: #bf4209;" transform="matrix(1 0 0 1 12.50 31.50)">2</text>
	<text style="fill: #bf7c09;" transform="matrix(1 0 0 1 19.50 23.85)">3</text>
	<text style="fill: #bfb509;" transform="matrix(1 0 0 1 23.50 36.50)">4</text>
	<text style="fill: #8fbf09;" transform="matrix(1 0 0 1 23.50 47.50)">5</text>
	<text style="fill: #56bf09;" transform="matrix(1 0 0 1 4.50 65.50)">6</text>
	<text style="fill: #1cbf09;" transform="matrix(1 0 0 1 38.50 46.35)">7</text>
	<text style="fill: #09bf2f;" transform="matrix(1 0 0 1 50.50 18.50)">8</text>
	<text style="fill: #09bf69;" transform="matrix(1 0 0 1 44.50 30.50)">9</text>
	<text style="fill: #09bfa2;" transform="matrix(1 0 0 1 56.50 30.50)">10</text>
	<text style="fill: #09a2bf;" transform="matrix(1 0 0 1 52.50 65.50)">11</text>
	<text style="fill: #0969bf;" transform="matrix(1 0 0 1 68.25 35.50)">12</text>
	<text style="fill: #092fbf;" transform="matrix(1 0 0 1 63.50 64.50)">13</text>
	<text style="fill: #1c09bf;" transform="matrix(1 0 0 1 79.50 29.65)">14</text>
	<text style="fill: #5609bf;" transform="matrix(1 0 0 1 76.50 46.50)">15</text>
	<text style="fill: #8f09bf;" transform="matrix(1 0 0 1 87.50 55.50)">16</text>
	<text style="fill: #bf09b5;" transform="matrix(1 0 0 1 74.50 59.50)">17</text>
	<text style="fill: #bf097c;" transform="matrix(1 0 0 1 74.50 71.50)">18</text>
	<text style="fill: #bf0942;" transform="matrix(1 0 0 1 74.50 86.50)">19</text>
</g>
</svg>
