<?xml version="1.0" encoding="UTF-8"?>
<!--
This file has been modified from the original version by the kanji_colorize.py
script (available at http://github.com/cayennes/kanji-colorize) with these
settings:
    mode: spectrum
    saturation: 0.95
    value: 0.75
    image_size: 327
It remains under a Creative Commons-Attribution-Share Alike 3.0 License.

The original SVG has the following copyright:

Copyright (C) 2009/2010/2011 Ulrich Apel.
This work is distributed under the conditions of the Creative Commons
Attribution-Share Alike 3.0 Licence. This means you are free:
* to Share - to copy, distribute and transmit the work
* to Remix - to adapt the work

Under the following conditions:
* Attribution. You must attribute the work by stating your use of KanjiVG in
  your own copyright header and linking to KanjiVG's website
  (http://kanjivg.tagaini.net)
* Share Alike. If you alter, transform, or build upon this work, you may
  distribute the resulting work only under the same or similar license to this
  one.

See http://creativecommons.org/licenses/by-sa/3.0/ for more details.
-->
<!DOCTYPE svg PUBLIC "-//W3C//DTD SVG 1.0//EN" "http://www.w3.org/TR/2001/REC-SVG-20010904/DTD/svg10.dtd" [
<!ATTLIST g
xmlns:kvg CDATA #FIXED "http://kanjivg.tagaini.net"
kvg:element CDATA #IMPLIED
kvg:variant CDATA #IMPLIED
kvg:partial CDATA #IMPLIED
kvg:original CDATA #IMPLIED
kvg:part CDATA #IMPLIED
kvg:number CDATA #IMPLIED
kvg:tradForm CDATA #IMPLIED
kvg:radicalForm CDATA #IMPLIED
kvg:position CDATA #IMPLIED
kvg:radical CDATA #IMPLIED
kvg:phon CDATA #IMPLIED >
<!ATTLIST path
xmlns:kvg CDATA #FIXED "http://kanjivg.tagaini.net"
kvg:type CDATA #IMPLIED >
]>
<svg xmlns="http://www.w3.org/2000/svg" width="327" height = "327" viewBox="0 0 327 327">
<g id="kvg:StrokePaths_08ecd" style="fill:none;stroke:#000000;stroke-width:3;stroke-linecap:round;stroke-linejoin:round;" transform="scale(3.0,3.0)">
<g id="kvg:08ecd" kvg:element="軍">
	<g id="kvg:08ecd-g1" kvg:element="冖" kvg:position="top" kvg:radical="nelson">
		<path style="stroke: #bf0909;" id="kvg:08ecd-s1" kvg:type="㇔" d="M23.04,16.47c-0.13,4.46-3.19,16.12-4.29,18.78"/>
		<path style="stroke: #bf8209;" id="kvg:08ecd-s2" kvg:type="㇖b" d="M24.08,18.83c10.17-1.45,43.09-4.17,58.76-4.83c11.91-0.5,1.6,8.57,0.13,9.97"/>
	</g>
	<g id="kvg:08ecd-g2" kvg:element="車" kvg:position="bottom" kvg:radical="tradit">
		<path style="stroke: #82bf09;" id="kvg:08ecd-s3" kvg:type="㇐" d="M32.89,30.7c2.12,0.82,4.7,0.29,6.88,0.07c8.06-0.82,18.34-2.19,27.37-2.79c2.36-0.16,4.66-0.37,6.98,0.17"/>
		<path style="stroke: #09bf09;" id="kvg:08ecd-s4" kvg:type="㇑" d="M28.32,40.89c0.77,0.77,1.47,2.12,1.62,2.77c0.88,4.03,1.73,12.72,2.86,20.73c0.19,1.37,0.4,2.72,0.61,4.02"/>
		<path style="stroke: #09bf82;" id="kvg:08ecd-s5" kvg:type="㇕a" d="M30.74,42.67C44.17,41.18,66.42,38.8,75,38.53c3.55-0.11,4.92,0.84,4.42,4.36c-0.64,4.54-2.14,11.5-4,18.09c-0.34,1.19-0.69,2.37-1.04,3.53"/>
		<path style="stroke: #0982bf;" id="kvg:08ecd-s6" kvg:type="㇐a" d="M32.71,53.94c10.54-1.06,27.91-2.56,44.27-3.17"/>
		<path style="stroke: #0909bf;" id="kvg:08ecd-s7" kvg:type="㇐a" d="M34.21,65.69c10.11-0.98,25.29-2.57,39.67-2.92"/>
		<path style="stroke: #8209bf;" id="kvg:08ecd-s8" kvg:type="㇐" d="M16,78.79c3.38,0.71,7.04,0.58,10.25,0.34c21.13-1.56,35.62-3.36,56.5-4.22c3.38-0.14,6.7-0.4,10,0.47"/>
		<path style="stroke: #bf0982;" id="kvg:08ecd-s9" kvg:type="㇑" d="M52.42,19.13c1.16,1.16,1.86,2.74,1.86,4.54c0,1.02-0.07,51.4-0.18,69.57c-0.02,2.83-0.04,4.9-0.06,5.88"/>
	</g>
</g>
</g>
<g id="kvg:StrokeNumbers_08ecd" style="font-size:8;fill:#808080" transform="scale(3.0,3.0)">
	<text style="fill: #bf0909;" transform="matrix(1 0 0 1 16.50 21.13)">1</text>
	<text style="fill: #bf8209;" transform="matrix(1 0 0 1 27.50 15.06)">2</text>
	<text style="fill: #82bf09;" transform="matrix(1 0 0 1 25.99 31.50)">3</text>
	<text style="fill: #09bf09;" transform="matrix(1 0 0 1 22.99 49.41)">4</text>
	<text style="fill: #09bf82;" transform="matrix(1 0 0 1 33.49 40.50)">5</text>
	<text style="fill: #0982bf;" transform="matrix(1 0 0 1 36.49 51.50)">6</text>
	<text style="fill: #0909bf;" transform="matrix(1 0 0 1 36.49 62.50)">7</text>
	<text style="fill: #8209bf;" transform="matrix(1 0 0 1 7.99 79.50)">8</text>
	<text style="fill: #bf0982;" transform="matrix(1 0 0 1 45.50 26.50)">9</text>
</g>
</svg>
