<?xml version="1.0" encoding="UTF-8"?>
<!--
This file has been modified from the original version by the kanji_colorize.py
script (available at http://github.com/cayennes/kanji-colorize) with these
settings:
    mode: spectrum
    saturation: 0.95
    value: 0.75
    image_size: 327
It remains under a Creative Commons-Attribution-Share Alike 3.0 License.

The original SVG has the following copyright:

Copyright (C) 2009/2010/2011 Ulrich Apel.
This work is distributed under the conditions of the Creative Commons
Attribution-Share Alike 3.0 Licence. This means you are free:
* to Share - to copy, distribute and transmit the work
* to Remix - to adapt the work

Under the following conditions:
* Attribution. You must attribute the work by stating your use of KanjiVG in
  your own copyright header and linking to KanjiVG's website
  (http://kanjivg.tagaini.net)
* Share Alike. If you alter, transform, or build upon this work, you may
  distribute the resulting work only under the same or similar license to this
  one.

See http://creativecommons.org/licenses/by-sa/3.0/ for more details.
-->
<!DOCTYPE svg PUBLIC "-//W3C//DTD SVG 1.0//EN" "http://www.w3.org/TR/2001/REC-SVG-20010904/DTD/svg10.dtd" [
<!ATTLIST g
xmlns:kvg CDATA #FIXED "http://kanjivg.tagaini.net"
kvg:element CDATA #IMPLIED
kvg:variant CDATA #IMPLIED
kvg:partial CDATA #IMPLIED
kvg:original CDATA #IMPLIED
kvg:part CDATA #IMPLIED
kvg:number CDATA #IMPLIED
kvg:tradForm CDATA #IMPLIED
kvg:radicalForm CDATA #IMPLIED
kvg:position CDATA #IMPLIED
kvg:radical CDATA #IMPLIED
kvg:phon CDATA #IMPLIED >
<!ATTLIST path
xmlns:kvg CDATA #FIXED "http://kanjivg.tagaini.net"
kvg:type CDATA #IMPLIED >
]>
<svg xmlns="http://www.w3.org/2000/svg" width="327" height = "327" viewBox="0 0 327 327">
<g id="kvg:StrokePaths_08f0c" style="fill:none;stroke:#000000;stroke-width:3;stroke-linecap:round;stroke-linejoin:round;" transform="scale(3.0,3.0)">
<g id="kvg:08f0c" kvg:element="輌">
	<g id="kvg:08f0c-g1" kvg:element="車" kvg:position="left" kvg:radical="tradit">
		<path style="stroke: #bf0909;" id="kvg:08f0c-s1" kvg:type="㇐" d="M10.25,27.5c1.03,0.38,2.93,0.95,3.96,0.88C23.75,27.75,26.75,27,35.39,26c1.71-0.2,2.75,0.18,3.61,0.37"/>
		<path style="stroke: #bf5d09;" id="kvg:08f0c-s2" kvg:type="㇑" d="M12.25,39.84c0.43,0.49,0.98,0.86,1.06,1.5c0.58,4.65,1.7,16.11,2.52,24.91"/>
		<path style="stroke: #bfb109;" id="kvg:08f0c-s3" kvg:type="㇕a" d="M13.91,41.6c6.57-0.93,17.96-2.72,22.45-2.86c1.86-0.06,2.24,1.27,2.16,2.73c-0.27,5.01-1.02,13.78-2.82,22.43"/>
		<path style="stroke: #79bf09;" id="kvg:08f0c-s4" kvg:type="㇐a" d="M14.87,52.21c6.75-0.67,16.44-1.59,23.07-2.12"/>
		<path style="stroke: #25bf09;" id="kvg:08f0c-s5" kvg:type="㇐a" d="M15.87,63.8c5.76-0.96,12.72-1.62,19.83-2.36"/>
		<path style="stroke: #09bf41;" id="kvg:08f0c-s6" kvg:type="㇐" d="M9.5,77.01c1.29,0.67,3.64,1.25,4.95,1.17c7.55-0.43,16.35-1.65,23.23-2.31c2.14-0.2,3.75-0.12,4.82,0.22"/>
		<path style="stroke: #09bf95;" id="kvg:08f0c-s7" kvg:type="㇑" d="M23.24,12.88c0.65,0.51,2.03,3.85,2.16,4.87c0.13,1.03-0.08,73.71-0.22,80.13"/>
	</g>
	<g id="kvg:08f0c-g2" kvg:element="両" kvg:position="right">
		<g id="kvg:08f0c-g3" kvg:element="一">
			<path style="stroke: #0995bf;" id="kvg:08f0c-s8" kvg:type="㇐" d="M43.46,18.39c1.52,0.36,4.32,0.42,5.85,0.36c8.22-0.33,27.19-2.5,40.25-3.49c2.53-0.19,4.07,0.17,5.34,0.35"/>
		</g>
		<g id="kvg:08f0c-g4" kvg:element="冂">
			<path style="stroke: #0941bf;" id="kvg:08f0c-s9" kvg:type="㇑" d="M47.27,36.65c0.96,0.85,1.28,2.17,1.28,3.74c0,11.86,0.24,51.56,0.24,54.11"/>
			<path style="stroke: #2509bf;" id="kvg:08f0c-s10" kvg:type="㇆a" d="M49.1,38.25c5.82-0.78,38.41-3.17,39.58-3.27c2.57-0.23,3.59,1.02,3.59,4.55c0,4.05-0.13,35.22-0.13,46.41C92.14,99,86,91,84.43,89.3"/>
		</g>
		<g id="kvg:08f0c-g5" kvg:element="山">
			<path style="stroke: #7909bf;" id="kvg:08f0c-s11" kvg:type="㇑a" d="M67.79,17c0.33,0.45,1.03,3.35,1.09,4.25c0.07,0.9,0.96,47.15,0.89,52.75"/>
			<path style="stroke: #bf09b1;" id="kvg:08f0c-s12" kvg:type="㇄a" d="M58.23,50.5c0.51,0.45,1.09,2.35,1.01,3.25c-0.33,4,0.15,11.25-0.6,19.5c-0.38,4.25,0.9,4.14,2.25,3.75c5.27-1.5,12.12-2.75,19.67-3.5"/>
			<path style="stroke: #bf095d;" id="kvg:08f0c-s13" kvg:type="㇑" d="M80.47,49.25c0.35,0.45,0.7,3.34,0.7,4.25c0,6.75-0.07,16.25-0.48,23"/>
		</g>
	</g>
</g>
</g>
<g id="kvg:StrokeNumbers_08f0c" style="font-size:8;fill:#808080" transform="scale(3.0,3.0)">
	<text style="fill: #bf0909;" transform="matrix(1 0 0 1 3.85 27.50)">1</text>
	<text style="fill: #bf5d09;" transform="matrix(1 0 0 1 6.50 46.50)">2</text>
	<text style="fill: #bfb109;" transform="matrix(1 0 0 1 15.50 38.50)">3</text>
	<text style="fill: #79bf09;" transform="matrix(1 0 0 1 18.50 49.50)">4</text>
	<text style="fill: #25bf09;" transform="matrix(1 0 0 1 18.50 60.50)">5</text>
	<text style="fill: #09bf41;" transform="matrix(1 0 0 1 2.50 79.50)">6</text>
	<text style="fill: #09bf95;" transform="matrix(1 0 0 1 16.50 12.50)">7</text>
	<text style="fill: #0995bf;" transform="matrix(1 0 0 1 41.50 15.50)">8</text>
	<text style="fill: #0941bf;" transform="matrix(1 0 0 1 42.50 45.50)">9</text>
	<text style="fill: #2509bf;" transform="matrix(1 0 0 1 50.50 34.50)">10</text>
	<text style="fill: #7909bf;" transform="matrix(1 0 0 1 60.50 25.50)">11</text>
	<text style="fill: #bf09b1;" transform="matrix(1 0 0 1 52.50 47.50)">12</text>
	<text style="fill: #bf095d;" transform="matrix(1 0 0 1 74.50 46.50)">13</text>
</g>
</svg>
