<?xml version="1.0" encoding="UTF-8"?>
<!--
This file has been modified from the original version by the kanji_colorize.py
script (available at http://github.com/cayennes/kanji-colorize) with these
settings:
    mode: spectrum
    saturation: 0.95
    value: 0.75
    image_size: 327
It remains under a Creative Commons-Attribution-Share Alike 3.0 License.

The original SVG has the following copyright:

Copyright (C) 2009/2010/2011 Ulrich Apel.
This work is distributed under the conditions of the Creative Commons
Attribution-Share Alike 3.0 Licence. This means you are free:
* to Share - to copy, distribute and transmit the work
* to Remix - to adapt the work

Under the following conditions:
* Attribution. You must attribute the work by stating your use of KanjiVG in
  your own copyright header and linking to KanjiVG's website
  (http://kanjivg.tagaini.net)
* Share Alike. If you alter, transform, or build upon this work, you may
  distribute the resulting work only under the same or similar license to this
  one.

See http://creativecommons.org/licenses/by-sa/3.0/ for more details.
-->
<!DOCTYPE svg PUBLIC "-//W3C//DTD SVG 1.0//EN" "http://www.w3.org/TR/2001/REC-SVG-20010904/DTD/svg10.dtd" [
<!ATTLIST g
xmlns:kvg CDATA #FIXED "http://kanjivg.tagaini.net"
kvg:element CDATA #IMPLIED
kvg:variant CDATA #IMPLIED
kvg:partial CDATA #IMPLIED
kvg:original CDATA #IMPLIED
kvg:part CDATA #IMPLIED
kvg:number CDATA #IMPLIED
kvg:tradForm CDATA #IMPLIED
kvg:radicalForm CDATA #IMPLIED
kvg:position CDATA #IMPLIED
kvg:radical CDATA #IMPLIED
kvg:phon CDATA #IMPLIED >
<!ATTLIST path
xmlns:kvg CDATA #FIXED "http://kanjivg.tagaini.net"
kvg:type CDATA #IMPLIED >
]>
<svg xmlns="http://www.w3.org/2000/svg" width="327" height = "327" viewBox="0 0 327 327">
<g id="kvg:StrokePaths_08f57" style="fill:none;stroke:#000000;stroke-width:3;stroke-linecap:round;stroke-linejoin:round;" transform="scale(3.0,3.0)">
<g id="kvg:08f57" kvg:element="轗">
	<g id="kvg:08f57-g1" kvg:element="車" kvg:position="left" kvg:radical="general">
		<path style="stroke: #bf0909;" id="kvg:08f57-s1" kvg:type="㇐" d="M9.58,25.8c1.67,0.7,3.72,0.9,4.34,0.86c7.34-0.42,16-0.73,24.63-1.68c1.01-0.11,1.62,0.17,2.13,0.35"/>
		<path style="stroke: #bf4009;" id="kvg:08f57-s2" kvg:type="㇑" d="M11.06,36.27c0.33,0.47,0.76,0.84,0.82,1.46c0.45,4.53,1.69,15.7,2.33,24.28"/>
		<path style="stroke: #bf7609;" id="kvg:08f57-s3" kvg:type="㇕a" d="M12.35,38.35c6.41-0.84,20.1-2.84,24.48-2.97c1.81-0.05,2.18,1.14,2.1,2.46c-0.27,4.5-0.87,14.88-2.31,22.26"/>
		<path style="stroke: #bfad09;" id="kvg:08f57-s4" kvg:type="㇐a" d="M13.27,48.4c7.75-0.71,13.8-1.24,24.75-1.74"/>
		<path style="stroke: #9abf09;" id="kvg:08f57-s5" kvg:type="㇐a" d="M14.25,59.85c6.13-0.38,13.37-1.53,22.33-2.02"/>
		<path style="stroke: #64bf09;" id="kvg:08f57-s6" kvg:type="㇐" d="M8.03,72.71C9,73,10.97,73.64,11.86,73.68C18,74,28.5,72,36.68,71.12c1.44-0.16,2.32,0.22,3.04,0.46"/>
		<path style="stroke: #2dbf09;" id="kvg:08f57-s7" kvg:type="㇑" d="M23.3,13.13c0.45,0.57,1.89,2.26,1.98,3.4c0.09,1.14-0.06,73.25-0.15,80.35"/>
	</g>
	<g id="kvg:08f57-g2" kvg:element="感" kvg:position="right">
		<g id="kvg:08f57-g3" kvg:element="咸" kvg:position="top">
			<g id="kvg:08f57-g4" kvg:element="戍" kvg:part="1" kvg:variant="true" kvg:original="戌">
				<g id="kvg:08f57-g5" kvg:element="厂" kvg:part="1">
					<path style="stroke: #09bf1b;" id="kvg:08f57-s8" kvg:type="㇒" d="M48.99,26.23c0.03,0.98,0.65,2.15,0.59,3.56c-0.5,11.96-1.15,27.46-7.83,36.99"/>
				</g>
				<g id="kvg:08f57-g6" kvg:element="戈" kvg:part="1">
					<g id="kvg:08f57-g7" kvg:element="弋" kvg:part="1">
						<g id="kvg:08f57-g8" kvg:element="厂" kvg:part="2">
							<path style="stroke: #09bf52;" id="kvg:08f57-s9" kvg:type="㇐" d="M46.96,25.86c1.19,0.15,3.4,0.22,4.57,0.15c4.83-0.29,25.93-1.75,35.88-2.54c1.95-0.16,3.78-0.07,4.78,0"/>
						</g>
					</g>
					<g id="kvg:08f57-g9" kvg:element="一">
						<path style="stroke: #09bf88;" id="kvg:08f57-s10" kvg:type="㇐" d="M53.77,37.68c0.83,0.15,2.89-0.02,3.71-0.07c2.94-0.2,6.73-0.89,9.42-1.02c1.38-0.07,2.57-0.12,3.26-0.05"/>
					</g>
				</g>
			</g>
			<g id="kvg:08f57-g10" kvg:element="口">
				<path style="stroke: #09bfbf;" id="kvg:08f57-s11" kvg:type="㇑" d="M52.79,46.18c0.29,0.3,0.59,0.56,0.72,0.93c1.01,3,2.2,8.62,2.89,14.02"/>
				<path style="stroke: #0988bf;" id="kvg:08f57-s12" kvg:type="㇕b" d="M55.11,46.9c5.95-1.18,8.98-1.03,12.39-1.42c1.25-0.14,1.99,0.85,1.82,1.7c-0.74,3.51-0.76,5.8-1.85,10.65"/>
				<path style="stroke: #0952bf;" id="kvg:08f57-s13" kvg:type="㇐b" d="M56.23,59.35c4-0.45,8.52-0.85,12.98-1.14"/>
			</g>
			<g id="kvg:08f57-g11" kvg:element="戍" kvg:part="2" kvg:variant="true" kvg:original="戌">
				<g id="kvg:08f57-g12" kvg:element="戈" kvg:part="2">
					<g id="kvg:08f57-g13" kvg:element="弋" kvg:part="2">
						<path style="stroke: #091bbf;" id="kvg:08f57-s14" kvg:type="㇂" d="M69.55,10.97c0.97,1.14,1.76,1.67,2.01,4.1C73.79,36.77,80,54.75,92.51,62.81c3.91,2.52,3.22,0.91,2.73-4.15"/>
					</g>
					<g id="kvg:08f57-g14" kvg:element="丿">
						<path style="stroke: #2d09bf;" id="kvg:08f57-s15" kvg:type="㇒" d="M89.81,33.64c0.05,0.68,0.11,1.76-0.11,2.73C88.35,42.13,80.86,55.26,70.25,63"/>
					</g>
					<g id="kvg:08f57-g15" kvg:element="弋" kvg:part="3">
						<g id="kvg:08f57-g16" kvg:element="丶">
							<path style="stroke: #6409bf;" id="kvg:08f57-s16" kvg:type="㇔" d="M80.5,11.5c2.58,1.13,6.7,3.71,7.9,5.64"/>
						</g>
					</g>
				</g>
			</g>
		</g>
		<g id="kvg:08f57-g17" kvg:element="心" kvg:position="bottom">
			<path style="stroke: #9a09bf;" id="kvg:08f57-s17" kvg:type="㇔" d="M47,76.75c0.26,2.14-2.63,11.61-4.74,15.18"/>
			<path style="stroke: #bf09ad;" id="kvg:08f57-s18" kvg:type="㇟b" d="M53.5,71.25c8.57,16.34,16.9,23,30.33,23c8.42,0,6.87-3.84,2-7.84"/>
			<path style="stroke: #bf0976;" id="kvg:08f57-s19" kvg:type="㇔a" d="M69.58,73.9c3.07,7.64,5.25,6.49,5.94,2.47"/>
			<path style="stroke: #bf0940;" id="kvg:08f57-s20" kvg:type="㇔" d="M85.5,72.75c5.04,2.53,8.29,4.99,12.25,9.11"/>
		</g>
	</g>
</g>
</g>
<g id="kvg:StrokeNumbers_08f57" style="font-size:8;fill:#808080" transform="scale(3.0,3.0)">
	<text style="fill: #bf0909;" transform="matrix(1 0 0 1 2.50 25.50)">1</text>
	<text style="fill: #bf4009;" transform="matrix(1 0 0 1 4.50 43.50)">2</text>
	<text style="fill: #bf7609;" transform="matrix(1 0 0 1 14.50 34.50)">3</text>
	<text style="fill: #bfad09;" transform="matrix(1 0 0 1 17.75 45.15)">4</text>
	<text style="fill: #9abf09;" transform="matrix(1 0 0 1 18.50 57.33)">5</text>
	<text style="fill: #64bf09;" transform="matrix(1 0 0 1 0.50 73.50)">6</text>
	<text style="fill: #2dbf09;" transform="matrix(1 0 0 1 15.50 13.50)">7</text>
	<text style="fill: #09bf1b;" transform="matrix(1 0 0 1 41.75 33.50)">8</text>
	<text style="fill: #09bf52;" transform="matrix(1 0 0 1 47.50 22.50)">9</text>
	<text style="fill: #09bf88;" transform="matrix(1 0 0 1 52.50 35.50)">10</text>
	<text style="fill: #09bfbf;" transform="matrix(1 0 0 1 48.50 58.50)">11</text>
	<text style="fill: #0988bf;" transform="matrix(1 0 0 1 55.50 44.80)">12</text>
	<text style="fill: #0952bf;" transform="matrix(1 0 0 1 58.25 55.50)">13</text>
	<text style="fill: #091bbf;" transform="matrix(1 0 0 1 57.00 11.50)">14</text>
	<text style="fill: #2d09bf;" transform="matrix(1 0 0 1 79.50 32.50)">15</text>
	<text style="fill: #6409bf;" transform="matrix(1 0 0 1 74.50 9.83)">16</text>
	<text style="fill: #9a09bf;" transform="matrix(1 0 0 1 37.50 80.50)">17</text>
	<text style="fill: #bf09ad;" transform="matrix(1 0 0 1 50.50 86.50)">18</text>
	<text style="fill: #bf0976;" transform="matrix(1 0 0 1 60.50 73.50)">19</text>
	<text style="fill: #bf0940;" transform="matrix(1 0 0 1 77.50 71.50)">20</text>
</g>
</svg>
