<?xml version="1.0" encoding="UTF-8"?>
<!--
This file has been modified from the original version by the kanji_colorize.py
script (available at http://github.com/cayennes/kanji-colorize) with these
settings:
    mode: spectrum
    saturation: 0.95
    value: 0.75
    image_size: 327
It remains under a Creative Commons-Attribution-Share Alike 3.0 License.

The original SVG has the following copyright:

Copyright (C) 2009/2010/2011 Ulrich Apel.
This work is distributed under the conditions of the Creative Commons
Attribution-Share Alike 3.0 Licence. This means you are free:
* to Share - to copy, distribute and transmit the work
* to Remix - to adapt the work

Under the following conditions:
* Attribution. You must attribute the work by stating your use of KanjiVG in
  your own copyright header and linking to KanjiVG's website
  (http://kanjivg.tagaini.net)
* Share Alike. If you alter, transform, or build upon this work, you may
  distribute the resulting work only under the same or similar license to this
  one.

See http://creativecommons.org/licenses/by-sa/3.0/ for more details.
-->
<!DOCTYPE svg PUBLIC "-//W3C//DTD SVG 1.0//EN" "http://www.w3.org/TR/2001/REC-SVG-20010904/DTD/svg10.dtd" [
<!ATTLIST g
xmlns:kvg CDATA #FIXED "http://kanjivg.tagaini.net"
kvg:element CDATA #IMPLIED
kvg:variant CDATA #IMPLIED
kvg:partial CDATA #IMPLIED
kvg:original CDATA #IMPLIED
kvg:part CDATA #IMPLIED
kvg:number CDATA #IMPLIED
kvg:tradForm CDATA #IMPLIED
kvg:radicalForm CDATA #IMPLIED
kvg:position CDATA #IMPLIED
kvg:radical CDATA #IMPLIED
kvg:phon CDATA #IMPLIED >
<!ATTLIST path
xmlns:kvg CDATA #FIXED "http://kanjivg.tagaini.net"
kvg:type CDATA #IMPLIED >
]>
<svg xmlns="http://www.w3.org/2000/svg" width="327" height = "327" viewBox="0 0 327 327">
<g id="kvg:StrokePaths_090af" style="fill:none;stroke:#000000;stroke-width:3;stroke-linecap:round;stroke-linejoin:round;" transform="scale(3.0,3.0)">
<g id="kvg:090af" kvg:element="邯">
	<g id="kvg:090af-g1" kvg:element="甘" kvg:position="left">
		<g id="kvg:090af-g2" kvg:element="廿" kvg:part="1">
			<g id="kvg:090af-g3" kvg:element="十">
				<path style="stroke: #bf0909;" id="kvg:090af-s1" kvg:type="㇐" d="M11.36,37.02c1.29,0.46,3.67,0.57,4.96,0.46c9.52-0.84,25.18-2.23,40.79-3.33c2.15-0.15,3.45,0.22,4.53,0.45"/>
				<path style="stroke: #bf9109;" id="kvg:090af-s2" kvg:type="㇑" d="M23.17,15.87c1.07,0.49,1.71,2.19,1.93,3.17c0.21,0.98,0,66.62-0.21,72.71"/>
			</g>
			<path style="stroke: #64bf09;" id="kvg:090af-s3" kvg:type="㇑" d="M46.62,13.5c1.07,0.49,1.71,2.19,1.93,3.17c0.21,0.98,0,68.51-0.21,74.6"/>
		</g>
		<path style="stroke: #09bf36;" id="kvg:090af-s4" kvg:type="㇐" d="M25.26,59.34c5.49-0.34,19.28-1.43,22.23-1.43"/>
		<g id="kvg:090af-g4" kvg:element="廿" kvg:part="2">
			<path style="stroke: #09bfbf;" id="kvg:090af-s5" kvg:type="㇐" d="M25.26,88.15c6.4-0.24,16.58-1.21,22.48-1.45"/>
		</g>
	</g>
	<g id="kvg:090af-g5" kvg:element="⻏" kvg:variant="true" kvg:original="邑" kvg:position="right" kvg:radical="general">
		<path style="stroke: #0936bf;" id="kvg:090af-s6" kvg:type="㇇" d="M65.67,17.06c0.85,0.09,2.36,0.7,3.45,0.49c4.71-0.91,16.42-2.94,18.9-3.85c3.05-1.12,6.11,1.12,4.75,3.73s-8.52,16.82-12,23.22"/>
		<path style="stroke: #6409bf;" id="kvg:090af-s7" kvg:type="㇕va" d="M80.26,40.71C99.75,52.75,95,90,82.04,76.35"/>
		<path style="stroke: #bf0991;" id="kvg:090af-s8" kvg:type="㇑" d="M68.39,18.05c0.02,0.11,0.04,1.48,0.05,2.94c0.12,12.9-0.08,70.97-0.28,77.25"/>
	</g>
</g>
</g>
<g id="kvg:StrokeNumbers_090af" style="font-size:8;fill:#808080" transform="scale(3.0,3.0)">
	<text style="fill: #bf0909;" transform="matrix(1 0 0 1 4.50 36.50)">1</text>
	<text style="fill: #bf9109;" transform="matrix(1 0 0 1 14.50 15.50)">2</text>
	<text style="fill: #64bf09;" transform="matrix(1 0 0 1 38.50 13.50)">3</text>
	<text style="fill: #09bf36;" transform="matrix(1 0 0 1 29.50 55.50)">4</text>
	<text style="fill: #09bfbf;" transform="matrix(1 0 0 1 29.50 84.50)">5</text>
	<text style="fill: #0936bf;" transform="matrix(1 0 0 1 69.25 13.50)">6</text>
	<text style="fill: #6409bf;" transform="matrix(1 0 0 1 76.50 48.50)">7</text>
	<text style="fill: #bf0991;" transform="matrix(1 0 0 1 60.50 24.50)">8</text>
</g>
</svg>
