<?xml version="1.0" encoding="UTF-8"?>
<!--
This file has been modified from the original version by the kanji_colorize.py
script (available at http://github.com/cayennes/kanji-colorize) with these
settings:
    mode: spectrum
    saturation: 0.95
    value: 0.75
    image_size: 327
It remains under a Creative Commons-Attribution-Share Alike 3.0 License.

The original SVG has the following copyright:

Copyright (C) 2009/2010/2011 Ulrich Apel.
This work is distributed under the conditions of the Creative Commons
Attribution-Share Alike 3.0 Licence. This means you are free:
* to Share - to copy, distribute and transmit the work
* to Remix - to adapt the work

Under the following conditions:
* Attribution. You must attribute the work by stating your use of KanjiVG in
  your own copyright header and linking to KanjiVG's website
  (http://kanjivg.tagaini.net)
* Share Alike. If you alter, transform, or build upon this work, you may
  distribute the resulting work only under the same or similar license to this
  one.

See http://creativecommons.org/licenses/by-sa/3.0/ for more details.
-->
<!DOCTYPE svg PUBLIC "-//W3C//DTD SVG 1.0//EN" "http://www.w3.org/TR/2001/REC-SVG-20010904/DTD/svg10.dtd" [
<!ATTLIST g
xmlns:kvg CDATA #FIXED "http://kanjivg.tagaini.net"
kvg:element CDATA #IMPLIED
kvg:variant CDATA #IMPLIED
kvg:partial CDATA #IMPLIED
kvg:original CDATA #IMPLIED
kvg:part CDATA #IMPLIED
kvg:number CDATA #IMPLIED
kvg:tradForm CDATA #IMPLIED
kvg:radicalForm CDATA #IMPLIED
kvg:position CDATA #IMPLIED
kvg:radical CDATA #IMPLIED
kvg:phon CDATA #IMPLIED >
<!ATTLIST path
xmlns:kvg CDATA #FIXED "http://kanjivg.tagaini.net"
kvg:type CDATA #IMPLIED >
]>
<svg xmlns="http://www.w3.org/2000/svg" width="327" height = "327" viewBox="0 0 327 327">
<g id="kvg:StrokePaths_09130" style="fill:none;stroke:#000000;stroke-width:3;stroke-linecap:round;stroke-linejoin:round;" transform="scale(3.0,3.0)">
<g id="kvg:09130" kvg:element="鄰">
	<g id="kvg:09130-g1" kvg:position="left">
		<g id="kvg:09130-g2" kvg:element="米" kvg:position="top">
			<path style="stroke: #bf0909;" id="kvg:09130-s1" kvg:type="㇔" d="M21.59,17.03c2.24,1.4,5.61,5.35,6.17,7.52"/>
			<path style="stroke: #bf5209;" id="kvg:09130-s2" kvg:type="㇒" d="M54.59,13.5c0.02,0.27,0.05,0.69-0.05,1.08c-0.64,2.27-4.3,7.25-9.32,10.3"/>
			<path style="stroke: #bf9a09;" id="kvg:09130-s3" kvg:type="㇐" d="M16.75,32.02c0.74,0.15,2.72,0.6,4.69,0.45c6.31-0.47,26.59-2.91,35.22-2.61c1.97,0.07,2.46-0.15,3.7,0"/>
			<path style="stroke: #9abf09;" id="kvg:09130-s4" kvg:type="㇑" d="M37.15,11.5c0.82,0.3,1.32,1.35,1.48,1.96c0.16,0.6,0.5,34.78,0.33,38.54"/>
			<path style="stroke: #52bf09;" id="kvg:09130-s5" kvg:type="㇒" d="M38.15,31.81c-3.7,6.06-12.7,14.57-21.02,18.07"/>
			<path style="stroke: #09bf09;" id="kvg:09130-s6" kvg:type="㇏" d="M39.27,31.21c3.73,2.58,16.61,12.3,20.67,14.84c1.37,0.86,2.55,1.23,3.93,1.48"/>
		</g>
		<g id="kvg:09130-g3" kvg:element="舛" kvg:position="bottom">
			<g id="kvg:09130-g4" kvg:element="夕" kvg:position="left">
				<path style="stroke: #09bf52;" id="kvg:09130-s7" kvg:type="㇒" d="M24.28,53.56c0.13,0.33,0.39,1.29,0.25,1.94c-0.83,3.82-5.91,12.06-12.43,17.18"/>
				<path style="stroke: #09bf9a;" id="kvg:09130-s8" kvg:type="㇇" d="M24.99,60.86c0.21,0.03,1.11,0,1.72-0.08c1.98-0.26,5.99-1.52,8.64-2.53c1.9-0.73,2.5,0.64,2,2.17c-2.72,8.36-14.59,26.84-27.09,33.12"/>
				<path style="stroke: #099abf;" id="kvg:09130-s9" kvg:type="㇔" d="M18.32,70.19c1.9,1.56,4.91,6.43,5.38,8.86"/>
			</g>
			<g id="kvg:09130-g5" kvg:position="right">
				<path style="stroke: #0952bf;" id="kvg:09130-s10" kvg:type="㇐" d="M41.17,63.27c0.72,0.2,2.04,0.24,2.75,0.2c4.83-0.22,13.6-1.88,18.54-1.8c1.2,0.02,1.92,0.1,2.51,0.2"/>
				<path style="stroke: #0909bf;" id="kvg:09130-s11" kvg:type="㇄" d="M42.355517,68.284266C42.717124,69.159123,42.652968,70.214783,42.355517,71.200454C41.982245,72.44275,41.270695,75.948008,40.81577,77.470258C40.244197,79.359947,40.413336,79.698225,42.279696,79.359947C48.339534,78.245963,59.117764,77.627732,61.893974,77.493587C63.60286,77.406101,65.305914,77.546078,66.997303,77.907686"/>
				<path style="stroke: #5209bf;" id="kvg:09130-s12" kvg:type="㇑" d="M52.68,50.75c0.83,0.39,1.33,1.76,1.5,2.54c0.17,0.78,0,41.59-0.17,46.46"/>
			</g>
		</g>
	</g>
	<g id="kvg:09130-g6" kvg:element="⻏" kvg:variant="true" kvg:original="邑" kvg:position="right" kvg:radical="tradit">
		<path style="stroke: #9a09bf;" id="kvg:09130-s13" kvg:type="㇇" d="M70.67,20.67c0.83,0.08,2.32,0.62,3.4,0.44c4.63-0.81,15.67-2.62,18.1-3.44c3-1,5,2,3.67,4.33c-1.33,2.33-8,16.67-10.33,20"/>
		<path style="stroke: #bf099a;" id="kvg:09130-s14" kvg:type="㇕va" d="M85.5,42.5C102.75,55,99,89.25,86.73,74.66"/>
		<path style="stroke: #bf0952;" id="kvg:09130-s15" kvg:type="㇑" d="M74.83,21.5c0.22,1,0,69.75-0.22,76"/>
	</g>
</g>
</g>
<g id="kvg:StrokeNumbers_09130" style="font-size:8;fill:#808080" transform="scale(3.0,3.0)">
	<text style="fill: #bf0909;" transform="matrix(1 0 0 1 15.50 16.50)">1</text>
	<text style="fill: #bf5209;" transform="matrix(1 0 0 1 46.50 10.50)">2</text>
	<text style="fill: #bf9a09;" transform="matrix(1 0 0 1 9.50 32.50)">3</text>
	<text style="fill: #9abf09;" transform="matrix(1 0 0 1 29.50 11.50)">4</text>
	<text style="fill: #52bf09;" transform="matrix(1 0 0 1 23.50 41.50)">5</text>
	<text style="fill: #09bf09;" transform="matrix(1 0 0 1 52.50 38.50)">6</text>
	<text style="fill: #09bf52;" transform="matrix(1 0 0 1 16.50 58.50)">7</text>
	<text style="fill: #09bf9a;" transform="matrix(1 0 0 1 28.25 57.50)">8</text>
	<text style="fill: #099abf;" transform="matrix(1 0 0 1 22.50 72.50)">9</text>
	<text style="fill: #0952bf;" transform="matrix(1 0 0 1 41.50 60.50)">10</text>
	<text style="fill: #0909bf;" transform="matrix(1 0 0 1 44 71.88)">11</text>
	<text style="fill: #5209bf;" transform="matrix(1 0 0 1 42.50 50.50)">12</text>
	<text style="fill: #9a09bf;" transform="matrix(1 0 0 1 74.50 17.50)">13</text>
	<text style="fill: #bf099a;" transform="matrix(1 0 0 1 78 51.58)">14</text>
	<text style="fill: #bf0952;" transform="matrix(1 0 0 1 64 30)">15</text>
</g>
</svg>
