<?xml version="1.0" encoding="UTF-8"?>
<!--
This file has been modified from the original version by the kanji_colorize.py
script (available at http://github.com/cayennes/kanji-colorize) with these
settings:
    mode: spectrum
    saturation: 0.95
    value: 0.75
    image_size: 327
It remains under a Creative Commons-Attribution-Share Alike 3.0 License.

The original SVG has the following copyright:

Copyright (C) 2009/2010/2011 Ulrich Apel.
This work is distributed under the conditions of the Creative Commons
Attribution-Share Alike 3.0 Licence. This means you are free:
* to Share - to copy, distribute and transmit the work
* to Remix - to adapt the work

Under the following conditions:
* Attribution. You must attribute the work by stating your use of KanjiVG in
  your own copyright header and linking to KanjiVG's website
  (http://kanjivg.tagaini.net)
* Share Alike. If you alter, transform, or build upon this work, you may
  distribute the resulting work only under the same or similar license to this
  one.

See http://creativecommons.org/licenses/by-sa/3.0/ for more details.
-->
<!DOCTYPE svg PUBLIC "-//W3C//DTD SVG 1.0//EN" "http://www.w3.org/TR/2001/REC-SVG-20010904/DTD/svg10.dtd" [
<!ATTLIST g
xmlns:kvg CDATA #FIXED "http://kanjivg.tagaini.net"
kvg:element CDATA #IMPLIED
kvg:variant CDATA #IMPLIED
kvg:partial CDATA #IMPLIED
kvg:original CDATA #IMPLIED
kvg:part CDATA #IMPLIED
kvg:number CDATA #IMPLIED
kvg:tradForm CDATA #IMPLIED
kvg:radicalForm CDATA #IMPLIED
kvg:position CDATA #IMPLIED
kvg:radical CDATA #IMPLIED
kvg:phon CDATA #IMPLIED >
<!ATTLIST path
xmlns:kvg CDATA #FIXED "http://kanjivg.tagaini.net"
kvg:type CDATA #IMPLIED >
]>
<svg xmlns="http://www.w3.org/2000/svg" width="327" height = "327" viewBox="0 0 327 327">
<g id="kvg:StrokePaths_0918b" style="fill:none;stroke:#000000;stroke-width:3;stroke-linecap:round;stroke-linejoin:round;" transform="scale(3.0,3.0)">
<g id="kvg:0918b" kvg:element="醋">
	<g id="kvg:0918b-g1" kvg:element="酉" kvg:position="left" kvg:radical="general">
		<g id="kvg:0918b-g2" kvg:element="西" kvg:part="1" kvg:original="襾">
			<path style="stroke: #bf0909;" id="kvg:0918b-s1" kvg:type="㇐" d="M10.24,20.14c0.63,0.41,3.81,1.01,4.46,0.95c6.66-0.58,24.25-2.29,27.05-2.57C43.34,18.37,45,18,46.5,18.38"/>
			<path style="stroke: #bf5209;" id="kvg:0918b-s2" kvg:type="㇑" d="M13.47,34.84c0.43,0.74,0.59,2.52,0.59,3.51c0,0.99-0.14,51.41,0,52.39"/>
			<path style="stroke: #bf9a09;" id="kvg:0918b-s3" kvg:type="㇕a" d="M14.26,36.88c2.41-0.12,24.79-2.28,26.98-2.59c2.27-0.32,4.15,1.19,4.15,3.98c0,1.56-0.35,50.65-0.35,51.39"/>
			<path style="stroke: #9abf09;" id="kvg:0918b-s4" kvg:type="㇒" d="M23.94,23.22c0.67,1.18,1.08,2.8,0.98,4.42c-0.9,14.98-2.76,23.7-6.75,30.95"/>
			<path style="stroke: #52bf09;" id="kvg:0918b-s5" kvg:type="㇟a" d="M32.71,22.04c0.43,1.21,0.77,2.65,0.8,4.52c0.08,5.94-0.19,13.5-0.23,20.84c-0.03,6.37,1.86,7.69,4.88,7.69c3.06,0,5.17-0.22,5.47-0.94"/>
		</g>
		<g id="kvg:0918b-g3" kvg:element="一">
			<path style="stroke: #09bf09;" id="kvg:0918b-s6" kvg:type="㇐a" d="M14.69,70.51c3.27,0,26.2-1.69,29.89-1.69"/>
		</g>
		<g id="kvg:0918b-g4" kvg:element="西" kvg:part="2" kvg:original="襾">
			<path style="stroke: #09bf52;" id="kvg:0918b-s7" kvg:type="㇐a" d="M14.54,87.44c6.65-0.53,21.75-1.45,30.03-1.9"/>
		</g>
	</g>
	<g id="kvg:0918b-g5" kvg:element="昔" kvg:position="right">
		<g id="kvg:0918b-g6" kvg:position="top">
			<g id="kvg:0918b-g7" kvg:element="廾" kvg:variant="true">
				<g id="kvg:0918b-g8" kvg:element="十" kvg:part="1">
					<path style="stroke: #09bf9a;" id="kvg:0918b-s8" kvg:type="㇐" d="M54.38,28.81c1,0.39,2.84,0.5,3.84,0.39c6.39-0.68,25-2.86,32.96-2.97c1.67-0.02,2.67,0.19,3.51,0.38"/>
				</g>
				<g id="kvg:0918b-g9" kvg:element="丿" kvg:variant="true">
					<path style="stroke: #099abf;" id="kvg:0918b-s9" kvg:type="㇑" d="M61.91,15.13c1,0.55,1.6,2.48,1.8,3.58c0.2,1.1,0.39,17.89,1.08,28.35"/>
				</g>
				<g id="kvg:0918b-g10" kvg:element="十" kvg:part="2">
					<path style="stroke: #0952bf;" id="kvg:0918b-s10" kvg:type="㇑" d="M80.84,12.75c0.8,0.51,1.28,2.3,1.44,3.33c0.16,1.02-1.53,19.17-1.69,30.43"/>
				</g>
			</g>
			<path style="stroke: #0909bf;" id="kvg:0918b-s11" kvg:type="㇐" d="M51.22,48.3c1.3,0.49,3.68,0.5,5,0.49c10.29-0.04,28.04-3.04,38.51-3.2c2.17-0.03,3.48,0.23,4.56,0.48"/>
		</g>
		<g id="kvg:0918b-g11" kvg:element="日" kvg:position="bottom">
			<path style="stroke: #5209bf;" id="kvg:0918b-s12" kvg:type="㇑" d="M59.08,58.58c0.36,0.87,1.13,2.35,1.13,3.5c0,1.16,0,26.43,0,34.17"/>
			<path style="stroke: #9a09bf;" id="kvg:0918b-s13" kvg:type="㇕a" d="M60.81,60.34c2.05-0.15,22.79-2.54,24.66-2.72c1.56-0.15,2.56,1.61,2.44,2.46c-0.24,1.74-1.48,34.61-1.48,35.47"/>
			<path style="stroke: #bf099a;" id="kvg:0918b-s14" kvg:type="㇐a" d="M60.68,75.52c2.78,0,22.77-2.14,25.91-2.14"/>
			<path style="stroke: #bf0952;" id="kvg:0918b-s15" kvg:type="㇐a" d="M61.05,93.49c5.65-0.62,17.49-1.24,24.53-1.78"/>
		</g>
	</g>
</g>
</g>
<g id="kvg:StrokeNumbers_0918b" style="font-size:8;fill:#808080" transform="scale(3.0,3.0)">
	<text style="fill: #bf0909;" transform="matrix(1 0 0 1 4.50 20.50)">1</text>
	<text style="fill: #bf5209;" transform="matrix(1 0 0 1 6.50 42.50)">2</text>
	<text style="fill: #bf9a09;" transform="matrix(1 0 0 1 15.50 33.50)">3</text>
	<text style="fill: #9abf09;" transform="matrix(1 0 0 1 18.50 28.65)">4</text>
	<text style="fill: #52bf09;" transform="matrix(1 0 0 1 28.50 28.50)">5</text>
	<text style="fill: #09bf09;" transform="matrix(1 0 0 1 18.25 67.50)">6</text>
	<text style="fill: #09bf52;" transform="matrix(1 0 0 1 18.25 84.50)">7</text>
	<text style="fill: #09bf9a;" transform="matrix(1 0 0 1 51.50 25.60)">8</text>
	<text style="fill: #099abf;" transform="matrix(1 0 0 1 54.50 13.50)">9</text>
	<text style="fill: #0952bf;" transform="matrix(1 0 0 1 68.50 11.50)">10</text>
	<text style="fill: #0909bf;" transform="matrix(1 0 0 1 47.50 45.50)">11</text>
	<text style="fill: #5209bf;" transform="matrix(1 0 0 1 49.50 65.50)">12</text>
	<text style="fill: #9a09bf;" transform="matrix(1 0 0 1 60.50 57.50)">13</text>
	<text style="fill: #bf099a;" transform="matrix(1 0 0 1 63.50 71.65)">14</text>
	<text style="fill: #bf0952;" transform="matrix(1 0 0 1 64.00 89.50)">15</text>
</g>
</svg>
