<?xml version="1.0" encoding="UTF-8"?>
<!--
This file has been modified from the original version by the kanji_colorize.py
script (available at http://github.com/cayennes/kanji-colorize) with these
settings:
    mode: spectrum
    saturation: 0.95
    value: 0.75
    image_size: 327
It remains under a Creative Commons-Attribution-Share Alike 3.0 License.

The original SVG has the following copyright:

Copyright (C) 2009/2010/2011 Ulrich Apel.
This work is distributed under the conditions of the Creative Commons
Attribution-Share Alike 3.0 Licence. This means you are free:
* to Share - to copy, distribute and transmit the work
* to Remix - to adapt the work

Under the following conditions:
* Attribution. You must attribute the work by stating your use of KanjiVG in
  your own copyright header and linking to KanjiVG's website
  (http://kanjivg.tagaini.net)
* Share Alike. If you alter, transform, or build upon this work, you may
  distribute the resulting work only under the same or similar license to this
  one.

See http://creativecommons.org/licenses/by-sa/3.0/ for more details.
-->
<!DOCTYPE svg PUBLIC "-//W3C//DTD SVG 1.0//EN" "http://www.w3.org/TR/2001/REC-SVG-20010904/DTD/svg10.dtd" [
<!ATTLIST g
xmlns:kvg CDATA #FIXED "http://kanjivg.tagaini.net"
kvg:element CDATA #IMPLIED
kvg:variant CDATA #IMPLIED
kvg:partial CDATA #IMPLIED
kvg:original CDATA #IMPLIED
kvg:part CDATA #IMPLIED
kvg:number CDATA #IMPLIED
kvg:tradForm CDATA #IMPLIED
kvg:radicalForm CDATA #IMPLIED
kvg:position CDATA #IMPLIED
kvg:radical CDATA #IMPLIED
kvg:phon CDATA #IMPLIED >
<!ATTLIST path
xmlns:kvg CDATA #FIXED "http://kanjivg.tagaini.net"
kvg:type CDATA #IMPLIED >
]>
<svg xmlns="http://www.w3.org/2000/svg" width="327" height = "327" viewBox="0 0 327 327">
<g id="kvg:StrokePaths_09189" style="fill:none;stroke:#000000;stroke-width:3;stroke-linecap:round;stroke-linejoin:round;" transform="scale(3.0,3.0)">
<g id="kvg:09189" kvg:element="醉">
	<g id="kvg:09189-g1" kvg:element="酉" kvg:position="left" kvg:radical="general">
		<g id="kvg:09189-g2" kvg:element="西" kvg:part="1" kvg:original="襾">
			<path style="stroke: #bf0909;" id="kvg:09189-s1" kvg:type="㇐" d="M11.24,19.14c0.55,0.41,3.33,0.98,3.9,0.95c6.86-0.34,21.24-1.29,23.7-1.57c1.4-0.16,2.96-0.67,4.16-0.15"/>
			<path style="stroke: #bf5209;" id="kvg:09189-s2" kvg:type="㇑" d="M14.07,36.34c0.37,0.74,0.52,2.52,0.52,3.51c0,0.99-0.12,49.91,0,50.89"/>
			<path style="stroke: #bf9a09;" id="kvg:09189-s3" kvg:type="㇕a" d="M14.26,38.55c2.21-0.12,22.71-2.21,24.71-2.5c2.08-0.31,3.8,1.15,3.8,3.86c0,1.51-0.32,49.05-0.32,49.77"/>
			<path style="stroke: #9abf09;" id="kvg:09189-s4" kvg:type="㇒" d="M23.74,23.22c0.58,1.18,0.95,2.8,0.86,4.42c-0.79,14.98-2.42,23.7-5.91,30.95"/>
			<path style="stroke: #52bf09;" id="kvg:09189-s5" kvg:type="㇟a" d="M30.92,22.04c0.38,1.21,0.67,2.65,0.7,4.52c0.07,5.94-0.17,14-0.2,21.34c-0.03,6.37,1.63,7.69,4.28,7.69c2.68,0,4.53-0.22,4.79-0.94"/>
		</g>
		<g id="kvg:09189-g3" kvg:element="一">
			<path style="stroke: #09bf09;" id="kvg:09189-s6" kvg:type="㇐a" d="M15.13,73.01c2.86,0,23.45-1.69,26.68-1.69"/>
		</g>
		<g id="kvg:09189-g4" kvg:element="西" kvg:part="2" kvg:original="襾">
			<path style="stroke: #09bf52;" id="kvg:09189-s7" kvg:type="㇐a" d="M14.5,87.44c5.82-0.53,19.05-1.45,26.3-1.9"/>
		</g>
	</g>
	<g id="kvg:09189-g5" kvg:element="卒" kvg:position="right">
		<g id="kvg:09189-g6" kvg:position="top">
			<g id="kvg:09189-g7" kvg:element="亠">
				<path style="stroke: #09bf9a;" id="kvg:09189-s8" kvg:type="㇑a" d="M68.64,12c0.49,0.47,1.3,2.26,1.3,3.19c0,3.41-0.16,9.69-0.06,12.57"/>
				<path style="stroke: #099abf;" id="kvg:09189-s9" kvg:type="㇐" d="M48.96,29.01c0.84,0.05,2.75,0.33,3.57,0.26c6.59-0.55,29.99-2.83,38.36-2.97c1.38-0.02,2.09,0.02,3.12,0.34"/>
			</g>
			<g id="kvg:09189-g8" kvg:element="从">
				<g id="kvg:09189-g9" kvg:element="人" kvg:position="left">
					<path style="stroke: #0952bf;" id="kvg:09189-s10" kvg:type="㇒" d="M61.61,35.99c0,0.49,0.03,0.87-0.09,1.46c-0.62,3.04-6.49,13.18-11.51,17.68"/>
					<path style="stroke: #0909bf;" id="kvg:09189-s11" kvg:type="㇏" d="M59.8,43.21c3.16,1.42,7.19,5.2,8.73,8.79"/>
				</g>
				<g id="kvg:09189-g10" kvg:element="人" kvg:position="right">
					<path style="stroke: #5209bf;" id="kvg:09189-s12" kvg:type="㇒" d="M83.35,32.99c0,0.49,0.03,0.87-0.08,1.46c-0.54,3.04-5.67,13.18-10.06,17.68"/>
					<path style="stroke: #9a09bf;" id="kvg:09189-s13" kvg:type="㇏" d="M81.11,41.46c4.45,2.15,10.12,7.87,12.29,13.29"/>
				</g>
			</g>
		</g>
		<g id="kvg:09189-g11" kvg:element="十" kvg:position="bottom">
			<path style="stroke: #bf099a;" id="kvg:09189-s14" kvg:type="㇐" d="M48.5,70.06c0.95,0.34,2.7,0.43,3.65,0.34c12.09-1.12,34.94-2.86,43.28-3c1.58-0.03,2.53,0.16,3.33,0.34"/>
			<path style="stroke: #bf0952;" id="kvg:09189-s15" kvg:type="㇑" d="M69.14,57c0.67,0.56,2.08,4.19,2.21,5.3c0.13,1.12-0.09,28.21-0.22,35.2"/>
		</g>
	</g>
</g>
</g>
<g id="kvg:StrokeNumbers_09189" style="font-size:8;fill:#808080" transform="scale(3.0,3.0)">
	<text style="fill: #bf0909;" transform="matrix(1 0 0 1 10.20 16.56)">1</text>
	<text style="fill: #bf5209;" transform="matrix(1 0 0 1 8.20 44.96)">2</text>
	<text style="fill: #bf9a09;" transform="matrix(1 0 0 1 15.77 36.07)">3</text>
	<text style="fill: #9abf09;" transform="matrix(1 0 0 1 17.39 27.54)">4</text>
	<text style="fill: #52bf09;" transform="matrix(1 0 0 1 33.39 26.61)">5</text>
	<text style="fill: #09bf09;" transform="matrix(1 0 0 1 16.21 70.38)">6</text>
	<text style="fill: #09bf52;" transform="matrix(1 0 0 1 16.66 84.86)">7</text>
	<text style="fill: #09bf9a;" transform="matrix(1 0 0 1 62.16 14.53)">8</text>
	<text style="fill: #099abf;" transform="matrix(1 0 0 1 46.78 26.30)">9</text>
	<text style="fill: #0952bf;" transform="matrix(1 0 0 1 50.23 37.02)">10</text>
	<text style="fill: #0909bf;" transform="matrix(1 0 0 1 62.30 43.38)">11</text>
	<text style="fill: #5209bf;" transform="matrix(1 0 0 1 71.95 34.96)">12</text>
	<text style="fill: #9a09bf;" transform="matrix(1 0 0 1 84.78 42.32)">13</text>
	<text style="fill: #bf099a;" transform="matrix(1 0 0 1 45.59 67.49)">14</text>
	<text style="fill: #bf0952;" transform="matrix(1 0 0 1 58.16 60.26)">15</text>
</g>
</svg>
