<?xml version="1.0" encoding="UTF-8"?>
<!--
This file has been modified from the original version by the kanji_colorize.py
script (available at http://github.com/cayennes/kanji-colorize) with these
settings:
    mode: spectrum
    saturation: 0.95
    value: 0.75
    image_size: 327
It remains under a Creative Commons-Attribution-Share Alike 3.0 License.

The original SVG has the following copyright:

Copyright (C) 2009/2010/2011 Ulrich Apel.
This work is distributed under the conditions of the Creative Commons
Attribution-Share Alike 3.0 Licence. This means you are free:
* to Share - to copy, distribute and transmit the work
* to Remix - to adapt the work

Under the following conditions:
* Attribution. You must attribute the work by stating your use of KanjiVG in
  your own copyright header and linking to KanjiVG's website
  (http://kanjivg.tagaini.net)
* Share Alike. If you alter, transform, or build upon this work, you may
  distribute the resulting work only under the same or similar license to this
  one.

See http://creativecommons.org/licenses/by-sa/3.0/ for more details.
-->
<!DOCTYPE svg PUBLIC "-//W3C//DTD SVG 1.0//EN" "http://www.w3.org/TR/2001/REC-SVG-20010904/DTD/svg10.dtd" [
<!ATTLIST g
xmlns:kvg CDATA #FIXED "http://kanjivg.tagaini.net"
kvg:element CDATA #IMPLIED
kvg:variant CDATA #IMPLIED
kvg:partial CDATA #IMPLIED
kvg:original CDATA #IMPLIED
kvg:part CDATA #IMPLIED
kvg:number CDATA #IMPLIED
kvg:tradForm CDATA #IMPLIED
kvg:radicalForm CDATA #IMPLIED
kvg:position CDATA #IMPLIED
kvg:radical CDATA #IMPLIED
kvg:phon CDATA #IMPLIED >
<!ATTLIST path
xmlns:kvg CDATA #FIXED "http://kanjivg.tagaini.net"
kvg:type CDATA #IMPLIED >
]>
<svg xmlns="http://www.w3.org/2000/svg" width="327" height = "327" viewBox="0 0 327 327">
<g id="kvg:StrokePaths_091cb" style="fill:none;stroke:#000000;stroke-width:3;stroke-linecap:round;stroke-linejoin:round;" transform="scale(3.0,3.0)">
<g id="kvg:091cb" kvg:element="釋">
	<g id="kvg:091cb-g1" kvg:element="釆" kvg:position="left" kvg:radical="general">
		<g id="kvg:091cb-g2" kvg:element="丿" kvg:position="top">
			<path style="stroke: #bf0909;" id="kvg:091cb-s1" kvg:type="㇒" d="M40.25,11.64c0.08,0.31,0.26,0.88-0.15,1.27C34.75,18,24,23,14.47,25.26"/>
		</g>
		<g id="kvg:091cb-g3" kvg:element="米" kvg:variant="true" kvg:position="bottom">
			<path style="stroke: #bf4009;" id="kvg:091cb-s2" kvg:type="㇔" d="M15.42,31.94c2.1,1.93,5.27,7.37,5.79,10.37"/>
			<path style="stroke: #bf7609;" id="kvg:091cb-s3" kvg:type="㇒" d="M44.7,25.8c0.02,0.32,0.1,0.85-0.04,1.27c-1.13,3.44-2.95,7.48-6.68,12.2"/>
			<path style="stroke: #bfad09;" id="kvg:091cb-s4" kvg:type="㇐" d="M12.5,49.35c0.6,0.24,2.22,0.87,3.81,0.73c6.63-0.58,18.44-2.83,25.42-2.86c1.61-0.01,2.01-0.24,3.01,0"/>
			<path style="stroke: #9abf09;" id="kvg:091cb-s5" kvg:type="㇑" d="M29.41,24.29c0.7,0.49,1.12,2.2,1.25,3.17c0.14,0.98,0,64.18-0.14,70.28"/>
			<path style="stroke: #64bf09;" id="kvg:091cb-s6" kvg:type="㇒" d="M30.66,48.65c-3.57,11.02-12.25,26.49-20.27,32.84"/>
			<path style="stroke: #2dbf09;" id="kvg:091cb-s7" kvg:type="㇔/㇏" d="M33.81,55.36c2.8,1.44,9.03,8.95,10.11,12"/>
		</g>
	</g>
	<g id="kvg:091cb-g4" kvg:position="right">
		<g id="kvg:091cb-g5" kvg:element="罒" kvg:variant="true" kvg:original="网" kvg:position="top">
			<path style="stroke: #09bf1b;" id="kvg:091cb-s8" kvg:type="㇑" d="M49.5,14.42c0.23,0.27,1.45,1.85,1.55,2.19c0.8,2.7,2.24,8.79,2.79,13.64"/>
			<path style="stroke: #09bf52;" id="kvg:091cb-s9" kvg:type="㇕a" d="M50.93,16.25c8.89-1.06,38.66-3.41,41.36-3.77c0.98-0.13,2.32,0.91,2.06,2.43c-0.55,3.17-1.9,8.15-3.37,12.67"/>
			<path style="stroke: #09bf88;" id="kvg:091cb-s10" kvg:type="㇑a" d="M64.73,15.64c0.16,1.8,1.24,9.66,1.39,11.69"/>
			<path style="stroke: #09bfbf;" id="kvg:091cb-s11" kvg:type="㇑a" d="M79.28,14.52c-0.15,2.92-0.93,9.66-1.24,11.46"/>
			<path style="stroke: #0988bf;" id="kvg:091cb-s12" kvg:type="㇐a" d="M54.08,28.33c5.51-0.33,27.64-2.35,37.26-2.61"/>
		</g>
		<g id="kvg:091cb-g6" kvg:element="幸" kvg:position="bottom">
			<g id="kvg:091cb-g7" kvg:position="top">
				<g id="kvg:091cb-g8" kvg:element="土">
					<path style="stroke: #0952bf;" id="kvg:091cb-s13" kvg:type="㇐" d="M55.32,39.29c0.95,0.3,2.68,0.38,3.62,0.3c12.13-1.02,17.21-2.34,29.42-2.6c1.57-0.03,2.52,0.14,3.3,0.29"/>
					<path style="stroke: #091bbf;" id="kvg:091cb-s14" kvg:type="㇑a" d="M71.31,31.25c0.07,0.23,0.98,1.21,0.98,2.69c0,9.6-0.11,10.9-0.11,13.31"/>
					<path style="stroke: #2d09bf;" id="kvg:091cb-s15" kvg:type="㇐" d="M49.63,49.36c1.15,0.56,3.26,0.64,4.42,0.56c13.73-0.91,29.2-3.17,39.8-3.61c1.92-0.08,3.07,0.27,4.03,0.55"/>
				</g>
				<path style="stroke: #6409bf;" id="kvg:091cb-s16" kvg:type="㇔" d="M58.91,53.23c1.57,1.37,4.05,5.63,4.44,7.75"/>
				<path style="stroke: #9a09bf;" id="kvg:091cb-s17" kvg:type="㇒" d="M82.47,50.25c0.01,0.26,0.02,0.66-0.02,1.03c-0.27,2.17-1.78,6.92-3.86,9.83"/>
			</g>
			<g id="kvg:091cb-g9" kvg:element="干" kvg:position="bottom">
				<path style="stroke: #bf09ad;" id="kvg:091cb-s18" kvg:type="㇐" d="M49.71,64.49c0.82,0.48,3.66,0.51,4.48,0.43c5.69-0.56,29.42-2.38,39.13-3.32c1.37-0.13,4.24,0.41,4.92,0.65"/>
				<g id="kvg:091cb-g10" kvg:element="十">
					<path style="stroke: #bf0976;" id="kvg:091cb-s19" kvg:type="㇐" d="M52.74,77.72c1.26,0.39,3.59,0.5,4.85,0.39c8.69-0.73,21.67-2.52,31.67-2.78c2.11-0.05,3.37,0.19,4.43,0.38"/>
					<path style="stroke: #bf0940;" id="kvg:091cb-s20" kvg:type="㇑" d="M71.52,65.49c0.3,0.4,0.93,2.23,0.99,3.04c0.06,0.81-0.04,25.43-0.1,30.47"/>
				</g>
			</g>
		</g>
	</g>
</g>
</g>
<g id="kvg:StrokeNumbers_091cb" style="font-size:8;fill:#808080" transform="scale(3.0,3.0)">
	<text style="fill: #bf0909;" transform="matrix(1 0 0 1 32.50 11.50)">1</text>
	<text style="fill: #bf4009;" transform="matrix(1 0 0 1 8.50 34.50)">2</text>
	<text style="fill: #bf7609;" transform="matrix(1 0 0 1 37.50 25.50)">3</text>
	<text style="fill: #bfad09;" transform="matrix(1 0 0 1 5.50 50.40)">4</text>
	<text style="fill: #9abf09;" transform="matrix(1 0 0 1 22.50 32.50)">5</text>
	<text style="fill: #64bf09;" transform="matrix(1 0 0 1 20.50 58.25)">6</text>
	<text style="fill: #2dbf09;" transform="matrix(1 0 0 1 37.75 56.18)">7</text>
	<text style="fill: #09bf1b;" transform="matrix(1 0 0 1 45.50 21.50)">8</text>
	<text style="fill: #09bf52;" transform="matrix(1 0 0 1 53.75 13.50)">9</text>
	<text style="fill: #09bf88;" transform="matrix(1 0 0 1 67.50 21.50)">10</text>
	<text style="fill: #09bfbf;" transform="matrix(1 0 0 1 80.50 20.50)">11</text>
	<text style="fill: #0988bf;" transform="matrix(1 0 0 1 55.50 25.50)">12</text>
	<text style="fill: #0952bf;" transform="matrix(1 0 0 1 46.50 39.50)">13</text>
	<text style="fill: #091bbf;" transform="matrix(1 0 0 1 60.50 34.65)">14</text>
	<text style="fill: #2d09bf;" transform="matrix(1 0 0 1 47.50 46.50)">15</text>
	<text style="fill: #6409bf;" transform="matrix(1 0 0 1 50.50 57.50)">16</text>
	<text style="fill: #9a09bf;" transform="matrix(1 0 0 1 72.50 55.50)">17</text>
	<text style="fill: #bf09ad;" transform="matrix(1 0 0 1 45.50 62.50)">18</text>
	<text style="fill: #bf0976;" transform="matrix(1 0 0 1 48.50 75.50)">19</text>
	<text style="fill: #bf0940;" transform="matrix(1 0 0 1 61.75 71.50)">20</text>
</g>
</svg>
