<?xml version="1.0" encoding="UTF-8"?>
<!--
This file has been modified from the original version by the kanji_colorize.py
script (available at http://github.com/cayennes/kanji-colorize) with these
settings:
    mode: spectrum
    saturation: 0.95
    value: 0.75
    image_size: 327
It remains under a Creative Commons-Attribution-Share Alike 3.0 License.

The original SVG has the following copyright:

Copyright (C) 2009/2010/2011 Ulrich Apel.
This work is distributed under the conditions of the Creative Commons
Attribution-Share Alike 3.0 Licence. This means you are free:
* to Share - to copy, distribute and transmit the work
* to Remix - to adapt the work

Under the following conditions:
* Attribution. You must attribute the work by stating your use of KanjiVG in
  your own copyright header and linking to KanjiVG's website
  (http://kanjivg.tagaini.net)
* Share Alike. If you alter, transform, or build upon this work, you may
  distribute the resulting work only under the same or similar license to this
  one.

See http://creativecommons.org/licenses/by-sa/3.0/ for more details.
-->
<!DOCTYPE svg PUBLIC "-//W3C//DTD SVG 1.0//EN" "http://www.w3.org/TR/2001/REC-SVG-20010904/DTD/svg10.dtd" [
<!ATTLIST g
xmlns:kvg CDATA #FIXED "http://kanjivg.tagaini.net"
kvg:element CDATA #IMPLIED
kvg:variant CDATA #IMPLIED
kvg:partial CDATA #IMPLIED
kvg:original CDATA #IMPLIED
kvg:part CDATA #IMPLIED
kvg:number CDATA #IMPLIED
kvg:tradForm CDATA #IMPLIED
kvg:radicalForm CDATA #IMPLIED
kvg:position CDATA #IMPLIED
kvg:radical CDATA #IMPLIED
kvg:phon CDATA #IMPLIED >
<!ATTLIST path
xmlns:kvg CDATA #FIXED "http://kanjivg.tagaini.net"
kvg:type CDATA #IMPLIED >
]>
<svg xmlns="http://www.w3.org/2000/svg" width="327" height = "327" viewBox="0 0 327 327">
<g id="kvg:StrokePaths_091c7" style="fill:none;stroke:#000000;stroke-width:3;stroke-linecap:round;stroke-linejoin:round;" transform="scale(3.0,3.0)">
<g id="kvg:091c7" kvg:element="采">
	<g id="kvg:091c7-g1" kvg:element="⺤" kvg:variant="true" kvg:original="爪" kvg:position="top" kvg:radical="general">
		<path style="stroke: #bf0909;" id="kvg:091c7-s1" kvg:type="㇒" d="M69.02,11.68c-0.4,1.07-1.02,1.57-2.29,2.38c-4.96,3.16-18.84,8.15-37,11.61"/>
		<path style="stroke: #bf9109;" id="kvg:091c7-s2" kvg:type="㇔" d="M23.27,32.86c3.24,2.13,8.37,8.76,9.18,12.07"/>
		<path style="stroke: #64bf09;" id="kvg:091c7-s3" kvg:type="㇔" d="M47.27,27.7c3.02,2.42,7.78,9.95,8.54,13.71"/>
		<path style="stroke: #09bf36;" id="kvg:091c7-s4" kvg:type="㇒" d="M86.01,23.28c0.08,0.91-0.3,1.97-0.68,2.75c-2.22,4.62-7.74,12.05-14.95,17.95"/>
	</g>
	<g id="kvg:091c7-g2" kvg:element="木" kvg:position="bottom">
		<path style="stroke: #09bfbf;" id="kvg:091c7-s5" kvg:type="㇐" d="M19,59.25c3.11,1.2,7.13,0.69,10.38,0.51c10.76-0.61,35.24-1.66,49.75-2.28c3.22-0.14,6.47,0.14,9.62,0.77"/>
		<path style="stroke: #0936bf;" id="kvg:091c7-s6" kvg:type="㇑" d="M52.94,46c1.09,1.09,1.41,2.25,1.41,3.95c0,3.09-0.06,27.49-0.09,40.92c-0.01,3.08-0.01,5.59-0.01,7.12"/>
		<path style="stroke: #6409bf;" id="kvg:091c7-s7" kvg:type="㇒" d="M52.25,59.7c0,1.3-0.5,2.43-1.75,4.02c-7.22,9.24-21.89,20.94-34.25,26.93"/>
		<path style="stroke: #bf0991;" id="kvg:091c7-s8" kvg:type="㇏" d="M55.5,60c4.84,5.13,17.32,16.16,24.72,22.51C83.12,85,86,86.75,89,88.25"/>
	</g>
</g>
</g>
<g id="kvg:StrokeNumbers_091c7" style="font-size:8;fill:#808080" transform="scale(3.0,3.0)">
	<text style="fill: #bf0909;" transform="matrix(1 0 0 1 60.25 10.25)">1</text>
	<text style="fill: #bf9109;" transform="matrix(1 0 0 1 15.25 35.25)">2</text>
	<text style="fill: #64bf09;" transform="matrix(1 0 0 1 40.25 32.25)">3</text>
	<text style="fill: #09bf36;" transform="matrix(1 0 0 1 77.25 24.25)">4</text>
	<text style="fill: #09bfbf;" transform="matrix(1 0 0 1 11.25 61.38)">5</text>
	<text style="fill: #0936bf;" transform="matrix(1 0 0 1 43.25 47.25)">6</text>
	<text style="fill: #6409bf;" transform="matrix(1 0 0 1 38.00 70.30)">7</text>
	<text style="fill: #bf0991;" transform="matrix(1 0 0 1 69.25 70.38)">8</text>
</g>
</svg>
