<?xml version="1.0" encoding="UTF-8"?>
<!--
This file has been modified from the original version by the kanji_colorize.py
script (available at http://github.com/cayennes/kanji-colorize) with these
settings:
    mode: spectrum
    saturation: 0.95
    value: 0.75
    image_size: 327
It remains under a Creative Commons-Attribution-Share Alike 3.0 License.

The original SVG has the following copyright:

Copyright (C) 2009/2010/2011 Ulrich Apel.
This work is distributed under the conditions of the Creative Commons
Attribution-Share Alike 3.0 Licence. This means you are free:
* to Share - to copy, distribute and transmit the work
* to Remix - to adapt the work

Under the following conditions:
* Attribution. You must attribute the work by stating your use of KanjiVG in
  your own copyright header and linking to KanjiVG's website
  (http://kanjivg.tagaini.net)
* Share Alike. If you alter, transform, or build upon this work, you may
  distribute the resulting work only under the same or similar license to this
  one.

See http://creativecommons.org/licenses/by-sa/3.0/ for more details.
-->
<!DOCTYPE svg PUBLIC "-//W3C//DTD SVG 1.0//EN" "http://www.w3.org/TR/2001/REC-SVG-20010904/DTD/svg10.dtd" [
<!ATTLIST g
xmlns:kvg CDATA #FIXED "http://kanjivg.tagaini.net"
kvg:element CDATA #IMPLIED
kvg:variant CDATA #IMPLIED
kvg:partial CDATA #IMPLIED
kvg:original CDATA #IMPLIED
kvg:part CDATA #IMPLIED
kvg:number CDATA #IMPLIED
kvg:tradForm CDATA #IMPLIED
kvg:radicalForm CDATA #IMPLIED
kvg:position CDATA #IMPLIED
kvg:radical CDATA #IMPLIED
kvg:phon CDATA #IMPLIED >
<!ATTLIST path
xmlns:kvg CDATA #FIXED "http://kanjivg.tagaini.net"
kvg:type CDATA #IMPLIED >
]>
<svg xmlns="http://www.w3.org/2000/svg" width="327" height = "327" viewBox="0 0 327 327">
<g id="kvg:StrokePaths_09271" style="fill:none;stroke:#000000;stroke-width:3;stroke-linecap:round;stroke-linejoin:round;" transform="scale(3.0,3.0)">
<g id="kvg:09271" kvg:element="鉱">
	<g id="kvg:09271-g1" kvg:element="金" kvg:position="left" kvg:radical="general">
		<path style="stroke: #bf0909;" id="kvg:09271-s1" kvg:type="㇒" d="M32.35,16.75c0,0.8,0.05,1.44-0.16,2.41C31.1,24.17,22.62,39.62,12,48.25"/>
		<path style="stroke: #bf5d09;" id="kvg:09271-s2" kvg:type="㇔/㇏" d="M34.47,22.82c4.83,1.77,10.65,6.06,13.57,10.61"/>
		<path style="stroke: #bfb109;" id="kvg:09271-s3" kvg:type="㇐" d="M22.52,42.58c1.54,0,2.93,0.06,4.48-0.09c3.59-0.35,7.79-1.06,11.73-1.71c1.26-0.21,2.27-0.28,3.55-0.27"/>
		<path style="stroke: #79bf09;" id="kvg:09271-s4" kvg:type="㇐" d="M16.56,55.89c2.19,0.49,4.29,0.32,6.17,0.06c5.4-0.76,13.52-2.35,19.53-3.33c1.57-0.26,3.4-0.72,4.99-0.33"/>
		<path style="stroke: #25bf09;" id="kvg:09271-s5" kvg:type="㇑a" d="M30.71,44.44c1.23,1.23,1.48,3.06,1.48,4.69c0,4.06-0.06,23.61-0.06,30.6"/>
		<path style="stroke: #09bf41;" id="kvg:09271-s6" kvg:type="㇔" d="M18.58,67.38c3.18,3.57,4.72,7.43,5.37,9.51"/>
		<path style="stroke: #09bf95;" id="kvg:09271-s7" kvg:type="㇒" d="M44.25,58.84c0.23,0.67,0.24,1.68,0,2.19c-1.13,2.46-1.81,4.07-4.41,8.3"/>
		<path style="stroke: #0995bf;" id="kvg:09271-s8" kvg:type="㇀/㇐" d="M16,86.63c1.1,0.63,2.61,0.68,3.67,0.22c1.22-0.53,11-6.05,23.71-12.36"/>
	</g>
	<g id="kvg:09271-g2" kvg:element="広" kvg:position="right" kvg:phon="広">
		<g id="kvg:09271-g3" kvg:element="广" kvg:position="tare">
			<path style="stroke: #0941bf;" id="kvg:09271-s9" kvg:type="㇑a" d="M72.48,17.32c0.85,0.85,1.51,2.06,1.51,3.35c0,0.66,0.05,9.12-0.04,13.21"/>
			<g id="kvg:09271-g4" kvg:element="厂">
				<path style="stroke: #2509bf;" id="kvg:09271-s10" kvg:type="㇐" d="M55.43,36.96c1.94,0.54,4.49,0.37,6.45,0.08c9.05-1.38,19.69-3.83,27.25-4.52c2.11-0.19,4.5-0.14,6.5,0.27"/>
				<path style="stroke: #7909bf;" id="kvg:09271-s11" kvg:type="㇒" d="M56.47,37.57c0.86,0.86,1.29,2.35,1.17,4.13c-1.14,17.05-3.89,34.55-12.89,48.31"/>
			</g>
		</g>
		<g id="kvg:09271-g5" kvg:element="厶">
			<path style="stroke: #bf09b1;" id="kvg:09271-s12" kvg:type="㇜" d="M77.58,48.63c0.4,0.93,0.21,3.71-0.24,4.82c-4.59,11.42-8.21,19.67-14.9,31.71c-1.43,2.58-0.83,4,1.29,3.36c6.77-2.03,16.75-5.4,27.02-8.53"/>
			<path style="stroke: #bf095d;" id="kvg:09271-s13" kvg:type="㇔" d="M85.3,69.08c3.71,3.82,9.59,15.69,10.52,21.63"/>
		</g>
	</g>
</g>
</g>
<g id="kvg:StrokeNumbers_09271" style="font-size:8;fill:#808080" transform="scale(3.0,3.0)">
	<text style="fill: #bf0909;" transform="matrix(1 0 0 1 24.75 19.63)">1</text>
	<text style="fill: #bf5d09;" transform="matrix(1 0 0 1 40.50 22.63)">2</text>
	<text style="fill: #bfb109;" transform="matrix(1 0 0 1 27.75 39.13)">3</text>
	<text style="fill: #79bf09;" transform="matrix(1 0 0 1 9.75 58.63)">4</text>
	<text style="fill: #25bf09;" transform="matrix(1 0 0 1 24.75 52.63)">5</text>
	<text style="fill: #09bf41;" transform="matrix(1 0 0 1 11.25 68.98)">6</text>
	<text style="fill: #09bf95;" transform="matrix(1 0 0 1 36.50 62.50)">7</text>
	<text style="fill: #0995bf;" transform="matrix(1 0 0 1 8.50 89.50)">8</text>
	<text style="fill: #0941bf;" transform="matrix(1 0 0 1 62.50 17.50)">9</text>
	<text style="fill: #2509bf;" transform="matrix(1 0 0 1 56.50 34.50)">10</text>
	<text style="fill: #7909bf;" transform="matrix(1 0 0 1 47.50 44.50)">11</text>
	<text style="fill: #bf09b1;" transform="matrix(1 0 0 1 67.20 47.91)">12</text>
	<text style="fill: #bf095d;" transform="matrix(1 0 0 1 82.50 64.50)">13</text>
</g>
</svg>
