<?xml version="1.0" encoding="UTF-8"?>
<!--
This file has been modified from the original version by the kanji_colorize.py
script (available at http://github.com/cayennes/kanji-colorize) with these
settings:
    mode: spectrum
    saturation: 0.95
    value: 0.75
    image_size: 327
It remains under a Creative Commons-Attribution-Share Alike 3.0 License.

The original SVG has the following copyright:

Copyright (C) 2009/2010/2011 Ulrich Apel.
This work is distributed under the conditions of the Creative Commons
Attribution-Share Alike 3.0 Licence. This means you are free:
* to Share - to copy, distribute and transmit the work
* to Remix - to adapt the work

Under the following conditions:
* Attribution. You must attribute the work by stating your use of KanjiVG in
  your own copyright header and linking to KanjiVG's website
  (http://kanjivg.tagaini.net)
* Share Alike. If you alter, transform, or build upon this work, you may
  distribute the resulting work only under the same or similar license to this
  one.

See http://creativecommons.org/licenses/by-sa/3.0/ for more details.
-->
<!DOCTYPE svg PUBLIC "-//W3C//DTD SVG 1.0//EN" "http://www.w3.org/TR/2001/REC-SVG-20010904/DTD/svg10.dtd" [
<!ATTLIST g
xmlns:kvg CDATA #FIXED "http://kanjivg.tagaini.net"
kvg:element CDATA #IMPLIED
kvg:variant CDATA #IMPLIED
kvg:partial CDATA #IMPLIED
kvg:original CDATA #IMPLIED
kvg:part CDATA #IMPLIED
kvg:number CDATA #IMPLIED
kvg:tradForm CDATA #IMPLIED
kvg:radicalForm CDATA #IMPLIED
kvg:position CDATA #IMPLIED
kvg:radical CDATA #IMPLIED
kvg:phon CDATA #IMPLIED >
<!ATTLIST path
xmlns:kvg CDATA #FIXED "http://kanjivg.tagaini.net"
kvg:type CDATA #IMPLIED >
]>
<svg xmlns="http://www.w3.org/2000/svg" width="327" height = "327" viewBox="0 0 327 327">
<g id="kvg:StrokePaths_09280" style="fill:none;stroke:#000000;stroke-width:3;stroke-linecap:round;stroke-linejoin:round;" transform="scale(3.0,3.0)">
<g id="kvg:09280" kvg:element="銀">
	<g id="kvg:09280-g1" kvg:element="金" kvg:position="left" kvg:radical="general">
		<path style="stroke: #bf0909;" id="kvg:09280-s1" kvg:type="㇒" d="M31.88,16.62c0.09,1.21-0.06,2.37-0.46,3.49c-2.02,5.97-11.23,20.64-19.19,27.51"/>
		<path style="stroke: #bf5709;" id="kvg:09280-s2" kvg:type="㇔/㇏" d="M33.89,22.96c4.29,1.91,9.77,6.98,11.86,11.79"/>
		<path style="stroke: #bfa509;" id="kvg:09280-s3" kvg:type="㇐" d="M20.14,43.37c1.4,0.38,2.79,0.43,4.16,0.13c3.91-0.66,7.79-1.31,12.65-1.88c1.43-0.25,2.86-0.2,4.29,0.13"/>
		<path style="stroke: #8bbf09;" id="kvg:09280-s4" kvg:type="㇐" d="M13.59,59.06c1.86,0.37,3.71,0.38,5.53,0.01c6.83-1.12,13.65-2.24,21.31-3.13c1.81-0.26,3.64-0.25,5.47,0.04"/>
		<path style="stroke: #3dbf09;" id="kvg:09280-s5" kvg:type="㇑a" d="M30.19,44.94c0.68,0.77,1.18,2.18,1.18,3.61c0,4.3-0.08,27.08-0.08,35.02"/>
		<path style="stroke: #09bf23;" id="kvg:09280-s6" kvg:type="㇔" d="M15.25,68.88c4.01,3.78,5.97,7.87,6.79,10.07"/>
		<path style="stroke: #09bf71;" id="kvg:09280-s7" kvg:type="㇒" d="M43.67,62.92c0.23,1.04,0.06,1.95-0.5,2.72c-1.63,2.68-3.53,5.9-5.25,7.89"/>
		<path style="stroke: #09bfbf;" id="kvg:09280-s8" kvg:type="㇀/㇐" d="M15,91c1.7,0.77,3.22,0.71,4.56-0.18c5.59-2.95,13.54-6.92,25.69-14.07"/>
	</g>
	<g id="kvg:09280-g2" kvg:element="艮" kvg:position="right" kvg:phon="艮">
		<path style="stroke: #0971bf;" id="kvg:09280-s9" kvg:type="㇕" d="M53.19,21.84c1.81,0.79,4.98,0.86,6.42,0.59c5.21-0.99,12.18-2.18,16.36-2.88c2.8-0.47,4.28,0.83,4.15,3.21c-0.26,4.63-1.23,13.89-2.04,19.9c-0.09,0.67-0.68,4.48-0.83,5.11"/>
		<path style="stroke: #0923bf;" id="kvg:09280-s10" kvg:type="㇐a" d="M56.11,36c4.82-0.55,17.25-2.73,21.89-3.17"/>
		<path style="stroke: #3d09bf;" id="kvg:09280-s11" kvg:type="㇐a" d="M56.26,48.89c7.36-1.52,12.97-2.15,20.15-3"/>
		<path style="stroke: #8b09bf;" id="kvg:09280-s12" kvg:type="㇙" d="M53.44,22.34c0.98,0.98,1.46,2.46,1.46,3.59c0,5.32-0.03,57.86-0.03,60.61c0,5.08,0.62,5.83,4.12,2.33c2.3-2.3,6.75-7.52,8.94-10"/>
		<path style="stroke: #bf09a5;" id="kvg:09280-s13" kvg:type="㇒" d="M85.1,49.19c0,1.13-0.53,2.62-1.56,3.54C81.12,54.88,72.75,61,70,62.5"/>
		<path style="stroke: #bf0957;" id="kvg:09280-s14" kvg:type="㇏" d="M57.19,57.81c4.45,0,22.55,21.18,30.17,26.32c3.74,2.52,5.69,3.46,8.14,4.03"/>
	</g>
</g>
</g>
<g id="kvg:StrokeNumbers_09280" style="font-size:8;fill:#808080" transform="scale(3.0,3.0)">
	<text style="fill: #bf0909;" transform="matrix(1 0 0 1 24.50 21.13)">1</text>
	<text style="fill: #bf5709;" transform="matrix(1 0 0 1 38.50 23.50)">2</text>
	<text style="fill: #bfa509;" transform="matrix(1 0 0 1 25.50 40.50)">3</text>
	<text style="fill: #8bbf09;" transform="matrix(1 0 0 1 7.38 59.62)">4</text>
	<text style="fill: #3dbf09;" transform="matrix(1 0 0 1 23.00 51.50)">5</text>
	<text style="fill: #09bf23;" transform="matrix(1 0 0 1 8.25 71.50)">6</text>
	<text style="fill: #09bf71;" transform="matrix(1 0 0 1 36.50 65.50)">7</text>
	<text style="fill: #09bfbf;" transform="matrix(1 0 0 1 8.50 97.50)">8</text>
	<text style="fill: #0971bf;" transform="matrix(1 0 0 1 55.50 19.50)">9</text>
	<text style="fill: #0923bf;" transform="matrix(1 0 0 1 58.24 31.39)">10</text>
	<text style="fill: #3d09bf;" transform="matrix(1 0 0 1 58.50 45.19)">11</text>
	<text style="fill: #8b09bf;" transform="matrix(1 0 0 1 45.50 28.50)">12</text>
	<text style="fill: #bf09a5;" transform="matrix(1 0 0 1 84.75 47.13)">13</text>
	<text style="fill: #bf0957;" transform="matrix(1 0 0 1 60.50 57.50)">14</text>
</g>
</svg>
