<?xml version="1.0" encoding="UTF-8"?>
<!--
This file has been modified from the original version by the kanji_colorize.py
script (available at http://github.com/cayennes/kanji-colorize) with these
settings:
    mode: spectrum
    saturation: 0.95
    value: 0.75
    image_size: 327
It remains under a Creative Commons-Attribution-Share Alike 3.0 License.

The original SVG has the following copyright:

Copyright (C) 2009/2010/2011 Ulrich Apel.
This work is distributed under the conditions of the Creative Commons
Attribution-Share Alike 3.0 Licence. This means you are free:
* to Share - to copy, distribute and transmit the work
* to Remix - to adapt the work

Under the following conditions:
* Attribution. You must attribute the work by stating your use of KanjiVG in
  your own copyright header and linking to KanjiVG's website
  (http://kanjivg.tagaini.net)
* Share Alike. If you alter, transform, or build upon this work, you may
  distribute the resulting work only under the same or similar license to this
  one.

See http://creativecommons.org/licenses/by-sa/3.0/ for more details.
-->
<!DOCTYPE svg PUBLIC "-//W3C//DTD SVG 1.0//EN" "http://www.w3.org/TR/2001/REC-SVG-20010904/DTD/svg10.dtd" [
<!ATTLIST g
xmlns:kvg CDATA #FIXED "http://kanjivg.tagaini.net"
kvg:element CDATA #IMPLIED
kvg:variant CDATA #IMPLIED
kvg:partial CDATA #IMPLIED
kvg:original CDATA #IMPLIED
kvg:part CDATA #IMPLIED
kvg:number CDATA #IMPLIED
kvg:tradForm CDATA #IMPLIED
kvg:radicalForm CDATA #IMPLIED
kvg:position CDATA #IMPLIED
kvg:radical CDATA #IMPLIED
kvg:phon CDATA #IMPLIED >
<!ATTLIST path
xmlns:kvg CDATA #FIXED "http://kanjivg.tagaini.net"
kvg:type CDATA #IMPLIED >
]>
<svg xmlns="http://www.w3.org/2000/svg" width="327" height = "327" viewBox="0 0 327 327">
<g id="kvg:StrokePaths_092ea" style="fill:none;stroke:#000000;stroke-width:3;stroke-linecap:round;stroke-linejoin:round;" transform="scale(3.0,3.0)">
<g id="kvg:092ea" kvg:element="鋪">
	<g id="kvg:092ea-g1" kvg:element="金" kvg:position="left" kvg:radical="general">
		<path style="stroke: #bf0909;" id="kvg:092ea-s1" kvg:type="㇒" d="M30.75,14.99c0,0.8,0.05,1.44-0.14,2.41c-0.97,5.02-10.22,21.79-18.14,29.22"/>
		<path style="stroke: #bf5209;" id="kvg:092ea-s2" kvg:type="㇔/㇏" d="M33.14,21.96c4.74,1.87,10.8,6.83,13.11,11.54"/>
		<path style="stroke: #bf9a09;" id="kvg:092ea-s3" kvg:type="㇐" d="M19.25,43.66c1.77,0,2.58,0.15,3.15,0.09c5.12-0.51,11.03-2.5,17.06-2.86c0.87-0.05,1.06-0.09,2.54-0.09"/>
		<path style="stroke: #9abf09;" id="kvg:092ea-s4" kvg:type="㇐" d="M14.09,58c0.69,0.57,2.98,0.84,3.69,0.75c6.39-0.86,17.72-3.75,25.19-5.16c0.85-0.16,2.77-0.23,4.06,0.27"/>
		<path style="stroke: #52bf09;" id="kvg:092ea-s5" kvg:type="㇑a" d="M29.95,44.69c1.24,0.78,1.24,2.52,1.24,3.14c0,4.35,0.62,32.63,0.31,36.98"/>
		<path style="stroke: #09bf09;" id="kvg:092ea-s6" kvg:type="㇔" d="M17.14,69.51c3.63,5.32,5.41,11.08,6.15,14.19"/>
		<path style="stroke: #09bf52;" id="kvg:092ea-s7" kvg:type="㇒" d="M44.04,61.55c0.43,0.88,0.39,2.77-0.02,3.42c-1.77,2.78-3.31,4.92-8.11,10.56"/>
		<path style="stroke: #09bf9a;" id="kvg:092ea-s8" kvg:type="㇀/㇐" d="M14,91.75c1,1,2.92,1.18,4,0.75c1.25-0.5,12.25-4.75,25.25-10.75"/>
	</g>
	<g id="kvg:092ea-g2" kvg:element="甫" kvg:position="right">
		<path style="stroke: #099abf;" id="kvg:092ea-s9" kvg:type="㇐" d="M52.75,30.95c1.02,0.48,2.88,0.56,3.9,0.48C65,30.75,79,27.75,90.44,27.33c1.69-0.06,2.71,0.23,3.56,0.46"/>
		<g id="kvg:092ea-g3" kvg:element="用" kvg:variant="true">
			<path style="stroke: #0952bf;" id="kvg:092ea-s10" kvg:type="㇑" d="M54.16,42.36c0.53,0.73,0.88,1.47,1.06,2.2c0.17,0.74-0.21,47.44-0.19,54.06"/>
			<path style="stroke: #0909bf;" id="kvg:092ea-s11" kvg:type="㇆" d="M55.27,45.3c5.92-0.31,33.9-3.81,35.47-4.01c2.81-0.37,3.86,2.39,3.51,3.49c-0.04,2.48-0.6,29.89-0.6,46.69c0,11.98-4.66,2.78-6.03,1.07"/>
			<path style="stroke: #5209bf;" id="kvg:092ea-s12" kvg:type="㇐" d="M56.27,59.36c7.83-0.64,30.43-2.78,36.75-3.33"/>
			<path style="stroke: #9a09bf;" id="kvg:092ea-s13" kvg:type="㇐" d="M56.43,73.79C62.05,73.24,87,71,93.5,70.63"/>
			<path style="stroke: #bf099a;" id="kvg:092ea-s14" kvg:type="㇑" d="M70.35,13.8c1.24,0.59,1.99,2.67,2.24,3.85s0,70.07-0.25,77.48"/>
		</g>
		<g id="kvg:092ea-g4" kvg:element="丶">
			<path style="stroke: #bf0952;" id="kvg:092ea-s15" kvg:type="㇔" d="M83,12.25c3,1.55,7.25,5.83,8,8.25"/>
		</g>
	</g>
</g>
</g>
<g id="kvg:StrokeNumbers_092ea" style="font-size:8;fill:#808080" transform="scale(3.0,3.0)">
	<text style="fill: #bf0909;" transform="matrix(1 0 0 1 23.50 15.50)">1</text>
	<text style="fill: #bf5209;" transform="matrix(1 0 0 1 37.50 20.50)">2</text>
	<text style="fill: #bf9a09;" transform="matrix(1 0 0 1 25.50 40.50)">3</text>
	<text style="fill: #9abf09;" transform="matrix(1 0 0 1 6.50 58.50)">4</text>
	<text style="fill: #52bf09;" transform="matrix(1 0 0 1 24.50 52.50)">5</text>
	<text style="fill: #09bf09;" transform="matrix(1 0 0 1 9.58 71.50)">6</text>
	<text style="fill: #09bf52;" transform="matrix(1 0 0 1 37.50 64.50)">7</text>
	<text style="fill: #09bf9a;" transform="matrix(1 0 0 1 5.50 93.85)">8</text>
	<text style="fill: #099abf;" transform="matrix(1 0 0 1 51.50 27.50)">9</text>
	<text style="fill: #0952bf;" transform="matrix(1 0 0 1 44.50 48.50)">10</text>
	<text style="fill: #0909bf;" transform="matrix(1 0 0 1 57.50 41.50)">11</text>
	<text style="fill: #5209bf;" transform="matrix(1 0 0 1 58.50 55.50)">12</text>
	<text style="fill: #9a09bf;" transform="matrix(1 0 0 1 58.50 70.50)">13</text>
	<text style="fill: #bf099a;" transform="matrix(1 0 0 1 59.50 14.50)">14</text>
	<text style="fill: #bf0952;" transform="matrix(1 0 0 1 75.50 9.50)">15</text>
</g>
</svg>
