<?xml version="1.0" encoding="UTF-8"?>
<!--
This file has been modified from the original version by the kanji_colorize.py
script (available at http://github.com/cayennes/kanji-colorize) with these
settings:
    mode: spectrum
    saturation: 0.95
    value: 0.75
    image_size: 327
It remains under a Creative Commons-Attribution-Share Alike 3.0 License.

The original SVG has the following copyright:

Copyright (C) 2009/2010/2011 Ulrich Apel.
This work is distributed under the conditions of the Creative Commons
Attribution-Share Alike 3.0 Licence. This means you are free:
* to Share - to copy, distribute and transmit the work
* to Remix - to adapt the work

Under the following conditions:
* Attribution. You must attribute the work by stating your use of KanjiVG in
  your own copyright header and linking to KanjiVG's website
  (http://kanjivg.tagaini.net)
* Share Alike. If you alter, transform, or build upon this work, you may
  distribute the resulting work only under the same or similar license to this
  one.

See http://creativecommons.org/licenses/by-sa/3.0/ for more details.
-->
<!DOCTYPE svg PUBLIC "-//W3C//DTD SVG 1.0//EN" "http://www.w3.org/TR/2001/REC-SVG-20010904/DTD/svg10.dtd" [
<!ATTLIST g
xmlns:kvg CDATA #FIXED "http://kanjivg.tagaini.net"
kvg:element CDATA #IMPLIED
kvg:variant CDATA #IMPLIED
kvg:partial CDATA #IMPLIED
kvg:original CDATA #IMPLIED
kvg:part CDATA #IMPLIED
kvg:number CDATA #IMPLIED
kvg:tradForm CDATA #IMPLIED
kvg:radicalForm CDATA #IMPLIED
kvg:position CDATA #IMPLIED
kvg:radical CDATA #IMPLIED
kvg:phon CDATA #IMPLIED >
<!ATTLIST path
xmlns:kvg CDATA #FIXED "http://kanjivg.tagaini.net"
kvg:type CDATA #IMPLIED >
]>
<svg xmlns="http://www.w3.org/2000/svg" width="327" height = "327" viewBox="0 0 327 327">
<g id="kvg:StrokePaths_0933a" style="fill:none;stroke:#000000;stroke-width:3;stroke-linecap:round;stroke-linejoin:round;" transform="scale(3.0,3.0)">
<g id="kvg:0933a" kvg:element="錺">
	<g id="kvg:0933a-g1" kvg:element="金" kvg:position="left" kvg:radical="general">
		<path style="stroke: #bf0909;" id="kvg:0933a-s1" kvg:type="㇒" d="M31.25,12.24c0,0.91,0.05,1.63-0.16,2.72c-1.12,5.66-11.76,24.54-20.87,32.92"/>
		<path style="stroke: #bf5209;" id="kvg:0933a-s2" kvg:type="㇔/㇏" d="M32.39,20.46c4.47,2.03,10.18,7.42,12.36,12.54"/>
		<path style="stroke: #bf9a09;" id="kvg:0933a-s3" kvg:type="㇐" d="M20.5,41.5c1.5,0,2.18,0.09,2.67,0.06c4.33-0.31,10.33-1.53,15.44-1.75c0.74-0.03,0.9-0.05,2.15-0.05"/>
		<path style="stroke: #9abf09;" id="kvg:0933a-s4" kvg:type="㇐" d="M12.09,55.31c0.64,0.33,2.73,0.48,3.38,0.43c5.87-0.49,16.81-2.49,24.33-2.67c0.8-0.02,2.54-0.13,3.73,0.15"/>
		<path style="stroke: #52bf09;" id="kvg:0933a-s5" kvg:type="㇑a" d="M27.95,43.19c1.24,0.78,1.24,2.52,1.24,3.14c0,4.35,0.62,32.63,0.31,36.98"/>
		<path style="stroke: #09bf09;" id="kvg:0933a-s6" kvg:type="㇔" d="M13.39,65.76c4.08,5.23,6.07,10.89,6.9,13.94"/>
		<path style="stroke: #09bf52;" id="kvg:0933a-s7" kvg:type="㇒" d="M42.7,60.05c0.3,0.84,0.46,2.06,0.34,2.76c-0.3,1.81-2.71,5.13-6.12,10.47"/>
		<path style="stroke: #09bf9a;" id="kvg:0933a-s8" kvg:type="㇀/㇐" d="M11.5,90.31c1.3,0.92,2.87,0.69,4.7,0.23c1.35-0.34,11.74-5.28,25.3-10.79"/>
	</g>
	<g id="kvg:0933a-g2" kvg:element="芳" kvg:position="right">
		<g id="kvg:0933a-g3" kvg:element="艹" kvg:variant="true" kvg:original="艸" kvg:position="top">
			<path style="stroke: #099abf;" id="kvg:0933a-s9" kvg:type="㇐" d="M48.94,27.47c1.15,0.34,2.5,0.4,3.65,0.34c10.61-0.62,31.02-4,43.25-4.05c1.92-0.01,3.08,0.16,4.04,0.33"/>
			<path style="stroke: #0952bf;" id="kvg:0933a-s10" kvg:type="㇑a" d="M59.47,15c1.29,1.43,1.8,1.85,1.83,2.75c0.37,8.75,0.73,12.5,1.29,18.75"/>
			<path style="stroke: #0909bf;" id="kvg:0933a-s11" kvg:type="㇑a" d="M84.06,12.25c0.31,1.18,0.58,2.03,0.37,3.5C83.25,24,82.75,27,81.16,35"/>
		</g>
		<g id="kvg:0933a-g4" kvg:element="方" kvg:position="bottom">
			<g id="kvg:0933a-g5" kvg:element="亠" kvg:position="top">
				<path style="stroke: #5209bf;" id="kvg:0933a-s12" kvg:type="㇑a" d="M70.42,33.27c0.7,0.51,1.85,2.5,1.85,3.53c0,3.77-0.22,6.6-0.09,9.79"/>
				<path style="stroke: #9a09bf;" id="kvg:0933a-s13" kvg:type="㇐" d="M48,48.62c1.26,0.1,4.15,0.69,5.38,0.55c9.93-1.16,28.42-2.91,41.92-3.7c2.08-0.12,3.15,0.05,4.7,0.7"/>
			</g>
			<g id="kvg:0933a-g6" kvg:position="bottom">
				<path style="stroke: #bf099a;" id="kvg:0933a-s14" kvg:type="㇆a" d="M70.76,56.02c5.62,1.98,9.74,3.73,15.07,3.94c2.76,0.11,3.51,1.21,3.36,3.09c-0.4,4.96-9.02,26.29-12.46,30.32C73,97.74,70.75,94.25,69,91.61"/>
				<path style="stroke: #bf0952;" id="kvg:0933a-s15" kvg:type="㇒" d="M70.4,50.77c0.07,0.96,0.29,2.54-0.14,3.88c-2.94,9.26-11.08,28.36-24.28,37.12"/>
			</g>
		</g>
	</g>
</g>
</g>
<g id="kvg:StrokeNumbers_0933a" style="font-size:8;fill:#808080" transform="scale(3.0,3.0)">
	<text style="fill: #bf0909;" transform="matrix(1 0 0 1 23.50 12.50)">1</text>
	<text style="fill: #bf5209;" transform="matrix(1 0 0 1 37.50 21.85)">2</text>
	<text style="fill: #bf9a09;" transform="matrix(1 0 0 1 25.50 38.50)">3</text>
	<text style="fill: #9abf09;" transform="matrix(1 0 0 1 5.50 57.50)">4</text>
	<text style="fill: #52bf09;" transform="matrix(1 0 0 1 21.72 50.50)">5</text>
	<text style="fill: #09bf09;" transform="matrix(1 0 0 1 6.50 66.85)">6</text>
	<text style="fill: #09bf52;" transform="matrix(1 0 0 1 35.50 63.85)">7</text>
	<text style="fill: #09bf9a;" transform="matrix(1 0 0 1 4.50 92.50)">8</text>
	<text style="fill: #099abf;" transform="matrix(1 0 0 1 47.25 24.50)">9</text>
	<text style="fill: #0952bf;" transform="matrix(1 0 0 1 49.50 12.50)">10</text>
	<text style="fill: #0909bf;" transform="matrix(1 0 0 1 72.50 11.50)">11</text>
	<text style="fill: #5209bf;" transform="matrix(1 0 0 1 62.50 43.50)">12</text>
	<text style="fill: #9a09bf;" transform="matrix(1 0 0 1 45.50 45.50)">13</text>
	<text style="fill: #bf099a;" transform="matrix(1 0 0 1 75.50 55.50)">14</text>
	<text style="fill: #bf0952;" transform="matrix(1 0 0 1 58.50 57.50)">15</text>
</g>
</svg>
