<?xml version="1.0" encoding="UTF-8"?>
<!--
This file has been modified from the original version by the kanji_colorize.py
script (available at http://github.com/cayennes/kanji-colorize) with these
settings:
    mode: spectrum
    saturation: 0.95
    value: 0.75
    image_size: 327
It remains under a Creative Commons-Attribution-Share Alike 3.0 License.

The original SVG has the following copyright:

Copyright (C) 2009/2010/2011 Ulrich Apel.
This work is distributed under the conditions of the Creative Commons
Attribution-Share Alike 3.0 Licence. This means you are free:
* to Share - to copy, distribute and transmit the work
* to Remix - to adapt the work

Under the following conditions:
* Attribution. You must attribute the work by stating your use of KanjiVG in
  your own copyright header and linking to KanjiVG's website
  (http://kanjivg.tagaini.net)
* Share Alike. If you alter, transform, or build upon this work, you may
  distribute the resulting work only under the same or similar license to this
  one.

See http://creativecommons.org/licenses/by-sa/3.0/ for more details.
-->
<!DOCTYPE svg PUBLIC "-//W3C//DTD SVG 1.0//EN" "http://www.w3.org/TR/2001/REC-SVG-20010904/DTD/svg10.dtd" [
<!ATTLIST g
xmlns:kvg CDATA #FIXED "http://kanjivg.tagaini.net"
kvg:element CDATA #IMPLIED
kvg:variant CDATA #IMPLIED
kvg:partial CDATA #IMPLIED
kvg:original CDATA #IMPLIED
kvg:part CDATA #IMPLIED
kvg:number CDATA #IMPLIED
kvg:tradForm CDATA #IMPLIED
kvg:radicalForm CDATA #IMPLIED
kvg:position CDATA #IMPLIED
kvg:radical CDATA #IMPLIED
kvg:phon CDATA #IMPLIED >
<!ATTLIST path
xmlns:kvg CDATA #FIXED "http://kanjivg.tagaini.net"
kvg:type CDATA #IMPLIED >
]>
<svg xmlns="http://www.w3.org/2000/svg" width="327" height = "327" viewBox="0 0 327 327">
<g id="kvg:StrokePaths_0935c" style="fill:none;stroke:#000000;stroke-width:3;stroke-linecap:round;stroke-linejoin:round;" transform="scale(3.0,3.0)">
<g id="kvg:0935c" kvg:element="鍜">
	<g id="kvg:0935c-g1" kvg:element="金" kvg:position="left" kvg:radical="general">
		<path style="stroke: #bf0909;" id="kvg:0935c-s1" kvg:type="㇒" d="M29.25,13.49c0,0.78,0.05,1.4-0.15,2.33c-1.04,4.87-10.92,21.1-19.38,28.3"/>
		<path style="stroke: #bf4909;" id="kvg:0935c-s2" kvg:type="㇔/㇏" d="M30.89,20.46C35,22.25,40.25,27,42.25,31.5"/>
		<path style="stroke: #bf8909;" id="kvg:0935c-s3" kvg:type="㇐" d="M17.75,40c1.75,0,2.55,0.09,3.12,0.06c5.06-0.31,10.91-1.03,16.87-1.25c0.86-0.03,1.05-0.05,2.51-0.05"/>
		<path style="stroke: #b4bf09;" id="kvg:0935c-s4" kvg:type="㇐" d="M12.59,54.31c0.59,0.33,2.56,0.4,3.17,0.43c6.49,0.26,15.49-1.24,22.78-2.17c0.74-0.09,2.38-0.13,3.49,0.15"/>
		<path style="stroke: #74bf09;" id="kvg:0935c-s5" kvg:type="㇑a" d="M26.95,42.19c1.24,0.78,1.24,2.52,1.24,3.14c0,4.35,0.31,36.17,0.31,41.48"/>
		<path style="stroke: #34bf09;" id="kvg:0935c-s6" kvg:type="㇔" d="M12.89,66.51c4.67,5.51,6.95,11.47,7.9,14.69"/>
		<path style="stroke: #09bf1e;" id="kvg:0935c-s7" kvg:type="㇒" d="M40.29,61.05c0.23,0.71,0.35,1.75,0.26,2.35c-0.23,1.54-3.55,6.36-6.13,10.88"/>
		<path style="stroke: #09bf5f;" id="kvg:0935c-s8" kvg:type="㇀/㇐" d="M12.5,91.75c1.5,1,2.25,1.5,4.5,0.75c1.28-0.43,10.75-4.75,23.75-10.75"/>
	</g>
	<g id="kvg:0935c-g2" kvg:position="right">
		<g id="kvg:0935c-g3" kvg:position="left">
			<path style="stroke: #09bf9f;" id="kvg:0935c-s9" kvg:type="㇑" d="M48.81,16.87c5.07-1,8.16-1.48,14.92-2.5c1.49-0.22,2.39,1.04,2.18,2.06c-0.89,4.25-1.66,16.57-2.24,21.28"/>
			<path style="stroke: #099fbf;" id="kvg:0935c-s10" kvg:type="㇕" d="M48.47,39.05c4.8-0.54,12.78-0.8,17.19-1.31"/>
			<path style="stroke: #095fbf;" id="kvg:0935c-s11" kvg:type="㇐" d="M46.64,15.4c0.86,0.85,1.75,2.31,1.86,3.64c0,15.96,0,70.21-0.25,78.21"/>
			<path style="stroke: #091ebf;" id="kvg:0935c-s12" kvg:type="㇐" d="M48.47,57.3c3.82-0.43,8.48-1.13,13.06-1.86c1.17-0.19,2.24,0.16,3.14,0.05"/>
			<path style="stroke: #3409bf;" id="kvg:0935c-s13" kvg:type="㇐" d="M48.72,76.05c3.82-0.43,9.48-1.13,14.06-1.86c1.17-0.19,2.24,0.16,3.14,0.05"/>
		</g>
		<g id="kvg:0935c-g4" kvg:position="right">
			<path style="stroke: #7409bf;" id="kvg:0935c-s14" kvg:type="㇕" d="M71.81,15.12c0.94,0.13,3.1,0.4,4.2,0.29c5.29-0.56,10.31-1.04,15.22-1.79c1.49-0.22,2.39,1.04,2.18,2.06c-0.89,4.25-1.91,11.82-2.24,17.78"/>
			<path style="stroke: #b409bf;" id="kvg:0935c-s15" kvg:type="㇐" d="M72.47,34.8c1.28,0.2,2.02,0.26,3.3,0.09c5.54-0.74,15.8-0.98,19.4-1.39"/>
			<g id="kvg:0935c-g5" kvg:element="又">
				<path style="stroke: #bf0989;" id="kvg:0935c-s16" kvg:type="㇇" d="M70.66,48.86c1.17,0.29,1.29,0.48,3.67,0.29c5.17-0.41,15.23-2.76,16.85-3.2s2.79,1.61,2.2,3.23C86.48,68.27,75.75,85.25,62.08,94"/>
				<path style="stroke: #bf0949;" id="kvg:0935c-s17" kvg:type="㇏" d="M71.25,55.25c2.21,0.92,13.02,25.67,20.73,35.81c1.2,1.58,2.07,2.63,3.19,3.16"/>
			</g>
		</g>
	</g>
</g>
</g>
<g id="kvg:StrokeNumbers_0935c" style="font-size:8;fill:#808080" transform="scale(3.0,3.0)">
	<text style="fill: #bf0909;" transform="matrix(1 0 0 1 21.50 12.50)">1</text>
	<text style="fill: #bf4909;" transform="matrix(1 0 0 1 33.25 19.55)">2</text>
	<text style="fill: #bf8909;" transform="matrix(1 0 0 1 23.50 36.50)">3</text>
	<text style="fill: #b4bf09;" transform="matrix(1 0 0 1 5.50 55.50)">4</text>
	<text style="fill: #74bf09;" transform="matrix(1 0 0 1 21.25 49.50)">5</text>
	<text style="fill: #34bf09;" transform="matrix(1 0 0 1 6.50 66.50)">6</text>
	<text style="fill: #09bf1e;" transform="matrix(1 0 0 1 32.50 62.50)">7</text>
	<text style="fill: #09bf5f;" transform="matrix(1 0 0 1 5.50 93.50)">8</text>
	<text style="fill: #09bf9f;" transform="matrix(1 0 0 1 49.50 13.50)">9</text>
	<text style="fill: #099fbf;" transform="matrix(1 0 0 1 51.50 35.50)">10</text>
	<text style="fill: #095fbf;" transform="matrix(1 0 0 1 39.50 23.50)">11</text>
	<text style="fill: #091ebf;" transform="matrix(1 0 0 1 51.50 53.50)">12</text>
	<text style="fill: #3409bf;" transform="matrix(1 0 0 1 51.50 71.50)">13</text>
	<text style="fill: #7409bf;" transform="matrix(1 0 0 1 70.50 12.50)">14</text>
	<text style="fill: #b409bf;" transform="matrix(1 0 0 1 69.50 31.50)">15</text>
	<text style="fill: #bf0989;" transform="matrix(1 0 0 1 69.50 45.50)">16</text>
	<text style="fill: #bf0949;" transform="matrix(1 0 0 1 65.50 65.50)">17</text>
</g>
</svg>
