<?xml version="1.0" encoding="UTF-8"?>
<!--
This file has been modified from the original version by the kanji_colorize.py
script (available at http://github.com/cayennes/kanji-colorize) with these
settings:
    mode: spectrum
    saturation: 0.95
    value: 0.75
    image_size: 327
It remains under a Creative Commons-Attribution-Share Alike 3.0 License.

The original SVG has the following copyright:

Copyright (C) 2009/2010/2011 Ulrich Apel.
This work is distributed under the conditions of the Creative Commons
Attribution-Share Alike 3.0 Licence. This means you are free:
* to Share - to copy, distribute and transmit the work
* to Remix - to adapt the work

Under the following conditions:
* Attribution. You must attribute the work by stating your use of KanjiVG in
  your own copyright header and linking to KanjiVG's website
  (http://kanjivg.tagaini.net)
* Share Alike. If you alter, transform, or build upon this work, you may
  distribute the resulting work only under the same or similar license to this
  one.

See http://creativecommons.org/licenses/by-sa/3.0/ for more details.
-->
<!DOCTYPE svg PUBLIC "-//W3C//DTD SVG 1.0//EN" "http://www.w3.org/TR/2001/REC-SVG-20010904/DTD/svg10.dtd" [
<!ATTLIST g
xmlns:kvg CDATA #FIXED "http://kanjivg.tagaini.net"
kvg:element CDATA #IMPLIED
kvg:variant CDATA #IMPLIED
kvg:partial CDATA #IMPLIED
kvg:original CDATA #IMPLIED
kvg:part CDATA #IMPLIED
kvg:number CDATA #IMPLIED
kvg:tradForm CDATA #IMPLIED
kvg:radicalForm CDATA #IMPLIED
kvg:position CDATA #IMPLIED
kvg:radical CDATA #IMPLIED
kvg:phon CDATA #IMPLIED >
<!ATTLIST path
xmlns:kvg CDATA #FIXED "http://kanjivg.tagaini.net"
kvg:type CDATA #IMPLIED >
]>
<svg xmlns="http://www.w3.org/2000/svg" width="327" height = "327" viewBox="0 0 327 327">
<g id="kvg:StrokePaths_093c8" style="fill:none;stroke:#000000;stroke-width:3;stroke-linecap:round;stroke-linejoin:round;" transform="scale(3.0,3.0)">
<g id="kvg:093c8" kvg:element="鏈">
	<g id="kvg:093c8-g1" kvg:element="金" kvg:position="left" kvg:radical="general">
		<path style="stroke: #bf0909;" id="kvg:093c8-s1" kvg:type="㇒" d="M26.75,15.24c0,0.75,0.05,1.34-0.14,2.24c-1,4.67-10.5,20.24-18.63,27.15"/>
		<path style="stroke: #bf4209;" id="kvg:093c8-s2" kvg:type="㇔/㇏" d="M27.39,21.71c3.93,1.91,8.95,6.98,10.86,11.79"/>
		<path style="stroke: #bf7c09;" id="kvg:093c8-s3" kvg:type="㇐" d="M15.5,41.5c1.5,0,2.18,0.09,2.67,0.06C22.5,41.24,27,40.03,32.1,39.8c0.74-0.03,0.9-0.05,2.15-0.05"/>
		<path style="stroke: #bfb509;" id="kvg:093c8-s4" kvg:type="㇐" d="M9.59,55.81c0.59,0.33,2.56,0.48,3.17,0.43c5.49-0.49,14.74-1.99,21.78-2.67c0.74-0.07,2.38-0.13,3.49,0.15"/>
		<path style="stroke: #8fbf09;" id="kvg:093c8-s5" kvg:type="㇑a" d="M23.95,42.69c1.24,0.78,1.24,2.52,1.24,3.14c0,4.35,0.62,34.63,0.31,38.98"/>
		<path style="stroke: #56bf09;" id="kvg:093c8-s6" kvg:type="㇔" d="M10.64,66.26c3.63,4.85,5.41,10.11,6.15,12.94"/>
		<path style="stroke: #1cbf09;" id="kvg:093c8-s7" kvg:type="㇒" d="M36.73,62.55c0.28,0.74,0.42,1.82,0.32,2.45c-0.28,1.61-2.49,4.55-5.63,9.28"/>
		<path style="stroke: #09bf2f;" id="kvg:093c8-s8" kvg:type="㇀/㇐" d="M9.5,90.25c1.25,1,2.75,0.75,4.5,0.25c1.29-0.37,11.25-5.75,24.25-11.75"/>
	</g>
	<g id="kvg:093c8-g2" kvg:element="連" kvg:variant="true" kvg:position="right">
		<g id="kvg:093c8-g3" kvg:element="車">
			<path style="stroke: #09bf69;" id="kvg:093c8-s9" kvg:type="㇐" d="M59.62,26.05c0.85,0.31,2.41,0.32,3.26,0.31c8.4-0.12,17.24-1.83,29.31-2.65c1.42-0.1,2.27,0.15,2.98,0.31"/>
			<path style="stroke: #09bfa2;" id="kvg:093c8-s10" kvg:type="㇑" d="M60.76,36.98c0.48,0.41,1.09,0.73,1.18,1.27c0.65,3.94,2.53,14.52,3.44,21.98"/>
			<path style="stroke: #09a2bf;" id="kvg:093c8-s11" kvg:type="㇕a" d="M62.6,38.48c7.27-0.79,24.19-3.59,29.16-3.71c2.05-0.05,2.47,1.52,2.39,2.75c-0.3,4.24-1.78,13.83-3.41,20.78"/>
			<path style="stroke: #0969bf;" id="kvg:093c8-s12" kvg:type="㇐a" d="M64.68,48.31c7.22-0.81,18.67-2.56,28.27-3.07"/>
			<path style="stroke: #092fbf;" id="kvg:093c8-s13" kvg:type="㇐a" d="M65.42,59c6.37-0.82,17.39-2.4,25.69-2.4"/>
			<path style="stroke: #1c09bf;" id="kvg:093c8-s14" kvg:type="㇐" d="M59.57,70.15c0.87,0.43,2.46,0.54,3.34,0.43c11.18-1.3,21.99-2.59,32.28-2.87c1.46-0.04,2.33,0.21,3.05,0.42"/>
			<path style="stroke: #5609bf;" id="kvg:093c8-s15" kvg:type="㇑" d="M75.69,12.38c0.45,0.49,1.4,3.66,1.49,4.63c0.09,0.98-0.06,64.51-0.15,70.62"/>
		</g>
		<g id="kvg:093c8-g4" kvg:element="辶" kvg:position="nyo">
			<path style="stroke: #8f09bf;" id="kvg:093c8-s16" kvg:type="㇔" d="M44.87,16.5c3.04,1.74,7.86,7.17,8.62,9.88"/>
			<path style="stroke: #bf09b5;" id="kvg:093c8-s17" kvg:type="㇔" d="M43.87,38c3.22,1.52,8.32,6.26,9.12,8.63"/>
			<path style="stroke: #bf097c;" id="kvg:093c8-s18" kvg:type="㇋" d="M42,63.2c1.69,0.73,2.81,0.36,3.56,0.18c0.75-0.18,6-4.04,7.13-4.4c1.13-0.36,2.81,0.91,2.06,1.99c-0.75,1.09-3.5,6.26-4.06,7.17c-0.56,0.91-0.38,2.54,0.75,3.81c1.13,1.27,3.06,2.72,3.63,3.81c0.56,1.09,0.56,2-0.56,2.9c-1.13,0.91-7.25,5.98-8.38,6.35"/>
			<path style="stroke: #bf0942;" id="kvg:093c8-s19" kvg:type="㇏" d="M40.55,86.75c2.26-0.39,6.78-1.36,10.17-0.58c3.39,0.78,22.66,5.98,25.99,6.98c9.04,2.71,10.95,2.33,17.54,3.1"/>
		</g>
	</g>
</g>
</g>
<g id="kvg:StrokeNumbers_093c8" style="font-size:8;fill:#808080" transform="scale(3.0,3.0)">
	<text style="fill: #bf0909;" transform="matrix(1 0 0 1 18.50 13.50)">1</text>
	<text style="fill: #bf4209;" transform="matrix(1 0 0 1 30.50 21.85)">2</text>
	<text style="fill: #bf7c09;" transform="matrix(1 0 0 1 20.50 38.50)">3</text>
	<text style="fill: #bfb509;" transform="matrix(1 0 0 1 2.50 55.50)">4</text>
	<text style="fill: #8fbf09;" transform="matrix(1 0 0 1 17.50 50.50)">5</text>
	<text style="fill: #56bf09;" transform="matrix(1 0 0 1 3.50 65.50)">6</text>
	<text style="fill: #1cbf09;" transform="matrix(1 0 0 1 30.50 64.50)">7</text>
	<text style="fill: #09bf2f;" transform="matrix(1 0 0 1 2.50 91.50)">8</text>
	<text style="fill: #09bf69;" transform="matrix(1 0 0 1 57.50 23.50)">9</text>
	<text style="fill: #09bfa2;" transform="matrix(1 0 0 1 51.75 40.50)">10</text>
	<text style="fill: #09a2bf;" transform="matrix(1 0 0 1 62.50 35.50)">11</text>
	<text style="fill: #0969bf;" transform="matrix(1 0 0 1 65.75 45.50)">12</text>
	<text style="fill: #092fbf;" transform="matrix(1 0 0 1 66.75 55.50)">13</text>
	<text style="fill: #1c09bf;" transform="matrix(1 0 0 1 57.50 67.50)">14</text>
	<text style="fill: #5609bf;" transform="matrix(1 0 0 1 69.75 8.58)">15</text>
	<text style="fill: #8f09bf;" transform="matrix(1 0 0 1 41.50 14.50)">16</text>
	<text style="fill: #bf09b5;" transform="matrix(1 0 0 1 40.50 35.50)">17</text>
	<text style="fill: #bf097c;" transform="matrix(1 0 0 1 39.75 60.50)">18</text>
	<text style="fill: #bf0942;" transform="matrix(1 0 0 1 38.50 83.50)">19</text>
</g>
</svg>
