<?xml version="1.0" encoding="UTF-8"?>
<!--
This file has been modified from the original version by the kanji_colorize.py
script (available at http://github.com/cayennes/kanji-colorize) with these
settings:
    mode: spectrum
    saturation: 0.95
    value: 0.75
    image_size: 327
It remains under a Creative Commons-Attribution-Share Alike 3.0 License.

The original SVG has the following copyright:

Copyright (C) 2009/2010/2011 Ulrich Apel.
This work is distributed under the conditions of the Creative Commons
Attribution-Share Alike 3.0 Licence. This means you are free:
* to Share - to copy, distribute and transmit the work
* to Remix - to adapt the work

Under the following conditions:
* Attribution. You must attribute the work by stating your use of KanjiVG in
  your own copyright header and linking to KanjiVG's website
  (http://kanjivg.tagaini.net)
* Share Alike. If you alter, transform, or build upon this work, you may
  distribute the resulting work only under the same or similar license to this
  one.

See http://creativecommons.org/licenses/by-sa/3.0/ for more details.
-->
<!DOCTYPE svg PUBLIC "-//W3C//DTD SVG 1.0//EN" "http://www.w3.org/TR/2001/REC-SVG-20010904/DTD/svg10.dtd" [
<!ATTLIST g
xmlns:kvg CDATA #FIXED "http://kanjivg.tagaini.net"
kvg:element CDATA #IMPLIED
kvg:variant CDATA #IMPLIED
kvg:partial CDATA #IMPLIED
kvg:original CDATA #IMPLIED
kvg:part CDATA #IMPLIED
kvg:number CDATA #IMPLIED
kvg:tradForm CDATA #IMPLIED
kvg:radicalForm CDATA #IMPLIED
kvg:position CDATA #IMPLIED
kvg:radical CDATA #IMPLIED
kvg:phon CDATA #IMPLIED >
<!ATTLIST path
xmlns:kvg CDATA #FIXED "http://kanjivg.tagaini.net"
kvg:type CDATA #IMPLIED >
]>
<svg xmlns="http://www.w3.org/2000/svg" width="327" height = "327" viewBox="0 0 327 327">
<g id="kvg:StrokePaths_093dd" style="fill:none;stroke:#000000;stroke-width:3;stroke-linecap:round;stroke-linejoin:round;" transform="scale(3.0,3.0)">
<g id="kvg:093dd" kvg:element="鏝">
	<g id="kvg:093dd-g1" kvg:element="金" kvg:position="left" kvg:radical="general">
		<path style="stroke: #bf0909;" id="kvg:093dd-s1" kvg:type="㇒" d="M30.75,12.74c0,0.84,0.05,1.51-0.15,2.53c-1.07,5.26-11.2,22.82-19.87,30.61"/>
		<path style="stroke: #bf4209;" id="kvg:093dd-s2" kvg:type="㇔/㇏" d="M32.39,20.96c4.47,2.43,10.18,8.9,12.36,15.04"/>
		<path style="stroke: #bf7c09;" id="kvg:093dd-s3" kvg:type="㇐" d="M18.5,42.5c1.77,0,2.58,0.09,3.15,0.06c5.12-0.31,11.03-1.53,17.06-1.75c0.87-0.03,1.06-0.05,2.54-0.05"/>
		<path style="stroke: #bfb509;" id="kvg:093dd-s4" kvg:type="㇐" d="M11.09,57.31c0.68,0.33,2.93,0.48,3.63,0.43c6.29-0.49,18.02-2.49,26.07-2.67c0.85-0.02,2.72-0.13,3.99,0.15"/>
		<path style="stroke: #8fbf09;" id="kvg:093dd-s5" kvg:type="㇑a" d="M27.45,44.69c1.24,0.78,1.24,2.52,1.24,3.14c0,4.35,0.62,34.63,0.31,38.98"/>
		<path style="stroke: #56bf09;" id="kvg:093dd-s6" kvg:type="㇔" d="M13.89,68.76c3.78,5.23,5.63,10.89,6.4,13.94"/>
		<path style="stroke: #1cbf09;" id="kvg:093dd-s7" kvg:type="㇒" d="M41.65,63.05c0.34,0.84,0.52,2.06,0.38,2.76c-0.34,1.81-3.04,5.13-6.87,10.47"/>
		<path style="stroke: #09bf2f;" id="kvg:093dd-s8" kvg:type="㇀/㇐" d="M12.5,92.75c1.25,1,2.75,0.75,4.5,0.25c1.29-0.37,11.25-5.75,24.25-11.75"/>
	</g>
	<g id="kvg:093dd-g2" kvg:element="曼" kvg:position="right">
		<g id="kvg:093dd-g3" kvg:element="日" kvg:position="top">
			<path style="stroke: #09bf69;" id="kvg:093dd-s9" kvg:type="㇑" d="M56.91,15.14c0.19,0.36,0.19,0.62,0.3,1.08c0.85,3.78,2.65,15.34,3.17,22.4"/>
			<path style="stroke: #09bfa2;" id="kvg:093dd-s10" kvg:type="㇕a" d="M57.79,16.15c6.58-0.95,18.31-1.07,23.22-1.87c1.8-0.29,2.79,0.97,2.63,3.28c-0.26,3.83-1.82,13.21-2.65,19.59"/>
			<path style="stroke: #09a2bf;" id="kvg:093dd-s11" kvg:type="㇐a" d="M59.02,26.94c2.14-0.37,21.75-2.1,23.52-2.26"/>
			<path style="stroke: #0969bf;" id="kvg:093dd-s12" kvg:type="㇐a" d="M60.72,36.59C65.45,36.19,75,35.25,81,34.83"/>
		</g>
		<g id="kvg:093dd-g4" kvg:position="bottom">
			<g id="kvg:093dd-g5" kvg:element="罒" kvg:variant="true" kvg:original="网">
				<path style="stroke: #092fbf;" id="kvg:093dd-s13" kvg:type="㇑" d="M50.1,44.78c0.22,0.28,0.45,0.52,0.55,0.87c0.78,2.79,2.61,10.46,3.14,15.47"/>
				<path style="stroke: #1c09bf;" id="kvg:093dd-s14" kvg:type="㇕a" d="M51.18,46.17c4.94-1.09,38.1-2.99,40.73-3.36c0.96-0.13,2.26,0.94,2,2.51c-0.54,3.27-2.85,8.88-4.28,13.55"/>
				<path style="stroke: #5609bf;" id="kvg:093dd-s15" kvg:type="㇑a" d="M65.08,45.61c0.15,1.86,0.59,10.41,0.74,12.5"/>
				<path style="stroke: #8f09bf;" id="kvg:093dd-s16" kvg:type="㇑a" d="M77.44,44.45c-0.15,3.02-0.1,9.41-0.4,12.77"/>
				<path style="stroke: #bf09b5;" id="kvg:093dd-s17" kvg:type="㇐a" d="M54.49,59.11c3.08-0.41,31.26-1.99,35.49-2.62"/>
			</g>
			<g id="kvg:093dd-g6" kvg:element="又">
				<path style="stroke: #bf097c;" id="kvg:093dd-s18" kvg:type="㇇" d="M54.35,69.25c1.21,0.28,1.36,0.7,3.77,0.28c2.41-0.42,24.49-2.59,26.15-3.01c1.66-0.42,3,1.76,1.61,3.53C75.25,83.5,59,92.26,44.27,98"/>
				<path style="stroke: #bf0942;" id="kvg:093dd-s19" kvg:type="㇏" d="M53.9,74.44c3.8,0.54,22.37,15.01,35.61,20.94c2.06,0.92,3.56,1.54,5.48,1.85"/>
			</g>
		</g>
	</g>
</g>
</g>
<g id="kvg:StrokeNumbers_093dd" style="font-size:8;fill:#808080" transform="scale(3.0,3.0)">
	<text style="fill: #bf0909;" transform="matrix(1 0 0 1 23.50 12.50)">1</text>
	<text style="fill: #bf4209;" transform="matrix(1 0 0 1 35.50 21.85)">2</text>
	<text style="fill: #bf7c09;" transform="matrix(1 0 0 1 23.50 39.50)">3</text>
	<text style="fill: #bfb509;" transform="matrix(1 0 0 1 4.50 57.50)">4</text>
	<text style="fill: #8fbf09;" transform="matrix(1 0 0 1 21.72 52.50)">5</text>
	<text style="fill: #56bf09;" transform="matrix(1 0 0 1 7.50 68.50)">6</text>
	<text style="fill: #1cbf09;" transform="matrix(1 0 0 1 34.50 65.50)">7</text>
	<text style="fill: #09bf2f;" transform="matrix(1 0 0 1 5.50 94.50)">8</text>
	<text style="fill: #09bf69;" transform="matrix(1 0 0 1 50.50 21.50)">9</text>
	<text style="fill: #09bfa2;" transform="matrix(1 0 0 1 64.25 12.95)">10</text>
	<text style="fill: #09a2bf;" transform="matrix(1 0 0 1 61.50 23.50)">11</text>
	<text style="fill: #0969bf;" transform="matrix(1 0 0 1 62.50 33.80)">12</text>
	<text style="fill: #092fbf;" transform="matrix(1 0 0 1 41.50 51.50)">13</text>
	<text style="fill: #1c09bf;" transform="matrix(1 0 0 1 51.50 43.50)">14</text>
	<text style="fill: #5609bf;" transform="matrix(1 0 0 1 67.25 52.50)">15</text>
	<text style="fill: #8f09bf;" transform="matrix(1 0 0 1 80.50 51.50)">16</text>
	<text style="fill: #bf09b5;" transform="matrix(1 0 0 1 55.25 56.50)">17</text>
	<text style="fill: #bf097c;" transform="matrix(1 0 0 1 53.50 67.50)">18</text>
	<text style="fill: #bf0942;" transform="matrix(1 0 0 1 49.50 82.50)">19</text>
</g>
</svg>
