<?xml version="1.0" encoding="UTF-8"?>
<!--
This file has been modified from the original version by the kanji_colorize.py
script (available at http://github.com/cayennes/kanji-colorize) with these
settings:
    mode: spectrum
    saturation: 0.95
    value: 0.75
    image_size: 327
It remains under a Creative Commons-Attribution-Share Alike 3.0 License.

The original SVG has the following copyright:

Copyright (C) 2009/2010/2011 Ulrich Apel.
This work is distributed under the conditions of the Creative Commons
Attribution-Share Alike 3.0 Licence. This means you are free:
* to Share - to copy, distribute and transmit the work
* to Remix - to adapt the work

Under the following conditions:
* Attribution. You must attribute the work by stating your use of KanjiVG in
  your own copyright header and linking to KanjiVG's website
  (http://kanjivg.tagaini.net)
* Share Alike. If you alter, transform, or build upon this work, you may
  distribute the resulting work only under the same or similar license to this
  one.

See http://creativecommons.org/licenses/by-sa/3.0/ for more details.
-->
<!DOCTYPE svg PUBLIC "-//W3C//DTD SVG 1.0//EN" "http://www.w3.org/TR/2001/REC-SVG-20010904/DTD/svg10.dtd" [
<!ATTLIST g
xmlns:kvg CDATA #FIXED "http://kanjivg.tagaini.net"
kvg:element CDATA #IMPLIED
kvg:variant CDATA #IMPLIED
kvg:partial CDATA #IMPLIED
kvg:original CDATA #IMPLIED
kvg:part CDATA #IMPLIED
kvg:number CDATA #IMPLIED
kvg:tradForm CDATA #IMPLIED
kvg:radicalForm CDATA #IMPLIED
kvg:position CDATA #IMPLIED
kvg:radical CDATA #IMPLIED
kvg:phon CDATA #IMPLIED >
<!ATTLIST path
xmlns:kvg CDATA #FIXED "http://kanjivg.tagaini.net"
kvg:type CDATA #IMPLIED >
]>
<svg xmlns="http://www.w3.org/2000/svg" width="327" height = "327" viewBox="0 0 327 327">
<g id="kvg:StrokePaths_0945a" style="fill:none;stroke:#000000;stroke-width:3;stroke-linecap:round;stroke-linejoin:round;" transform="scale(3.0,3.0)">
<g id="kvg:0945a" kvg:element="鑚">
	<g id="kvg:0945a-g1" kvg:element="金" kvg:position="left" kvg:radical="general">
		<path style="stroke: #bf0909;" id="kvg:0945a-s1" kvg:type="㇒" d="M28.75,14.74c0,0.79,0.05,1.42-0.14,2.37c-1,4.94-10.5,21.44-18.63,28.76"/>
		<path style="stroke: #bf3809;" id="kvg:0945a-s2" kvg:type="㇔/㇏" d="M29.89,21.46c4.47,2.03,10.18,7.42,12.36,12.54"/>
		<path style="stroke: #bf6809;" id="kvg:0945a-s3" kvg:type="㇐" d="M18,41.14c1.58,0,2.29,0.12,2.81,0.07c4.56-0.41,9.82-2.01,15.19-2.3c0.78-0.04,0.94-0.07,2.26-0.07"/>
		<path style="stroke: #bf9709;" id="kvg:0945a-s4" kvg:type="㇐" d="M10.59,55.81c0.59,0.33,2.56,0.48,3.17,0.43c5.49-0.49,17.74-2.74,24.78-3.67c0.74-0.1,2.38-0.13,3.49,0.15"/>
		<path style="stroke: #b7bf09;" id="kvg:0945a-s5" kvg:type="㇑a" d="M25.95,40.69c1.24,0.78,1.24,2.52,1.24,3.14c0,4.35,0.62,36.13,0.31,40.48"/>
		<path style="stroke: #87bf09;" id="kvg:0945a-s6" kvg:type="㇔" d="M11.39,65.26c3.78,5.04,5.63,10.5,6.4,13.44"/>
		<path style="stroke: #58bf09;" id="kvg:0945a-s7" kvg:type="㇒" d="M39.7,60.55c0.3,0.84,0.46,2.06,0.34,2.76c-0.3,1.81-3.29,5.94-8.62,10.97"/>
		<path style="stroke: #29bf09;" id="kvg:0945a-s8" kvg:type="㇀/㇐" d="M10.5,89.81c1.26,0.92,2.77,0.69,4.54,0.23c1.31-0.34,11.35-5.28,24.46-10.79"/>
	</g>
	<g id="kvg:0945a-g2" kvg:element="賛" kvg:position="right">
		<g id="kvg:0945a-g3" kvg:position="top">
			<g id="kvg:0945a-g4" kvg:element="夫" kvg:variant="true" kvg:position="left">
				<path style="stroke: #09bf19;" id="kvg:0945a-s9" kvg:type="㇐" d="M48.07,23.07c0.53,0.17,1.48,0.17,2.02,0.17c5.93,0.01,10.42-1.99,15.43-2.22c0.88-0.04,1.4,0.08,1.84,0.17"/>
				<g id="kvg:0945a-g5" kvg:element="大" kvg:variant="true">
					<path style="stroke: #09bf48;" id="kvg:0945a-s10" kvg:type="㇐" d="M46.72,32.82c0.52,0.17,1.46,0.17,1.97,0.17C53.25,33,62,31.5,66.3,30.88c0.85-0.12,1.37,0.08,1.8,0.17"/>
					<path style="stroke: #09bf78;" id="kvg:0945a-s11" kvg:type="㇒" d="M57.93,13.5c0.19,0.54,0.26,1.05,0.26,2.1C58.24,31.69,55,41.5,47.15,49"/>
					<path style="stroke: #09bfa7;" id="kvg:0945a-s12" kvg:type="㇔/㇏" d="M57.1,35.63c3.88,1.64,8.09,6.78,9.59,9.31"/>
				</g>
			</g>
			<g id="kvg:0945a-g6" kvg:element="夫" kvg:position="right">
				<path style="stroke: #09a7bf;" id="kvg:0945a-s13" kvg:type="㇐" d="M73.26,20.75c0.5,0.16,1.41,0.15,1.92,0.16C79.99,21,87.42,20,92.5,19.33c0.82-0.11,1.33,0.07,1.75,0.15"/>
				<g id="kvg:0945a-g7" kvg:element="大">
					<path style="stroke: #0978bf;" id="kvg:0945a-s14" kvg:type="㇐" d="M71.98,30.7c0.53,0.16,1.99,0.67,2.53,0.66c4.91-0.11,14.58-1.95,19.35-1.89c0.88,0.01,1.41,0.07,1.85,0.15"/>
					<path style="stroke: #0948bf;" id="kvg:0945a-s15" kvg:type="㇒" d="M82.31,12.75c0.23,0.51,0.31,0.98,0.32,1.97c0.09,18.17-4.13,25.03-10.4,30.78"/>
					<path style="stroke: #0919bf;" id="kvg:0945a-s16" kvg:type="㇏" d="M81.67,31.42c3.19,4.1,9.1,11.4,12.36,13.11c1.1,0.57,1.28,0.98,1.71,1.06"/>
				</g>
			</g>
		</g>
		<g id="kvg:0945a-g8" kvg:element="貝" kvg:position="bottom">
			<g id="kvg:0945a-g9" kvg:element="目" kvg:position="top">
				<path style="stroke: #2909bf;" id="kvg:0945a-s17" kvg:type="㇑" d="M55.12,49.21c0.47,0.7,1.17,2.23,1.17,3.17c0,0.94,0.18,26.28,0.18,26.75"/>
				<path style="stroke: #5809bf;" id="kvg:0945a-s18" kvg:type="㇕a" d="M57.08,51c2.69-0.12,23.17-2.62,25.62-2.76c2.04-0.12,3.48,0.51,3.48,3.02c0,1.12-0.45,26.59-0.45,27.29"/>
				<path style="stroke: #8709bf;" id="kvg:0945a-s19" kvg:type="㇐a" d="M57.03,59.39c3.84,0,24.28-1.9,28.59-1.9"/>
				<path style="stroke: #b709bf;" id="kvg:0945a-s20" kvg:type="㇐a" d="M56.75,68.02c5.34,0,22.14-1.41,29.06-1.41"/>
				<path style="stroke: #bf0997;" id="kvg:0945a-s21" kvg:type="㇐a" d="M56.45,77.97c5.34,0,22.14-1.41,29.05-1.41"/>
			</g>
			<g id="kvg:0945a-g10" kvg:position="bottom">
				<path style="stroke: #bf0968;" id="kvg:0945a-s22" kvg:type="㇒" d="M60.02,82.37c0.48,1.18-0.05,2.5-1,3.36c-2.86,2.59-10.68,7.96-16.41,11.02"/>
				<path style="stroke: #bf0938;" id="kvg:0945a-s23" kvg:type="㇔" d="M77.31,82.52c6.48,3.96,14.15,11.13,15.92,14.59"/>
			</g>
		</g>
	</g>
</g>
</g>
<g id="kvg:StrokeNumbers_0945a" style="font-size:8;fill:#808080" transform="scale(3.0,3.0)">
	<text style="fill: #bf0909;" transform="matrix(1 0 0 1 20.85 14.50)">1</text>
	<text style="fill: #bf3809;" transform="matrix(1 0 0 1 34.50 21.50)">2</text>
	<text style="fill: #bf6809;" transform="matrix(1 0 0 1 23.50 37.50)">3</text>
	<text style="fill: #bf9709;" transform="matrix(1 0 0 1 3.50 55.50)">4</text>
	<text style="fill: #b7bf09;" transform="matrix(1 0 0 1 20.50 50.50)">5</text>
	<text style="fill: #87bf09;" transform="matrix(1 0 0 1 4.50 66.85)">6</text>
	<text style="fill: #58bf09;" transform="matrix(1 0 0 1 32.50 62.50)">7</text>
	<text style="fill: #29bf09;" transform="matrix(1 0 0 1 3.50 91.50)">8</text>
	<text style="fill: #09bf19;" transform="matrix(1 0 0 1 45.25 20.50)">9</text>
	<text style="fill: #09bf48;" transform="matrix(1 0 0 1 44.50 30.50)">10</text>
	<text style="fill: #09bf78;" transform="matrix(1 0 0 1 50.50 9.88)">11</text>
	<text style="fill: #09bfa7;" transform="matrix(1 0 0 1 63.50 38.50)">12</text>
	<text style="fill: #09a7bf;" transform="matrix(1 0 0 1 69.25 17.50)">13</text>
	<text style="fill: #0978bf;" transform="matrix(1 0 0 1 69.25 28.50)">14</text>
	<text style="fill: #0948bf;" transform="matrix(1 0 0 1 76.50 9.50)">15</text>
	<text style="fill: #0919bf;" transform="matrix(1 0 0 1 90.50 38.50)">16</text>
	<text style="fill: #2909bf;" transform="matrix(1 0 0 1 46.25 57.50)">17</text>
	<text style="fill: #5809bf;" transform="matrix(1 0 0 1 57.25 48.35)">18</text>
	<text style="fill: #8709bf;" transform="matrix(1 0 0 1 60.50 57.50)">19</text>
	<text style="fill: #b709bf;" transform="matrix(1 0 0 1 60.50 65.50)">20</text>
	<text style="fill: #bf0997;" transform="matrix(1 0 0 1 60.50 75.50)">21</text>
	<text style="fill: #bf0968;" transform="matrix(1 0 0 1 47.50 86.13)">22</text>
	<text style="fill: #bf0938;" transform="matrix(1 0 0 1 69.75 88.50)">23</text>
</g>
</svg>
