<?xml version="1.0" encoding="UTF-8"?>
<!--
This file has been modified from the original version by the kanji_colorize.py
script (available at http://github.com/cayennes/kanji-colorize) with these
settings:
    mode: spectrum
    saturation: 0.95
    value: 0.75
    image_size: 327
It remains under a Creative Commons-Attribution-Share Alike 3.0 License.

The original SVG has the following copyright:

Copyright (C) 2009/2010/2011 Ulrich Apel.
This work is distributed under the conditions of the Creative Commons
Attribution-Share Alike 3.0 Licence. This means you are free:
* to Share - to copy, distribute and transmit the work
* to Remix - to adapt the work

Under the following conditions:
* Attribution. You must attribute the work by stating your use of KanjiVG in
  your own copyright header and linking to KanjiVG's website
  (http://kanjivg.tagaini.net)
* Share Alike. If you alter, transform, or build upon this work, you may
  distribute the resulting work only under the same or similar license to this
  one.

See http://creativecommons.org/licenses/by-sa/3.0/ for more details.
-->
<!DOCTYPE svg PUBLIC "-//W3C//DTD SVG 1.0//EN" "http://www.w3.org/TR/2001/REC-SVG-20010904/DTD/svg10.dtd" [
<!ATTLIST g
xmlns:kvg CDATA #FIXED "http://kanjivg.tagaini.net"
kvg:element CDATA #IMPLIED
kvg:variant CDATA #IMPLIED
kvg:partial CDATA #IMPLIED
kvg:original CDATA #IMPLIED
kvg:part CDATA #IMPLIED
kvg:number CDATA #IMPLIED
kvg:tradForm CDATA #IMPLIED
kvg:radicalForm CDATA #IMPLIED
kvg:position CDATA #IMPLIED
kvg:radical CDATA #IMPLIED
kvg:phon CDATA #IMPLIED >
<!ATTLIST path
xmlns:kvg CDATA #FIXED "http://kanjivg.tagaini.net"
kvg:type CDATA #IMPLIED >
]>
<svg xmlns="http://www.w3.org/2000/svg" width="327" height = "327" viewBox="0 0 327 327">
<g id="kvg:StrokePaths_09580" style="fill:none;stroke:#000000;stroke-width:3;stroke-linecap:round;stroke-linejoin:round;" transform="scale(3.0,3.0)">
<g id="kvg:09580" kvg:element="門" kvg:radical="general">
	<g id="kvg:09580-g1" kvg:position="left">
		<path style="stroke: #bf0909;" id="kvg:09580-s1" kvg:type="㇑" d="M17.39,14.97c0.94,0.94,1.26,2.28,1.26,4c0,0.77-0.18,49.78-0.18,69.28c0,3.3-0.04,4.11-0.07,4.97"/>
		<path style="stroke: #bf9109;" id="kvg:09580-s2" kvg:type="㇕a" d="M19.77,17.18c6.04-0.81,20.02-2.86,21.83-2.97c1.91-0.12,2.9,1.04,3,1.96c0.11,1.07-1.17,15.69-1.78,22.84c-0.19,2.21-0.31,3.71-0.31,3.87"/>
		<path style="stroke: #64bf09;" id="kvg:09580-s3" kvg:type="㇐a" d="M20.06,30.18C27,29,36.5,27.75,42.46,27.02"/>
		<path style="stroke: #09bf36;" id="kvg:09580-s4" kvg:type="㇐a" d="M19.61,43.82c8.39-1.32,14.14-2.57,21.55-3.17"/>
	</g>
	<g id="kvg:09580-g2" kvg:position="right">
		<path style="stroke: #09bfbf;" id="kvg:09580-s5" kvg:type="㇑" d="M61.96,13.47c0.89,1.19,0.92,2.64,0.91,4.04c-0.02,3.82-0.08,14.92-0.05,20.49c0.01,1.84,0.03,3.07,0.06,3.25"/>
		<path style="stroke: #0936bf;" id="kvg:09580-s6" kvg:type="㇆a" d="M63.98,15.09c6.63-0.9,21.65-3.51,23.46-3.6c1.96-0.1,3.82,1.63,3.82,2.98c0,18.78-0.52,61.53-0.51,75.14c0.01,11.13-5.24,3.63-9.49-0.12"/>
		<path style="stroke: #6409bf;" id="kvg:09580-s7" kvg:type="㇐a" d="M64.34,26.89c6.16-0.89,20.29-2.39,25.5-2.67"/>
		<path style="stroke: #bf0991;" id="kvg:09580-s8" kvg:type="㇐a" d="M64.13,39.63c8.99-1,15.87-1.63,25.9-2.47"/>
	</g>
</g>
</g>
<g id="kvg:StrokeNumbers_09580" style="font-size:8;fill:#808080" transform="scale(3.0,3.0)">
	<text style="fill: #bf0909;" transform="matrix(1 0 0 1 9.50 22.50)">1</text>
	<text style="fill: #bf9109;" transform="matrix(1 0 0 1 20.50 13.50)">2</text>
	<text style="fill: #64bf09;" transform="matrix(1 0 0 1 22.50 26.50)">3</text>
	<text style="fill: #09bf36;" transform="matrix(1 0 0 1 22.50 39.50)">4</text>
	<text style="fill: #09bfbf;" transform="matrix(1 0 0 1 53.50 19.50)">5</text>
	<text style="fill: #0936bf;" transform="matrix(1 0 0 1 63.50 11.50)">6</text>
	<text style="fill: #6409bf;" transform="matrix(1 0 0 1 66.50 23.50)">7</text>
	<text style="fill: #bf0991;" transform="matrix(1 0 0 1 66.50 35.50)">8</text>
</g>
</svg>
