<?xml version="1.0" encoding="UTF-8"?>
<!--
This file has been modified from the original version by the kanji_colorize.py
script (available at http://github.com/cayennes/kanji-colorize) with these
settings:
    mode: spectrum
    saturation: 0.95
    value: 0.75
    image_size: 327
It remains under a Creative Commons-Attribution-Share Alike 3.0 License.

The original SVG has the following copyright:

Copyright (C) 2009/2010/2011 Ulrich Apel.
This work is distributed under the conditions of the Creative Commons
Attribution-Share Alike 3.0 Licence. This means you are free:
* to Share - to copy, distribute and transmit the work
* to Remix - to adapt the work

Under the following conditions:
* Attribution. You must attribute the work by stating your use of KanjiVG in
  your own copyright header and linking to KanjiVG's website
  (http://kanjivg.tagaini.net)
* Share Alike. If you alter, transform, or build upon this work, you may
  distribute the resulting work only under the same or similar license to this
  one.

See http://creativecommons.org/licenses/by-sa/3.0/ for more details.
-->
<!DOCTYPE svg PUBLIC "-//W3C//DTD SVG 1.0//EN" "http://www.w3.org/TR/2001/REC-SVG-20010904/DTD/svg10.dtd" [
<!ATTLIST g
xmlns:kvg CDATA #FIXED "http://kanjivg.tagaini.net"
kvg:element CDATA #IMPLIED
kvg:variant CDATA #IMPLIED
kvg:partial CDATA #IMPLIED
kvg:original CDATA #IMPLIED
kvg:part CDATA #IMPLIED
kvg:number CDATA #IMPLIED
kvg:tradForm CDATA #IMPLIED
kvg:radicalForm CDATA #IMPLIED
kvg:position CDATA #IMPLIED
kvg:radical CDATA #IMPLIED
kvg:phon CDATA #IMPLIED >
<!ATTLIST path
xmlns:kvg CDATA #FIXED "http://kanjivg.tagaini.net"
kvg:type CDATA #IMPLIED >
]>
<svg xmlns="http://www.w3.org/2000/svg" width="327" height = "327" viewBox="0 0 327 327">
<g id="kvg:StrokePaths_0964c" style="fill:none;stroke:#000000;stroke-width:3;stroke-linecap:round;stroke-linejoin:round;" transform="scale(3.0,3.0)">
<g id="kvg:0964c" kvg:element="陌">
	<g id="kvg:0964c-g1" kvg:element="⻖" kvg:variant="true" kvg:original="阜" kvg:position="left" kvg:radical="general">
		<path style="stroke: #bf0909;" id="kvg:0964c-s1" kvg:type="㇇" d="M16.25,18.25c1.02,0.36,2.35,0.64,3.76,0.4c5.49-0.9,9.8-1.58,12.12-2.45c3.06-1.15,5.62,1.15,4.26,3.83c-1.36,2.68-6.63,16.71-9.01,20.55"/>
		<path style="stroke: #bf8209;" id="kvg:0964c-s2" kvg:type="㇕va" d="M27.38,40.59C42,49.5,41,80.5,29.58,72.43"/>
		<path style="stroke: #82bf09;" id="kvg:0964c-s3" kvg:type="㇑" d="M18.04,19.53c0.46,0.97,0.28,2.59,0.5,3.74c0.22,1.15,0,67.8-0.22,74.99"/>
	</g>
	<g id="kvg:0964c-g2" kvg:element="百" kvg:position="right">
		<g id="kvg:0964c-g3" kvg:position="top">
			<path style="stroke: #09bf09;" id="kvg:0964c-s4" kvg:type="㇐" d="M46.96,18.92c1.15,0.47,3.26,0.59,4.41,0.47c10.63-1.14,22.79-2.56,37.64-3.52c1.91-0.12,3.07,0.22,4.03,0.46"/>
		</g>
		<g id="kvg:0964c-g4" kvg:position="bottom">
			<g id="kvg:0964c-g5" kvg:position="top">
				<path style="stroke: #09bf82;" id="kvg:0964c-s5" kvg:type="㇔" d="M67.98,20.88c0.21,0.65,0.25,1.45,0.19,2.02c-0.3,3.36-2.88,12.46-5.23,16.97"/>
			</g>
			<g id="kvg:0964c-g6" kvg:element="日" kvg:position="bottom">
				<path style="stroke: #0982bf;" id="kvg:0964c-s6" kvg:type="㇑" d="M50.76,41.32c0.61,1.3,1.04,1.96,1.22,3.69c1.06,10.49,0.23,41.69,0.48,50.24"/>
				<path style="stroke: #0909bf;" id="kvg:0964c-s7" kvg:type="㇕a" d="M52.34,43.39c3.44-0.22,28.89-2.68,32.02-2.94c2.61-0.22,4.29,1.45,4.08,2.74c-0.41,2.6-1.95,35.94-2.27,49.79"/>
				<path style="stroke: #8209bf;" id="kvg:0964c-s8" kvg:type="㇐a" d="M52.78,65.2C67,63.75,76.5,63.5,86.73,63.13"/>
				<path style="stroke: #bf0982;" id="kvg:0964c-s9" kvg:type="㇐a" d="M53.47,92.37c11.28-0.87,22.28-1.62,32.89-1.64"/>
			</g>
		</g>
	</g>
</g>
</g>
<g id="kvg:StrokeNumbers_0964c" style="font-size:8;fill:#808080" transform="scale(3.0,3.0)">
	<text style="fill: #bf0909;" transform="matrix(1 0 0 1 17.50 15.50)">1</text>
	<text style="fill: #bf8209;" transform="matrix(1 0 0 1 24.50 49.55)">2</text>
	<text style="fill: #82bf09;" transform="matrix(1 0 0 1 10.50 25.48)">3</text>
	<text style="fill: #09bf09;" transform="matrix(1 0 0 1 45.50 15.50)">4</text>
	<text style="fill: #09bf82;" transform="matrix(1 0 0 1 59.50 27.50)">5</text>
	<text style="fill: #0982bf;" transform="matrix(1 0 0 1 44.25 48.50)">6</text>
	<text style="fill: #0909bf;" transform="matrix(1 0 0 1 54.50 40.50)">7</text>
	<text style="fill: #8209bf;" transform="matrix(1 0 0 1 56.50 61.50)">8</text>
	<text style="fill: #bf0982;" transform="matrix(1 0 0 1 56.50 88.50)">9</text>
</g>
</svg>
