<?xml version="1.0" encoding="UTF-8"?>
<!--
This file has been modified from the original version by the kanji_colorize.py
script (available at http://github.com/cayennes/kanji-colorize) with these
settings:
    mode: spectrum
    saturation: 0.95
    value: 0.75
    image_size: 327
It remains under a Creative Commons-Attribution-Share Alike 3.0 License.

The original SVG has the following copyright:

Copyright (C) 2009/2010/2011 Ulrich Apel.
This work is distributed under the conditions of the Creative Commons
Attribution-Share Alike 3.0 Licence. This means you are free:
* to Share - to copy, distribute and transmit the work
* to Remix - to adapt the work

Under the following conditions:
* Attribution. You must attribute the work by stating your use of KanjiVG in
  your own copyright header and linking to KanjiVG's website
  (http://kanjivg.tagaini.net)
* Share Alike. If you alter, transform, or build upon this work, you may
  distribute the resulting work only under the same or similar license to this
  one.

See http://creativecommons.org/licenses/by-sa/3.0/ for more details.
-->
<!DOCTYPE svg PUBLIC "-//W3C//DTD SVG 1.0//EN" "http://www.w3.org/TR/2001/REC-SVG-20010904/DTD/svg10.dtd" [
<!ATTLIST g
xmlns:kvg CDATA #FIXED "http://kanjivg.tagaini.net"
kvg:element CDATA #IMPLIED
kvg:variant CDATA #IMPLIED
kvg:partial CDATA #IMPLIED
kvg:original CDATA #IMPLIED
kvg:part CDATA #IMPLIED
kvg:number CDATA #IMPLIED
kvg:tradForm CDATA #IMPLIED
kvg:radicalForm CDATA #IMPLIED
kvg:position CDATA #IMPLIED
kvg:radical CDATA #IMPLIED
kvg:phon CDATA #IMPLIED >
<!ATTLIST path
xmlns:kvg CDATA #FIXED "http://kanjivg.tagaini.net"
kvg:type CDATA #IMPLIED >
]>
<svg xmlns="http://www.w3.org/2000/svg" width="327" height = "327" viewBox="0 0 327 327">
<g id="kvg:StrokePaths_09665" style="fill:none;stroke:#000000;stroke-width:3;stroke-linecap:round;stroke-linejoin:round;" transform="scale(3.0,3.0)">
<g id="kvg:09665" kvg:element="陥">
	<g id="kvg:09665-g1" kvg:element="⻖" kvg:variant="true" kvg:original="阜" kvg:position="left" kvg:radical="general">
		<path style="stroke: #bf0909;" id="kvg:09665-s1" kvg:type="㇇" d="M16.92,21.17c1.58,0.33,3.27,0.16,4.65-0.16c3.65-0.87,8.17-2.11,10.35-2.84c3-1,5.15,1.08,4.17,3.58C35,24.5,30.88,33.62,28,38.5"/>
		<path style="stroke: #bf7609;" id="kvg:09665-s2" kvg:type="㇕va" d="M28,38.5c15.25,10,8.75,37.25-0.08,27.25"/>
		<path style="stroke: #9abf09;" id="kvg:09665-s3" kvg:type="㇑" d="M17.87,21.5c0.69,0.69,0.96,1.73,0.96,2.75c0,5.8,0.02,46.81,0.03,63.38c0,3.44,0,5.83,0,6.62"/>
	</g>
	<g id="kvg:09665-g2" kvg:position="right" kvg:phon="勹+旧">
		<g id="kvg:09665-g3" kvg:element="𠂊" kvg:variant="true" kvg:original="勹" kvg:position="top">
			<path style="stroke: #2dbf09;" id="kvg:09665-s4" kvg:type="㇒" d="M61.77,16.25c0.05,0.65-0.18,1.76-0.6,2.63C57.12,27.12,52.5,34.5,43.5,43.75"/>
			<path style="stroke: #09bf52;" id="kvg:09665-s5" kvg:type="㇇a" d="M62.43,23.21c2.58,0,18.08-2.17,20.8-2.43c3.02-0.29,4.5,1.15,2.81,3.94C81,33,77.25,37.88,68,46"/>
		</g>
		<g id="kvg:09665-g4" kvg:element="旧" kvg:position="bottom">
			<g id="kvg:09665-g5" kvg:element="丨" kvg:position="left">
				<path style="stroke: #09bfbf;" id="kvg:09665-s6" kvg:type="㇑" d="M48.13,51.96c0.83,0.83,1,1.92,1,3.25c0,3.99,0.02,21.29,0.03,32.29c0,2.92,0,5.38,0,7"/>
			</g>
			<g id="kvg:09665-g6" kvg:element="日" kvg:position="right">
				<path style="stroke: #0952bf;" id="kvg:09665-s7" kvg:type="㇑" d="M62.58,51.8c0.75,0.75,1.06,2.08,1.06,3.68c0,1.26-0.02,34.64-0.02,35.27s-0.19,1.56-0.05,2.82"/>
				<path style="stroke: #2d09bf;" id="kvg:09665-s8" kvg:type="㇕a" d="M64.67,52.95c1.88-0.13,13.54-2.09,18.84-2.89c3.22-0.48,4.64-0.3,4.64,3.2c0,5.21-0.03,21.25-0.03,33.37c0,1.81,0,3.54,0,5.12"/>
				<path style="stroke: #9a09bf;" id="kvg:09665-s9" kvg:type="㇐a" d="M65,69.72c5.36-0.46,18.49-1.89,21.98-1.89"/>
				<path style="stroke: #bf0976;" id="kvg:09665-s10" kvg:type="㇐a" d="M64.92,89.66c8.71-0.78,14.58-1.53,22.11-1.82"/>
			</g>
		</g>
	</g>
</g>
</g>
<g id="kvg:StrokeNumbers_09665" style="font-size:8;fill:#808080" transform="scale(3.0,3.0)">
	<text style="fill: #bf0909;" transform="matrix(1 0 0 1 21.75 18.13)">1</text>
	<text style="fill: #bf7609;" transform="matrix(1 0 0 1 24.75 46.55)">2</text>
	<text style="fill: #9abf09;" transform="matrix(1 0 0 1 11.25 29.98)">3</text>
	<text style="fill: #2dbf09;" transform="matrix(1 0 0 1 54.50 16.50)">4</text>
	<text style="fill: #09bf52;" transform="matrix(1 0 0 1 67.50 19.50)">5</text>
	<text style="fill: #09bfbf;" transform="matrix(1 0 0 1 41.50 58.50)">6</text>
	<text style="fill: #0952bf;" transform="matrix(1 0 0 1 56.50 59.50)">7</text>
	<text style="fill: #2d09bf;" transform="matrix(1 0 0 1 72.50 49.50)">8</text>
	<text style="fill: #9a09bf;" transform="matrix(1 0 0 1 66.50 66.50)">9</text>
	<text style="fill: #bf0976;" transform="matrix(1 0 0 1 66.50 86.50)">10</text>
</g>
</svg>
