<?xml version="1.0" encoding="UTF-8"?>
<!--
This file has been modified from the original version by the kanji_colorize.py
script (available at http://github.com/cayennes/kanji-colorize) with these
settings:
    mode: spectrum
    saturation: 0.95
    value: 0.75
    image_size: 327
It remains under a Creative Commons-Attribution-Share Alike 3.0 License.

The original SVG has the following copyright:

Copyright (C) 2009/2010/2011 Ulrich Apel.
This work is distributed under the conditions of the Creative Commons
Attribution-Share Alike 3.0 Licence. This means you are free:
* to Share - to copy, distribute and transmit the work
* to Remix - to adapt the work

Under the following conditions:
* Attribution. You must attribute the work by stating your use of KanjiVG in
  your own copyright header and linking to KanjiVG's website
  (http://kanjivg.tagaini.net)
* Share Alike. If you alter, transform, or build upon this work, you may
  distribute the resulting work only under the same or similar license to this
  one.

See http://creativecommons.org/licenses/by-sa/3.0/ for more details.
-->
<!DOCTYPE svg PUBLIC "-//W3C//DTD SVG 1.0//EN" "http://www.w3.org/TR/2001/REC-SVG-20010904/DTD/svg10.dtd" [
<!ATTLIST g
xmlns:kvg CDATA #FIXED "http://kanjivg.tagaini.net"
kvg:element CDATA #IMPLIED
kvg:variant CDATA #IMPLIED
kvg:partial CDATA #IMPLIED
kvg:original CDATA #IMPLIED
kvg:part CDATA #IMPLIED
kvg:number CDATA #IMPLIED
kvg:tradForm CDATA #IMPLIED
kvg:radicalForm CDATA #IMPLIED
kvg:position CDATA #IMPLIED
kvg:radical CDATA #IMPLIED
kvg:phon CDATA #IMPLIED >
<!ATTLIST path
xmlns:kvg CDATA #FIXED "http://kanjivg.tagaini.net"
kvg:type CDATA #IMPLIED >
]>
<svg xmlns="http://www.w3.org/2000/svg" width="327" height = "327" viewBox="0 0 327 327">
<g id="kvg:StrokePaths_096b2" style="fill:none;stroke:#000000;stroke-width:3;stroke-linecap:round;stroke-linejoin:round;" transform="scale(3.0,3.0)">
<g id="kvg:096b2" kvg:element="隲">
	<g id="kvg:096b2-g1" kvg:element="⻖" kvg:variant="true" kvg:original="阜" kvg:position="left" kvg:radical="nelson">
		<path style="stroke: #bf0909;" id="kvg:096b2-s1" kvg:type="㇇" d="M15.87,15.66c0.86,0.44,1.94,0.75,3.13,0.61c6.51-0.76,11.72-1.65,14.14-2.56c3.06-1.15,6.12,1.15,4.76,3.83c-1.36,2.68-8.13,17.21-10.51,21.05"/>
		<path style="stroke: #bf4909;" id="kvg:096b2-s2" kvg:type="㇕va" d="M27.38,38.59C42,51.75,38.75,83,28.08,72.43"/>
		<path style="stroke: #bf8909;" id="kvg:096b2-s3" kvg:type="㇑" d="M17.54,17.03c0.46,0.72,0.28,2.59,0.5,3.74c0.22,1.15,0,70.3-0.22,77.49"/>
	</g>
	<g id="kvg:096b2-g2" kvg:position="right">
		<g id="kvg:096b2-g3" kvg:element="少" kvg:position="top">
			<g id="kvg:096b2-g4" kvg:element="小">
				<path style="stroke: #b4bf09;" id="kvg:096b2-s4" kvg:type="㇚" d="M66.65,11.5c0.06,0.18,0.9,0.94,0.97,2.09c0.31,5.52-0.2,15.45-0.2,17.33c0,5.33-4.17,2.32-6.33,0.64"/>
				<path style="stroke: #74bf09;" id="kvg:096b2-s5" kvg:type="㇒" d="M53.96,18.02c0.03,0.35,0.12,0.92-0.07,1.4c-1.38,3.48-7.23,10.2-11.98,13.41"/>
				<path style="stroke: #34bf09;" id="kvg:096b2-s6" kvg:type="㇔" d="M81.19,15.59c4.94,2.85,11.57,10.17,12.81,14.6"/>
			</g>
			<g id="kvg:096b2-g5" kvg:element="丿">
				<path style="stroke: #09bf1e;" id="kvg:096b2-s7" kvg:type="㇒" d="M79.48,23.98c0.1,0.61,0.3,1.58-0.21,2.44c-4.16,7.1-20.16,18.56-36.41,23.33"/>
			</g>
		</g>
		<g id="kvg:096b2-g6" kvg:element="馬" kvg:position="bottom" kvg:radical="tradit">
			<path style="stroke: #09bf5f;" id="kvg:096b2-s8" kvg:type="㇑" d="M52.99,45.64c0.33,0.22,0.68,1.44,0.68,1.82c0,3.87,0.04,20.47-0.16,26.55"/>
			<path style="stroke: #09bf9f;" id="kvg:096b2-s9" kvg:type="㇐b" d="M54.63,47.27c8.05-0.76,27.86-3.32,31.31-3.73c1.21-0.15,3.25-0.31,3.86-0.2"/>
			<path style="stroke: #099fbf;" id="kvg:096b2-s10" kvg:type="㇑a" d="M70.1,47.04c0.33,0.22,0.59,0.52,0.59,0.9c0,3.87,0.04,16.92-0.16,23.01"/>
			<path style="stroke: #095fbf;" id="kvg:096b2-s11" kvg:type="㇐b" d="M54.27,55.36c8.06-0.76,23.92-2.24,27.38-2.65c1.21-0.14,3.25-0.31,3.86-0.2"/>
			<path style="stroke: #091ebf;" id="kvg:096b2-s12" kvg:type="㇐b" d="M54.45,64.02c8.05-0.76,25.42-2.24,28.87-2.65c1.21-0.14,3.25-0.31,3.86-0.2"/>
			<path style="stroke: #3409bf;" id="kvg:096b2-s13" kvg:type="㇆a" d="M53.43,74.17c9.23-1.42,30.41-2.83,35.53-3.35c3.33-0.34,5.21,1.56,4.81,3.91c-1.1,6.46-2.3,15.69-4.87,19.87c-3.58,5.83-4.72,3.14-8.1-0.03"/>
			<g id="kvg:096b2-g7" kvg:element="灬" kvg:variant="true" kvg:original="火">
				<path style="stroke: #7409bf;" id="kvg:096b2-s14" kvg:type="㇔" d="M45.2,82.54c-0.45,4.21-2.07,9.79-4.41,12.41"/>
				<path style="stroke: #b409bf;" id="kvg:096b2-s15" kvg:type="㇔" d="M56.28,81.36c1.1,2.3,2.15,8.61,2.43,12.18"/>
				<path style="stroke: #bf0989;" id="kvg:096b2-s16" kvg:type="㇔" d="M66.87,78.52c1.58,2.04,4.07,8.39,4.47,11.56"/>
				<path style="stroke: #bf0949;" id="kvg:096b2-s17" kvg:type="㇔" d="M77.7,78.28c1.72,1.47,4.44,6.05,4.87,8.34"/>
			</g>
		</g>
	</g>
</g>
</g>
<g id="kvg:StrokeNumbers_096b2" style="font-size:8;fill:#808080" transform="scale(3.0,3.0)">
	<text style="fill: #bf0909;" transform="matrix(1 0 0 1 18.50 12.50)">1</text>
	<text style="fill: #bf4909;" transform="matrix(1 0 0 1 25.25 49.50)">2</text>
	<text style="fill: #bf8909;" transform="matrix(1 0 0 1 10.50 23.50)">3</text>
	<text style="fill: #b4bf09;" transform="matrix(1 0 0 1 58.50 11.50)">4</text>
	<text style="fill: #74bf09;" transform="matrix(1 0 0 1 45.50 17.50)">5</text>
	<text style="fill: #34bf09;" transform="matrix(1 0 0 1 78.50 12.50)">6</text>
	<text style="fill: #09bf1e;" transform="matrix(1 0 0 1 73.50 23.50)">7</text>
	<text style="fill: #09bf5f;" transform="matrix(1 0 0 1 46.50 57.50)">8</text>
	<text style="fill: #09bf9f;" transform="matrix(1 0 0 1 70.50 43.50)">9</text>
	<text style="fill: #099fbf;" transform="matrix(1 0 0 1 73.50 51.45)">10</text>
	<text style="fill: #095fbf;" transform="matrix(1 0 0 1 58.25 52.88)">11</text>
	<text style="fill: #091ebf;" transform="matrix(1 0 0 1 58.06 61.50)">12</text>
	<text style="fill: #3409bf;" transform="matrix(1 0 0 1 58.11 71.50)">13</text>
	<text style="fill: #7409bf;" transform="matrix(1 0 0 1 36.50 83.50)">14</text>
	<text style="fill: #b409bf;" transform="matrix(1 0 0 1 48.50 88.58)">15</text>
	<text style="fill: #bf0989;" transform="matrix(1 0 0 1 60.50 86.50)">16</text>
	<text style="fill: #bf0949;" transform="matrix(1 0 0 1 71.25 84.50)">17</text>
</g>
</svg>
