<?xml version="1.0" encoding="UTF-8"?>
<!--
This file has been modified from the original version by the kanji_colorize.py
script (available at http://github.com/cayennes/kanji-colorize) with these
settings:
    mode: spectrum
    saturation: 0.95
    value: 0.75
    image_size: 327
It remains under a Creative Commons-Attribution-Share Alike 3.0 License.

The original SVG has the following copyright:

Copyright (C) 2009/2010/2011 Ulrich Apel.
This work is distributed under the conditions of the Creative Commons
Attribution-Share Alike 3.0 Licence. This means you are free:
* to Share - to copy, distribute and transmit the work
* to Remix - to adapt the work

Under the following conditions:
* Attribution. You must attribute the work by stating your use of KanjiVG in
  your own copyright header and linking to KanjiVG's website
  (http://kanjivg.tagaini.net)
* Share Alike. If you alter, transform, or build upon this work, you may
  distribute the resulting work only under the same or similar license to this
  one.

See http://creativecommons.org/licenses/by-sa/3.0/ for more details.
-->
<!DOCTYPE svg PUBLIC "-//W3C//DTD SVG 1.0//EN" "http://www.w3.org/TR/2001/REC-SVG-20010904/DTD/svg10.dtd" [
<!ATTLIST g
xmlns:kvg CDATA #FIXED "http://kanjivg.tagaini.net"
kvg:element CDATA #IMPLIED
kvg:variant CDATA #IMPLIED
kvg:partial CDATA #IMPLIED
kvg:original CDATA #IMPLIED
kvg:part CDATA #IMPLIED
kvg:number CDATA #IMPLIED
kvg:tradForm CDATA #IMPLIED
kvg:radicalForm CDATA #IMPLIED
kvg:position CDATA #IMPLIED
kvg:radical CDATA #IMPLIED
kvg:phon CDATA #IMPLIED >
<!ATTLIST path
xmlns:kvg CDATA #FIXED "http://kanjivg.tagaini.net"
kvg:type CDATA #IMPLIED >
]>
<svg xmlns="http://www.w3.org/2000/svg" width="327" height = "327" viewBox="0 0 327 327">
<g id="kvg:StrokePaths_096b6" style="fill:none;stroke:#000000;stroke-width:3;stroke-linecap:round;stroke-linejoin:round;" transform="scale(3.0,3.0)">
<g id="kvg:096b6" kvg:element="隶" kvg:radical="general">
	<g id="kvg:096b6-g1" kvg:element="⺕" kvg:variant="true" kvg:original="彑">
		<path style="stroke: #bf0909;" id="kvg:096b6-s1" kvg:type="㇕" d="M28,26.25c1.75,0.25,3.7,0.66,6,0.5c14-1,31.02-2.1,42-2.75c4.25-0.25,5.5,1.75,5,4.25c-1.31,6.54-2.5,9-4.25,20.25"/>
		<path style="stroke: #bf9109;" id="kvg:096b6-s2" kvg:type="㇐" d="M13.75,39.5c2.25,0.25,4.01,0.73,6.5,0.5c21.75-2,51.25-4.5,68.5-5.25c2.76-0.12,5,0.5,6.25,0.75"/>
		<path style="stroke: #64bf09;" id="kvg:096b6-s3" kvg:type="㇐c" d="M28,50.71c1.25,0.2,3.51,0.72,5,0.61c13.75-1.02,29.25-2.23,41.75-2.64c2-0.06,3.25,0,4.75,0.2"/>
	</g>
	<g id="kvg:096b6-g2" kvg:element="氺" kvg:variant="true" kvg:original="水">
		<path style="stroke: #09bf36;" id="kvg:096b6-s4" kvg:type="㇚" d="M52.27,11.83c0.09,0.48,1.67,2.49,1.76,5.52c0.4,14.55-0.26,68.16-0.26,73.12c0,12.78-7.71,1.5-9.21,0.25"/>
		<path style="stroke: #09bfbf;" id="kvg:096b6-s5" kvg:type="㇔" d="M26.75,58.25c3.44,1.85,8.89,7.62,9.75,10.5"/>
		<path style="stroke: #0936bf;" id="kvg:096b6-s6" kvg:type="㇀" d="M18.5,90.23c1.64,1.53,3.01,2.18,4.65,0.87C24.12,90.33,37.9,77.96,42,74.25"/>
		<path style="stroke: #6409bf;" id="kvg:096b6-s7" kvg:type="㇒" d="M77.28,54.64c0.03,0.28,0.06,0.73-0.05,1.14c-0.66,2.41-4.46,7.7-9.66,10.93"/>
		<path style="stroke: #bf0991;" id="kvg:096b6-s8" kvg:type="㇏" d="M56.25,61.75c3.93,1.2,25.59,23.6,30.75,27.65c1.75,1.37,3.25,1.96,5,2.35"/>
	</g>
</g>
</g>
<g id="kvg:StrokeNumbers_096b6" style="font-size:8;fill:#808080" transform="scale(3.0,3.0)">
	<text style="fill: #bf0909;" transform="matrix(1 0 0 1 21.50 25.50)">1</text>
	<text style="fill: #bf9109;" transform="matrix(1 0 0 1 5.50 39.50)">2</text>
	<text style="fill: #64bf09;" transform="matrix(1 0 0 1 20.50 50.50)">3</text>
	<text style="fill: #09bf36;" transform="matrix(1 0 0 1 43.50 13.50)">4</text>
	<text style="fill: #09bfbf;" transform="matrix(1 0 0 1 17.50 59.50)">5</text>
	<text style="fill: #0936bf;" transform="matrix(1 0 0 1 11.25 95.50)">6</text>
	<text style="fill: #6409bf;" transform="matrix(1 0 0 1 69.50 57.50)">7</text>
	<text style="fill: #bf0991;" transform="matrix(1 0 0 1 59.25 77.50)">8</text>
</g>
</svg>
