<?xml version="1.0" encoding="UTF-8"?>
<!--
This file has been modified from the original version by the kanji_colorize.py
script (available at http://github.com/cayennes/kanji-colorize) with these
settings:
    mode: spectrum
    saturation: 0.95
    value: 0.75
    image_size: 327
It remains under a Creative Commons-Attribution-Share Alike 3.0 License.

The original SVG has the following copyright:

Copyright (C) 2009/2010/2011 Ulrich Apel.
This work is distributed under the conditions of the Creative Commons
Attribution-Share Alike 3.0 Licence. This means you are free:
* to Share - to copy, distribute and transmit the work
* to Remix - to adapt the work

Under the following conditions:
* Attribution. You must attribute the work by stating your use of KanjiVG in
  your own copyright header and linking to KanjiVG's website
  (http://kanjivg.tagaini.net)
* Share Alike. If you alter, transform, or build upon this work, you may
  distribute the resulting work only under the same or similar license to this
  one.

See http://creativecommons.org/licenses/by-sa/3.0/ for more details.
-->
<!DOCTYPE svg PUBLIC "-//W3C//DTD SVG 1.0//EN" "http://www.w3.org/TR/2001/REC-SVG-20010904/DTD/svg10.dtd" [
<!ATTLIST g
xmlns:kvg CDATA #FIXED "http://kanjivg.tagaini.net"
kvg:element CDATA #IMPLIED
kvg:variant CDATA #IMPLIED
kvg:partial CDATA #IMPLIED
kvg:original CDATA #IMPLIED
kvg:part CDATA #IMPLIED
kvg:number CDATA #IMPLIED
kvg:tradForm CDATA #IMPLIED
kvg:radicalForm CDATA #IMPLIED
kvg:position CDATA #IMPLIED
kvg:radical CDATA #IMPLIED
kvg:phon CDATA #IMPLIED >
<!ATTLIST path
xmlns:kvg CDATA #FIXED "http://kanjivg.tagaini.net"
kvg:type CDATA #IMPLIED >
]>
<svg xmlns="http://www.w3.org/2000/svg" width="327" height = "327" viewBox="0 0 327 327">
<g id="kvg:StrokePaths_096bb" style="fill:none;stroke:#000000;stroke-width:3;stroke-linecap:round;stroke-linejoin:round;" transform="scale(3.0,3.0)">
<g id="kvg:096bb" kvg:element="隻">
	<g id="kvg:096bb-g1" kvg:element="隹" kvg:position="top" kvg:radical="general">
		<g id="kvg:096bb-g2" kvg:element="亻" kvg:variant="true" kvg:original="人">
			<path style="stroke: #bf0909;" id="kvg:096bb-s1" kvg:type="㇒" d="M35.31,12.5c0.19,1.16-0.05,2.67-0.65,3.67c-3.82,6.32-7.92,11.43-16.67,19.13"/>
			<path style="stroke: #bf7609;" id="kvg:096bb-s2" kvg:type="㇑" d="M29.59,26.72c0.97,0.97,1.25,2.15,1.25,3.53c0,6.5-0.02,17.37-0.02,24.75c0,1.72,0,3.26,0,4.5"/>
		</g>
		<path style="stroke: #9abf09;" id="kvg:096bb-s3" kvg:type="㇒" d="M59.36,11.5c0.06,0.65-0.02,1.5-0.2,2.05c-1.16,3.54-2.88,6.02-5.54,10.33"/>
		<path style="stroke: #2dbf09;" id="kvg:096bb-s4" kvg:type="㇐b" d="M31.43,28.13c6.94-0.49,29.27-3.19,41.32-4.58c3.62-0.42,6.25-0.71,7.14-0.79"/>
		<path style="stroke: #09bf52;" id="kvg:096bb-s5" kvg:type="㇑a" d="M52.97,27.74c0.96,0.96,1.28,2.26,1.28,4.03c0,6.73,0.03,13.23,0.03,23.02"/>
		<path style="stroke: #09bfbf;" id="kvg:096bb-s6" kvg:type="㇐b" d="M32.04,38.28c6.35-0.4,24.6-2.73,34.98-3.87c3.53-0.39,6.14-0.67,7.07-0.75"/>
		<path style="stroke: #0952bf;" id="kvg:096bb-s7" kvg:type="㇐b" d="M32.01,47.53c6.61-0.33,24.38-2.29,35.04-3.53c3.79-0.44,6.65-0.76,7.75-0.83"/>
		<path style="stroke: #2d09bf;" id="kvg:096bb-s8" kvg:type="㇐b" d="M32.11,57.02c7.24-0.52,32.81-2.63,44.64-3.52c2.92-0.22,5-0.38,5.76-0.45"/>
	</g>
	<g id="kvg:096bb-g3" kvg:element="又" kvg:position="bottom">
		<path style="stroke: #9a09bf;" id="kvg:096bb-s9" kvg:type="㇇" d="M31.8,67.27C34,68,36,67.75,38.02,67.5c3.04-0.37,22.01-3.21,28.39-4.16c3.65-0.54,6.17,1.26,3.3,4.84C59.25,81.25,43.62,90.88,23.5,98.13"/>
		<path style="stroke: #bf0976;" id="kvg:096bb-s10" kvg:type="㇏" d="M34.34,74.88c4.47,0.48,23.41,10.87,39.94,17.98c3.87,1.66,8.01,3.13,12.22,3.64"/>
	</g>
</g>
</g>
<g id="kvg:StrokeNumbers_096bb" style="font-size:8;fill:#808080" transform="scale(3.0,3.0)">
	<text style="fill: #bf0909;" transform="matrix(1 0 0 1 28.50 13.63)">1</text>
	<text style="fill: #bf7609;" transform="matrix(1 0 0 1 23.25 40.55)">2</text>
	<text style="fill: #9abf09;" transform="matrix(1 0 0 1 50.50 11.50)">3</text>
	<text style="fill: #2dbf09;" transform="matrix(1 0 0 1 36.75 24.13)">4</text>
	<text style="fill: #09bf52;" transform="matrix(1 0 0 1 57.50 32.50)">5</text>
	<text style="fill: #09bfbf;" transform="matrix(1 0 0 1 35.25 35.50)">6</text>
	<text style="fill: #0952bf;" transform="matrix(1 0 0 1 35.25 45.92)">7</text>
	<text style="fill: #2d09bf;" transform="matrix(1 0 0 1 35.25 54.85)">8</text>
	<text style="fill: #9a09bf;" transform="matrix(1 0 0 1 35.25 65.50)">9</text>
	<text style="fill: #bf0976;" transform="matrix(1 0 0 1 41.25 76.33)">10</text>
</g>
</svg>
