<?xml version="1.0" encoding="UTF-8"?>
<!--
This file has been modified from the original version by the kanji_colorize.py
script (available at http://github.com/cayennes/kanji-colorize) with these
settings:
    mode: spectrum
    saturation: 0.95
    value: 0.75
    image_size: 327
It remains under a Creative Commons-Attribution-Share Alike 3.0 License.

The original SVG has the following copyright:

Copyright (C) 2009/2010/2011 Ulrich Apel.
This work is distributed under the conditions of the Creative Commons
Attribution-Share Alike 3.0 Licence. This means you are free:
* to Share - to copy, distribute and transmit the work
* to Remix - to adapt the work

Under the following conditions:
* Attribution. You must attribute the work by stating your use of KanjiVG in
  your own copyright header and linking to KanjiVG's website
  (http://kanjivg.tagaini.net)
* Share Alike. If you alter, transform, or build upon this work, you may
  distribute the resulting work only under the same or similar license to this
  one.

See http://creativecommons.org/licenses/by-sa/3.0/ for more details.
-->
<!DOCTYPE svg PUBLIC "-//W3C//DTD SVG 1.0//EN" "http://www.w3.org/TR/2001/REC-SVG-20010904/DTD/svg10.dtd" [
<!ATTLIST g
xmlns:kvg CDATA #FIXED "http://kanjivg.tagaini.net"
kvg:element CDATA #IMPLIED
kvg:variant CDATA #IMPLIED
kvg:partial CDATA #IMPLIED
kvg:original CDATA #IMPLIED
kvg:part CDATA #IMPLIED
kvg:number CDATA #IMPLIED
kvg:tradForm CDATA #IMPLIED
kvg:radicalForm CDATA #IMPLIED
kvg:position CDATA #IMPLIED
kvg:radical CDATA #IMPLIED
kvg:phon CDATA #IMPLIED >
<!ATTLIST path
xmlns:kvg CDATA #FIXED "http://kanjivg.tagaini.net"
kvg:type CDATA #IMPLIED >
]>
<svg xmlns="http://www.w3.org/2000/svg" width="327" height = "327" viewBox="0 0 327 327">
<g id="kvg:StrokePaths_0975e" style="fill:none;stroke:#000000;stroke-width:3;stroke-linecap:round;stroke-linejoin:round;" transform="scale(3.0,3.0)">
<g id="kvg:0975e" kvg:element="非" kvg:radical="general">
	<g id="kvg:0975e-g1" kvg:position="left">
		<path style="stroke: #bf0909;" id="kvg:0975e-s1" kvg:type="㇒" d="M42.12,14.75c0.75,0.75,1.43,2.23,1.46,3.25c1.55,50.38-0.2,64.5-14.08,80.75"/>
		<path style="stroke: #bf9109;" id="kvg:0975e-s2" kvg:type="㇐c" d="M20.75,35.75c1.75,0.38,3.23,0.36,4.75,0.25c3.38-0.25,9.25-1.25,15-2.5"/>
		<path style="stroke: #64bf09;" id="kvg:0975e-s3" kvg:type="㇐c" d="M20.25,52.5c1.38,0.25,3.24,0.19,4.75,0c3-0.38,11.12-2.12,16-3.5"/>
		<path style="stroke: #09bf36;" id="kvg:0975e-s4" kvg:type="㇀" d="M14.25,72.66c0.98,0.98,2.35,1.24,3.83,0.65c4.17-1.68,17.34-6.63,21.55-8.18"/>
	</g>
	<g id="kvg:0975e-g2" kvg:position="right">
		<path style="stroke: #09bfbf;" id="kvg:0975e-s5" kvg:type="㇑" d="M64.37,12.25c1,1,1.46,2.5,1.46,4c0,0.85-0.11,51.5-0.11,73.25c0,4.36-0.07,7.43-0.11,8.5"/>
		<path style="stroke: #0936bf;" id="kvg:0975e-s6" kvg:type="㇐b" d="M69.25,30c4.5-0.38,14.5-2.25,18.25-3.25c1.21-0.32,2.75-0.38,4.25-0.12"/>
		<path style="stroke: #6409bf;" id="kvg:0975e-s7" kvg:type="㇐b" d="M69.12,47c4.38-0.12,14.62-2.12,18-2.75c1.23-0.23,2.62-0.38,4-0.12"/>
		<path style="stroke: #bf0991;" id="kvg:0975e-s8" kvg:type="㇐b" d="M69,67.88c4.5-0.38,18.62-2.62,22-3.25c1.23-0.23,2.62-0.38,4-0.12"/>
	</g>
</g>
</g>
<g id="kvg:StrokeNumbers_0975e" style="font-size:8;fill:#808080" transform="scale(3.0,3.0)">
	<text style="fill: #bf0909;" transform="matrix(1 0 0 1 34.50 14.50)">1</text>
	<text style="fill: #bf9109;" transform="matrix(1 0 0 1 12.50 37.55)">2</text>
	<text style="fill: #64bf09;" transform="matrix(1 0 0 1 12.50 54.50)">3</text>
	<text style="fill: #09bf36;" transform="matrix(1 0 0 1 5.25 75.50)">4</text>
	<text style="fill: #09bfbf;" transform="matrix(1 0 0 1 55.50 12.50)">5</text>
	<text style="fill: #0936bf;" transform="matrix(1 0 0 1 70.50 26.50)">6</text>
	<text style="fill: #6409bf;" transform="matrix(1 0 0 1 70.55 43.48)">7</text>
	<text style="fill: #bf0991;" transform="matrix(1 0 0 1 70.52 64.40)">8</text>
</g>
</svg>
