<?xml version="1.0" encoding="UTF-8"?>
<!--
This file has been modified from the original version by the kanji_colorize.py
script (available at http://github.com/cayennes/kanji-colorize) with these
settings:
    mode: spectrum
    saturation: 0.95
    value: 0.75
    image_size: 327
It remains under a Creative Commons-Attribution-Share Alike 3.0 License.

The original SVG has the following copyright:

Copyright (C) 2009/2010/2011 Ulrich Apel.
This work is distributed under the conditions of the Creative Commons
Attribution-Share Alike 3.0 Licence. This means you are free:
* to Share - to copy, distribute and transmit the work
* to Remix - to adapt the work

Under the following conditions:
* Attribution. You must attribute the work by stating your use of KanjiVG in
  your own copyright header and linking to KanjiVG's website
  (http://kanjivg.tagaini.net)
* Share Alike. If you alter, transform, or build upon this work, you may
  distribute the resulting work only under the same or similar license to this
  one.

See http://creativecommons.org/licenses/by-sa/3.0/ for more details.
-->
<!DOCTYPE svg PUBLIC "-//W3C//DTD SVG 1.0//EN" "http://www.w3.org/TR/2001/REC-SVG-20010904/DTD/svg10.dtd" [
<!ATTLIST g
xmlns:kvg CDATA #FIXED "http://kanjivg.tagaini.net"
kvg:element CDATA #IMPLIED
kvg:variant CDATA #IMPLIED
kvg:partial CDATA #IMPLIED
kvg:original CDATA #IMPLIED
kvg:part CDATA #IMPLIED
kvg:number CDATA #IMPLIED
kvg:tradForm CDATA #IMPLIED
kvg:radicalForm CDATA #IMPLIED
kvg:position CDATA #IMPLIED
kvg:radical CDATA #IMPLIED
kvg:phon CDATA #IMPLIED >
<!ATTLIST path
xmlns:kvg CDATA #FIXED "http://kanjivg.tagaini.net"
kvg:type CDATA #IMPLIED >
]>
<svg xmlns="http://www.w3.org/2000/svg" width="327" height = "327" viewBox="0 0 327 327">
<g id="kvg:StrokePaths_09812" style="fill:none;stroke:#000000;stroke-width:3;stroke-linecap:round;stroke-linejoin:round;" transform="scale(3.0,3.0)">
<g id="kvg:09812" kvg:element="頒">
	<g id="kvg:09812-g1" kvg:element="分" kvg:position="left" kvg:phon="分">
		<g id="kvg:09812-g2" kvg:element="八" kvg:position="top">
			<path style="stroke: #bf0909;" id="kvg:09812-s1" kvg:type="㇒" d="M27.87,25.08c0.01,1.04,0.02,2.05-0.43,3c-3.53,7.5-9.74,15.92-16.24,20.73"/>
			<path style="stroke: #bf5d09;" id="kvg:09812-s2" kvg:type="㇔/㇏" d="M36.98,23C42,26.25,49.5,37.5,52.02,44.42"/>
		</g>
		<g id="kvg:09812-g3" kvg:element="刀" kvg:position="bottom">
			<path style="stroke: #bfb109;" id="kvg:09812-s3" kvg:type="㇆" d="M18.33,50.29c1.92,0.33,3.51,0.4,5.06,0.08c6.45-1.33,14.86-3.14,18.21-3.58c2.42-0.32,3.5,0.96,3.37,3.19C44.62,55.88,41,76.5,36.49,84.4c-4.18,7.32-5.99,2.98-7.46,0.77"/>
			<path style="stroke: #79bf09;" id="kvg:09812-s4" kvg:type="㇒" d="M29.25,53.27c0.05,0.69,0.16,1.82-0.1,2.78c-2.86,10.7-7.4,20.32-16.15,28.05"/>
		</g>
	</g>
	<g id="kvg:09812-g4" kvg:element="頁" kvg:position="right" kvg:radical="general">
		<path style="stroke: #25bf09;" id="kvg:09812-s5" kvg:type="㇐" d="M55.19,18.34c1.49,0.86,4.32,0.79,5.95,0.53c10.12-1.62,17.62-2.24,26.24-2.78c2.31-0.14,5.19-0.35,7.41,0.43"/>
		<path style="stroke: #09bf41;" id="kvg:09812-s6" kvg:type="㇒" d="M74.68,20.4c0.11,0.71-0.01,1.38-0.37,2c-0.99,2.5-1.87,4.96-4.65,9.24"/>
		<g id="kvg:09812-g5" kvg:element="貝">
			<g id="kvg:09812-g6" kvg:element="目" kvg:position="top">
				<path style="stroke: #09bf95;" id="kvg:09812-s7" kvg:type="㇑" d="M60.03,33.39c0.98,0.98,1.18,2.07,1.18,3.46c0,1.1-0.03,26.52-0.03,37.4c0,2.83-0.04,4.66-0.04,4.8"/>
				<path style="stroke: #0995bf;" id="kvg:09812-s8" kvg:type="㇕a" d="M61.75,35.03c7.5-1.16,23.81-3.31,26.28-3.52c2.06-0.17,3.68,1.93,3.51,3.22c-0.17,1.28,0.14,26.12,0.07,37.27c-0.02,3.06-0.03,5.1-0.03,5.32"/>
				<path style="stroke: #0941bf;" id="kvg:09812-s9" kvg:type="㇐a" d="M62.21,48.74c8.29-1.04,22.16-2.38,27.96-2.76"/>
				<path style="stroke: #2509bf;" id="kvg:09812-s10" kvg:type="㇐a" d="M62.18,62.29c7.09-1.04,20.81-2.3,28.21-2.79"/>
				<path style="stroke: #7909bf;" id="kvg:09812-s11" kvg:type="㇐a" d="M62.13,75.83c8.58-1.02,20.58-1.94,28.47-2.46"/>
			</g>
			<g id="kvg:09812-g7" kvg:position="bottom">
				<path style="stroke: #bf09b1;" id="kvg:09812-s12" kvg:type="㇒" d="M67.25,81.13c0.25,1.24-0.11,2.05-1,2.94C63.58,86.75,56,91.75,49.3,95.25"/>
				<path style="stroke: #bf095d;" id="kvg:09812-s13" kvg:type="㇔" d="M83.62,81.88c5.21,3.43,11.36,9.66,12.78,12.67"/>
			</g>
		</g>
	</g>
</g>
</g>
<g id="kvg:StrokeNumbers_09812" style="font-size:8;fill:#808080" transform="scale(3.0,3.0)">
	<text style="fill: #bf0909;" transform="matrix(1 0 0 1 19.50 24.50)">1</text>
	<text style="fill: #bf5d09;" transform="matrix(1 0 0 1 35.25 20.13)">2</text>
	<text style="fill: #bfb109;" transform="matrix(1 0 0 1 23.25 47.50)">3</text>
	<text style="fill: #79bf09;" transform="matrix(1 0 0 1 21.50 59.50)">4</text>
	<text style="fill: #25bf09;" transform="matrix(1 0 0 1 53.50 15.13)">5</text>
	<text style="fill: #09bf41;" transform="matrix(1 0 0 1 66.50 25.50)">6</text>
	<text style="fill: #09bf95;" transform="matrix(1 0 0 1 53.50 41.50)">7</text>
	<text style="fill: #0995bf;" transform="matrix(1 0 0 1 63.50 31.50)">8</text>
	<text style="fill: #0941bf;" transform="matrix(1 0 0 1 65.25 45.05)">9</text>
	<text style="fill: #2509bf;" transform="matrix(1 0 0 1 65.25 58.48)">10</text>
	<text style="fill: #7909bf;" transform="matrix(1 0 0 1 65.25 72.50)">11</text>
	<text style="fill: #bf09b1;" transform="matrix(1 0 0 1 52.50 86.50)">12</text>
	<text style="fill: #bf095d;" transform="matrix(1 0 0 1 75.75 88.50)">13</text>
</g>
</svg>
