<?xml version="1.0" encoding="UTF-8"?>
<!--
This file has been modified from the original version by the kanji_colorize.py
script (available at http://github.com/cayennes/kanji-colorize) with these
settings:
    mode: spectrum
    saturation: 0.95
    value: 0.75
    image_size: 327
It remains under a Creative Commons-Attribution-Share Alike 3.0 License.

The original SVG has the following copyright:

Copyright (C) 2009/2010/2011 Ulrich Apel.
This work is distributed under the conditions of the Creative Commons
Attribution-Share Alike 3.0 Licence. This means you are free:
* to Share - to copy, distribute and transmit the work
* to Remix - to adapt the work

Under the following conditions:
* Attribution. You must attribute the work by stating your use of KanjiVG in
  your own copyright header and linking to KanjiVG's website
  (http://kanjivg.tagaini.net)
* Share Alike. If you alter, transform, or build upon this work, you may
  distribute the resulting work only under the same or similar license to this
  one.

See http://creativecommons.org/licenses/by-sa/3.0/ for more details.
-->
<!DOCTYPE svg PUBLIC "-//W3C//DTD SVG 1.0//EN" "http://www.w3.org/TR/2001/REC-SVG-20010904/DTD/svg10.dtd" [
<!ATTLIST g
xmlns:kvg CDATA #FIXED "http://kanjivg.tagaini.net"
kvg:element CDATA #IMPLIED
kvg:variant CDATA #IMPLIED
kvg:partial CDATA #IMPLIED
kvg:original CDATA #IMPLIED
kvg:part CDATA #IMPLIED
kvg:number CDATA #IMPLIED
kvg:tradForm CDATA #IMPLIED
kvg:radicalForm CDATA #IMPLIED
kvg:position CDATA #IMPLIED
kvg:radical CDATA #IMPLIED
kvg:phon CDATA #IMPLIED >
<!ATTLIST path
xmlns:kvg CDATA #FIXED "http://kanjivg.tagaini.net"
kvg:type CDATA #IMPLIED >
]>
<svg xmlns="http://www.w3.org/2000/svg" width="327" height = "327" viewBox="0 0 327 327">
<g id="kvg:StrokePaths_0984d" style="fill:none;stroke:#000000;stroke-width:3;stroke-linecap:round;stroke-linejoin:round;" transform="scale(3.0,3.0)">
<g id="kvg:0984d" kvg:element="額">
	<g id="kvg:0984d-g1" kvg:element="客" kvg:position="left" kvg:phon="客">
		<g id="kvg:0984d-g2" kvg:element="宀" kvg:position="top">
			<path style="stroke: #bf0909;" id="kvg:0984d-s1" kvg:type="㇑a" d="M33.71,14.2c0.73,0.74,1.18,1.77,1.16,2.59c-0.05,2.59-0.05,5.62-0.05,7.98"/>
			<g id="kvg:0984d-g3" kvg:element="冖">
				<path style="stroke: #bf4609;" id="kvg:0984d-s2" kvg:type="㇔" d="M18.5,27c0,2.86-2.47,10.72-3.6,12.62"/>
				<path style="stroke: #bf8209;" id="kvg:0984d-s3" kvg:type="㇖b" d="M19.26,28.46c10.25-1.55,21.19-3.65,29.61-3.83c7.56-0.16,1.25,5.37-0.24,6.67"/>
			</g>
		</g>
		<g id="kvg:0984d-g4" kvg:element="各" kvg:position="bottom">
			<g id="kvg:0984d-g5" kvg:element="夂">
				<path style="stroke: #bfbf09;" id="kvg:0984d-s4" kvg:type="㇒" d="M30.6,33.61c0.03,0.54,0.13,1.4-0.07,2.15C29.25,40.62,23.41,50,16.85,56.1"/>
				<path style="stroke: #82bf09;" id="kvg:0984d-s5" kvg:type="㇇" d="M30.74,40.56c0.27,0.03,1.42,0,2.19-0.09c2.53-0.27,5.16-1.27,8.78-2.12c2.48-0.58,3.44,1.17,2.8,2.75C41.04,49.79,29.38,66,12.71,74.09"/>
				<path style="stroke: #46bf09;" id="kvg:0984d-s6" kvg:type="㇔/㇏" d="M27.75,52c9,3.12,17.75,9.5,23.83,15.74"/>
			</g>
			<g id="kvg:0984d-g6" kvg:element="口">
				<path style="stroke: #09bf09;" id="kvg:0984d-s7" kvg:type="㇑" d="M22.64,73.41c0.65,0.69,1.01,1.52,1.08,2.47c0.7,3.03,1.44,8.02,2.01,12.5c0.16,1.26,0.31,2.47,0.44,3.59"/>
				<path style="stroke: #09bf46;" id="kvg:0984d-s8" kvg:type="㇕b" d="M24.41,74.13c6.49-1.18,14.24-2.16,18.36-2.76c2.46-0.36,3.87-0.14,3.36,2.61c-0.76,4.06-1.53,7.65-2.43,12.1"/>
				<path style="stroke: #09bf82;" id="kvg:0984d-s9" kvg:type="㇐b" d="M26.93,89.48c3.16-0.39,9.82-1.26,15.08-1.97c1.23-0.17,2.38-0.32,3.4-0.46"/>
			</g>
		</g>
	</g>
	<g id="kvg:0984d-g7" kvg:element="頁" kvg:position="right" kvg:radical="general">
		<g id="kvg:0984d-g8" kvg:position="top">
			<path style="stroke: #09bfbf;" id="kvg:0984d-s10" kvg:type="㇐" d="M54.63,18.95c2.51,0.57,4.99,0.16,7.5-0.12c9.32-1.05,17.42-1.93,25.88-2.56c2.35-0.17,4.37-0.31,6.62,0.48"/>
			<path style="stroke: #0982bf;" id="kvg:0984d-s11" kvg:type="㇒" d="M71.93,20.94c0.01,0.32,0.16,0.85-0.03,1.27c-1.19,2.73-3.6,6.56-5.91,9.78"/>
		</g>
		<g id="kvg:0984d-g9" kvg:element="貝" kvg:position="bottom">
			<g id="kvg:0984d-g10" kvg:element="目" kvg:position="top">
				<path style="stroke: #0946bf;" id="kvg:0984d-s12" kvg:type="㇑" d="M56.78,33.82c0.96,0.95,1.42,2.22,1.42,3.7c0,1.18-0.04,27.31-0.06,38.11c0,2.71-0.01,4.46-0.01,4.6"/>
				<path style="stroke: #0909bf;" id="kvg:0984d-s13" kvg:type="㇕a" d="M58.99,34.86c3.88-0.61,22.94-2.65,25.37-2.98c2.76-0.38,4.24,1.25,4.24,3.55c0,1.34-0.12,26.58-0.18,37.96c-0.02,3.32-0.03,5.45-0.03,5.48"/>
				<path style="stroke: #4609bf;" id="kvg:0984d-s14" kvg:type="㇐a" d="M59.19,48.65c6.56-0.52,22.27-1.94,28.04-2.11"/>
				<path style="stroke: #8209bf;" id="kvg:0984d-s15" kvg:type="㇐a" d="M59.41,62.95c6.96-0.58,20.44-1.91,27.8-2.13"/>
				<path style="stroke: #bf09bf;" id="kvg:0984d-s16" kvg:type="㇐a" d="M59.36,77.09c7.89-0.84,20.21-1.66,28.06-1.9"/>
			</g>
			<g id="kvg:0984d-g11" kvg:position="bottom">
				<path style="stroke: #bf0982;" id="kvg:0984d-s17" kvg:type="㇒" d="M65.74,81.5c0.39,1.29,0,2.57-0.78,3.47c-2.34,2.73-9.54,9.37-14.22,12.53"/>
				<path style="stroke: #bf0946;" id="kvg:0984d-s18" kvg:type="㇔" d="M80.11,82.59c5.33,3.87,11.63,10.76,13.08,14.02"/>
			</g>
		</g>
	</g>
</g>
</g>
<g id="kvg:StrokeNumbers_0984d" style="font-size:8;fill:#808080" transform="scale(3.0,3.0)">
	<text style="fill: #bf0909;" transform="matrix(1 0 0 1 26.50 14.50)">1</text>
	<text style="fill: #bf4609;" transform="matrix(1 0 0 1 11.50 30.50)">2</text>
	<text style="fill: #bf8209;" transform="matrix(1 0 0 1 20.50 25.48)">3</text>
	<text style="fill: #bfbf09;" transform="matrix(1 0 0 1 22.50 37.50)">4</text>
	<text style="fill: #82bf09;" transform="matrix(1 0 0 1 35.50 37.33)">5</text>
	<text style="fill: #46bf09;" transform="matrix(1 0 0 1 29.25 51.13)">6</text>
	<text style="fill: #09bf09;" transform="matrix(1 0 0 1 17.50 81.50)">7</text>
	<text style="fill: #09bf46;" transform="matrix(1 0 0 1 30.49 70.10)">8</text>
	<text style="fill: #09bf82;" transform="matrix(1 0 0 1 29.25 85.63)">9</text>
	<text style="fill: #09bfbf;" transform="matrix(1 0 0 1 53.25 15.13)">10</text>
	<text style="fill: #0982bf;" transform="matrix(1 0 0 1 62.50 25.63)">11</text>
	<text style="fill: #0946bf;" transform="matrix(1 0 0 1 48.50 42.50)">12</text>
	<text style="fill: #0909bf;" transform="matrix(1 0 0 1 56.25 31.63)">13</text>
	<text style="fill: #4609bf;" transform="matrix(1 0 0 1 62.07 45.66)">14</text>
	<text style="fill: #8209bf;" transform="matrix(1 0 0 1 62.25 59.50)">15</text>
	<text style="fill: #bf09bf;" transform="matrix(1 0 0 1 62.11 73.63)">16</text>
	<text style="fill: #bf0982;" transform="matrix(1 0 0 1 53.50 88.93)">17</text>
	<text style="fill: #bf0946;" transform="matrix(1 0 0 1 71.50 87.13)">18</text>
</g>
</svg>
