<?xml version="1.0" encoding="UTF-8"?>
<!--
This file has been modified from the original version by the kanji_colorize.py
script (available at http://github.com/cayennes/kanji-colorize) with these
settings:
    mode: spectrum
    saturation: 0.95
    value: 0.75
    image_size: 327
It remains under a Creative Commons-Attribution-Share Alike 3.0 License.

The original SVG has the following copyright:

Copyright (C) 2009/2010/2011 Ulrich Apel.
This work is distributed under the conditions of the Creative Commons
Attribution-Share Alike 3.0 Licence. This means you are free:
* to Share - to copy, distribute and transmit the work
* to Remix - to adapt the work

Under the following conditions:
* Attribution. You must attribute the work by stating your use of KanjiVG in
  your own copyright header and linking to KanjiVG's website
  (http://kanjivg.tagaini.net)
* Share Alike. If you alter, transform, or build upon this work, you may
  distribute the resulting work only under the same or similar license to this
  one.

See http://creativecommons.org/licenses/by-sa/3.0/ for more details.
-->
<!DOCTYPE svg PUBLIC "-//W3C//DTD SVG 1.0//EN" "http://www.w3.org/TR/2001/REC-SVG-20010904/DTD/svg10.dtd" [
<!ATTLIST g
xmlns:kvg CDATA #FIXED "http://kanjivg.tagaini.net"
kvg:element CDATA #IMPLIED
kvg:variant CDATA #IMPLIED
kvg:partial CDATA #IMPLIED
kvg:original CDATA #IMPLIED
kvg:part CDATA #IMPLIED
kvg:number CDATA #IMPLIED
kvg:tradForm CDATA #IMPLIED
kvg:radicalForm CDATA #IMPLIED
kvg:position CDATA #IMPLIED
kvg:radical CDATA #IMPLIED
kvg:phon CDATA #IMPLIED >
<!ATTLIST path
xmlns:kvg CDATA #FIXED "http://kanjivg.tagaini.net"
kvg:type CDATA #IMPLIED >
]>
<svg xmlns="http://www.w3.org/2000/svg" width="327" height = "327" viewBox="0 0 327 327">
<g id="kvg:StrokePaths_09942" style="fill:none;stroke:#000000;stroke-width:3;stroke-linecap:round;stroke-linejoin:round;" transform="scale(3.0,3.0)">
<g id="kvg:09942" kvg:element="饂">
	<g id="kvg:09942-g1" kvg:element="飠" kvg:variant="true" kvg:original="食" kvg:position="left" kvg:radical="general">
		<path style="stroke: #bf0909;" id="kvg:09942-s1" kvg:type="㇒" d="M27.76,12.14c0.05,0.69,0.26,1.83-0.1,2.75c-2.37,6.06-9.19,17.91-18.85,26.82"/>
		<path style="stroke: #bf4209;" id="kvg:09942-s2" kvg:type="㇔/㇏" d="M30.27,18.33c4.96,1.92,12.8,7.9,14.04,10.88"/>
		<path style="stroke: #bf7c09;" id="kvg:09942-s3" kvg:type="㇐" d="M21.75,33.52c0.38,0.17,1.08,0.21,1.46,0.17c2.42-0.29,10.37-2.44,12.71-2.24c0.63,0.05,1.01,0.08,1.33,0.16"/>
		<path style="stroke: #bfb509;" id="kvg:09942-s4" kvg:type="㇑" d="M16.77,41.94c0.39,0.78,0.78,1.68,0.78,2.72c0,1.04-0.13,53.29,0,54.34"/>
		<path style="stroke: #8fbf09;" id="kvg:09942-s5" kvg:type="㇕" d="M17.69,43.57c2.2-0.13,18.91-2.67,20.92-2.83c1.67-0.13,2.74,1.45,2.61,2.22c-0.26,1.57-1.97,18.54-2.52,22.01"/>
		<path style="stroke: #56bf09;" id="kvg:09942-s6" kvg:type="㇐a" d="M18.08,53.73c2.97,0,18.36-2.31,21.72-2.31"/>
		<path style="stroke: #1cbf09;" id="kvg:09942-s7" kvg:type="㇐a" d="M17.94,65.06C24,64.5,31.25,63.5,38.79,63.02"/>
		<path style="stroke: #09bf2f;" id="kvg:09942-s8" kvg:type="㇐c" d="M17.39,77.56c3.73-0.25,15.96-2.17,19.57-1.99c0.97,0.04,1.56,0.07,2.05,0.14"/>
		<path style="stroke: #09bf69;" id="kvg:09942-s9" kvg:type="㇐c" d="M17.89,89.81c3.73-0.25,15.96-2.17,19.57-1.99c0.97,0.04,1.56,0.07,2.05,0.14"/>
	</g>
	<g id="kvg:09942-g2" kvg:position="right">
		<g id="kvg:09942-g3" kvg:element="囚" kvg:position="top">
			<g id="kvg:09942-g4" kvg:element="囗" kvg:part="1">
				<path style="stroke: #09bfa2;" id="kvg:09942-s10" kvg:type="㇑" d="M52.31,21.06c0.4,0.49,0.9,1.82,1,2.46c0.86,5.34,2.25,16.16,3.14,26.98"/>
				<path style="stroke: #09a2bf;" id="kvg:09942-s11" kvg:type="㇕a" d="M53.7,22.33c11-1.41,27.98-2.73,34.46-3.33c2.6-0.24,3.08,1.2,2.84,3.31c-0.75,6.66-3.25,18.69-5.08,25.95"/>
			</g>
			<g id="kvg:09942-g5" kvg:element="人" kvg:variant="true">
				<path style="stroke: #0969bf;" id="kvg:09942-s12" kvg:type="㇒" d="M70.92,24.35c0.06,0.38,0.24,1.21,0.13,1.79c-0.63,3.46-4.3,10.1-9.26,15.69"/>
				<path style="stroke: #092fbf;" id="kvg:09942-s13" kvg:type="㇔/㇏" d="M70.45,31.83c3.79,1.17,9.33,5.85,10.27,8.13"/>
			</g>
			<g id="kvg:09942-g6" kvg:element="囗" kvg:part="2">
				<path style="stroke: #1c09bf;" id="kvg:09942-s14" kvg:type="㇐a" d="M56.48,47.7c7.04,0,19.72-1.17,29.44-1.31"/>
			</g>
		</g>
		<g id="kvg:09942-g7" kvg:element="皿" kvg:position="bottom">
			<path style="stroke: #5609bf;" id="kvg:09942-s15" kvg:type="㇑a" d="M51.47,62.34c0.5,0.78,1.15,1.62,1.26,2.28c0.85,5.23,1.53,18.87,2.11,28.28"/>
			<path style="stroke: #8f09bf;" id="kvg:09942-s16" kvg:type="㇕b" d="M53.01,63.99c9.02-1.08,33.09-2.96,36.35-3.19c2.05-0.14,3.2,1.03,2.99,3.18c-0.3,3.03-2.33,23.32-3.38,27.41"/>
			<path style="stroke: #bf09b5;" id="kvg:09942-s17" kvg:type="㇑a" d="M65.06,64.15c0.21,0.5,0.42,0.91,0.51,1.54c0.72,4.94,0.76,17.91,1.25,26.78"/>
			<path style="stroke: #bf097c;" id="kvg:09942-s18" kvg:type="㇑a" d="M78.26,62.54c0.38,0.6,0.75,1.62,0.68,2.38c-0.63,7.65-1,16.45-1.78,26.24"/>
			<path style="stroke: #bf0942;" id="kvg:09942-s19" kvg:type="㇐" d="M43.42,93.72c1.6,0.45,4.54,0.58,6.14,0.45C60.5,93.25,80,92.25,92.98,91.99c2.67-0.05,4.27,0.21,5.6,0.44"/>
		</g>
	</g>
</g>
</g>
<g id="kvg:StrokeNumbers_09942" style="font-size:8;fill:#808080" transform="scale(3.0,3.0)">
	<text style="fill: #bf0909;" transform="matrix(1 0 0 1 20.50 12.50)">1</text>
	<text style="fill: #bf4209;" transform="matrix(1 0 0 1 33.50 17.50)">2</text>
	<text style="fill: #bf7c09;" transform="matrix(1 0 0 1 25.50 30.50)">3</text>
	<text style="fill: #bfb509;" transform="matrix(1 0 0 1 10.50 50.50)">4</text>
	<text style="fill: #8fbf09;" transform="matrix(1 0 0 1 19.50 40.50)">5</text>
	<text style="fill: #56bf09;" transform="matrix(1 0 0 1 22.46 51.50)">6</text>
	<text style="fill: #1cbf09;" transform="matrix(1 0 0 1 22.50 62.50)">7</text>
	<text style="fill: #09bf2f;" transform="matrix(1 0 0 1 22.47 74.50)">8</text>
	<text style="fill: #09bf69;" transform="matrix(1 0 0 1 22.46 86.50)">9</text>
	<text style="fill: #09bfa2;" transform="matrix(1 0 0 1 44.50 32.50)">10</text>
	<text style="fill: #09a2bf;" transform="matrix(1 0 0 1 54.50 18.50)">11</text>
	<text style="fill: #0969bf;" transform="matrix(1 0 0 1 60.50 29.50)">12</text>
	<text style="fill: #092fbf;" transform="matrix(1 0 0 1 74.25 32.50)">13</text>
	<text style="fill: #1c09bf;" transform="matrix(1 0 0 1 64.50 45.50)">14</text>
	<text style="fill: #5609bf;" transform="matrix(1 0 0 1 43.25 69.50)">15</text>
	<text style="fill: #8f09bf;" transform="matrix(1 0 0 1 53.50 60.50)">16</text>
	<text style="fill: #bf09b5;" transform="matrix(1 0 0 1 57.50 71.50)">17</text>
	<text style="fill: #bf097c;" transform="matrix(1 0 0 1 69.25 70.50)">18</text>
	<text style="fill: #bf0942;" transform="matrix(1 0 0 1 41.50 90.50)">19</text>
</g>
</svg>
