<?xml version="1.0" encoding="UTF-8"?>
<!--
This file has been modified from the original version by the kanji_colorize.py
script (available at http://github.com/cayennes/kanji-colorize) with these
settings:
    mode: spectrum
    saturation: 0.95
    value: 0.75
    image_size: 327
It remains under a Creative Commons-Attribution-Share Alike 3.0 License.

The original SVG has the following copyright:

Copyright (C) 2009/2010/2011 Ulrich Apel.
This work is distributed under the conditions of the Creative Commons
Attribution-Share Alike 3.0 Licence. This means you are free:
* to Share - to copy, distribute and transmit the work
* to Remix - to adapt the work

Under the following conditions:
* Attribution. You must attribute the work by stating your use of KanjiVG in
  your own copyright header and linking to KanjiVG's website
  (http://kanjivg.tagaini.net)
* Share Alike. If you alter, transform, or build upon this work, you may
  distribute the resulting work only under the same or similar license to this
  one.

See http://creativecommons.org/licenses/by-sa/3.0/ for more details.
-->
<!DOCTYPE svg PUBLIC "-//W3C//DTD SVG 1.0//EN" "http://www.w3.org/TR/2001/REC-SVG-20010904/DTD/svg10.dtd" [
<!ATTLIST g
xmlns:kvg CDATA #FIXED "http://kanjivg.tagaini.net"
kvg:element CDATA #IMPLIED
kvg:variant CDATA #IMPLIED
kvg:partial CDATA #IMPLIED
kvg:original CDATA #IMPLIED
kvg:part CDATA #IMPLIED
kvg:number CDATA #IMPLIED
kvg:tradForm CDATA #IMPLIED
kvg:radicalForm CDATA #IMPLIED
kvg:position CDATA #IMPLIED
kvg:radical CDATA #IMPLIED
kvg:phon CDATA #IMPLIED >
<!ATTLIST path
xmlns:kvg CDATA #FIXED "http://kanjivg.tagaini.net"
kvg:type CDATA #IMPLIED >
]>
<svg xmlns="http://www.w3.org/2000/svg" width="327" height = "327" viewBox="0 0 327 327">
<g id="kvg:StrokePaths_099f8" style="fill:none;stroke:#000000;stroke-width:3;stroke-linecap:round;stroke-linejoin:round;" transform="scale(3.0,3.0)">
<g id="kvg:099f8" kvg:element="駸">
	<g id="kvg:099f8-g1" kvg:element="馬" kvg:position="left" kvg:radical="general">
		<path style="stroke: #bf0909;" id="kvg:099f8-s1" kvg:type="㇑" d="M14.89,14.71c0.86,0.54,1,3.29,0.99,4.3c-0.05,9.44-0.26,38.26-0.93,41.05"/>
		<path style="stroke: #bf4909;" id="kvg:099f8-s2" kvg:type="㇐b" d="M15.85,16.35c7.44-0.54,21.42-1.89,23.67-2.25c0.89-0.14,2.41-0.25,2.86-0.03"/>
		<path style="stroke: #bf8909;" id="kvg:099f8-s3" kvg:type="㇑a" d="M27.86,16.41c0.24,0.39,0.91,0.9,0.91,1.53c-0.02,6.35-0.06,28.77-0.24,38.76"/>
		<path style="stroke: #b4bf09;" id="kvg:099f8-s4" kvg:type="㇐b" d="M16.29,30.07c5.96-0.6,18.81-1.64,21.36-2.05c0.89-0.14,2.41-0.25,2.86-0.03"/>
		<path style="stroke: #74bf09;" id="kvg:099f8-s5" kvg:type="㇐b" d="M16.38,42.98c5.96-0.6,19.28-2.16,21.84-2.56c0.89-0.14,2.41-0.25,2.86-0.03"/>
		<path style="stroke: #34bf09;" id="kvg:099f8-s6" kvg:type="㇆a" d="M15.65,59.44c5.88-1.45,20.99-3.65,24.22-4.27c4.12-0.79,3.99,2.39,3.76,6.14c-0.64,10.65-4.3,22.46-7.35,29.36c-2.62,5.92-6.56,0.92-7.42-0.38"/>
		<g id="kvg:099f8-g2" kvg:element="灬" kvg:variant="true" kvg:original="火">
			<path style="stroke: #09bf1e;" id="kvg:099f8-s7" kvg:type="㇔" d="M10.55,69.2c0.3,6.59-0.61,12.39-0.93,13.71"/>
			<path style="stroke: #09bf5f;" id="kvg:099f8-s8" kvg:type="㇔" d="M17.3,68.65c1.29,2.66,2.38,6,2.68,10.75"/>
			<path style="stroke: #09bf9f;" id="kvg:099f8-s9" kvg:type="㇔" d="M24.77,66.01c0.66,1.22,3.05,5.26,3.34,9.25"/>
			<path style="stroke: #099fbf;" id="kvg:099f8-s10" kvg:type="㇔" d="M31.85,63.96c1.41,2.29,3.73,4.66,4.24,7.7"/>
		</g>
	</g>
	<g id="kvg:099f8-g3" kvg:position="right">
		<g id="kvg:099f8-g4" kvg:element="⺕" kvg:variant="true" kvg:original="彑" kvg:position="top">
			<path style="stroke: #095fbf;" id="kvg:099f8-s11" kvg:type="㇕" d="M55.33,16.49c0.9,0.47,3.58,0.56,4.31,0.44c5.85-0.93,22.87-3.08,24.06-3.32c1.19-0.24,2.53,0.69,2.39,2.36c-0.68,7.93-2.09,16.35-2.54,20.12"/>
			<path style="stroke: #091ebf;" id="kvg:099f8-s12" kvg:type="㇐" d="M46.84,27.65c1.35,0.69,3.82,0.81,5.17,0.69c14.05-1.16,23.62-2.32,39.24-3.81c3.29-0.31,4.23-0.17,6.49,0.15"/>
			<path style="stroke: #3409bf;" id="kvg:099f8-s13" kvg:type="㇐c" d="M55.77,38.26c0.8,0.52,2.27,0.6,3.08,0.52c7.57-0.79,15.16-2.03,23.17-2.42c0.79-0.04,2.24-0.17,3.46,0.17"/>
		</g>
		<g id="kvg:099f8-g5" kvg:position="bottom">
			<g id="kvg:099f8-g6" kvg:element="冖">
				<path style="stroke: #7409bf;" id="kvg:099f8-s14" kvg:type="㇔" d="M53.65,48.24c-0.14,4.41-2.27,13.56-3.5,16.19"/>
				<path style="stroke: #b409bf;" id="kvg:099f8-s15" kvg:type="㇖b" d="M53.9,50.92c9.6-1.32,26.1-3.24,38.16-4.13c10.73-0.8,1.8,6.99,0.8,8.1"/>
			</g>
			<g id="kvg:099f8-g7" kvg:element="又">
				<path style="stroke: #bf0989;" id="kvg:099f8-s16" kvg:type="㇇" d="M58,62.2c1.41,0.24,1.58,0.6,4.39,0.24c2.81-0.36,17.49-3.14,19.42-3.5c1.93-0.36,3.33,1.32,2.64,2.64C76.2,77.15,61.62,90.37,45.82,96.24"/>
				<path style="stroke: #bf0949;" id="kvg:099f8-s17" kvg:type="㇏" d="M54.94,67.04c4.81,0.71,21.62,18.78,34.41,26.2c1.99,1.16,3.44,1.93,5.3,2.31"/>
			</g>
		</g>
	</g>
</g>
</g>
<g id="kvg:StrokeNumbers_099f8" style="font-size:8;fill:#808080" transform="scale(3.0,3.0)">
	<text style="fill: #bf0909;" transform="matrix(1 0 0 1 9.50 22.50)">1</text>
	<text style="fill: #bf4909;" transform="matrix(1 0 0 1 17.50 13.50)">2</text>
	<text style="fill: #bf8909;" transform="matrix(1 0 0 1 32.50 23.50)">3</text>
	<text style="fill: #b4bf09;" transform="matrix(1 0 0 1 20.34 27.85)">4</text>
	<text style="fill: #74bf09;" transform="matrix(1 0 0 1 20.50 40.85)">5</text>
	<text style="fill: #34bf09;" transform="matrix(1 0 0 1 20.38 55.50)">6</text>
	<text style="fill: #09bf1e;" transform="matrix(1 0 0 1 4.50 71.50)">7</text>
	<text style="fill: #09bf5f;" transform="matrix(1 0 0 1 13.50 75.50)">8</text>
	<text style="fill: #09bf9f;" transform="matrix(1 0 0 1 20.50 72.50)">9</text>
	<text style="fill: #099fbf;" transform="matrix(1 0 0 1 26.50 69.50)">10</text>
	<text style="fill: #095fbf;" transform="matrix(1 0 0 1 48.50 13.50)">11</text>
	<text style="fill: #091ebf;" transform="matrix(1 0 0 1 43.50 25.50)">12</text>
	<text style="fill: #3409bf;" transform="matrix(1 0 0 1 45.50 40.50)">13</text>
	<text style="fill: #7409bf;" transform="matrix(1 0 0 1 43.50 51.50)">14</text>
	<text style="fill: #b409bf;" transform="matrix(1 0 0 1 56.50 47.58)">15</text>
	<text style="fill: #bf0989;" transform="matrix(1 0 0 1 58.50 59.50)">16</text>
	<text style="fill: #bf0949;" transform="matrix(1 0 0 1 63.50 71.50)">17</text>
</g>
</svg>
