<?xml version="1.0" encoding="UTF-8"?>
<!--
This file has been modified from the original version by the kanji_colorize.py
script (available at http://github.com/cayennes/kanji-colorize) with these
settings:
    mode: spectrum
    saturation: 0.95
    value: 0.75
    image_size: 327
It remains under a Creative Commons-Attribution-Share Alike 3.0 License.

The original SVG has the following copyright:

Copyright (C) 2009/2010/2011 Ulrich Apel.
This work is distributed under the conditions of the Creative Commons
Attribution-Share Alike 3.0 Licence. This means you are free:
* to Share - to copy, distribute and transmit the work
* to Remix - to adapt the work

Under the following conditions:
* Attribution. You must attribute the work by stating your use of KanjiVG in
  your own copyright header and linking to KanjiVG's website
  (http://kanjivg.tagaini.net)
* Share Alike. If you alter, transform, or build upon this work, you may
  distribute the resulting work only under the same or similar license to this
  one.

See http://creativecommons.org/licenses/by-sa/3.0/ for more details.
-->
<!DOCTYPE svg PUBLIC "-//W3C//DTD SVG 1.0//EN" "http://www.w3.org/TR/2001/REC-SVG-20010904/DTD/svg10.dtd" [
<!ATTLIST g
xmlns:kvg CDATA #FIXED "http://kanjivg.tagaini.net"
kvg:element CDATA #IMPLIED
kvg:variant CDATA #IMPLIED
kvg:partial CDATA #IMPLIED
kvg:original CDATA #IMPLIED
kvg:part CDATA #IMPLIED
kvg:number CDATA #IMPLIED
kvg:tradForm CDATA #IMPLIED
kvg:radicalForm CDATA #IMPLIED
kvg:position CDATA #IMPLIED
kvg:radical CDATA #IMPLIED
kvg:phon CDATA #IMPLIED >
<!ATTLIST path
xmlns:kvg CDATA #FIXED "http://kanjivg.tagaini.net"
kvg:type CDATA #IMPLIED >
]>
<svg xmlns="http://www.w3.org/2000/svg" width="327" height = "327" viewBox="0 0 327 327">
<g id="kvg:StrokePaths_09ac4" style="fill:none;stroke:#000000;stroke-width:3;stroke-linecap:round;stroke-linejoin:round;" transform="scale(3.0,3.0)">
<g id="kvg:09ac4" kvg:element="髄">
	<g id="kvg:09ac4-g1" kvg:element="骨" kvg:position="left" kvg:radical="general">
		<g id="kvg:09ac4-g2" kvg:position="top">
			<path style="stroke: #bf0909;" id="kvg:09ac4-s1" kvg:type="㇑a" d="M16.37,16.2c0.71,0.71,1.13,2.05,1.24,3.42c0.24,2.87,1.59,17.09,1.59,17.41"/>
			<path style="stroke: #bf4209;" id="kvg:09ac4-s2" kvg:type="㇕b" d="M17.81,17.13c2.76-0.46,12.41-1.81,19.12-3.12c2.88-0.56,4.83,1.12,4.34,4.02c-0.66,3.93-1.57,8.87-2.16,16.15"/>
			<path style="stroke: #bf7c09;" id="kvg:09ac4-s3" kvg:type="㇑a" d="M27.57,23.62c0.59,0.59,0.93,1.63,0.99,2.67c0.17,2.81,0.32,8.48,0.31,8.79"/>
			<path style="stroke: #bfb509;" id="kvg:09ac4-s4" kvg:type="㇐a" d="M29.75,25.23c1.21-0.02,8.11-1.06,9.21-1.18"/>
			<path style="stroke: #8fbf09;" id="kvg:09ac4-s5" kvg:type="㇔" d="M12.84,37.5c-0.02,3.57-1.92,12.88-2.57,15.25"/>
			<path style="stroke: #56bf09;" id="kvg:09ac4-s6" kvg:type="㇖b" d="M13.94,39.01c9.94-2.01,21.69-3.76,30.19-4.04c5.94-0.2,0.23,5.05-1.26,6.99"/>
		</g>
		<g id="kvg:09ac4-g3" kvg:element="月" kvg:position="bottom">
			<path style="stroke: #1cbf09;" id="kvg:09ac4-s7" kvg:type="㇑/㇒" d="M18.56,47.87c0.66,0.66,0.99,1.76,0.99,2.85c0,0.42-0.03,25.42-0.05,38.28c0,3.3-0.01,5.79-0.01,6.88"/>
			<path style="stroke: #09bf2f;" id="kvg:09ac4-s8" kvg:type="㇆a" d="M20.54,49.32c1.23-0.14,10.38-2.12,14.21-2.81c3.14-0.57,3.96,0.81,3.96,3.87c0,5.88-0.06,27.25-0.06,40.46c0,9.09-3.98,3.15-5.22,1.57"/>
			<path style="stroke: #09bf69;" id="kvg:09ac4-s9" kvg:type="㇐a" d="M21.04,61.31c4.49-0.96,12.14-1.95,16.08-2.43"/>
			<path style="stroke: #09bfa2;" id="kvg:09ac4-s10" kvg:type="㇐a" d="M20.74,73.42c3.97-0.53,11.92-1.62,16.51-1.97"/>
		</g>
	</g>
	<g id="kvg:09ac4-g4" kvg:position="right" kvg:phon="有+⻌">
		<g id="kvg:09ac4-g5" kvg:element="有">
			<path style="stroke: #09a2bf;" id="kvg:09ac4-s11" kvg:type="㇒" d="M74.88,13.43c0.37,0.82,0.22,2.05-0.09,3.14c-2.67,9.68-5.8,20.68-15.69,30.34"/>
			<path style="stroke: #0969bf;" id="kvg:09ac4-s12" kvg:type="㇐" d="M54.69,29.21c2.19,0.54,4.68,0.42,6.44,0.17c6.65-0.95,19.61-3.1,27.24-3.7c1.97-0.16,4.1-0.41,6.01,0.26"/>
			<g id="kvg:09ac4-g6" kvg:element="月">
				<path style="stroke: #092fbf;" id="kvg:09ac4-s13" kvg:type="㇑/㇒" d="M66.56,42.18c0.63,0.63,1.05,1.57,1.05,2.83c0,0.47-0.09,18.86-0.09,29.24c0,3.45-0.01,5.88-0.02,6.22"/>
				<path style="stroke: #1c09bf;" id="kvg:09ac4-s14" kvg:type="㇆a" d="M68.18,42.83c4.16-1.09,11.73-2.54,14.97-3.12c3.8-0.68,4.35,0.8,4.36,4.28c0.01,6.68,0.04,29.42,0.04,35.19c0,10.07-4.42,2.69-5.67,1.12"/>
				<path style="stroke: #5609bf;" id="kvg:09ac4-s15" kvg:type="㇐a" d="M68.93,53.54c4.95-0.93,12.6-2.07,16.95-2.54"/>
				<path style="stroke: #8f09bf;" id="kvg:09ac4-s16" kvg:type="㇐a" d="M68.83,65.01c4.29-0.46,11.55-1.89,17.41-2.64"/>
			</g>
		</g>
		<g id="kvg:09ac4-g7" kvg:element="⻌" kvg:original="辶">
			<path style="stroke: #bf09b5;" id="kvg:09ac4-s17" kvg:type="㇔" d="M47.62,43.75c2.14,1.04,5.52,4.28,6.05,5.9"/>
			<path style="stroke: #bf097c;" id="kvg:09ac4-s18" kvg:type="㇋" d="M45.31,58.98c1.31,0.4,3.26,0.17,4-0.04c3.19-0.93,6.21-1.64,7.31-2.05c1.1-0.41,2.86,1.09,2.02,2.27C50.25,71,50,66,57.21,73.32c0.95,0.96,0.55,2.27-0.55,3.3c-1.1,1.03-3.66,3.13-7.23,6.22"/>
			<path style="stroke: #bf0942;" id="kvg:09ac4-s19" kvg:type="㇏a" d="M44.93,84.62c1.97-0.43,5.05-1.03,8.1-0.65c9.09,1.15,19.98,6.91,22.88,8.02c7.87,3.02,10.96,3.88,16.34,4.62"/>
		</g>
	</g>
</g>
</g>
<g id="kvg:StrokeNumbers_09ac4" style="font-size:8;fill:#808080" transform="scale(3.0,3.0)">
	<text style="fill: #bf0909;" transform="matrix(1 0 0 1 11.25 24.13)">1</text>
	<text style="fill: #bf4209;" transform="matrix(1 0 0 1 18.75 13.63)">2</text>
	<text style="fill: #bf7c09;" transform="matrix(1 0 0 1 23.50 30.50)">3</text>
	<text style="fill: #bfb509;" transform="matrix(1 0 0 1 29.25 22.63)">4</text>
	<text style="fill: #8fbf09;" transform="matrix(1 0 0 1 3.75 43.63)">5</text>
	<text style="fill: #56bf09;" transform="matrix(1 0 0 1 12.50 34.50)">6</text>
	<text style="fill: #1cbf09;" transform="matrix(1 0 0 1 13.50 58.50)">7</text>
	<text style="fill: #09bf2f;" transform="matrix(1 0 0 1 21.75 46.63)">8</text>
	<text style="fill: #09bf69;" transform="matrix(1 0 0 1 23.25 58.55)">9</text>
	<text style="fill: #09bfa2;" transform="matrix(1 0 0 1 23.25 70.50)">10</text>
	<text style="fill: #09a2bf;" transform="matrix(1 0 0 1 77.25 13.63)">11</text>
	<text style="fill: #0969bf;" transform="matrix(1 0 0 1 54.75 27.13)">12</text>
	<text style="fill: #092fbf;" transform="matrix(1 0 0 1 58.50 53.50)">13</text>
	<text style="fill: #1c09bf;" transform="matrix(1 0 0 1 71.50 38.50)">14</text>
	<text style="fill: #5609bf;" transform="matrix(1 0 0 1 70.50 50.50)">15</text>
	<text style="fill: #8f09bf;" transform="matrix(1 0 0 1 70.50 61.48)">16</text>
	<text style="fill: #bf09b5;" transform="matrix(1 0 0 1 42.50 50.50)">17</text>
	<text style="fill: #bf097c;" transform="matrix(1 0 0 1 42.75 56.50)">18</text>
	<text style="fill: #bf0942;" transform="matrix(1 0 0 1 41.50 81.05)">19</text>
</g>
</svg>
