<?xml version="1.0" encoding="UTF-8"?>
<!--
This file has been modified from the original version by the kanji_colorize.py
script (available at http://github.com/cayennes/kanji-colorize) with these
settings:
    mode: spectrum
    saturation: 0.95
    value: 0.75
    image_size: 327
It remains under a Creative Commons-Attribution-Share Alike 3.0 License.

The original SVG has the following copyright:

Copyright (C) 2009/2010/2011 Ulrich Apel.
This work is distributed under the conditions of the Creative Commons
Attribution-Share Alike 3.0 Licence. This means you are free:
* to Share - to copy, distribute and transmit the work
* to Remix - to adapt the work

Under the following conditions:
* Attribution. You must attribute the work by stating your use of KanjiVG in
  your own copyright header and linking to KanjiVG's website
  (http://kanjivg.tagaini.net)
* Share Alike. If you alter, transform, or build upon this work, you may
  distribute the resulting work only under the same or similar license to this
  one.

See http://creativecommons.org/licenses/by-sa/3.0/ for more details.
-->
<!DOCTYPE svg PUBLIC "-//W3C//DTD SVG 1.0//EN" "http://www.w3.org/TR/2001/REC-SVG-20010904/DTD/svg10.dtd" [
<!ATTLIST g
xmlns:kvg CDATA #FIXED "http://kanjivg.tagaini.net"
kvg:element CDATA #IMPLIED
kvg:variant CDATA #IMPLIED
kvg:partial CDATA #IMPLIED
kvg:original CDATA #IMPLIED
kvg:part CDATA #IMPLIED
kvg:number CDATA #IMPLIED
kvg:tradForm CDATA #IMPLIED
kvg:radicalForm CDATA #IMPLIED
kvg:position CDATA #IMPLIED
kvg:radical CDATA #IMPLIED
kvg:phon CDATA #IMPLIED >
<!ATTLIST path
xmlns:kvg CDATA #FIXED "http://kanjivg.tagaini.net"
kvg:type CDATA #IMPLIED >
]>
<svg xmlns="http://www.w3.org/2000/svg" width="327" height = "327" viewBox="0 0 327 327">
<g id="kvg:StrokePaths_09b25" style="fill:none;stroke:#000000;stroke-width:3;stroke-linecap:round;stroke-linejoin:round;" transform="scale(3.0,3.0)">
<g id="kvg:09b25" kvg:element="鬥" kvg:radical="general">
	<g id="kvg:09b25-g1" kvg:position="left">
		<path style="stroke: #bf0909;" id="kvg:09b25-s1" kvg:type="㇑" d="M15.87,16.25c1.09,0.5,1.74,2.25,1.96,3.25c0.22,1,0,72.75-0.22,79"/>
		<g id="kvg:09b25-g2" kvg:element="王" kvg:original="玉" kvg:partial="true">
			<path style="stroke: #bf7609;" id="kvg:09b25-s2" kvg:type="㇐" d="M23.97,17.02c0.46,0.25,1.96,0.07,2.43,0.02c5.11-0.61,14.95-1.82,20.18-2.09c0.71-0.04,1.36,0.05,1.95,0.26"/>
			<path style="stroke: #9abf09;" id="kvg:09b25-s3" kvg:type="㇑a" d="M35.11,16.9c0.93,1.16,0.93,1.86,0.93,2.8c0,3.05,0.49,9.8,0.49,16.3"/>
			<path style="stroke: #2dbf09;" id="kvg:09b25-s4" kvg:type="㇐" d="M24.47,27.45c0.43,0.24,1.82,0.07,2.26,0.02c4.74-0.57,13.89-1.69,18.74-1.94c0.66-0.03,1.26,0.05,1.81,0.24"/>
			<path style="stroke: #09bf52;" id="kvg:09b25-s5" kvg:type="㇐" d="M22.97,37.64c0.52,0.29,2.2,0.08,2.73,0.02c5.73-0.68,16.78-2.05,22.65-2.34c0.8-0.04,1.53,0.06,2.19,0.29"/>
		</g>
	</g>
	<g id="kvg:09b25-g3" kvg:position="right">
		<g id="kvg:09b25-g4" kvg:element="王" kvg:original="玉" kvg:partial="true">
			<path style="stroke: #09bfbf;" id="kvg:09b25-s6" kvg:type="㇐" d="M57.75,15.02c0.47,0.25,2.02,0.07,2.5,0.02c5.24-0.61,16.36-1.82,21.73-2.09c0.73-0.04,1.4,0.05,2,0.26"/>
			<path style="stroke: #0952bf;" id="kvg:09b25-s7" kvg:type="㇑a" d="M70.19,14.9c0.96,1.16,0.96,1.86,0.96,2.8c0,6.52,0.5,10.8,0.5,15.8"/>
			<path style="stroke: #2d09bf;" id="kvg:09b25-s8" kvg:type="㇐" d="M59.26,25.45c0.44,0.24,1.87,0.07,2.32,0.02c4.87-0.57,14.27-1.69,19.25-1.94c0.68-0.03,1.3,0.05,1.86,0.24"/>
			<path style="stroke: #9a09bf;" id="kvg:09b25-s9" kvg:type="㇐" d="M57.72,35.14c0.53,0.29,2.26,0.08,2.8,0.02c5.89-0.68,17.24-2.05,23.26-2.34c0.82-0.04,1.57,0.06,2.25,0.29"/>
		</g>
		<path style="stroke: #bf0976;" id="kvg:09b25-s10" kvg:type="㇚" d="M90.27,11.83c0.98,0.92,1.76,1.99,1.76,5.02c0,19.9,0.24,70.16,0.24,75.12c0,10.39-7.21,1.5-8.71,0.25"/>
	</g>
</g>
</g>
<g id="kvg:StrokeNumbers_09b25" style="font-size:8;fill:#808080" transform="scale(3.0,3.0)">
	<text style="fill: #bf0909;" transform="matrix(1 0 0 1 10.50 24.50)">1</text>
	<text style="fill: #bf7609;" transform="matrix(1 0 0 1 23.50 13.50)">2</text>
	<text style="fill: #9abf09;" transform="matrix(1 0 0 1 29.50 23.50)">3</text>
	<text style="fill: #2dbf09;" transform="matrix(1 0 0 1 23.34 25.13)">4</text>
	<text style="fill: #09bf52;" transform="matrix(1 0 0 1 23.50 35.50)">5</text>
	<text style="fill: #09bfbf;" transform="matrix(1 0 0 1 55.50 12.50)">6</text>
	<text style="fill: #0952bf;" transform="matrix(1 0 0 1 64.50 22.50)">7</text>
	<text style="fill: #2d09bf;" transform="matrix(1 0 0 1 55.50 23.50)">8</text>
	<text style="fill: #9a09bf;" transform="matrix(1 0 0 1 55.50 32.50)">9</text>
	<text style="fill: #bf0976;" transform="matrix(1 0 0 1 84.50 8.50)">10</text>
</g>
</svg>
