<?xml version="1.0" encoding="UTF-8"?>
<!--
This file has been modified from the original version by the kanji_colorize.py
script (available at http://github.com/cayennes/kanji-colorize) with these
settings:
    mode: spectrum
    saturation: 0.95
    value: 0.75
    image_size: 327
It remains under a Creative Commons-Attribution-Share Alike 3.0 License.

The original SVG has the following copyright:

Copyright (C) 2009/2010/2011 Ulrich Apel.
This work is distributed under the conditions of the Creative Commons
Attribution-Share Alike 3.0 Licence. This means you are free:
* to Share - to copy, distribute and transmit the work
* to Remix - to adapt the work

Under the following conditions:
* Attribution. You must attribute the work by stating your use of KanjiVG in
  your own copyright header and linking to KanjiVG's website
  (http://kanjivg.tagaini.net)
* Share Alike. If you alter, transform, or build upon this work, you may
  distribute the resulting work only under the same or similar license to this
  one.

See http://creativecommons.org/licenses/by-sa/3.0/ for more details.
-->
<!DOCTYPE svg PUBLIC "-//W3C//DTD SVG 1.0//EN" "http://www.w3.org/TR/2001/REC-SVG-20010904/DTD/svg10.dtd" [
<!ATTLIST g
xmlns:kvg CDATA #FIXED "http://kanjivg.tagaini.net"
kvg:element CDATA #IMPLIED
kvg:variant CDATA #IMPLIED
kvg:partial CDATA #IMPLIED
kvg:original CDATA #IMPLIED
kvg:part CDATA #IMPLIED
kvg:number CDATA #IMPLIED
kvg:tradForm CDATA #IMPLIED
kvg:radicalForm CDATA #IMPLIED
kvg:position CDATA #IMPLIED
kvg:radical CDATA #IMPLIED
kvg:phon CDATA #IMPLIED >
<!ATTLIST path
xmlns:kvg CDATA #FIXED "http://kanjivg.tagaini.net"
kvg:type CDATA #IMPLIED >
]>
<svg xmlns="http://www.w3.org/2000/svg" width="327" height = "327" viewBox="0 0 327 327">
<g id="kvg:StrokePaths_09bd4" style="fill:none;stroke:#000000;stroke-width:3;stroke-linecap:round;stroke-linejoin:round;" transform="scale(3.0,3.0)">
<g id="kvg:09bd4" kvg:element="鯔">
	<g id="kvg:09bd4-g1" kvg:element="魚" kvg:position="left" kvg:radical="general">
		<g id="kvg:09bd4-g2" kvg:element="𠂊" kvg:variant="true" kvg:original="勹" kvg:position="top">
			<path style="stroke: #bf0909;" id="kvg:09bd4-s1" kvg:type="㇒" d="M26.49,11.75c0.04,0.57,0.19,1.51-0.08,2.31C24.75,19,20,27.25,11.99,36.12"/>
			<path style="stroke: #bf4209;" id="kvg:09bd4-s2" kvg:type="㇇" d="M23.89,20.38c1.93,0,15.32-2.44,17.35-2.73c1.74-0.25,2.63,1.17,1.91,2.4c-3.05,5.19-6.98,11.16-11.95,19.4"/>
		</g>
		<g id="kvg:09bd4-g3" kvg:position="bottom">
			<g id="kvg:09bd4-g4" kvg:element="田">
				<path style="stroke: #bf7c09;" id="kvg:09bd4-s3" kvg:type="㇑" d="M15.22,40.89c0.23,0.46,0.73,1.77,0.86,2.35c1.02,4.72,2.61,17.64,3.25,26.45"/>
				<path style="stroke: #bfb509;" id="kvg:09bd4-s4" kvg:type="㇕a" d="M16.28,43.02c7.92-1.19,22.01-2.21,27.92-3.21c2.17-0.37,3.29,0.93,3.17,2.23c-0.41,4.76-0.79,16.26-2.53,25.17"/>
				<path style="stroke: #8fbf09;" id="kvg:09bd4-s5" kvg:type="㇑a" d="M30.56,42.73c0.9,0.59,1.58,2.51,1.61,4.04c0.12,6.73,0.03,16.27,0.03,19.6"/>
				<path style="stroke: #56bf09;" id="kvg:09bd4-s6" kvg:type="㇐a" d="M18.76,54.73c2.58-0.46,25.26-2.87,27.39-3.06"/>
				<path style="stroke: #1cbf09;" id="kvg:09bd4-s7" kvg:type="㇐a" d="M19.73,67.9c5.71-0.51,17.61-1.62,25.49-2.45"/>
			</g>
			<g id="kvg:09bd4-g5" kvg:element="灬" kvg:variant="true" kvg:original="火">
				<path style="stroke: #09bf2f;" id="kvg:09bd4-s8" kvg:type="㇔" d="M15.89,80.32c0,5.14-2.36,12.71-2.98,14.18"/>
				<path style="stroke: #09bf69;" id="kvg:09bd4-s9" kvg:type="㇔" d="M23.26,78.33c1.42,2.74,2.76,10.28,3.11,14.54"/>
				<path style="stroke: #09bfa2;" id="kvg:09bd4-s10" kvg:type="㇔" d="M32.84,76.94c1.9,2.33,4.92,9.59,5.4,13.21"/>
				<path style="stroke: #09a2bf;" id="kvg:09bd4-s11" kvg:type="㇔" d="M43.55,75.87c2.28,2.25,5.88,9.27,6.45,12.78"/>
			</g>
		</g>
	</g>
	<g id="kvg:09bd4-g6" kvg:position="right">
		<g id="kvg:09bd4-g7" kvg:element="巛" kvg:position="top">
			<path style="stroke: #0969bf;" id="kvg:09bd4-s12" kvg:type="㇛" d="M62.2,12.6c0.13,1.12,0.01,1.93-0.31,2.84c-2.14,6.1-3.89,10.3-8.75,17.9c-0.74,1.15-0.35,0.82,0,1.18c3.86,3.97,7.52,8.46,10.58,16.58"/>
			<path style="stroke: #092fbf;" id="kvg:09bd4-s13" kvg:type="㇛" d="M76.97,12.97c0.42,1.2-0.03,2.86-0.38,3.66c-1.85,4.17-4.62,8.88-9.84,15.04c-0.5,0.6-0.24,0.82,0.23,1.17c5.52,4.06,8.54,9.91,11.07,16.97"/>
			<path style="stroke: #1c09bf;" id="kvg:09bd4-s14" kvg:type="㇛" d="M92.28,13.03c0.35,0.84,0.31,1.76,0.16,2.6c-0.87,4.6-3.62,8.42-9.33,15.48c-0.49,0.61-0.16,0.73,0.23,1.17C89,38.75,91.62,43.73,93.93,50"/>
		</g>
		<g id="kvg:09bd4-g8" kvg:element="田" kvg:position="bottom">
			<path style="stroke: #5609bf;" id="kvg:09bd4-s15" kvg:type="㇑" d="M55.38,61.61c0.3,0.57,0.31,0.95,0.47,1.65c1.34,5.76,2.97,21.82,3.75,32.42"/>
			<path style="stroke: #8f09bf;" id="kvg:09bd4-s16" kvg:type="㇕a" d="M56.15,64.04c8.64-1.2,26.29-3.03,32.98-3.56c2.46-0.19,3.7,1.37,3.57,2.83c-0.49,5.32-1.21,20.76-3.28,30.02"/>
			<path style="stroke: #bf09b5;" id="kvg:09bd4-s17" kvg:type="㇑a" d="M72.52,64.17c0.23,0.73,0.69,1.14,0.68,2.1c-0.03,6.28,0.16,22.68,0.16,24.96"/>
			<path style="stroke: #bf097c;" id="kvg:09bd4-s18" kvg:type="㇐a" d="M58.03,77.41c2.92-0.26,29.59-2.82,32-2.82"/>
			<path style="stroke: #bf0942;" id="kvg:09bd4-s19" kvg:type="㇐a" d="M59.4,92.3c6.44,0,21.65-1.28,30.55-1.42"/>
		</g>
	</g>
</g>
</g>
<g id="kvg:StrokeNumbers_09bd4" style="font-size:8;fill:#808080" transform="scale(3.0,3.0)">
	<text style="fill: #bf0909;" transform="matrix(1 0 0 1 19.50 11.50)">1</text>
	<text style="fill: #bf4209;" transform="matrix(1 0 0 1 32.25 16.50)">2</text>
	<text style="fill: #bf7c09;" transform="matrix(1 0 0 1 9.75 48.50)">3</text>
	<text style="fill: #bfb509;" transform="matrix(1 0 0 1 18.50 39.50)">4</text>
	<text style="fill: #8fbf09;" transform="matrix(1 0 0 1 35.25 49.50)">5</text>
	<text style="fill: #56bf09;" transform="matrix(1 0 0 1 21.50 51.75)">6</text>
	<text style="fill: #1cbf09;" transform="matrix(1 0 0 1 23.00 65.43)">7</text>
	<text style="fill: #09bf2f;" transform="matrix(1 0 0 1 10.50 82.50)">8</text>
	<text style="fill: #09bf69;" transform="matrix(1 0 0 1 18.75 85.50)">9</text>
	<text style="fill: #09bfa2;" transform="matrix(1 0 0 1 27.50 83.50)">10</text>
	<text style="fill: #09a2bf;" transform="matrix(1 0 0 1 37.50 81.50)">11</text>
	<text style="fill: #0969bf;" transform="matrix(1 0 0 1 49.50 11.50)">12</text>
	<text style="fill: #092fbf;" transform="matrix(1 0 0 1 65.00 11.50)">13</text>
	<text style="fill: #1c09bf;" transform="matrix(1 0 0 1 81.00 12.00)">14</text>
	<text style="fill: #5609bf;" transform="matrix(1 0 0 1 47.00 69.50)">15</text>
	<text style="fill: #8f09bf;" transform="matrix(1 0 0 1 58.50 60.50)">16</text>
	<text style="fill: #bf09b5;" transform="matrix(1 0 0 1 76.50 69.40)">17</text>
	<text style="fill: #bf097c;" transform="matrix(1 0 0 1 61.50 73.32)">18</text>
	<text style="fill: #bf0942;" transform="matrix(1 0 0 1 62.50 89.00)">19</text>
</g>
</svg>
