<?xml version="1.0" encoding="UTF-8"?>
<!--
This file has been modified from the original version by the kanji_colorize.py
script (available at http://github.com/cayennes/kanji-colorize) with these
settings:
    mode: spectrum
    saturation: 0.95
    value: 0.75
    image_size: 327
It remains under a Creative Commons-Attribution-Share Alike 3.0 License.

The original SVG has the following copyright:

Copyright (C) 2009/2010/2011 Ulrich Apel.
This work is distributed under the conditions of the Creative Commons
Attribution-Share Alike 3.0 Licence. This means you are free:
* to Share - to copy, distribute and transmit the work
* to Remix - to adapt the work

Under the following conditions:
* Attribution. You must attribute the work by stating your use of KanjiVG in
  your own copyright header and linking to KanjiVG's website
  (http://kanjivg.tagaini.net)
* Share Alike. If you alter, transform, or build upon this work, you may
  distribute the resulting work only under the same or similar license to this
  one.

See http://creativecommons.org/licenses/by-sa/3.0/ for more details.
-->
<!DOCTYPE svg PUBLIC "-//W3C//DTD SVG 1.0//EN" "http://www.w3.org/TR/2001/REC-SVG-20010904/DTD/svg10.dtd" [
<!ATTLIST g
xmlns:kvg CDATA #FIXED "http://kanjivg.tagaini.net"
kvg:element CDATA #IMPLIED
kvg:variant CDATA #IMPLIED
kvg:partial CDATA #IMPLIED
kvg:original CDATA #IMPLIED
kvg:part CDATA #IMPLIED
kvg:number CDATA #IMPLIED
kvg:tradForm CDATA #IMPLIED
kvg:radicalForm CDATA #IMPLIED
kvg:position CDATA #IMPLIED
kvg:radical CDATA #IMPLIED
kvg:phon CDATA #IMPLIED >
<!ATTLIST path
xmlns:kvg CDATA #FIXED "http://kanjivg.tagaini.net"
kvg:type CDATA #IMPLIED >
]>
<svg xmlns="http://www.w3.org/2000/svg" width="327" height = "327" viewBox="0 0 327 327">
<g id="kvg:StrokePaths_09be4" style="fill:none;stroke:#000000;stroke-width:3;stroke-linecap:round;stroke-linejoin:round;" transform="scale(3.0,3.0)">
<g id="kvg:09be4" kvg:element="鯤">
	<g id="kvg:09be4-g1" kvg:element="魚" kvg:position="left" kvg:radical="general">
		<g id="kvg:09be4-g2" kvg:element="𠂊" kvg:variant="true" kvg:original="勹" kvg:position="top">
			<path style="stroke: #bf0909;" id="kvg:09be4-s1" kvg:type="㇒" d="M24.99,12.75c0.04,0.56,0.15,1.47-0.08,2.26C23.25,20.5,17.5,32,10.24,40.12"/>
			<path style="stroke: #bf4209;" id="kvg:09be4-s2" kvg:type="㇇" d="M22.89,21.38c1.93,0,13.82-2.44,15.85-2.73c1.74-0.25,2.63,1.67,1.91,2.9c-3.05,5.19-6.39,10.7-10.45,19.9"/>
		</g>
		<g id="kvg:09be4-g3" kvg:position="bottom">
			<g id="kvg:09be4-g4" kvg:element="田">
				<path style="stroke: #bf7c09;" id="kvg:09be4-s3" kvg:type="㇑" d="M13.22,43.89c0.95,1.92,1.52,4.1,1.36,3.35c1.02,4.72,2.11,17.14,2.75,25.95"/>
				<path style="stroke: #bfb509;" id="kvg:09be4-s4" kvg:type="㇕a" d="M14.28,45.52c7.92-1.19,22.01-2.71,27.92-3.71c2.17-0.37,3.29,0.93,3.17,2.23c-0.41,4.76-1.29,17.26-3.03,26.17"/>
				<path style="stroke: #8fbf09;" id="kvg:09be4-s5" kvg:type="㇑a" d="M27.56,43.73c0.9,0.59,1.58,2.51,1.61,4.04c0.12,6.73,0.03,17.27,0.03,20.6"/>
				<path style="stroke: #56bf09;" id="kvg:09be4-s6" kvg:type="㇐a" d="M16.26,58.23c2.58-0.46,25.26-3.87,27.39-4.06"/>
				<path style="stroke: #1cbf09;" id="kvg:09be4-s7" kvg:type="㇐a" d="M17.73,70.9c5.71-0.51,17.11-2.62,24.99-3.45"/>
			</g>
			<g id="kvg:09be4-g5" kvg:element="灬" kvg:variant="true" kvg:original="火">
				<path style="stroke: #09bf2f;" id="kvg:09be4-s8" kvg:type="㇔" d="M14.5,82.32c0,5.32-2.74,13.16-3.45,14.68"/>
				<path style="stroke: #09bf69;" id="kvg:09be4-s9" kvg:type="㇔" d="M23.01,81.33c1.19,2.36,2.32,8.87,2.62,12.54"/>
				<path style="stroke: #09bfa2;" id="kvg:09be4-s10" kvg:type="㇔" d="M31.98,79.94c1.54,2.15,3.97,8.86,4.36,12.21"/>
				<path style="stroke: #09a2bf;" id="kvg:09be4-s11" kvg:type="㇔" d="M42.05,78.12c1.92,1.86,4.97,7.64,5.45,10.53"/>
			</g>
		</g>
	</g>
	<g id="kvg:09be4-g6" kvg:element="昆" kvg:position="right">
		<g id="kvg:09be4-g7" kvg:element="日" kvg:position="top">
			<path style="stroke: #0969bf;" id="kvg:09be4-s12" kvg:type="㇑" d="M52.05,18.04c0.46,0.69,1.29,2.04,1.42,2.95c0.52,3.51,3.26,26.27,3.26,26.73"/>
			<path style="stroke: #092fbf;" id="kvg:09be4-s13" kvg:type="㇕a" d="M54.09,20.17c2.6-0.12,30.41-4.79,32.78-4.93c1.97-0.11,3.31,0.77,3.09,3.47c-0.11,1.43-1.09,17.64-3.07,27.57"/>
			<path style="stroke: #1c09bf;" id="kvg:09be4-s14" kvg:type="㇐a" d="M55.09,31.61c7.05-0.58,30.11-3.48,34.09-3.48"/>
			<path style="stroke: #5609bf;" id="kvg:09be4-s15" kvg:type="㇐a" d="M57.08,46.48c7.17-0.49,19.82-2.81,28.75-3.23"/>
		</g>
		<g id="kvg:09be4-g8" kvg:element="比" kvg:position="bottom">
			<g id="kvg:09be4-g9" kvg:position="left">
				<path style="stroke: #8f09bf;" id="kvg:09be4-s16" kvg:type="㇐b" d="M55,69.25c3.75-0.25,11.25-3,12.25-3s1.5-0.25,3,0"/>
				<path style="stroke: #bf09b5;" id="kvg:09be4-s17" kvg:type="㇙" d="M53.22,55.2c0.8,0.59,0.86,0.99,1.12,1.79c0.27,0.79,0.25,30.52,0.25,35.11c0,3,0.66,4.16,3.24,2.16c5.45-4.22,5.18-4,11.4-9.02"/>
			</g>
			<g id="kvg:09be4-g10" kvg:element="匕" kvg:position="right">
				<path style="stroke: #bf097c;" id="kvg:09be4-s18" kvg:type="㇒" d="M94.43,55.04c0.22,0.39-0.12,2.36-0.63,2.84C87.5,63.75,85,66,77.5,70.69"/>
				<path style="stroke: #bf0942;" id="kvg:09be4-s19" kvg:type="㇟" d="M74.88,52.75c1.21,0.56,1.43,3.53,1.41,4.44c-0.1,5.12-0.2,25.35-0.2,28.1c0,9.71,0.65,11.03,10.75,11.03c9.16,0,9.98-1.31,9.98-9.18"/>
			</g>
		</g>
	</g>
</g>
</g>
<g id="kvg:StrokeNumbers_09be4" style="font-size:8;fill:#808080" transform="scale(3.0,3.0)">
	<text style="fill: #bf0909;" transform="matrix(1 0 0 1 18.50 12.50)">1</text>
	<text style="fill: #bf4209;" transform="matrix(1 0 0 1 29.50 16.50)">2</text>
	<text style="fill: #bf7c09;" transform="matrix(1 0 0 1 6.50 50.50)">3</text>
	<text style="fill: #bfb509;" transform="matrix(1 0 0 1 16.50 42.50)">4</text>
	<text style="fill: #8fbf09;" transform="matrix(1 0 0 1 32.50 50.50)">5</text>
	<text style="fill: #56bf09;" transform="matrix(1 0 0 1 19.50 54.50)">6</text>
	<text style="fill: #1cbf09;" transform="matrix(1 0 0 1 20.50 67.50)">7</text>
	<text style="fill: #09bf2f;" transform="matrix(1 0 0 1 8.50 83.50)">8</text>
	<text style="fill: #09bf69;" transform="matrix(1 0 0 1 17.50 86.50)">9</text>
	<text style="fill: #09bfa2;" transform="matrix(1 0 0 1 24.50 82.50)">10</text>
	<text style="fill: #09a2bf;" transform="matrix(1 0 0 1 34.50 79.50)">11</text>
	<text style="fill: #0969bf;" transform="matrix(1 0 0 1 43.50 28.50)">12</text>
	<text style="fill: #092fbf;" transform="matrix(1 0 0 1 54.50 16.50)">13</text>
	<text style="fill: #1c09bf;" transform="matrix(1 0 0 1 58.50 28.50)">14</text>
	<text style="fill: #5609bf;" transform="matrix(1 0 0 1 59.50 42.50)">15</text>
	<text style="fill: #8f09bf;" transform="matrix(1 0 0 1 57.25 64.50)">16</text>
	<text style="fill: #bf09b5;" transform="matrix(1 0 0 1 46.25 62.15)">17</text>
	<text style="fill: #bf097c;" transform="matrix(1 0 0 1 83.50 56.50)">18</text>
	<text style="fill: #bf0942;" transform="matrix(1 0 0 1 64.25 54.50)">19</text>
</g>
</svg>
