<?xml version="1.0" encoding="UTF-8"?>
<!--
This file has been modified from the original version by the kanji_colorize.py
script (available at http://github.com/cayennes/kanji-colorize) with these
settings:
    mode: spectrum
    saturation: 0.95
    value: 0.75
    image_size: 327
It remains under a Creative Commons-Attribution-Share Alike 3.0 License.

The original SVG has the following copyright:

Copyright (C) 2009/2010/2011 Ulrich Apel.
This work is distributed under the conditions of the Creative Commons
Attribution-Share Alike 3.0 Licence. This means you are free:
* to Share - to copy, distribute and transmit the work
* to Remix - to adapt the work

Under the following conditions:
* Attribution. You must attribute the work by stating your use of KanjiVG in
  your own copyright header and linking to KanjiVG's website
  (http://kanjivg.tagaini.net)
* Share Alike. If you alter, transform, or build upon this work, you may
  distribute the resulting work only under the same or similar license to this
  one.

See http://creativecommons.org/licenses/by-sa/3.0/ for more details.
-->
<!DOCTYPE svg PUBLIC "-//W3C//DTD SVG 1.0//EN" "http://www.w3.org/TR/2001/REC-SVG-20010904/DTD/svg10.dtd" [
<!ATTLIST g
xmlns:kvg CDATA #FIXED "http://kanjivg.tagaini.net"
kvg:element CDATA #IMPLIED
kvg:variant CDATA #IMPLIED
kvg:partial CDATA #IMPLIED
kvg:original CDATA #IMPLIED
kvg:part CDATA #IMPLIED
kvg:number CDATA #IMPLIED
kvg:tradForm CDATA #IMPLIED
kvg:radicalForm CDATA #IMPLIED
kvg:position CDATA #IMPLIED
kvg:radical CDATA #IMPLIED
kvg:phon CDATA #IMPLIED >
<!ATTLIST path
xmlns:kvg CDATA #FIXED "http://kanjivg.tagaini.net"
kvg:type CDATA #IMPLIED >
]>
<svg xmlns="http://www.w3.org/2000/svg" width="327" height = "327" viewBox="0 0 327 327">
<g id="kvg:StrokePaths_09ce5" style="fill:none;stroke:#000000;stroke-width:3;stroke-linecap:round;stroke-linejoin:round;" transform="scale(3.0,3.0)">
<g id="kvg:09ce5" kvg:element="鳥" kvg:radical="general">
	<path style="stroke: #bf0909;" id="kvg:09ce5-s1" kvg:type="㇒" d="M49.72,10.68c0.03,0.27,0.07,0.7-0.06,1.08c-0.76,2.28-5.15,7.3-11.15,10.37"/>
	<path style="stroke: #bf6c09;" id="kvg:09ce5-s2" kvg:type="㇑" d="M32.88,23.32c0.96,0.8,1.57,2.55,1.57,3.69c0,6.86,0.02,24.01-0.12,35.24c-0.03,2.27-0.06,4.3-0.11,5.95"/>
	<path style="stroke: #aebf09;" id="kvg:09ce5-s3" kvg:type="㇕a" d="M35.8,25.86c9.2-1.73,23.7-4.36,29.64-4.87c3.06-0.26,4.32,2.26,4.04,3.99c-0.15,0.92-1.49,7.58-3.2,14.78c-0.26,1.09-0.52,2.18-0.78,3.24"/>
	<path style="stroke: #4bbf09;" id="kvg:09ce5-s4" kvg:type="㇐a" d="M35.86,35.44c3.64-0.69,26.27-4.19,30.87-4.38"/>
	<path style="stroke: #09bf2a;" id="kvg:09ce5-s5" kvg:type="㇐a" d="M35.49,45.53c7.01-1.03,21.26-3.53,29.23-4.2"/>
	<path style="stroke: #09bf8d;" id="kvg:09ce5-s6" kvg:type="㇐b" d="M35.78,56.05c11.22-1.3,37.15-4.84,41.97-5.55c1.68-0.25,4.53-0.28,5.38-0.1"/>
	<path style="stroke: #098dbf;" id="kvg:09ce5-s7" kvg:type="㇆a" d="M34.75,68.27c15.75-2.64,42-5.64,49.75-6.27c4.51-0.36,6.81,2.33,6,5.75c-2.25,9.5-5.82,18.96-9.5,25C77.5,98.5,74.75,96,71,93"/>
	<g id="kvg:09ce5-g1" kvg:element="灬" kvg:variant="true" kvg:original="火">
		<path style="stroke: #092abf;" id="kvg:09ce5-s8" kvg:type="㇔" d="M20.81,80.25c0.44,6-0.31,13.25-1.6,17"/>
		<path style="stroke: #4b09bf;" id="kvg:09ce5-s9" kvg:type="㇔" d="M34.38,78.38c2.97,1.96,5.79,7.37,6.54,10.43"/>
		<path style="stroke: #ae09bf;" id="kvg:09ce5-s10" kvg:type="㇔" d="M48.88,75.12c2.34,1.57,6.04,6.44,6.62,8.88"/>
		<path style="stroke: #bf096c;" id="kvg:09ce5-s11" kvg:type="㇔" d="M62.88,72c2.69,1.68,6.95,6.89,7.62,9.5"/>
	</g>
</g>
</g>
<g id="kvg:StrokeNumbers_09ce5" style="font-size:8;fill:#808080" transform="scale(3.0,3.0)">
	<text style="fill: #bf0909;" transform="matrix(1 0 0 1 42.50 11.50)">1</text>
	<text style="fill: #bf6c09;" transform="matrix(1 0 0 1 27.50 32.50)">2</text>
	<text style="fill: #aebf09;" transform="matrix(1 0 0 1 51.00 21.00)">3</text>
	<text style="fill: #4bbf09;" transform="matrix(1 0 0 1 38.34 33.00)">4</text>
	<text style="fill: #09bf2a;" transform="matrix(1 0 0 1 38.50 43.50)">5</text>
	<text style="fill: #09bf8d;" transform="matrix(1 0 0 1 38.38 53.50)">6</text>
	<text style="fill: #098dbf;" transform="matrix(1 0 0 1 38.43 64.50)">7</text>
	<text style="fill: #092abf;" transform="matrix(1 0 0 1 14.50 80.50)">8</text>
	<text style="fill: #4b09bf;" transform="matrix(1 0 0 1 27.50 80.50)">9</text>
	<text style="fill: #ae09bf;" transform="matrix(1 0 0 1 39.50 78.50)">10</text>
	<text style="fill: #bf096c;" transform="matrix(1 0 0 1 54.50 75.50)">11</text>
</g>
</svg>
