<?xml version="1.0" encoding="UTF-8"?>
<!--
This file has been modified from the original version by the kanji_colorize.py
script (available at http://github.com/cayennes/kanji-colorize) with these
settings:
    mode: spectrum
    saturation: 0.95
    value: 0.75
    image_size: 327
It remains under a Creative Commons-Attribution-Share Alike 3.0 License.

The original SVG has the following copyright:

Copyright (C) 2009/2010/2011 Ulrich Apel.
This work is distributed under the conditions of the Creative Commons
Attribution-Share Alike 3.0 Licence. This means you are free:
* to Share - to copy, distribute and transmit the work
* to Remix - to adapt the work

Under the following conditions:
* Attribution. You must attribute the work by stating your use of KanjiVG in
  your own copyright header and linking to KanjiVG's website
  (http://kanjivg.tagaini.net)
* Share Alike. If you alter, transform, or build upon this work, you may
  distribute the resulting work only under the same or similar license to this
  one.

See http://creativecommons.org/licenses/by-sa/3.0/ for more details.
-->
<!DOCTYPE svg PUBLIC "-//W3C//DTD SVG 1.0//EN" "http://www.w3.org/TR/2001/REC-SVG-20010904/DTD/svg10.dtd" [
<!ATTLIST g
xmlns:kvg CDATA #FIXED "http://kanjivg.tagaini.net"
kvg:element CDATA #IMPLIED
kvg:variant CDATA #IMPLIED
kvg:partial CDATA #IMPLIED
kvg:original CDATA #IMPLIED
kvg:part CDATA #IMPLIED
kvg:number CDATA #IMPLIED
kvg:tradForm CDATA #IMPLIED
kvg:radicalForm CDATA #IMPLIED
kvg:position CDATA #IMPLIED
kvg:radical CDATA #IMPLIED
kvg:phon CDATA #IMPLIED >
<!ATTLIST path
xmlns:kvg CDATA #FIXED "http://kanjivg.tagaini.net"
kvg:type CDATA #IMPLIED >
]>
<svg xmlns="http://www.w3.org/2000/svg" width="327" height = "327" viewBox="0 0 327 327">
<g id="kvg:StrokePaths_09d59" style="fill:none;stroke:#000000;stroke-width:3;stroke-linecap:round;stroke-linejoin:round;" transform="scale(3.0,3.0)">
<g id="kvg:09d59" kvg:element="鵙">
	<g id="kvg:09d59-g1" kvg:element="貝" kvg:position="left">
		<g id="kvg:09d59-g2" kvg:element="目" kvg:position="top">
			<path style="stroke: #bf0909;" id="kvg:09d59-s1" kvg:type="㇑" d="M18,20.28c0.36,1.21,0.89,2.12,0.89,3.74c0,1.62-0.12,48.14,0,49.76"/>
			<path style="stroke: #bf4609;" id="kvg:09d59-s2" kvg:type="㇕a" d="M19.49,20.78c2.04-0.2,17.6-2.79,19.46-3.04c1.55-0.2,2.77,1.13,2.64,2.63c-0.17,1.9-0.72,50.88-0.72,52.09"/>
			<path style="stroke: #bf8209;" id="kvg:09d59-s3" kvg:type="㇐a" d="M19.45,36.88c4.22-0.61,16.2-2.28,21.58-2.79"/>
			<path style="stroke: #bfbf09;" id="kvg:09d59-s4" kvg:type="㇐a" d="M19.62,52.27c6.21-0.81,13.86-2.01,20.17-2.43"/>
			<path style="stroke: #82bf09;" id="kvg:09d59-s5" kvg:type="㇐a" d="M20.14,71.46c4.9-0.88,13.92-2.08,20.17-2.43"/>
		</g>
		<g id="kvg:09d59-g3" kvg:position="bottom">
			<path style="stroke: #46bf09;" id="kvg:09d59-s6" kvg:type="㇒" d="M23.85,77.46c0.33,1.48,0.62,1.84,0,2.96c-2.79,4.99-7.7,11.24-11.69,15.08"/>
			<path style="stroke: #09bf09;" id="kvg:09d59-s7" kvg:type="㇔" d="M33.73,77.92c3.39,3.97,7.39,11.16,8.31,14.62"/>
		</g>
	</g>
	<g id="kvg:09d59-g4" kvg:element="鳥" kvg:position="right" kvg:radical="general">
		<path style="stroke: #09bf46;" id="kvg:09d59-s8" kvg:type="㇒" d="M70.04,9.91c0.02,0.29,0.04,0.74-0.04,1.14c-0.48,2.37-3.2,7.45-6.92,10.4"/>
		<path style="stroke: #09bf82;" id="kvg:09d59-s9" kvg:type="㇑" d="M57.3,22.86c0.33,0.42,0.6,0.98,0.6,1.67c0,6.98,0.04,33.81-0.17,44.79"/>
		<path style="stroke: #09bfbf;" id="kvg:09d59-s10" kvg:type="㇕a" d="M58.31,24.14c1.55,0,22.5-3.06,24.01-2.95c2.24,0.15,3.33,2.08,3.13,3.88c-0.12,1.11-1.64,12.74-3.08,21.21"/>
		<path style="stroke: #0982bf;" id="kvg:09d59-s11" kvg:type="㇐a" d="M58.56,35.55c1.9,0.13,23.1-2.65,25.25-2.5"/>
		<path style="stroke: #0946bf;" id="kvg:09d59-s12" kvg:type="㇐a" d="M58.47,47.69c3.88-0.13,19.05-2.9,23.88-2.91"/>
		<path style="stroke: #0909bf;" id="kvg:09d59-s13" kvg:type="㇐b" d="M58.69,58.02c8.18-0.81,29.79-3.26,33.3-3.77c1.22-0.18,3.3-0.34,3.92-0.1"/>
		<path style="stroke: #4609bf;" id="kvg:09d59-s14" kvg:type="㇆a" d="M57.74,69.53c9.1-1.58,27.13-3.8,32.17-4.27c3.28-0.3,4.97,0.86,4.38,4.41c-1.64,9.88-4.08,19.27-6.93,25.35c-2.86,6.11-5.97,1.01-7.3-0.23"/>
		<g id="kvg:09d59-g5" kvg:element="灬" kvg:variant="true" kvg:original="火">
			<path style="stroke: #8209bf;" id="kvg:09d59-s15" kvg:type="㇔" d="M52.27,77.73c0.4,5.31,0.21,11.68-0.96,14.94"/>
			<path style="stroke: #bf09bf;" id="kvg:09d59-s16" kvg:type="㇔" d="M60.07,77.99c1.5,2.43,2.92,8.81,3.29,12.37"/>
			<path style="stroke: #bf0982;" id="kvg:09d59-s17" kvg:type="㇔" d="M68.96,76.29c1.42,2.14,3.67,8.6,4.03,11.76"/>
			<path style="stroke: #bf0946;" id="kvg:09d59-s18" kvg:type="㇔" d="M77.66,74.48c1.54,1.99,3.97,7.97,4.36,10.89"/>
		</g>
	</g>
</g>
</g>
<g id="kvg:StrokeNumbers_09d59" style="font-size:8;fill:#808080" transform="scale(3.0,3.0)">
	<text style="fill: #bf0909;" transform="matrix(1 0 0 1 12.50 27.50)">1</text>
	<text style="fill: #bf4609;" transform="matrix(1 0 0 1 21.50 17.50)">2</text>
	<text style="fill: #bf8209;" transform="matrix(1 0 0 1 23.50 32.98)">3</text>
	<text style="fill: #bfbf09;" transform="matrix(1 0 0 1 23.50 48.50)">4</text>
	<text style="fill: #82bf09;" transform="matrix(1 0 0 1 23.50 67.50)">5</text>
	<text style="fill: #46bf09;" transform="matrix(1 0 0 1 15.50 82.75)">6</text>
	<text style="fill: #09bf09;" transform="matrix(1 0 0 1 29.50 86.50)">7</text>
	<text style="fill: #09bf46;" transform="matrix(1 0 0 1 61.50 10.50)">8</text>
	<text style="fill: #09bf82;" transform="matrix(1 0 0 1 50.50 29.50)">9</text>
	<text style="fill: #09bfbf;" transform="matrix(1 0 0 1 55.50 19.50)">10</text>
	<text style="fill: #0982bf;" transform="matrix(1 0 0 1 61.50 32.50)">11</text>
	<text style="fill: #0946bf;" transform="matrix(1 0 0 1 61.50 44.42)">12</text>
	<text style="fill: #0909bf;" transform="matrix(1 0 0 1 61.50 55.50)">13</text>
	<text style="fill: #4609bf;" transform="matrix(1 0 0 1 61.50 65.27)">14</text>
	<text style="fill: #8209bf;" transform="matrix(1 0 0 1 42.50 81.50)">15</text>
	<text style="fill: #bf09bf;" transform="matrix(1 0 0 1 54.50 85.50)">16</text>
	<text style="fill: #bf0982;" transform="matrix(1 0 0 1 63.50 83.50)">17</text>
	<text style="fill: #bf0946;" transform="matrix(1 0 0 1 72.50 81.50)">18</text>
</g>
</svg>
