<?xml version="1.0" encoding="UTF-8"?>
<!--
This file has been modified from the original version by the kanji_colorize.py
script (available at http://github.com/cayennes/kanji-colorize) with these
settings:
    mode: spectrum
    saturation: 0.95
    value: 0.75
    image_size: 327
It remains under a Creative Commons-Attribution-Share Alike 3.0 License.

The original SVG has the following copyright:

Copyright (C) 2009/2010/2011 Ulrich Apel.
This work is distributed under the conditions of the Creative Commons
Attribution-Share Alike 3.0 Licence. This means you are free:
* to Share - to copy, distribute and transmit the work
* to Remix - to adapt the work

Under the following conditions:
* Attribution. You must attribute the work by stating your use of KanjiVG in
  your own copyright header and linking to KanjiVG's website
  (http://kanjivg.tagaini.net)
* Share Alike. If you alter, transform, or build upon this work, you may
  distribute the resulting work only under the same or similar license to this
  one.

See http://creativecommons.org/licenses/by-sa/3.0/ for more details.
-->
<!DOCTYPE svg PUBLIC "-//W3C//DTD SVG 1.0//EN" "http://www.w3.org/TR/2001/REC-SVG-20010904/DTD/svg10.dtd" [
<!ATTLIST g
xmlns:kvg CDATA #FIXED "http://kanjivg.tagaini.net"
kvg:element CDATA #IMPLIED
kvg:variant CDATA #IMPLIED
kvg:partial CDATA #IMPLIED
kvg:original CDATA #IMPLIED
kvg:part CDATA #IMPLIED
kvg:number CDATA #IMPLIED
kvg:tradForm CDATA #IMPLIED
kvg:radicalForm CDATA #IMPLIED
kvg:position CDATA #IMPLIED
kvg:radical CDATA #IMPLIED
kvg:phon CDATA #IMPLIED >
<!ATTLIST path
xmlns:kvg CDATA #FIXED "http://kanjivg.tagaini.net"
kvg:type CDATA #IMPLIED >
]>
<svg xmlns="http://www.w3.org/2000/svg" width="327" height = "327" viewBox="0 0 327 327">
<g id="kvg:StrokePaths_09d5e" style="fill:none;stroke:#000000;stroke-width:3;stroke-linecap:round;stroke-linejoin:round;" transform="scale(3.0,3.0)">
<g id="kvg:09d5e" kvg:element="鵞">
	<g id="kvg:09d5e-g1" kvg:element="我" kvg:position="top">
		<g id="kvg:09d5e-g2" kvg:element="丿">
			<path style="stroke: #bf0909;" id="kvg:09d5e-s1" kvg:type="㇒" d="M46.24,10.78c0.06,0.24,0.24,0.67-0.12,0.98c-2.9,2.46-9.73,6.15-22.06,9.33"/>
		</g>
		<g id="kvg:09d5e-g3" kvg:element="戈" kvg:part="1">
			<g id="kvg:09d5e-g4" kvg:element="弋" kvg:part="1">
				<path style="stroke: #bf4609;" id="kvg:09d5e-s2" kvg:type="㇐" d="M15.75,27.43c1.52,0.25,4.32,0.38,5.82,0.25c6.15-0.5,45.18-5.76,61.61-6.1c2.53-0.05,4.05,0.12,5.31,0.25"/>
			</g>
		</g>
		<g id="kvg:09d5e-g5" kvg:element="亅">
			<path style="stroke: #bf8209;" id="kvg:09d5e-s3" kvg:type="㇚" d="M39.63,18.8c0.06,0.2,0.86,1.05,0.92,2.33c0.3,6.15-0.19,22.26-0.19,24.36c0,4.98-4.62,1.45-5.81,0.11"/>
		</g>
		<path style="stroke: #bfbf09;" id="kvg:09d5e-s4" kvg:type="㇀" d="M16.5,38.94c1,1.01,1.56,1.53,3.59,0.93c8.16-2.42,22.9-6.5,29.16-8.33"/>
		<g id="kvg:09d5e-g6" kvg:element="戈" kvg:part="2">
			<path style="stroke: #82bf09;" id="kvg:09d5e-s5" kvg:type="㇂" d="M58.25,8.95c1.53,0.86,1.91,1.18,2.49,2.96C66.5,29.7,74.75,41.7,87.02,48.89c6.23,3.65,6.78,3.46,4.9-5.95"/>
			<g id="kvg:09d5e-g7" kvg:element="丿">
				<path style="stroke: #46bf09;" id="kvg:09d5e-s6" kvg:type="㇒" d="M79.24,27.23c0.07,0.42,0.14,1.08-0.13,1.69c-1.62,3.56-10.56,11.76-23.3,16.54"/>
			</g>
			<g id="kvg:09d5e-g8" kvg:element="弋" kvg:part="2">
				<g id="kvg:09d5e-g9" kvg:element="丶">
					<path style="stroke: #09bf09;" id="kvg:09d5e-s7" kvg:type="㇔" d="M70.75,8.44c3.34,1.49,8.69,4.91,10.25,7.47"/>
				</g>
			</g>
		</g>
	</g>
	<g id="kvg:09d5e-g10" kvg:element="鳥" kvg:position="bottom" kvg:radical="general">
		<path style="stroke: #09bf46;" id="kvg:09d5e-s8" kvg:type="㇒" d="M49.23,39.87c0.02,0.26,0.04,0.68-0.03,1.06c-0.42,2.22-2.86,7.1-6.19,10.09"/>
		<path style="stroke: #09bf82;" id="kvg:09d5e-s9" kvg:type="㇑" d="M31.63,51.82c0.46,0.25,0.82,1.6,0.82,2.03c0,4.43,0.05,21.46-0.23,28.44"/>
		<path style="stroke: #09bfbf;" id="kvg:09d5e-s10" kvg:type="㇕a" d="M33.02,53.58c2.13-0.06,36.59-2.82,38.67-2.82c3.07,0,4.07,2.17,3.79,3.33c-0.17,0.71-1.25,7.43-3.23,12.87"/>
		<path style="stroke: #0982bf;" id="kvg:09d5e-s11" kvg:type="㇐a" d="M33.36,59.91c2.61,0,36.92-2.09,39.87-2.09"/>
		<path style="stroke: #0946bf;" id="kvg:09d5e-s12" kvg:type="㇐a" d="M33.24,66.99c5.31-0.25,32.37-1.76,38.98-1.97"/>
		<path style="stroke: #0909bf;" id="kvg:09d5e-s13" kvg:type="㇐b" d="M32.53,74.68c12.51-0.87,41.73-2.73,47.1-3.21c1.87-0.17,5.05-0.36,6-0.23"/>
		<path style="stroke: #4609bf;" id="kvg:09d5e-s14" kvg:type="㇆a" d="M32.23,82.43c12.48-1.39,43.35-2.76,50.27-3.28c4.5-0.33,5.13,2.42,5,4.84c-0.25,4.7-2,9.7-4,13.7c-2.33,4.65-4.75,1.26-7.5-1.33"/>
		<g id="kvg:09d5e-g11" kvg:element="灬" kvg:variant="true" kvg:original="火">
			<path style="stroke: #8209bf;" id="kvg:09d5e-s15" kvg:type="㇔" d="M23.45,87.59c-0.7,3.86-2.53,9.94-4.7,12.61"/>
			<path style="stroke: #bf09bf;" id="kvg:09d5e-s16" kvg:type="㇔" d="M33,87.67c2.23,1.92,4.35,7.22,4.91,10.21"/>
			<path style="stroke: #bf0982;" id="kvg:09d5e-s17" kvg:type="㇔" d="M47.25,87.09c2.12,1.6,5.47,6.6,6,9.09"/>
			<path style="stroke: #bf0946;" id="kvg:09d5e-s18" kvg:type="㇔" d="M61,85.83c2.21,1.56,5.7,6.42,6.25,8.84"/>
		</g>
	</g>
</g>
</g>
<g id="kvg:StrokeNumbers_09d5e" style="font-size:8;fill:#808080" transform="scale(3.0,3.0)">
	<text style="fill: #bf0909;" transform="matrix(1 0 0 1 37.50 9.33)">1</text>
	<text style="fill: #bf4609;" transform="matrix(1 0 0 1 8.50 27.70)">2</text>
	<text style="fill: #bf8209;" transform="matrix(1 0 0 1 33.50 24.70)">3</text>
	<text style="fill: #bfbf09;" transform="matrix(1 0 0 1 9.50 39.70)">4</text>
	<text style="fill: #82bf09;" transform="matrix(1 0 0 1 52.50 6.70)">5</text>
	<text style="fill: #46bf09;" transform="matrix(1 0 0 1 83.50 30.95)">6</text>
	<text style="fill: #09bf09;" transform="matrix(1 0 0 1 68.50 6.70)">7</text>
	<text style="fill: #09bf46;" transform="matrix(1 0 0 1 50.50 38.70)">8</text>
	<text style="fill: #09bf82;" transform="matrix(1 0 0 1 25.50 58.70)">9</text>
	<text style="fill: #09bfbf;" transform="matrix(1 0 0 1 49.50 50.65)">10</text>
	<text style="fill: #0982bf;" transform="matrix(1 0 0 1 35.50 59.70)">11</text>
	<text style="fill: #0946bf;" transform="matrix(1 0 0 1 35.34 66.70)">12</text>
	<text style="fill: #0909bf;" transform="matrix(1 0 0 1 35.38 73.42)">13</text>
	<text style="fill: #4609bf;" transform="matrix(1 0 0 1 35.23 80.70)">14</text>
	<text style="fill: #8209bf;" transform="matrix(1 0 0 1 14.50 89.70)">15</text>
	<text style="fill: #bf09bf;" transform="matrix(1 0 0 1 25.50 93.20)">16</text>
	<text style="fill: #bf0982;" transform="matrix(1 0 0 1 39.50 91.70)">17</text>
	<text style="fill: #bf0946;" transform="matrix(1 0 0 1 53.50 90.70)">18</text>
</g>
</svg>
