<?xml version="1.0" encoding="UTF-8"?>
<!--
This file has been modified from the original version by the kanji_colorize.py
script (available at http://github.com/cayennes/kanji-colorize) with these
settings:
    mode: spectrum
    saturation: 0.95
    value: 0.75
    image_size: 327
It remains under a Creative Commons-Attribution-Share Alike 3.0 License.

The original SVG has the following copyright:

Copyright (C) 2009/2010/2011 Ulrich Apel.
This work is distributed under the conditions of the Creative Commons
Attribution-Share Alike 3.0 Licence. This means you are free:
* to Share - to copy, distribute and transmit the work
* to Remix - to adapt the work

Under the following conditions:
* Attribution. You must attribute the work by stating your use of KanjiVG in
  your own copyright header and linking to KanjiVG's website
  (http://kanjivg.tagaini.net)
* Share Alike. If you alter, transform, or build upon this work, you may
  distribute the resulting work only under the same or similar license to this
  one.

See http://creativecommons.org/licenses/by-sa/3.0/ for more details.
-->
<!DOCTYPE svg PUBLIC "-//W3C//DTD SVG 1.0//EN" "http://www.w3.org/TR/2001/REC-SVG-20010904/DTD/svg10.dtd" [
<!ATTLIST g
xmlns:kvg CDATA #FIXED "http://kanjivg.tagaini.net"
kvg:element CDATA #IMPLIED
kvg:variant CDATA #IMPLIED
kvg:partial CDATA #IMPLIED
kvg:original CDATA #IMPLIED
kvg:part CDATA #IMPLIED
kvg:number CDATA #IMPLIED
kvg:tradForm CDATA #IMPLIED
kvg:radicalForm CDATA #IMPLIED
kvg:position CDATA #IMPLIED
kvg:radical CDATA #IMPLIED
kvg:phon CDATA #IMPLIED >
<!ATTLIST path
xmlns:kvg CDATA #FIXED "http://kanjivg.tagaini.net"
kvg:type CDATA #IMPLIED >
]>
<svg xmlns="http://www.w3.org/2000/svg" width="327" height = "327" viewBox="0 0 327 327">
<g id="kvg:StrokePaths_09d6c" style="fill:none;stroke:#000000;stroke-width:3;stroke-linecap:round;stroke-linejoin:round;" transform="scale(3.0,3.0)">
<g id="kvg:09d6c" kvg:element="鵬">
	<g id="kvg:09d6c-g1" kvg:element="朋" kvg:position="left">
		<g id="kvg:09d6c-g2" kvg:element="月" kvg:variant="true" kvg:original="肉" kvg:position="left" kvg:radical="nelson">
			<path style="stroke: #bf0909;" id="kvg:09d6c-s1" kvg:type="㇒" d="M15.08,18.98c0.91,0.91,1.2,1.9,1.22,3.16C17.25,68.38,14.88,83.12,10,93"/>
			<path style="stroke: #bf4209;" id="kvg:09d6c-s2" kvg:type="㇆a" d="M17.53,20.42c1.09-0.18,4.53-1.18,6.6-1.77c2.26-0.64,3.89-0.54,3.89,2.24c0,8.25-0.02,47-0.02,65.11c0,12.62-3,5.5-5.44,3.67"/>
			<path style="stroke: #bf7c09;" id="kvg:09d6c-s3" kvg:type="㇐a" d="M18.28,38.1c2.6-0.22,5.87-0.7,8.65-0.94"/>
			<path style="stroke: #bfb509;" id="kvg:09d6c-s4" kvg:type="㇐a" d="M17.43,56.51c2.57-0.38,5.03-0.72,9.49-1.21"/>
		</g>
		<g id="kvg:09d6c-g3" kvg:element="月" kvg:variant="true" kvg:original="肉" kvg:position="right">
			<path style="stroke: #8fbf09;" id="kvg:09d6c-s5" kvg:type="㇒" d="M35.87,16.98c0.83,0.83,0.96,1.93,0.97,2.91c0.66,45.24-0.59,57.86-4.56,68.61"/>
			<path style="stroke: #56bf09;" id="kvg:09d6c-s6" kvg:type="㇆a" d="M37.57,18.15c2.3-0.53,4.68-1.15,7.96-1.93c2.93-0.7,3.47,0.3,3.47,3.17c0,8.25,0.14,52.61,0.14,65.6c0,9.52-2.89,5.89-5.13,3.89"/>
			<path style="stroke: #1cbf09;" id="kvg:09d6c-s7" kvg:type="㇐a" d="M38.25,37c2.75-0.5,6.25-1.13,9.91-1.62"/>
			<path style="stroke: #09bf2f;" id="kvg:09d6c-s8" kvg:type="㇐a" d="M38.21,55.57c2.79-0.32,5.23-0.72,9.69-1.21"/>
		</g>
	</g>
	<g id="kvg:09d6c-g4" kvg:element="鳥" kvg:position="right" kvg:radical="tradit">
		<path style="stroke: #09bf69;" id="kvg:09d6c-s9" kvg:type="㇒" d="M72.08,9.93c0.07,0.65,0.04,1.29-0.21,1.88C70.5,15,68,19,63.71,23.25"/>
		<path style="stroke: #09bfa2;" id="kvg:09d6c-s10" kvg:type="㇑" d="M58.5,22.57c0.71,0.71,1.05,1.56,1.05,2.8c0,5.02-0.09,24.37-0.13,35.88c-0.01,3.72-0.02,6.62-0.02,7.95"/>
		<path style="stroke: #09a2bf;" id="kvg:09d6c-s11" kvg:type="㇕a" d="M60.44,24.72c7.94-1.47,15.56-2.56,21.2-3.25c2.56-0.32,4.96,0.01,4.76,3.26c-0.21,3.28-0.77,9.48-1.56,16.03c-0.24,1.99-0.5,4.01-0.78,5.99"/>
		<path style="stroke: #0969bf;" id="kvg:09d6c-s12" kvg:type="㇐a" d="M60.42,34.94c6.21-0.82,18.71-2.32,24.21-2.88"/>
		<path style="stroke: #092fbf;" id="kvg:09d6c-s13" kvg:type="㇐a" d="M60.84,46.03c3.58-0.38,17.74-1.38,22.19-1.7"/>
		<path style="stroke: #1c09bf;" id="kvg:09d6c-s14" kvg:type="㇐b" d="M60.54,56.8c8.01-0.68,22.97-2.15,30.22-2.66c2-0.14,4.24-0.52,6.83,0.01"/>
		<path style="stroke: #5609bf;" id="kvg:09d6c-s15" kvg:type="㇆a" d="M60.25,67.88c11.12-1,25-2.25,31.26-2.88c3.06-0.3,4.58,2.33,4.04,5.75c-1.52,9.5-3.92,16.71-6.4,22.75c-2.36,5.75-4.21,3.25-6.73,0.25"/>
		<g id="kvg:09d6c-g5" kvg:element="灬" kvg:variant="true" kvg:original="火">
			<path style="stroke: #8f09bf;" id="kvg:09d6c-s16" kvg:type="㇔" d="M56.83,78.5c0.39,4.94-0.78,10.91-1.94,14"/>
			<path style="stroke: #bf09b5;" id="kvg:09d6c-s17" kvg:type="㇔" d="M63.01,77.38c1.55,2.11,3.02,7.9,3.4,11.18"/>
			<path style="stroke: #bf097c;" id="kvg:09d6c-s18" kvg:type="㇔" d="M71.2,75.75c1.54,1.54,3.97,6.35,4.36,8.75"/>
			<path style="stroke: #bf0942;" id="kvg:09d6c-s19" kvg:type="㇔" d="M80.5,72.88c1.56,1.43,4.03,5.89,4.42,8.12"/>
		</g>
	</g>
</g>
</g>
<g id="kvg:StrokeNumbers_09d6c" style="font-size:8;fill:#808080" transform="scale(3.0,3.0)">
	<text style="fill: #bf0909;" transform="matrix(1 0 0 1 9.25 27.25)">1</text>
	<text style="fill: #bf4209;" transform="matrix(1 0 0 1 17.25 17.25)">2</text>
	<text style="fill: #bf7c09;" transform="matrix(1 0 0 1 19.00 36.25)">3</text>
	<text style="fill: #bfb509;" transform="matrix(1 0 0 1 19.00 53.25)">4</text>
	<text style="fill: #8fbf09;" transform="matrix(1 0 0 1 31.25 27.25)">5</text>
	<text style="fill: #56bf09;" transform="matrix(1 0 0 1 39.25 14.25)">6</text>
	<text style="fill: #1cbf09;" transform="matrix(1 0 0 1 40.25 34.25)">7</text>
	<text style="fill: #09bf2f;" transform="matrix(1 0 0 1 40.25 52.25)">8</text>
	<text style="fill: #09bf69;" transform="matrix(1 0 0 1 64.25 11.25)">9</text>
	<text style="fill: #09bfa2;" transform="matrix(1 0 0 1 51.25 31.70)">10</text>
	<text style="fill: #09a2bf;" transform="matrix(1 0 0 1 73.25 20.25)">11</text>
	<text style="fill: #0969bf;" transform="matrix(1 0 0 1 63.95 31.25)">12</text>
	<text style="fill: #092fbf;" transform="matrix(1 0 0 1 63.99 42.98)">13</text>
	<text style="fill: #1c09bf;" transform="matrix(1 0 0 1 63.84 52.90)">14</text>
	<text style="fill: #5609bf;" transform="matrix(1 0 0 1 64.00 64.33)">15</text>
	<text style="fill: #8f09bf;" transform="matrix(1 0 0 1 50.25 76.25)">16</text>
	<text style="fill: #bf09b5;" transform="matrix(1 0 0 1 57.25 84.25)">17</text>
	<text style="fill: #bf097c;" transform="matrix(1 0 0 1 64.25 80.10)">18</text>
	<text style="fill: #bf0942;" transform="matrix(1 0 0 1 74.25 78.03)">19</text>
</g>
</svg>
