<?xml version="1.0" encoding="UTF-8"?>
<!--
This file has been modified from the original version by the kanji_colorize.py
script (available at http://github.com/cayennes/kanji-colorize) with these
settings:
    mode: spectrum
    saturation: 0.95
    value: 0.75
    image_size: 327
It remains under a Creative Commons-Attribution-Share Alike 3.0 License.

The original SVG has the following copyright:

Copyright (C) 2009/2010/2011 Ulrich Apel.
This work is distributed under the conditions of the Creative Commons
Attribution-Share Alike 3.0 Licence. This means you are free:
* to Share - to copy, distribute and transmit the work
* to Remix - to adapt the work

Under the following conditions:
* Attribution. You must attribute the work by stating your use of KanjiVG in
  your own copyright header and linking to KanjiVG's website
  (http://kanjivg.tagaini.net)
* Share Alike. If you alter, transform, or build upon this work, you may
  distribute the resulting work only under the same or similar license to this
  one.

See http://creativecommons.org/licenses/by-sa/3.0/ for more details.
-->
<!DOCTYPE svg PUBLIC "-//W3C//DTD SVG 1.0//EN" "http://www.w3.org/TR/2001/REC-SVG-20010904/DTD/svg10.dtd" [
<!ATTLIST g
xmlns:kvg CDATA #FIXED "http://kanjivg.tagaini.net"
kvg:element CDATA #IMPLIED
kvg:variant CDATA #IMPLIED
kvg:partial CDATA #IMPLIED
kvg:original CDATA #IMPLIED
kvg:part CDATA #IMPLIED
kvg:number CDATA #IMPLIED
kvg:tradForm CDATA #IMPLIED
kvg:radicalForm CDATA #IMPLIED
kvg:position CDATA #IMPLIED
kvg:radical CDATA #IMPLIED
kvg:phon CDATA #IMPLIED >
<!ATTLIST path
xmlns:kvg CDATA #FIXED "http://kanjivg.tagaini.net"
kvg:type CDATA #IMPLIED >
]>
<svg xmlns="http://www.w3.org/2000/svg" width="327" height = "327" viewBox="0 0 327 327">
<g id="kvg:StrokePaths_09d61" style="fill:none;stroke:#000000;stroke-width:3;stroke-linecap:round;stroke-linejoin:round;" transform="scale(3.0,3.0)">
<g id="kvg:09d61" kvg:element="鵡">
	<g id="kvg:09d61-g1" kvg:element="武" kvg:position="left">
		<g id="kvg:09d61-g2" kvg:element="一">
			<path style="stroke: #bf0909;" id="kvg:09d61-s1" kvg:type="㇐" d="M13.1,27.19c0.73,0.36,2.07,0.45,2.8,0.36c4.01-0.49,10.43-2.23,13.32-2.33c1.22-0.04,0.4-0.03,1.18-0.01"/>
		</g>
		<g id="kvg:09d61-g3" kvg:element="弋" kvg:part="1">
			<path style="stroke: #bf4209;" id="kvg:09d61-s2" kvg:type="㇐" d="M9.75,40.2c0.97,0.54,3.16,0.6,4.15,0.54c4.35-0.24,25.35-3.49,35.02-5.23c1.6-0.29,2.59,0.26,3.4,0.53"/>
		</g>
		<g id="kvg:09d61-g4" kvg:element="止">
			<g id="kvg:09d61-g5" kvg:element="卜" kvg:original="ト">
				<path style="stroke: #bf7c09;" id="kvg:09d61-s3" kvg:type="㇑a" d="M22.63,45.93c0.52,0.37,0.83,1.67,0.93,2.41c0.13,0.96,0.31,29.23,0.2,33.91"/>
				<path style="stroke: #bfb509;" id="kvg:09d61-s4" kvg:type="㇐b" d="M24.32,60.82c3.38-0.56,5.27-2.38,8.83-2.75c0.83-0.09,1.03-0.19,1.55,0"/>
			</g>
			<path style="stroke: #8fbf09;" id="kvg:09d61-s5" kvg:type="㇑a" d="M13.63,58.59c0.52,0.37,0.83,1.67,0.93,2.41c0.1,0.74,0,21.31-0.1,25.95"/>
			<path style="stroke: #56bf09;" id="kvg:09d61-s6" kvg:type="㇐" d="M11.5,87.46c0.36,0.79,1.97,0.98,2.88,0.45c8.48-4.9,9.8-5.32,20.85-12.03"/>
		</g>
		<g id="kvg:09d61-g6" kvg:element="弋" kvg:part="2">
			<path style="stroke: #1cbf09;" id="kvg:09d61-s7" kvg:type="㇂" d="M35.08,10.5c1.17,1.25,1.43,2.15,1.47,5.78c0.27,23.89,3.21,54.45,9.87,68.76c3.59,7.71,4.03,4.23,3.74-3.24"/>
			<g id="kvg:09d61-g7" kvg:element="丶">
				<path style="stroke: #09bf2f;" id="kvg:09d61-s8" kvg:type="㇔" d="M42.94,18c2.3,1.85,5.97,6.08,7.04,9.25"/>
			</g>
		</g>
	</g>
	<g id="kvg:09d61-g8" kvg:element="鳥" kvg:position="right" kvg:radical="general">
		<path style="stroke: #09bf69;" id="kvg:09d61-s9" kvg:type="㇒" d="M71.04,10.16c0.02,0.29,0.03,0.75-0.03,1.16c-0.36,2.42-2.39,7.61-5.18,10.63"/>
		<path style="stroke: #09bfa2;" id="kvg:09d61-s10" kvg:type="㇑" d="M58.3,22.92c0.33,0.43,0.6,1.52,0.6,2.23c0,7.23-0.96,34.51-1.17,45.88"/>
		<path style="stroke: #09a2bf;" id="kvg:09d61-s11" kvg:type="㇕a" d="M59.31,24.75c1.55,0,20-3.17,21.51-3.06c2.24,0.16,3.33,2.15,3.13,4.02c-0.12,1.15-1.2,10.55-1.58,20.96"/>
		<path style="stroke: #0969bf;" id="kvg:09d61-s12" kvg:type="㇐a" d="M59.56,35.08c4.94-0.58,18.94-2.58,22.75-2.59"/>
		<path style="stroke: #092fbf;" id="kvg:09d61-s13" kvg:type="㇐a" d="M59.47,46.62c3.88-0.14,18.05-2.48,22.88-2.5"/>
		<path style="stroke: #1c09bf;" id="kvg:09d61-s14" kvg:type="㇐b" d="M58.19,58.36c8.18-0.84,31.79-3.86,35.3-4.38c1.22-0.19,3.3-0.35,3.92-0.11"/>
		<path style="stroke: #5609bf;" id="kvg:09d61-s15" kvg:type="㇆a" d="M57.74,71.25c9.1-1.63,28.63-3.92,33.67-4.4c3.28-0.31,4.97,0.89,4.38,4.57c-1.64,10.24-4.08,17.46-6.93,23.75c-2.86,6.33-5.97,1.04-7.3-0.24"/>
		<g id="kvg:09d61-g9" kvg:element="灬" kvg:variant="true" kvg:original="火">
			<path style="stroke: #8f09bf;" id="kvg:09d61-s16" kvg:type="㇔" d="M57.77,83.23c0.4,3.71-0.29,8.16-1.46,10.44"/>
			<path style="stroke: #bf09b5;" id="kvg:09d61-s17" kvg:type="㇔" d="M63.82,80.49c1.84,1.84,3.58,6.67,4.04,9.37"/>
			<path style="stroke: #bf097c;" id="kvg:09d61-s18" kvg:type="㇔" d="M72.7,78.29c1.34,1.42,3.46,5.68,3.8,7.76"/>
			<path style="stroke: #bf0942;" id="kvg:09d61-s19" kvg:type="㇔" d="M81.16,74.98c1.71,1.35,4.43,5.41,4.86,7.39"/>
		</g>
	</g>
</g>
</g>
<g id="kvg:StrokeNumbers_09d61" style="font-size:8;fill:#808080" transform="scale(3.0,3.0)">
	<text style="fill: #bf0909;" transform="matrix(1 0 0 1 6.50 26.50)">1</text>
	<text style="fill: #bf4209;" transform="matrix(1 0 0 1 3.25 40.50)">2</text>
	<text style="fill: #bf7c09;" transform="matrix(1 0 0 1 14.50 50.50)">3</text>
	<text style="fill: #bfb509;" transform="matrix(1 0 0 1 28.50 55.50)">4</text>
	<text style="fill: #8fbf09;" transform="matrix(1 0 0 1 4.50 59.50)">5</text>
	<text style="fill: #56bf09;" transform="matrix(1 0 0 1 5.50 90.50)">6</text>
	<text style="fill: #1cbf09;" transform="matrix(1 0 0 1 28.25 9.50)">7</text>
	<text style="fill: #09bf2f;" transform="matrix(1 0 0 1 42.50 15.45)">8</text>
	<text style="fill: #09bf69;" transform="matrix(1 0 0 1 61.50 10.50)">9</text>
	<text style="fill: #09bfa2;" transform="matrix(1 0 0 1 50.25 33.50)">10</text>
	<text style="fill: #09a2bf;" transform="matrix(1 0 0 1 57.25 21.23)">11</text>
	<text style="fill: #0969bf;" transform="matrix(1 0 0 1 63.50 32.50)">12</text>
	<text style="fill: #092fbf;" transform="matrix(1 0 0 1 63.50 43.50)">13</text>
	<text style="fill: #1c09bf;" transform="matrix(1 0 0 1 62.50 54.50)">14</text>
	<text style="fill: #5609bf;" transform="matrix(1 0 0 1 62.50 66.50)">15</text>
	<text style="fill: #8f09bf;" transform="matrix(1 0 0 1 51.50 79.50)">16</text>
	<text style="fill: #bf09b5;" transform="matrix(1 0 0 1 58.50 78.50)">17</text>
	<text style="fill: #bf097c;" transform="matrix(1 0 0 1 65.50 77.50)">18</text>
	<text style="fill: #bf0942;" transform="matrix(1 0 0 1 72.25 75.28)">19</text>
</g>
</svg>
