<?xml version="1.0" encoding="UTF-8"?>
<!--
This file has been modified from the original version by the kanji_colorize.py
script (available at http://github.com/cayennes/kanji-colorize) with these
settings:
    mode: spectrum
    saturation: 0.95
    value: 0.75
    image_size: 327
It remains under a Creative Commons-Attribution-Share Alike 3.0 License.

The original SVG has the following copyright:

Copyright (C) 2009/2010/2011 Ulrich Apel.
This work is distributed under the conditions of the Creative Commons
Attribution-Share Alike 3.0 Licence. This means you are free:
* to Share - to copy, distribute and transmit the work
* to Remix - to adapt the work

Under the following conditions:
* Attribution. You must attribute the work by stating your use of KanjiVG in
  your own copyright header and linking to KanjiVG's website
  (http://kanjivg.tagaini.net)
* Share Alike. If you alter, transform, or build upon this work, you may
  distribute the resulting work only under the same or similar license to this
  one.

See http://creativecommons.org/licenses/by-sa/3.0/ for more details.
-->
<!DOCTYPE svg PUBLIC "-//W3C//DTD SVG 1.0//EN" "http://www.w3.org/TR/2001/REC-SVG-20010904/DTD/svg10.dtd" [
<!ATTLIST g
xmlns:kvg CDATA #FIXED "http://kanjivg.tagaini.net"
kvg:element CDATA #IMPLIED
kvg:variant CDATA #IMPLIED
kvg:partial CDATA #IMPLIED
kvg:original CDATA #IMPLIED
kvg:part CDATA #IMPLIED
kvg:number CDATA #IMPLIED
kvg:tradForm CDATA #IMPLIED
kvg:radicalForm CDATA #IMPLIED
kvg:position CDATA #IMPLIED
kvg:radical CDATA #IMPLIED
kvg:phon CDATA #IMPLIED >
<!ATTLIST path
xmlns:kvg CDATA #FIXED "http://kanjivg.tagaini.net"
kvg:type CDATA #IMPLIED >
]>
<svg xmlns="http://www.w3.org/2000/svg" width="327" height = "327" viewBox="0 0 327 327">
<g id="kvg:StrokePaths_09d7a" style="fill:none;stroke:#000000;stroke-width:3;stroke-linecap:round;stroke-linejoin:round;" transform="scale(3.0,3.0)">
<g id="kvg:09d7a" kvg:element="鵺">
	<g id="kvg:09d7a-g1" kvg:element="夜" kvg:position="left">
		<g id="kvg:09d7a-g2" kvg:element="亠" kvg:position="top">
			<path style="stroke: #bf0909;" id="kvg:09d7a-s1" kvg:type="㇑a" d="M31.09,11.25c0.6,0.58,1.58,2.85,1.58,4.01c0,4.29-0.08,5.13-0.08,8.81"/>
			<path style="stroke: #bf4209;" id="kvg:09d7a-s2" kvg:type="㇐" d="M12.16,25.88c0.93,0.05,3.05,0.36,3.96,0.29c7.31-0.6,22.4-3.06,32.33-3.22c1.53-0.02,2.32,0.02,3.46,0.36"/>
		</g>
		<g id="kvg:09d7a-g3" kvg:position="bottom">
			<g id="kvg:09d7a-g4" kvg:element="亻" kvg:variant="true" kvg:original="人">
				<path style="stroke: #bf7c09;" id="kvg:09d7a-s3" kvg:type="㇒" d="M23.96,32c0.15,1.38-0.04,3.19-0.51,4.37c-3,7.53-6.81,14.6-13.7,23.77"/>
				<path style="stroke: #bfb509;" id="kvg:09d7a-s4" kvg:type="㇑" d="M18.04,52.9c0.71,1.1,1.11,1.59,1.15,2.6c0.34,9.86-0.6,32.38-0.31,38.5"/>
			</g>
			<g id="kvg:09d7a-g5" kvg:element="夕">
				<path style="stroke: #8fbf09;" id="kvg:09d7a-s5" kvg:type="㇒" d="M39.05,31c0.16,0.49,0.58,1.97,0.31,2.92C37.5,40.75,33,49.75,25.34,59.25"/>
				<path style="stroke: #56bf09;" id="kvg:09d7a-s6" kvg:type="㇇" d="M39.18,40.01c0.24,0.03,1.96,0,2.65-0.09c2.25-0.3,3.92-0.72,6.91-1.87c2.15-0.83,2.83,0.74,2.26,2.48C46.75,53.5,40.25,73.5,24.23,86"/>
				<path style="stroke: #1cbf09;" id="kvg:09d7a-s7" kvg:type="㇔" d="M35.93,49.75c1.46,1.71,3.76,7.04,4.12,9.71"/>
			</g>
			<path style="stroke: #09bf2f;" id="kvg:09d7a-s8" kvg:type="㇏" d="M28.32,58c3.37,3.21,11.87,22.03,14.88,25.77c0.86,1.06,1.5,1.86,2.3,2.23"/>
		</g>
	</g>
	<g id="kvg:09d7a-g6" kvg:element="鳥" kvg:position="right" kvg:radical="general">
		<path style="stroke: #09bf69;" id="kvg:09d7a-s9" kvg:type="㇒" d="M71.54,9.16c0.02,0.29,0.03,0.75-0.03,1.16c-0.37,2.42-2.51,7.61-5.43,10.63"/>
		<path style="stroke: #09bfa2;" id="kvg:09d7a-s10" kvg:type="㇑" d="M59.3,20.92c0.33,0.43,0.6,1.02,0.6,1.73c0,7.23-0.96,35.01-1.17,46.38"/>
		<path style="stroke: #09a2bf;" id="kvg:09d7a-s11" kvg:type="㇕a" d="M60.31,23.88c1.55,0,21-3.05,22.51-2.95c2.24,0.15,3.33,2.07,3.13,3.87c-0.12,1.1-1.64,13.2-3.08,21.65"/>
		<path style="stroke: #0969bf;" id="kvg:09d7a-s12" kvg:type="㇐a" d="M60.56,35.26c1.9,0.13,21.6-2.64,23.75-2.5"/>
		<path style="stroke: #092fbf;" id="kvg:09d7a-s13" kvg:type="㇐a" d="M60.47,46.87c3.88-0.13,17.55-2.39,22.38-2.41"/>
		<path style="stroke: #1c09bf;" id="kvg:09d7a-s14" kvg:type="㇐b" d="M60.19,56.9c9.22-0.68,29.6-2.32,33.56-2.75c1.38-0.15,3.72-0.29,4.42-0.09"/>
		<path style="stroke: #5609bf;" id="kvg:09d7a-s15" kvg:type="㇆a" d="M58.74,69.25c9.1-1.63,28.13-2.92,33.17-3.4c3.28-0.31,4.97,0.89,4.38,4.57C94.65,80.66,93,88.75,88.36,95.67c-3.86,5.77-6.86,2.83-8.3-0.24"/>
		<g id="kvg:09d7a-g7" kvg:element="灬" kvg:variant="true" kvg:original="火">
			<path style="stroke: #8f09bf;" id="kvg:09d7a-s16" kvg:type="㇔" d="M54.27,77.98c0.54,5.4-0.39,11.88-2,15.19"/>
			<path style="stroke: #bf09b5;" id="kvg:09d7a-s17" kvg:type="㇔" d="M60.82,78.49c1.38,2.04,2.7,7.38,3.04,10.37"/>
			<path style="stroke: #bf097c;" id="kvg:09d7a-s18" kvg:type="㇔" d="M69.96,76.79c1.42,1.69,3.67,6.78,4.03,9.26"/>
			<path style="stroke: #bf0942;" id="kvg:09d7a-s19" kvg:type="㇔" d="M78.66,74.73c1.54,1.49,3.97,5.96,4.36,8.14"/>
		</g>
	</g>
</g>
</g>
<g id="kvg:StrokeNumbers_09d7a" style="font-size:8;fill:#808080" transform="scale(3.0,3.0)">
	<text style="fill: #bf0909;" transform="matrix(1 0 0 1 23.25 11.50)">1</text>
	<text style="fill: #bf4209;" transform="matrix(1 0 0 1 4.50 26.50)">2</text>
	<text style="fill: #bf7c09;" transform="matrix(1 0 0 1 15.50 35.50)">3</text>
	<text style="fill: #bfb509;" transform="matrix(1 0 0 1 12.50 65.50)">4</text>
	<text style="fill: #8fbf09;" transform="matrix(1 0 0 1 30.50 33.50)">5</text>
	<text style="fill: #56bf09;" transform="matrix(1 0 0 1 44.50 35.50)">6</text>
	<text style="fill: #1cbf09;" transform="matrix(1 0 0 1 38.50 51.50)">7</text>
	<text style="fill: #09bf2f;" transform="matrix(1 0 0 1 25.50 67.50)">8</text>
	<text style="fill: #09bf69;" transform="matrix(1 0 0 1 64.50 9.50)">9</text>
	<text style="fill: #09bfa2;" transform="matrix(1 0 0 1 49.50 31.50)">10</text>
	<text style="fill: #09a2bf;" transform="matrix(1 0 0 1 60.50 20.50)">11</text>
	<text style="fill: #0969bf;" transform="matrix(1 0 0 1 63.50 31.42)">12</text>
	<text style="fill: #092fbf;" transform="matrix(1 0 0 1 63.50 43.50)">13</text>
	<text style="fill: #1c09bf;" transform="matrix(1 0 0 1 63.50 54.27)">14</text>
	<text style="fill: #5609bf;" transform="matrix(1 0 0 1 63.50 65.50)">15</text>
	<text style="fill: #8f09bf;" transform="matrix(1 0 0 1 45.50 79.50)">16</text>
	<text style="fill: #bf09b5;" transform="matrix(1 0 0 1 55.50 86.50)">17</text>
	<text style="fill: #bf097c;" transform="matrix(1 0 0 1 63.50 83.50)">18</text>
	<text style="fill: #bf0942;" transform="matrix(1 0 0 1 72.25 80.50)">19</text>
</g>
</svg>
