<?xml version="1.0" encoding="UTF-8"?>
<!--
This file has been modified from the original version by the kanji_colorize.py
script (available at http://github.com/cayennes/kanji-colorize) with these
settings:
    mode: spectrum
    saturation: 0.95
    value: 0.75
    image_size: 327
It remains under a Creative Commons-Attribution-Share Alike 3.0 License.

The original SVG has the following copyright:

Copyright (C) 2009/2010/2011 Ulrich Apel.
This work is distributed under the conditions of the Creative Commons
Attribution-Share Alike 3.0 Licence. This means you are free:
* to Share - to copy, distribute and transmit the work
* to Remix - to adapt the work

Under the following conditions:
* Attribution. You must attribute the work by stating your use of KanjiVG in
  your own copyright header and linking to KanjiVG's website
  (http://kanjivg.tagaini.net)
* Share Alike. If you alter, transform, or build upon this work, you may
  distribute the resulting work only under the same or similar license to this
  one.

See http://creativecommons.org/licenses/by-sa/3.0/ for more details.
-->
<!DOCTYPE svg PUBLIC "-//W3C//DTD SVG 1.0//EN" "http://www.w3.org/TR/2001/REC-SVG-20010904/DTD/svg10.dtd" [
<!ATTLIST g
xmlns:kvg CDATA #FIXED "http://kanjivg.tagaini.net"
kvg:element CDATA #IMPLIED
kvg:variant CDATA #IMPLIED
kvg:partial CDATA #IMPLIED
kvg:original CDATA #IMPLIED
kvg:part CDATA #IMPLIED
kvg:number CDATA #IMPLIED
kvg:tradForm CDATA #IMPLIED
kvg:radicalForm CDATA #IMPLIED
kvg:position CDATA #IMPLIED
kvg:radical CDATA #IMPLIED
kvg:phon CDATA #IMPLIED >
<!ATTLIST path
xmlns:kvg CDATA #FIXED "http://kanjivg.tagaini.net"
kvg:type CDATA #IMPLIED >
]>
<svg xmlns="http://www.w3.org/2000/svg" width="327" height = "327" viewBox="0 0 327 327">
<g id="kvg:StrokePaths_09d72" style="fill:none;stroke:#000000;stroke-width:3;stroke-linecap:round;stroke-linejoin:round;" transform="scale(3.0,3.0)">
<g id="kvg:09d72" kvg:element="鵲">
	<g id="kvg:09d72-g1" kvg:element="昔" kvg:position="left">
		<g id="kvg:09d72-g2" kvg:position="top">
			<g id="kvg:09d72-g3" kvg:element="廾" kvg:variant="true">
				<g id="kvg:09d72-g4" kvg:element="十" kvg:part="1">
					<path style="stroke: #bf0909;" id="kvg:09d72-s1" kvg:type="㇐" d="M13.38,32.31c1.1,0.39,3.12,0.5,4.22,0.39c7.01-0.68,19.49-3.36,28.24-3.47c1.83-0.02,2.93,0.19,3.85,0.38"/>
				</g>
				<g id="kvg:09d72-g5" kvg:element="丿" kvg:variant="true">
					<path style="stroke: #bf4209;" id="kvg:09d72-s2" kvg:type="㇑" d="M22.2,16.38c0.8,0.51,1.28,2.3,1.44,3.33c0.16,1.02,1.31,20.63,1.86,30.35"/>
				</g>
				<g id="kvg:09d72-g6" kvg:element="十" kvg:part="2">
					<path style="stroke: #bf7c09;" id="kvg:09d72-s3" kvg:type="㇑" d="M37.84,14.25c0.8,0.51,1.28,2.3,1.44,3.33C39.44,18.6,39,37,38.59,48.01"/>
				</g>
			</g>
			<path style="stroke: #bfb509;" id="kvg:09d72-s4" kvg:type="㇐" d="M9.97,50.8c1.16,0.49,3.3,0.66,4.46,0.49C24.75,49.75,35,49,48.21,47.59c1.93-0.21,3.1,0.23,4.07,0.48"/>
		</g>
		<g id="kvg:09d72-g7" kvg:element="日" kvg:position="bottom">
			<path style="stroke: #8fbf09;" id="kvg:09d72-s5" kvg:type="㇑" d="M17.83,62.2c0.33,0.8,1.04,2.15,1.04,3.21c0,1.06,3,24.24,3,31.33"/>
			<path style="stroke: #56bf09;" id="kvg:09d72-s6" kvg:type="㇕a" d="M19.43,63.82c1.89-0.13,21.01-2.79,22.73-2.95c1.44-0.13,2.36,1.47,2.25,2.26c-0.23,1.59-1.44,31.23-1.44,32.03"/>
			<path style="stroke: #1cbf09;" id="kvg:09d72-s7" kvg:type="㇐a" d="M20.26,78.2c2.56,0,20.03-2.42,22.93-2.42"/>
			<path style="stroke: #09bf2f;" id="kvg:09d72-s8" kvg:type="㇐a" d="M22.65,94.26c5.21-0.57,13.04-1.64,19.54-2.13"/>
		</g>
	</g>
	<g id="kvg:09d72-g8" kvg:element="鳥" kvg:position="right" kvg:radical="general">
		<path style="stroke: #09bf69;" id="kvg:09d72-s9" kvg:type="㇒" d="M73.54,10.41c0.02,0.3,0.04,0.78-0.04,1.2c-0.48,2.49-3.2,7.83-6.92,10.94"/>
		<path style="stroke: #09bfa2;" id="kvg:09d72-s10" kvg:type="㇑" d="M60.3,23.99c0.33,0.41,0.6,0.96,0.6,1.63c0,6.81,0.04,32.97-0.17,43.68"/>
		<path style="stroke: #09a2bf;" id="kvg:09d72-s11" kvg:type="㇕a" d="M61.31,25.23c1.55,0,21.5-2.98,23.01-2.88c2.24,0.15,3.33,2.03,3.13,3.78c-0.12,1.08-1.64,12.42-3.08,20.68"/>
		<path style="stroke: #0969bf;" id="kvg:09d72-s12" kvg:type="㇐a" d="M61.56,35.85c1.9,0.13,22.1-2.58,24.25-2.44"/>
		<path style="stroke: #092fbf;" id="kvg:09d72-s13" kvg:type="㇐a" d="M61.47,46.71c3.88-0.13,18.05-1.84,22.88-1.85"/>
		<path style="stroke: #1c09bf;" id="kvg:09d72-s14" kvg:type="㇐b" d="M61.69,57.75c8.18-0.79,28.79-2.69,32.3-3.19c1.22-0.17,3.3-0.33,3.92-0.1"/>
		<path style="stroke: #5609bf;" id="kvg:09d72-s15" kvg:type="㇆a" d="M60.74,69.5c9.1-1.54,28.13-3.22,33.17-3.67c3.28-0.3,4.97,0.84,4.38,4.3c-1.64,9.64-3.04,17.37-7.93,26.22c-3.19,5.79-6.47,0.48-7.8-0.73"/>
		<g id="kvg:09d72-g9" kvg:element="灬" kvg:variant="true" kvg:original="火">
			<path style="stroke: #8f09bf;" id="kvg:09d72-s16" kvg:type="㇔" d="M53.94,78.73c0.57,4.78-0.91,11.51-2.6,14.44"/>
			<path style="stroke: #bf09b5;" id="kvg:09d72-s17" kvg:type="㇔" d="M60.07,77.74c2.41,2.48,4.69,8.98,5.29,12.62"/>
			<path style="stroke: #bf097c;" id="kvg:09d72-s18" kvg:type="㇔" d="M69.75,76.29c2.01,1.78,5.19,7.14,5.69,9.76"/>
			<path style="stroke: #bf0942;" id="kvg:09d72-s19" kvg:type="㇔" d="M79.41,74.48c1.98,1.71,5.11,6.88,5.61,9.39"/>
		</g>
	</g>
</g>
</g>
<g id="kvg:StrokeNumbers_09d72" style="font-size:8;fill:#808080" transform="scale(3.0,3.0)">
	<text style="fill: #bf0909;" transform="matrix(1 0 0 1 7.50 32.50)">1</text>
	<text style="fill: #bf4209;" transform="matrix(1 0 0 1 14.50 16.50)">2</text>
	<text style="fill: #bf7c09;" transform="matrix(1 0 0 1 29.50 14.50)">3</text>
	<text style="fill: #bfb509;" transform="matrix(1 0 0 1 3.50 51.50)">4</text>
	<text style="fill: #8fbf09;" transform="matrix(1 0 0 1 11.25 68.50)">5</text>
	<text style="fill: #56bf09;" transform="matrix(1 0 0 1 22.50 60.25)">6</text>
	<text style="fill: #1cbf09;" transform="matrix(1 0 0 1 23.50 74.50)">7</text>
	<text style="fill: #09bf2f;" transform="matrix(1 0 0 1 25.50 90.50)">8</text>
	<text style="fill: #09bf69;" transform="matrix(1 0 0 1 65.50 9.50)">9</text>
	<text style="fill: #09bfa2;" transform="matrix(1 0 0 1 50.50 30.50)">10</text>
	<text style="fill: #09a2bf;" transform="matrix(1 0 0 1 58.50 21.50)">11</text>
	<text style="fill: #0969bf;" transform="matrix(1 0 0 1 64.45 32.50)">12</text>
	<text style="fill: #092fbf;" transform="matrix(1 0 0 1 64.49 43.50)">13</text>
	<text style="fill: #1c09bf;" transform="matrix(1 0 0 1 64.34 54.85)">14</text>
	<text style="fill: #5609bf;" transform="matrix(1 0 0 1 64.50 65.27)">15</text>
	<text style="fill: #8f09bf;" transform="matrix(1 0 0 1 46.50 77.50)">16</text>
	<text style="fill: #bf09b5;" transform="matrix(1 0 0 1 55.25 87.50)">17</text>
	<text style="fill: #bf097c;" transform="matrix(1 0 0 1 64.50 83.50)">18</text>
	<text style="fill: #bf0942;" transform="matrix(1 0 0 1 73.50 80.50)">19</text>
</g>
</svg>
