<?xml version="1.0" encoding="UTF-8"?>
<!--
This file has been modified from the original version by the kanji_colorize.py
script (available at http://github.com/cayennes/kanji-colorize) with these
settings:
    mode: spectrum
    saturation: 0.95
    value: 0.75
    image_size: 327
It remains under a Creative Commons-Attribution-Share Alike 3.0 License.

The original SVG has the following copyright:

Copyright (C) 2009/2010/2011 Ulrich Apel.
This work is distributed under the conditions of the Creative Commons
Attribution-Share Alike 3.0 Licence. This means you are free:
* to Share - to copy, distribute and transmit the work
* to Remix - to adapt the work

Under the following conditions:
* Attribution. You must attribute the work by stating your use of KanjiVG in
  your own copyright header and linking to KanjiVG's website
  (http://kanjivg.tagaini.net)
* Share Alike. If you alter, transform, or build upon this work, you may
  distribute the resulting work only under the same or similar license to this
  one.

See http://creativecommons.org/licenses/by-sa/3.0/ for more details.
-->
<!DOCTYPE svg PUBLIC "-//W3C//DTD SVG 1.0//EN" "http://www.w3.org/TR/2001/REC-SVG-20010904/DTD/svg10.dtd" [
<!ATTLIST g
xmlns:kvg CDATA #FIXED "http://kanjivg.tagaini.net"
kvg:element CDATA #IMPLIED
kvg:variant CDATA #IMPLIED
kvg:partial CDATA #IMPLIED
kvg:original CDATA #IMPLIED
kvg:part CDATA #IMPLIED
kvg:number CDATA #IMPLIED
kvg:tradForm CDATA #IMPLIED
kvg:radicalForm CDATA #IMPLIED
kvg:position CDATA #IMPLIED
kvg:radical CDATA #IMPLIED
kvg:phon CDATA #IMPLIED >
<!ATTLIST path
xmlns:kvg CDATA #FIXED "http://kanjivg.tagaini.net"
kvg:type CDATA #IMPLIED >
]>
<svg xmlns="http://www.w3.org/2000/svg" width="327" height = "327" viewBox="0 0 327 327">
<g id="kvg:StrokePaths_09d87" style="fill:none;stroke:#000000;stroke-width:3;stroke-linecap:round;stroke-linejoin:round;" transform="scale(3.0,3.0)">
<g id="kvg:09d87" kvg:element="鶇">
	<g id="kvg:09d87-g1" kvg:element="東" kvg:variant="true" kvg:position="left">
		<g id="kvg:09d87-g2" kvg:element="木" kvg:part="1">
			<path style="stroke: #bf0909;" id="kvg:09d87-s1" kvg:type="㇐" d="M13.94,27.71c0.81,0.38,2.3,0.49,3.1,0.38C25,27,37.5,25.25,45.23,24.76c1.35-0.09,2.16,0.18,2.84,0.37"/>
		</g>
		<g id="kvg:09d87-g3" kvg:element="日">
			<path style="stroke: #bf4209;" id="kvg:09d87-s2" kvg:type="㇑" d="M13.2,38.51c0.27,0.33,1.1,1.34,1.1,2.12c0,0.79,3.02,19.79,3.02,20.18c0,0.39,0.12,0.39,0.23,1.18"/>
			<path style="stroke: #bf7c09;" id="kvg:09d87-s3" kvg:type="㇕a" d="M14.89,39.42c5.16-0.58,27.94-3.65,29.75-3.76c1.51-0.1,2.93,1.89,2.86,2.48c-0.74,6.33-1.83,13.15-3.39,22.69"/>
			<path style="stroke: #bfb509;" id="kvg:09d87-s4" kvg:type="㇐a" d="M16.13,49.31c5.07-0.64,27.18-3.63,30.21-3.63"/>
			<path style="stroke: #8fbf09;" id="kvg:09d87-s5" kvg:type="㇐a" d="M18.38,59.78c5.47-0.42,18.96-2.41,25.77-2.77"/>
		</g>
		<g id="kvg:09d87-g4" kvg:element="木" kvg:part="2">
			<path style="stroke: #56bf09;" id="kvg:09d87-s6" kvg:type="㇑" d="M28.91,13c1.08,0.49,1.73,2.22,1.94,3.2c0.22,0.99,0,75.64-0.22,81.8"/>
			<path style="stroke: #1cbf09;" id="kvg:09d87-s7" kvg:type="㇒" d="M30.63,60.8C27.16,69.7,20,81.25,10.88,87.33"/>
			<path style="stroke: #09bf2f;" id="kvg:09d87-s8" kvg:type="㇔" d="M33.08,66.24c5.04,2.37,9.71,7,11.88,11.52"/>
		</g>
	</g>
	<g id="kvg:09d87-g5" kvg:element="鳥" kvg:position="right" kvg:radical="general">
		<path style="stroke: #09bf69;" id="kvg:09d87-s9" kvg:type="㇒" d="M69.04,11.16c0.02,0.31,0.03,0.81-0.03,1.26c-0.37,2.61-2.51,8.22-5.43,11.47"/>
		<path style="stroke: #09bfa2;" id="kvg:09d87-s10" kvg:type="㇑" d="M57.3,25.75c0.33,0.4,0.6,0.95,0.6,1.61c0,6.75,0.04,33.21-0.17,43.83"/>
		<path style="stroke: #09a2bf;" id="kvg:09d87-s11" kvg:type="㇕a" d="M58.31,27.99c1.55,0,21-3.96,22.51-3.86c2.24,0.15,3.33,2.01,3.13,3.75c-0.12,1.07-1.14,12.32-2.58,20.52"/>
		<path style="stroke: #0969bf;" id="kvg:09d87-s12" kvg:type="㇐a" d="M58.56,38.02c3.94-0.27,21.6-3.06,23.75-2.92"/>
		<path style="stroke: #092fbf;" id="kvg:09d87-s13" kvg:type="㇐a" d="M58.47,49.29c3.88-0.13,18.05-2.32,22.88-2.33"/>
		<path style="stroke: #1c09bf;" id="kvg:09d87-s14" kvg:type="㇐b" d="M58.19,60.58c9.22-1.18,29.6-4,33.56-4.74c1.38-0.26,3.72-0.49,4.42-0.15"/>
		<path style="stroke: #5609bf;" id="kvg:09d87-s15" kvg:type="㇆a" d="M57.74,71.42c9.1-1.62,29.13-4.4,34.17-4.88c3.28-0.31,5.17,0.93,4.38,4.55C94,81.5,92.5,88.25,88.36,95.19c-3.54,5.94-5.97,1.04-7.3-0.24"/>
		<g id="kvg:09d87-g6" kvg:element="灬" kvg:variant="true" kvg:original="火">
			<path style="stroke: #8f09bf;" id="kvg:09d87-s16" kvg:type="㇔" d="M53.6,81.58c0.15,5.17-0.93,9.88-2.69,12.63"/>
			<path style="stroke: #bf09b5;" id="kvg:09d87-s17" kvg:type="㇔" d="M62.32,79.35c1.84,2.07,3.58,7.52,4.04,10.57"/>
			<path style="stroke: #bf097c;" id="kvg:09d87-s18" kvg:type="㇔" d="M71.97,77.4c1.59,1.68,4.11,6.75,4.51,9.22"/>
			<path style="stroke: #bf0942;" id="kvg:09d87-s19" kvg:type="㇔" d="M80.41,75.11c1.98,1.8,5.11,7.21,5.61,9.85"/>
		</g>
	</g>
</g>
</g>
<g id="kvg:StrokeNumbers_09d87" style="font-size:8;fill:#808080" transform="scale(3.0,3.0)">
	<text style="fill: #bf0909;" transform="matrix(1 0 0 1 7.50 28.63)">1</text>
	<text style="fill: #bf4209;" transform="matrix(1 0 0 1 6.50 45.50)">2</text>
	<text style="fill: #bf7c09;" transform="matrix(1 0 0 1 16.50 36.50)">3</text>
	<text style="fill: #bfb509;" transform="matrix(1 0 0 1 19.50 46.50)">4</text>
	<text style="fill: #8fbf09;" transform="matrix(1 0 0 1 21.50 56.50)">5</text>
	<text style="fill: #56bf09;" transform="matrix(1 0 0 1 19.25 13.50)">6</text>
	<text style="fill: #1cbf09;" transform="matrix(1 0 0 1 21.50 69.50)">7</text>
	<text style="fill: #09bf2f;" transform="matrix(1 0 0 1 37.50 66.50)">8</text>
	<text style="fill: #09bf69;" transform="matrix(1 0 0 1 60.50 11.50)">9</text>
	<text style="fill: #09bfa2;" transform="matrix(1 0 0 1 47.50 33.50)">10</text>
	<text style="fill: #09a2bf;" transform="matrix(1 0 0 1 56.50 24.50)">11</text>
	<text style="fill: #0969bf;" transform="matrix(1 0 0 1 61.50 35.50)">12</text>
	<text style="fill: #092fbf;" transform="matrix(1 0 0 1 61.50 45.50)">13</text>
	<text style="fill: #1c09bf;" transform="matrix(1 0 0 1 61.50 56.65)">14</text>
	<text style="fill: #5609bf;" transform="matrix(1 0 0 1 61.50 67.08)">15</text>
	<text style="fill: #8f09bf;" transform="matrix(1 0 0 1 43.50 85.50)">16</text>
	<text style="fill: #bf09b5;" transform="matrix(1 0 0 1 56.50 86.50)">17</text>
	<text style="fill: #bf097c;" transform="matrix(1 0 0 1 66.50 84.50)">18</text>
	<text style="fill: #bf0942;" transform="matrix(1 0 0 1 75.50 81.50)">19</text>
</g>
</svg>
