<?xml version="1.0" encoding="UTF-8"?>
<!--
This file has been modified from the original version by the kanji_colorize.py
script (available at http://github.com/cayennes/kanji-colorize) with these
settings:
    mode: spectrum
    saturation: 0.95
    value: 0.75
    image_size: 327
It remains under a Creative Commons-Attribution-Share Alike 3.0 License.

The original SVG has the following copyright:

Copyright (C) 2009/2010/2011 Ulrich Apel.
This work is distributed under the conditions of the Creative Commons
Attribution-Share Alike 3.0 Licence. This means you are free:
* to Share - to copy, distribute and transmit the work
* to Remix - to adapt the work

Under the following conditions:
* Attribution. You must attribute the work by stating your use of KanjiVG in
  your own copyright header and linking to KanjiVG's website
  (http://kanjivg.tagaini.net)
* Share Alike. If you alter, transform, or build upon this work, you may
  distribute the resulting work only under the same or similar license to this
  one.

See http://creativecommons.org/licenses/by-sa/3.0/ for more details.
-->
<!DOCTYPE svg PUBLIC "-//W3C//DTD SVG 1.0//EN" "http://www.w3.org/TR/2001/REC-SVG-20010904/DTD/svg10.dtd" [
<!ATTLIST g
xmlns:kvg CDATA #FIXED "http://kanjivg.tagaini.net"
kvg:element CDATA #IMPLIED
kvg:variant CDATA #IMPLIED
kvg:partial CDATA #IMPLIED
kvg:original CDATA #IMPLIED
kvg:part CDATA #IMPLIED
kvg:number CDATA #IMPLIED
kvg:tradForm CDATA #IMPLIED
kvg:radicalForm CDATA #IMPLIED
kvg:position CDATA #IMPLIED
kvg:radical CDATA #IMPLIED
kvg:phon CDATA #IMPLIED >
<!ATTLIST path
xmlns:kvg CDATA #FIXED "http://kanjivg.tagaini.net"
kvg:type CDATA #IMPLIED >
]>
<svg xmlns="http://www.w3.org/2000/svg" width="327" height = "327" viewBox="0 0 327 327">
<g id="kvg:StrokePaths_09def" style="fill:none;stroke:#000000;stroke-width:3;stroke-linecap:round;stroke-linejoin:round;" transform="scale(3.0,3.0)">
<g id="kvg:09def" kvg:element="鷯">
	<g id="kvg:09def-g1" kvg:position="left">
		<g id="kvg:09def-g2" kvg:element="大">
			<path style="stroke: #bf0909;" id="kvg:09def-s1" kvg:type="㇐" d="M15.42,26.14c1.08,0.11,2.51,0.36,3.98,0.3C30.25,26,38.36,24.36,47.23,23.7c1.52-0.11,2.75-0.06,4.13,0.3"/>
			<path style="stroke: #bf3809;" id="kvg:09def-s2" kvg:type="㇒" d="M32.23,13.25c0.33,0.57,0.36,1.7,0.12,2.9c-3.03,15.09-7.6,29.35-22.13,38.29"/>
			<path style="stroke: #bf6809;" id="kvg:09def-s3" kvg:type="㇏" d="M32.25,25.8c4.2,4.97,14.01,17.61,18.21,20.94c1.43,1.13,1.92,1.3,2.57,1.41"/>
		</g>
		<path style="stroke: #bf9709;" id="kvg:09def-s4" kvg:type="㇔" d="M15.11,33.01c2.05,1.35,5.29,5.54,5.8,7.64"/>
		<path style="stroke: #b7bf09;" id="kvg:09def-s5" kvg:type="㇒" d="M49.88,30.02c0.02,0.17,0.04,0.43-0.04,0.68c-0.46,1.42-3.06,4.55-6.63,6.46"/>
		<g id="kvg:09def-g3" kvg:element="日">
			<path style="stroke: #87bf09;" id="kvg:09def-s6" kvg:type="㇑" d="M19.66,49.78c0.16,0.33,0.16,0.56,0.25,0.97c0.7,3.4,2.68,11.98,3.11,18.32"/>
			<path style="stroke: #58bf09;" id="kvg:09def-s7" kvg:type="㇕a" d="M20.39,50.65c5.45-0.85,16.1-2.22,20.17-2.94c1.49-0.26,3.26,0.67,3.18,1.6c-0.28,3.43-2.79,12.26-3.47,17.98"/>
			<path style="stroke: #29bf09;" id="kvg:09def-s8" kvg:type="㇐a" d="M21.91,59.02c1.78-0.33,18.37-2.29,19.84-2.42"/>
			<path style="stroke: #09bf19;" id="kvg:09def-s9" kvg:type="㇐a" d="M23.3,67.73c3.93-0.36,11.56-1.48,16.97-2.07"/>
		</g>
		<g id="kvg:09def-g4" kvg:element="小">
			<path style="stroke: #09bf48;" id="kvg:09def-s10" kvg:type="㇚" d="M31.48,69.88c0.06,0.36,0.78,1.89,0.83,4.19c0.27,11.05-0.17,13.45-0.17,17.22c0,8.54-4.78,1.14-5.78,0.19"/>
			<path style="stroke: #09bf78;" id="kvg:09def-s11" kvg:type="㇒" d="M19.9,74.12c0.02,0.38,0.04,0.99-0.04,1.55c-0.49,3.26-3.3,10.42-7.14,14.8"/>
			<path style="stroke: #09bfa7;" id="kvg:09def-s12" kvg:type="㇔" d="M41.22,74.93c2.61,1.86,6.75,7.63,7.41,10.52"/>
		</g>
	</g>
	<g id="kvg:09def-g5" kvg:element="鳥" kvg:position="right" kvg:radical="general">
		<path style="stroke: #09a7bf;" id="kvg:09def-s13" kvg:type="㇒" d="M73.54,11.41c0.02,0.27,0.03,0.71-0.03,1.09c-0.36,2.27-2.39,7.15-5.18,9.98"/>
		<path style="stroke: #0978bf;" id="kvg:09def-s14" kvg:type="㇑" d="M60.3,24.68c0.33,0.42,0.6,0.47,0.6,1.16c0,6.93,0.04,33.55-0.17,44.45"/>
		<path style="stroke: #0948bf;" id="kvg:09def-s15" kvg:type="㇕a" d="M61.31,25.95c1.55,0,21-3.03,22.51-2.93c2.24,0.15,3.33,2.06,3.13,3.85c-0.12,1.1-0.64,10.64-2.08,19.05"/>
		<path style="stroke: #0919bf;" id="kvg:09def-s16" kvg:type="㇐a" d="M61.56,36.27c1.9,0.13,21.6-2.63,23.75-2.48"/>
		<path style="stroke: #2909bf;" id="kvg:09def-s17" kvg:type="㇐a" d="M61.47,46.83c5.53-0.58,18.28-2.33,23.38-2.89"/>
		<path style="stroke: #5809bf;" id="kvg:09def-s18" kvg:type="㇐b" d="M61.19,58.03c9.03-0.91,29.02-3.08,32.9-3.65c1.35-0.2,3.65-0.38,4.33-0.11"/>
		<path style="stroke: #8709bf;" id="kvg:09def-s19" kvg:type="㇆a" d="M60.74,70.5c9.1-1.56,27.13-3.28,32.17-3.74c3.28-0.3,4.97,0.86,4.38,4.38c-1.64,9.81-3.79,17.6-7.43,23.66c-3.45,5.75-5.97,1-7.3-0.23"/>
		<g id="kvg:09def-g6" kvg:element="灬" kvg:variant="true" kvg:original="火">
			<path style="stroke: #b709bf;" id="kvg:09def-s20" kvg:type="㇔" d="M56.27,80.38c0.4,4.47-0.79,9.84-1.96,12.58"/>
			<path style="stroke: #bf0997;" id="kvg:09def-s21" kvg:type="㇔" d="M64.32,78.28c1.84,2.22,3.08,8.04,3.54,11.29"/>
			<path style="stroke: #bf0968;" id="kvg:09def-s22" kvg:type="㇔" d="M73.2,76.23c1.34,1.71,3.46,6.84,3.8,9.35"/>
			<path style="stroke: #bf0938;" id="kvg:09def-s23" kvg:type="㇔" d="M81.66,73.95c1.71,1.63,4.43,6.52,4.86,8.91"/>
		</g>
	</g>
</g>
</g>
<g id="kvg:StrokeNumbers_09def" style="font-size:8;fill:#808080" transform="scale(3.0,3.0)">
	<text style="fill: #bf0909;" transform="matrix(1 0 0 1 9.25 26.50)">1</text>
	<text style="fill: #bf3809;" transform="matrix(1 0 0 1 22.50 12.50)">2</text>
	<text style="fill: #bf6809;" transform="matrix(1 0 0 1 40.25 32.48)">3</text>
	<text style="fill: #bf9709;" transform="matrix(1 0 0 1 8.50 35.50)">4</text>
	<text style="fill: #b7bf09;" transform="matrix(1 0 0 1 52.50 30.50)">5</text>
	<text style="fill: #87bf09;" transform="matrix(1 0 0 1 14.50 59.50)">6</text>
	<text style="fill: #58bf09;" transform="matrix(1 0 0 1 25.50 47.50)">7</text>
	<text style="fill: #29bf09;" transform="matrix(1 0 0 1 25.50 56.10)">8</text>
	<text style="fill: #09bf19;" transform="matrix(1 0 0 1 26.50 65.50)">9</text>
	<text style="fill: #09bf48;" transform="matrix(1 0 0 1 23.50 76.95)">10</text>
	<text style="fill: #09bf78;" transform="matrix(1 0 0 1 10.50 74.50)">11</text>
	<text style="fill: #09bfa7;" transform="matrix(1 0 0 1 40.50 73.50)">12</text>
	<text style="fill: #09a7bf;" transform="matrix(1 0 0 1 62.50 10.50)">13</text>
	<text style="fill: #0978bf;" transform="matrix(1 0 0 1 51.75 36.50)">14</text>
	<text style="fill: #0948bf;" transform="matrix(1 0 0 1 59.50 22.50)">15</text>
	<text style="fill: #0919bf;" transform="matrix(1 0 0 1 64.46 33.50)">16</text>
	<text style="fill: #2909bf;" transform="matrix(1 0 0 1 64.50 43.50)">17</text>
	<text style="fill: #5809bf;" transform="matrix(1 0 0 1 64.47 54.50)">18</text>
	<text style="fill: #8709bf;" transform="matrix(1 0 0 1 64.46 66.50)">19</text>
	<text style="fill: #b709bf;" transform="matrix(1 0 0 1 48.50 77.50)">20</text>
	<text style="fill: #bf0997;" transform="matrix(1 0 0 1 58.50 82.13)">21</text>
	<text style="fill: #bf0968;" transform="matrix(1 0 0 1 66.00 80.50)">22</text>
	<text style="fill: #bf0938;" transform="matrix(1 0 0 1 75.50 78.50)">23</text>
</g>
</svg>
