<?xml version="1.0" encoding="UTF-8"?>
<!--
This file has been modified from the original version by the kanji_colorize.py
script (available at http://github.com/cayennes/kanji-colorize) with these
settings:
    mode: spectrum
    saturation: 0.95
    value: 0.75
    image_size: 327
It remains under a Creative Commons-Attribution-Share Alike 3.0 License.

The original SVG has the following copyright:

Copyright (C) 2009/2010/2011 Ulrich Apel.
This work is distributed under the conditions of the Creative Commons
Attribution-Share Alike 3.0 Licence. This means you are free:
* to Share - to copy, distribute and transmit the work
* to Remix - to adapt the work

Under the following conditions:
* Attribution. You must attribute the work by stating your use of KanjiVG in
  your own copyright header and linking to KanjiVG's website
  (http://kanjivg.tagaini.net)
* Share Alike. If you alter, transform, or build upon this work, you may
  distribute the resulting work only under the same or similar license to this
  one.

See http://creativecommons.org/licenses/by-sa/3.0/ for more details.
-->
<!DOCTYPE svg PUBLIC "-//W3C//DTD SVG 1.0//EN" "http://www.w3.org/TR/2001/REC-SVG-20010904/DTD/svg10.dtd" [
<!ATTLIST g
xmlns:kvg CDATA #FIXED "http://kanjivg.tagaini.net"
kvg:element CDATA #IMPLIED
kvg:variant CDATA #IMPLIED
kvg:partial CDATA #IMPLIED
kvg:original CDATA #IMPLIED
kvg:part CDATA #IMPLIED
kvg:number CDATA #IMPLIED
kvg:tradForm CDATA #IMPLIED
kvg:radicalForm CDATA #IMPLIED
kvg:position CDATA #IMPLIED
kvg:radical CDATA #IMPLIED
kvg:phon CDATA #IMPLIED >
<!ATTLIST path
xmlns:kvg CDATA #FIXED "http://kanjivg.tagaini.net"
kvg:type CDATA #IMPLIED >
]>
<svg xmlns="http://www.w3.org/2000/svg" width="327" height = "327" viewBox="0 0 327 327">
<g id="kvg:StrokePaths_09df2" style="fill:none;stroke:#000000;stroke-width:3;stroke-linecap:round;stroke-linejoin:round;" transform="scale(3.0,3.0)">
<g id="kvg:09df2" kvg:element="鷲">
	<g id="kvg:09df2-g1" kvg:element="就" kvg:position="top">
		<g id="kvg:09df2-g2" kvg:element="京" kvg:position="left">
			<g id="kvg:09df2-g3" kvg:element="亠" kvg:position="top">
				<path style="stroke: #bf0909;" id="kvg:09df2-s1" kvg:type="㇑a" d="M35.31,7.11c0.79,0.29,1.09,1.06,1.1,2.04c0.03,2.23-0.24,3.21-0.1,5.09"/>
				<path style="stroke: #bf3809;" id="kvg:09df2-s2" kvg:type="㇐" d="M14.24,16.47c0.98,0.06,3.2,0.44,4.16,0.34c7.47-0.75,20.83-3.34,29.97-3.7c1.61-0.06,2.14-0.42,3.63-0.01"/>
			</g>
			<g id="kvg:09df2-g4" kvg:position="bottom">
				<g id="kvg:09df2-g5" kvg:element="口">
					<path style="stroke: #bf6809;" id="kvg:09df2-s3" kvg:type="㇑" d="M23.22,23.22c0.33,0.17,1.15,1.06,1.22,1.3c0.51,1.69,1.6,5.58,2.35,8.77"/>
					<path style="stroke: #bf9709;" id="kvg:09df2-s4" kvg:type="㇕b" d="M24.73,23.5c5.04-0.66,15.24-2.48,18.66-2.75c1.42-0.11,2.73,0.92,2.16,2.21c-0.63,1.44-1.4,4.2-2.29,6.19"/>
					<path style="stroke: #b7bf09;" id="kvg:09df2-s5" kvg:type="㇐b" d="M26.63,31.91c6.99-0.65,11.2-1.91,18.18-2.46"/>
				</g>
				<g id="kvg:09df2-g6" kvg:element="小">
					<path style="stroke: #87bf09;" id="kvg:09df2-s6" kvg:type="㇚" d="M35.21,32.68c0.04,0.19,0.55,1.01,0.62,2.23c0.11,1.98-0.13,9.69-0.13,11.4c0,3.58-3.54,0.2-4.28-0.3"/>
					<path style="stroke: #58bf09;" id="kvg:09df2-s7" kvg:type="㇒" d="M24.62,36.56c0.02,0.25,0.05,0.63-0.05,0.99c-0.55,2.08-3.69,6.66-8,9.46"/>
					<path style="stroke: #29bf09;" id="kvg:09df2-s8" kvg:type="㇔" d="M41.79,37.53c1.87,0.89,4.45,3.37,4.92,4.76"/>
				</g>
			</g>
		</g>
		<g id="kvg:09df2-g7" kvg:element="尤" kvg:position="right">
			<g id="kvg:09df2-g8" kvg:element="尢">
				<path style="stroke: #09bf19;" id="kvg:09df2-s9" kvg:type="㇐" d="M53.95,22.33c0.72,0.32,2.02,0.34,2.74,0.32c5.81-0.2,24.02-3.55,31.71-3.54c1.19,0,1.91,0.15,2.5,0.31"/>
				<g id="kvg:09df2-g9" kvg:element="儿" kvg:original="八">
					<g id="kvg:09df2-g10" kvg:element="丿">
						<path style="stroke: #09bf48;" id="kvg:09df2-s10" kvg:type="㇒" d="M68.89,8.92c0.06,0.95,0.13,0.9,0.13,2.2c0,8.9-3.24,28.05-20.83,34.87"/>
					</g>
					<path style="stroke: #09bf78;" id="kvg:09df2-s11" kvg:type="㇟" d="M69.77,27.29c0.49,0.64,0.89,1.39,0.92,2.37c0.13,4.38-0.35,8.63-0.35,11.61c0,6.96,5.93,6.17,11.77,6.17c11.41,0,12.58-0.38,12.58-4.88"/>
				</g>
			</g>
			<g id="kvg:09df2-g11" kvg:element="丶">
				<path style="stroke: #09bfa7;" id="kvg:09df2-s12" kvg:type="㇔" d="M80.21,8.72c2.36,0.77,6.09,3.16,6.68,4.36"/>
			</g>
		</g>
	</g>
	<g id="kvg:09df2-g12" kvg:element="鳥" kvg:position="bottom" kvg:radical="general">
		<path style="stroke: #09a7bf;" id="kvg:09df2-s13" kvg:type="㇒" d="M57.03,46.12c0.01,0.19,0.02,0.49-0.02,0.76c-0.28,1.6-1.89,5.12-4.09,7.28"/>
		<path style="stroke: #0978bf;" id="kvg:09df2-s14" kvg:type="㇑" d="M38.54,55.83c0.4,0.23,0.71,0.55,0.71,0.95c0,4.07,0.04,19.7-0.2,26.1"/>
		<path style="stroke: #0948bf;" id="kvg:09df2-s15" kvg:type="㇕a" d="M39.75,56.54c1.85-0.06,27.94-2.59,29.75-2.59c2.67,0,3.97,1.08,3.74,2.14c-0.15,0.65-1.96,6.36-3.68,11.36"/>
		<path style="stroke: #0919bf;" id="kvg:09df2-s16" kvg:type="㇐a" d="M40.04,62.34c2.27,0,28.67-2.38,31.23-2.38"/>
		<path style="stroke: #2909bf;" id="kvg:09df2-s17" kvg:type="㇐a" d="M39.94,69.34c4.62-0.23,23.83-2.07,29.59-2.27"/>
		<path style="stroke: #5809bf;" id="kvg:09df2-s18" kvg:type="㇐b" d="M39.2,76.34c11.7-1.14,40.03-4.73,45.05-5.35c1.75-0.22,4.72-0.47,5.61-0.31"/>
		<path style="stroke: #8709bf;" id="kvg:09df2-s19" kvg:type="㇆a" d="M39.07,83.01c10.86-1.28,38.71-3.46,44.73-3.93c3.92-0.31,4.93,1.43,4.22,3.53c-1.96,5.82-4.4,11.86-7.27,15.83c-3.25,4.51-5,3.26-8.7,0.15"/>
		<g id="kvg:09df2-g13" kvg:element="灬" kvg:variant="true" kvg:original="火">
			<path style="stroke: #b709bf;" id="kvg:09df2-s20" kvg:type="㇔" d="M26.06,88.77c0.65,3.68-0.47,8.12-2.37,10.42"/>
			<path style="stroke: #bf0997;" id="kvg:09df2-s21" kvg:type="㇔" d="M38.86,89.2c1.71,1.72,3.34,6.45,3.76,9.12"/>
			<path style="stroke: #bf0968;" id="kvg:09df2-s22" kvg:type="㇔" d="M53.35,87.27c1.33,1.39,3.42,5.74,3.75,7.9"/>
			<path style="stroke: #bf0938;" id="kvg:09df2-s23" kvg:type="㇔" d="M64.81,85.93c1.8,1.08,4.64,4.43,5.09,6.11"/>
		</g>
	</g>
</g>
</g>
<g id="kvg:StrokeNumbers_09df2" style="font-size:8;fill:#808080" transform="scale(3.0,3.0)">
	<text style="fill: #bf0909;" transform="matrix(1 0 0 1 27.50 7.70)">1</text>
	<text style="fill: #bf3809;" transform="matrix(1 0 0 1 7.25 16.70)">2</text>
	<text style="fill: #bf6809;" transform="matrix(1 0 0 1 18.25 29.70)">3</text>
	<text style="fill: #bf9709;" transform="matrix(1 0 0 1 26.50 21.70)">4</text>
	<text style="fill: #b7bf09;" transform="matrix(1 0 0 1 30.50 29.70)">5</text>
	<text style="fill: #87bf09;" transform="matrix(1 0 0 1 29.50 40.70)">6</text>
	<text style="fill: #58bf09;" transform="matrix(1 0 0 1 17.50 38.38)">7</text>
	<text style="fill: #29bf09;" transform="matrix(1 0 0 1 46.50 37.70)">8</text>
	<text style="fill: #09bf19;" transform="matrix(1 0 0 1 53.50 19.70)">9</text>
	<text style="fill: #09bf48;" transform="matrix(1 0 0 1 56.50 9.70)">10</text>
	<text style="fill: #09bf78;" transform="matrix(1 0 0 1 72.50 30.70)">11</text>
	<text style="fill: #09bfa7;" transform="matrix(1 0 0 1 74.50 6.70)">12</text>
	<text style="fill: #09a7bf;" transform="matrix(1 0 0 1 46.50 52.93)">13</text>
	<text style="fill: #0978bf;" transform="matrix(1 0 0 1 29.25 63.85)">14</text>
	<text style="fill: #0948bf;" transform="matrix(1 0 0 1 38.50 54.70)">15</text>
	<text style="fill: #0919bf;" transform="matrix(1 0 0 1 43.24 61.70)">16</text>
	<text style="fill: #2909bf;" transform="matrix(1 0 0 1 43.28 68.70)">17</text>
	<text style="fill: #5809bf;" transform="matrix(1 0 0 1 43.25 74.55)">18</text>
	<text style="fill: #8709bf;" transform="matrix(1 0 0 1 43.24 81.70)">19</text>
	<text style="fill: #b709bf;" transform="matrix(1 0 0 1 17.50 88.70)">20</text>
	<text style="fill: #bf0997;" transform="matrix(1 0 0 1 32.50 93.70)">21</text>
	<text style="fill: #bf0968;" transform="matrix(1 0 0 1 44.50 91.70)">22</text>
	<text style="fill: #bf0938;" transform="matrix(1 0 0 1 58.50 90.70)">23</text>
</g>
</svg>
