<?xml version="1.0" encoding="UTF-8"?>
<!--
This file has been modified from the original version by the kanji_colorize.py
script (available at http://github.com/cayennes/kanji-colorize) with these
settings:
    mode: spectrum
    saturation: 0.95
    value: 0.75
    image_size: 327
It remains under a Creative Commons-Attribution-Share Alike 3.0 License.

The original SVG has the following copyright:

Copyright (C) 2009/2010/2011 Ulrich Apel.
This work is distributed under the conditions of the Creative Commons
Attribution-Share Alike 3.0 Licence. This means you are free:
* to Share - to copy, distribute and transmit the work
* to Remix - to adapt the work

Under the following conditions:
* Attribution. You must attribute the work by stating your use of KanjiVG in
  your own copyright header and linking to KanjiVG's website
  (http://kanjivg.tagaini.net)
* Share Alike. If you alter, transform, or build upon this work, you may
  distribute the resulting work only under the same or similar license to this
  one.

See http://creativecommons.org/licenses/by-sa/3.0/ for more details.
-->
<!DOCTYPE svg PUBLIC "-//W3C//DTD SVG 1.0//EN" "http://www.w3.org/TR/2001/REC-SVG-20010904/DTD/svg10.dtd" [
<!ATTLIST g
xmlns:kvg CDATA #FIXED "http://kanjivg.tagaini.net"
kvg:element CDATA #IMPLIED
kvg:variant CDATA #IMPLIED
kvg:partial CDATA #IMPLIED
kvg:original CDATA #IMPLIED
kvg:part CDATA #IMPLIED
kvg:number CDATA #IMPLIED
kvg:tradForm CDATA #IMPLIED
kvg:radicalForm CDATA #IMPLIED
kvg:position CDATA #IMPLIED
kvg:radical CDATA #IMPLIED
kvg:phon CDATA #IMPLIED >
<!ATTLIST path
xmlns:kvg CDATA #FIXED "http://kanjivg.tagaini.net"
kvg:type CDATA #IMPLIED >
]>
<svg xmlns="http://www.w3.org/2000/svg" width="327" height = "327" viewBox="0 0 327 327">
<g id="kvg:StrokePaths_09ed9" style="fill:none;stroke:#000000;stroke-width:3;stroke-linecap:round;stroke-linejoin:round;" transform="scale(3.0,3.0)">
<g id="kvg:09ed9" kvg:element="黙">
	<g id="kvg:09ed9-g1" kvg:position="top">
		<g id="kvg:09ed9-g2" kvg:element="黒" kvg:part="1" kvg:variant="true" kvg:original="黑" kvg:tradForm="true" kvg:position="left" kvg:phon="黒1">
			<g id="kvg:09ed9-g3" kvg:element="里">
				<path style="stroke: #bf0909;" id="kvg:09ed9-s1" kvg:type="㇑" d="M15.41,16.21c0.75,0.75,1.27,2.09,1.46,3.04c1.12,5.62,2.08,11.64,2.94,18.49c0.15,1.2,0.28,2.38,0.38,3.51"/>
				<path style="stroke: #bf5209;" id="kvg:09ed9-s2" kvg:type="㇕a" d="M17.36,17.66c8.14-1.29,20.06-2.51,27.26-3.4c3.56-0.44,6.23,0.02,5.85,4.12c-0.33,3.52-1.13,9.49-2.17,14.92c-0.33,1.75-0.69,3.44-1.07,4.98"/>
				<path style="stroke: #bf9a09;" id="kvg:09ed9-s3" kvg:type="㇐a" d="M19.69,28.51C22.44,28.12,43,25.5,48.1,25.37"/>
				<path style="stroke: #9abf09;" id="kvg:09ed9-s4" kvg:type="㇐a" d="M21.34,39.35c7.04-0.97,16.4-1.87,24.79-2.56"/>
				<path style="stroke: #52bf09;" id="kvg:09ed9-s5" kvg:type="㇑a" d="M32.99,18.2c0.94,0.94,1.01,2.06,1.01,3.43c0,9.62,0.05,36.97,0.05,40.36"/>
				<path style="stroke: #09bf09;" id="kvg:09ed9-s6" kvg:type="㇐" d="M17.92,50.64c1.54,0.75,3.85,0.55,5.47,0.41c5.5-0.47,13.34-2.03,20.24-3.03c1.49-0.22,2.62-0.26,4.28-0.04"/>
				<path style="stroke: #09bf52;" id="kvg:09ed9-s7" kvg:type="㇀/㇐" d="M15.38,66.54c1.07,1.17,2.56,1.13,3.88,0.76c9.07-2.54,19.68-5.66,30.83-8.52"/>
			</g>
		</g>
		<g id="kvg:09ed9-g4" kvg:element="犬" kvg:position="right">
			<g id="kvg:09ed9-g5" kvg:element="大">
				<path style="stroke: #09bf9a;" id="kvg:09ed9-s8" kvg:type="㇐" d="M56.15,34.58c1.53,0.8,4.79,0.87,6.47,0.65c6.29-0.83,14.77-2.1,20.99-2.83c1.54-0.18,2.86-0.4,4.38-0.04"/>
				<path style="stroke: #099abf;" id="kvg:09ed9-s9" kvg:type="㇒" d="M69.65,13.5c0.6,0.78,1.02,1.56,1.05,3.12C71.12,35.62,66,58.62,49.32,68.75"/>
				<path style="stroke: #0952bf;" id="kvg:09ed9-s10" kvg:type="㇏" d="M70.75,35.62c4.38,7.75,11.51,17.78,17.66,24.73c1.17,1.32,2.88,3.53,5.52,5.4"/>
			</g>
			<g id="kvg:09ed9-g6" kvg:element="丶">
				<path style="stroke: #0909bf;" id="kvg:09ed9-s11" kvg:type="㇔" d="M79.93,16.35c2.7,1.9,5.5,5.25,6.83,8.04"/>
			</g>
		</g>
	</g>
	<g id="kvg:09ed9-g7" kvg:element="黒" kvg:part="2" kvg:variant="true" kvg:original="黑" kvg:tradForm="true" kvg:position="bottom" kvg:phon="黒2">
		<g id="kvg:09ed9-g8" kvg:element="灬" kvg:variant="true" kvg:original="火" kvg:radical="nelson">
			<path style="stroke: #5209bf;" id="kvg:09ed9-s12" kvg:type="㇔" d="M20.44,80.75c-1.19,6-6.9,13-8.44,14.5"/>
			<path style="stroke: #9a09bf;" id="kvg:09ed9-s13" kvg:type="㇔" d="M37.88,79.62c1.77,2.75,4.39,10.07,3.88,14.62"/>
			<path style="stroke: #bf099a;" id="kvg:09ed9-s14" kvg:type="㇔" d="M60.75,78.75c2.75,2.56,6.75,9.98,6.75,14.5"/>
			<path style="stroke: #bf0952;" id="kvg:09ed9-s15" kvg:type="㇔" d="M83.33,78.08c3.43,2.93,8.86,12.07,9.72,16.63"/>
		</g>
	</g>
</g>
</g>
<g id="kvg:StrokeNumbers_09ed9" style="font-size:8;fill:#808080" transform="scale(3.0,3.0)">
	<text style="fill: #bf0909;" transform="matrix(1 0 0 1 11.00 25.38)">1</text>
	<text style="fill: #bf5209;" transform="matrix(1 0 0 1 20.00 14.25)">2</text>
	<text style="fill: #bf9a09;" transform="matrix(1 0 0 1 23.00 25.25)">3</text>
	<text style="fill: #9abf09;" transform="matrix(1 0 0 1 23.00 36.25)">4</text>
	<text style="fill: #52bf09;" transform="matrix(1 0 0 1 37.25 23.25)">5</text>
	<text style="fill: #09bf09;" transform="matrix(1 0 0 1 11.00 52.38)">6</text>
	<text style="fill: #09bf52;" transform="matrix(1 0 0 1 6.50 68.80)">7</text>
	<text style="fill: #09bf9a;" transform="matrix(1 0 0 1 55.25 32.25)">8</text>
	<text style="fill: #099abf;" transform="matrix(1 0 0 1 61.25 14.25)">9</text>
	<text style="fill: #0952bf;" transform="matrix(1 0 0 1 78.25 44.25)">10</text>
	<text style="fill: #0909bf;" transform="matrix(1 0 0 1 76.25 13.38)">11</text>
	<text style="fill: #5209bf;" transform="matrix(1 0 0 1 11.25 80.25)">12</text>
	<text style="fill: #9a09bf;" transform="matrix(1 0 0 1 28.25 81.25)">13</text>
	<text style="fill: #bf099a;" transform="matrix(1 0 0 1 50.25 81.25)">14</text>
	<text style="fill: #bf0952;" transform="matrix(1 0 0 1 73.25 80.25)">15</text>
</g>
</svg>
