<?xml version="1.0" encoding="UTF-8"?>
<!--
This file has been modified from the original version by the kanji_colorize.py
script (available at http://github.com/cayennes/kanji-colorize) with these
settings:
    mode: spectrum
    saturation: 0.95
    value: 0.75
    image_size: 327
It remains under a Creative Commons-Attribution-Share Alike 3.0 License.

The original SVG has the following copyright:

Copyright (C) 2009/2010/2011 Ulrich Apel.
This work is distributed under the conditions of the Creative Commons
Attribution-Share Alike 3.0 Licence. This means you are free:
* to Share - to copy, distribute and transmit the work
* to Remix - to adapt the work

Under the following conditions:
* Attribution. You must attribute the work by stating your use of KanjiVG in
  your own copyright header and linking to KanjiVG's website
  (http://kanjivg.tagaini.net)
* Share Alike. If you alter, transform, or build upon this work, you may
  distribute the resulting work only under the same or similar license to this
  one.

See http://creativecommons.org/licenses/by-sa/3.0/ for more details.
-->
<!DOCTYPE svg PUBLIC "-//W3C//DTD SVG 1.0//EN" "http://www.w3.org/TR/2001/REC-SVG-20010904/DTD/svg10.dtd" [
<!ATTLIST g
xmlns:kvg CDATA #FIXED "http://kanjivg.tagaini.net"
kvg:element CDATA #IMPLIED
kvg:variant CDATA #IMPLIED
kvg:partial CDATA #IMPLIED
kvg:original CDATA #IMPLIED
kvg:part CDATA #IMPLIED
kvg:number CDATA #IMPLIED
kvg:tradForm CDATA #IMPLIED
kvg:radicalForm CDATA #IMPLIED
kvg:position CDATA #IMPLIED
kvg:radical CDATA #IMPLIED
kvg:phon CDATA #IMPLIED >
<!ATTLIST path
xmlns:kvg CDATA #FIXED "http://kanjivg.tagaini.net"
kvg:type CDATA #IMPLIED >
]>
<svg xmlns="http://www.w3.org/2000/svg" width="327" height = "327" viewBox="0 0 327 327">
<g id="kvg:StrokePaths_09f21" style="fill:none;stroke:#000000;stroke-width:3;stroke-linecap:round;stroke-linejoin:round;" transform="scale(3.0,3.0)">
<g id="kvg:09f21" kvg:element="鼡" kvg:variant="true" kvg:original="鼠" kvg:radicalForm="true">
	<g id="kvg:09f21-g1" kvg:element="臼" kvg:variant="true" kvg:position="top">
		<g id="kvg:09f21-g2" kvg:element="⺍" kvg:original="つ">
			<path style="stroke: #bf0909;" id="kvg:09f21-s1" kvg:type="㇔" d="M24.43,17.52c5.18,4.68,10.73,12.88,11.47,15.23"/>
			<path style="stroke: #bf9109;" id="kvg:09f21-s2" kvg:type="㇔" d="M43.95,11.94c2.88,3.22,9.8,11.68,10.96,16.92"/>
			<path style="stroke: #64bf09;" id="kvg:09f21-s3" kvg:type="㇒" d="M80.11,9.5c0.63,0.94,1.97,2.16,0.94,3.76c-2.55,3.99-9.71,13.66-11.9,16.48"/>
		</g>
	</g>
	<g id="kvg:09f21-g3" kvg:element="用" kvg:variant="true" kvg:position="bottom">
		<path style="stroke: #09bf36;" id="kvg:09f21-s4" kvg:type="㇒" d="M27.47,39.39c1.03,0.81,1.72,1.62,2.06,2.43c0.34,0.81,0.34,21.36,0.34,23.18c0,15.19-7.11,29.39-16.37,35.25"/>
		<path style="stroke: #09bfbf;" id="kvg:09f21-s5" kvg:type="㇈" d="M29.75,42.5c11-1.75,41.75-5.75,45.75-5.75c2.25,0,5,1,5,3.75c0,18.5-1.92,37.7,7.5,54.25c5.07,8.91,5.75,3.5,6-3"/>
		<path style="stroke: #0936bf;" id="kvg:09f21-s6" kvg:type="㇐" d="M30.24,58.91c12.26-0.91,38.51-4.2,50-4.2"/>
		<path style="stroke: #6409bf;" id="kvg:09f21-s7" kvg:type="㇐" d="M29,76c8.79-0.78,41.83-3.73,52-4.25"/>
		<path style="stroke: #bf0991;" id="kvg:09f21-s8" kvg:type="㇑" d="M52.37,41.75c1.09,0.5,1.74,2.25,1.96,3.25c0.22,1,0,46.75-0.22,53"/>
	</g>
</g>
</g>
<g id="kvg:StrokeNumbers_09f21" style="font-size:8;fill:#808080" transform="scale(3.0,3.0)">
	<text style="fill: #bf0909;" transform="matrix(1 0 0 1 18.50 18.50)">1</text>
	<text style="fill: #bf9109;" transform="matrix(1 0 0 1 36.50 12.50)">2</text>
	<text style="fill: #64bf09;" transform="matrix(1 0 0 1 71.50 9.50)">3</text>
	<text style="fill: #09bf36;" transform="matrix(1 0 0 1 22.25 47.40)">4</text>
	<text style="fill: #09bfbf;" transform="matrix(1 0 0 1 38.50 37.50)">5</text>
	<text style="fill: #0936bf;" transform="matrix(1 0 0 1 34.45 54.50)">6</text>
	<text style="fill: #6409bf;" transform="matrix(1 0 0 1 34.50 72.50)">7</text>
	<text style="fill: #bf0991;" transform="matrix(1 0 0 1 46.50 49.50)">8</text>
</g>
</svg>
